<?xml version="1.0" encoding="UTF-8" standalone="no"?>
<svg
   xmlns:dc="http://purl.org/dc/elements/1.1/"
   xmlns:cc="http://creativecommons.org/ns#"
   xmlns:rdf="http://www.w3.org/1999/02/22-rdf-syntax-ns#"
   xmlns:svg="http://www.w3.org/2000/svg"
   xmlns="http://www.w3.org/2000/svg"
   xmlns:sodipodi="http://sodipodi.sourceforge.net/DTD/sodipodi-0.dtd"
   xmlns:inkscape="http://www.inkscape.org/namespaces/inkscape"
   width="567.429"
   height="370.872"
   viewBox="0 0 567.429 370.872"
   shape-rendering="crispEdges"
   version="1.1"
   id="svg234"
   sodipodi:docname="3He_2261_pipl.svg"
   inkscape:export-filename="C:\Users\eggne\Documents\Thesis\3He_2261_pipl.png"
   inkscape:export-xdpi="101.60002"
   inkscape:export-ydpi="101.60002"
   inkscape:version="0.92.4 (5da689c313, 2019-01-14)">
  <metadata
     id="metadata238">
    <rdf:RDF>
      <cc:Work
         rdf:about="">
        <dc:format>image/svg+xml</dc:format>
        <dc:type
           rdf:resource="http://purl.org/dc/dcmitype/StillImage" />
      </cc:Work>
    </rdf:RDF>
  </metadata>
  <sodipodi:namedview
     pagecolor="#ffffff"
     bordercolor="#666666"
     borderopacity="1"
     objecttolerance="10"
     gridtolerance="10"
     guidetolerance="10"
     inkscape:pageopacity="0"
     inkscape:pageshadow="2"
     inkscape:window-width="1920"
     inkscape:window-height="1001"
     id="namedview236"
     showgrid="false"
     inkscape:zoom="2.3897262"
     inkscape:cx="274.3435"
     inkscape:cy="186.75709"
     inkscape:window-x="-9"
     inkscape:window-y="-9"
     inkscape:window-maximized="1"
     inkscape:current-layer="svg234" />
  <title
     id="title2">
/mnt/c/Users/eggne/Documents/01-18-19/3He_2261_pipl.svg
</title>
  <desc
     id="desc4">
Creator: ROOT Version 6.18/04
CreationDate: Thu Jan 16 12:46:28 2020</desc>
  <defs
     id="defs6" />
  <rect
     x="0.5"
     y="0"
     width="566.929"
     height="370.372"
     fill="white"
     id="rect8" />
  <rect
     x="57.1929"
     y="37.0372"
     width="453.543"
     height="296.298"
     fill="white"
     id="rect10" />
  <rect
     x="57.1929"
     y="37.0372"
     width="453.543"
     height="296.298"
     fill="none"
     stroke="black"
     id="rect12" />
  <rect
     x="57.1929"
     y="37.0372"
     width="453.543"
     height="296.298"
     id="rect14"
     fill="white" />
  <rect
     x="57.1929"
     y="37.0372"
     width="453.543"
     height="296.298"
     fill="none"
     stroke="black"
     id="rect16" />
  <path
     d="M57.1929,319.845h 100.427v -0.0241092h 3.23959v -0.518045h 3.23959v -0.0193515h 3.23959v -1.07873h 3.23959v -1.53958h 3.23959v -1.19857h 3.23959v -2.60095h 3.23959v -5.84381h 3.23959v 3.60247h 3.23959v -6.8369h 3.23959v -7.55514h 3.23959v  0.745645h 3.23959v -6.38584h 3.23959v -3.33442h 3.23959v 4.18272h 3.23959v -7.70521h 3.23959v -2.24991h 3.23959v -7.68976h 3.23959v -16.2069h 3.23959v -0.948053h 3.23959v -0.928376h 3.23959v -12.4121h 3.23959v -0.815264h 3.23959v -8.56683h 3.23959v  -5.06829h 3.23959v -10.3122h 3.23959v -0.747491h 3.23959v 0.796255h 3.23959v -14.9501h 3.23959v -18.5552h 3.23959v -8.39178h 3.23959v -6.40463h 3.23959v -8.2651h 3.23959v -11.262h 3.23959v -3.79049h 3.23959v -18.7842h 3.23959v -0.960319h 3.23959v  2.77821h 3.23959v -16.378h 3.23959v 0.211367h 3.23959v -13.2092h 3.23959v 7.96942h 3.23959v -6.75842h 3.23959v -5.90447h 3.23959v -18.5405h 3.23959v 9.54828h 3.23959v -1.55846h 3.23959v -9.41441h 3.23959v -8.69678h 3.23959v -4.27452h 3.23959v  -5.84735h 3.23959v -6.00065h 3.23959v 27.3871h 3.23959v 62.2289h 3.23959v 19.5255h 3.23959v -4.86265h 3.23959v -0.536389h 3.23959v 25.9549h 3.23959v 58.7597h 3.23959v 65.8954h 3.23959v 12.0416h 3.23959v 1.01409h 3.23959v 0.607634h 3.23959v  -0.196058h 3.23959v 0.0476221h 3.23959v 0.206505h 3.23959v 0.0753141h 3.23959v -0.79471h 3.23959v 0.109406h 3.23959v 0.817644h 3.23959v -1.5917h 3.23959v 1.13095h 3.23959v -0.434261h 3.23959v 0.00665296h 3.23959v 0.227262h 3.23959v 0.14966h 3.23959v  0.131575h 3.23959v -0.000784713h 3.23959v 0.373095h 3.23959v -0.0997229h 3.23959v -0.266956h 3.23959v -0.120254h 3.23959v 0.324967h 3.23959v -0.143783h 3.23959v 0.0843322h 3.23959v 0.240487h 3.23959v 0.0900838h 3.23959v 0.054481h 3.23959v -0.159148h  3.23959v 0.148818h 3.23959v 0.122761h 3.23959v 0.148101h 3.23959v -0.127149h 3.23959v 0.118529h 3.23959v -0.06545h 3.23959v 0.00878367h 3.23959v -0.0361505h 3.23959v 0.154027h 3.23959v -0.146749h 3.23959v 0.0858948h 3.23959v -0.0222102h 3.23959v  0.0304742h 3.23959v -0.119471h 3.23959v 0.119471h 16.198v 0.00198608h 3.23959"
     fill="none"
     stroke="#000099"
     stroke-width="3"
     id="path18" />
  <path
     d="M57.1929,333.335h 453.543"
     fill="none"
     stroke="black"
     id="path20" />
  <path
     d="M57.1929,324.446v 8.88893"
     fill="none"
     stroke="black"
     id="path22" />
  <path
     d="M70.1513,328.89v 4.44446"
     fill="none"
     stroke="black"
     id="path24" />
  <path
     d="M83.1097,328.89v 4.44446"
     fill="none"
     stroke="black"
     id="path26" />
  <path
     d="M96.0681,328.89v 4.44446"
     fill="none"
     stroke="black"
     id="path28" />
  <path
     d="M109.026,328.89v 4.44446"
     fill="none"
     stroke="black"
     id="path30" />
  <path
     d="M121.985,324.446v 8.88893"
     fill="none"
     stroke="black"
     id="path32" />
  <path
     d="M134.943,328.89v 4.44446"
     fill="none"
     stroke="black"
     id="path34" />
  <path
     d="M147.902,328.89v 4.44446"
     fill="none"
     stroke="black"
     id="path36" />
  <path
     d="M160.86,328.89v 4.44446"
     fill="none"
     stroke="black"
     id="path38" />
  <path
     d="M173.818,328.89v 4.44446"
     fill="none"
     stroke="black"
     id="path40" />
  <path
     d="M186.777,324.446v 8.88893"
     fill="none"
     stroke="black"
     id="path42" />
  <path
     d="M199.735,328.89v 4.44446"
     fill="none"
     stroke="black"
     id="path44" />
  <path
     d="M212.693,328.89v 4.44446"
     fill="none"
     stroke="black"
     id="path46" />
  <path
     d="M225.652,328.89v 4.44446"
     fill="none"
     stroke="black"
     id="path48" />
  <path
     d="M238.61,328.89v 4.44446"
     fill="none"
     stroke="black"
     id="path50" />
  <path
     d="M251.569,324.446v 8.88893"
     fill="none"
     stroke="black"
     id="path52" />
  <path
     d="M264.527,328.89v 4.44446"
     fill="none"
     stroke="black"
     id="path54" />
  <path
     d="M277.485,328.89v 4.44446"
     fill="none"
     stroke="black"
     id="path56" />
  <path
     d="M290.444,328.89v 4.44446"
     fill="none"
     stroke="black"
     id="path58" />
  <path
     d="M303.402,328.89v 4.44446"
     fill="none"
     stroke="black"
     id="path60" />
  <path
     d="M316.361,324.446v 8.88893"
     fill="none"
     stroke="black"
     id="path62" />
  <path
     d="M329.319,328.89v 4.44446"
     fill="none"
     stroke="black"
     id="path64" />
  <path
     d="M342.277,328.89v 4.44446"
     fill="none"
     stroke="black"
     id="path66" />
  <path
     d="M355.236,328.89v 4.44446"
     fill="none"
     stroke="black"
     id="path68" />
  <path
     d="M368.194,328.89v 4.44446"
     fill="none"
     stroke="black"
     id="path70" />
  <path
     d="M381.152,324.446v 8.88893"
     fill="none"
     stroke="black"
     id="path72" />
  <path
     d="M394.111,328.89v 4.44446"
     fill="none"
     stroke="black"
     id="path74" />
  <path
     d="M407.069,328.89v 4.44446"
     fill="none"
     stroke="black"
     id="path76" />
  <path
     d="M420.028,328.89v 4.44446"
     fill="none"
     stroke="black"
     id="path78" />
  <path
     d="M432.986,328.89v 4.44446"
     fill="none"
     stroke="black"
     id="path80" />
  <path
     d="M445.944,324.446v 8.88893"
     fill="none"
     stroke="black"
     id="path82" />
  <path
     d="M458.903,328.89v 4.44446"
     fill="none"
     stroke="black"
     id="path84" />
  <path
     d="M471.861,328.89v 4.44446"
     fill="none"
     stroke="black"
     id="path86" />
  <path
     d="M484.819,328.89v 4.44446"
     fill="none"
     stroke="black"
     id="path88" />
  <path
     d="M497.778,328.89v 4.44446"
     fill="none"
     stroke="black"
     id="path90" />
  <path
     d="M510.736,324.446v 8.88893"
     fill="none"
     stroke="black"
     id="path92" />
  <text
     xml:space="preserve"
     x="51.6698"
     y="349.254"
     fill="black"
     font-size="17.4895"
     font-family="Helvetica"
     id="text94">0</text>
  <text
     xml:space="preserve"
     x="109.337"
     y="349.254"
     fill="black"
     font-size="17.4895"
     font-family="Helvetica"
     id="text96">0.5</text>
  <text
     xml:space="preserve"
     x="183.249"
     y="349.254"
     fill="black"
     font-size="17.4895"
     font-family="Helvetica"
     id="text98">1</text>
  <text
     xml:space="preserve"
     x="239.292"
     y="349.254"
     fill="black"
     font-size="17.4895"
     font-family="Helvetica"
     id="text100">1.5</text>
  <text
     xml:space="preserve"
     x="310.768"
     y="349.254"
     fill="black"
     font-size="17.4895"
     font-family="Helvetica"
     id="text102">2</text>
  <text
     xml:space="preserve"
     x="368.435"
     y="349.254"
     fill="black"
     font-size="17.4895"
     font-family="Helvetica"
     id="text104">2.5</text>
  <text
     xml:space="preserve"
     x="440.723"
     y="349.254"
     fill="black"
     font-size="17.4895"
     font-family="Helvetica"
     id="text106">3</text>
  <text
     xml:space="preserve"
     x="498.39"
     y="349.254"
     fill="black"
     font-size="17.4895"
     font-family="Helvetica"
     id="text108">3.5</text>
  <text
     xml:space="preserve"
     x="441.65747"
     y="362.93842"
     font-size="17.4895"
     id="text110"
     style="font-size:17.48950005px;font-family:Helvetica;fill:#000000">E [GeV]</text>
  <path
     d="M57.1929,333.335v -296.298"
     fill="none"
     stroke="black"
     id="path112" />
  <path
     d="M70.7992,319.845h -13.6063"
     fill="none"
     stroke="black"
     id="path114" />
  <path
     d="M63.9961,313.201h -6.80315"
     fill="none"
     stroke="black"
     id="path116" />
  <path
     d="M63.9961,306.557h -6.80315"
     fill="none"
     stroke="black"
     id="path118" />
  <path
     d="M63.9961,299.914h -6.80315"
     fill="none"
     stroke="black"
     id="path120" />
  <path
     d="M63.9961,293.27h -6.80315"
     fill="none"
     stroke="black"
     id="path122" />
  <path
     d="M70.7992,286.627h -13.6063"
     fill="none"
     stroke="black"
     id="path124" />
  <path
     d="M63.9961,279.983h -6.80315"
     fill="none"
     stroke="black"
     id="path126" />
  <path
     d="M63.9961,273.339h -6.80315"
     fill="none"
     stroke="black"
     id="path128" />
  <path
     d="M63.9961,266.696h -6.80315"
     fill="none"
     stroke="black"
     id="path130" />
  <path
     d="M63.9961,260.052h -6.80315"
     fill="none"
     stroke="black"
     id="path132" />
  <path
     d="M70.7992,253.408h -13.6063"
     fill="none"
     stroke="black"
     id="path134" />
  <path
     d="M63.9961,246.765h -6.80315"
     fill="none"
     stroke="black"
     id="path136" />
  <path
     d="M63.9961,240.121h -6.80315"
     fill="none"
     stroke="black"
     id="path138" />
  <path
     d="M63.9961,233.478h -6.80315"
     fill="none"
     stroke="black"
     id="path140" />
  <path
     d="M63.9961,226.834h -6.80315"
     fill="none"
     stroke="black"
     id="path142" />
  <path
     d="M70.7992,220.19h -13.6063"
     fill="none"
     stroke="black"
     id="path144" />
  <path
     d="M63.9961,213.547h -6.80315"
     fill="none"
     stroke="black"
     id="path146" />
  <path
     d="M63.9961,206.903h -6.80315"
     fill="none"
     stroke="black"
     id="path148" />
  <path
     d="M63.9961,200.26h -6.80315"
     fill="none"
     stroke="black"
     id="path150" />
  <path
     d="M63.9961,193.616h -6.80315"
     fill="none"
     stroke="black"
     id="path152" />
  <path
     d="M70.7992,186.972h -13.6063"
     fill="none"
     stroke="black"
     id="path154" />
  <path
     d="M63.9961,180.329h -6.80315"
     fill="none"
     stroke="black"
     id="path156" />
  <path
     d="M63.9961,173.685h -6.80315"
     fill="none"
     stroke="black"
     id="path158" />
  <path
     d="M63.9961,167.041h -6.80315"
     fill="none"
     stroke="black"
     id="path160" />
  <path
     d="M63.9961,160.398h -6.80315"
     fill="none"
     stroke="black"
     id="path162" />
  <path
     d="M70.7992,153.754h -13.6063"
     fill="none"
     stroke="black"
     id="path164" />
  <path
     d="M63.9961,147.111h -6.80315"
     fill="none"
     stroke="black"
     id="path166" />
  <path
     d="M63.9961,140.467h -6.80315"
     fill="none"
     stroke="black"
     id="path168" />
  <path
     d="M63.9961,133.823h -6.80315"
     fill="none"
     stroke="black"
     id="path170" />
  <path
     d="M63.9961,127.18h -6.80315"
     fill="none"
     stroke="black"
     id="path172" />
  <path
     d="M70.7992,120.536h -13.6063"
     fill="none"
     stroke="black"
     id="path174" />
  <path
     d="M63.9961,113.892h -6.80315"
     fill="none"
     stroke="black"
     id="path176" />
  <path
     d="M63.9961,107.249h -6.80315"
     fill="none"
     stroke="black"
     id="path178" />
  <path
     d="M63.9961,100.605h -6.80315"
     fill="none"
     stroke="black"
     id="path180" />
  <path
     d="M63.9961,93.9616h -6.80315"
     fill="none"
     stroke="black"
     id="path182" />
  <path
     d="M70.7992,87.3179h -13.6063"
     fill="none"
     stroke="black"
     id="path184" />
  <path
     d="M63.9961,80.6743h -6.80315"
     fill="none"
     stroke="black"
     id="path186" />
  <path
     d="M63.9961,74.0307h -6.80315"
     fill="none"
     stroke="black"
     id="path188" />
  <path
     d="M63.9961,67.3871h -6.80315"
     fill="none"
     stroke="black"
     id="path190" />
  <path
     d="M63.9961,60.7435h -6.80315"
     fill="none"
     stroke="black"
     id="path192" />
  <path
     d="M70.7992,54.0998h -13.6063"
     fill="none"
     stroke="black"
     id="path194" />
  <path
     d="M70.7992,319.845h -13.6063"
     fill="none"
     stroke="black"
     id="path196" />
  <path
     d="M63.9961,326.488h -6.80315"
     fill="none"
     stroke="black"
     id="path198" />
  <path
     d="M63.9961,333.132h -6.80315"
     fill="none"
     stroke="black"
     id="path200" />
  <path
     d="M70.7992,54.0998h -13.6063"
     fill="none"
     stroke="black"
     id="path202" />
  <path
     d="M63.9961,47.4562h -6.80315"
     fill="none"
     stroke="black"
     id="path204" />
  <path
     d="M63.9961,40.8126h -6.80315"
     fill="none"
     stroke="black"
     id="path206" />
  <text
     xml:space="preserve"
     x="45.1721"
     y="325.7"
     fill="black"
     font-size="17.4895"
     font-family="Helvetica"
     id="text208">0</text>
  <text
     xml:space="preserve"
     x="16.7444"
     y="292.399"
     fill="black"
     font-size="17.4895"
     font-family="Helvetica"
     id="text210">1000</text>
  <text
     xml:space="preserve"
     x="16.7444"
     y="259.098"
     fill="black"
     font-size="17.4895"
     font-family="Helvetica"
     id="text212">2000</text>
  <text
     xml:space="preserve"
     x="16.7444"
     y="226.609"
     fill="black"
     font-size="17.4895"
     font-family="Helvetica"
     id="text214">3000</text>
  <text
     xml:space="preserve"
     x="16.7444"
     y="193.308"
     fill="black"
     font-size="17.4895"
     font-family="Helvetica"
     id="text216">4000</text>
  <text
     xml:space="preserve"
     x="16.7444"
     y="160.007"
     fill="black"
     font-size="17.4895"
     font-family="Helvetica"
     id="text218">5000</text>
  <text
     xml:space="preserve"
     x="16.7444"
     y="126.706"
     fill="black"
     font-size="17.4895"
     font-family="Helvetica"
     id="text220">6000</text>
  <text
     xml:space="preserve"
     x="16.7444"
     y="93.4052"
     fill="black"
     font-size="17.4895"
     font-family="Helvetica"
     id="text222">7000</text>
  <text
     xml:space="preserve"
     x="16.7444"
     y="60.1042"
     fill="black"
     font-size="17.4895"
     font-family="Helvetica"
     id="text224">8000</text>
  <text
     xml:space="preserve"
     x="84.9708"
     y="26.8032"
     fill="black"
     font-size="11.8264"
     font-family="Helvetica"
     id="text226">3</text>
  <text
     xml:space="preserve"
     x="66.2898"
     y="34.9254"
     fill="black"
     font-size="17.4895"
     font-family="Helvetica"
     id="text228">10</text>
  <text
     xml:space="preserve"
     x="56.5431"
     y="34.9254"
     fill="black"
     font-size="17.4895"
     font-family="Times"
     id="text230">×</text>
  <path
     d="M57.1929,319.845h 129.584v -1.06324h 3.23959v -8.03091h 3.23959v -13.7516h 3.23959v -18.4694h 3.23959v -13.4534h 3.23959v -18.6938h 3.23959v -11.4055h 3.23959v -8.00651h 3.23959v -22.9739h 3.23959v -17.7016h 3.23959v 3.13785h 3.23959v  8.50297h 3.23959v -7.21381h 3.23959v -14.5271h 3.23959v -1.63176h 3.23959v -1.30549h 3.23959v -3.27456h 3.23959v 2.25719h 3.23959v -15.2436h 3.23959v 7.27656h 3.23959v -3.71626h 3.23959v 4.3189h 3.23959v -4.18997h 3.23959v 4.79492h 3.23959v  -2.81879h 3.23959v 1.4748h 3.23959v 1.46598h 3.23959v -3.63175h 3.23959v 0.439625h 3.23959v -4.8615h 3.23959v -1.46515h 3.23959v 0.331484h 3.23959v 3.53481h 3.23959v 5.64271h 3.23959v 4.82163h 3.23959v 3.64388h 3.23959v 3.71471h 3.23959v 2.47877h  3.23959v 10.2374h 3.23959v 3.96213h 3.23959v 2.23334h 3.23959v 4.40317h 3.23959v 8.11165h 3.23959v 3.40707h 3.23959v 2.54973h 3.23959v 15.2842h 3.23959v -5.54957h 3.23959v 2.82198h 3.23959v 8.43062h 3.23959v 6.71188h 3.23959v 0.678031h 3.23959v  4.26505h 3.23959v 0.641309h 3.23959v 3.12202h 3.23959v 1.93923h 3.23959v 6.131h 3.23959v 0.315385h 3.23959v 4.40692h 3.23959v 5.71177h 3.23959v 3.52485h 3.23959v 2.65545h 3.23959v 2.31389h 3.23959v 1.32767h 3.23959v 9.04562h 3.23959v -1.89952h  3.23959v 6.20863h 3.23959v 2.04827h 3.23959v -0.826618h 3.23959v 0.779309h 3.23959v 1.72563h 3.23959v 5.3372h 3.23959v -0.397021h 3.23959v 3.58714h 3.23959v 2.24391h 3.23959v 0.589841h 3.23959v 1.29462h 3.23959v 0.5034h 3.23959v 3.48173h 3.23959v  -0.40851h 3.23959v -0.530521h 3.23959v 1.00801h 3.23959v 2.07568h 3.23959v 0.858447h 3.23959v 0.793811h 3.23959v -0.101187h 3.23959v 0.243521h 3.23959v 1.04396h 3.23959v 0.444217h 3.23959v -0.11887h 3.23959v -0.54639h 3.23959v -0.220342h 3.23959v  0.70529h 3.23959v 0.558691h 3.23959v -0.170179h 3.23959v 0.598953h 19.4376"
     fill="none"
     stroke="black"
     stroke-width="3"
     id="path232" />
  <text
     xml:space="preserve"
     style="font-style:normal;font-weight:normal;font-size:40px;line-height:1.25;font-family:sans-serif;letter-spacing:0px;word-spacing:0px;fill:#000000;fill-opacity:1;stroke:none"
     x="72.393234"
     y="63.723854"
     id="text242"><tspan
       sodipodi:role="line"
       x="72.393234"
       y="63.723854"
       id="tspan244"
       style="font-size:26.66666603px"><tspan
   style="font-size:64.99999762%;baseline-shift:super"
   id="tspan9552">3</tspan>He @ 2.2 GeV:<tspan
   style="font-style:normal;font-variant:normal;font-weight:normal;font-stretch:normal;font-family:'Times New Roman';-inkscape-font-specification:'Times New Roman, '"
   id="tspan9554">π</tspan><tspan
   style="font-size:64.99999762%;baseline-shift:super"
   id="tspan9550">+</tspan></tspan></text>
  <text
     xml:space="preserve"
     style="font-style:normal;font-weight:normal;font-size:40px;line-height:1.25;font-family:sans-serif;letter-spacing:0px;word-spacing:0px;fill:#000099;fill-opacity:1;stroke:none"
     x="333.09253"
     y="114.77573"
     id="text250"><tspan
       sodipodi:role="line"
       id="tspan248"
       x="333.09253"
       y="114.77573"
       style="font-size:26.66666603px;fill:#000099;fill-opacity:1">Calorimetric</tspan></text>
  <text
     xml:space="preserve"
     style="font-style:normal;font-weight:normal;font-size:26.66666603px;line-height:1.25;font-family:sans-serif;letter-spacing:0px;word-spacing:0px;fill:#000000;fill-opacity:1;stroke:none"
     x="351.92316"
     y="242.40541"
     id="text254"><tspan
       sodipodi:role="line"
       id="tspan252"
       x="351.92316"
       y="242.40541">Kinematic</tspan></text>
</svg>
