<?xml version="1.0" standalone="no"?>
<svg width="567.429" height="401.405" viewBox="0 0 567.429 401.405" xmlns="http://www.w3.org/2000/svg" shape-rendering="crispEdges">
<title>
/mnt/c/Users/eggne/Documents/01-18-19/3He_2261_cal_pipl.svg
</title>
<desc>
Creator: ROOT Version 6.18/04
CreationDate: Thu Jan 16 12:17:57 2020</desc>
<defs>
</defs>
<rect x="0.5" y="0" width="566.929" height="400.905" fill="white"/>
<rect x="57.1929" y="40.0905" width="453.543" height="320.724" fill="white"/>
<rect x="57.1929" y="40.0905" width="453.543" height="320.724" fill="none" stroke="black"/>
<rect x="57.1929" y="40.0905" width="453.543" height="320.724" fill="white"/>
<rect x="57.1929" y="40.0905" width="453.543" height="320.724" fill="none" stroke="black"/>
<path d="M57.1929,346.213h 100.427v -0.0260968h 3.23959v -0.560752h 3.23959v -0.0209469h 3.23959v -1.16766h 3.23959v -1.6665h 3.23959v -1.29738h 3.23959v -2.81537h 3.23959v -6.32558h 3.23959v 3.89946h 3.23959v -7.40053h 3.23959v -8.17799h 3.23959v
 0.807115h 3.23959v -6.91228h 3.23959v -3.60931h 3.23959v 4.52755h 3.23959v -8.34042h 3.23959v -2.43539h 3.23959v -8.3237h 3.23959v -17.543h 3.23959v -1.02621h 3.23959v -1.00491h 3.23959v -13.4354h 3.23959v -0.882474h 3.23959v -9.27308h 3.23959v
 -5.48611h 3.23959v -11.1623h 3.23959v -0.809113h 3.23959v 0.861898h 3.23959v -16.1826h 3.23959v -20.0848h 3.23959v -9.0836h 3.23959v -6.93263h 3.23959v -8.94647h 3.23959v -12.1904h 3.23959v -4.10297h 3.23959v -20.3328h 3.23959v -1.03949h 3.23959v
 3.00725h 3.23959v -17.7282h 3.23959v 0.228792h 3.23959v -14.2982h 3.23959v 8.62642h 3.23959v -7.31559h 3.23959v -6.39123h 3.23959v -20.069h 3.23959v 10.3354h 3.23959v -1.68694h 3.23959v -10.1905h 3.23959v -9.41374h 3.23959v -4.62691h 3.23959v
 -6.3294h 3.23959v -6.49534h 3.23959v 29.6448h 3.23959v 67.359h 3.23959v 21.1352h 3.23959v -5.26352h 3.23959v -0.580609h 3.23959v 28.0947h 3.23959v 63.6038h 3.23959v 71.3278h 3.23959v 13.0343h 3.23959v 1.0977h 3.23959v 0.657727h 3.23959v -0.212221h
 3.23959v 0.0515481h 3.23959v 0.22353h 3.23959v 0.0815229h 3.23959v -0.860226h 3.23959v 0.118425h 3.23959v 0.88505h 3.23959v -1.72292h 3.23959v 1.22418h 3.23959v -0.470061h 3.23959v 0.00720143h 3.23959v 0.245997h 3.23959v 0.161998h 3.23959v 0.142422h
 3.23959v -0.000849404h 3.23959v 0.403853h 3.23959v -0.107944h 3.23959v -0.288964h 3.23959v -0.130168h 3.23959v 0.351757h 3.23959v -0.155637h 3.23959v 0.0912845h 3.23959v 0.260313h 3.23959v 0.0975102h 3.23959v 0.0589724h 3.23959v -0.172268h 3.23959v
 0.161086h 3.23959v 0.132882h 3.23959v 0.160311h 3.23959v -0.137631h 3.23959v 0.128301h 3.23959v -0.0708457h 3.23959v 0.00950779h 3.23959v -0.0391308h 3.23959v 0.166725h 3.23959v -0.158847h 3.23959v 0.0929759h 3.23959v -0.0240412h 3.23959v 0.0329865h
 3.23959v -0.12932h 3.23959v 0.12932h 16.198v 0.00214981h 3.23959" fill="none" stroke="#000099" stroke-width="3"/>
<path d="M57.1929,360.815h 453.543" fill="none" stroke="black"/>
<path d="M57.1929,351.193v 9.62173" fill="none" stroke="black"/>
<path d="M70.1513,356.004v 4.81086" fill="none" stroke="black"/>
<path d="M83.1097,356.004v 4.81086" fill="none" stroke="black"/>
<path d="M96.0681,356.004v 4.81086" fill="none" stroke="black"/>
<path d="M109.026,356.004v 4.81086" fill="none" stroke="black"/>
<path d="M121.985,351.193v 9.62173" fill="none" stroke="black"/>
<path d="M134.943,356.004v 4.81086" fill="none" stroke="black"/>
<path d="M147.902,356.004v 4.81086" fill="none" stroke="black"/>
<path d="M160.86,356.004v 4.81086" fill="none" stroke="black"/>
<path d="M173.818,356.004v 4.81086" fill="none" stroke="black"/>
<path d="M186.777,351.193v 9.62173" fill="none" stroke="black"/>
<path d="M199.735,356.004v 4.81086" fill="none" stroke="black"/>
<path d="M212.693,356.004v 4.81086" fill="none" stroke="black"/>
<path d="M225.652,356.004v 4.81086" fill="none" stroke="black"/>
<path d="M238.61,356.004v 4.81086" fill="none" stroke="black"/>
<path d="M251.569,351.193v 9.62173" fill="none" stroke="black"/>
<path d="M264.527,356.004v 4.81086" fill="none" stroke="black"/>
<path d="M277.485,356.004v 4.81086" fill="none" stroke="black"/>
<path d="M290.444,356.004v 4.81086" fill="none" stroke="black"/>
<path d="M303.402,356.004v 4.81086" fill="none" stroke="black"/>
<path d="M316.361,351.193v 9.62173" fill="none" stroke="black"/>
<path d="M329.319,356.004v 4.81086" fill="none" stroke="black"/>
<path d="M342.277,356.004v 4.81086" fill="none" stroke="black"/>
<path d="M355.236,356.004v 4.81086" fill="none" stroke="black"/>
<path d="M368.194,356.004v 4.81086" fill="none" stroke="black"/>
<path d="M381.152,351.193v 9.62173" fill="none" stroke="black"/>
<path d="M394.111,356.004v 4.81086" fill="none" stroke="black"/>
<path d="M407.069,356.004v 4.81086" fill="none" stroke="black"/>
<path d="M420.028,356.004v 4.81086" fill="none" stroke="black"/>
<path d="M432.986,356.004v 4.81086" fill="none" stroke="black"/>
<path d="M445.944,351.193v 9.62173" fill="none" stroke="black"/>
<path d="M458.903,356.004v 4.81086" fill="none" stroke="black"/>
<path d="M471.861,356.004v 4.81086" fill="none" stroke="black"/>
<path d="M484.819,356.004v 4.81086" fill="none" stroke="black"/>
<path d="M497.778,356.004v 4.81086" fill="none" stroke="black"/>
<path d="M510.736,351.193v 9.62173" fill="none" stroke="black"/>
<text xml:space="preserve" x="51.7608" y="378.718" fill="black" font-size="18.8902" font-family="Helvetica">0</text>
<text xml:space="preserve" x="108.377" y="378.718" fill="black" font-size="18.8902" font-family="Helvetica">0.5</text>
<text xml:space="preserve" x="182.591" y="378.718" fill="black" font-size="18.8902" font-family="Helvetica">1</text>
<text xml:space="preserve" x="238.442" y="378.718" fill="black" font-size="18.8902" font-family="Helvetica">1.5</text>
<text xml:space="preserve" x="310.36" y="378.718" fill="black" font-size="18.8902" font-family="Helvetica">2</text>
<text xml:space="preserve" x="367.742" y="378.718" fill="black" font-size="18.8902" font-family="Helvetica">2.5</text>
<text xml:space="preserve" x="440.425" y="378.718" fill="black" font-size="18.8902" font-family="Helvetica">3</text>
<text xml:space="preserve" x="497.041" y="378.718" fill="black" font-size="18.8902" font-family="Helvetica">3.5</text>
<text xml:space="preserve" x="458.787" y="396.315" fill="black" font-size="18.8902" font-family="Helvetica"> [GeV]</text>
<text xml:space="preserve" x="443.485" y="402.436" fill="black" font-size="12.7601" font-family="Helvetica">cal</text>
<text xml:space="preserve" x="432.009" y="396.315" fill="black" font-size="18.8902" font-family="Helvetica">E</text>
<path d="M57.1929,360.815v -320.724" fill="none" stroke="black"/>
<path d="M70.7992,346.213h -13.6063" fill="none" stroke="black"/>
<path d="M63.9961,339.021h -6.80315" fill="none" stroke="black"/>
<path d="M63.9961,331.83h -6.80315" fill="none" stroke="black"/>
<path d="M63.9961,324.639h -6.80315" fill="none" stroke="black"/>
<path d="M63.9961,317.447h -6.80315" fill="none" stroke="black"/>
<path d="M70.7992,310.256h -13.6063" fill="none" stroke="black"/>
<path d="M63.9961,303.065h -6.80315" fill="none" stroke="black"/>
<path d="M63.9961,295.873h -6.80315" fill="none" stroke="black"/>
<path d="M63.9961,288.682h -6.80315" fill="none" stroke="black"/>
<path d="M63.9961,281.491h -6.80315" fill="none" stroke="black"/>
<path d="M70.7992,274.299h -13.6063" fill="none" stroke="black"/>
<path d="M63.9961,267.108h -6.80315" fill="none" stroke="black"/>
<path d="M63.9961,259.917h -6.80315" fill="none" stroke="black"/>
<path d="M63.9961,252.725h -6.80315" fill="none" stroke="black"/>
<path d="M63.9961,245.534h -6.80315" fill="none" stroke="black"/>
<path d="M70.7992,238.343h -13.6063" fill="none" stroke="black"/>
<path d="M63.9961,231.151h -6.80315" fill="none" stroke="black"/>
<path d="M63.9961,223.96h -6.80315" fill="none" stroke="black"/>
<path d="M63.9961,216.769h -6.80315" fill="none" stroke="black"/>
<path d="M63.9961,209.578h -6.80315" fill="none" stroke="black"/>
<path d="M70.7992,202.386h -13.6063" fill="none" stroke="black"/>
<path d="M63.9961,195.195h -6.80315" fill="none" stroke="black"/>
<path d="M63.9961,188.004h -6.80315" fill="none" stroke="black"/>
<path d="M63.9961,180.812h -6.80315" fill="none" stroke="black"/>
<path d="M63.9961,173.621h -6.80315" fill="none" stroke="black"/>
<path d="M70.7992,166.43h -13.6063" fill="none" stroke="black"/>
<path d="M63.9961,159.238h -6.80315" fill="none" stroke="black"/>
<path d="M63.9961,152.047h -6.80315" fill="none" stroke="black"/>
<path d="M63.9961,144.856h -6.80315" fill="none" stroke="black"/>
<path d="M63.9961,137.664h -6.80315" fill="none" stroke="black"/>
<path d="M70.7992,130.473h -13.6063" fill="none" stroke="black"/>
<path d="M63.9961,123.282h -6.80315" fill="none" stroke="black"/>
<path d="M63.9961,116.09h -6.80315" fill="none" stroke="black"/>
<path d="M63.9961,108.899h -6.80315" fill="none" stroke="black"/>
<path d="M63.9961,101.708h -6.80315" fill="none" stroke="black"/>
<path d="M70.7992,94.5164h -13.6063" fill="none" stroke="black"/>
<path d="M63.9961,87.3251h -6.80315" fill="none" stroke="black"/>
<path d="M63.9961,80.1338h -6.80315" fill="none" stroke="black"/>
<path d="M63.9961,72.9424h -6.80315" fill="none" stroke="black"/>
<path d="M63.9961,65.7511h -6.80315" fill="none" stroke="black"/>
<path d="M70.7992,58.5598h -13.6063" fill="none" stroke="black"/>
<path d="M70.7992,346.213h -13.6063" fill="none" stroke="black"/>
<path d="M63.9961,353.404h -6.80315" fill="none" stroke="black"/>
<path d="M63.9961,360.595h -6.80315" fill="none" stroke="black"/>
<path d="M70.7992,58.5598h -13.6063" fill="none" stroke="black"/>
<path d="M63.9961,51.3685h -6.80315" fill="none" stroke="black"/>
<path d="M63.9961,44.1772h -6.80315" fill="none" stroke="black"/>
<text xml:space="preserve" x="44.1099" y="352.705" fill="black" font-size="18.8902" font-family="Helvetica">0</text>
<text xml:space="preserve" x="13.5065" y="316.746" fill="black" font-size="18.8902" font-family="Helvetica">1000</text>
<text xml:space="preserve" x="13.5065" y="280.787" fill="black" font-size="18.8902" font-family="Helvetica">2000</text>
<text xml:space="preserve" x="13.5065" y="244.828" fill="black" font-size="18.8902" font-family="Helvetica">3000</text>
<text xml:space="preserve" x="13.5065" y="208.869" fill="black" font-size="18.8902" font-family="Helvetica">4000</text>
<text xml:space="preserve" x="13.5065" y="172.91" fill="black" font-size="18.8902" font-family="Helvetica">5000</text>
<text xml:space="preserve" x="13.5065" y="136.951" fill="black" font-size="18.8902" font-family="Helvetica">6000</text>
<text xml:space="preserve" x="13.5065" y="100.991" fill="black" font-size="18.8902" font-family="Helvetica">7000</text>
<text xml:space="preserve" x="13.5065" y="65.0324" fill="black" font-size="18.8902" font-family="Helvetica">8000</text>
<text xml:space="preserve" x="86.9548" y="28.3082" fill="black" font-size="12.7601" font-family="Helvetica">3</text>
<text xml:space="preserve" x="67.0625" y="37.4892" fill="black" font-size="18.8902" font-family="Helvetica">10</text>
<text xml:space="preserve" x="57.1164" y="37.4892" fill="black" font-size="18.8902" font-family="Times">&#0215;</text></svg>
