<?xml version="1.0" encoding="UTF-8" standalone="no"?>
<svg
   xmlns:dc="http://purl.org/dc/elements/1.1/"
   xmlns:cc="http://creativecommons.org/ns#"
   xmlns:rdf="http://www.w3.org/1999/02/22-rdf-syntax-ns#"
   xmlns:svg="http://www.w3.org/2000/svg"
   xmlns="http://www.w3.org/2000/svg"
   xmlns:sodipodi="http://sodipodi.sourceforge.net/DTD/sodipodi-0.dtd"
   xmlns:inkscape="http://www.inkscape.org/namespaces/inkscape"
   width="567.429"
   height="370.872"
   viewBox="0 0 567.429 370.872"
   shape-rendering="crispEdges"
   version="1.1"
   id="svg206"
   sodipodi:docname="3He_2261_pimi.svg"
   inkscape:export-filename="C:\Users\eggne\Documents\Thesis\3He_2261_pimi.png"
   inkscape:export-xdpi="96"
   inkscape:export-ydpi="96"
   inkscape:version="0.92.4 (5da689c313, 2019-01-14)">
  <metadata
     id="metadata210">
    <rdf:RDF>
      <cc:Work
         rdf:about="">
        <dc:format>image/svg+xml</dc:format>
        <dc:type
           rdf:resource="http://purl.org/dc/dcmitype/StillImage" />
      </cc:Work>
    </rdf:RDF>
  </metadata>
  <sodipodi:namedview
     pagecolor="#ffffff"
     bordercolor="#666666"
     borderopacity="1"
     objecttolerance="10"
     gridtolerance="10"
     guidetolerance="10"
     inkscape:pageopacity="0"
     inkscape:pageshadow="2"
     inkscape:window-width="1920"
     inkscape:window-height="1001"
     id="namedview208"
     showgrid="false"
     inkscape:zoom="1.6897916"
     inkscape:cx="264.19213"
     inkscape:cy="154.64402"
     inkscape:window-x="-9"
     inkscape:window-y="-9"
     inkscape:window-maximized="1"
     inkscape:current-layer="svg206" />
  <title
     id="title2">
/mnt/c/Users/eggne/Documents/01-18-19/3He_2261_pimi.svg
</title>
  <desc
     id="desc4">
Creator: ROOT Version 6.18/04
CreationDate: Thu Jan 16 12:44:02 2020</desc>
  <defs
     id="defs6" />
  <rect
     x="0.5"
     y="0"
     width="566.929"
     height="370.372"
     fill="white"
     id="rect8" />
  <rect
     x="57.1929"
     y="37.0372"
     width="453.543"
     height="296.298"
     fill="white"
     id="rect10" />
  <rect
     x="57.1929"
     y="37.0372"
     width="453.543"
     height="296.298"
     fill="none"
     stroke="black"
     id="rect12" />
  <rect
     x="57.1929"
     y="37.0372"
     width="453.543"
     height="296.298"
     fill="white"
     id="rect14" />
  <rect
     x="57.1929"
     y="37.0372"
     width="453.543"
     height="296.298"
     fill="none"
     stroke="black"
     id="rect16" />
  <path
     d="M57.1929,319.878h 100.427v -0.0143105h 3.23959v -0.0509362h 3.23959v -0.0683672h 3.23959v -0.0577696h 3.23959v -0.0349266h 3.23959v -0.204448h 3.23959v -0.132674h 3.23959v -0.0256625h 3.23959v -0.0172064h 3.23959v -0.0870764h 3.23959v  -0.315394h 3.23959v -0.841033h 3.23959v 0.393508h 3.23959v -0.851323h 3.23959v 1.34913h 3.23959v -1.02515h 3.23959v -0.238073h 3.23959v -1.27489h 3.23959v -0.43116h 3.23959v -0.034776h 3.23959v 0.410645h 3.23959v -1.08992h 3.23959v 0.467664h  3.23959v -0.243725h 3.23959v -1.19488h 3.23959v -0.254762h 3.23959v 0.100599h 3.23959v -1.84932h 3.23959v 0.469705h 3.23959v -2.23274h 3.23959v 0.723277h 3.23959v -0.0703513h 3.23959v -0.0756641h 3.23959v -1.07594h 3.23959v -1.37182h 3.23959v  -0.100099h 3.23959v 1.72677h 3.23959v -3.89943h 3.23959v 0.313472h 3.23959v -1.0103h 3.23959v -0.785942h 3.23959v -0.49026h 3.23959v -0.80658h 3.23959v 0.381232h 3.23959v -1.60768h 3.23959v -2.16719h 3.23959v 0.185624h 3.23959v -1.41941h 3.23959v  -1.65318h 3.23959v -0.682185h 3.23959v -1.31513h 3.23959v -2.20511h 3.23959v 2.33585h 3.23959v 3.69584h 3.23959v -1.00954h 3.23959v -10.6587h 3.23959v -18.6343h 3.23959v -48.7439h 3.23959v -168.932h 3.23959v 95.7694h 3.23959v 159.407h 3.23959v  10.7915h 3.23959v 1.69024h 3.23959v 0.569939h 3.23959v 0.369583h 3.23959v 0.00996757h 3.23959v -0.068525h 3.23959v 0.0646511h 3.23959v -0.0241799h 3.23959v 0.0342414h 3.23959v 0.0480178h 3.23959v 0.00853388h 3.23959v -0.0745899h 3.23959v 0.112047h  3.23959v -0.0614161h 3.23959v 0.0632469h 3.23959v 0.0126201h 3.23959v -0.0101558h 3.23959v 0.0140618h 3.23959v -0.00464133h 3.23959v -0.031476h 3.23959v 0.0398304h 3.23959v -0.0120911h 3.23959v -0.00228319h 3.23959v 5.40009e-05h 3.23959v 0.00952932h  3.23959v 0.00351978h 3.23959v -0.00313356h 3.23959v 0.0237903h 3.23959v -0.0210113h 3.23959v -0.0495311h 3.23959v 0.0470469h 3.23959v 0.00345577h 3.23959v 0.0025966h 3.23959v -0.0116586h 3.23959v 0.00900941h 3.23959v -0.0178066h 3.23959v  -0.00291247h 3.23959v 0.0233682h 3.23959v -0.00787133h 3.23959v 0.00329417h 3.23959v 0.0237413h 3.23959v -0.0191641h 6.47919v -0.00290538h 3.23959v 0.00290538h 12.9584"
     fill="none"
     stroke="#000099"
     stroke-width="3"
     id="path18" />
  <path
     d="M57.1929,333.335h 453.543"
     fill="none"
     stroke="black"
     id="path20" />
  <path
     d="M57.1929,324.446v 8.88893"
     fill="none"
     stroke="black"
     id="path22" />
  <path
     d="M70.1513,328.89v 4.44446"
     fill="none"
     stroke="black"
     id="path24" />
  <path
     d="M83.1097,328.89v 4.44446"
     fill="none"
     stroke="black"
     id="path26" />
  <path
     d="M96.0681,328.89v 4.44446"
     fill="none"
     stroke="black"
     id="path28" />
  <path
     d="M109.026,328.89v 4.44446"
     fill="none"
     stroke="black"
     id="path30" />
  <path
     d="M121.985,324.446v 8.88893"
     fill="none"
     stroke="black"
     id="path32" />
  <path
     d="M134.943,328.89v 4.44446"
     fill="none"
     stroke="black"
     id="path34" />
  <path
     d="M147.902,328.89v 4.44446"
     fill="none"
     stroke="black"
     id="path36" />
  <path
     d="M160.86,328.89v 4.44446"
     fill="none"
     stroke="black"
     id="path38" />
  <path
     d="M173.818,328.89v 4.44446"
     fill="none"
     stroke="black"
     id="path40" />
  <path
     d="M186.777,324.446v 8.88893"
     fill="none"
     stroke="black"
     id="path42" />
  <path
     d="M199.735,328.89v 4.44446"
     fill="none"
     stroke="black"
     id="path44" />
  <path
     d="M212.693,328.89v 4.44446"
     fill="none"
     stroke="black"
     id="path46" />
  <path
     d="M225.652,328.89v 4.44446"
     fill="none"
     stroke="black"
     id="path48" />
  <path
     d="M238.61,328.89v 4.44446"
     fill="none"
     stroke="black"
     id="path50" />
  <path
     d="M251.569,324.446v 8.88893"
     fill="none"
     stroke="black"
     id="path52" />
  <path
     d="M264.527,328.89v 4.44446"
     fill="none"
     stroke="black"
     id="path54" />
  <path
     d="M277.485,328.89v 4.44446"
     fill="none"
     stroke="black"
     id="path56" />
  <path
     d="M290.444,328.89v 4.44446"
     fill="none"
     stroke="black"
     id="path58" />
  <path
     d="M303.402,328.89v 4.44446"
     fill="none"
     stroke="black"
     id="path60" />
  <path
     d="M316.361,324.446v 8.88893"
     fill="none"
     stroke="black"
     id="path62" />
  <path
     d="M329.319,328.89v 4.44446"
     fill="none"
     stroke="black"
     id="path64" />
  <path
     d="M342.277,328.89v 4.44446"
     fill="none"
     stroke="black"
     id="path66" />
  <path
     d="M355.236,328.89v 4.44446"
     fill="none"
     stroke="black"
     id="path68" />
  <path
     d="M368.194,328.89v 4.44446"
     fill="none"
     stroke="black"
     id="path70" />
  <path
     d="M381.152,324.446v 8.88893"
     fill="none"
     stroke="black"
     id="path72" />
  <path
     d="M394.111,328.89v 4.44446"
     fill="none"
     stroke="black"
     id="path74" />
  <path
     d="M407.069,328.89v 4.44446"
     fill="none"
     stroke="black"
     id="path76" />
  <path
     d="M420.028,328.89v 4.44446"
     fill="none"
     stroke="black"
     id="path78" />
  <path
     d="M432.986,328.89v 4.44446"
     fill="none"
     stroke="black"
     id="path80" />
  <path
     d="M445.944,324.446v 8.88893"
     fill="none"
     stroke="black"
     id="path82" />
  <path
     d="M458.903,328.89v 4.44446"
     fill="none"
     stroke="black"
     id="path84" />
  <path
     d="M471.861,328.89v 4.44446"
     fill="none"
     stroke="black"
     id="path86" />
  <path
     d="M484.819,328.89v 4.44446"
     fill="none"
     stroke="black"
     id="path88" />
  <path
     d="M497.778,328.89v 4.44446"
     fill="none"
     stroke="black"
     id="path90" />
  <path
     d="M510.736,324.446v 8.88893"
     fill="none"
     stroke="black"
     id="path92" />
  <text
     xml:space="preserve"
     x="51.6698"
     y="349.254"
     fill="black"
     font-size="17.4895"
     font-family="Helvetica"
     id="text94">0</text>
  <text
     xml:space="preserve"
     x="109.337"
     y="349.254"
     fill="black"
     font-size="17.4895"
     font-family="Helvetica"
     id="text96">0.5</text>
  <text
     xml:space="preserve"
     x="183.249"
     y="349.254"
     fill="black"
     font-size="17.4895"
     font-family="Helvetica"
     id="text98">1</text>
  <text
     xml:space="preserve"
     x="239.292"
     y="349.254"
     fill="black"
     font-size="17.4895"
     font-family="Helvetica"
     id="text100">1.5</text>
  <text
     xml:space="preserve"
     x="310.768"
     y="349.254"
     fill="black"
     font-size="17.4895"
     font-family="Helvetica"
     id="text102">2</text>
  <text
     xml:space="preserve"
     x="368.435"
     y="349.254"
     fill="black"
     font-size="17.4895"
     font-family="Helvetica"
     id="text104">2.5</text>
  <text
     xml:space="preserve"
     x="440.723"
     y="349.254"
     fill="black"
     font-size="17.4895"
     font-family="Helvetica"
     id="text106">3</text>
  <text
     xml:space="preserve"
     x="498.39"
     y="349.254"
     fill="black"
     font-size="17.4895"
     font-family="Helvetica"
     id="text108">3.5</text>
  <text
     xml:space="preserve"
     x="442.40518"
     y="364.16403"
     font-size="17.4895"
     id="text110"
     style="font-size:17.48950005px;font-family:Helvetica;fill:#000000">E [GeV]</text>
  <path
     d="M57.1929,333.335v -296.298"
     fill="none"
     stroke="black"
     id="path112" />
  <path
     d="M70.7992,319.878h -13.6063"
     fill="none"
     stroke="black"
     id="path114" />
  <path
     d="M63.9961,310.879h -6.80315"
     fill="none"
     stroke="black"
     id="path116" />
  <path
     d="M63.9961,301.88h -6.80315"
     fill="none"
     stroke="black"
     id="path118" />
  <path
     d="M63.9961,292.881h -6.80315"
     fill="none"
     stroke="black"
     id="path120" />
  <path
     d="M63.9961,283.882h -6.80315"
     fill="none"
     stroke="black"
     id="path122" />
  <path
     d="M70.7992,274.883h -13.6063"
     fill="none"
     stroke="black"
     id="path124" />
  <path
     d="M63.9961,265.884h -6.80315"
     fill="none"
     stroke="black"
     id="path126" />
  <path
     d="M63.9961,256.885h -6.80315"
     fill="none"
     stroke="black"
     id="path128" />
  <path
     d="M63.9961,247.886h -6.80315"
     fill="none"
     stroke="black"
     id="path130" />
  <path
     d="M63.9961,238.887h -6.80315"
     fill="none"
     stroke="black"
     id="path132" />
  <path
     d="M70.7992,229.888h -13.6063"
     fill="none"
     stroke="black"
     id="path134" />
  <path
     d="M63.9961,220.888h -6.80315"
     fill="none"
     stroke="black"
     id="path136" />
  <path
     d="M63.9961,211.889h -6.80315"
     fill="none"
     stroke="black"
     id="path138" />
  <path
     d="M63.9961,202.89h -6.80315"
     fill="none"
     stroke="black"
     id="path140" />
  <path
     d="M63.9961,193.891h -6.80315"
     fill="none"
     stroke="black"
     id="path142" />
  <path
     d="M70.7992,184.892h -13.6063"
     fill="none"
     stroke="black"
     id="path144" />
  <path
     d="M63.9961,175.893h -6.80315"
     fill="none"
     stroke="black"
     id="path146" />
  <path
     d="M63.9961,166.894h -6.80315"
     fill="none"
     stroke="black"
     id="path148" />
  <path
     d="M63.9961,157.895h -6.80315"
     fill="none"
     stroke="black"
     id="path150" />
  <path
     d="M63.9961,148.896h -6.80315"
     fill="none"
     stroke="black"
     id="path152" />
  <path
     d="M70.7992,139.897h -13.6063"
     fill="none"
     stroke="black"
     id="path154" />
  <path
     d="M63.9961,130.898h -6.80315"
     fill="none"
     stroke="black"
     id="path156" />
  <path
     d="M63.9961,121.899h -6.80315"
     fill="none"
     stroke="black"
     id="path158" />
  <path
     d="M63.9961,112.9h -6.80315"
     fill="none"
     stroke="black"
     id="path160" />
  <path
     d="M63.9961,103.901h -6.80315"
     fill="none"
     stroke="black"
     id="path162" />
  <path
     d="M70.7992,94.9017h -13.6063"
     fill="none"
     stroke="black"
     id="path164" />
  <path
     d="M63.9961,85.9026h -6.80315"
     fill="none"
     stroke="black"
     id="path166" />
  <path
     d="M63.9961,76.9035h -6.80315"
     fill="none"
     stroke="black"
     id="path168" />
  <path
     d="M63.9961,67.9045h -6.80315"
     fill="none"
     stroke="black"
     id="path170" />
  <path
     d="M63.9961,58.9054h -6.80315"
     fill="none"
     stroke="black"
     id="path172" />
  <path
     d="M70.7992,49.9064h -13.6063"
     fill="none"
     stroke="black"
     id="path174" />
  <path
     d="M70.7992,319.878h -13.6063"
     fill="none"
     stroke="black"
     id="path176" />
  <path
     d="M63.9961,328.877h -6.80315"
     fill="none"
     stroke="black"
     id="path178" />
  <path
     d="M70.7992,49.9064h -13.6063"
     fill="none"
     stroke="black"
     id="path180" />
  <path
     d="M63.9961,40.9073h -6.80315"
     fill="none"
     stroke="black"
     id="path182" />
  <text
     xml:space="preserve"
     x="45.1721"
     y="325.7"
     fill="black"
     font-size="17.4895"
     font-family="Helvetica"
     id="text184">0</text>
  <text
     xml:space="preserve"
     x="45.1721"
     y="281.028"
     fill="black"
     font-size="17.4895"
     font-family="Helvetica"
     id="text186">5</text>
  <text
     xml:space="preserve"
     x="35.4254"
     y="236.356"
     fill="black"
     font-size="17.4895"
     font-family="Helvetica"
     id="text188">10</text>
  <text
     xml:space="preserve"
     x="35.4254"
     y="190.872"
     fill="black"
     font-size="17.4895"
     font-family="Helvetica"
     id="text190">15</text>
  <text
     xml:space="preserve"
     x="35.4254"
     y="146.199"
     fill="black"
     font-size="17.4895"
     font-family="Helvetica"
     id="text192">20</text>
  <text
     xml:space="preserve"
     x="35.4254"
     y="100.715"
     fill="black"
     font-size="17.4895"
     font-family="Helvetica"
     id="text194">25</text>
  <text
     xml:space="preserve"
     x="35.4254"
     y="56.0431"
     fill="black"
     font-size="17.4895"
     font-family="Helvetica"
     id="text196">30</text>
  <text
     xml:space="preserve"
     x="84.9708"
     y="26.8032"
     fill="black"
     font-size="11.8264"
     font-family="Helvetica"
     id="text198">6</text>
  <text
     xml:space="preserve"
     x="66.2898"
     y="34.9254"
     fill="black"
     font-size="17.4895"
     font-family="Helvetica"
     id="text200">10</text>
  <text
     xml:space="preserve"
     x="56.5431"
     y="34.9254"
     fill="black"
     font-size="17.4895"
     font-family="Times"
     id="text202">×</text>
  <path
     d="M57.1929,319.878h 129.584v -0.0462996h 3.23959v -0.815179h 3.23959v -0.982574h 3.23959v -1.40435h 3.23959v -1.10855h 3.23959v -2.06172h 3.23959v 0.587181h 3.23959v -2.17312h 3.23959v -1.78222h 3.23959v -1.63116h 3.23959v 0.589805h 3.23959v  -0.761705h 3.23959v 0.201532h 3.23959v -3.0734h 3.23959v -0.191628h 3.23959v -0.922065h 3.23959v 2.05599h 3.23959v -0.792294h 3.23959v -3.85592h 3.23959v 0.865489h 3.23959v 0.26669h 3.23959v -1.23494h 3.23959v 0.361746h 3.23959v 1.14012h 3.23959v  0.283327h 3.23959v -2.02541h 3.23959v -0.154303h 3.23959v -1.23531h 3.23959v 0.387976h 3.23959v -0.129715h 3.23959v -0.474262h 3.23959v -0.920943h 3.23959v 0.213318h 3.23959v 0.304398h 3.23959v -0.16959h 3.23959v 0.0320861h 3.23959v -1.07465h  3.23959v 0.854933h 3.23959v 1.72367h 3.23959v -0.837968h 3.23959v 0.86499h 3.23959v -1.40485h 3.23959v -0.491191h 3.23959v 1.07411h 3.23959v -2.11243h 3.23959v -0.792369h 3.23959v 0.350333h 3.23959v -2.7631h 3.23959v 0.161605h 3.23959v 0.194233h  3.23959v -1.20095h 3.23959v -0.165466h 3.23959v -1.85493h 3.23959v 0.95386h 3.23959v 0.853788h 3.23959v 2.65815h 3.23959v 2.68015h 3.23959v 2.34564h 3.23959v 1.70189h 3.23959v 4.18267h 3.23959v 2.85808h 3.23959v 2.21971h 3.23959v 0.534387h 3.23959v  2.19063h 3.23959v 0.139451h 3.23959v 1.39794h 3.23959v 0.0136066h 3.23959v 0.864617h 3.23959v 0.300801h 3.23959v 1.17988h 3.23959v -0.753314h 3.23959v 0.692251h 3.23959v 0.0220208h 3.23959v 0.281382h 3.23959v 0.284695h 3.23959v 0.0102412h 3.23959v  0.128204h 3.23959v -0.147061h 3.23959v 0.607051h 3.23959v -0.468899h 3.23959v 0.109644h 3.23959v 0.327276h 3.23959v -0.295343h 3.23959v 0.0760054h 3.23959v 0.00306146h 3.23959v 0.124866h 3.23959v -0.0467123h 3.23959v -0.124898h 3.23959v 0.162567h  3.23959v -0.0259106h 3.23959v 0.0308799h 3.23959v 0.0631862h 3.23959v 0.085568h 3.23959v -0.0909572h 22.6772"
     fill="none"
     stroke="black"
     stroke-width="3"
     id="path204" />
  <text
     xml:space="preserve"
     style="font-style:normal;font-weight:normal;font-size:40px;line-height:1.25;font-family:sans-serif;letter-spacing:0px;word-spacing:0px;fill:#000000;fill-opacity:1;stroke:none"
     x="78.301743"
     y="73.541328"
     id="text242"><tspan
       sodipodi:role="line"
       x="78.301743"
       y="73.541328"
       id="tspan244"
       style="font-size:26.66666603px"><tspan
   style="font-size:64.99999762%;baseline-shift:super"
   id="tspan9552">3</tspan>He @ 2.2 GeV:<tspan
   style="font-style:normal;font-variant:normal;font-weight:normal;font-stretch:normal;font-family:'Times New Roman';-inkscape-font-specification:'Times New Roman, '"
   id="tspan9554">π<tspan
   style="font-size:65%;baseline-shift:super"
   id="tspan234">-</tspan></tspan></tspan></text>
  <text
     xml:space="preserve"
     style="font-style:normal;font-weight:normal;font-size:40px;line-height:1.25;font-family:sans-serif;letter-spacing:0px;word-spacing:0px;fill:#000099;fill-opacity:1;stroke:none"
     x="179.21802"
     y="183.77211"
     id="text250"><tspan
       sodipodi:role="line"
       id="tspan248"
       x="179.21802"
       y="183.77211"
       style="font-size:26.66666603px;fill:#000099;fill-opacity:1">Calorimetric</tspan></text>
  <text
     xml:space="preserve"
     style="font-style:normal;font-weight:normal;font-size:26.66666603px;line-height:1.25;font-family:sans-serif;letter-spacing:0px;word-spacing:0px;fill:#000000;fill-opacity:1;stroke:none"
     x="366.7085"
     y="291.87277"
     id="text254"><tspan
       sodipodi:role="line"
       id="tspan252"
       x="366.7085"
       y="291.87277">Kinematic</tspan></text>
</svg>
