<?xml version="1.0" standalone="no"?>
<svg width="567.429" height="401.405" viewBox="0 0 567.429 401.405" xmlns="http://www.w3.org/2000/svg" shape-rendering="crispEdges">
<title>
/mnt/c/Users/eggne/Documents/01-18-19/3He_2261_cal_pimi.svg
</title>
<desc>
Creator: ROOT Version 6.18/04
CreationDate: Thu Jan 16 12:16:08 2020</desc>
<defs>
</defs>
<rect x="0.5" y="0" width="566.929" height="400.905" fill="white"/>
<rect x="57.1929" y="40.0905" width="453.543" height="320.724" fill="white"/>
<rect x="57.1929" y="40.0905" width="453.543" height="320.724" fill="none" stroke="black"/>
<rect x="57.1929" y="40.0905" width="453.543" height="320.724" fill="white"/>
<rect x="57.1929" y="40.0905" width="453.543" height="320.724" fill="none" stroke="black"/>
<path d="M57.1929,346.249h 100.427v -0.0154903h 3.23959v -0.0551354h 3.23959v -0.0740033h 3.23959v -0.0625321h 3.23959v -0.0378059h 3.23959v -0.221302h 3.23959v -0.143612h 3.23959v -0.0277781h 3.23959v -0.0186249h 3.23959v -0.0942549h 3.23959v
 -0.341395h 3.23959v -0.910367h 3.23959v 0.425949h 3.23959v -0.921505h 3.23959v 1.46035h 3.23959v -1.10966h 3.23959v -0.257699h 3.23959v -1.37999h 3.23959v -0.466705h 3.23959v -0.0376429h 3.23959v 0.444498h 3.23959v -1.17977h 3.23959v 0.506218h
 3.23959v -0.263818h 3.23959v -1.29339h 3.23959v -0.275764h 3.23959v 0.108893h 3.23959v -2.00178h 3.23959v 0.508428h 3.23959v -2.41681h 3.23959v 0.782903h 3.23959v -0.076151h 3.23959v -0.0819018h 3.23959v -1.16464h 3.23959v -1.48491h 3.23959v
 -0.108351h 3.23959v 1.86912h 3.23959v -4.2209h 3.23959v 0.339315h 3.23959v -1.09359h 3.23959v -0.850735h 3.23959v -0.530677h 3.23959v -0.873074h 3.23959v 0.41266h 3.23959v -1.74021h 3.23959v -2.34585h 3.23959v 0.200926h 3.23959v -1.53643h 3.23959v
 -1.78947h 3.23959v -0.738424h 3.23959v -1.42355h 3.23959v -2.3869h 3.23959v 2.52842h 3.23959v 4.00053h 3.23959v -1.09276h 3.23959v -11.5374h 3.23959v -20.1705h 3.23959v -52.7623h 3.23959v -182.858h 3.23959v 103.665h 3.23959v 172.548h 3.23959v
 11.6811h 3.23959v 1.82958h 3.23959v 0.616925h 3.23959v 0.400052h 3.23959v 0.0107893h 3.23959v -0.0741742h 3.23959v 0.0699809h 3.23959v -0.0261733h 3.23959v 0.0370642h 3.23959v 0.0519764h 3.23959v 0.00923742h 3.23959v -0.080739h 3.23959v 0.121285h
 3.23959v -0.0664792h 3.23959v 0.068461h 3.23959v 0.0136605h 3.23959v -0.0109931h 3.23959v 0.015221h 3.23959v -0.00502396h 3.23959v -0.0340708h 3.23959v 0.043114h 3.23959v -0.0130879h 3.23959v -0.00247141h 3.23959v 5.84528e-05h 3.23959v 0.0103149h
 3.23959v 0.00380995h 3.23959v -0.00339189h 3.23959v 0.0257515h 3.23959v -0.0227434h 3.23959v -0.0536144h 3.23959v 0.0509254h 3.23959v 0.00374066h 3.23959v 0.00281067h 3.23959v -0.0126197h 3.23959v 0.00975214h 3.23959v -0.0192746h 3.23959v
 -0.00315258h 3.23959v 0.0252947h 3.23959v -0.00852024h 3.23959v 0.00356574h 3.23959v 0.0256985h 3.23959v -0.020744h 6.47919v -0.0031449h 3.23959v 0.0031449h 12.9584" fill="none" stroke="#000099" stroke-width="3"/>
<path d="M57.1929,360.815h 453.543" fill="none" stroke="black"/>
<path d="M57.1929,351.193v 9.62173" fill="none" stroke="black"/>
<path d="M70.1513,356.004v 4.81086" fill="none" stroke="black"/>
<path d="M83.1097,356.004v 4.81086" fill="none" stroke="black"/>
<path d="M96.0681,356.004v 4.81086" fill="none" stroke="black"/>
<path d="M109.026,356.004v 4.81086" fill="none" stroke="black"/>
<path d="M121.985,351.193v 9.62173" fill="none" stroke="black"/>
<path d="M134.943,356.004v 4.81086" fill="none" stroke="black"/>
<path d="M147.902,356.004v 4.81086" fill="none" stroke="black"/>
<path d="M160.86,356.004v 4.81086" fill="none" stroke="black"/>
<path d="M173.818,356.004v 4.81086" fill="none" stroke="black"/>
<path d="M186.777,351.193v 9.62173" fill="none" stroke="black"/>
<path d="M199.735,356.004v 4.81086" fill="none" stroke="black"/>
<path d="M212.693,356.004v 4.81086" fill="none" stroke="black"/>
<path d="M225.652,356.004v 4.81086" fill="none" stroke="black"/>
<path d="M238.61,356.004v 4.81086" fill="none" stroke="black"/>
<path d="M251.569,351.193v 9.62173" fill="none" stroke="black"/>
<path d="M264.527,356.004v 4.81086" fill="none" stroke="black"/>
<path d="M277.485,356.004v 4.81086" fill="none" stroke="black"/>
<path d="M290.444,356.004v 4.81086" fill="none" stroke="black"/>
<path d="M303.402,356.004v 4.81086" fill="none" stroke="black"/>
<path d="M316.361,351.193v 9.62173" fill="none" stroke="black"/>
<path d="M329.319,356.004v 4.81086" fill="none" stroke="black"/>
<path d="M342.277,356.004v 4.81086" fill="none" stroke="black"/>
<path d="M355.236,356.004v 4.81086" fill="none" stroke="black"/>
<path d="M368.194,356.004v 4.81086" fill="none" stroke="black"/>
<path d="M381.152,351.193v 9.62173" fill="none" stroke="black"/>
<path d="M394.111,356.004v 4.81086" fill="none" stroke="black"/>
<path d="M407.069,356.004v 4.81086" fill="none" stroke="black"/>
<path d="M420.028,356.004v 4.81086" fill="none" stroke="black"/>
<path d="M432.986,356.004v 4.81086" fill="none" stroke="black"/>
<path d="M445.944,351.193v 9.62173" fill="none" stroke="black"/>
<path d="M458.903,356.004v 4.81086" fill="none" stroke="black"/>
<path d="M471.861,356.004v 4.81086" fill="none" stroke="black"/>
<path d="M484.819,356.004v 4.81086" fill="none" stroke="black"/>
<path d="M497.778,356.004v 4.81086" fill="none" stroke="black"/>
<path d="M510.736,351.193v 9.62173" fill="none" stroke="black"/>
<text xml:space="preserve" x="51.7608" y="378.718" fill="black" font-size="18.8902" font-family="Helvetica">0</text>
<text xml:space="preserve" x="108.377" y="378.718" fill="black" font-size="18.8902" font-family="Helvetica">0.5</text>
<text xml:space="preserve" x="182.591" y="378.718" fill="black" font-size="18.8902" font-family="Helvetica">1</text>
<text xml:space="preserve" x="238.442" y="378.718" fill="black" font-size="18.8902" font-family="Helvetica">1.5</text>
<text xml:space="preserve" x="310.36" y="378.718" fill="black" font-size="18.8902" font-family="Helvetica">2</text>
<text xml:space="preserve" x="367.742" y="378.718" fill="black" font-size="18.8902" font-family="Helvetica">2.5</text>
<text xml:space="preserve" x="440.425" y="378.718" fill="black" font-size="18.8902" font-family="Helvetica">3</text>
<text xml:space="preserve" x="497.041" y="378.718" fill="black" font-size="18.8902" font-family="Helvetica">3.5</text>
<text xml:space="preserve" x="458.787" y="396.315" fill="black" font-size="18.8902" font-family="Helvetica"> [GeV]</text>
<text xml:space="preserve" x="443.485" y="402.436" fill="black" font-size="12.7601" font-family="Helvetica">cal</text>
<text xml:space="preserve" x="432.009" y="396.315" fill="black" font-size="18.8902" font-family="Helvetica">E</text>
<path d="M57.1929,360.815v -320.724" fill="none" stroke="black"/>
<path d="M70.7992,346.249h -13.6063" fill="none" stroke="black"/>
<path d="M63.9961,336.508h -6.80315" fill="none" stroke="black"/>
<path d="M63.9961,326.767h -6.80315" fill="none" stroke="black"/>
<path d="M63.9961,317.026h -6.80315" fill="none" stroke="black"/>
<path d="M63.9961,307.285h -6.80315" fill="none" stroke="black"/>
<path d="M70.7992,297.544h -13.6063" fill="none" stroke="black"/>
<path d="M63.9961,287.803h -6.80315" fill="none" stroke="black"/>
<path d="M63.9961,278.062h -6.80315" fill="none" stroke="black"/>
<path d="M63.9961,268.321h -6.80315" fill="none" stroke="black"/>
<path d="M63.9961,258.58h -6.80315" fill="none" stroke="black"/>
<path d="M70.7992,248.839h -13.6063" fill="none" stroke="black"/>
<path d="M63.9961,239.098h -6.80315" fill="none" stroke="black"/>
<path d="M63.9961,229.358h -6.80315" fill="none" stroke="black"/>
<path d="M63.9961,219.617h -6.80315" fill="none" stroke="black"/>
<path d="M63.9961,209.876h -6.80315" fill="none" stroke="black"/>
<path d="M70.7992,200.135h -13.6063" fill="none" stroke="black"/>
<path d="M63.9961,190.394h -6.80315" fill="none" stroke="black"/>
<path d="M63.9961,180.653h -6.80315" fill="none" stroke="black"/>
<path d="M63.9961,170.912h -6.80315" fill="none" stroke="black"/>
<path d="M63.9961,161.171h -6.80315" fill="none" stroke="black"/>
<path d="M70.7992,151.43h -13.6063" fill="none" stroke="black"/>
<path d="M63.9961,141.689h -6.80315" fill="none" stroke="black"/>
<path d="M63.9961,131.948h -6.80315" fill="none" stroke="black"/>
<path d="M63.9961,122.207h -6.80315" fill="none" stroke="black"/>
<path d="M63.9961,112.466h -6.80315" fill="none" stroke="black"/>
<path d="M70.7992,102.725h -13.6063" fill="none" stroke="black"/>
<path d="M63.9961,92.9844h -6.80315" fill="none" stroke="black"/>
<path d="M63.9961,83.2434h -6.80315" fill="none" stroke="black"/>
<path d="M63.9961,73.5025h -6.80315" fill="none" stroke="black"/>
<path d="M63.9961,63.7616h -6.80315" fill="none" stroke="black"/>
<path d="M70.7992,54.0206h -13.6063" fill="none" stroke="black"/>
<path d="M70.7992,346.249h -13.6063" fill="none" stroke="black"/>
<path d="M63.9961,355.99h -6.80315" fill="none" stroke="black"/>
<path d="M70.7992,54.0206h -13.6063" fill="none" stroke="black"/>
<path d="M63.9961,44.2797h -6.80315" fill="none" stroke="black"/>
<text xml:space="preserve" x="44.1099" y="352.705" fill="black" font-size="18.8902" font-family="Helvetica">0</text>
<text xml:space="preserve" x="44.1099" y="303.739" fill="black" font-size="18.8902" font-family="Helvetica">5</text>
<text xml:space="preserve" x="34.1638" y="255.539" fill="black" font-size="18.8902" font-family="Helvetica">10</text>
<text xml:space="preserve" x="34.1638" y="206.573" fill="black" font-size="18.8902" font-family="Helvetica">15</text>
<text xml:space="preserve" x="34.1638" y="157.608" fill="black" font-size="18.8902" font-family="Helvetica">20</text>
<text xml:space="preserve" x="34.1638" y="109.407" fill="black" font-size="18.8902" font-family="Helvetica">25</text>
<text xml:space="preserve" x="34.1638" y="60.4418" fill="black" font-size="18.8902" font-family="Helvetica">30</text>
<text xml:space="preserve" x="86.9548" y="28.3082" fill="black" font-size="12.7601" font-family="Helvetica">6</text>
<text xml:space="preserve" x="67.0625" y="37.4892" fill="black" font-size="18.8902" font-family="Helvetica">10</text>
<text xml:space="preserve" x="57.1164" y="37.4892" fill="black" font-size="18.8902" font-family="Times">&#0215;</text></svg>
