<?xml version="1.0" standalone="no"?>
<svg width="567.429" height="401.405" viewBox="0 0 567.429 401.405" xmlns="http://www.w3.org/2000/svg" shape-rendering="crispEdges">
<title>
/mnt/c/Users/eggne/Documents/01-18-19/3He_2261_kin_e_pipl.svg
</title>
<desc>
Creator: ROOT Version 6.18/04
CreationDate: Thu Jan 16 12:20:10 2020</desc>
<defs>
</defs>
<rect x="0.5" y="0" width="566.929" height="400.905" fill="white"/>
<rect x="57.1929" y="40.0905" width="453.543" height="320.724" fill="white"/>
<rect x="57.1929" y="40.0905" width="453.543" height="320.724" fill="none" stroke="black"/>
<rect x="57.1929" y="40.0905" width="453.543" height="320.724" fill="white"/>
<rect x="57.1929" y="40.0905" width="453.543" height="320.724" fill="none" stroke="black"/>
<path d="M57.1929,360.815h 129.584v -1.98319h 3.23959v -14.9795h 3.23959v -25.6499h 3.23959v -34.4497h 3.23959v -25.0937h 3.23959v -34.8683h 3.23959v -21.274h 3.23959v -14.934h 3.23959v -42.8516h 3.23959v -33.0176h 3.23959v 5.85281h 3.23959v 15.86h
 3.23959v -13.4554h 3.23959v -27.0965h 3.23959v -3.0436h 3.23959v -2.43504h 3.23959v -6.1078h 3.23959v 4.21017h 3.23959v -28.4327h 3.23959v 13.5725h 3.23959v -6.93168h 3.23959v 8.05574h 3.23959v -7.81525h 3.23959v 8.94362h 3.23959v -5.25769h 3.23959v
 2.75084h 3.23959v 2.73439h 3.23959v -6.77405h 3.23959v 0.820002h 3.23959v -9.06782h 3.23959v -2.73284h 3.23959v 0.618293h 3.23959v 6.59322h 3.23959v 10.5249h 3.23959v 8.99344h 3.23959v 6.79667h 3.23959v 6.9288h 3.23959v 4.62347h 3.23959v 19.0951h
 3.23959v 7.39028h 3.23959v 4.1657h 3.23959v 8.21292h 3.23959v 15.1301h 3.23959v 6.35496h 3.23959v 4.75583h 3.23959v 28.5086h 3.23959v -10.3512h 3.23959v 5.26364h 3.23959v 15.725h 3.23959v 12.5192h 3.23959v 1.26468h 3.23959v 7.95529h 3.23959v
 1.19619h 3.23959v 5.82329h 3.23959v 3.6171h 3.23959v 11.4357h 3.23959v 0.588266h 3.23959v 8.21991h 3.23959v 10.6538h 3.23959v 6.57465h 3.23959v 4.95303h 3.23959v 4.31593h 3.23959v 2.47642h 3.23959v 16.8722h 3.23959v -3.54303h 3.23959v 11.5805h
 3.23959v 3.8205h 3.23959v -1.54183h 3.23959v 1.45359h 3.23959v 3.21869h 3.23959v 9.95511h 3.23959v -0.740535h 3.23959v 6.69085h 3.23959v 4.1854h 3.23959v 1.10019h 3.23959v 2.41476h 3.23959v 0.938956h 3.23959v 6.49423h 3.23959v -0.761964h 3.23959v
 -0.989543h 3.23959v 1.88017h 3.23959v 3.87161h 3.23959v 1.6012h 3.23959v 1.48064h 3.23959v -0.188737h 3.23959v 0.454222h 3.23959v 1.94722h 3.23959v 0.828566h 3.23959v -0.221719h 3.23959v -1.01914h 3.23959v -0.410988h 3.23959v 1.31553h 3.23959v
 1.04209h 3.23959v -0.317423h 3.23959v 1.11719h 19.4376" fill="none" stroke="#000099" stroke-width="3"/>
<path d="M57.1929,360.815h 453.543" fill="none" stroke="black"/>
<path d="M57.1929,351.193v 9.62173" fill="none" stroke="black"/>
<path d="M70.1513,356.004v 4.81086" fill="none" stroke="black"/>
<path d="M83.1097,356.004v 4.81086" fill="none" stroke="black"/>
<path d="M96.0681,356.004v 4.81086" fill="none" stroke="black"/>
<path d="M109.026,356.004v 4.81086" fill="none" stroke="black"/>
<path d="M121.985,351.193v 9.62173" fill="none" stroke="black"/>
<path d="M134.943,356.004v 4.81086" fill="none" stroke="black"/>
<path d="M147.902,356.004v 4.81086" fill="none" stroke="black"/>
<path d="M160.86,356.004v 4.81086" fill="none" stroke="black"/>
<path d="M173.818,356.004v 4.81086" fill="none" stroke="black"/>
<path d="M186.777,351.193v 9.62173" fill="none" stroke="black"/>
<path d="M199.735,356.004v 4.81086" fill="none" stroke="black"/>
<path d="M212.693,356.004v 4.81086" fill="none" stroke="black"/>
<path d="M225.652,356.004v 4.81086" fill="none" stroke="black"/>
<path d="M238.61,356.004v 4.81086" fill="none" stroke="black"/>
<path d="M251.569,351.193v 9.62173" fill="none" stroke="black"/>
<path d="M264.527,356.004v 4.81086" fill="none" stroke="black"/>
<path d="M277.485,356.004v 4.81086" fill="none" stroke="black"/>
<path d="M290.444,356.004v 4.81086" fill="none" stroke="black"/>
<path d="M303.402,356.004v 4.81086" fill="none" stroke="black"/>
<path d="M316.361,351.193v 9.62173" fill="none" stroke="black"/>
<path d="M329.319,356.004v 4.81086" fill="none" stroke="black"/>
<path d="M342.277,356.004v 4.81086" fill="none" stroke="black"/>
<path d="M355.236,356.004v 4.81086" fill="none" stroke="black"/>
<path d="M368.194,356.004v 4.81086" fill="none" stroke="black"/>
<path d="M381.152,351.193v 9.62173" fill="none" stroke="black"/>
<path d="M394.111,356.004v 4.81086" fill="none" stroke="black"/>
<path d="M407.069,356.004v 4.81086" fill="none" stroke="black"/>
<path d="M420.028,356.004v 4.81086" fill="none" stroke="black"/>
<path d="M432.986,356.004v 4.81086" fill="none" stroke="black"/>
<path d="M445.944,351.193v 9.62173" fill="none" stroke="black"/>
<path d="M458.903,356.004v 4.81086" fill="none" stroke="black"/>
<path d="M471.861,356.004v 4.81086" fill="none" stroke="black"/>
<path d="M484.819,356.004v 4.81086" fill="none" stroke="black"/>
<path d="M497.778,356.004v 4.81086" fill="none" stroke="black"/>
<path d="M510.736,351.193v 9.62173" fill="none" stroke="black"/>
<text xml:space="preserve" x="51.7608" y="378.718" fill="black" font-size="18.8902" font-family="Helvetica">0</text>
<text xml:space="preserve" x="108.377" y="378.718" fill="black" font-size="18.8902" font-family="Helvetica">0.5</text>
<text xml:space="preserve" x="182.591" y="378.718" fill="black" font-size="18.8902" font-family="Helvetica">1</text>
<text xml:space="preserve" x="238.442" y="378.718" fill="black" font-size="18.8902" font-family="Helvetica">1.5</text>
<text xml:space="preserve" x="310.36" y="378.718" fill="black" font-size="18.8902" font-family="Helvetica">2</text>
<text xml:space="preserve" x="367.742" y="378.718" fill="black" font-size="18.8902" font-family="Helvetica">2.5</text>
<text xml:space="preserve" x="440.425" y="378.718" fill="black" font-size="18.8902" font-family="Helvetica">3</text>
<text xml:space="preserve" x="497.041" y="378.718" fill="black" font-size="18.8902" font-family="Helvetica">3.5</text>
<text xml:space="preserve" x="458.787" y="397.08" fill="black" font-size="18.8902" font-family="Helvetica"> [GeV]</text>
<text xml:space="preserve" x="443.485" y="402.436" fill="black" font-size="12.7601" font-family="Helvetica">kin</text>
<text xml:space="preserve" x="432.009" y="397.08" fill="black" font-size="18.8902" font-family="Helvetica">E</text>
<path d="M57.1929,360.815v -320.724" fill="none" stroke="black"/>
<path d="M70.7992,360.815h -13.6063" fill="none" stroke="black"/>
<path d="M63.9961,348.423h -6.80315" fill="none" stroke="black"/>
<path d="M63.9961,336.031h -6.80315" fill="none" stroke="black"/>
<path d="M63.9961,323.639h -6.80315" fill="none" stroke="black"/>
<path d="M63.9961,311.247h -6.80315" fill="none" stroke="black"/>
<path d="M70.7992,298.855h -13.6063" fill="none" stroke="black"/>
<path d="M63.9961,286.464h -6.80315" fill="none" stroke="black"/>
<path d="M63.9961,274.072h -6.80315" fill="none" stroke="black"/>
<path d="M63.9961,261.68h -6.80315" fill="none" stroke="black"/>
<path d="M63.9961,249.288h -6.80315" fill="none" stroke="black"/>
<path d="M70.7992,236.896h -13.6063" fill="none" stroke="black"/>
<path d="M63.9961,224.504h -6.80315" fill="none" stroke="black"/>
<path d="M63.9961,212.112h -6.80315" fill="none" stroke="black"/>
<path d="M63.9961,199.72h -6.80315" fill="none" stroke="black"/>
<path d="M63.9961,187.329h -6.80315" fill="none" stroke="black"/>
<path d="M70.7992,174.937h -13.6063" fill="none" stroke="black"/>
<path d="M63.9961,162.545h -6.80315" fill="none" stroke="black"/>
<path d="M63.9961,150.153h -6.80315" fill="none" stroke="black"/>
<path d="M63.9961,137.761h -6.80315" fill="none" stroke="black"/>
<path d="M63.9961,125.369h -6.80315" fill="none" stroke="black"/>
<path d="M70.7992,112.977h -13.6063" fill="none" stroke="black"/>
<path d="M63.9961,100.585h -6.80315" fill="none" stroke="black"/>
<path d="M63.9961,88.1935h -6.80315" fill="none" stroke="black"/>
<path d="M63.9961,75.8016h -6.80315" fill="none" stroke="black"/>
<path d="M63.9961,63.4097h -6.80315" fill="none" stroke="black"/>
<path d="M70.7992,51.0178h -13.6063" fill="none" stroke="black"/>
<path d="M70.7992,51.0178h -13.6063" fill="none" stroke="black"/>
<text xml:space="preserve" x="44.1099" y="367.242" fill="black" font-size="18.8902" font-family="Helvetica">0</text>
<text xml:space="preserve" x="13.5065" y="305.27" fill="black" font-size="18.8902" font-family="Helvetica">1000</text>
<text xml:space="preserve" x="13.5065" y="243.298" fill="black" font-size="18.8902" font-family="Helvetica">2000</text>
<text xml:space="preserve" x="13.5065" y="181.326" fill="black" font-size="18.8902" font-family="Helvetica">3000</text>
<text xml:space="preserve" x="13.5065" y="119.354" fill="black" font-size="18.8902" font-family="Helvetica">4000</text>
<text xml:space="preserve" x="13.5065" y="57.3815" fill="black" font-size="18.8902" font-family="Helvetica">5000</text>
<text xml:space="preserve" x="86.9548" y="28.3082" fill="black" font-size="12.7601" font-family="Helvetica">3</text>
<text xml:space="preserve" x="67.0625" y="37.4892" fill="black" font-size="18.8902" font-family="Helvetica">10</text>
<text xml:space="preserve" x="57.1164" y="37.4892" fill="black" font-size="18.8902" font-family="Times">&#0215;</text></svg>
