<?xml version="1.0" standalone="no"?>
<svg width="567.429" height="276.279" viewBox="0 0 567.429 276.279" xmlns="http://www.w3.org/2000/svg" shape-rendering="crispEdges">
<title>
/u/home/ltracy/Root_work/01-18-19/3He_2261_kin_e_pi_pimi.svg
</title>
<desc>
Creator: ROOT Version 6.10/02
CreationDate: Mon Nov 25 08:59:46 2019</desc>
<defs>
</defs>
<rect x="0.5" y="0" width="566.929" height="275.779" fill="white"/>
<rect x="57.1929" y="27.5779" width="453.543" height="220.624" fill="white"/>
<rect x="57.1929" y="27.5779" width="453.543" height="220.624" fill="none" stroke="black"/>
<rect x="57.1929" y="27.5779" width="453.543" height="220.624" fill="white"/>
<rect x="57.1929" y="27.5779" width="453.543" height="220.624" fill="none" stroke="black"/>
<path d="M139.217,235.018v -0.00448215" fill="none" stroke="#000099" stroke-width="2"/>
<path d="M139.217,235.014v -0.00448215" fill="none" stroke="#000099" stroke-width="2"/>
<g stroke="black" stroke-width="2" fill="none">
<line x1="138.217" y1="235.014" x2="139.217" y2="235.014"/>
</g>
<path d="M142.433,235.019v -0.0033523" fill="none" stroke="#000099" stroke-width="2"/>
<path d="M142.433,235.016v -0.0033523" fill="none" stroke="#000099" stroke-width="2"/>
<g stroke="black" stroke-width="2" fill="none">
<line x1="141.433" y1="235.016" x2="142.433" y2="235.016"/>
</g>
<path d="M145.65,235.039v -0.0134011" fill="none" stroke="#000099" stroke-width="2"/>
<path d="M145.65,235.025v -0.0134011" fill="none" stroke="#000099" stroke-width="2"/>
<g stroke="black" stroke-width="2" fill="none">
<line x1="144.65" y1="235.025" x2="145.65" y2="235.025"/>
</g>
<path d="M148.867,235.027v -0.013523" fill="none" stroke="#000099" stroke-width="2"/>
<path d="M148.867,235.014v -0.013523" fill="none" stroke="#000099" stroke-width="2"/>
<g stroke="black" stroke-width="2" fill="none">
<line x1="147.867" y1="235.014" x2="148.867" y2="235.014"/>
</g>
<path d="M152.083,235.132v -0.0283845" fill="none" stroke="#000099" stroke-width="2"/>
<path d="M152.083,235.103v -0.0283845" fill="none" stroke="#000099" stroke-width="2"/>
<g stroke="black" stroke-width="2" fill="none">
<line x1="151.083" y1="235.103" x2="152.083" y2="235.103"/>
</g>
<path d="M155.3,235.35v -0.0667826" fill="none" stroke="#000099" stroke-width="2"/>
<path d="M155.3,235.283v -0.0667826" fill="none" stroke="#000099" stroke-width="2"/>
<g stroke="black" stroke-width="2" fill="none">
<line x1="154.3" y1="235.283" x2="155.3" y2="235.283"/>
</g>
<path d="M158.516,235.547v -0.115955" fill="none" stroke="#000099" stroke-width="2"/>
<path d="M158.516,235.431v -0.115955" fill="none" stroke="#000099" stroke-width="2"/>
<g stroke="black" stroke-width="2" fill="none">
<line x1="157.516" y1="235.431" x2="158.516" y2="235.431"/>
</g>
<path d="M161.733,235.577v -0.116146" fill="none" stroke="#000099" stroke-width="2"/>
<path d="M161.733,235.461v -0.116146" fill="none" stroke="#000099" stroke-width="2"/>
<g stroke="black" stroke-width="2" fill="none">
<line x1="160.733" y1="235.461" x2="161.733" y2="235.461"/>
</g>
<path d="M164.95,235.986v -0.177407" fill="none" stroke="#000099" stroke-width="2"/>
<path d="M164.95,235.808v -0.177407" fill="none" stroke="#000099" stroke-width="2"/>
<g stroke="black" stroke-width="2" fill="none">
<line x1="163.95" y1="235.808" x2="164.95" y2="235.808"/>
</g>
<path d="M168.166,236.259v -0.197954" fill="none" stroke="#000099" stroke-width="2"/>
<path d="M168.166,236.061v -0.197954" fill="none" stroke="#000099" stroke-width="2"/>
<g stroke="black" stroke-width="2" fill="none">
<line x1="167.166" y1="236.061" x2="168.166" y2="236.061"/>
</g>
<path d="M171.383,236.593v -0.314006" fill="none" stroke="#000099" stroke-width="2"/>
<path d="M171.383,236.279v -0.314006" fill="none" stroke="#000099" stroke-width="2"/>
<g stroke="black" stroke-width="2" fill="none">
<line x1="170.383" y1="236.279" x2="171.383" y2="236.279"/>
</g>
<path d="M174.6,236.896v -0.224089" fill="none" stroke="#000099" stroke-width="2"/>
<path d="M174.6,236.672v -0.224089" fill="none" stroke="#000099" stroke-width="2"/>
<g stroke="black" stroke-width="2" fill="none">
<line x1="173.6" y1="236.672" x2="174.6" y2="236.672"/>
</g>
<path d="M177.816,237.624v -0.458266" fill="none" stroke="#000099" stroke-width="2"/>
<path d="M177.816,237.166v -0.458266" fill="none" stroke="#000099" stroke-width="2"/>
<g stroke="black" stroke-width="2" fill="none">
<line x1="176.816" y1="237.166" x2="177.816" y2="237.166"/>
</g>
<path d="M181.033,237.677v -0.387864" fill="none" stroke="#000099" stroke-width="2"/>
<path d="M181.033,237.289v -0.387864" fill="none" stroke="#000099" stroke-width="2"/>
<g stroke="black" stroke-width="2" fill="none">
<line x1="180.033" y1="237.289" x2="181.033" y2="237.289"/>
</g>
<path d="M184.249,237.261v -0.494763" fill="none" stroke="#000099" stroke-width="2"/>
<path d="M184.249,236.767v -0.494763" fill="none" stroke="#000099" stroke-width="2"/>
<g stroke="black" stroke-width="2" fill="none">
<line x1="183.249" y1="236.767" x2="184.249" y2="236.767"/>
</g>
<path d="M187.466,237.107v -0.454303" fill="none" stroke="#000099" stroke-width="2"/>
<path d="M187.466,236.653v -0.454303" fill="none" stroke="#000099" stroke-width="2"/>
<g stroke="black" stroke-width="2" fill="none">
<line x1="186.466" y1="236.653" x2="187.466" y2="236.653"/>
</g>
<path d="M190.683,237.187v -0.535066" fill="none" stroke="#000099" stroke-width="2"/>
<path d="M190.683,236.652v -0.535066" fill="none" stroke="#000099" stroke-width="2"/>
<g stroke="black" stroke-width="2" fill="none">
<line x1="189.683" y1="236.652" x2="190.683" y2="236.652"/>
</g>
<path d="M193.899,238.196v -0.705862" fill="none" stroke="#000099" stroke-width="2"/>
<path d="M193.899,237.49v -0.705862" fill="none" stroke="#000099" stroke-width="2"/>
<g stroke="black" stroke-width="2" fill="none">
<line x1="192.899" y1="237.49" x2="193.899" y2="237.49"/>
</g>
<path d="M197.116,236.296v -0.853001" fill="none" stroke="#000099" stroke-width="2"/>
<path d="M197.116,235.443v -0.853001" fill="none" stroke="#000099" stroke-width="2"/>
<g stroke="black" stroke-width="2" fill="none">
<line x1="196.116" y1="235.443" x2="197.116" y2="235.443"/>
</g>
<path d="M200.332,235.17v -0.887668" fill="none" stroke="#000099" stroke-width="2"/>
<path d="M200.332,234.282v -0.887668" fill="none" stroke="#000099" stroke-width="2"/>
<g stroke="black" stroke-width="2" fill="none">
<line x1="199.332" y1="234.282" x2="200.332" y2="234.282"/>
</g>
<path d="M203.549,235.476v -1.02668" fill="none" stroke="#000099" stroke-width="2"/>
<path d="M203.549,234.45v -1.02668" fill="none" stroke="#000099" stroke-width="2"/>
<g stroke="black" stroke-width="2" fill="none">
<line x1="202.549" y1="234.45" x2="203.549" y2="234.45"/>
</g>
<path d="M206.766,233.524v -1.16115" fill="none" stroke="#000099" stroke-width="2"/>
<path d="M206.766,232.363v -1.16115" fill="none" stroke="#000099" stroke-width="2"/>
<g stroke="black" stroke-width="2" fill="none">
<line x1="205.766" y1="232.363" x2="206.766" y2="232.363"/>
</g>
<path d="M209.982,232.101v -1.20588" fill="none" stroke="#000099" stroke-width="2"/>
<path d="M209.982,230.895v -1.20588" fill="none" stroke="#000099" stroke-width="2"/>
<g stroke="black" stroke-width="2" fill="none">
<line x1="208.982" y1="230.895" x2="209.982" y2="230.895"/>
</g>
<path d="M213.199,230.887v -1.57438" fill="none" stroke="#000099" stroke-width="2"/>
<path d="M213.199,229.312v -1.57438" fill="none" stroke="#000099" stroke-width="2"/>
<g stroke="black" stroke-width="2" fill="none">
<line x1="212.199" y1="229.312" x2="213.199" y2="229.312"/>
</g>
<path d="M216.416,230.277v -1.45958" fill="none" stroke="#000099" stroke-width="2"/>
<path d="M216.416,228.817v -1.45958" fill="none" stroke="#000099" stroke-width="2"/>
<g stroke="black" stroke-width="2" fill="none">
<line x1="215.416" y1="228.817" x2="216.416" y2="228.817"/>
</g>
<path d="M219.632,227.762v -1.46791" fill="none" stroke="#000099" stroke-width="2"/>
<path d="M219.632,226.294v -1.46791" fill="none" stroke="#000099" stroke-width="2"/>
<g stroke="black" stroke-width="2" fill="none">
<line x1="218.632" y1="226.294" x2="219.632" y2="226.294"/>
</g>
<path d="M222.849,226.924v -1.38534" fill="none" stroke="#000099" stroke-width="2"/>
<path d="M222.849,225.539v -1.38534" fill="none" stroke="#000099" stroke-width="2"/>
<g stroke="black" stroke-width="2" fill="none">
<line x1="221.849" y1="225.539" x2="222.849" y2="225.539"/>
</g>
<path d="M226.065,225.949v -1.73983" fill="none" stroke="#000099" stroke-width="2"/>
<path d="M226.065,224.209v -1.73983" fill="none" stroke="#000099" stroke-width="2"/>
<g stroke="black" stroke-width="2" fill="none">
<line x1="225.065" y1="224.209" x2="226.065" y2="224.209"/>
</g>
<path d="M229.282,227.922v -2.26631" fill="none" stroke="#000099" stroke-width="2"/>
<path d="M229.282,225.656v -2.26631" fill="none" stroke="#000099" stroke-width="2"/>
<g stroke="black" stroke-width="2" fill="none">
<line x1="228.282" y1="225.656" x2="229.282" y2="225.656"/>
</g>
<path d="M232.499,223.511v -1.62801" fill="none" stroke="#000099" stroke-width="2"/>
<path d="M232.499,221.883v -1.62801" fill="none" stroke="#000099" stroke-width="2"/>
<g stroke="black" stroke-width="2" fill="none">
<line x1="231.499" y1="221.883" x2="232.499" y2="221.883"/>
</g>
<path d="M235.715,222.617v -2.08297" fill="none" stroke="#000099" stroke-width="2"/>
<path d="M235.715,220.534v -2.08297" fill="none" stroke="#000099" stroke-width="2"/>
<g stroke="black" stroke-width="2" fill="none">
<line x1="234.715" y1="220.534" x2="235.715" y2="220.534"/>
</g>
<path d="M238.932,220.977v -2.1308" fill="none" stroke="#000099" stroke-width="2"/>
<path d="M238.932,218.846v -2.1308" fill="none" stroke="#000099" stroke-width="2"/>
<g stroke="black" stroke-width="2" fill="none">
<line x1="237.932" y1="218.846" x2="238.932" y2="218.846"/>
</g>
<path d="M242.149,221.186v -1.8715" fill="none" stroke="#000099" stroke-width="2"/>
<path d="M242.149,219.314v -1.8715" fill="none" stroke="#000099" stroke-width="2"/>
<g stroke="black" stroke-width="2" fill="none">
<line x1="241.149" y1="219.314" x2="242.149" y2="219.314"/>
</g>
<path d="M245.365,211.859v -3.18524" fill="none" stroke="#000099" stroke-width="2"/>
<path d="M245.365,208.674v -3.18524" fill="none" stroke="#000099" stroke-width="2"/>
<g stroke="black" stroke-width="2" fill="none">
<line x1="244.365" y1="208.674" x2="245.365" y2="208.674"/>
</g>
<path d="M248.582,216.049v -1.82414" fill="none" stroke="#000099" stroke-width="2"/>
<path d="M248.582,214.225v -1.82414" fill="none" stroke="#000099" stroke-width="2"/>
<g stroke="black" stroke-width="2" fill="none">
<line x1="247.582" y1="214.225" x2="248.582" y2="214.225"/>
</g>
<path d="M251.798,209.183v -1.98278" fill="none" stroke="#000099" stroke-width="2"/>
<path d="M251.798,207.2v -1.98278" fill="none" stroke="#000099" stroke-width="2"/>
<g stroke="black" stroke-width="2" fill="none">
<line x1="250.798" y1="207.2" x2="251.798" y2="207.2"/>
</g>
<path d="M255.015,211.576v -2.23298" fill="none" stroke="#000099" stroke-width="2"/>
<path d="M255.015,209.343v -2.23298" fill="none" stroke="#000099" stroke-width="2"/>
<g stroke="black" stroke-width="2" fill="none">
<line x1="254.015" y1="209.343" x2="255.015" y2="209.343"/>
</g>
<path d="M258.232,205.584v -2.65847" fill="none" stroke="#000099" stroke-width="2"/>
<path d="M258.232,202.925v -2.65847" fill="none" stroke="#000099" stroke-width="2"/>
<g stroke="black" stroke-width="2" fill="none">
<line x1="257.232" y1="202.925" x2="258.232" y2="202.925"/>
</g>
<path d="M261.448,208.427v -2.18328" fill="none" stroke="#000099" stroke-width="2"/>
<path d="M261.448,206.243v -2.18328" fill="none" stroke="#000099" stroke-width="2"/>
<g stroke="black" stroke-width="2" fill="none">
<line x1="260.448" y1="206.243" x2="261.448" y2="206.243"/>
</g>
<path d="M264.665,204.022v -2.41257" fill="none" stroke="#000099" stroke-width="2"/>
<path d="M264.665,201.609v -2.41257" fill="none" stroke="#000099" stroke-width="2"/>
<g stroke="black" stroke-width="2" fill="none">
<line x1="263.665" y1="201.609" x2="264.665" y2="201.609"/>
</g>
<path d="M267.881,201.094v -2.148" fill="none" stroke="#000099" stroke-width="2"/>
<path d="M267.881,198.946v -2.148" fill="none" stroke="#000099" stroke-width="2"/>
<g stroke="black" stroke-width="2" fill="none">
<line x1="266.881" y1="198.946" x2="267.881" y2="198.946"/>
</g>
<path d="M271.098,197.317v -2.14941" fill="none" stroke="#000099" stroke-width="2"/>
<path d="M271.098,195.167v -2.14941" fill="none" stroke="#000099" stroke-width="2"/>
<g stroke="black" stroke-width="2" fill="none">
<line x1="270.098" y1="195.167" x2="271.098" y2="195.167"/>
</g>
<path d="M274.315,196.803v -2.25242" fill="none" stroke="#000099" stroke-width="2"/>
<path d="M274.315,194.55v -2.25242" fill="none" stroke="#000099" stroke-width="2"/>
<g stroke="black" stroke-width="2" fill="none">
<line x1="273.315" y1="194.55" x2="274.315" y2="194.55"/>
</g>
<path d="M277.531,187.31v -2.12531" fill="none" stroke="#000099" stroke-width="2"/>
<path d="M277.531,185.184v -2.12531" fill="none" stroke="#000099" stroke-width="2"/>
<g stroke="black" stroke-width="2" fill="none">
<line x1="276.531" y1="185.184" x2="277.531" y2="185.184"/>
</g>
<path d="M280.748,193.064v -2.88264" fill="none" stroke="#000099" stroke-width="2"/>
<path d="M280.748,190.182v -2.88264" fill="none" stroke="#000099" stroke-width="2"/>
<g stroke="black" stroke-width="2" fill="none">
<line x1="279.748" y1="190.182" x2="280.748" y2="190.182"/>
</g>
<path d="M283.965,187.221v -2.33891" fill="none" stroke="#000099" stroke-width="2"/>
<path d="M283.965,184.882v -2.33891" fill="none" stroke="#000099" stroke-width="2"/>
<g stroke="black" stroke-width="2" fill="none">
<line x1="282.965" y1="184.882" x2="283.965" y2="184.882"/>
</g>
<path d="M287.181,188.823v -2.78122" fill="none" stroke="#000099" stroke-width="2"/>
<path d="M287.181,186.042v -2.78122" fill="none" stroke="#000099" stroke-width="2"/>
<g stroke="black" stroke-width="2" fill="none">
<line x1="286.181" y1="186.042" x2="287.181" y2="186.042"/>
</g>
<path d="M290.398,181.43v -2.51471" fill="none" stroke="#000099" stroke-width="2"/>
<path d="M290.398,178.915v -2.51471" fill="none" stroke="#000099" stroke-width="2"/>
<g stroke="black" stroke-width="2" fill="none">
<line x1="289.398" y1="178.915" x2="290.398" y2="178.915"/>
</g>
<path d="M293.614,183.118v -2.74387" fill="none" stroke="#000099" stroke-width="2"/>
<path d="M293.614,180.374v -2.74387" fill="none" stroke="#000099" stroke-width="2"/>
<g stroke="black" stroke-width="2" fill="none">
<line x1="292.614" y1="180.374" x2="293.614" y2="180.374"/>
</g>
<path d="M296.831,178.481v -2.63003" fill="none" stroke="#000099" stroke-width="2"/>
<path d="M296.831,175.851v -2.63003" fill="none" stroke="#000099" stroke-width="2"/>
<g stroke="black" stroke-width="2" fill="none">
<line x1="295.831" y1="175.851" x2="296.831" y2="175.851"/>
</g>
<path d="M300.048,173.699v -2.49677" fill="none" stroke="#000099" stroke-width="2"/>
<path d="M300.048,171.203v -2.49677" fill="none" stroke="#000099" stroke-width="2"/>
<g stroke="black" stroke-width="2" fill="none">
<line x1="299.048" y1="171.203" x2="300.048" y2="171.203"/>
</g>
<path d="M303.264,180.753v -2.7731" fill="none" stroke="#000099" stroke-width="2"/>
<path d="M303.264,177.98v -2.7731" fill="none" stroke="#000099" stroke-width="2"/>
<g stroke="black" stroke-width="2" fill="none">
<line x1="302.264" y1="177.98" x2="303.264" y2="177.98"/>
</g>
<path d="M306.481,176.582v -2.55875" fill="none" stroke="#000099" stroke-width="2"/>
<path d="M306.481,174.024v -2.55875" fill="none" stroke="#000099" stroke-width="2"/>
<g stroke="black" stroke-width="2" fill="none">
<line x1="305.481" y1="174.024" x2="306.481" y2="174.024"/>
</g>
<path d="M309.698,175.778v -2.33504" fill="none" stroke="#000099" stroke-width="2"/>
<path d="M309.698,173.443v -2.33504" fill="none" stroke="#000099" stroke-width="2"/>
<g stroke="black" stroke-width="2" fill="none">
<line x1="308.698" y1="173.443" x2="309.698" y2="173.443"/>
</g>
<path d="M312.914,174.648v -3.25583" fill="none" stroke="#000099" stroke-width="2"/>
<path d="M312.914,171.392v -3.25583" fill="none" stroke="#000099" stroke-width="2"/>
<g stroke="black" stroke-width="2" fill="none">
<line x1="311.914" y1="171.392" x2="312.914" y2="171.392"/>
</g>
<path d="M316.131,170.795v -2.33047" fill="none" stroke="#000099" stroke-width="2"/>
<path d="M316.131,168.464v -2.33047" fill="none" stroke="#000099" stroke-width="2"/>
<g stroke="black" stroke-width="2" fill="none">
<line x1="315.131" y1="168.464" x2="316.131" y2="168.464"/>
</g>
<path d="M319.347,168.457v -2.25097" fill="none" stroke="#000099" stroke-width="2"/>
<path d="M319.347,166.206v -2.25097" fill="none" stroke="#000099" stroke-width="2"/>
<g stroke="black" stroke-width="2" fill="none">
<line x1="318.347" y1="166.206" x2="319.347" y2="166.206"/>
</g>
<path d="M322.564,162.882v -2.39461" fill="none" stroke="#000099" stroke-width="2"/>
<path d="M322.564,160.487v -2.39461" fill="none" stroke="#000099" stroke-width="2"/>
<g stroke="black" stroke-width="2" fill="none">
<line x1="321.564" y1="160.487" x2="322.564" y2="160.487"/>
</g>
<path d="M325.781,163.728v -2.19973" fill="none" stroke="#000099" stroke-width="2"/>
<path d="M325.781,161.528v -2.19973" fill="none" stroke="#000099" stroke-width="2"/>
<g stroke="black" stroke-width="2" fill="none">
<line x1="324.781" y1="161.528" x2="325.781" y2="161.528"/>
</g>
<path d="M328.997,162.155v -2.14382" fill="none" stroke="#000099" stroke-width="2"/>
<path d="M328.997,160.011v -2.14382" fill="none" stroke="#000099" stroke-width="2"/>
<g stroke="black" stroke-width="2" fill="none">
<line x1="327.997" y1="160.011" x2="328.997" y2="160.011"/>
</g>
<path d="M332.214,159.804v -2.65486" fill="none" stroke="#000099" stroke-width="2"/>
<path d="M332.214,157.15v -2.65486" fill="none" stroke="#000099" stroke-width="2"/>
<g stroke="black" stroke-width="2" fill="none">
<line x1="331.214" y1="157.15" x2="332.214" y2="157.15"/>
</g>
<path d="M335.43,146.002v -2.27592" fill="none" stroke="#000099" stroke-width="2"/>
<path d="M335.43,143.726v -2.27592" fill="none" stroke="#000099" stroke-width="2"/>
<g stroke="black" stroke-width="2" fill="none">
<line x1="334.43" y1="143.726" x2="335.43" y2="143.726"/>
</g>
<path d="M338.647,138.193v -2.4572" fill="none" stroke="#000099" stroke-width="2"/>
<path d="M338.647,135.736v -2.4572" fill="none" stroke="#000099" stroke-width="2"/>
<g stroke="black" stroke-width="2" fill="none">
<line x1="337.647" y1="135.736" x2="338.647" y2="135.736"/>
</g>
<path d="M341.864,121.86v -2.51909" fill="none" stroke="#000099" stroke-width="2"/>
<path d="M341.864,119.341v -2.51909" fill="none" stroke="#000099" stroke-width="2"/>
<g stroke="black" stroke-width="2" fill="none">
<line x1="340.864" y1="119.341" x2="341.864" y2="119.341"/>
</g>
<path d="M345.08,106.616v -2.53956" fill="none" stroke="#000099" stroke-width="2"/>
<path d="M345.08,104.076v -2.53956" fill="none" stroke="#000099" stroke-width="2"/>
<g stroke="black" stroke-width="2" fill="none">
<line x1="344.08" y1="104.076" x2="345.08" y2="104.076"/>
</g>
<path d="M348.297,87.9929v -2.7026" fill="none" stroke="#000099" stroke-width="2"/>
<path d="M348.297,85.2903v -2.7026" fill="none" stroke="#000099" stroke-width="2"/>
<g stroke="black" stroke-width="2" fill="none">
<line x1="347.297" y1="85.2903" x2="348.297" y2="85.2903"/>
</g>
<path d="M351.514,63.6688v -2.70493" fill="none" stroke="#000099" stroke-width="2"/>
<path d="M351.514,60.9639v -2.70493" fill="none" stroke="#000099" stroke-width="2"/>
<g stroke="black" stroke-width="2" fill="none">
<line x1="350.514" y1="60.9639" x2="351.514" y2="60.9639"/>
</g>
<path d="M354.73,43.3754v -2.64577" fill="none" stroke="#000099" stroke-width="2"/>
<path d="M354.73,40.7296v -2.64577" fill="none" stroke="#000099" stroke-width="2"/>
<g stroke="black" stroke-width="2" fill="none">
<line x1="353.73" y1="40.7296" x2="354.73" y2="40.7296"/>
</g>
<path d="M357.947,47.3564v -2.6503" fill="none" stroke="#000099" stroke-width="2"/>
<path d="M357.947,44.7061v -2.6503" fill="none" stroke="#000099" stroke-width="2"/>
<g stroke="black" stroke-width="2" fill="none">
<line x1="356.947" y1="44.7061" x2="357.947" y2="44.7061"/>
</g>
<path d="M361.163,53.654v -2.67468" fill="none" stroke="#000099" stroke-width="2"/>
<path d="M361.163,50.9793v -2.67468" fill="none" stroke="#000099" stroke-width="2"/>
<g stroke="black" stroke-width="2" fill="none">
<line x1="360.163" y1="50.9793" x2="361.163" y2="50.9793"/>
</g>
<path d="M364.38,73.924v -2.56679" fill="none" stroke="#000099" stroke-width="2"/>
<path d="M364.38,71.3572v -2.56679" fill="none" stroke="#000099" stroke-width="2"/>
<g stroke="black" stroke-width="2" fill="none">
<line x1="363.38" y1="71.3572" x2="364.38" y2="71.3572"/>
</g>
<path d="M367.597,94.0212v -2.64809" fill="none" stroke="#000099" stroke-width="2"/>
<path d="M367.597,91.3731v -2.64809" fill="none" stroke="#000099" stroke-width="2"/>
<g stroke="black" stroke-width="2" fill="none">
<line x1="366.597" y1="91.3731" x2="367.597" y2="91.3731"/>
</g>
<path d="M370.813,115.31v -2.35847" fill="none" stroke="#000099" stroke-width="2"/>
<path d="M370.813,112.952v -2.35847" fill="none" stroke="#000099" stroke-width="2"/>
<g stroke="black" stroke-width="2" fill="none">
<line x1="369.813" y1="112.952" x2="370.813" y2="112.952"/>
</g>
<path d="M374.03,132.535v -2.29858" fill="none" stroke="#000099" stroke-width="2"/>
<path d="M374.03,130.236v -2.29858" fill="none" stroke="#000099" stroke-width="2"/>
<g stroke="black" stroke-width="2" fill="none">
<line x1="373.03" y1="130.236" x2="374.03" y2="130.236"/>
</g>
<path d="M377.247,151.856v -2.24444" fill="none" stroke="#000099" stroke-width="2"/>
<path d="M377.247,149.612v -2.24444" fill="none" stroke="#000099" stroke-width="2"/>
<g stroke="black" stroke-width="2" fill="none">
<line x1="376.247" y1="149.612" x2="377.247" y2="149.612"/>
</g>
<path d="M380.463,156.683v -2.12437" fill="none" stroke="#000099" stroke-width="2"/>
<path d="M380.463,154.558v -2.12437" fill="none" stroke="#000099" stroke-width="2"/>
<g stroke="black" stroke-width="2" fill="none">
<line x1="379.463" y1="154.558" x2="380.463" y2="154.558"/>
</g>
<path d="M383.68,174.632v -2.07802" fill="none" stroke="#000099" stroke-width="2"/>
<path d="M383.68,172.554v -2.07802" fill="none" stroke="#000099" stroke-width="2"/>
<g stroke="black" stroke-width="2" fill="none">
<line x1="382.68" y1="172.554" x2="383.68" y2="172.554"/>
</g>
<path d="M386.896,184.445v -2.00499" fill="none" stroke="#000099" stroke-width="2"/>
<path d="M386.896,182.44v -2.00499" fill="none" stroke="#000099" stroke-width="2"/>
<g stroke="black" stroke-width="2" fill="none">
<line x1="385.896" y1="182.44" x2="386.896" y2="182.44"/>
</g>
<path d="M390.113,192.975v -1.78786" fill="none" stroke="#000099" stroke-width="2"/>
<path d="M390.113,191.187v -1.78786" fill="none" stroke="#000099" stroke-width="2"/>
<g stroke="black" stroke-width="2" fill="none">
<line x1="389.113" y1="191.187" x2="390.113" y2="191.187"/>
</g>
<path d="M393.33,200.628v -1.79779" fill="none" stroke="#000099" stroke-width="2"/>
<path d="M393.33,198.83v -1.79779" fill="none" stroke="#000099" stroke-width="2"/>
<g stroke="black" stroke-width="2" fill="none">
<line x1="392.33" y1="198.83" x2="393.33" y2="198.83"/>
</g>
<path d="M396.546,202.818v -1.66877" fill="none" stroke="#000099" stroke-width="2"/>
<path d="M396.546,201.149v -1.66877" fill="none" stroke="#000099" stroke-width="2"/>
<g stroke="black" stroke-width="2" fill="none">
<line x1="395.546" y1="201.149" x2="396.546" y2="201.149"/>
</g>
<path d="M399.763,206.292v -1.54287" fill="none" stroke="#000099" stroke-width="2"/>
<path d="M399.763,204.749v -1.54287" fill="none" stroke="#000099" stroke-width="2"/>
<g stroke="black" stroke-width="2" fill="none">
<line x1="398.763" y1="204.749" x2="399.763" y2="204.749"/>
</g>
<path d="M402.979,210.298v -1.71638" fill="none" stroke="#000099" stroke-width="2"/>
<path d="M402.979,208.581v -1.71638" fill="none" stroke="#000099" stroke-width="2"/>
<g stroke="black" stroke-width="2" fill="none">
<line x1="401.979" y1="208.581" x2="402.979" y2="208.581"/>
</g>
<path d="M406.196,213.357v -1.79028" fill="none" stroke="#000099" stroke-width="2"/>
<path d="M406.196,211.566v -1.79028" fill="none" stroke="#000099" stroke-width="2"/>
<g stroke="black" stroke-width="2" fill="none">
<line x1="405.196" y1="211.566" x2="406.196" y2="211.566"/>
</g>
<path d="M409.413,216.007v -1.49373" fill="none" stroke="#000099" stroke-width="2"/>
<path d="M409.413,214.514v -1.49373" fill="none" stroke="#000099" stroke-width="2"/>
<g stroke="black" stroke-width="2" fill="none">
<line x1="408.413" y1="214.514" x2="409.413" y2="214.514"/>
</g>
<path d="M412.629,219.766v -1.58619" fill="none" stroke="#000099" stroke-width="2"/>
<path d="M412.629,218.18v -1.58619" fill="none" stroke="#000099" stroke-width="2"/>
<g stroke="black" stroke-width="2" fill="none">
<line x1="411.629" y1="218.18" x2="412.629" y2="218.18"/>
</g>
<path d="M415.846,220.79v -1.32978" fill="none" stroke="#000099" stroke-width="2"/>
<path d="M415.846,219.46v -1.32978" fill="none" stroke="#000099" stroke-width="2"/>
<g stroke="black" stroke-width="2" fill="none">
<line x1="414.846" y1="219.46" x2="415.846" y2="219.46"/>
</g>
<path d="M419.063,222.133v -1.4219" fill="none" stroke="#000099" stroke-width="2"/>
<path d="M419.063,220.711v -1.4219" fill="none" stroke="#000099" stroke-width="2"/>
<g stroke="black" stroke-width="2" fill="none">
<line x1="418.063" y1="220.711" x2="419.063" y2="220.711"/>
</g>
<path d="M422.279,223.695v -1.20725" fill="none" stroke="#000099" stroke-width="2"/>
<path d="M422.279,222.488v -1.20725" fill="none" stroke="#000099" stroke-width="2"/>
<g stroke="black" stroke-width="2" fill="none">
<line x1="421.279" y1="222.488" x2="422.279" y2="222.488"/>
</g>
<path d="M425.496,224.427v -1.18722" fill="none" stroke="#000099" stroke-width="2"/>
<path d="M425.496,223.24v -1.18722" fill="none" stroke="#000099" stroke-width="2"/>
<g stroke="black" stroke-width="2" fill="none">
<line x1="424.496" y1="223.24" x2="425.496" y2="223.24"/>
</g>
<path d="M428.712,226.207v -1.25955" fill="none" stroke="#000099" stroke-width="2"/>
<path d="M428.712,224.947v -1.25955" fill="none" stroke="#000099" stroke-width="2"/>
<g stroke="black" stroke-width="2" fill="none">
<line x1="427.712" y1="224.947" x2="428.712" y2="224.947"/>
</g>
<path d="M431.929,226.73v -1.20689" fill="none" stroke="#000099" stroke-width="2"/>
<path d="M431.929,225.523v -1.20689" fill="none" stroke="#000099" stroke-width="2"/>
<g stroke="black" stroke-width="2" fill="none">
<line x1="430.929" y1="225.523" x2="431.929" y2="225.523"/>
</g>
<path d="M435.146,224.785v -1.25213" fill="none" stroke="#000099" stroke-width="2"/>
<path d="M435.146,223.533v -1.25213" fill="none" stroke="#000099" stroke-width="2"/>
<g stroke="black" stroke-width="2" fill="none">
<line x1="434.146" y1="223.533" x2="435.146" y2="223.533"/>
</g>
<path d="M438.362,229.465v -1.28177" fill="none" stroke="#000099" stroke-width="2"/>
<path d="M438.362,228.183v -1.28177" fill="none" stroke="#000099" stroke-width="2"/>
<g stroke="black" stroke-width="2" fill="none">
<line x1="437.362" y1="228.183" x2="438.362" y2="228.183"/>
</g>
<path d="M441.579,226.537v -1.05464" fill="none" stroke="#000099" stroke-width="2"/>
<path d="M441.579,225.482v -1.05464" fill="none" stroke="#000099" stroke-width="2"/>
<g stroke="black" stroke-width="2" fill="none">
<line x1="440.579" y1="225.482" x2="441.579" y2="225.482"/>
</g>
<path d="M444.796,229.124v -0.929834" fill="none" stroke="#000099" stroke-width="2"/>
<path d="M444.796,228.194v -0.929834" fill="none" stroke="#000099" stroke-width="2"/>
<g stroke="black" stroke-width="2" fill="none">
<line x1="443.796" y1="228.194" x2="444.796" y2="228.194"/>
</g>
<path d="M448.012,227.277v -1.10948" fill="none" stroke="#000099" stroke-width="2"/>
<path d="M448.012,226.167v -1.10948" fill="none" stroke="#000099" stroke-width="2"/>
<g stroke="black" stroke-width="2" fill="none">
<line x1="447.012" y1="226.167" x2="448.012" y2="226.167"/>
</g>
<path d="M451.229,229.919v -1.01252" fill="none" stroke="#000099" stroke-width="2"/>
<path d="M451.229,228.907v -1.01252" fill="none" stroke="#000099" stroke-width="2"/>
<g stroke="black" stroke-width="2" fill="none">
<line x1="450.229" y1="228.907" x2="451.229" y2="228.907"/>
</g>
<path d="M454.445,230.461v -0.960924" fill="none" stroke="#000099" stroke-width="2"/>
<path d="M454.445,229.5v -0.960924" fill="none" stroke="#000099" stroke-width="2"/>
<g stroke="black" stroke-width="2" fill="none">
<line x1="453.445" y1="229.5" x2="454.445" y2="229.5"/>
</g>
<path d="M457.662,228.216v -1.09802" fill="none" stroke="#000099" stroke-width="2"/>
<path d="M457.662,227.118v -1.09802" fill="none" stroke="#000099" stroke-width="2"/>
<g stroke="black" stroke-width="2" fill="none">
<line x1="456.662" y1="227.118" x2="457.662" y2="227.118"/>
</g>
<path d="M460.879,230.916v -0.772922" fill="none" stroke="#000099" stroke-width="2"/>
<path d="M460.879,230.143v -0.772922" fill="none" stroke="#000099" stroke-width="2"/>
<g stroke="black" stroke-width="2" fill="none">
<line x1="459.879" y1="230.143" x2="460.879" y2="230.143"/>
</g>
<path d="M464.095,231.756v -0.878488" fill="none" stroke="#000099" stroke-width="2"/>
<path d="M464.095,230.878v -0.878488" fill="none" stroke="#000099" stroke-width="2"/>
<g stroke="black" stroke-width="2" fill="none">
<line x1="463.095" y1="230.878" x2="464.095" y2="230.878"/>
</g>
<path d="M467.312,233.488v -0.916211" fill="none" stroke="#000099" stroke-width="2"/>
<path d="M467.312,232.571v -0.916211" fill="none" stroke="#000099" stroke-width="2"/>
<g stroke="black" stroke-width="2" fill="none">
<line x1="466.312" y1="232.571" x2="467.312" y2="232.571"/>
</g>
<path d="M470.528,231.943v -0.795577" fill="none" stroke="#000099" stroke-width="2"/>
<path d="M470.528,231.148v -0.795577" fill="none" stroke="#000099" stroke-width="2"/>
<g stroke="black" stroke-width="2" fill="none">
<line x1="469.528" y1="231.148" x2="470.528" y2="231.148"/>
</g>
<path d="M473.745,231.295v -0.744729" fill="none" stroke="#000099" stroke-width="2"/>
<path d="M473.745,230.55v -0.744729" fill="none" stroke="#000099" stroke-width="2"/>
<g stroke="black" stroke-width="2" fill="none">
<line x1="472.745" y1="230.55" x2="473.745" y2="230.55"/>
</g>
<path d="M476.962,233.242v -1.09018" fill="none" stroke="#000099" stroke-width="2"/>
<path d="M476.962,232.152v -1.09018" fill="none" stroke="#000099" stroke-width="2"/>
<g stroke="black" stroke-width="2" fill="none">
<line x1="475.962" y1="232.152" x2="476.962" y2="232.152"/>
</g>
<path d="M480.178,232.239v -0.727416" fill="none" stroke="#000099" stroke-width="2"/>
<path d="M480.178,231.512v -0.727416" fill="none" stroke="#000099" stroke-width="2"/>
<g stroke="black" stroke-width="2" fill="none">
<line x1="479.178" y1="231.512" x2="480.178" y2="231.512"/>
</g>
<path d="M483.395,232.713v -0.819478" fill="none" stroke="#000099" stroke-width="2"/>
<path d="M483.395,231.893v -0.819478" fill="none" stroke="#000099" stroke-width="2"/>
<g stroke="black" stroke-width="2" fill="none">
<line x1="482.395" y1="231.893" x2="483.395" y2="231.893"/>
</g>
<path d="M486.612,232.279v -0.678229" fill="none" stroke="#000099" stroke-width="2"/>
<path d="M486.612,231.601v -0.678229" fill="none" stroke="#000099" stroke-width="2"/>
<g stroke="black" stroke-width="2" fill="none">
<line x1="485.612" y1="231.601" x2="486.612" y2="231.601"/>
</g>
<path d="M489.828,233.046v -0.704596" fill="none" stroke="#000099" stroke-width="2"/>
<path d="M489.828,232.342v -0.704596" fill="none" stroke="#000099" stroke-width="2"/>
<g stroke="black" stroke-width="2" fill="none">
<line x1="488.828" y1="232.342" x2="489.828" y2="232.342"/>
</g>
<path d="M493.045,233.786v -0.584054" fill="none" stroke="#000099" stroke-width="2"/>
<path d="M493.045,233.202v -0.584054" fill="none" stroke="#000099" stroke-width="2"/>
<g stroke="black" stroke-width="2" fill="none">
<line x1="492.045" y1="233.202" x2="493.045" y2="233.202"/>
</g>
<path d="M496.261,232.166v -0.85323" fill="none" stroke="#000099" stroke-width="2"/>
<path d="M496.261,231.313v -0.85323" fill="none" stroke="#000099" stroke-width="2"/>
<g stroke="black" stroke-width="2" fill="none">
<line x1="495.261" y1="231.313" x2="496.261" y2="231.313"/>
</g>
<path d="M499.478,234.021v -0.773624" fill="none" stroke="#000099" stroke-width="2"/>
<path d="M499.478,233.248v -0.773624" fill="none" stroke="#000099" stroke-width="2"/>
<g stroke="black" stroke-width="2" fill="none">
<line x1="498.478" y1="233.248" x2="499.478" y2="233.248"/>
</g>
<path d="M502.695,234.198v -0.783136" fill="none" stroke="#000099" stroke-width="2"/>
<path d="M502.695,233.415v -0.783136" fill="none" stroke="#000099" stroke-width="2"/>
<g stroke="black" stroke-width="2" fill="none">
<line x1="501.695" y1="233.415" x2="502.695" y2="233.415"/>
</g>
<path d="M505.911,231.698v -0.797909" fill="none" stroke="#000099" stroke-width="2"/>
<path d="M505.911,230.9v -0.797909" fill="none" stroke="#000099" stroke-width="2"/>
<g stroke="black" stroke-width="2" fill="none">
<line x1="504.911" y1="230.9" x2="505.911" y2="230.9"/>
</g>
<path d="M509.128,234.198v -0.745238" fill="none" stroke="#000099" stroke-width="2"/>
<path d="M509.128,233.453v -0.745238" fill="none" stroke="#000099" stroke-width="2"/>
<g stroke="black" stroke-width="2" fill="none">
<line x1="508.128" y1="233.453" x2="509.128" y2="233.453"/>
</g>
<path d="M57.1929,235.013h 80.4155v 0.000886493h 3.21662v 0.00246581h 3.21662v 0.00913522h 3.21662v -0.0112364h 3.21662v 0.0895441h 3.21662v 0.179274h 3.21662v 0.147912h 3.21662v 0.030685h 3.21662v 0.347035h 3.21662v 0.252273h 3.21662v 0.218411h
 3.21662v 0.393196h 3.21662v 0.493601h 3.21662v 0.123226h 3.21662v -0.522364h 3.21662v -0.113986h 3.21662v -0.000381088h 3.21662v 0.837669h 3.21662v -2.04738h 3.21662v -1.16078h 3.21662v 0.167823h 3.21662v -2.08684h 3.21662v -1.46785h 3.21662v
 -1.58255h 3.21662v -0.495169h 3.21662v -2.52342h 3.21662v -0.755301h 3.21662v -1.32938h 3.21662v 1.4469h 3.21662v -3.77266h 3.21662v -1.34895h 3.21662v -1.6887h 3.21662v 0.468667h 3.21662v -10.6402h 3.21662v 5.55096h 3.21662v -7.02521h 3.21662v
 2.14346h 3.21662v -6.41799h 3.21662v 3.3181h 3.21662v -4.63425h 3.21662v -2.66276h 3.21662v -3.77924h 3.21662v -0.616885h 3.21662v -9.36588h 3.21662v 4.99703h 3.21662v -5.29903h 3.21662v 1.15953h 3.21662v -7.12673h 3.21662v 1.45837h 3.21662v
 -4.52267h 3.21662v -4.64834h 3.21662v 6.77764h 3.21662v -3.95671h 3.21662v -0.580624h 3.21662v -2.05056h 3.21662v -2.92819h 3.21662v -2.25866h 3.21662v -5.71848h 3.21662v 1.04089h 3.21662v -1.51724h 3.21662v -2.86122h 3.21662v -13.423h 3.21662v
 -7.99028h 3.21662v -16.3955h 3.21662v -15.2642h 3.21662v -18.7862h 3.21662v -24.3264h 3.21662v -20.2343h 3.21662v 3.97648h 3.21662v 6.27327h 3.21662v 20.3779h 3.21662v 20.0159h 3.21662v 21.5787h 3.21662v 17.2844h 3.21662v 19.3755h 3.21662v 4.9467h
 3.21662v 17.9961h 3.21662v 9.88537h 3.21662v 8.74759h 3.21662v 7.64277h 3.21662v 2.31913h 3.21662v 3.5994h 3.21662v 3.83249h 3.21662v 2.98517h 3.21662v 2.94725h 3.21662v 3.66616h 3.21662v 1.2804h 3.21662v 1.25067h 3.21662v 1.77692h 3.21662v
 0.751732h 3.21662v 1.70762h 3.21662v 0.575997h 3.21662v -1.99022h 3.21662v 4.64999h 3.21662v -2.70065h 3.21662v 2.71165h 3.21662v -2.02643h 3.21662v 2.73943h 3.21662v 0.593306h 3.21662v -2.38211h 3.21662v 3.02526h 3.21662v 0.734505h 3.21662v
 1.69356h 3.21662v -1.42355h 3.21662v -0.598078h 3.21662v 1.60207h 3.21662v -0.639967h 3.21662v 0.38126h 3.21662v -0.292074h 3.21662v 0.740507h 3.21662v 0.86063h 3.21662v -1.88956h 3.21662v 1.93511h 3.21662v 0.167476h 3.21662v -2.51561h 3.21662v
 2.55335h 3.21662" fill="none" stroke="#000099" stroke-width="2"/>
<path d="M57.1929,248.201h 453.543" fill="none" stroke="black"/>
<path d="M57.1929,241.583v 6.61871" fill="none" stroke="black"/>
<path d="M70.0594,244.892v 3.30935" fill="none" stroke="black"/>
<path d="M82.9259,244.892v 3.30935" fill="none" stroke="black"/>
<path d="M95.7924,244.892v 3.30935" fill="none" stroke="black"/>
<path d="M108.659,244.892v 3.30935" fill="none" stroke="black"/>
<path d="M121.525,241.583v 6.61871" fill="none" stroke="black"/>
<path d="M134.392,244.892v 3.30935" fill="none" stroke="black"/>
<path d="M147.258,244.892v 3.30935" fill="none" stroke="black"/>
<path d="M160.125,244.892v 3.30935" fill="none" stroke="black"/>
<path d="M172.991,244.892v 3.30935" fill="none" stroke="black"/>
<path d="M185.858,241.583v 6.61871" fill="none" stroke="black"/>
<path d="M198.724,244.892v 3.30935" fill="none" stroke="black"/>
<path d="M211.591,244.892v 3.30935" fill="none" stroke="black"/>
<path d="M224.457,244.892v 3.30935" fill="none" stroke="black"/>
<path d="M237.324,244.892v 3.30935" fill="none" stroke="black"/>
<path d="M250.19,241.583v 6.61871" fill="none" stroke="black"/>
<path d="M263.057,244.892v 3.30935" fill="none" stroke="black"/>
<path d="M275.923,244.892v 3.30935" fill="none" stroke="black"/>
<path d="M288.789,244.892v 3.30935" fill="none" stroke="black"/>
<path d="M301.656,244.892v 3.30935" fill="none" stroke="black"/>
<path d="M314.522,241.583v 6.61871" fill="none" stroke="black"/>
<path d="M327.389,244.892v 3.30935" fill="none" stroke="black"/>
<path d="M340.255,244.892v 3.30935" fill="none" stroke="black"/>
<path d="M353.122,244.892v 3.30935" fill="none" stroke="black"/>
<path d="M365.988,244.892v 3.30935" fill="none" stroke="black"/>
<path d="M378.855,241.583v 6.61871" fill="none" stroke="black"/>
<path d="M391.721,244.892v 3.30935" fill="none" stroke="black"/>
<path d="M404.588,244.892v 3.30935" fill="none" stroke="black"/>
<path d="M417.454,244.892v 3.30935" fill="none" stroke="black"/>
<path d="M430.321,244.892v 3.30935" fill="none" stroke="black"/>
<path d="M443.187,241.583v 6.61871" fill="none" stroke="black"/>
<path d="M456.054,244.892v 3.30935" fill="none" stroke="black"/>
<path d="M468.92,244.892v 3.30935" fill="none" stroke="black"/>
<path d="M481.787,244.892v 3.30935" fill="none" stroke="black"/>
<path d="M494.653,244.892v 3.30935" fill="none" stroke="black"/>
<path d="M507.52,241.583v 6.61871" fill="none" stroke="black"/>
<path d="M507.52,241.583v 6.61871" fill="none" stroke="black"/>
<text xml:space="preserve" x="53.4094" y="260.409" fill="black" font-size="13.1504" font-family="Helvetica">0</text>
<text xml:space="preserve" x="112.526" y="260.409" fill="black" font-size="13.1504" font-family="Helvetica">0.5</text>
<text xml:space="preserve" x="183.466" y="260.409" fill="black" font-size="13.1504" font-family="Helvetica">1</text>
<text xml:space="preserve" x="241.105" y="260.409" fill="black" font-size="13.1504" font-family="Helvetica">1.5</text>
<text xml:space="preserve" x="310.863" y="260.409" fill="black" font-size="13.1504" font-family="Helvetica">2</text>
<text xml:space="preserve" x="369.979" y="260.409" fill="black" font-size="13.1504" font-family="Helvetica">2.5</text>
<text xml:space="preserve" x="439.441" y="260.409" fill="black" font-size="13.1504" font-family="Helvetica">3</text>
<text xml:space="preserve" x="498.558" y="260.409" fill="black" font-size="13.1504" font-family="Helvetica">3.5</text>
<text xml:space="preserve" x="474.616" y="272.232" fill="black" font-size="13.1504" font-family="Helvetica"> [GeV]</text>
<text xml:space="preserve" x="445.649" y="276.075" fill="black" font-size="8.93362" font-family="Helvetica">kin, e pi</text>
<text xml:space="preserve" x="437.372" y="272.232" fill="black" font-size="13.1504" font-family="Helvetica">E</text>
<path d="M57.1929,248.201v -220.624" fill="none" stroke="black"/>
<path d="M70.7992,235.013h -13.6063" fill="none" stroke="black"/>
<path d="M63.9961,228.469h -6.80315" fill="none" stroke="black"/>
<path d="M63.9961,221.926h -6.80315" fill="none" stroke="black"/>
<path d="M63.9961,215.383h -6.80315" fill="none" stroke="black"/>
<path d="M63.9961,208.84h -6.80315" fill="none" stroke="black"/>
<path d="M70.7992,202.297h -13.6063" fill="none" stroke="black"/>
<path d="M63.9961,195.754h -6.80315" fill="none" stroke="black"/>
<path d="M63.9961,189.211h -6.80315" fill="none" stroke="black"/>
<path d="M63.9961,182.667h -6.80315" fill="none" stroke="black"/>
<path d="M63.9961,176.124h -6.80315" fill="none" stroke="black"/>
<path d="M70.7992,169.581h -13.6063" fill="none" stroke="black"/>
<path d="M63.9961,163.038h -6.80315" fill="none" stroke="black"/>
<path d="M63.9961,156.495h -6.80315" fill="none" stroke="black"/>
<path d="M63.9961,149.952h -6.80315" fill="none" stroke="black"/>
<path d="M63.9961,143.408h -6.80315" fill="none" stroke="black"/>
<path d="M70.7992,136.865h -13.6063" fill="none" stroke="black"/>
<path d="M63.9961,130.322h -6.80315" fill="none" stroke="black"/>
<path d="M63.9961,123.779h -6.80315" fill="none" stroke="black"/>
<path d="M63.9961,117.236h -6.80315" fill="none" stroke="black"/>
<path d="M63.9961,110.693h -6.80315" fill="none" stroke="black"/>
<path d="M70.7992,104.149h -13.6063" fill="none" stroke="black"/>
<path d="M63.9961,97.6063h -6.80315" fill="none" stroke="black"/>
<path d="M63.9961,91.0631h -6.80315" fill="none" stroke="black"/>
<path d="M63.9961,84.5199h -6.80315" fill="none" stroke="black"/>
<path d="M63.9961,77.9768h -6.80315" fill="none" stroke="black"/>
<path d="M70.7992,71.4336h -13.6063" fill="none" stroke="black"/>
<path d="M63.9961,64.8905h -6.80315" fill="none" stroke="black"/>
<path d="M63.9961,58.3473h -6.80315" fill="none" stroke="black"/>
<path d="M63.9961,51.8041h -6.80315" fill="none" stroke="black"/>
<path d="M63.9961,45.261h -6.80315" fill="none" stroke="black"/>
<path d="M70.7992,38.7178h -13.6063" fill="none" stroke="black"/>
<path d="M70.7992,235.013h -13.6063" fill="none" stroke="black"/>
<path d="M63.9961,241.556h -6.80315" fill="none" stroke="black"/>
<path d="M63.9961,248.099h -6.80315" fill="none" stroke="black"/>
<path d="M70.7992,38.7178h -13.6063" fill="none" stroke="black"/>
<path d="M63.9961,32.1747h -6.80315" fill="none" stroke="black"/>
<text xml:space="preserve" x="47.4978" y="239.718" fill="black" font-size="13.1504" font-family="Helvetica">0</text>
<text xml:space="preserve" x="25.9202" y="206.908" fill="black" font-size="13.1504" font-family="Helvetica">1000</text>
<text xml:space="preserve" x="25.9202" y="174.099" fill="black" font-size="13.1504" font-family="Helvetica">2000</text>
<text xml:space="preserve" x="25.9202" y="141.585" fill="black" font-size="13.1504" font-family="Helvetica">3000</text>
<text xml:space="preserve" x="25.9202" y="108.775" fill="black" font-size="13.1504" font-family="Helvetica">4000</text>
<text xml:space="preserve" x="25.9202" y="75.965" fill="black" font-size="13.1504" font-family="Helvetica">5000</text>
<text xml:space="preserve" x="25.9202" y="43.1552" fill="black" font-size="13.1504" font-family="Helvetica">6000</text>
<text xml:space="preserve" x="77.9429" y="19.8041" fill="black" font-size="8.93362" font-family="Helvetica">3</text>
<text xml:space="preserve" x="64.0505" y="26.0113" fill="black" font-size="13.1504" font-family="Helvetica">10</text>
<text xml:space="preserve" x="56.9564" y="26.0113" fill="black" font-size="13.1504" font-family="Times">&#0215;</text></svg>
