<?xml version="1.0" standalone="no"?>
<svg width="567.429" height="401.405" viewBox="0 0 567.429 401.405" xmlns="http://www.w3.org/2000/svg" shape-rendering="crispEdges">
<title>
/mnt/c/Users/eggne/Documents/01-18-19/3He_2261_kin_e_pimi.svg
</title>
<desc>
Creator: ROOT Version 6.18/04
CreationDate: Thu Jan 16 12:21:53 2020</desc>
<defs>
</defs>
<rect x="0.5" y="0" width="566.929" height="400.905" fill="white"/>
<rect x="57.1929" y="40.0905" width="453.543" height="320.724" fill="white"/>
<rect x="57.1929" y="40.0905" width="453.543" height="320.724" fill="none" stroke="black"/>
<rect x="57.1929" y="40.0905" width="453.543" height="320.724" fill="white"/>
<rect x="57.1929" y="40.0905" width="453.543" height="320.724" fill="none" stroke="black"/>
<path d="M57.1929,345.332h 129.584v -0.477246h 3.23959v -8.40269h 3.23959v -10.1282h 3.23959v -14.4758h 3.23959v -11.4267h 3.23959v -21.2518h 3.23959v 6.05254h 3.23959v -22.4001h 3.23959v -18.3708h 3.23959v -16.8137h 3.23959v 6.07958h 3.23959v
 -7.85149h 3.23959v 2.07734h 3.23959v -31.68h 3.23959v -1.97526h 3.23959v -9.50445h 3.23959v 21.1927h 3.23959v -8.16679h 3.23959v -39.746h 3.23959v 8.92127h 3.23959v 2.74899h 3.23959v -12.7295h 3.23959v 3.7288h 3.23959v 11.7521h 3.23959v 2.92048h
 3.23959v -20.8775h 3.23959v -1.59053h 3.23959v -12.7333h 3.23959v 3.99918h 3.23959v -1.33707h 3.23959v -4.88859h 3.23959v -9.49288h 3.23959v 2.19884h 3.23959v 3.13767h 3.23959v -1.74809h 3.23959v 0.330737h 3.23959v -11.0773h 3.23959v 8.81246h
 3.23959v 17.7672h 3.23959v -8.63759h 3.23959v 8.91612h 3.23959v -14.4809h 3.23959v -5.06309h 3.23959v 11.0717h 3.23959v -21.7744h 3.23959v -8.16757h 3.23959v 3.61116h 3.23959v -28.4814h 3.23959v 1.66579h 3.23959v 2.00212h 3.23959v -12.3792h 3.23959v
 -1.70558h 3.23959v -19.1202h 3.23959v 9.83218h 3.23959v 8.80066h 3.23959v 27.3997h 3.23959v 27.6264h 3.23959v 24.1784h 3.23959v 17.5427h 3.23959v 43.114h 3.23959v 29.4605h 3.23959v 22.8803h 3.23959v 5.50835h 3.23959v 22.5805h 3.23959v 1.43743h
 3.23959v 14.4096h 3.23959v 0.140254h 3.23959v 8.91228h 3.23959v 3.10059h 3.23959v 12.162h 3.23959v -7.765h 3.23959v 7.13558h 3.23959v 0.226986h 3.23959v 2.90043h 3.23959v 2.93457h 3.23959v 0.105564h 3.23959v 1.3215h 3.23959v -1.51587h 3.23959v
 6.25735h 3.23959v -4.83331h 3.23959v 1.13019h 3.23959v 3.37348h 3.23959v -3.04433h 3.23959v 0.783447h 3.23959v 0.0315568h 3.23959v 1.28709h 3.23959v -0.4815h 3.23959v -1.28742h 3.23959v 1.6757h 3.23959v -0.267081h 3.23959v 0.318304h 3.23959v
 0.651309h 3.23959v 0.882016h 3.23959v -0.937567h 22.6772" fill="none" stroke="#000099" stroke-width="3"/>
<path d="M57.1929,360.815h 453.543" fill="none" stroke="black"/>
<path d="M57.1929,351.193v 9.62173" fill="none" stroke="black"/>
<path d="M70.1513,356.004v 4.81086" fill="none" stroke="black"/>
<path d="M83.1097,356.004v 4.81086" fill="none" stroke="black"/>
<path d="M96.0681,356.004v 4.81086" fill="none" stroke="black"/>
<path d="M109.026,356.004v 4.81086" fill="none" stroke="black"/>
<path d="M121.985,351.193v 9.62173" fill="none" stroke="black"/>
<path d="M134.943,356.004v 4.81086" fill="none" stroke="black"/>
<path d="M147.902,356.004v 4.81086" fill="none" stroke="black"/>
<path d="M160.86,356.004v 4.81086" fill="none" stroke="black"/>
<path d="M173.818,356.004v 4.81086" fill="none" stroke="black"/>
<path d="M186.777,351.193v 9.62173" fill="none" stroke="black"/>
<path d="M199.735,356.004v 4.81086" fill="none" stroke="black"/>
<path d="M212.693,356.004v 4.81086" fill="none" stroke="black"/>
<path d="M225.652,356.004v 4.81086" fill="none" stroke="black"/>
<path d="M238.61,356.004v 4.81086" fill="none" stroke="black"/>
<path d="M251.569,351.193v 9.62173" fill="none" stroke="black"/>
<path d="M264.527,356.004v 4.81086" fill="none" stroke="black"/>
<path d="M277.485,356.004v 4.81086" fill="none" stroke="black"/>
<path d="M290.444,356.004v 4.81086" fill="none" stroke="black"/>
<path d="M303.402,356.004v 4.81086" fill="none" stroke="black"/>
<path d="M316.361,351.193v 9.62173" fill="none" stroke="black"/>
<path d="M329.319,356.004v 4.81086" fill="none" stroke="black"/>
<path d="M342.277,356.004v 4.81086" fill="none" stroke="black"/>
<path d="M355.236,356.004v 4.81086" fill="none" stroke="black"/>
<path d="M368.194,356.004v 4.81086" fill="none" stroke="black"/>
<path d="M381.152,351.193v 9.62173" fill="none" stroke="black"/>
<path d="M394.111,356.004v 4.81086" fill="none" stroke="black"/>
<path d="M407.069,356.004v 4.81086" fill="none" stroke="black"/>
<path d="M420.028,356.004v 4.81086" fill="none" stroke="black"/>
<path d="M432.986,356.004v 4.81086" fill="none" stroke="black"/>
<path d="M445.944,351.193v 9.62173" fill="none" stroke="black"/>
<path d="M458.903,356.004v 4.81086" fill="none" stroke="black"/>
<path d="M471.861,356.004v 4.81086" fill="none" stroke="black"/>
<path d="M484.819,356.004v 4.81086" fill="none" stroke="black"/>
<path d="M497.778,356.004v 4.81086" fill="none" stroke="black"/>
<path d="M510.736,351.193v 9.62173" fill="none" stroke="black"/>
<text xml:space="preserve" x="51.7608" y="378.718" fill="black" font-size="18.8902" font-family="Helvetica">0</text>
<text xml:space="preserve" x="108.377" y="378.718" fill="black" font-size="18.8902" font-family="Helvetica">0.5</text>
<text xml:space="preserve" x="182.591" y="378.718" fill="black" font-size="18.8902" font-family="Helvetica">1</text>
<text xml:space="preserve" x="238.442" y="378.718" fill="black" font-size="18.8902" font-family="Helvetica">1.5</text>
<text xml:space="preserve" x="310.36" y="378.718" fill="black" font-size="18.8902" font-family="Helvetica">2</text>
<text xml:space="preserve" x="367.742" y="378.718" fill="black" font-size="18.8902" font-family="Helvetica">2.5</text>
<text xml:space="preserve" x="440.425" y="378.718" fill="black" font-size="18.8902" font-family="Helvetica">3</text>
<text xml:space="preserve" x="497.041" y="378.718" fill="black" font-size="18.8902" font-family="Helvetica">3.5</text>
<text xml:space="preserve" x="458.787" y="397.08" fill="black" font-size="18.8902" font-family="Helvetica"> [GeV]</text>
<text xml:space="preserve" x="443.485" y="402.436" fill="black" font-size="12.7601" font-family="Helvetica">kin</text>
<text xml:space="preserve" x="432.009" y="397.08" fill="black" font-size="18.8902" font-family="Helvetica">E</text>
<path d="M57.1929,360.815v -320.724" fill="none" stroke="black"/>
<path d="M70.7992,345.332h -13.6063" fill="none" stroke="black"/>
<path d="M63.9961,336.056h -6.80315" fill="none" stroke="black"/>
<path d="M63.9961,326.78h -6.80315" fill="none" stroke="black"/>
<path d="M63.9961,317.504h -6.80315" fill="none" stroke="black"/>
<path d="M63.9961,308.228h -6.80315" fill="none" stroke="black"/>
<path d="M70.7992,298.952h -13.6063" fill="none" stroke="black"/>
<path d="M63.9961,289.676h -6.80315" fill="none" stroke="black"/>
<path d="M63.9961,280.4h -6.80315" fill="none" stroke="black"/>
<path d="M63.9961,271.124h -6.80315" fill="none" stroke="black"/>
<path d="M63.9961,261.848h -6.80315" fill="none" stroke="black"/>
<path d="M70.7992,252.572h -13.6063" fill="none" stroke="black"/>
<path d="M63.9961,243.296h -6.80315" fill="none" stroke="black"/>
<path d="M63.9961,234.02h -6.80315" fill="none" stroke="black"/>
<path d="M63.9961,224.743h -6.80315" fill="none" stroke="black"/>
<path d="M63.9961,215.467h -6.80315" fill="none" stroke="black"/>
<path d="M70.7992,206.191h -13.6063" fill="none" stroke="black"/>
<path d="M63.9961,196.915h -6.80315" fill="none" stroke="black"/>
<path d="M63.9961,187.639h -6.80315" fill="none" stroke="black"/>
<path d="M63.9961,178.363h -6.80315" fill="none" stroke="black"/>
<path d="M63.9961,169.087h -6.80315" fill="none" stroke="black"/>
<path d="M70.7992,159.811h -13.6063" fill="none" stroke="black"/>
<path d="M63.9961,150.535h -6.80315" fill="none" stroke="black"/>
<path d="M63.9961,141.259h -6.80315" fill="none" stroke="black"/>
<path d="M63.9961,131.983h -6.80315" fill="none" stroke="black"/>
<path d="M63.9961,122.707h -6.80315" fill="none" stroke="black"/>
<path d="M70.7992,113.431h -13.6063" fill="none" stroke="black"/>
<path d="M63.9961,104.155h -6.80315" fill="none" stroke="black"/>
<path d="M63.9961,94.879h -6.80315" fill="none" stroke="black"/>
<path d="M63.9961,85.603h -6.80315" fill="none" stroke="black"/>
<path d="M63.9961,76.3269h -6.80315" fill="none" stroke="black"/>
<path d="M70.7992,67.0509h -13.6063" fill="none" stroke="black"/>
<path d="M70.7992,345.332h -13.6063" fill="none" stroke="black"/>
<path d="M63.9961,354.608h -6.80315" fill="none" stroke="black"/>
<path d="M70.7992,67.0509h -13.6063" fill="none" stroke="black"/>
<path d="M63.9961,57.7749h -6.80315" fill="none" stroke="black"/>
<path d="M63.9961,48.4988h -6.80315" fill="none" stroke="black"/>
<text xml:space="preserve" x="44.1099" y="351.94" fill="black" font-size="18.8902" font-family="Helvetica">0</text>
<text xml:space="preserve" x="24.2177" y="305.27" fill="black" font-size="18.8902" font-family="Helvetica">500</text>
<text xml:space="preserve" x="13.5065" y="259.364" fill="black" font-size="18.8902" font-family="Helvetica">1000</text>
<text xml:space="preserve" x="13.5065" y="212.694" fill="black" font-size="18.8902" font-family="Helvetica">1500</text>
<text xml:space="preserve" x="13.5065" y="166.024" fill="black" font-size="18.8902" font-family="Helvetica">2000</text>
<text xml:space="preserve" x="13.5065" y="120.119" fill="black" font-size="18.8902" font-family="Helvetica">2500</text>
<text xml:space="preserve" x="13.5065" y="73.4483" fill="black" font-size="18.8902" font-family="Helvetica">3000</text>
<text xml:space="preserve" x="86.9548" y="28.3082" fill="black" font-size="12.7601" font-family="Helvetica">3</text>
<text xml:space="preserve" x="67.0625" y="37.4892" fill="black" font-size="18.8902" font-family="Helvetica">10</text>
<text xml:space="preserve" x="57.1164" y="37.4892" fill="black" font-size="18.8902" font-family="Times">&#0215;</text></svg>
