<?xml version="1.0" standalone="no"?>
<svg width="567.429" height="276.279" viewBox="0 0 567.429 276.279" xmlns="http://www.w3.org/2000/svg" shape-rendering="crispEdges">
<title>
/u/home/ltracy/Root_work/01-18-19/56Fe_4461_cal_pimi.svg
</title>
<desc>
Creator: ROOT Version 6.10/02
CreationDate: Mon Nov 25 16:41:14 2019</desc>
<defs>
</defs>
<rect x="0.5" y="0" width="566.929" height="275.779" fill="white"/>
<rect x="57.1929" y="27.5779" width="453.543" height="220.624" fill="white"/>
<rect x="57.1929" y="27.5779" width="453.543" height="220.624" fill="none" stroke="black"/>
<rect x="57.1929" y="27.5779" width="453.543" height="220.624" fill="white"/>
<rect x="57.1929" y="27.5779" width="453.543" height="220.624" fill="none" stroke="black"/>
<path d="M144.5,191.673v -0.992129" fill="none" stroke="#000099" stroke-width="2"/>
<path d="M144.5,190.681v -0.992129" fill="none" stroke="#000099" stroke-width="2"/>
<g stroke="black" stroke-width="2" fill="none">
<line x1="143.5" y1="190.681" x2="144.5" y2="190.681"/>
</g>
<path d="M146.768,190.201v -0.44233" fill="none" stroke="#000099" stroke-width="2"/>
<path d="M146.768,189.759v -0.44233" fill="none" stroke="#000099" stroke-width="2"/>
<g stroke="black" stroke-width="2" fill="none">
<line x1="145.768" y1="189.759" x2="146.768" y2="189.759"/>
</g>
<path d="M149.035,189.372v -1.61203" fill="none" stroke="#000099" stroke-width="2"/>
<path d="M149.035,187.76v -1.61203" fill="none" stroke="#000099" stroke-width="2"/>
<g stroke="black" stroke-width="2" fill="none">
<line x1="148.035" y1="187.76" x2="149.035" y2="187.76"/>
</g>
<path d="M151.303,190.616v -0.710899" fill="none" stroke="#000099" stroke-width="2"/>
<path d="M151.303,189.905v -0.710899" fill="none" stroke="#000099" stroke-width="2"/>
<g stroke="black" stroke-width="2" fill="none">
<line x1="150.303" y1="189.905" x2="151.303" y2="189.905"/>
</g>
<path d="M153.571,191.929v -1.55444" fill="none" stroke="#000099" stroke-width="2"/>
<path d="M153.571,190.375v -1.55444" fill="none" stroke="#000099" stroke-width="2"/>
<g stroke="black" stroke-width="2" fill="none">
<line x1="152.571" y1="190.375" x2="153.571" y2="190.375"/>
</g>
<path d="M155.839,191.824v -1.68001" fill="none" stroke="#000099" stroke-width="2"/>
<path d="M155.839,190.144v -1.68001" fill="none" stroke="#000099" stroke-width="2"/>
<g stroke="black" stroke-width="2" fill="none">
<line x1="154.839" y1="190.144" x2="155.839" y2="190.144"/>
</g>
<path d="M158.106,191.515v -2.72005" fill="none" stroke="#000099" stroke-width="2"/>
<path d="M158.106,188.794v -2.72005" fill="none" stroke="#000099" stroke-width="2"/>
<g stroke="black" stroke-width="2" fill="none">
<line x1="157.106" y1="188.794" x2="158.106" y2="188.794"/>
</g>
<path d="M160.374,202.422v -4.20362" fill="none" stroke="#000099" stroke-width="2"/>
<path d="M160.374,198.218v -4.20362" fill="none" stroke="#000099" stroke-width="2"/>
<g stroke="black" stroke-width="2" fill="none">
<line x1="159.374" y1="198.218" x2="160.374" y2="198.218"/>
</g>
<path d="M162.642,196.355v -4.07162" fill="none" stroke="#000099" stroke-width="2"/>
<path d="M162.642,192.283v -4.07162" fill="none" stroke="#000099" stroke-width="2"/>
<g stroke="black" stroke-width="2" fill="none">
<line x1="161.642" y1="192.283" x2="162.642" y2="192.283"/>
</g>
<path d="M164.909,188.504v -3.99185" fill="none" stroke="#000099" stroke-width="2"/>
<path d="M164.909,184.512v -3.99185" fill="none" stroke="#000099" stroke-width="2"/>
<g stroke="black" stroke-width="2" fill="none">
<line x1="163.909" y1="184.512" x2="164.909" y2="184.512"/>
</g>
<path d="M167.177,192.97v -3.76906" fill="none" stroke="#000099" stroke-width="2"/>
<path d="M167.177,189.201v -3.76906" fill="none" stroke="#000099" stroke-width="2"/>
<g stroke="black" stroke-width="2" fill="none">
<line x1="166.177" y1="189.201" x2="167.177" y2="189.201"/>
</g>
<path d="M169.445,197.214v -5.17686" fill="none" stroke="#000099" stroke-width="2"/>
<path d="M169.445,192.037v -5.17686" fill="none" stroke="#000099" stroke-width="2"/>
<g stroke="black" stroke-width="2" fill="none">
<line x1="168.445" y1="192.037" x2="169.445" y2="192.037"/>
</g>
<path d="M171.713,195.377v -3.7958" fill="none" stroke="#000099" stroke-width="2"/>
<path d="M171.713,191.582v -3.7958" fill="none" stroke="#000099" stroke-width="2"/>
<g stroke="black" stroke-width="2" fill="none">
<line x1="170.713" y1="191.582" x2="171.713" y2="191.582"/>
</g>
<path d="M173.98,191.067v -6.79858" fill="none" stroke="#000099" stroke-width="2"/>
<path d="M173.98,184.268v -6.79858" fill="none" stroke="#000099" stroke-width="2"/>
<g stroke="black" stroke-width="2" fill="none">
<line x1="172.98" y1="184.268" x2="173.98" y2="184.268"/>
</g>
<path d="M176.248,196.452v -8.84123" fill="none" stroke="#000099" stroke-width="2"/>
<path d="M176.248,187.611v -8.84123" fill="none" stroke="#000099" stroke-width="2"/>
<g stroke="black" stroke-width="2" fill="none">
<line x1="175.248" y1="187.611" x2="176.248" y2="187.611"/>
</g>
<path d="M178.516,195.918v -8.37461" fill="none" stroke="#000099" stroke-width="2"/>
<path d="M178.516,187.543v -8.37461" fill="none" stroke="#000099" stroke-width="2"/>
<g stroke="black" stroke-width="2" fill="none">
<line x1="177.516" y1="187.543" x2="178.516" y2="187.543"/>
</g>
<path d="M180.783,189.768v -9.26783" fill="none" stroke="#000099" stroke-width="2"/>
<path d="M180.783,180.5v -9.26783" fill="none" stroke="#000099" stroke-width="2"/>
<g stroke="black" stroke-width="2" fill="none">
<line x1="179.783" y1="180.5" x2="180.783" y2="180.5"/>
</g>
<path d="M183.051,199.398v -8.4141" fill="none" stroke="#000099" stroke-width="2"/>
<path d="M183.051,190.984v -8.4141" fill="none" stroke="#000099" stroke-width="2"/>
<g stroke="black" stroke-width="2" fill="none">
<line x1="182.051" y1="190.984" x2="183.051" y2="190.984"/>
</g>
<path d="M185.319,194.706v -8.4431" fill="none" stroke="#000099" stroke-width="2"/>
<path d="M185.319,186.263v -8.4431" fill="none" stroke="#000099" stroke-width="2"/>
<g stroke="black" stroke-width="2" fill="none">
<line x1="184.319" y1="186.263" x2="185.319" y2="186.263"/>
</g>
<path d="M187.587,205.012v -10.1709" fill="none" stroke="#000099" stroke-width="2"/>
<path d="M187.587,194.841v -10.1709" fill="none" stroke="#000099" stroke-width="2"/>
<g stroke="black" stroke-width="2" fill="none">
<line x1="186.587" y1="194.841" x2="187.587" y2="194.841"/>
</g>
<path d="M189.854,193.734v -8.67395" fill="none" stroke="#000099" stroke-width="2"/>
<path d="M189.854,185.06v -8.67395" fill="none" stroke="#000099" stroke-width="2"/>
<g stroke="black" stroke-width="2" fill="none">
<line x1="188.854" y1="185.06" x2="189.854" y2="185.06"/>
</g>
<path d="M192.122,199.989v -7.55556" fill="none" stroke="#000099" stroke-width="2"/>
<path d="M192.122,192.434v -7.55556" fill="none" stroke="#000099" stroke-width="2"/>
<g stroke="black" stroke-width="2" fill="none">
<line x1="191.122" y1="192.434" x2="192.122" y2="192.434"/>
</g>
<path d="M194.39,208.572v -8.56308" fill="none" stroke="#000099" stroke-width="2"/>
<path d="M194.39,200.008v -8.56308" fill="none" stroke="#000099" stroke-width="2"/>
<g stroke="black" stroke-width="2" fill="none">
<line x1="193.39" y1="200.008" x2="194.39" y2="200.008"/>
</g>
<path d="M196.657,191.016v -8.93261" fill="none" stroke="#000099" stroke-width="2"/>
<path d="M196.657,182.083v -8.93261" fill="none" stroke="#000099" stroke-width="2"/>
<g stroke="black" stroke-width="2" fill="none">
<line x1="195.657" y1="182.083" x2="196.657" y2="182.083"/>
</g>
<path d="M198.925,196.446v -12.4446" fill="none" stroke="#000099" stroke-width="2"/>
<path d="M198.925,184.001v -12.4446" fill="none" stroke="#000099" stroke-width="2"/>
<g stroke="black" stroke-width="2" fill="none">
<line x1="197.925" y1="184.001" x2="198.925" y2="184.001"/>
</g>
<path d="M201.193,202.815v -7.99811" fill="none" stroke="#000099" stroke-width="2"/>
<path d="M201.193,194.817v -7.99811" fill="none" stroke="#000099" stroke-width="2"/>
<g stroke="black" stroke-width="2" fill="none">
<line x1="200.193" y1="194.817" x2="201.193" y2="194.817"/>
</g>
<path d="M203.461,201.597v -13.2697" fill="none" stroke="#000099" stroke-width="2"/>
<path d="M203.461,188.327v -13.2697" fill="none" stroke="#000099" stroke-width="2"/>
<g stroke="black" stroke-width="2" fill="none">
<line x1="202.461" y1="188.327" x2="203.461" y2="188.327"/>
</g>
<path d="M205.728,205.755v -17.4164" fill="none" stroke="#000099" stroke-width="2"/>
<path d="M205.728,188.339v -17.4164" fill="none" stroke="#000099" stroke-width="2"/>
<g stroke="black" stroke-width="2" fill="none">
<line x1="204.728" y1="188.339" x2="205.728" y2="188.339"/>
</g>
<path d="M207.996,206.313v -8.07335" fill="none" stroke="#000099" stroke-width="2"/>
<path d="M207.996,198.24v -8.07335" fill="none" stroke="#000099" stroke-width="2"/>
<g stroke="black" stroke-width="2" fill="none">
<line x1="206.996" y1="198.24" x2="207.996" y2="198.24"/>
</g>
<path d="M210.264,217.089v -15.9724" fill="none" stroke="#000099" stroke-width="2"/>
<path d="M210.264,201.116v -15.9724" fill="none" stroke="#000099" stroke-width="2"/>
<g stroke="black" stroke-width="2" fill="none">
<line x1="209.264" y1="201.116" x2="210.264" y2="201.116"/>
</g>
<path d="M212.531,203.786v -8.55793" fill="none" stroke="#000099" stroke-width="2"/>
<path d="M212.531,195.228v -8.55793" fill="none" stroke="#000099" stroke-width="2"/>
<g stroke="black" stroke-width="2" fill="none">
<line x1="211.531" y1="195.228" x2="212.531" y2="195.228"/>
</g>
<path d="M214.799,196.434v -79.175" fill="none" stroke="#000099" stroke-width="2"/>
<path d="M214.799,117.259v -79.175" fill="none" stroke="#000099" stroke-width="2"/>
<g stroke="black" stroke-width="2" fill="none">
<line x1="213.799" y1="117.259" x2="214.799" y2="117.259"/>
</g>
<path d="M217.067,190.597v -11.7325" fill="none" stroke="#000099" stroke-width="2"/>
<path d="M217.067,178.864v -11.7325" fill="none" stroke="#000099" stroke-width="2"/>
<g stroke="black" stroke-width="2" fill="none">
<line x1="216.067" y1="178.864" x2="217.067" y2="178.864"/>
</g>
<path d="M219.335,196.357v -13.8921" fill="none" stroke="#000099" stroke-width="2"/>
<path d="M219.335,182.464v -13.8921" fill="none" stroke="#000099" stroke-width="2"/>
<g stroke="black" stroke-width="2" fill="none">
<line x1="218.335" y1="182.464" x2="219.335" y2="182.464"/>
</g>
<path d="M221.602,225.294v -14.1592" fill="none" stroke="#000099" stroke-width="2"/>
<path d="M221.602,211.134v -14.1592" fill="none" stroke="#000099" stroke-width="2"/>
<g stroke="black" stroke-width="2" fill="none">
<line x1="220.602" y1="211.134" x2="221.602" y2="211.134"/>
</g>
<path d="M223.87,217.903v -11.8364" fill="none" stroke="#000099" stroke-width="2"/>
<path d="M223.87,206.067v -11.8364" fill="none" stroke="#000099" stroke-width="2"/>
<g stroke="black" stroke-width="2" fill="none">
<line x1="222.87" y1="206.067" x2="223.87" y2="206.067"/>
</g>
<path d="M226.138,207.325v -10.6572" fill="none" stroke="#000099" stroke-width="2"/>
<path d="M226.138,196.668v -10.6572" fill="none" stroke="#000099" stroke-width="2"/>
<g stroke="black" stroke-width="2" fill="none">
<line x1="225.138" y1="196.668" x2="226.138" y2="196.668"/>
</g>
<path d="M228.406,202.314v -13.723" fill="none" stroke="#000099" stroke-width="2"/>
<path d="M228.406,188.591v -13.723" fill="none" stroke="#000099" stroke-width="2"/>
<g stroke="black" stroke-width="2" fill="none">
<line x1="227.406" y1="188.591" x2="228.406" y2="188.591"/>
</g>
<path d="M230.673,217.729v -17.9545" fill="none" stroke="#000099" stroke-width="2"/>
<path d="M230.673,199.774v -17.9545" fill="none" stroke="#000099" stroke-width="2"/>
<g stroke="black" stroke-width="2" fill="none">
<line x1="229.673" y1="199.774" x2="230.673" y2="199.774"/>
</g>
<path d="M232.941,179.803v -9.89913" fill="none" stroke="#000099" stroke-width="2"/>
<path d="M232.941,169.904v -9.89913" fill="none" stroke="#000099" stroke-width="2"/>
<g stroke="black" stroke-width="2" fill="none">
<line x1="231.941" y1="169.904" x2="232.941" y2="169.904"/>
</g>
<path d="M235.209,204.571v -12.4849" fill="none" stroke="#000099" stroke-width="2"/>
<path d="M235.209,192.086v -12.4849" fill="none" stroke="#000099" stroke-width="2"/>
<g stroke="black" stroke-width="2" fill="none">
<line x1="234.209" y1="192.086" x2="235.209" y2="192.086"/>
</g>
<path d="M237.476,238.196v -15.9199" fill="none" stroke="#000099" stroke-width="2"/>
<path d="M237.476,222.276v -15.9199" fill="none" stroke="#000099" stroke-width="2"/>
<g stroke="black" stroke-width="2" fill="none">
<line x1="236.476" y1="222.276" x2="237.476" y2="222.276"/>
</g>
<path d="M239.744,203.442v -10.3084" fill="none" stroke="#000099" stroke-width="2"/>
<path d="M239.744,193.134v -10.3084" fill="none" stroke="#000099" stroke-width="2"/>
<g stroke="black" stroke-width="2" fill="none">
<line x1="238.744" y1="193.134" x2="239.744" y2="193.134"/>
</g>
<path d="M242.012,206.574v -12.7749" fill="none" stroke="#000099" stroke-width="2"/>
<path d="M242.012,193.799v -12.7749" fill="none" stroke="#000099" stroke-width="2"/>
<g stroke="black" stroke-width="2" fill="none">
<line x1="241.012" y1="193.799" x2="242.012" y2="193.799"/>
</g>
<path d="M244.28,218.983v -13.6301" fill="none" stroke="#000099" stroke-width="2"/>
<path d="M244.28,205.352v -13.6301" fill="none" stroke="#000099" stroke-width="2"/>
<g stroke="black" stroke-width="2" fill="none">
<line x1="243.28" y1="205.352" x2="244.28" y2="205.352"/>
</g>
<path d="M246.547,206.441v -22.3389" fill="none" stroke="#000099" stroke-width="2"/>
<path d="M246.547,184.102v -22.3389" fill="none" stroke="#000099" stroke-width="2"/>
<g stroke="black" stroke-width="2" fill="none">
<line x1="245.547" y1="184.102" x2="246.547" y2="184.102"/>
</g>
<path d="M248.815,198.162v -8.13658" fill="none" stroke="#000099" stroke-width="2"/>
<path d="M248.815,190.026v -8.13658" fill="none" stroke="#000099" stroke-width="2"/>
<g stroke="black" stroke-width="2" fill="none">
<line x1="247.815" y1="190.026" x2="248.815" y2="190.026"/>
</g>
<path d="M251.083,203.411v -13.6578" fill="none" stroke="#000099" stroke-width="2"/>
<path d="M251.083,189.753v -13.6578" fill="none" stroke="#000099" stroke-width="2"/>
<g stroke="black" stroke-width="2" fill="none">
<line x1="250.083" y1="189.753" x2="251.083" y2="189.753"/>
</g>
<path d="M253.35,180.134v -8.98789" fill="none" stroke="#000099" stroke-width="2"/>
<path d="M253.35,171.146v -8.98789" fill="none" stroke="#000099" stroke-width="2"/>
<g stroke="black" stroke-width="2" fill="none">
<line x1="252.35" y1="171.146" x2="253.35" y2="171.146"/>
</g>
<path d="M255.618,192.83v -9.60255" fill="none" stroke="#000099" stroke-width="2"/>
<path d="M255.618,183.227v -9.60255" fill="none" stroke="#000099" stroke-width="2"/>
<g stroke="black" stroke-width="2" fill="none">
<line x1="254.618" y1="183.227" x2="255.618" y2="183.227"/>
</g>
<path d="M257.886,195.086v -29.987" fill="none" stroke="#000099" stroke-width="2"/>
<path d="M257.886,165.099v -29.987" fill="none" stroke="#000099" stroke-width="2"/>
<g stroke="black" stroke-width="2" fill="none">
<line x1="256.886" y1="165.099" x2="257.886" y2="165.099"/>
</g>
<path d="M260.154,205.347v -9.39076" fill="none" stroke="#000099" stroke-width="2"/>
<path d="M260.154,195.956v -9.39076" fill="none" stroke="#000099" stroke-width="2"/>
<g stroke="black" stroke-width="2" fill="none">
<line x1="259.154" y1="195.956" x2="260.154" y2="195.956"/>
</g>
<path d="M262.421,192.67v -7.85419" fill="none" stroke="#000099" stroke-width="2"/>
<path d="M262.421,184.816v -7.85419" fill="none" stroke="#000099" stroke-width="2"/>
<g stroke="black" stroke-width="2" fill="none">
<line x1="261.421" y1="184.816" x2="262.421" y2="184.816"/>
</g>
<path d="M264.689,204.211v -7.84899" fill="none" stroke="#000099" stroke-width="2"/>
<path d="M264.689,196.362v -7.84899" fill="none" stroke="#000099" stroke-width="2"/>
<g stroke="black" stroke-width="2" fill="none">
<line x1="263.689" y1="196.362" x2="264.689" y2="196.362"/>
</g>
<path d="M266.957,196.953v -8.75974" fill="none" stroke="#000099" stroke-width="2"/>
<path d="M266.957,188.193v -8.75974" fill="none" stroke="#000099" stroke-width="2"/>
<g stroke="black" stroke-width="2" fill="none">
<line x1="265.957" y1="188.193" x2="266.957" y2="188.193"/>
</g>
<path d="M269.224,194.354v -7.792" fill="none" stroke="#000099" stroke-width="2"/>
<path d="M269.224,186.562v -7.792" fill="none" stroke="#000099" stroke-width="2"/>
<g stroke="black" stroke-width="2" fill="none">
<line x1="268.224" y1="186.562" x2="269.224" y2="186.562"/>
</g>
<path d="M271.492,181.675v -9.91118" fill="none" stroke="#000099" stroke-width="2"/>
<path d="M271.492,171.764v -9.91118" fill="none" stroke="#000099" stroke-width="2"/>
<g stroke="black" stroke-width="2" fill="none">
<line x1="270.492" y1="171.764" x2="271.492" y2="171.764"/>
</g>
<path d="M273.76,202.033v -8.09474" fill="none" stroke="#000099" stroke-width="2"/>
<path d="M273.76,193.939v -8.09474" fill="none" stroke="#000099" stroke-width="2"/>
<g stroke="black" stroke-width="2" fill="none">
<line x1="272.76" y1="193.939" x2="273.76" y2="193.939"/>
</g>
<path d="M276.028,202.184v -7.81985" fill="none" stroke="#000099" stroke-width="2"/>
<path d="M276.028,194.364v -7.81985" fill="none" stroke="#000099" stroke-width="2"/>
<g stroke="black" stroke-width="2" fill="none">
<line x1="275.028" y1="194.364" x2="276.028" y2="194.364"/>
</g>
<path d="M278.295,200.764v -8.84414" fill="none" stroke="#000099" stroke-width="2"/>
<path d="M278.295,191.92v -8.84414" fill="none" stroke="#000099" stroke-width="2"/>
<g stroke="black" stroke-width="2" fill="none">
<line x1="277.295" y1="191.92" x2="278.295" y2="191.92"/>
</g>
<path d="M280.563,185.76v -10.4503" fill="none" stroke="#000099" stroke-width="2"/>
<path d="M280.563,175.31v -10.4503" fill="none" stroke="#000099" stroke-width="2"/>
<g stroke="black" stroke-width="2" fill="none">
<line x1="279.563" y1="175.31" x2="280.563" y2="175.31"/>
</g>
<path d="M282.831,194.562v -5.44891" fill="none" stroke="#000099" stroke-width="2"/>
<path d="M282.831,189.114v -5.44891" fill="none" stroke="#000099" stroke-width="2"/>
<g stroke="black" stroke-width="2" fill="none">
<line x1="281.831" y1="189.114" x2="282.831" y2="189.114"/>
</g>
<path d="M285.098,197.104v -6.70819" fill="none" stroke="#000099" stroke-width="2"/>
<path d="M285.098,190.396v -6.70819" fill="none" stroke="#000099" stroke-width="2"/>
<g stroke="black" stroke-width="2" fill="none">
<line x1="284.098" y1="190.396" x2="285.098" y2="190.396"/>
</g>
<path d="M287.366,198.648v -5.66081" fill="none" stroke="#000099" stroke-width="2"/>
<path d="M287.366,192.987v -5.66081" fill="none" stroke="#000099" stroke-width="2"/>
<g stroke="black" stroke-width="2" fill="none">
<line x1="286.366" y1="192.987" x2="287.366" y2="192.987"/>
</g>
<path d="M289.634,201.463v -8.13271" fill="none" stroke="#000099" stroke-width="2"/>
<path d="M289.634,193.33v -8.13271" fill="none" stroke="#000099" stroke-width="2"/>
<g stroke="black" stroke-width="2" fill="none">
<line x1="288.634" y1="193.33" x2="289.634" y2="193.33"/>
</g>
<path d="M291.902,189.191v -6.80755" fill="none" stroke="#000099" stroke-width="2"/>
<path d="M291.902,182.383v -6.80755" fill="none" stroke="#000099" stroke-width="2"/>
<g stroke="black" stroke-width="2" fill="none">
<line x1="290.902" y1="182.383" x2="291.902" y2="182.383"/>
</g>
<path d="M294.169,211.198v -10.8458" fill="none" stroke="#000099" stroke-width="2"/>
<path d="M294.169,200.352v -10.8458" fill="none" stroke="#000099" stroke-width="2"/>
<g stroke="black" stroke-width="2" fill="none">
<line x1="293.169" y1="200.352" x2="294.169" y2="200.352"/>
</g>
<path d="M296.437,196.961v -7.44663" fill="none" stroke="#000099" stroke-width="2"/>
<path d="M296.437,189.514v -7.44663" fill="none" stroke="#000099" stroke-width="2"/>
<g stroke="black" stroke-width="2" fill="none">
<line x1="295.437" y1="189.514" x2="296.437" y2="189.514"/>
</g>
<path d="M298.705,199.502v -7.06526" fill="none" stroke="#000099" stroke-width="2"/>
<path d="M298.705,192.437v -7.06526" fill="none" stroke="#000099" stroke-width="2"/>
<g stroke="black" stroke-width="2" fill="none">
<line x1="297.705" y1="192.437" x2="298.705" y2="192.437"/>
</g>
<path d="M300.972,193.916v -5.86368" fill="none" stroke="#000099" stroke-width="2"/>
<path d="M300.972,188.052v -5.86368" fill="none" stroke="#000099" stroke-width="2"/>
<g stroke="black" stroke-width="2" fill="none">
<line x1="299.972" y1="188.052" x2="300.972" y2="188.052"/>
</g>
<path d="M303.24,220.568v -40.3063" fill="none" stroke="#000099" stroke-width="2"/>
<path d="M303.24,180.262v -40.3063" fill="none" stroke="#000099" stroke-width="2"/>
<g stroke="black" stroke-width="2" fill="none">
<line x1="302.24" y1="180.262" x2="303.24" y2="180.262"/>
</g>
<path d="M305.508,194.718v -11.1762" fill="none" stroke="#000099" stroke-width="2"/>
<path d="M305.508,183.542v -11.1762" fill="none" stroke="#000099" stroke-width="2"/>
<g stroke="black" stroke-width="2" fill="none">
<line x1="304.508" y1="183.542" x2="305.508" y2="183.542"/>
</g>
<path d="M307.776,199.045v -5.50945" fill="none" stroke="#000099" stroke-width="2"/>
<path d="M307.776,193.536v -5.50945" fill="none" stroke="#000099" stroke-width="2"/>
<g stroke="black" stroke-width="2" fill="none">
<line x1="306.776" y1="193.536" x2="307.776" y2="193.536"/>
</g>
<path d="M310.043,213.027v -15.7018" fill="none" stroke="#000099" stroke-width="2"/>
<path d="M310.043,197.325v -15.7018" fill="none" stroke="#000099" stroke-width="2"/>
<g stroke="black" stroke-width="2" fill="none">
<line x1="309.043" y1="197.325" x2="310.043" y2="197.325"/>
</g>
<path d="M312.311,194.733v -8.19394" fill="none" stroke="#000099" stroke-width="2"/>
<path d="M312.311,186.539v -8.19394" fill="none" stroke="#000099" stroke-width="2"/>
<g stroke="black" stroke-width="2" fill="none">
<line x1="311.311" y1="186.539" x2="312.311" y2="186.539"/>
</g>
<path d="M314.579,190.979v -7.72509" fill="none" stroke="#000099" stroke-width="2"/>
<path d="M314.579,183.254v -7.72509" fill="none" stroke="#000099" stroke-width="2"/>
<g stroke="black" stroke-width="2" fill="none">
<line x1="313.579" y1="183.254" x2="314.579" y2="183.254"/>
</g>
<path d="M316.846,197.895v -7.19152" fill="none" stroke="#000099" stroke-width="2"/>
<path d="M316.846,190.703v -7.19152" fill="none" stroke="#000099" stroke-width="2"/>
<g stroke="black" stroke-width="2" fill="none">
<line x1="315.846" y1="190.703" x2="316.846" y2="190.703"/>
</g>
<path d="M319.114,185.022v -3.55871" fill="none" stroke="#000099" stroke-width="2"/>
<path d="M319.114,181.463v -3.55871" fill="none" stroke="#000099" stroke-width="2"/>
<g stroke="black" stroke-width="2" fill="none">
<line x1="318.114" y1="181.463" x2="319.114" y2="181.463"/>
</g>
<path d="M321.382,189.293v -4.49263" fill="none" stroke="#000099" stroke-width="2"/>
<path d="M321.382,184.801v -4.49263" fill="none" stroke="#000099" stroke-width="2"/>
<g stroke="black" stroke-width="2" fill="none">
<line x1="320.382" y1="184.801" x2="321.382" y2="184.801"/>
</g>
<path d="M323.65,184.969v -4.20733" fill="none" stroke="#000099" stroke-width="2"/>
<path d="M323.65,180.762v -4.20733" fill="none" stroke="#000099" stroke-width="2"/>
<g stroke="black" stroke-width="2" fill="none">
<line x1="322.65" y1="180.762" x2="323.65" y2="180.762"/>
</g>
<path d="M325.917,190.111v -5.0396" fill="none" stroke="#000099" stroke-width="2"/>
<path d="M325.917,185.071v -5.0396" fill="none" stroke="#000099" stroke-width="2"/>
<g stroke="black" stroke-width="2" fill="none">
<line x1="324.917" y1="185.071" x2="325.917" y2="185.071"/>
</g>
<path d="M328.185,189.439v -3.49081" fill="none" stroke="#000099" stroke-width="2"/>
<path d="M328.185,185.948v -3.49081" fill="none" stroke="#000099" stroke-width="2"/>
<g stroke="black" stroke-width="2" fill="none">
<line x1="327.185" y1="185.948" x2="328.185" y2="185.948"/>
</g>
<path d="M330.453,188.82v -4.10748" fill="none" stroke="#000099" stroke-width="2"/>
<path d="M330.453,184.712v -4.10748" fill="none" stroke="#000099" stroke-width="2"/>
<g stroke="black" stroke-width="2" fill="none">
<line x1="329.453" y1="184.712" x2="330.453" y2="184.712"/>
</g>
<path d="M332.72,184.593v -4.10268" fill="none" stroke="#000099" stroke-width="2"/>
<path d="M332.72,180.49v -4.10268" fill="none" stroke="#000099" stroke-width="2"/>
<g stroke="black" stroke-width="2" fill="none">
<line x1="331.72" y1="180.49" x2="332.72" y2="180.49"/>
</g>
<path d="M334.988,186.478v -3.67763" fill="none" stroke="#000099" stroke-width="2"/>
<path d="M334.988,182.8v -3.67763" fill="none" stroke="#000099" stroke-width="2"/>
<g stroke="black" stroke-width="2" fill="none">
<line x1="333.988" y1="182.8" x2="334.988" y2="182.8"/>
</g>
<path d="M337.256,185.708v -3.10019" fill="none" stroke="#000099" stroke-width="2"/>
<path d="M337.256,182.608v -3.10019" fill="none" stroke="#000099" stroke-width="2"/>
<g stroke="black" stroke-width="2" fill="none">
<line x1="336.256" y1="182.608" x2="337.256" y2="182.608"/>
</g>
<path d="M339.524,187.784v -4.13669" fill="none" stroke="#000099" stroke-width="2"/>
<path d="M339.524,183.647v -4.13669" fill="none" stroke="#000099" stroke-width="2"/>
<g stroke="black" stroke-width="2" fill="none">
<line x1="338.524" y1="183.647" x2="339.524" y2="183.647"/>
</g>
<path d="M341.791,201.943v -11.6722" fill="none" stroke="#000099" stroke-width="2"/>
<path d="M341.791,190.271v -11.6722" fill="none" stroke="#000099" stroke-width="2"/>
<g stroke="black" stroke-width="2" fill="none">
<line x1="340.791" y1="190.271" x2="341.791" y2="190.271"/>
</g>
<path d="M344.059,179.247v -4.57344" fill="none" stroke="#000099" stroke-width="2"/>
<path d="M344.059,174.674v -4.57344" fill="none" stroke="#000099" stroke-width="2"/>
<g stroke="black" stroke-width="2" fill="none">
<line x1="343.059" y1="174.674" x2="344.059" y2="174.674"/>
</g>
<path d="M346.327,181.136v -5.89081" fill="none" stroke="#000099" stroke-width="2"/>
<path d="M346.327,175.245v -5.89081" fill="none" stroke="#000099" stroke-width="2"/>
<g stroke="black" stroke-width="2" fill="none">
<line x1="345.327" y1="175.245" x2="346.327" y2="175.245"/>
</g>
<path d="M348.594,188.572v -4.8711" fill="none" stroke="#000099" stroke-width="2"/>
<path d="M348.594,183.701v -4.8711" fill="none" stroke="#000099" stroke-width="2"/>
<g stroke="black" stroke-width="2" fill="none">
<line x1="347.594" y1="183.701" x2="348.594" y2="183.701"/>
</g>
<path d="M350.862,185.902v -3.78554" fill="none" stroke="#000099" stroke-width="2"/>
<path d="M350.862,182.116v -3.78554" fill="none" stroke="#000099" stroke-width="2"/>
<g stroke="black" stroke-width="2" fill="none">
<line x1="349.862" y1="182.116" x2="350.862" y2="182.116"/>
</g>
<path d="M353.13,198.588v -8.28131" fill="none" stroke="#000099" stroke-width="2"/>
<path d="M353.13,190.306v -8.28131" fill="none" stroke="#000099" stroke-width="2"/>
<g stroke="black" stroke-width="2" fill="none">
<line x1="352.13" y1="190.306" x2="353.13" y2="190.306"/>
</g>
<path d="M355.398,188.15v -3.08502" fill="none" stroke="#000099" stroke-width="2"/>
<path d="M355.398,185.065v -3.08502" fill="none" stroke="#000099" stroke-width="2"/>
<g stroke="black" stroke-width="2" fill="none">
<line x1="354.398" y1="185.065" x2="355.398" y2="185.065"/>
</g>
<path d="M357.665,184.578v -5.19731" fill="none" stroke="#000099" stroke-width="2"/>
<path d="M357.665,179.381v -5.19731" fill="none" stroke="#000099" stroke-width="2"/>
<g stroke="black" stroke-width="2" fill="none">
<line x1="356.665" y1="179.381" x2="357.665" y2="179.381"/>
</g>
<path d="M359.933,183.78v -2.17347" fill="none" stroke="#000099" stroke-width="2"/>
<path d="M359.933,181.606v -2.17347" fill="none" stroke="#000099" stroke-width="2"/>
<g stroke="black" stroke-width="2" fill="none">
<line x1="358.933" y1="181.606" x2="359.933" y2="181.606"/>
</g>
<path d="M362.201,183.579v -2.72972" fill="none" stroke="#000099" stroke-width="2"/>
<path d="M362.201,180.85v -2.72972" fill="none" stroke="#000099" stroke-width="2"/>
<g stroke="black" stroke-width="2" fill="none">
<line x1="361.201" y1="180.85" x2="362.201" y2="180.85"/>
</g>
<path d="M364.469,189.751v -3.63235" fill="none" stroke="#000099" stroke-width="2"/>
<path d="M364.469,186.118v -3.63235" fill="none" stroke="#000099" stroke-width="2"/>
<g stroke="black" stroke-width="2" fill="none">
<line x1="363.469" y1="186.118" x2="364.469" y2="186.118"/>
</g>
<path d="M366.736,182.307v -2.75393" fill="none" stroke="#000099" stroke-width="2"/>
<path d="M366.736,179.553v -2.75393" fill="none" stroke="#000099" stroke-width="2"/>
<g stroke="black" stroke-width="2" fill="none">
<line x1="365.736" y1="179.553" x2="366.736" y2="179.553"/>
</g>
<path d="M369.004,185.752v -2.83743" fill="none" stroke="#000099" stroke-width="2"/>
<path d="M369.004,182.915v -2.83743" fill="none" stroke="#000099" stroke-width="2"/>
<g stroke="black" stroke-width="2" fill="none">
<line x1="368.004" y1="182.915" x2="369.004" y2="182.915"/>
</g>
<path d="M371.272,183.378v -2.55792" fill="none" stroke="#000099" stroke-width="2"/>
<path d="M371.272,180.82v -2.55792" fill="none" stroke="#000099" stroke-width="2"/>
<g stroke="black" stroke-width="2" fill="none">
<line x1="370.272" y1="180.82" x2="371.272" y2="180.82"/>
</g>
<path d="M373.539,185.585v -2.49895" fill="none" stroke="#000099" stroke-width="2"/>
<path d="M373.539,183.086v -2.49895" fill="none" stroke="#000099" stroke-width="2"/>
<g stroke="black" stroke-width="2" fill="none">
<line x1="372.539" y1="183.086" x2="373.539" y2="183.086"/>
</g>
<path d="M375.807,181.643v -1.67214" fill="none" stroke="#000099" stroke-width="2"/>
<path d="M375.807,179.971v -1.67214" fill="none" stroke="#000099" stroke-width="2"/>
<g stroke="black" stroke-width="2" fill="none">
<line x1="374.807" y1="179.971" x2="375.807" y2="179.971"/>
</g>
<path d="M378.075,181.583v -2.06301" fill="none" stroke="#000099" stroke-width="2"/>
<path d="M378.075,179.52v -2.06301" fill="none" stroke="#000099" stroke-width="2"/>
<g stroke="black" stroke-width="2" fill="none">
<line x1="377.075" y1="179.52" x2="378.075" y2="179.52"/>
</g>
<path d="M380.343,183.524v -1.88305" fill="none" stroke="#000099" stroke-width="2"/>
<path d="M380.343,181.641v -1.88305" fill="none" stroke="#000099" stroke-width="2"/>
<g stroke="black" stroke-width="2" fill="none">
<line x1="379.343" y1="181.641" x2="380.343" y2="181.641"/>
</g>
<path d="M382.61,186.059v -1.67832" fill="none" stroke="#000099" stroke-width="2"/>
<path d="M382.61,184.381v -1.67832" fill="none" stroke="#000099" stroke-width="2"/>
<g stroke="black" stroke-width="2" fill="none">
<line x1="381.61" y1="184.381" x2="382.61" y2="184.381"/>
</g>
<path d="M384.878,181.03v -1.7828" fill="none" stroke="#000099" stroke-width="2"/>
<path d="M384.878,179.247v -1.7828" fill="none" stroke="#000099" stroke-width="2"/>
<g stroke="black" stroke-width="2" fill="none">
<line x1="383.878" y1="179.247" x2="384.878" y2="179.247"/>
</g>
<path d="M387.146,173.547v -2.69243" fill="none" stroke="#000099" stroke-width="2"/>
<path d="M387.146,170.855v -2.69243" fill="none" stroke="#000099" stroke-width="2"/>
<g stroke="black" stroke-width="2" fill="none">
<line x1="386.146" y1="170.855" x2="387.146" y2="170.855"/>
</g>
<path d="M389.413,168.79v -2.6603" fill="none" stroke="#000099" stroke-width="2"/>
<path d="M389.413,166.13v -2.6603" fill="none" stroke="#000099" stroke-width="2"/>
<g stroke="black" stroke-width="2" fill="none">
<line x1="388.413" y1="166.13" x2="389.413" y2="166.13"/>
</g>
<path d="M391.681,161.174v -3.65836" fill="none" stroke="#000099" stroke-width="2"/>
<path d="M391.681,157.516v -3.65836" fill="none" stroke="#000099" stroke-width="2"/>
<g stroke="black" stroke-width="2" fill="none">
<line x1="390.681" y1="157.516" x2="391.681" y2="157.516"/>
</g>
<path d="M393.949,168.871v -2.34095" fill="none" stroke="#000099" stroke-width="2"/>
<path d="M393.949,166.53v -2.34095" fill="none" stroke="#000099" stroke-width="2"/>
<g stroke="black" stroke-width="2" fill="none">
<line x1="392.949" y1="166.53" x2="393.949" y2="166.53"/>
</g>
<path d="M396.217,185.148v -1.69772" fill="none" stroke="#000099" stroke-width="2"/>
<path d="M396.217,183.45v -1.69772" fill="none" stroke="#000099" stroke-width="2"/>
<g stroke="black" stroke-width="2" fill="none">
<line x1="395.217" y1="183.45" x2="396.217" y2="183.45"/>
</g>
<path d="M398.484,188.39v -1.12673" fill="none" stroke="#000099" stroke-width="2"/>
<path d="M398.484,187.263v -1.12673" fill="none" stroke="#000099" stroke-width="2"/>
<g stroke="black" stroke-width="2" fill="none">
<line x1="397.484" y1="187.263" x2="398.484" y2="187.263"/>
</g>
<path d="M400.752,190.131v -0.2577" fill="none" stroke="#000099" stroke-width="2"/>
<path d="M400.752,189.874v -0.2577" fill="none" stroke="#000099" stroke-width="2"/>
<g stroke="black" stroke-width="2" fill="none">
<line x1="399.752" y1="189.874" x2="400.752" y2="189.874"/>
</g>
<path d="M409.823,189.77v -0.0781986" fill="none" stroke="#000099" stroke-width="2"/>
<path d="M409.823,189.692v -0.0781986" fill="none" stroke="#000099" stroke-width="2"/>
<g stroke="black" stroke-width="2" fill="none">
<line x1="408.823" y1="189.692" x2="409.823" y2="189.692"/>
</g>
<path d="M471.051,189.77v -0.456355" fill="none" stroke="#000099" stroke-width="2"/>
<path d="M471.051,189.314v -0.456355" fill="none" stroke="#000099" stroke-width="2"/>
<g stroke="black" stroke-width="2" fill="none">
<line x1="470.051" y1="189.314" x2="471.051" y2="189.314"/>
</g>
<path d="M57.1929,189.77h 86.1732v 0.910759h 2.26772v -0.921894h 2.26772v -1.9986h 2.26772v 2.14496h 2.26772v 0.469338h 2.26772v -0.230506h 2.26772v -1.34973h 2.26772v 9.42392h 2.26772v -5.93528h 2.26772v -7.77132h 2.26772v 4.68938h 2.26772v 2.83569h
 2.26772v -0.455353h 2.26772v -7.31315h 2.26772v 3.34288h 2.26772v -0.067898h 2.26772v -7.04306h 2.26772v 10.4835h 2.26772v -4.72049h 2.26772v 8.57789h 2.26772v -9.78138h 2.26772v 7.37387h 2.26772v 7.57475h 2.26772v -17.9254h 2.26772v 1.91821h
 2.26772v 10.8154h 2.26772v -6.48974h 2.26772v 0.0120899h 2.26772v 9.90075h 2.26772v 2.87632h 2.26772v -5.88785h 2.26772v -77.9694h 2.26772v 61.6056h 2.26772v 3.59994h 2.26772v 28.67h 2.26772v -5.06792h 2.26772v -9.39858h 2.26772v -8.07694h 2.26772v
 11.1832h 2.26772v -29.8704h 2.26772v 22.1825h 2.26772v 30.1897h 2.26772v -29.1422h 2.26772v 0.66504h 2.26772v 11.5536h 2.26772v -21.2501h 2.26772v 5.92348h 2.26772v -0.272596h 2.26772v -18.6068h 2.26772v 12.0805h 2.26772v -18.1284h 2.26772v 30.8577h
 2.26772v -11.1401h 2.26772v 11.5459h 2.26772v -8.1692h 2.26772v -1.63051h 2.26772v -14.7988h 2.26772v 22.1752h 2.26772v 0.42571h 2.26772v -2.44477h 2.26772v -16.6099h 2.26772v 13.8038h 2.26772v 1.28222h 2.26772v 2.59145h 2.26772v 0.343078h 2.26772v
 -10.9471h 2.26772v 17.9685h 2.26772v -10.8376h 2.26772v 2.92291h 2.26772v -4.38511h 2.26772v -7.7901h 2.26772v 3.27976h 2.26772v 9.99415h 2.26772v 3.7891h 2.26772v -10.7856h 2.26772v -3.28523h 2.26772v 7.44896h 2.26772v -9.24018h 2.26772v 3.33797h
 2.26772v -4.03863h 2.26772v 4.30924h 2.26772v 0.876881h 2.26772v -1.23581h 2.26772v -4.2226h 2.26772v 2.31013h 2.26772v -0.192215h 2.26772v 1.03909h 2.26772v 6.62393h 2.26772v -15.5967h 2.26772v 0.571326h 2.26772v 8.45597h 2.26772v -1.58508h
 2.26772v 8.19007h 2.26772v -5.24097h 2.26772v -5.68458h 2.26772v 2.22546h 2.26772v -0.75647h 2.26772v 5.26867h 2.26772v -6.56577h 2.26772v 3.36184h 2.26772v -2.09402h 2.26772v 2.26544h 2.26772v -3.11532h 2.26772v -0.450831h 2.26772v 2.1216h 2.26772v
 2.73944h 2.26772v -5.13336h 2.26772v -8.39282h 2.26772v -4.72505h 2.26772v -8.61388h 2.26772v 9.0142h 2.26772v 16.9204h 2.26772v 3.81252h 2.26772v 2.6109h 2.26772v -0.103519h 6.80315v -0.0781986h 2.26772v 0.0781986h 58.9606v -0.456355h 2.26772v
 0.456355h 38.5512" fill="none" stroke="#000099" stroke-width="2"/>
<path d="M57.1929,248.201h 453.543" fill="none" stroke="black"/>
<path d="M57.1929,241.583v 6.61871" fill="none" stroke="black"/>
<path d="M72.311,244.892v 3.30935" fill="none" stroke="black"/>
<path d="M87.4291,244.892v 3.30935" fill="none" stroke="black"/>
<path d="M102.547,244.892v 3.30935" fill="none" stroke="black"/>
<path d="M117.665,244.892v 3.30935" fill="none" stroke="black"/>
<path d="M132.783,241.583v 6.61871" fill="none" stroke="black"/>
<path d="M147.902,244.892v 3.30935" fill="none" stroke="black"/>
<path d="M163.02,244.892v 3.30935" fill="none" stroke="black"/>
<path d="M178.138,244.892v 3.30935" fill="none" stroke="black"/>
<path d="M193.256,244.892v 3.30935" fill="none" stroke="black"/>
<path d="M208.374,241.583v 6.61871" fill="none" stroke="black"/>
<path d="M223.492,244.892v 3.30935" fill="none" stroke="black"/>
<path d="M238.61,244.892v 3.30935" fill="none" stroke="black"/>
<path d="M253.728,244.892v 3.30935" fill="none" stroke="black"/>
<path d="M268.846,244.892v 3.30935" fill="none" stroke="black"/>
<path d="M283.965,241.583v 6.61871" fill="none" stroke="black"/>
<path d="M299.083,244.892v 3.30935" fill="none" stroke="black"/>
<path d="M314.201,244.892v 3.30935" fill="none" stroke="black"/>
<path d="M329.319,244.892v 3.30935" fill="none" stroke="black"/>
<path d="M344.437,244.892v 3.30935" fill="none" stroke="black"/>
<path d="M359.555,241.583v 6.61871" fill="none" stroke="black"/>
<path d="M374.673,244.892v 3.30935" fill="none" stroke="black"/>
<path d="M389.791,244.892v 3.30935" fill="none" stroke="black"/>
<path d="M404.909,244.892v 3.30935" fill="none" stroke="black"/>
<path d="M420.028,244.892v 3.30935" fill="none" stroke="black"/>
<path d="M435.146,241.583v 6.61871" fill="none" stroke="black"/>
<path d="M450.264,244.892v 3.30935" fill="none" stroke="black"/>
<path d="M465.382,244.892v 3.30935" fill="none" stroke="black"/>
<path d="M480.5,244.892v 3.30935" fill="none" stroke="black"/>
<path d="M495.618,244.892v 3.30935" fill="none" stroke="black"/>
<path d="M510.736,241.583v 6.61871" fill="none" stroke="black"/>
<text xml:space="preserve" x="53.4094" y="260.409" fill="black" font-size="13.1504" font-family="Helvetica">0</text>
<text xml:space="preserve" x="130.261" y="260.409" fill="black" font-size="13.1504" font-family="Helvetica">1</text>
<text xml:space="preserve" x="204.748" y="260.409" fill="black" font-size="13.1504" font-family="Helvetica">2</text>
<text xml:space="preserve" x="280.418" y="260.409" fill="black" font-size="13.1504" font-family="Helvetica">3</text>
<text xml:space="preserve" x="355.791" y="260.409" fill="black" font-size="13.1504" font-family="Helvetica">4</text>
<text xml:space="preserve" x="431.461" y="260.409" fill="black" font-size="13.1504" font-family="Helvetica">5</text>
<text xml:space="preserve" x="507.13" y="260.409" fill="black" font-size="13.1504" font-family="Helvetica">6</text>
<text xml:space="preserve" x="474.616" y="273.119" fill="black" font-size="13.1504" font-family="Helvetica"> [GeV]</text>
<text xml:space="preserve" x="464.271" y="276.962" fill="black" font-size="8.93362" font-family="Helvetica">cal</text>
<text xml:space="preserve" x="455.994" y="273.119" fill="black" font-size="13.1504" font-family="Helvetica">E</text>
<path d="M57.1929,248.201v -220.624" fill="none" stroke="black"/>
<path d="M70.7992,232.871h -13.6063" fill="none" stroke="black"/>
<path d="M63.9961,222.095h -6.80315" fill="none" stroke="black"/>
<path d="M63.9961,211.32h -6.80315" fill="none" stroke="black"/>
<path d="M63.9961,200.545h -6.80315" fill="none" stroke="black"/>
<path d="M70.7992,189.77h -13.6063" fill="none" stroke="black"/>
<path d="M63.9961,178.995h -6.80315" fill="none" stroke="black"/>
<path d="M63.9961,168.22h -6.80315" fill="none" stroke="black"/>
<path d="M63.9961,157.445h -6.80315" fill="none" stroke="black"/>
<path d="M70.7992,146.67h -13.6063" fill="none" stroke="black"/>
<path d="M63.9961,135.895h -6.80315" fill="none" stroke="black"/>
<path d="M63.9961,125.12h -6.80315" fill="none" stroke="black"/>
<path d="M63.9961,114.345h -6.80315" fill="none" stroke="black"/>
<path d="M70.7992,103.569h -13.6063" fill="none" stroke="black"/>
<path d="M63.9961,92.7943h -6.80315" fill="none" stroke="black"/>
<path d="M63.9961,82.0193h -6.80315" fill="none" stroke="black"/>
<path d="M63.9961,71.2442h -6.80315" fill="none" stroke="black"/>
<path d="M70.7992,60.4691h -13.6063" fill="none" stroke="black"/>
<path d="M70.7992,232.871h -13.6063" fill="none" stroke="black"/>
<path d="M63.9961,243.646h -6.80315" fill="none" stroke="black"/>
<path d="M70.7992,60.4691h -13.6063" fill="none" stroke="black"/>
<path d="M63.9961,49.694h -6.80315" fill="none" stroke="black"/>
<path d="M63.9961,38.9189h -6.80315" fill="none" stroke="black"/>
<path d="M63.9961,28.1438h -6.80315" fill="none" stroke="black"/>
<text xml:space="preserve" x="33.0142" y="237.354" fill="black" font-size="13.1504" font-family="Helvetica">200</text>
<text xml:space="preserve" x="25.9202" y="237.354" fill="black" font-size="13.1504" font-family="Times">&#8722;</text>
<text xml:space="preserve" x="47.4978" y="194.494" fill="black" font-size="13.1504" font-family="Helvetica">0</text>
<text xml:space="preserve" x="33.0142" y="151.339" fill="black" font-size="13.1504" font-family="Helvetica">200</text>
<text xml:space="preserve" x="33.0142" y="108.184" fill="black" font-size="13.1504" font-family="Helvetica">400</text>
<text xml:space="preserve" x="33.0142" y="65.0284" fill="black" font-size="13.1504" font-family="Helvetica">600</text>
<text xml:space="preserve" x="77.9429" y="19.8041" fill="black" font-size="8.93362" font-family="Helvetica">3</text>
<text xml:space="preserve" x="64.0505" y="26.0113" fill="black" font-size="13.1504" font-family="Helvetica">10</text>
<text xml:space="preserve" x="56.9564" y="26.0113" fill="black" font-size="13.1504" font-family="Times">&#0215;</text></svg>
