<?xml version="1.0" encoding="UTF-8" standalone="no"?>
<svg
   xmlns:dc="http://purl.org/dc/elements/1.1/"
   xmlns:cc="http://creativecommons.org/ns#"
   xmlns:rdf="http://www.w3.org/1999/02/22-rdf-syntax-ns#"
   xmlns:svg="http://www.w3.org/2000/svg"
   xmlns="http://www.w3.org/2000/svg"
   xmlns:sodipodi="http://sodipodi.sourceforge.net/DTD/sodipodi-0.dtd"
   xmlns:inkscape="http://www.inkscape.org/namespaces/inkscape"
   width="567.429"
   height="385.492"
   viewBox="0 0 567.429 385.492"
   shape-rendering="crispEdges"
   version="1.1"
   id="svg242"
   sodipodi:docname="56Fe_2261_pimi.svg"
   inkscape:export-filename="C:\Users\eggne\Documents\Thesis\56Fe_2261_pimi.png"
   inkscape:export-xdpi="96"
   inkscape:export-ydpi="96"
   inkscape:version="0.92.4 (5da689c313, 2019-01-14)">
  <metadata
     id="metadata246">
    <rdf:RDF>
      <cc:Work
         rdf:about="">
        <dc:format>image/svg+xml</dc:format>
        <dc:type
           rdf:resource="http://purl.org/dc/dcmitype/StillImage" />
      </cc:Work>
    </rdf:RDF>
  </metadata>
  <sodipodi:namedview
     pagecolor="#ffffff"
     bordercolor="#666666"
     borderopacity="1"
     objecttolerance="10"
     gridtolerance="10"
     guidetolerance="10"
     inkscape:pageopacity="0"
     inkscape:pageshadow="2"
     inkscape:window-width="1920"
     inkscape:window-height="1001"
     id="namedview244"
     showgrid="false"
     showguides="false"
     inkscape:zoom="1.6897916"
     inkscape:cx="255.49796"
     inkscape:cy="185.86789"
     inkscape:window-x="-9"
     inkscape:window-y="-9"
     inkscape:window-maximized="1"
     inkscape:current-layer="svg242" />
  <title
     id="title2">
/mnt/c/Users/eggne/Documents/01-18-19/56Fe_2261_pimi.svg
</title>
  <desc
     id="desc4">
Creator: ROOT Version 6.18/04
CreationDate: Thu Jan 16 13:08:39 2020</desc>
  <defs
     id="defs6" />
  <rect
     x="0.5"
     y="0"
     width="566.929"
     height="384.992"
     fill="white"
     id="rect8" />
  <rect
     x="57.1929"
     y="38.4992"
     width="453.543"
     height="307.994"
     fill="white"
     id="rect10" />
  <rect
     x="57.1929"
     y="38.4992"
     width="453.543"
     height="307.994"
     fill="none"
     stroke="black"
     id="rect12" />
  <rect
     x="57.1929"
     y="38.4992"
     width="453.543"
     height="307.994"
     id="rect14"
     fill="white" />
  <rect
     x="57.1929"
     y="38.4992"
     width="453.543"
     height="307.994"
     fill="none"
     stroke="black"
     id="rect16" />
  <path
     d="M57.1929,332.43h 97.1879v -0.118868h 3.23959v -0.241198h 3.23959v -0.497193h 3.23959v -2.83582h 3.23959v 0.584537h 3.23959v 2.06404h 3.23959v -5.23466h 3.23959v -1.35452h 3.23959v -1.88002h 3.23959v 1.02118h 3.23959v -3.3595h 3.23959v  7.90388h 3.23959v -6.9827h 3.23959v -4.96455h 3.23959v -0.137976h 3.23959v -2.17977h 3.23959v -2.34446h 3.23959v -17.3751h 3.23959v 15.9905h 3.23959v -10.0491h 3.23959v -1.05046h 3.23959v 2.9095h 3.23959v -8.85775h 3.23959v 10.0232h 3.23959v 1.5264h  3.23959v -15.1389h 3.23959v 4.90673h 3.23959v -16.9237h 3.23959v 2.80333h 3.23959v 0.736019h 3.23959v -1.82157h 3.23959v 6.83667h 3.23959v -6.45382h 3.23959v 23.0503h 3.23959v -41.7172h 3.23959v 9.88343h 3.23959v -2.51225h 3.23959v 2.6102h 3.23959v  -6.00108h 3.23959v -1.1388h 3.23959v 11.6131h 3.23959v -3.99352h 3.23959v 1.79717h 3.23959v -15.9362h 3.23959v 12.2945h 3.23959v -6.88266h 3.23959v -6.8106h 3.23959v -0.076973h 3.23959v 7.20638h 3.23959v -10.9779h 3.23959v 8.21543h 3.23959v  -7.07088h 3.23959v -6.81027h 3.23959v -24.8145h 3.23959v 17.5761h 3.23959v -5.35207h 3.23959v -15.4489h 3.23959v -19.3169h 3.23959v -63.1809h 3.23959v -82.9741h 3.23959v 172.204h 3.23959v 99.6293h 3.23959v 5.23659h 3.23959v 1.65822h 3.23959v 0.5362h  3.23959v -0.284645h 3.23959v -0.134424h 3.23959v 0.419069h 106.907v 0.0945895h 3.23959v -0.0945895h 29.1564"
     fill="none"
     stroke="#000099"
     stroke-width="3"
     id="path18" />
  <path
     d="M57.1929,346.493h 453.543"
     fill="none"
     stroke="black"
     id="path20" />
  <path
     d="M57.1929,337.253v 9.23981"
     fill="none"
     stroke="black"
     id="path22" />
  <path
     d="M70.1513,341.873v 4.6199"
     fill="none"
     stroke="black"
     id="path24" />
  <path
     d="M83.1097,341.873v 4.6199"
     fill="none"
     stroke="black"
     id="path26" />
  <path
     d="M96.0681,341.873v 4.6199"
     fill="none"
     stroke="black"
     id="path28" />
  <path
     d="M109.026,341.873v 4.6199"
     fill="none"
     stroke="black"
     id="path30" />
  <path
     d="M121.985,337.253v 9.23981"
     fill="none"
     stroke="black"
     id="path32" />
  <path
     d="M134.943,341.873v 4.6199"
     fill="none"
     stroke="black"
     id="path34" />
  <path
     d="M147.902,341.873v 4.6199"
     fill="none"
     stroke="black"
     id="path36" />
  <path
     d="M160.86,341.873v 4.6199"
     fill="none"
     stroke="black"
     id="path38" />
  <path
     d="M173.818,341.873v 4.6199"
     fill="none"
     stroke="black"
     id="path40" />
  <path
     d="M186.777,337.253v 9.23981"
     fill="none"
     stroke="black"
     id="path42" />
  <path
     d="M199.735,341.873v 4.6199"
     fill="none"
     stroke="black"
     id="path44" />
  <path
     d="M212.693,341.873v 4.6199"
     fill="none"
     stroke="black"
     id="path46" />
  <path
     d="M225.652,341.873v 4.6199"
     fill="none"
     stroke="black"
     id="path48" />
  <path
     d="M238.61,341.873v 4.6199"
     fill="none"
     stroke="black"
     id="path50" />
  <path
     d="M251.569,337.253v 9.23981"
     fill="none"
     stroke="black"
     id="path52" />
  <path
     d="M264.527,341.873v 4.6199"
     fill="none"
     stroke="black"
     id="path54" />
  <path
     d="M277.485,341.873v 4.6199"
     fill="none"
     stroke="black"
     id="path56" />
  <path
     d="M290.444,341.873v 4.6199"
     fill="none"
     stroke="black"
     id="path58" />
  <path
     d="M303.402,341.873v 4.6199"
     fill="none"
     stroke="black"
     id="path60" />
  <path
     d="M316.361,337.253v 9.23981"
     fill="none"
     stroke="black"
     id="path62" />
  <path
     d="M329.319,341.873v 4.6199"
     fill="none"
     stroke="black"
     id="path64" />
  <path
     d="M342.277,341.873v 4.6199"
     fill="none"
     stroke="black"
     id="path66" />
  <path
     d="M355.236,341.873v 4.6199"
     fill="none"
     stroke="black"
     id="path68" />
  <path
     d="M368.194,341.873v 4.6199"
     fill="none"
     stroke="black"
     id="path70" />
  <path
     d="M381.152,337.253v 9.23981"
     fill="none"
     stroke="black"
     id="path72" />
  <path
     d="M394.111,341.873v 4.6199"
     fill="none"
     stroke="black"
     id="path74" />
  <path
     d="M407.069,341.873v 4.6199"
     fill="none"
     stroke="black"
     id="path76" />
  <path
     d="M420.028,341.873v 4.6199"
     fill="none"
     stroke="black"
     id="path78" />
  <path
     d="M432.986,341.873v 4.6199"
     fill="none"
     stroke="black"
     id="path80" />
  <path
     d="M445.944,337.253v 9.23981"
     fill="none"
     stroke="black"
     id="path82" />
  <path
     d="M458.903,341.873v 4.6199"
     fill="none"
     stroke="black"
     id="path84" />
  <path
     d="M471.861,341.873v 4.6199"
     fill="none"
     stroke="black"
     id="path86" />
  <path
     d="M484.819,341.873v 4.6199"
     fill="none"
     stroke="black"
     id="path88" />
  <path
     d="M497.778,341.873v 4.6199"
     fill="none"
     stroke="black"
     id="path90" />
  <path
     d="M510.736,337.253v 9.23981"
     fill="none"
     stroke="black"
     id="path92" />
  <text
     xml:space="preserve"
     x="51.6698"
     y="363.062"
     fill="black"
     font-size="18.1602"
     font-family="Helvetica"
     id="text94">0</text>
  <text
     xml:space="preserve"
     x="109.337"
     y="363.062"
     fill="black"
     font-size="18.1602"
     font-family="Helvetica"
     id="text96">0.5</text>
  <text
     xml:space="preserve"
     x="183.249"
     y="363.062"
     fill="black"
     font-size="18.1602"
     font-family="Helvetica"
     id="text98">1</text>
  <text
     xml:space="preserve"
     x="239.292"
     y="363.062"
     fill="black"
     font-size="18.1602"
     font-family="Helvetica"
     id="text100">1.5</text>
  <text
     xml:space="preserve"
     x="310.768"
     y="363.062"
     fill="black"
     font-size="18.1602"
     font-family="Helvetica"
     id="text102">2</text>
  <text
     xml:space="preserve"
     x="368.435"
     y="363.062"
     fill="black"
     font-size="18.1602"
     font-family="Helvetica"
     id="text104">2.5</text>
  <text
     xml:space="preserve"
     x="440.723"
     y="363.062"
     fill="black"
     font-size="18.1602"
     font-family="Helvetica"
     id="text106">3</text>
  <text
     xml:space="preserve"
     x="498.39"
     y="363.062"
     fill="black"
     font-size="18.1602"
     font-family="Helvetica"
     id="text108">3.5</text>
  <text
     xml:space="preserve"
     x="448.845"
     y="382.555"
     fill="black"
     font-size="18.1602"
     font-family="Helvetica"
     id="text110">E [GeV]</text>
  <path
     d="M57.1929,346.493v -307.994"
     fill="none"
     stroke="black"
     id="path112" />
  <path
     d="M70.7992,332.43h -13.6063"
     fill="none"
     stroke="black"
     id="path114" />
  <path
     d="M63.9961,325.986h -6.80315"
     fill="none"
     stroke="black"
     id="path116" />
  <path
     d="M63.9961,319.542h -6.80315"
     fill="none"
     stroke="black"
     id="path118" />
  <path
     d="M63.9961,313.098h -6.80315"
     fill="none"
     stroke="black"
     id="path120" />
  <path
     d="M63.9961,306.653h -6.80315"
     fill="none"
     stroke="black"
     id="path122" />
  <path
     d="M70.7992,300.209h -13.6063"
     fill="none"
     stroke="black"
     id="path124" />
  <path
     d="M63.9961,293.765h -6.80315"
     fill="none"
     stroke="black"
     id="path126" />
  <path
     d="M63.9961,287.321h -6.80315"
     fill="none"
     stroke="black"
     id="path128" />
  <path
     d="M63.9961,280.877h -6.80315"
     fill="none"
     stroke="black"
     id="path130" />
  <path
     d="M63.9961,274.432h -6.80315"
     fill="none"
     stroke="black"
     id="path132" />
  <path
     d="M70.7992,267.988h -13.6063"
     fill="none"
     stroke="black"
     id="path134" />
  <path
     d="M63.9961,261.544h -6.80315"
     fill="none"
     stroke="black"
     id="path136" />
  <path
     d="M63.9961,255.1h -6.80315"
     fill="none"
     stroke="black"
     id="path138" />
  <path
     d="M63.9961,248.656h -6.80315"
     fill="none"
     stroke="black"
     id="path140" />
  <path
     d="M63.9961,242.211h -6.80315"
     fill="none"
     stroke="black"
     id="path142" />
  <path
     d="M70.7992,235.767h -13.6063"
     fill="none"
     stroke="black"
     id="path144" />
  <path
     d="M63.9961,229.323h -6.80315"
     fill="none"
     stroke="black"
     id="path146" />
  <path
     d="M63.9961,222.879h -6.80315"
     fill="none"
     stroke="black"
     id="path148" />
  <path
     d="M63.9961,216.435h -6.80315"
     fill="none"
     stroke="black"
     id="path150" />
  <path
     d="M63.9961,209.99h -6.80315"
     fill="none"
     stroke="black"
     id="path152" />
  <path
     d="M70.7992,203.546h -13.6063"
     fill="none"
     stroke="black"
     id="path154" />
  <path
     d="M63.9961,197.102h -6.80315"
     fill="none"
     stroke="black"
     id="path156" />
  <path
     d="M63.9961,190.658h -6.80315"
     fill="none"
     stroke="black"
     id="path158" />
  <path
     d="M63.9961,184.214h -6.80315"
     fill="none"
     stroke="black"
     id="path160" />
  <path
     d="M63.9961,177.769h -6.80315"
     fill="none"
     stroke="black"
     id="path162" />
  <path
     d="M70.7992,171.325h -13.6063"
     fill="none"
     stroke="black"
     id="path164" />
  <path
     d="M63.9961,164.881h -6.80315"
     fill="none"
     stroke="black"
     id="path166" />
  <path
     d="M63.9961,158.437h -6.80315"
     fill="none"
     stroke="black"
     id="path168" />
  <path
     d="M63.9961,151.993h -6.80315"
     fill="none"
     stroke="black"
     id="path170" />
  <path
     d="M63.9961,145.548h -6.80315"
     fill="none"
     stroke="black"
     id="path172" />
  <path
     d="M70.7992,139.104h -13.6063"
     fill="none"
     stroke="black"
     id="path174" />
  <path
     d="M63.9961,132.66h -6.80315"
     fill="none"
     stroke="black"
     id="path176" />
  <path
     d="M63.9961,126.216h -6.80315"
     fill="none"
     stroke="black"
     id="path178" />
  <path
     d="M63.9961,119.771h -6.80315"
     fill="none"
     stroke="black"
     id="path180" />
  <path
     d="M63.9961,113.327h -6.80315"
     fill="none"
     stroke="black"
     id="path182" />
  <path
     d="M70.7992,106.883h -13.6063"
     fill="none"
     stroke="black"
     id="path184" />
  <path
     d="M63.9961,100.439h -6.80315"
     fill="none"
     stroke="black"
     id="path186" />
  <path
     d="M63.9961,93.9947h -6.80315"
     fill="none"
     stroke="black"
     id="path188" />
  <path
     d="M63.9961,87.5505h -6.80315"
     fill="none"
     stroke="black"
     id="path190" />
  <path
     d="M63.9961,81.1063h -6.80315"
     fill="none"
     stroke="black"
     id="path192" />
  <path
     d="M70.7992,74.6621h -13.6063"
     fill="none"
     stroke="black"
     id="path194" />
  <path
     d="M63.9961,68.2179h -6.80315"
     fill="none"
     stroke="black"
     id="path196" />
  <path
     d="M63.9961,61.7737h -6.80315"
     fill="none"
     stroke="black"
     id="path198" />
  <path
     d="M63.9961,55.3294h -6.80315"
     fill="none"
     stroke="black"
     id="path200" />
  <path
     d="M63.9961,48.8852h -6.80315"
     fill="none"
     stroke="black"
     id="path202" />
  <path
     d="M70.7992,42.441h -13.6063"
     fill="none"
     stroke="black"
     id="path204" />
  <path
     d="M70.7992,332.43h -13.6063"
     fill="none"
     stroke="black"
     id="path206" />
  <path
     d="M63.9961,338.874h -6.80315"
     fill="none"
     stroke="black"
     id="path208" />
  <path
     d="M63.9961,345.319h -6.80315"
     fill="none"
     stroke="black"
     id="path210" />
  <path
     d="M70.7992,42.441h -13.6063"
     fill="none"
     stroke="black"
     id="path212" />
  <text
     xml:space="preserve"
     x="44.3598"
     y="338.695"
     fill="black"
     font-size="18.1602"
     font-family="Helvetica"
     id="text214">0</text>
  <text
     xml:space="preserve"
     x="24.8666"
     y="306.207"
     fill="black"
     font-size="18.1602"
     font-family="Helvetica"
     id="text216">100</text>
  <text
     xml:space="preserve"
     x="24.8666"
     y="273.718"
     fill="black"
     font-size="18.1602"
     font-family="Helvetica"
     id="text218">200</text>
  <text
     xml:space="preserve"
     x="24.8666"
     y="242.041"
     fill="black"
     font-size="18.1602"
     font-family="Helvetica"
     id="text220">300</text>
  <text
     xml:space="preserve"
     x="24.8666"
     y="209.553"
     fill="black"
     font-size="18.1602"
     font-family="Helvetica"
     id="text222">400</text>
  <text
     xml:space="preserve"
     x="24.8666"
     y="177.064"
     fill="black"
     font-size="18.1602"
     font-family="Helvetica"
     id="text224">500</text>
  <text
     xml:space="preserve"
     x="24.8666"
     y="145.387"
     fill="black"
     font-size="18.1602"
     font-family="Helvetica"
     id="text226">600</text>
  <text
     xml:space="preserve"
     x="24.8666"
     y="112.898"
     fill="black"
     font-size="18.1602"
     font-family="Helvetica"
     id="text228">700</text>
  <text
     xml:space="preserve"
     x="24.8666"
     y="80.4097"
     fill="black"
     font-size="18.1602"
     font-family="Helvetica"
     id="text230">800</text>
  <text
     xml:space="preserve"
     x="24.8666"
     y="48.7332"
     fill="black"
     font-size="18.1602"
     font-family="Helvetica"
     id="text232">900</text>
  <text
     xml:space="preserve"
     x="85.783"
     y="27.6155"
     fill="black"
     font-size="12.2735"
     font-family="Helvetica"
     id="text234">3</text>
  <text
     xml:space="preserve"
     x="66.2898"
     y="36.5499"
     fill="black"
     font-size="18.1602"
     font-family="Helvetica"
     id="text236">10</text>
  <text
     xml:space="preserve"
     x="56.5431"
     y="36.5499"
     fill="black"
     font-size="18.1602"
     font-family="Times"
     id="text238">×</text>
  <path
     d="M57.1929,332.43h 129.584v -0.434654h 3.23959v 1.18031h 3.23959v -3.42261h 3.23959v 4.66053h 3.23959v 0.696518h 3.23959v -4.06405h 3.23959v 3.9434h 3.23959v -3.07389h 3.23959v -27.3516h 3.23959v 24.6934h 3.23959v -18.7004h 3.23959v 21.3249h  3.23959v -7.66338h 3.23959v -25.9995h 3.23959v 13.0923h 3.23959v -17.2287h 3.23959v 10.5582h 3.23959v -2.11864h 3.23959v -0.107064h 3.23959v 40.7447h 3.23959v -31.6162h 3.23959v -36.3124h 3.23959v 5.11631h 3.23959v -13.5696h 3.23959v 14.5148h  3.23959v 11.5462h 3.23959v -5.5949h 3.23959v 4.66187h 3.23959v -25.1574h 3.23959v 40.8648h 3.23959v -34.6782h 3.23959v 36.661h 3.23959v -34.8897h 3.23959v -1.27167h 3.23959v -3.98682h 3.23959v -1.27985h 3.23959v 11.4495h 3.23959v -1.56402h 3.23959v  -13.6272h 3.23959v 8.66577h 3.23959v -13.4334h 3.23959v 11.4546h 3.23959v -5.97502h 3.23959v 7.07257h 3.23959v -14.9712h 3.23959v 1.89233h 3.23959v 10.7794h 3.23959v 33.9752h 3.23959v -37.8766h 3.23959v 5.15012h 3.23959v 5.40202h 3.23959v 1.12932h  3.23959v 3.33167h 3.23959v 6.08634h 3.23959v -14.953h 3.23959v 6.55289h 3.23959v 3.98236h 3.23959v -7.00307h 3.23959v 14.8762h 3.23959v 10.7592h 3.23959v 7.86765h 3.23959v -5.42633h 3.23959v 11.2496h 3.23959v 1.76386h 3.23959v -16.8623h 3.23959v  21.8762h 3.23959v -2.73315h 3.23959v 3.76479h 3.23959v -3.89072h 3.23959v 4.27988h 3.23959v -1.12289h 3.23959v -1.10356h 3.23959v 2.0696h 3.23959v 6.30722h 3.23959v -5.94928h 3.23959v 7.64408h 3.23959v -4.73855h 3.23959v 0.41914h 3.23959v 0.7086h  3.23959v 3.50988h 3.23959v -2.35405h 3.23959v -3.57768h 3.23959v 5.48304h 3.23959v 1.07481h 3.23959v -2.53892h 3.23959v 3.38485h 3.23959v -0.199091h 3.23959v -3.39605h 3.23959v 1.66913h 3.23959v 1.04653h 3.23959v -2.20714h 3.23959v 3.08662h 6.47919v  -0.949075h 3.23959v 0.949075h 19.4376"
     fill="none"
     stroke="black"
     stroke-width="3"
     id="path240" />
  <text
     xml:space="preserve"
     style="font-style:normal;font-weight:normal;font-size:40px;line-height:1.25;font-family:sans-serif;letter-spacing:0px;word-spacing:0px;fill:#000000;fill-opacity:1;stroke:none"
     x="66.280365"
     y="100.84152"
     id="text316"><tspan
       sodipodi:role="line"
       id="tspan314"
       x="66.280365"
       y="100.84152"
       style="font-size:26.66666603px"><tspan
   style="font-size:65%;baseline-shift:super"
   id="tspan322">56</tspan>Fe @ 2.2 GeV: <tspan
   style="font-style:normal;font-variant:normal;font-weight:normal;font-stretch:normal;font-size:26.66666603px;font-family:'Times New Roman';-inkscape-font-specification:'Times New Roman, '"
   id="tspan318">π<tspan
   style="font-size:26.66666603px;baseline-shift:super"
   id="tspan320">-</tspan></tspan></tspan></text>
  <text
     xml:space="preserve"
     style="font-style:normal;font-weight:normal;font-size:26.66666603px;line-height:1.25;font-family:sans-serif;letter-spacing:0px;word-spacing:0px;fill:#000099;fill-opacity:1;stroke:none"
     x="166.88448"
     y="212.68964"
     id="text326"><tspan
       sodipodi:role="line"
       id="tspan324"
       x="166.88448"
       y="212.68964">Calorimetric</tspan></text>
  <text
     xml:space="preserve"
     style="font-style:normal;font-weight:normal;font-size:26.66666603px;line-height:1.25;font-family:sans-serif;letter-spacing:0px;word-spacing:0px;fill:#000000;fill-opacity:1;stroke:none"
     x="376.96954"
     y="286.07147"
     id="text330"><tspan
       sodipodi:role="line"
       id="tspan328"
       x="376.96954"
       y="286.07147">Kinematic</tspan></text>
</svg>
