<?xml version="1.0" standalone="no"?>
<svg width="567.429" height="384.68" viewBox="0 0 567.429 384.68" xmlns="http://www.w3.org/2000/svg" shape-rendering="crispEdges">
<title>
/u/home/ltracy/Root_work/01-18-19/56Fe_2261.svg
</title>
<desc>
Creator: ROOT Version 6.10/02
CreationDate: Mon Nov  4 10:00:31 2019</desc>
<defs>
</defs>
<rect x="0.5" y="0" width="566.929" height="384.18" fill="white"/>
<rect x="57.1929" y="38.418" width="453.543" height="307.344" fill="white"/>
<rect x="57.1929" y="38.418" width="453.543" height="307.344" fill="none" stroke="black"/>
<rect x="57.1929" y="38.418" width="453.543" height="307.344" fill="white"/>
<rect x="57.1929" y="38.418" width="453.543" height="307.344" fill="none" stroke="black"/>
<path d="M57.1929,345.762h 99.7152v -0.441999h 3.21662v -0.301492h 3.21662v -2.59969h 3.21662v -1.27217h 3.21662v -3.48204h 3.21662v -6.13025h 3.21662v -2.06939h 3.21662v -5.13905h 3.21662v -2.04221h 3.21662v -7.98579h 3.21662v -6.54157h 3.21662v
 -6.79652h 3.21662v -3.36813h 3.21662v -8.78605h 3.21662v -1.82078h 3.21662v -9.45049h 3.21662v -11.9593h 3.21662v 14.5474h 3.21662v -14.3029h 3.21662v -7.35423h 3.21662v 0.798706h 3.21662v -6.48862h 3.21662v -0.859651h 3.21662v -2.4844h 3.21662v
 -11.3727h 3.21662v 7.34152h 3.21662v -5.66148h 3.21662v -3.24736h 3.21662v -8.37928h 3.21662v 2.33669h 3.21662v 2.27591h 3.21662v -8.96101h 3.21662v 10.0798h 3.21662v -17.1669h 3.21662v 4.20371h 3.21662v 5.56367h 3.21662v -0.629362h 3.21662v
 -3.78981h 3.21662v 0.768715h 3.21662v 12.0556h 3.21662v -0.102952h 3.21662v -5.34911h 3.21662v -4.72896h 3.21662v 13.8336h 3.21662v 4.88062h 3.21662v -8.62877h 3.21662v 5.9691h 3.21662v 2.8252h 3.21662v -3.49495h 3.21662v 3.43157h 3.21662v 4.99468h
 3.21662v -0.807542h 3.21662v -21.6805h 3.21662v 20.3633h 3.21662v -5.63122h 3.21662v -13.6964h 3.21662v -17.2383h 3.21662v -66.815h 3.21662v -89.9198h 3.21662v 178.95h 3.21662v 106.299h 3.21662v 5.32012h 3.21662v 1.61672h 3.21662v 0.52278h 3.21662v
 -0.277521h 3.21662v -0.13106h 3.21662v 0.408581h 141.531" fill="none" stroke="#000099" stroke-width="5"/>
<path d="M57.1929,345.762h 453.543" fill="none" stroke="black"/>
<path d="M57.1929,336.541v 9.22031" fill="none" stroke="black"/>
<path d="M70.0594,341.152v 4.61016" fill="none" stroke="black"/>
<path d="M82.9259,341.152v 4.61016" fill="none" stroke="black"/>
<path d="M95.7923,341.152v 4.61016" fill="none" stroke="black"/>
<path d="M108.659,341.152v 4.61016" fill="none" stroke="black"/>
<path d="M121.525,336.541v 9.22031" fill="none" stroke="black"/>
<path d="M134.392,341.152v 4.61016" fill="none" stroke="black"/>
<path d="M147.258,341.152v 4.61016" fill="none" stroke="black"/>
<path d="M160.125,341.152v 4.61016" fill="none" stroke="black"/>
<path d="M172.991,341.152v 4.61016" fill="none" stroke="black"/>
<path d="M185.858,336.541v 9.22031" fill="none" stroke="black"/>
<path d="M198.724,341.152v 4.61016" fill="none" stroke="black"/>
<path d="M211.591,341.152v 4.61016" fill="none" stroke="black"/>
<path d="M224.457,341.152v 4.61016" fill="none" stroke="black"/>
<path d="M237.324,341.152v 4.61016" fill="none" stroke="black"/>
<path d="M250.19,336.541v 9.22031" fill="none" stroke="black"/>
<path d="M263.057,341.152v 4.61016" fill="none" stroke="black"/>
<path d="M275.923,341.152v 4.61016" fill="none" stroke="black"/>
<path d="M288.789,341.152v 4.61016" fill="none" stroke="black"/>
<path d="M301.656,341.152v 4.61016" fill="none" stroke="black"/>
<path d="M314.522,336.541v 9.22031" fill="none" stroke="black"/>
<path d="M327.389,341.152v 4.61016" fill="none" stroke="black"/>
<path d="M340.255,341.152v 4.61016" fill="none" stroke="black"/>
<path d="M353.122,341.152v 4.61016" fill="none" stroke="black"/>
<path d="M365.988,341.152v 4.61016" fill="none" stroke="black"/>
<path d="M378.855,336.541v 9.22031" fill="none" stroke="black"/>
<path d="M391.721,341.152v 4.61016" fill="none" stroke="black"/>
<path d="M404.588,341.152v 4.61016" fill="none" stroke="black"/>
<path d="M417.454,341.152v 4.61016" fill="none" stroke="black"/>
<path d="M430.321,341.152v 4.61016" fill="none" stroke="black"/>
<path d="M443.187,336.541v 9.22031" fill="none" stroke="black"/>
<path d="M456.054,341.152v 4.61016" fill="none" stroke="black"/>
<path d="M468.92,341.152v 4.61016" fill="none" stroke="black"/>
<path d="M481.787,341.152v 4.61016" fill="none" stroke="black"/>
<path d="M494.653,341.152v 4.61016" fill="none" stroke="black"/>
<path d="M507.52,336.541v 9.22031" fill="none" stroke="black"/>
<path d="M507.52,336.541v 9.22031" fill="none" stroke="black"/>
<text xml:space="preserve" x="51.6698" y="362.25" fill="black" font-size="18.1229" font-family="Helvetica">0</text>
<text xml:space="preserve" x="109.337" y="362.25" fill="black" font-size="18.1229" font-family="Helvetica">0.5</text>
<text xml:space="preserve" x="182.437" y="362.25" fill="black" font-size="18.1229" font-family="Helvetica">1</text>
<text xml:space="preserve" x="237.668" y="362.25" fill="black" font-size="18.1229" font-family="Helvetica">1.5</text>
<text xml:space="preserve" x="309.143" y="362.25" fill="black" font-size="18.1229" font-family="Helvetica">2</text>
<text xml:space="preserve" x="365.999" y="362.25" fill="black" font-size="18.1229" font-family="Helvetica">2.5</text>
<text xml:space="preserve" x="438.286" y="362.25" fill="black" font-size="18.1229" font-family="Helvetica">3</text>
<text xml:space="preserve" x="495.142" y="362.25" fill="black" font-size="18.1229" font-family="Helvetica">3.5</text>
<path d="M57.1929,345.762v -307.344" fill="none" stroke="black"/>
<path d="M70.7992,345.762h -13.6063" fill="none" stroke="black"/>
<path d="M63.9961,339.479h -6.80315" fill="none" stroke="black"/>
<path d="M63.9961,333.196h -6.80315" fill="none" stroke="black"/>
<path d="M63.9961,326.913h -6.80315" fill="none" stroke="black"/>
<path d="M63.9961,320.63h -6.80315" fill="none" stroke="black"/>
<path d="M70.7992,314.347h -13.6063" fill="none" stroke="black"/>
<path d="M63.9961,308.064h -6.80315" fill="none" stroke="black"/>
<path d="M63.9961,301.781h -6.80315" fill="none" stroke="black"/>
<path d="M63.9961,295.498h -6.80315" fill="none" stroke="black"/>
<path d="M63.9961,289.216h -6.80315" fill="none" stroke="black"/>
<path d="M70.7992,282.933h -13.6063" fill="none" stroke="black"/>
<path d="M63.9961,276.65h -6.80315" fill="none" stroke="black"/>
<path d="M63.9961,270.367h -6.80315" fill="none" stroke="black"/>
<path d="M63.9961,264.084h -6.80315" fill="none" stroke="black"/>
<path d="M63.9961,257.801h -6.80315" fill="none" stroke="black"/>
<path d="M70.7992,251.518h -13.6063" fill="none" stroke="black"/>
<path d="M63.9961,245.235h -6.80315" fill="none" stroke="black"/>
<path d="M63.9961,238.952h -6.80315" fill="none" stroke="black"/>
<path d="M63.9961,232.669h -6.80315" fill="none" stroke="black"/>
<path d="M63.9961,226.386h -6.80315" fill="none" stroke="black"/>
<path d="M70.7992,220.103h -13.6063" fill="none" stroke="black"/>
<path d="M63.9961,213.82h -6.80315" fill="none" stroke="black"/>
<path d="M63.9961,207.538h -6.80315" fill="none" stroke="black"/>
<path d="M63.9961,201.255h -6.80315" fill="none" stroke="black"/>
<path d="M63.9961,194.972h -6.80315" fill="none" stroke="black"/>
<path d="M70.7992,188.689h -13.6063" fill="none" stroke="black"/>
<path d="M63.9961,182.406h -6.80315" fill="none" stroke="black"/>
<path d="M63.9961,176.123h -6.80315" fill="none" stroke="black"/>
<path d="M63.9961,169.84h -6.80315" fill="none" stroke="black"/>
<path d="M63.9961,163.557h -6.80315" fill="none" stroke="black"/>
<path d="M70.7992,157.274h -13.6063" fill="none" stroke="black"/>
<path d="M63.9961,150.991h -6.80315" fill="none" stroke="black"/>
<path d="M63.9961,144.708h -6.80315" fill="none" stroke="black"/>
<path d="M63.9961,138.425h -6.80315" fill="none" stroke="black"/>
<path d="M63.9961,132.143h -6.80315" fill="none" stroke="black"/>
<path d="M70.7992,125.86h -13.6063" fill="none" stroke="black"/>
<path d="M63.9961,119.577h -6.80315" fill="none" stroke="black"/>
<path d="M63.9961,113.294h -6.80315" fill="none" stroke="black"/>
<path d="M63.9961,107.011h -6.80315" fill="none" stroke="black"/>
<path d="M63.9961,100.728h -6.80315" fill="none" stroke="black"/>
<path d="M70.7992,94.445h -13.6063" fill="none" stroke="black"/>
<path d="M63.9961,88.1621h -6.80315" fill="none" stroke="black"/>
<path d="M63.9961,81.8792h -6.80315" fill="none" stroke="black"/>
<path d="M63.9961,75.5962h -6.80315" fill="none" stroke="black"/>
<path d="M63.9961,69.3133h -6.80315" fill="none" stroke="black"/>
<path d="M70.7992,63.0304h -13.6063" fill="none" stroke="black"/>
<path d="M70.7992,63.0304h -13.6063" fill="none" stroke="black"/>
<path d="M63.9961,56.7475h -6.80315" fill="none" stroke="black"/>
<path d="M63.9961,50.4646h -6.80315" fill="none" stroke="black"/>
<path d="M63.9961,44.1816h -6.80315" fill="none" stroke="black"/>
<text xml:space="preserve" x="44.3598" y="351.691" fill="black" font-size="18.1229" font-family="Helvetica">0</text>
<text xml:space="preserve" x="24.8666" y="320.827" fill="black" font-size="18.1229" font-family="Helvetica">100</text>
<text xml:space="preserve" x="24.8666" y="289.15" fill="black" font-size="18.1229" font-family="Helvetica">200</text>
<text xml:space="preserve" x="24.8666" y="257.474" fill="black" font-size="18.1229" font-family="Helvetica">300</text>
<text xml:space="preserve" x="24.8666" y="225.797" fill="black" font-size="18.1229" font-family="Helvetica">400</text>
<text xml:space="preserve" x="24.8666" y="194.933" fill="black" font-size="18.1229" font-family="Helvetica">500</text>
<text xml:space="preserve" x="24.8666" y="163.256" fill="black" font-size="18.1229" font-family="Helvetica">600</text>
<text xml:space="preserve" x="24.8666" y="131.58" fill="black" font-size="18.1229" font-family="Helvetica">700</text>
<text xml:space="preserve" x="24.8666" y="100.715" fill="black" font-size="18.1229" font-family="Helvetica">800</text>
<text xml:space="preserve" x="24.8666" y="69.0387" fill="black" font-size="18.1229" font-family="Helvetica">900</text>
<text xml:space="preserve" x="85.783" y="26.8032" fill="black" font-size="12.2486" font-family="Helvetica">3</text>
<text xml:space="preserve" x="66.2898" y="35.7377" fill="black" font-size="18.1229" font-family="Helvetica">10</text>
<text xml:space="preserve" x="56.5431" y="35.7377" fill="black" font-size="18.1229" font-family="Times">&#0215;</text>
<path d="M57.1929,345.762h 96.4986v -0.115893h 3.21662v -0.235161h 3.21662v -0.48475h 3.21662v -2.76485h 3.21662v 0.569907h 3.21662v 2.01238h 3.21662v -5.10365h 3.21662v -1.32062h 3.21662v -1.83297h 3.21662v 0.99562h 3.21662v -3.27542h 3.21662v
 7.70607h 3.21662v -6.80794h 3.21662v -4.8403h 3.21662v -0.134523h 3.21662v -2.12522h 3.21662v -2.28578h 3.21662v -16.9403h 3.21662v 15.5903h 3.21662v -9.79758h 3.21662v -1.02417h 3.21662v 2.83668h 3.21662v -8.63606h 3.21662v 9.77238h 3.21662v
 1.4882h 3.21662v -14.76h 3.21662v 4.78393h 3.21662v -16.5002h 3.21662v 2.73317h 3.21662v 0.717598h 3.21662v -1.77598h 3.21662v 6.66556h 3.21662v -6.29229h 3.21662v 22.4734h 3.21662v -40.6731h 3.21662v 9.63607h 3.21662v -2.44937h 3.21662v 2.54488h
 3.21662v -5.85089h 3.21662v -1.1103h 3.21662v 11.3224h 3.21662v -3.89357h 3.21662v 1.75219h 3.21662v -15.5373h 3.21662v 11.9868h 3.21662v -6.7104h 3.21662v -6.64014h 3.21662v -0.0750465h 3.21662v 7.02602h 3.21662v -10.7031h 3.21662v 8.00982h
 3.21662v -6.89391h 3.21662v -6.63982h 3.21662v -24.1934h 3.21662v 17.1362h 3.21662v -5.21812h 3.21662v -15.0622h 3.21662v -18.8334h 3.21662v -61.5996h 3.21662v -80.8974h 3.21662v 167.894h 3.21662v 97.1358h 3.21662v 5.10553h 3.21662v 1.61672h
 3.21662v 0.52278h 3.21662v -0.277521h 3.21662v -0.13106h 3.21662v 0.408581h 141.531" fill="none" stroke="black" stroke-width="5"/></svg>
