<?xml version="1.0" standalone="no"?>
<svg width="567.429" height="345.675" viewBox="0 0 567.429 345.675" xmlns="http://www.w3.org/2000/svg" shape-rendering="crispEdges">
<title>
56Fe_4461_pimi.svg
</title>
<desc>
Creator: ROOT Version 6.18/04
CreationDate: Tue Mar  3 09:23:33 2020</desc>
<defs>
</defs>
<rect x="0.5" y="0" width="566.929" height="345.175" fill="white"/>
<rect x="57.1929" y="34.5175" width="453.543" height="276.14" fill="white"/>
<rect x="57.1929" y="34.5175" width="453.543" height="276.14" fill="none" stroke="black"/>
<path d="M57.1929,310.657h 88.9301v -0.244163h 17.786v -4.40699h 17.786v -4.78249h 17.786v -3.71315h 17.786v -22.734h 17.786v 10.4916h 17.786v -59.8772h 17.786v 39.0298h 17.786v 14.5347h 17.786v 0.6964h 17.786v 0.805901h 17.786v -45.616h 17.786v
 2.98435h 17.786v -8.54453h 17.786v 3.48983h 17.786v 2.14715h 17.786v -13.5491h 4.4465v 17.1648h 4.4465v -1.4566h 4.4465v -77.239h 4.4465v -112.171h 4.4465v 162.254h 4.4465v 88.4855h 4.4465v 12.2511h 8.89301v -0.380121h 4.4465v 0.380121h 31.1255v
 -0.110916h 11.8183" fill="none" stroke="#000099" stroke-width="3"/>
<path d="M57.1929,310.657h 453.543" fill="none" stroke="black"/>
<path d="M57.1929,302.373v 8.28419" fill="none" stroke="black"/>
<path d="M74.9789,306.515v 4.14209" fill="none" stroke="black"/>
<path d="M92.7649,306.515v 4.14209" fill="none" stroke="black"/>
<path d="M110.551,306.515v 4.14209" fill="none" stroke="black"/>
<path d="M128.337,306.515v 4.14209" fill="none" stroke="black"/>
<path d="M146.123,302.373v 8.28419" fill="none" stroke="black"/>
<path d="M163.909,306.515v 4.14209" fill="none" stroke="black"/>
<path d="M181.695,306.515v 4.14209" fill="none" stroke="black"/>
<path d="M199.481,306.515v 4.14209" fill="none" stroke="black"/>
<path d="M217.267,306.515v 4.14209" fill="none" stroke="black"/>
<path d="M235.053,302.373v 8.28419" fill="none" stroke="black"/>
<path d="M252.839,306.515v 4.14209" fill="none" stroke="black"/>
<path d="M270.625,306.515v 4.14209" fill="none" stroke="black"/>
<path d="M288.411,306.515v 4.14209" fill="none" stroke="black"/>
<path d="M306.197,306.515v 4.14209" fill="none" stroke="black"/>
<path d="M323.983,302.373v 8.28419" fill="none" stroke="black"/>
<path d="M341.769,306.515v 4.14209" fill="none" stroke="black"/>
<path d="M359.555,306.515v 4.14209" fill="none" stroke="black"/>
<path d="M377.341,306.515v 4.14209" fill="none" stroke="black"/>
<path d="M395.127,306.515v 4.14209" fill="none" stroke="black"/>
<path d="M412.913,302.373v 8.28419" fill="none" stroke="black"/>
<path d="M430.699,306.515v 4.14209" fill="none" stroke="black"/>
<path d="M448.485,306.515v 4.14209" fill="none" stroke="black"/>
<path d="M466.271,306.515v 4.14209" fill="none" stroke="black"/>
<path d="M484.057,306.515v 4.14209" fill="none" stroke="black"/>
<path d="M501.843,302.373v 8.28419" fill="none" stroke="black"/>
<path d="M501.843,302.373v 8.28419" fill="none" stroke="black"/>
<text xml:space="preserve" x="51.6741" y="326.11" fill="black" font-size="16.3337" font-family="Helvetica">0</text>
<text xml:space="preserve" x="142.985" y="326.11" fill="black" font-size="16.3337" font-family="Helvetica">1</text>
<text xml:space="preserve" x="229.278" y="326.11" fill="black" font-size="16.3337" font-family="Helvetica">2</text>
<text xml:space="preserve" x="318.582" y="326.11" fill="black" font-size="16.3337" font-family="Helvetica">3</text>
<text xml:space="preserve" x="407.886" y="326.11" fill="black" font-size="16.3337" font-family="Helvetica">4</text>
<text xml:space="preserve" x="496.187" y="326.11" fill="black" font-size="16.3337" font-family="Helvetica">5</text>
<text xml:space="preserve" x="495.183" y="337.147" fill="black" font-size="11.0558" font-family="Helvetica">rec</text>
<text xml:space="preserve" x="485.149" y="333.134" fill="black" font-size="16.3337" font-family="Helvetica">E</text>
<path d="M57.1929,310.657v -276.14" fill="none" stroke="black"/>
<path d="M70.7992,310.657h -13.6063" fill="none" stroke="black"/>
<path d="M63.9961,300.182h -6.80315" fill="none" stroke="black"/>
<path d="M63.9961,289.706h -6.80315" fill="none" stroke="black"/>
<path d="M63.9961,279.231h -6.80315" fill="none" stroke="black"/>
<path d="M63.9961,268.755h -6.80315" fill="none" stroke="black"/>
<path d="M70.7992,258.28h -13.6063" fill="none" stroke="black"/>
<path d="M63.9961,247.804h -6.80315" fill="none" stroke="black"/>
<path d="M63.9961,237.329h -6.80315" fill="none" stroke="black"/>
<path d="M63.9961,226.853h -6.80315" fill="none" stroke="black"/>
<path d="M63.9961,216.378h -6.80315" fill="none" stroke="black"/>
<path d="M70.7992,205.902h -13.6063" fill="none" stroke="black"/>
<path d="M63.9961,195.427h -6.80315" fill="none" stroke="black"/>
<path d="M63.9961,184.951h -6.80315" fill="none" stroke="black"/>
<path d="M63.9961,174.476h -6.80315" fill="none" stroke="black"/>
<path d="M63.9961,164h -6.80315" fill="none" stroke="black"/>
<path d="M70.7992,153.525h -13.6063" fill="none" stroke="black"/>
<path d="M63.9961,143.05h -6.80315" fill="none" stroke="black"/>
<path d="M63.9961,132.574h -6.80315" fill="none" stroke="black"/>
<path d="M63.9961,122.099h -6.80315" fill="none" stroke="black"/>
<path d="M63.9961,111.623h -6.80315" fill="none" stroke="black"/>
<path d="M70.7992,101.148h -13.6063" fill="none" stroke="black"/>
<path d="M63.9961,90.6722h -6.80315" fill="none" stroke="black"/>
<path d="M63.9961,80.1967h -6.80315" fill="none" stroke="black"/>
<path d="M63.9961,69.7212h -6.80315" fill="none" stroke="black"/>
<path d="M63.9961,59.2457h -6.80315" fill="none" stroke="black"/>
<path d="M70.7992,48.7703h -13.6063" fill="none" stroke="black"/>
<path d="M70.7992,48.7703h -13.6063" fill="none" stroke="black"/>
<path d="M63.9961,38.2948h -6.80315" fill="none" stroke="black"/>
<text xml:space="preserve" x="44.6502" y="316.076" fill="black" font-size="16.3337" font-family="Helvetica">0</text>
<text xml:space="preserve" x="18.5615" y="263.898" fill="black" font-size="16.3337" font-family="Helvetica">1000</text>
<text xml:space="preserve" x="18.5615" y="211.72" fill="black" font-size="16.3337" font-family="Helvetica">2000</text>
<text xml:space="preserve" x="18.5615" y="159.543" fill="black" font-size="16.3337" font-family="Helvetica">3000</text>
<text xml:space="preserve" x="18.5615" y="106.362" fill="black" font-size="16.3337" font-family="Helvetica">4000</text>
<text xml:space="preserve" x="18.5615" y="54.1844" fill="black" font-size="16.3337" font-family="Helvetica">5000</text>
<text xml:space="preserve" x="83.7834" y="23.0785" fill="black" font-size="11.0558" font-family="Helvetica">3</text>
<text xml:space="preserve" x="65.7219" y="32.1093" fill="black" font-size="16.3337" font-family="Helvetica">10</text>
<text xml:space="preserve" x="56.6912" y="32.1093" fill="black" font-size="16.3337" font-family="Times">&#0215;</text>
<path d="M57.1929,310.657h 142.288v -5.43647h 17.786v 5.43647h 35.572v -40.554h 17.786v -37.0702h 17.786v 34.7108h 17.786v 28.2663h 17.786v -19.9427h 17.786v -5.28934h 17.786v 0.360762h 17.786v -29.3348h 17.786v 8.66771h 17.786v -2.58829h 17.786v
 33.2831h 4.4465v -57.8478h 4.4465v 20.5545h 4.4465v -3.43461h 4.4465v 18.7516h 4.4465v -14.1698h 4.4465v 10.1456h 4.4465v 20.5357h 4.4465v -8.90742h 4.4465v -3.02468h 4.4465v 41.5912h 4.4465v -9.03002h 4.4465v -18.6356h 4.4465v 10.5828h 4.4465v
 22.379h 4.4465v -16.8065h 4.4465v 2.82831h 4.4465v 13.9782" fill="none" stroke="black" stroke-width="3"/></svg>
