<?xml version="1.0" standalone="no"?>
<svg width="567.429" height="276.279" viewBox="0 0 567.429 276.279" xmlns="http://www.w3.org/2000/svg" shape-rendering="crispEdges">
<title>
/u/home/ltracy/Root_work/01-18-19/56Fe_2261_kin_e_pimi.svg
</title>
<desc>
Creator: ROOT Version 6.10/02
CreationDate: Mon Nov 25 09:47:56 2019</desc>
<defs>
</defs>
<rect x="0.5" y="0" width="566.929" height="275.779" fill="white"/>
<rect x="57.1929" y="27.5779" width="453.543" height="220.624" fill="white"/>
<rect x="57.1929" y="27.5779" width="453.543" height="220.624" fill="none" stroke="black"/>
<rect x="57.1929" y="27.5779" width="453.543" height="220.624" fill="white"/>
<rect x="57.1929" y="27.5779" width="453.543" height="220.624" fill="none" stroke="black"/>
<path d="M187.466,184.914v -0.533731" fill="none" stroke="#000099" stroke-width="2"/>
<path d="M187.466,184.381v -0.533731" fill="none" stroke="#000099" stroke-width="2"/>
<g stroke="black" stroke-width="2" fill="none">
<line x1="186.466" y1="184.381" x2="187.466" y2="184.381"/>
</g>
<path d="M190.683,188.156v -1.73845" fill="none" stroke="#000099" stroke-width="2"/>
<path d="M190.683,186.417v -1.73845" fill="none" stroke="#000099" stroke-width="2"/>
<g stroke="black" stroke-width="2" fill="none">
<line x1="189.683" y1="186.417" x2="190.683" y2="186.417"/>
</g>
<path d="M193.899,184.898v -4.38633" fill="none" stroke="#000099" stroke-width="2"/>
<path d="M193.899,180.511v -4.38633" fill="none" stroke="#000099" stroke-width="2"/>
<g stroke="black" stroke-width="2" fill="none">
<line x1="192.899" y1="180.511" x2="193.899" y2="180.511"/>
</g>
<path d="M197.116,206.704v -18.1505" fill="none" stroke="#000099" stroke-width="2"/>
<path d="M197.116,188.554v -18.1505" fill="none" stroke="#000099" stroke-width="2"/>
<g stroke="black" stroke-width="2" fill="none">
<line x1="196.116" y1="188.554" x2="197.116" y2="188.554"/>
</g>
<path d="M200.332,201.425v -11.6698" fill="none" stroke="#000099" stroke-width="2"/>
<path d="M200.332,189.756v -11.6698" fill="none" stroke="#000099" stroke-width="2"/>
<g stroke="black" stroke-width="2" fill="none">
<line x1="199.332" y1="189.756" x2="200.332" y2="189.756"/>
</g>
<path d="M203.549,191.953v -9.21088" fill="none" stroke="#000099" stroke-width="2"/>
<path d="M203.549,182.743v -9.21088" fill="none" stroke="#000099" stroke-width="2"/>
<g stroke="black" stroke-width="2" fill="none">
<line x1="202.549" y1="182.743" x2="203.549" y2="182.743"/>
</g>
<path d="M206.766,202.64v -13.0925" fill="none" stroke="#000099" stroke-width="2"/>
<path d="M206.766,189.547v -13.0925" fill="none" stroke="#000099" stroke-width="2"/>
<g stroke="black" stroke-width="2" fill="none">
<line x1="205.766" y1="189.547" x2="206.766" y2="189.547"/>
</g>
<path d="M209.982,205.409v -21.1655" fill="none" stroke="#000099" stroke-width="2"/>
<path d="M209.982,184.243v -21.1655" fill="none" stroke="#000099" stroke-width="2"/>
<g stroke="black" stroke-width="2" fill="none">
<line x1="208.982" y1="184.243" x2="209.982" y2="184.243"/>
</g>
<path d="M213.199,160.228v -23.1827" fill="none" stroke="#000099" stroke-width="2"/>
<path d="M213.199,137.045v -23.1827" fill="none" stroke="#000099" stroke-width="2"/>
<g stroke="black" stroke-width="2" fill="none">
<line x1="212.199" y1="137.045" x2="213.199" y2="137.045"/>
</g>
<path d="M216.416,197.317v -17.6613" fill="none" stroke="#000099" stroke-width="2"/>
<path d="M216.416,179.656v -17.6613" fill="none" stroke="#000099" stroke-width="2"/>
<g stroke="black" stroke-width="2" fill="none">
<line x1="215.416" y1="179.656" x2="216.416" y2="179.656"/>
</g>
<path d="M219.632,162.729v -15.3423" fill="none" stroke="#000099" stroke-width="2"/>
<path d="M219.632,147.386v -15.3423" fill="none" stroke="#000099" stroke-width="2"/>
<g stroke="black" stroke-width="2" fill="none">
<line x1="218.632" y1="147.386" x2="219.632" y2="147.386"/>
</g>
<path d="M222.849,202.04v -17.8549" fill="none" stroke="#000099" stroke-width="2"/>
<path d="M222.849,184.185v -17.8549" fill="none" stroke="#000099" stroke-width="2"/>
<g stroke="black" stroke-width="2" fill="none">
<line x1="221.849" y1="184.185" x2="222.849" y2="184.185"/>
</g>
<path d="M226.065,190.923v -19.9624" fill="none" stroke="#000099" stroke-width="2"/>
<path d="M226.065,170.961v -19.9624" fill="none" stroke="#000099" stroke-width="2"/>
<g stroke="black" stroke-width="2" fill="none">
<line x1="225.065" y1="170.961" x2="226.065" y2="170.961"/>
</g>
<path d="M229.282,144.915v -18.8194" fill="none" stroke="#000099" stroke-width="2"/>
<path d="M229.282,126.096v -18.8194" fill="none" stroke="#000099" stroke-width="2"/>
<g stroke="black" stroke-width="2" fill="none">
<line x1="228.282" y1="126.096" x2="229.282" y2="126.096"/>
</g>
<path d="M232.499,170.801v -22.1125" fill="none" stroke="#000099" stroke-width="2"/>
<path d="M232.499,148.688v -22.1125" fill="none" stroke="#000099" stroke-width="2"/>
<g stroke="black" stroke-width="2" fill="none">
<line x1="231.499" y1="148.688" x2="232.499" y2="148.688"/>
</g>
<path d="M235.715,132.911v -13.9529" fill="none" stroke="#000099" stroke-width="2"/>
<path d="M235.715,118.958v -13.9529" fill="none" stroke="#000099" stroke-width="2"/>
<g stroke="black" stroke-width="2" fill="none">
<line x1="234.715" y1="118.958" x2="235.715" y2="118.958"/>
</g>
<path d="M238.932,157.912v -20.7348" fill="none" stroke="#000099" stroke-width="2"/>
<path d="M238.932,137.178v -20.7348" fill="none" stroke="#000099" stroke-width="2"/>
<g stroke="black" stroke-width="2" fill="none">
<line x1="237.932" y1="137.178" x2="238.932" y2="137.178"/>
</g>
<path d="M242.149,150.908v -17.3866" fill="none" stroke="#000099" stroke-width="2"/>
<path d="M242.149,133.522v -17.3866" fill="none" stroke="#000099" stroke-width="2"/>
<g stroke="black" stroke-width="2" fill="none">
<line x1="241.149" y1="133.522" x2="242.149" y2="133.522"/>
</g>
<path d="M245.365,149.933v -16.5957" fill="none" stroke="#000099" stroke-width="2"/>
<path d="M245.365,133.337v -16.5957" fill="none" stroke="#000099" stroke-width="2"/>
<g stroke="black" stroke-width="2" fill="none">
<line x1="244.365" y1="133.337" x2="245.365" y2="133.337"/>
</g>
<path d="M248.582,238.196v -34.5497" fill="none" stroke="#000099" stroke-width="2"/>
<path d="M248.582,203.646v -34.5497" fill="none" stroke="#000099" stroke-width="2"/>
<g stroke="black" stroke-width="2" fill="none">
<line x1="247.582" y1="203.646" x2="248.582" y2="203.646"/>
</g>
<path d="M251.798,170.235v -21.1459" fill="none" stroke="#000099" stroke-width="2"/>
<path d="M251.798,149.089v -21.1459" fill="none" stroke="#000099" stroke-width="2"/>
<g stroke="black" stroke-width="2" fill="none">
<line x1="250.798" y1="149.089" x2="251.798" y2="149.089"/>
</g>
<path d="M255.015,101.461v -15.0331" fill="none" stroke="#000099" stroke-width="2"/>
<path d="M255.015,86.4281v -15.0331" fill="none" stroke="#000099" stroke-width="2"/>
<g stroke="black" stroke-width="2" fill="none">
<line x1="254.015" y1="86.4281" x2="255.015" y2="86.4281"/>
</g>
<path d="M258.232,111.501v -16.2446" fill="none" stroke="#000099" stroke-width="2"/>
<path d="M258.232,95.2569v -16.2446" fill="none" stroke="#000099" stroke-width="2"/>
<g stroke="black" stroke-width="2" fill="none">
<line x1="257.232" y1="95.2569" x2="258.232" y2="95.2569"/>
</g>
<path d="M261.448,88.8757v -17.0346" fill="none" stroke="#000099" stroke-width="2"/>
<path d="M261.448,71.8411v -17.0346" fill="none" stroke="#000099" stroke-width="2"/>
<g stroke="black" stroke-width="2" fill="none">
<line x1="260.448" y1="71.8411" x2="261.448" y2="71.8411"/>
</g>
<path d="M264.665,114.011v -17.1235" fill="none" stroke="#000099" stroke-width="2"/>
<path d="M264.665,96.888v -17.1235" fill="none" stroke="#000099" stroke-width="2"/>
<g stroke="black" stroke-width="2" fill="none">
<line x1="263.665" y1="96.888" x2="264.665" y2="96.888"/>
</g>
<path d="M267.881,132.315v -15.5028" fill="none" stroke="#000099" stroke-width="2"/>
<path d="M267.881,116.812v -15.5028" fill="none" stroke="#000099" stroke-width="2"/>
<g stroke="black" stroke-width="2" fill="none">
<line x1="266.881" y1="116.812" x2="267.881" y2="116.812"/>
</g>
<path d="M271.098,125.379v -18.2218" fill="none" stroke="#000099" stroke-width="2"/>
<path d="M271.098,107.158v -18.2218" fill="none" stroke="#000099" stroke-width="2"/>
<g stroke="black" stroke-width="2" fill="none">
<line x1="270.098" y1="107.158" x2="271.098" y2="107.158"/>
</g>
<path d="M274.315,130.878v -15.676" fill="none" stroke="#000099" stroke-width="2"/>
<path d="M274.315,115.202v -15.676" fill="none" stroke="#000099" stroke-width="2"/>
<g stroke="black" stroke-width="2" fill="none">
<line x1="273.315" y1="115.202" x2="274.315" y2="115.202"/>
</g>
<path d="M277.531,93.0698v -21.2794" fill="none" stroke="#000099" stroke-width="2"/>
<path d="M277.531,71.7903v -21.2794" fill="none" stroke="#000099" stroke-width="2"/>
<g stroke="black" stroke-width="2" fill="none">
<line x1="276.531" y1="71.7903" x2="277.531" y2="71.7903"/>
</g>
<path d="M280.748,158.986v -16.6795" fill="none" stroke="#000099" stroke-width="2"/>
<path d="M280.748,142.307v -16.6795" fill="none" stroke="#000099" stroke-width="2"/>
<g stroke="black" stroke-width="2" fill="none">
<line x1="279.748" y1="142.307" x2="280.748" y2="142.307"/>
</g>
<path d="M283.965,99.0165v -16.5505" fill="none" stroke="#000099" stroke-width="2"/>
<path d="M283.965,82.4661v -16.5505" fill="none" stroke="#000099" stroke-width="2"/>
<g stroke="black" stroke-width="2" fill="none">
<line x1="282.965" y1="82.4661" x2="283.965" y2="82.4661"/>
</g>
<path d="M287.181,178.456v -32.7278" fill="none" stroke="#000099" stroke-width="2"/>
<path d="M287.181,145.729v -32.7278" fill="none" stroke="#000099" stroke-width="2"/>
<g stroke="black" stroke-width="2" fill="none">
<line x1="286.181" y1="145.729" x2="287.181" y2="145.729"/>
</g>
<path d="M290.398,101.807v -16.2844" fill="none" stroke="#000099" stroke-width="2"/>
<path d="M290.398,85.5227v -16.2844" fill="none" stroke="#000099" stroke-width="2"/>
<g stroke="black" stroke-width="2" fill="none">
<line x1="289.398" y1="85.5227" x2="290.398" y2="85.5227"/>
</g>
<path d="M293.614,100.382v -17.0542" fill="none" stroke="#000099" stroke-width="2"/>
<path d="M293.614,83.3283v -17.0542" fill="none" stroke="#000099" stroke-width="2"/>
<g stroke="black" stroke-width="2" fill="none">
<line x1="292.614" y1="83.3283" x2="293.614" y2="83.3283"/>
</g>
<path d="M296.831,105.5v -29.051" fill="none" stroke="#000099" stroke-width="2"/>
<path d="M296.831,76.4486v -29.051" fill="none" stroke="#000099" stroke-width="2"/>
<g stroke="black" stroke-width="2" fill="none">
<line x1="295.831" y1="76.4486" x2="296.831" y2="76.4486"/>
</g>
<path d="M300.048,91.8157v -17.5756" fill="none" stroke="#000099" stroke-width="2"/>
<path d="M300.048,74.2401v -17.5756" fill="none" stroke="#000099" stroke-width="2"/>
<g stroke="black" stroke-width="2" fill="none">
<line x1="299.048" y1="74.2401" x2="300.048" y2="74.2401"/>
</g>
<path d="M303.264,115.648v -21.6511" fill="none" stroke="#000099" stroke-width="2"/>
<path d="M303.264,93.9974v -21.6511" fill="none" stroke="#000099" stroke-width="2"/>
<g stroke="black" stroke-width="2" fill="none">
<line x1="302.264" y1="93.9974" x2="303.264" y2="93.9974"/>
</g>
<path d="M306.481,107.263v -15.964" fill="none" stroke="#000099" stroke-width="2"/>
<path d="M306.481,91.2985v -15.964" fill="none" stroke="#000099" stroke-width="2"/>
<g stroke="black" stroke-width="2" fill="none">
<line x1="305.481" y1="91.2985" x2="306.481" y2="91.2985"/>
</g>
<path d="M309.698,83.3592v -15.5758" fill="none" stroke="#000099" stroke-width="2"/>
<path d="M309.698,67.7834v -15.5758" fill="none" stroke="#000099" stroke-width="2"/>
<g stroke="black" stroke-width="2" fill="none">
<line x1="308.698" y1="67.7834" x2="309.698" y2="67.7834"/>
</g>
<path d="M312.914,96.671v -13.9339" fill="none" stroke="#000099" stroke-width="2"/>
<path d="M312.914,82.7371v -13.9339" fill="none" stroke="#000099" stroke-width="2"/>
<g stroke="black" stroke-width="2" fill="none">
<line x1="311.914" y1="82.7371" x2="312.914" y2="82.7371"/>
</g>
<path d="M316.131,73.3428v -13.7865" fill="none" stroke="#000099" stroke-width="2"/>
<path d="M316.131,59.5563v -13.7865" fill="none" stroke="#000099" stroke-width="2"/>
<g stroke="black" stroke-width="2" fill="none">
<line x1="315.131" y1="59.5563" x2="316.131" y2="59.5563"/>
</g>
<path d="M319.347,91.4085v -12.086" fill="none" stroke="#000099" stroke-width="2"/>
<path d="M319.347,79.3225v -12.086" fill="none" stroke="#000099" stroke-width="2"/>
<g stroke="black" stroke-width="2" fill="none">
<line x1="318.347" y1="79.3225" x2="319.347" y2="79.3225"/>
</g>
<path d="M322.564,80.704v -11.6921" fill="none" stroke="#000099" stroke-width="2"/>
<path d="M322.564,69.0119v -11.6921" fill="none" stroke="#000099" stroke-width="2"/>
<g stroke="black" stroke-width="2" fill="none">
<line x1="321.564" y1="69.0119" x2="322.564" y2="69.0119"/>
</g>
<path d="M325.781,97.6838v -16.4674" fill="none" stroke="#000099" stroke-width="2"/>
<path d="M325.781,81.2164v -16.4674" fill="none" stroke="#000099" stroke-width="2"/>
<g stroke="black" stroke-width="2" fill="none">
<line x1="324.781" y1="81.2164" x2="325.781" y2="81.2164"/>
</g>
<path d="M328.997,72.6802v -17.2982" fill="none" stroke="#000099" stroke-width="2"/>
<path d="M328.997,55.382v -17.2982" fill="none" stroke="#000099" stroke-width="2"/>
<g stroke="black" stroke-width="2" fill="none">
<line x1="327.997" y1="55.382" x2="328.997" y2="55.382"/>
</g>
<path d="M332.214,71.6341v -12.9867" fill="none" stroke="#000099" stroke-width="2"/>
<path d="M332.214,58.6474v -12.9867" fill="none" stroke="#000099" stroke-width="2"/>
<g stroke="black" stroke-width="2" fill="none">
<line x1="331.214" y1="58.6474" x2="332.214" y2="58.6474"/>
</g>
<path d="M335.43,89.976v -12.7276" fill="none" stroke="#000099" stroke-width="2"/>
<path d="M335.43,77.2484v -12.7276" fill="none" stroke="#000099" stroke-width="2"/>
<g stroke="black" stroke-width="2" fill="none">
<line x1="334.43" y1="77.2484" x2="335.43" y2="77.2484"/>
</g>
<path d="M338.647,173.073v -37.1972" fill="none" stroke="#000099" stroke-width="2"/>
<path d="M338.647,135.876v -37.1972" fill="none" stroke="#000099" stroke-width="2"/>
<g stroke="black" stroke-width="2" fill="none">
<line x1="337.647" y1="135.876" x2="338.647" y2="135.876"/>
</g>
<path d="M341.864,83.9601v -13.444" fill="none" stroke="#000099" stroke-width="2"/>
<path d="M341.864,70.5161v -13.444" fill="none" stroke="#000099" stroke-width="2"/>
<g stroke="black" stroke-width="2" fill="none">
<line x1="340.864" y1="70.5161" x2="341.864" y2="70.5161"/>
</g>
<path d="M345.08,91.0812v -11.678" fill="none" stroke="#000099" stroke-width="2"/>
<path d="M345.08,79.4032v -11.678" fill="none" stroke="#000099" stroke-width="2"/>
<g stroke="black" stroke-width="2" fill="none">
<line x1="344.08" y1="79.4032" x2="345.08" y2="79.4032"/>
</g>
<path d="M348.297,101.359v -12.6343" fill="none" stroke="#000099" stroke-width="2"/>
<path d="M348.297,88.7249v -12.6343" fill="none" stroke="#000099" stroke-width="2"/>
<g stroke="black" stroke-width="2" fill="none">
<line x1="347.297" y1="88.7249" x2="348.297" y2="88.7249"/>
</g>
<path d="M351.514,103.787v -13.1129" fill="none" stroke="#000099" stroke-width="2"/>
<path d="M351.514,90.6737v -13.1129" fill="none" stroke="#000099" stroke-width="2"/>
<g stroke="black" stroke-width="2" fill="none">
<line x1="350.514" y1="90.6737" x2="351.514" y2="90.6737"/>
</g>
<path d="M354.73,109.063v -12.6405" fill="none" stroke="#000099" stroke-width="2"/>
<path d="M354.73,96.4228v -12.6405" fill="none" stroke="#000099" stroke-width="2"/>
<g stroke="black" stroke-width="2" fill="none">
<line x1="353.73" y1="96.4228" x2="354.73" y2="96.4228"/>
</g>
<path d="M357.947,120.754v -13.8281" fill="none" stroke="#000099" stroke-width="2"/>
<path d="M357.947,106.925v -13.8281" fill="none" stroke="#000099" stroke-width="2"/>
<g stroke="black" stroke-width="2" fill="none">
<line x1="356.947" y1="106.925" x2="357.947" y2="106.925"/>
</g>
<path d="M361.163,95.5291v -14.4066" fill="none" stroke="#000099" stroke-width="2"/>
<path d="M361.163,81.1225v -14.4066" fill="none" stroke="#000099" stroke-width="2"/>
<g stroke="black" stroke-width="2" fill="none">
<line x1="360.163" y1="81.1225" x2="361.163" y2="81.1225"/>
</g>
<path d="M364.38,101.891v -9.4609" fill="none" stroke="#000099" stroke-width="2"/>
<path d="M364.38,92.4302v -9.4609" fill="none" stroke="#000099" stroke-width="2"/>
<g stroke="black" stroke-width="2" fill="none">
<line x1="363.38" y1="92.4302" x2="364.38" y2="92.4302"/>
</g>
<path d="M367.597,108.311v -9.00862" fill="none" stroke="#000099" stroke-width="2"/>
<path d="M367.597,99.3022v -9.00862" fill="none" stroke="#000099" stroke-width="2"/>
<g stroke="black" stroke-width="2" fill="none">
<line x1="366.597" y1="99.3022" x2="367.597" y2="99.3022"/>
</g>
<path d="M370.813,96.4962v -9.27859" fill="none" stroke="#000099" stroke-width="2"/>
<path d="M370.813,87.2177v -9.27859" fill="none" stroke="#000099" stroke-width="2"/>
<g stroke="black" stroke-width="2" fill="none">
<line x1="369.813" y1="87.2177" x2="370.813" y2="87.2177"/>
</g>
<path d="M374.03,123v -10.1123" fill="none" stroke="#000099" stroke-width="2"/>
<path d="M374.03,112.888v -10.1123" fill="none" stroke="#000099" stroke-width="2"/>
<g stroke="black" stroke-width="2" fill="none">
<line x1="373.03" y1="112.888" x2="374.03" y2="112.888"/>
</g>
<path d="M377.247,140.086v -8.63125" fill="none" stroke="#000099" stroke-width="2"/>
<path d="M377.247,131.454v -8.63125" fill="none" stroke="#000099" stroke-width="2"/>
<g stroke="black" stroke-width="2" fill="none">
<line x1="376.247" y1="131.454" x2="377.247" y2="131.454"/>
</g>
<path d="M380.463,154.737v -9.70589" fill="none" stroke="#000099" stroke-width="2"/>
<path d="M380.463,145.031v -9.70589" fill="none" stroke="#000099" stroke-width="2"/>
<g stroke="black" stroke-width="2" fill="none">
<line x1="379.463" y1="145.031" x2="380.463" y2="145.031"/>
</g>
<path d="M383.68,143.449v -7.78203" fill="none" stroke="#000099" stroke-width="2"/>
<path d="M383.68,135.667v -7.78203" fill="none" stroke="#000099" stroke-width="2"/>
<g stroke="black" stroke-width="2" fill="none">
<line x1="382.68" y1="135.667" x2="383.68" y2="135.667"/>
</g>
<path d="M386.896,164.31v -9.2305" fill="none" stroke="#000099" stroke-width="2"/>
<path d="M386.896,155.08v -9.2305" fill="none" stroke="#000099" stroke-width="2"/>
<g stroke="black" stroke-width="2" fill="none">
<line x1="385.896" y1="155.08" x2="386.896" y2="155.08"/>
</g>
<path d="M390.113,171.356v -13.233" fill="none" stroke="#000099" stroke-width="2"/>
<path d="M390.113,158.123v -13.233" fill="none" stroke="#000099" stroke-width="2"/>
<g stroke="black" stroke-width="2" fill="none">
<line x1="389.113" y1="158.123" x2="390.113" y2="158.123"/>
</g>
<path d="M393.33,137.004v -7.97795" fill="none" stroke="#000099" stroke-width="2"/>
<path d="M393.33,129.026v -7.97795" fill="none" stroke="#000099" stroke-width="2"/>
<g stroke="black" stroke-width="2" fill="none">
<line x1="392.33" y1="129.026" x2="393.33" y2="129.026"/>
</g>
<path d="M396.546,178.06v -11.2849" fill="none" stroke="#000099" stroke-width="2"/>
<path d="M396.546,166.775v -11.2849" fill="none" stroke="#000099" stroke-width="2"/>
<g stroke="black" stroke-width="2" fill="none">
<line x1="395.546" y1="166.775" x2="396.546" y2="166.775"/>
</g>
<path d="M399.763,172.918v -10.8588" fill="none" stroke="#000099" stroke-width="2"/>
<path d="M399.763,162.059v -10.8588" fill="none" stroke="#000099" stroke-width="2"/>
<g stroke="black" stroke-width="2" fill="none">
<line x1="398.763" y1="162.059" x2="399.763" y2="162.059"/>
</g>
<path d="M402.979,174.119v -5.56391" fill="none" stroke="#000099" stroke-width="2"/>
<path d="M402.979,168.556v -5.56391" fill="none" stroke="#000099" stroke-width="2"/>
<g stroke="black" stroke-width="2" fill="none">
<line x1="401.979" y1="168.556" x2="402.979" y2="168.556"/>
</g>
<path d="M406.196,168.216v -6.37446" fill="none" stroke="#000099" stroke-width="2"/>
<path d="M406.196,161.842v -6.37446" fill="none" stroke="#000099" stroke-width="2"/>
<g stroke="black" stroke-width="2" fill="none">
<line x1="405.196" y1="161.842" x2="406.196" y2="161.842"/>
</g>
<path d="M409.413,174.927v -5.69982" fill="none" stroke="#000099" stroke-width="2"/>
<path d="M409.413,169.227v -5.69982" fill="none" stroke="#000099" stroke-width="2"/>
<g stroke="black" stroke-width="2" fill="none">
<line x1="408.413" y1="169.227" x2="409.413" y2="169.227"/>
</g>
<path d="M412.629,172.87v -5.58011" fill="none" stroke="#000099" stroke-width="2"/>
<path d="M412.629,167.289v -5.58011" fill="none" stroke="#000099" stroke-width="2"/>
<g stroke="black" stroke-width="2" fill="none">
<line x1="411.629" y1="167.289" x2="412.629" y2="167.289"/>
</g>
<path d="M415.846,171.564v -6.17863" fill="none" stroke="#000099" stroke-width="2"/>
<path d="M415.846,165.385v -6.17863" fill="none" stroke="#000099" stroke-width="2"/>
<g stroke="black" stroke-width="2" fill="none">
<line x1="414.846" y1="165.385" x2="415.846" y2="165.385"/>
</g>
<path d="M419.063,174.677v -5.72015" fill="none" stroke="#000099" stroke-width="2"/>
<path d="M419.063,168.956v -5.72015" fill="none" stroke="#000099" stroke-width="2"/>
<g stroke="black" stroke-width="2" fill="none">
<line x1="418.063" y1="168.956" x2="419.063" y2="168.956"/>
</g>
<path d="M422.279,185.257v -5.41635" fill="none" stroke="#000099" stroke-width="2"/>
<path d="M422.279,179.84v -5.41635" fill="none" stroke="#000099" stroke-width="2"/>
<g stroke="black" stroke-width="2" fill="none">
<line x1="421.279" y1="179.84" x2="422.279" y2="179.84"/>
</g>
<path d="M425.496,174.065v -4.49134" fill="none" stroke="#000099" stroke-width="2"/>
<path d="M425.496,169.574v -4.49134" fill="none" stroke="#000099" stroke-width="2"/>
<g stroke="black" stroke-width="2" fill="none">
<line x1="424.496" y1="169.574" x2="425.496" y2="169.574"/>
</g>
<path d="M428.712,188.511v -5.7461" fill="none" stroke="#000099" stroke-width="2"/>
<path d="M428.712,182.765v -5.7461" fill="none" stroke="#000099" stroke-width="2"/>
<g stroke="black" stroke-width="2" fill="none">
<line x1="427.712" y1="182.765" x2="428.712" y2="182.765"/>
</g>
<path d="M431.929,178.246v -3.65848" fill="none" stroke="#000099" stroke-width="2"/>
<path d="M431.929,174.588v -3.65848" fill="none" stroke="#000099" stroke-width="2"/>
<g stroke="black" stroke-width="2" fill="none">
<line x1="430.929" y1="174.588" x2="431.929" y2="174.588"/>
</g>
<path d="M435.146,179.042v -3.73084" fill="none" stroke="#000099" stroke-width="2"/>
<path d="M435.146,175.311v -3.73084" fill="none" stroke="#000099" stroke-width="2"/>
<g stroke="black" stroke-width="2" fill="none">
<line x1="434.146" y1="175.311" x2="435.146" y2="175.311"/>
</g>
<path d="M438.362,180.765v -4.2311" fill="none" stroke="#000099" stroke-width="2"/>
<path d="M438.362,176.534v -4.2311" fill="none" stroke="#000099" stroke-width="2"/>
<g stroke="black" stroke-width="2" fill="none">
<line x1="437.362" y1="176.534" x2="438.362" y2="176.534"/>
</g>
<path d="M441.579,185.772v -3.18125" fill="none" stroke="#000099" stroke-width="2"/>
<path d="M441.579,182.591v -3.18125" fill="none" stroke="#000099" stroke-width="2"/>
<g stroke="black" stroke-width="2" fill="none">
<line x1="440.579" y1="182.591" x2="441.579" y2="182.591"/>
</g>
<path d="M444.796,181.632v -3.10383" fill="none" stroke="#000099" stroke-width="2"/>
<path d="M444.796,178.528v -3.10383" fill="none" stroke="#000099" stroke-width="2"/>
<g stroke="black" stroke-width="2" fill="none">
<line x1="443.796" y1="178.528" x2="444.796" y2="178.528"/>
</g>
<path d="M448.012,176.693v -4.33845" fill="none" stroke="#000099" stroke-width="2"/>
<path d="M448.012,172.355v -4.33845" fill="none" stroke="#000099" stroke-width="2"/>
<g stroke="black" stroke-width="2" fill="none">
<line x1="447.012" y1="172.355" x2="448.012" y2="172.355"/>
</g>
<path d="M451.229,184.677v -2.86075" fill="none" stroke="#000099" stroke-width="2"/>
<path d="M451.229,181.816v -2.86075" fill="none" stroke="#000099" stroke-width="2"/>
<g stroke="black" stroke-width="2" fill="none">
<line x1="450.229" y1="181.816" x2="451.229" y2="181.816"/>
</g>
<path d="M454.445,185.131v -1.45975" fill="none" stroke="#000099" stroke-width="2"/>
<path d="M454.445,183.671v -1.45975" fill="none" stroke="#000099" stroke-width="2"/>
<g stroke="black" stroke-width="2" fill="none">
<line x1="453.445" y1="183.671" x2="454.445" y2="183.671"/>
</g>
<path d="M457.662,182.685v -3.39494" fill="none" stroke="#000099" stroke-width="2"/>
<path d="M457.662,179.29v -3.39494" fill="none" stroke="#000099" stroke-width="2"/>
<g stroke="black" stroke-width="2" fill="none">
<line x1="456.662" y1="179.29" x2="457.662" y2="179.29"/>
</g>
<path d="M464.095,187.403v -2.61544" fill="none" stroke="#000099" stroke-width="2"/>
<path d="M464.095,184.787v -2.61544" fill="none" stroke="#000099" stroke-width="2"/>
<g stroke="black" stroke-width="2" fill="none">
<line x1="463.095" y1="184.787" x2="464.095" y2="184.787"/>
</g>
<path d="M467.312,182.523v -3.59614" fill="none" stroke="#000099" stroke-width="2"/>
<path d="M467.312,178.927v -3.59614" fill="none" stroke="#000099" stroke-width="2"/>
<g stroke="black" stroke-width="2" fill="none">
<line x1="466.312" y1="178.927" x2="467.312" y2="178.927"/>
</g>
<path d="M470.528,184.254v -2.44711" fill="none" stroke="#000099" stroke-width="2"/>
<path d="M470.528,181.807v -2.44711" fill="none" stroke="#000099" stroke-width="2"/>
<g stroke="black" stroke-width="2" fill="none">
<line x1="469.528" y1="181.807" x2="470.528" y2="181.807"/>
</g>
<path d="M473.745,185.84v -2.22689" fill="none" stroke="#000099" stroke-width="2"/>
<path d="M473.745,183.613v -2.22689" fill="none" stroke="#000099" stroke-width="2"/>
<g stroke="black" stroke-width="2" fill="none">
<line x1="472.745" y1="183.613" x2="473.745" y2="183.613"/>
</g>
<path d="M476.962,182.893v -3.08853" fill="none" stroke="#000099" stroke-width="2"/>
<path d="M476.962,179.804v -3.08853" fill="none" stroke="#000099" stroke-width="2"/>
<g stroke="black" stroke-width="2" fill="none">
<line x1="475.962" y1="179.804" x2="476.962" y2="179.804"/>
</g>
<path d="M486.612,185.131v -1.63773" fill="none" stroke="#000099" stroke-width="2"/>
<path d="M486.612,183.493v -1.63773" fill="none" stroke="#000099" stroke-width="2"/>
<g stroke="black" stroke-width="2" fill="none">
<line x1="485.612" y1="183.493" x2="486.612" y2="183.493"/>
</g>
<path d="M57.1929,185.131h 128.665v -0.750042h 3.21662v 2.03675h 3.21662v -5.90608h 3.21662v 8.04225h 3.21662v 1.20192h 3.21662v -7.01296h 3.21662v 6.80476h 3.21662v -5.30433h 3.21662v -47.198h 3.21662v 42.611h 3.21662v -32.2696h 3.21662v 36.7984h
 3.21662v -13.224h 3.21662v -44.8649h 3.21662v 22.5921h 3.21662v -29.7299h 3.21662v 18.2192h 3.21662v -3.65594h 3.21662v -0.184751h 3.21662v 70.3093h 3.21662v -54.5571h 3.21662v -62.6609h 3.21662v 8.82873h 3.21662v -23.4158h 3.21662v 25.0469h
 3.21662v 19.9242h 3.21662v -9.65459h 3.21662v 8.04456h 3.21662v -43.4118h 3.21662v 70.5166h 3.21662v -59.8409h 3.21662v 63.2624h 3.21662v -60.2058h 3.21662v -2.1944h 3.21662v -6.87969h 3.21662v -2.20852h 3.21662v 19.7573h 3.21662v -2.69889h 3.21662v
 -23.5151h 3.21662v 14.9537h 3.21662v -23.1808h 3.21662v 19.7661h 3.21662v -10.3105h 3.21662v 12.2045h 3.21662v -25.8344h 3.21662v 3.26541h 3.21662v 18.601h 3.21662v 58.6277h 3.21662v -65.36h 3.21662v 8.88708h 3.21662v 9.32175h 3.21662v 1.94876h
 3.21662v 5.74915h 3.21662v 10.5026h 3.21662v -25.803h 3.21662v 11.3077h 3.21662v 6.87199h 3.21662v -12.0845h 3.21662v 25.6705h 3.21662v 18.5662h 3.21662v 13.5765h 3.21662v -9.36371h 3.21662v 19.4124h 3.21662v 3.04373h 3.21662v -29.0977h 3.21662v
 37.7497h 3.21662v -4.71633h 3.21662v 6.49655h 3.21662v -6.71386h 3.21662v 7.38539h 3.21662v -1.93767h 3.21662v -1.90432h 3.21662v 3.57132h 3.21662v 10.8838h 3.21662v -10.2661h 3.21662v 13.1907h 3.21662v -8.17687h 3.21662v 0.72327h 3.21662v 1.22276h
 3.21662v 6.05668h 3.21662v -4.06216h 3.21662v -6.17367h 3.21662v 9.46157h 3.21662v 1.85469h 3.21662v -4.38117h 3.21662v 5.84092h 3.21662v -0.343553h 3.21662v -5.86025h 3.21662v 2.88027h 3.21662v 1.8059h 3.21662v -3.80865h 3.21662v 5.32629h 6.43324v
 -1.63773h 3.21662v 1.63773h 22.5163" fill="none" stroke="#000099" stroke-width="2"/>
<path d="M57.1929,248.201h 453.543" fill="none" stroke="black"/>
<path d="M57.1929,241.583v 6.61871" fill="none" stroke="black"/>
<path d="M70.0594,244.892v 3.30935" fill="none" stroke="black"/>
<path d="M82.9259,244.892v 3.30935" fill="none" stroke="black"/>
<path d="M95.7924,244.892v 3.30935" fill="none" stroke="black"/>
<path d="M108.659,244.892v 3.30935" fill="none" stroke="black"/>
<path d="M121.525,241.583v 6.61871" fill="none" stroke="black"/>
<path d="M134.392,244.892v 3.30935" fill="none" stroke="black"/>
<path d="M147.258,244.892v 3.30935" fill="none" stroke="black"/>
<path d="M160.125,244.892v 3.30935" fill="none" stroke="black"/>
<path d="M172.991,244.892v 3.30935" fill="none" stroke="black"/>
<path d="M185.858,241.583v 6.61871" fill="none" stroke="black"/>
<path d="M198.724,244.892v 3.30935" fill="none" stroke="black"/>
<path d="M211.591,244.892v 3.30935" fill="none" stroke="black"/>
<path d="M224.457,244.892v 3.30935" fill="none" stroke="black"/>
<path d="M237.324,244.892v 3.30935" fill="none" stroke="black"/>
<path d="M250.19,241.583v 6.61871" fill="none" stroke="black"/>
<path d="M263.057,244.892v 3.30935" fill="none" stroke="black"/>
<path d="M275.923,244.892v 3.30935" fill="none" stroke="black"/>
<path d="M288.789,244.892v 3.30935" fill="none" stroke="black"/>
<path d="M301.656,244.892v 3.30935" fill="none" stroke="black"/>
<path d="M314.522,241.583v 6.61871" fill="none" stroke="black"/>
<path d="M327.389,244.892v 3.30935" fill="none" stroke="black"/>
<path d="M340.255,244.892v 3.30935" fill="none" stroke="black"/>
<path d="M353.122,244.892v 3.30935" fill="none" stroke="black"/>
<path d="M365.988,244.892v 3.30935" fill="none" stroke="black"/>
<path d="M378.855,241.583v 6.61871" fill="none" stroke="black"/>
<path d="M391.721,244.892v 3.30935" fill="none" stroke="black"/>
<path d="M404.588,244.892v 3.30935" fill="none" stroke="black"/>
<path d="M417.454,244.892v 3.30935" fill="none" stroke="black"/>
<path d="M430.321,244.892v 3.30935" fill="none" stroke="black"/>
<path d="M443.187,241.583v 6.61871" fill="none" stroke="black"/>
<path d="M456.054,244.892v 3.30935" fill="none" stroke="black"/>
<path d="M468.92,244.892v 3.30935" fill="none" stroke="black"/>
<path d="M481.787,244.892v 3.30935" fill="none" stroke="black"/>
<path d="M494.653,244.892v 3.30935" fill="none" stroke="black"/>
<path d="M507.52,241.583v 6.61871" fill="none" stroke="black"/>
<path d="M507.52,241.583v 6.61871" fill="none" stroke="black"/>
<text xml:space="preserve" x="53.4094" y="260.409" fill="black" font-size="13.1504" font-family="Helvetica">0</text>
<text xml:space="preserve" x="112.526" y="260.409" fill="black" font-size="13.1504" font-family="Helvetica">0.5</text>
<text xml:space="preserve" x="183.466" y="260.409" fill="black" font-size="13.1504" font-family="Helvetica">1</text>
<text xml:space="preserve" x="241.105" y="260.409" fill="black" font-size="13.1504" font-family="Helvetica">1.5</text>
<text xml:space="preserve" x="310.863" y="260.409" fill="black" font-size="13.1504" font-family="Helvetica">2</text>
<text xml:space="preserve" x="369.979" y="260.409" fill="black" font-size="13.1504" font-family="Helvetica">2.5</text>
<text xml:space="preserve" x="439.441" y="260.409" fill="black" font-size="13.1504" font-family="Helvetica">3</text>
<text xml:space="preserve" x="498.558" y="260.409" fill="black" font-size="13.1504" font-family="Helvetica">3.5</text>
<text xml:space="preserve" x="474.616" y="272.528" fill="black" font-size="13.1504" font-family="Helvetica"> [GeV]</text>
<text xml:space="preserve" x="454.221" y="276.371" fill="black" font-size="8.93362" font-family="Helvetica">kin, e</text>
<text xml:space="preserve" x="445.944" y="272.528" fill="black" font-size="13.1504" font-family="Helvetica">E</text>
<path d="M57.1929,248.201v -220.624" fill="none" stroke="black"/>
<path d="M70.7992,240.732h -13.6063" fill="none" stroke="black"/>
<path d="M63.9961,235.171h -6.80315" fill="none" stroke="black"/>
<path d="M63.9961,229.611h -6.80315" fill="none" stroke="black"/>
<path d="M63.9961,224.051h -6.80315" fill="none" stroke="black"/>
<path d="M63.9961,218.491h -6.80315" fill="none" stroke="black"/>
<path d="M70.7992,212.931h -13.6063" fill="none" stroke="black"/>
<path d="M63.9961,207.371h -6.80315" fill="none" stroke="black"/>
<path d="M63.9961,201.811h -6.80315" fill="none" stroke="black"/>
<path d="M63.9961,196.251h -6.80315" fill="none" stroke="black"/>
<path d="M63.9961,190.691h -6.80315" fill="none" stroke="black"/>
<path d="M70.7992,185.131h -13.6063" fill="none" stroke="black"/>
<path d="M63.9961,179.571h -6.80315" fill="none" stroke="black"/>
<path d="M63.9961,174.011h -6.80315" fill="none" stroke="black"/>
<path d="M63.9961,168.451h -6.80315" fill="none" stroke="black"/>
<path d="M63.9961,162.89h -6.80315" fill="none" stroke="black"/>
<path d="M70.7992,157.33h -13.6063" fill="none" stroke="black"/>
<path d="M63.9961,151.77h -6.80315" fill="none" stroke="black"/>
<path d="M63.9961,146.21h -6.80315" fill="none" stroke="black"/>
<path d="M63.9961,140.65h -6.80315" fill="none" stroke="black"/>
<path d="M63.9961,135.09h -6.80315" fill="none" stroke="black"/>
<path d="M70.7992,129.53h -13.6063" fill="none" stroke="black"/>
<path d="M63.9961,123.97h -6.80315" fill="none" stroke="black"/>
<path d="M63.9961,118.41h -6.80315" fill="none" stroke="black"/>
<path d="M63.9961,112.85h -6.80315" fill="none" stroke="black"/>
<path d="M63.9961,107.29h -6.80315" fill="none" stroke="black"/>
<path d="M70.7992,101.73h -13.6063" fill="none" stroke="black"/>
<path d="M63.9961,96.1695h -6.80315" fill="none" stroke="black"/>
<path d="M63.9961,90.6094h -6.80315" fill="none" stroke="black"/>
<path d="M63.9961,85.0493h -6.80315" fill="none" stroke="black"/>
<path d="M63.9961,79.4892h -6.80315" fill="none" stroke="black"/>
<path d="M70.7992,73.9292h -13.6063" fill="none" stroke="black"/>
<path d="M63.9961,68.3691h -6.80315" fill="none" stroke="black"/>
<path d="M63.9961,62.809h -6.80315" fill="none" stroke="black"/>
<path d="M63.9961,57.2489h -6.80315" fill="none" stroke="black"/>
<path d="M63.9961,51.6888h -6.80315" fill="none" stroke="black"/>
<path d="M70.7992,46.1287h -13.6063" fill="none" stroke="black"/>
<path d="M70.7992,240.732h -13.6063" fill="none" stroke="black"/>
<path d="M63.9961,246.292h -6.80315" fill="none" stroke="black"/>
<path d="M70.7992,46.1287h -13.6063" fill="none" stroke="black"/>
<path d="M63.9961,40.5687h -6.80315" fill="none" stroke="black"/>
<path d="M63.9961,35.0086h -6.80315" fill="none" stroke="black"/>
<path d="M63.9961,29.4485h -6.80315" fill="none" stroke="black"/>
<text xml:space="preserve" x="33.0142" y="245.334" fill="black" font-size="13.1504" font-family="Helvetica">100</text>
<text xml:space="preserve" x="25.9202" y="245.334" fill="black" font-size="13.1504" font-family="Times">&#8722;</text>
<text xml:space="preserve" x="40.4038" y="217.549" fill="black" font-size="13.1504" font-family="Helvetica">50</text>
<text xml:space="preserve" x="33.3098" y="217.549" fill="black" font-size="13.1504" font-family="Times">&#8722;</text>
<text xml:space="preserve" x="47.4978" y="189.765" fill="black" font-size="13.1504" font-family="Helvetica">0</text>
<text xml:space="preserve" x="40.4038" y="161.98" fill="black" font-size="13.1504" font-family="Helvetica">50</text>
<text xml:space="preserve" x="33.0142" y="134.195" fill="black" font-size="13.1504" font-family="Helvetica">100</text>
<text xml:space="preserve" x="33.0142" y="106.41" fill="black" font-size="13.1504" font-family="Helvetica">150</text>
<text xml:space="preserve" x="33.0142" y="78.6252" fill="black" font-size="13.1504" font-family="Helvetica">200</text>
<text xml:space="preserve" x="33.0142" y="50.8404" fill="black" font-size="13.1504" font-family="Helvetica">250</text>
<text xml:space="preserve" x="77.9429" y="19.8041" fill="black" font-size="8.93362" font-family="Helvetica">3</text>
<text xml:space="preserve" x="64.0505" y="26.0113" fill="black" font-size="13.1504" font-family="Helvetica">10</text>
<text xml:space="preserve" x="56.9564" y="26.0113" fill="black" font-size="13.1504" font-family="Times">&#0215;</text></svg>
