<?xml version="1.0" standalone="no"?>
<svg width="567.429" height="276.279" viewBox="0 0 567.429 276.279" xmlns="http://www.w3.org/2000/svg" shape-rendering="crispEdges">
<title>
/u/home/ltracy/Root_work/01-18-19/56Fe_2261_kin_e_pi_pimi.svg
</title>
<desc>
Creator: ROOT Version 6.10/02
CreationDate: Mon Nov 25 09:50:07 2019</desc>
<defs>
</defs>
<rect x="0.5" y="0" width="566.929" height="275.779" fill="white"/>
<rect x="57.1929" y="27.5779" width="453.543" height="220.624" fill="white"/>
<rect x="57.1929" y="27.5779" width="453.543" height="220.624" fill="none" stroke="black"/>
<rect x="57.1929" y="27.5779" width="453.543" height="220.624" fill="white"/>
<rect x="57.1929" y="27.5779" width="453.543" height="220.624" fill="none" stroke="black"/>
<path d="M148.867,196.429v -0.18654" fill="none" stroke="#000099" stroke-width="2"/>
<path d="M148.867,196.242v -0.18654" fill="none" stroke="#000099" stroke-width="2"/>
<g stroke="black" stroke-width="2" fill="none">
<line x1="147.867" y1="196.242" x2="148.867" y2="196.242"/>
</g>
<path d="M152.083,196.234v -0.126146" fill="none" stroke="#000099" stroke-width="2"/>
<path d="M152.083,196.108v -0.126146" fill="none" stroke="#000099" stroke-width="2"/>
<g stroke="black" stroke-width="2" fill="none">
<line x1="151.083" y1="196.108" x2="152.083" y2="196.108"/>
</g>
<path d="M155.3,196.947v -0.405374" fill="none" stroke="#000099" stroke-width="2"/>
<path d="M155.3,196.542v -0.405374" fill="none" stroke="#000099" stroke-width="2"/>
<g stroke="black" stroke-width="2" fill="none">
<line x1="154.3" y1="196.542" x2="155.3" y2="196.542"/>
</g>
<path d="M158.516,197.854v -0.627765" fill="none" stroke="#000099" stroke-width="2"/>
<path d="M158.516,197.227v -0.627765" fill="none" stroke="#000099" stroke-width="2"/>
<g stroke="black" stroke-width="2" fill="none">
<line x1="157.516" y1="197.227" x2="158.516" y2="197.227"/>
</g>
<path d="M161.733,198.853v -1.58018" fill="none" stroke="#000099" stroke-width="2"/>
<path d="M161.733,197.273v -1.58018" fill="none" stroke="#000099" stroke-width="2"/>
<g stroke="black" stroke-width="2" fill="none">
<line x1="160.733" y1="197.273" x2="161.733" y2="197.273"/>
</g>
<path d="M164.95,202.384v -1.48432" fill="none" stroke="#000099" stroke-width="2"/>
<path d="M164.95,200.899v -1.48432" fill="none" stroke="#000099" stroke-width="2"/>
<g stroke="black" stroke-width="2" fill="none">
<line x1="163.95" y1="200.899" x2="164.95" y2="200.899"/>
</g>
<path d="M168.166,207.427v -3.3034" fill="none" stroke="#000099" stroke-width="2"/>
<path d="M168.166,204.123v -3.3034" fill="none" stroke="#000099" stroke-width="2"/>
<g stroke="black" stroke-width="2" fill="none">
<line x1="167.166" y1="204.123" x2="168.166" y2="204.123"/>
</g>
<path d="M171.383,208.929v -2.90856" fill="none" stroke="#000099" stroke-width="2"/>
<path d="M171.383,206.021v -2.90856" fill="none" stroke="#000099" stroke-width="2"/>
<g stroke="black" stroke-width="2" fill="none">
<line x1="170.383" y1="206.021" x2="171.383" y2="206.021"/>
</g>
<path d="M174.6,209.419v -3.15347" fill="none" stroke="#000099" stroke-width="2"/>
<path d="M174.6,206.266v -3.15347" fill="none" stroke="#000099" stroke-width="2"/>
<g stroke="black" stroke-width="2" fill="none">
<line x1="173.6" y1="206.266" x2="174.6" y2="206.266"/>
</g>
<path d="M177.816,208.1v -8.41959" fill="none" stroke="#000099" stroke-width="2"/>
<path d="M177.816,199.68v -8.41959" fill="none" stroke="#000099" stroke-width="2"/>
<g stroke="black" stroke-width="2" fill="none">
<line x1="176.816" y1="199.68" x2="177.816" y2="199.68"/>
</g>
<path d="M181.033,208.983v -4.73932" fill="none" stroke="#000099" stroke-width="2"/>
<path d="M181.033,204.244v -4.73932" fill="none" stroke="#000099" stroke-width="2"/>
<g stroke="black" stroke-width="2" fill="none">
<line x1="180.033" y1="204.244" x2="181.033" y2="204.244"/>
</g>
<path d="M184.249,206.577v -5.08629" fill="none" stroke="#000099" stroke-width="2"/>
<path d="M184.249,201.491v -5.08629" fill="none" stroke="#000099" stroke-width="2"/>
<g stroke="black" stroke-width="2" fill="none">
<line x1="183.249" y1="201.491" x2="184.249" y2="201.491"/>
</g>
<path d="M187.466,238.196v -16.0867" fill="none" stroke="#000099" stroke-width="2"/>
<path d="M187.466,222.109v -16.0867" fill="none" stroke="#000099" stroke-width="2"/>
<g stroke="black" stroke-width="2" fill="none">
<line x1="186.466" y1="222.109" x2="187.466" y2="222.109"/>
</g>
<path d="M190.683,215.86v -5.53249" fill="none" stroke="#000099" stroke-width="2"/>
<path d="M190.683,210.327v -5.53249" fill="none" stroke="#000099" stroke-width="2"/>
<g stroke="black" stroke-width="2" fill="none">
<line x1="189.683" y1="210.327" x2="190.683" y2="210.327"/>
</g>
<path d="M193.899,215.46v -7.11418" fill="none" stroke="#000099" stroke-width="2"/>
<path d="M193.899,208.346v -7.11418" fill="none" stroke="#000099" stroke-width="2"/>
<g stroke="black" stroke-width="2" fill="none">
<line x1="192.899" y1="208.346" x2="193.899" y2="208.346"/>
</g>
<path d="M197.116,215.948v -8.03063" fill="none" stroke="#000099" stroke-width="2"/>
<path d="M197.116,207.917v -8.03063" fill="none" stroke="#000099" stroke-width="2"/>
<g stroke="black" stroke-width="2" fill="none">
<line x1="196.116" y1="207.917" x2="197.116" y2="207.917"/>
</g>
<path d="M200.332,227.636v -7.86651" fill="none" stroke="#000099" stroke-width="2"/>
<path d="M200.332,219.77v -7.86651" fill="none" stroke="#000099" stroke-width="2"/>
<g stroke="black" stroke-width="2" fill="none">
<line x1="199.332" y1="219.77" x2="200.332" y2="219.77"/>
</g>
<path d="M203.549,222.746v -13.7306" fill="none" stroke="#000099" stroke-width="2"/>
<path d="M203.549,209.015v -13.7306" fill="none" stroke="#000099" stroke-width="2"/>
<g stroke="black" stroke-width="2" fill="none">
<line x1="202.549" y1="209.015" x2="203.549" y2="209.015"/>
</g>
<path d="M206.766,199.165v -6.33882" fill="none" stroke="#000099" stroke-width="2"/>
<path d="M206.766,192.827v -6.33882" fill="none" stroke="#000099" stroke-width="2"/>
<g stroke="black" stroke-width="2" fill="none">
<line x1="205.766" y1="192.827" x2="206.766" y2="192.827"/>
</g>
<path d="M209.982,206.923v -6.95711" fill="none" stroke="#000099" stroke-width="2"/>
<path d="M209.982,199.965v -6.95711" fill="none" stroke="#000099" stroke-width="2"/>
<g stroke="black" stroke-width="2" fill="none">
<line x1="208.982" y1="199.965" x2="209.982" y2="199.965"/>
</g>
<path d="M213.199,211.328v -8.54642" fill="none" stroke="#000099" stroke-width="2"/>
<path d="M213.199,202.782v -8.54642" fill="none" stroke="#000099" stroke-width="2"/>
<g stroke="black" stroke-width="2" fill="none">
<line x1="212.199" y1="202.782" x2="213.199" y2="202.782"/>
</g>
<path d="M216.416,209.65v -8.81717" fill="none" stroke="#000099" stroke-width="2"/>
<path d="M216.416,200.833v -8.81717" fill="none" stroke="#000099" stroke-width="2"/>
<g stroke="black" stroke-width="2" fill="none">
<line x1="215.416" y1="200.833" x2="216.416" y2="200.833"/>
</g>
<path d="M219.632,195.621v -6.22367" fill="none" stroke="#000099" stroke-width="2"/>
<path d="M219.632,189.397v -6.22367" fill="none" stroke="#000099" stroke-width="2"/>
<g stroke="black" stroke-width="2" fill="none">
<line x1="218.632" y1="189.397" x2="219.632" y2="189.397"/>
</g>
<path d="M222.849,190.203v -7.75555" fill="none" stroke="#000099" stroke-width="2"/>
<path d="M222.849,182.447v -7.75555" fill="none" stroke="#000099" stroke-width="2"/>
<g stroke="black" stroke-width="2" fill="none">
<line x1="221.849" y1="182.447" x2="222.849" y2="182.447"/>
</g>
<path d="M226.065,206.531v -10.6012" fill="none" stroke="#000099" stroke-width="2"/>
<path d="M226.065,195.929v -10.6012" fill="none" stroke="#000099" stroke-width="2"/>
<g stroke="black" stroke-width="2" fill="none">
<line x1="225.065" y1="195.929" x2="226.065" y2="195.929"/>
</g>
<path d="M229.282,185.648v -8.80764" fill="none" stroke="#000099" stroke-width="2"/>
<path d="M229.282,176.84v -8.80764" fill="none" stroke="#000099" stroke-width="2"/>
<g stroke="black" stroke-width="2" fill="none">
<line x1="228.282" y1="176.84" x2="229.282" y2="176.84"/>
</g>
<path d="M232.499,200.266v -11.4248" fill="none" stroke="#000099" stroke-width="2"/>
<path d="M232.499,188.841v -11.4248" fill="none" stroke="#000099" stroke-width="2"/>
<g stroke="black" stroke-width="2" fill="none">
<line x1="231.499" y1="188.841" x2="232.499" y2="188.841"/>
</g>
<path d="M235.715,188.186v -9.41842" fill="none" stroke="#000099" stroke-width="2"/>
<path d="M235.715,178.768v -9.41842" fill="none" stroke="#000099" stroke-width="2"/>
<g stroke="black" stroke-width="2" fill="none">
<line x1="234.715" y1="178.768" x2="235.715" y2="178.768"/>
</g>
<path d="M238.932,182.909v -9.18045" fill="none" stroke="#000099" stroke-width="2"/>
<path d="M238.932,173.729v -9.18045" fill="none" stroke="#000099" stroke-width="2"/>
<g stroke="black" stroke-width="2" fill="none">
<line x1="237.932" y1="173.729" x2="238.932" y2="173.729"/>
</g>
<path d="M242.149,185.804v -8.77942" fill="none" stroke="#000099" stroke-width="2"/>
<path d="M242.149,177.025v -8.77942" fill="none" stroke="#000099" stroke-width="2"/>
<g stroke="black" stroke-width="2" fill="none">
<line x1="241.149" y1="177.025" x2="242.149" y2="177.025"/>
</g>
<path d="M245.365,179.095v -11.127" fill="none" stroke="#000099" stroke-width="2"/>
<path d="M245.365,167.968v -11.127" fill="none" stroke="#000099" stroke-width="2"/>
<g stroke="black" stroke-width="2" fill="none">
<line x1="244.365" y1="167.968" x2="245.365" y2="167.968"/>
</g>
<path d="M248.582,189.109v -11.5661" fill="none" stroke="#000099" stroke-width="2"/>
<path d="M248.582,177.543v -11.5661" fill="none" stroke="#000099" stroke-width="2"/>
<g stroke="black" stroke-width="2" fill="none">
<line x1="247.582" y1="177.543" x2="248.582" y2="177.543"/>
</g>
<path d="M251.798,160.196v -8.74134" fill="none" stroke="#000099" stroke-width="2"/>
<path d="M251.798,151.454v -8.74134" fill="none" stroke="#000099" stroke-width="2"/>
<g stroke="black" stroke-width="2" fill="none">
<line x1="250.798" y1="151.454" x2="251.798" y2="151.454"/>
</g>
<path d="M255.015,183.242v -11.3824" fill="none" stroke="#000099" stroke-width="2"/>
<path d="M255.015,171.86v -11.3824" fill="none" stroke="#000099" stroke-width="2"/>
<g stroke="black" stroke-width="2" fill="none">
<line x1="254.015" y1="171.86" x2="255.015" y2="171.86"/>
</g>
<path d="M258.232,149.357v -9.64717" fill="none" stroke="#000099" stroke-width="2"/>
<path d="M258.232,139.71v -9.64717" fill="none" stroke="#000099" stroke-width="2"/>
<g stroke="black" stroke-width="2" fill="none">
<line x1="257.232" y1="139.71" x2="258.232" y2="139.71"/>
</g>
<path d="M261.448,159.78v -10.418" fill="none" stroke="#000099" stroke-width="2"/>
<path d="M261.448,149.362v -10.418" fill="none" stroke="#000099" stroke-width="2"/>
<g stroke="black" stroke-width="2" fill="none">
<line x1="260.448" y1="149.362" x2="261.448" y2="149.362"/>
</g>
<path d="M264.665,143.931v -8.09531" fill="none" stroke="#000099" stroke-width="2"/>
<path d="M264.665,135.835v -8.09531" fill="none" stroke="#000099" stroke-width="2"/>
<g stroke="black" stroke-width="2" fill="none">
<line x1="263.665" y1="135.835" x2="264.665" y2="135.835"/>
</g>
<path d="M267.881,160.504v -11.5856" fill="none" stroke="#000099" stroke-width="2"/>
<path d="M267.881,148.918v -11.5856" fill="none" stroke="#000099" stroke-width="2"/>
<g stroke="black" stroke-width="2" fill="none">
<line x1="266.881" y1="148.918" x2="267.881" y2="148.918"/>
</g>
<path d="M271.098,185.965v -18.0331" fill="none" stroke="#000099" stroke-width="2"/>
<path d="M271.098,167.932v -18.0331" fill="none" stroke="#000099" stroke-width="2"/>
<g stroke="black" stroke-width="2" fill="none">
<line x1="270.098" y1="167.932" x2="271.098" y2="167.932"/>
</g>
<path d="M274.315,149.806v -9.84937" fill="none" stroke="#000099" stroke-width="2"/>
<path d="M274.315,139.956v -9.84937" fill="none" stroke="#000099" stroke-width="2"/>
<g stroke="black" stroke-width="2" fill="none">
<line x1="273.315" y1="139.956" x2="274.315" y2="139.956"/>
</g>
<path d="M277.531,151.877v -12.7835" fill="none" stroke="#000099" stroke-width="2"/>
<path d="M277.531,139.094v -12.7835" fill="none" stroke="#000099" stroke-width="2"/>
<g stroke="black" stroke-width="2" fill="none">
<line x1="276.531" y1="139.094" x2="277.531" y2="139.094"/>
</g>
<path d="M280.748,151.527v -17.4839" fill="none" stroke="#000099" stroke-width="2"/>
<path d="M280.748,134.043v -17.4839" fill="none" stroke="#000099" stroke-width="2"/>
<g stroke="black" stroke-width="2" fill="none">
<line x1="279.748" y1="134.043" x2="280.748" y2="134.043"/>
</g>
<path d="M283.965,195.531v -22.2122" fill="none" stroke="#000099" stroke-width="2"/>
<path d="M283.965,173.319v -22.2122" fill="none" stroke="#000099" stroke-width="2"/>
<g stroke="black" stroke-width="2" fill="none">
<line x1="282.965" y1="173.319" x2="283.965" y2="173.319"/>
</g>
<path d="M287.181,144.519v -13.9997" fill="none" stroke="#000099" stroke-width="2"/>
<path d="M287.181,130.52v -13.9997" fill="none" stroke="#000099" stroke-width="2"/>
<g stroke="black" stroke-width="2" fill="none">
<line x1="286.181" y1="130.52" x2="287.181" y2="130.52"/>
</g>
<path d="M290.398,146.609v -10.9716" fill="none" stroke="#000099" stroke-width="2"/>
<path d="M290.398,135.638v -10.9716" fill="none" stroke="#000099" stroke-width="2"/>
<g stroke="black" stroke-width="2" fill="none">
<line x1="289.398" y1="135.638" x2="290.398" y2="135.638"/>
</g>
<path d="M293.614,130.285v -10.7871" fill="none" stroke="#000099" stroke-width="2"/>
<path d="M293.614,119.498v -10.7871" fill="none" stroke="#000099" stroke-width="2"/>
<g stroke="black" stroke-width="2" fill="none">
<line x1="292.614" y1="119.498" x2="293.614" y2="119.498"/>
</g>
<path d="M296.831,136.938v -11.5529" fill="none" stroke="#000099" stroke-width="2"/>
<path d="M296.831,125.385v -11.5529" fill="none" stroke="#000099" stroke-width="2"/>
<g stroke="black" stroke-width="2" fill="none">
<line x1="295.831" y1="125.385" x2="296.831" y2="125.385"/>
</g>
<path d="M300.048,141.842v -10.1393" fill="none" stroke="#000099" stroke-width="2"/>
<path d="M300.048,131.703v -10.1393" fill="none" stroke="#000099" stroke-width="2"/>
<g stroke="black" stroke-width="2" fill="none">
<line x1="299.048" y1="131.703" x2="300.048" y2="131.703"/>
</g>
<path d="M303.264,142.523v -11.4349" fill="none" stroke="#000099" stroke-width="2"/>
<path d="M303.264,131.088v -11.4349" fill="none" stroke="#000099" stroke-width="2"/>
<g stroke="black" stroke-width="2" fill="none">
<line x1="302.264" y1="131.088" x2="303.264" y2="131.088"/>
</g>
<path d="M306.481,181.785v -25.9817" fill="none" stroke="#000099" stroke-width="2"/>
<path d="M306.481,155.803v -25.9817" fill="none" stroke="#000099" stroke-width="2"/>
<g stroke="black" stroke-width="2" fill="none">
<line x1="305.481" y1="155.803" x2="306.481" y2="155.803"/>
</g>
<path d="M309.698,127.41v -9.76258" fill="none" stroke="#000099" stroke-width="2"/>
<path d="M309.698,117.648v -9.76258" fill="none" stroke="#000099" stroke-width="2"/>
<g stroke="black" stroke-width="2" fill="none">
<line x1="308.698" y1="117.648" x2="309.698" y2="117.648"/>
</g>
<path d="M312.914,112.641v -15.6689" fill="none" stroke="#000099" stroke-width="2"/>
<path d="M312.914,96.9725v -15.6689" fill="none" stroke="#000099" stroke-width="2"/>
<g stroke="black" stroke-width="2" fill="none">
<line x1="311.914" y1="96.9725" x2="312.914" y2="96.9725"/>
</g>
<path d="M316.131,128.468v -9.94487" fill="none" stroke="#000099" stroke-width="2"/>
<path d="M316.131,118.523v -9.94487" fill="none" stroke="#000099" stroke-width="2"/>
<g stroke="black" stroke-width="2" fill="none">
<line x1="315.131" y1="118.523" x2="316.131" y2="118.523"/>
</g>
<path d="M319.347,117.662v -9.8237" fill="none" stroke="#000099" stroke-width="2"/>
<path d="M319.347,107.839v -9.8237" fill="none" stroke="#000099" stroke-width="2"/>
<g stroke="black" stroke-width="2" fill="none">
<line x1="318.347" y1="107.839" x2="319.347" y2="107.839"/>
</g>
<path d="M322.564,98.1461v -11.5331" fill="none" stroke="#000099" stroke-width="2"/>
<path d="M322.564,86.613v -11.5331" fill="none" stroke="#000099" stroke-width="2"/>
<g stroke="black" stroke-width="2" fill="none">
<line x1="321.564" y1="86.613" x2="322.564" y2="86.613"/>
</g>
<path d="M325.781,113.649v -12.1897" fill="none" stroke="#000099" stroke-width="2"/>
<path d="M325.781,101.459v -12.1897" fill="none" stroke="#000099" stroke-width="2"/>
<g stroke="black" stroke-width="2" fill="none">
<line x1="324.781" y1="101.459" x2="325.781" y2="101.459"/>
</g>
<path d="M328.997,112.537v -14.6999" fill="none" stroke="#000099" stroke-width="2"/>
<path d="M328.997,97.8372v -14.6999" fill="none" stroke="#000099" stroke-width="2"/>
<g stroke="black" stroke-width="2" fill="none">
<line x1="327.997" y1="97.8372" x2="328.997" y2="97.8372"/>
</g>
<path d="M332.214,105.241v -10.1447" fill="none" stroke="#000099" stroke-width="2"/>
<path d="M332.214,95.0967v -10.1447" fill="none" stroke="#000099" stroke-width="2"/>
<g stroke="black" stroke-width="2" fill="none">
<line x1="331.214" y1="95.0967" x2="332.214" y2="95.0967"/>
</g>
<path d="M335.43,110.47v -9.90232" fill="none" stroke="#000099" stroke-width="2"/>
<path d="M335.43,100.568v -9.90232" fill="none" stroke="#000099" stroke-width="2"/>
<g stroke="black" stroke-width="2" fill="none">
<line x1="334.43" y1="100.568" x2="335.43" y2="100.568"/>
</g>
<path d="M338.647,92.9931v -10.3247" fill="none" stroke="#000099" stroke-width="2"/>
<path d="M338.647,82.6684v -10.3247" fill="none" stroke="#000099" stroke-width="2"/>
<g stroke="black" stroke-width="2" fill="none">
<line x1="337.647" y1="82.6684" x2="338.647" y2="82.6684"/>
</g>
<path d="M341.864,113.935v -11.4368" fill="none" stroke="#000099" stroke-width="2"/>
<path d="M341.864,102.498v -11.4368" fill="none" stroke="#000099" stroke-width="2"/>
<g stroke="black" stroke-width="2" fill="none">
<line x1="340.864" y1="102.498" x2="341.864" y2="102.498"/>
</g>
<path d="M345.08,81.498v -9.38903" fill="none" stroke="#000099" stroke-width="2"/>
<path d="M345.08,72.109v -9.38903" fill="none" stroke="#000099" stroke-width="2"/>
<g stroke="black" stroke-width="2" fill="none">
<line x1="344.08" y1="72.109" x2="345.08" y2="72.109"/>
</g>
<path d="M348.297,74.2483v -12.3433" fill="none" stroke="#000099" stroke-width="2"/>
<path d="M348.297,61.905v -12.3433" fill="none" stroke="#000099" stroke-width="2"/>
<g stroke="black" stroke-width="2" fill="none">
<line x1="347.297" y1="61.905" x2="348.297" y2="61.905"/>
</g>
<path d="M351.514,88.4931v -15.6669" fill="none" stroke="#000099" stroke-width="2"/>
<path d="M351.514,72.8262v -15.6669" fill="none" stroke="#000099" stroke-width="2"/>
<g stroke="black" stroke-width="2" fill="none">
<line x1="350.514" y1="72.8262" x2="351.514" y2="72.8262"/>
</g>
<path d="M354.73,59.469v -10.6926" fill="none" stroke="#000099" stroke-width="2"/>
<path d="M354.73,48.7764v -10.6926" fill="none" stroke="#000099" stroke-width="2"/>
<g stroke="black" stroke-width="2" fill="none">
<line x1="353.73" y1="48.7764" x2="354.73" y2="48.7764"/>
</g>
<path d="M357.947,78.6818v -9.7946" fill="none" stroke="#000099" stroke-width="2"/>
<path d="M357.947,68.8872v -9.7946" fill="none" stroke="#000099" stroke-width="2"/>
<g stroke="black" stroke-width="2" fill="none">
<line x1="356.947" y1="68.8872" x2="357.947" y2="68.8872"/>
</g>
<path d="M361.163,75.3107v -10.4127" fill="none" stroke="#000099" stroke-width="2"/>
<path d="M361.163,64.898v -10.4127" fill="none" stroke="#000099" stroke-width="2"/>
<g stroke="black" stroke-width="2" fill="none">
<line x1="360.163" y1="64.898" x2="361.163" y2="64.898"/>
</g>
<path d="M364.38,95.6557v -12.6734" fill="none" stroke="#000099" stroke-width="2"/>
<path d="M364.38,82.9823v -12.6734" fill="none" stroke="#000099" stroke-width="2"/>
<g stroke="black" stroke-width="2" fill="none">
<line x1="363.38" y1="82.9823" x2="364.38" y2="82.9823"/>
</g>
<path d="M367.597,78.0573v -17.5258" fill="none" stroke="#000099" stroke-width="2"/>
<path d="M367.597,60.5315v -17.5258" fill="none" stroke="#000099" stroke-width="2"/>
<g stroke="black" stroke-width="2" fill="none">
<line x1="366.597" y1="60.5315" x2="367.597" y2="60.5315"/>
</g>
<path d="M370.813,105.275v -9.34531" fill="none" stroke="#000099" stroke-width="2"/>
<path d="M370.813,95.9299v -9.34531" fill="none" stroke="#000099" stroke-width="2"/>
<g stroke="black" stroke-width="2" fill="none">
<line x1="369.813" y1="95.9299" x2="370.813" y2="95.9299"/>
</g>
<path d="M374.03,101.083v -9.78491" fill="none" stroke="#000099" stroke-width="2"/>
<path d="M374.03,91.2982v -9.78491" fill="none" stroke="#000099" stroke-width="2"/>
<g stroke="black" stroke-width="2" fill="none">
<line x1="373.03" y1="91.2982" x2="374.03" y2="91.2982"/>
</g>
<path d="M377.247,124.257v -12.0873" fill="none" stroke="#000099" stroke-width="2"/>
<path d="M377.247,112.17v -12.0873" fill="none" stroke="#000099" stroke-width="2"/>
<g stroke="black" stroke-width="2" fill="none">
<line x1="376.247" y1="112.17" x2="377.247" y2="112.17"/>
</g>
<path d="M380.463,109.229v -11.1344" fill="none" stroke="#000099" stroke-width="2"/>
<path d="M380.463,98.0941v -11.1344" fill="none" stroke="#000099" stroke-width="2"/>
<g stroke="black" stroke-width="2" fill="none">
<line x1="379.463" y1="98.0941" x2="380.463" y2="98.0941"/>
</g>
<path d="M383.68,110.829v -8.12567" fill="none" stroke="#000099" stroke-width="2"/>
<path d="M383.68,102.703v -8.12567" fill="none" stroke="#000099" stroke-width="2"/>
<g stroke="black" stroke-width="2" fill="none">
<line x1="382.68" y1="102.703" x2="383.68" y2="102.703"/>
</g>
<path d="M386.896,128.295v -11.8455" fill="none" stroke="#000099" stroke-width="2"/>
<path d="M386.896,116.45v -11.8455" fill="none" stroke="#000099" stroke-width="2"/>
<g stroke="black" stroke-width="2" fill="none">
<line x1="385.896" y1="116.45" x2="386.896" y2="116.45"/>
</g>
<path d="M390.113,174.768v -17.6621" fill="none" stroke="#000099" stroke-width="2"/>
<path d="M390.113,157.105v -17.6621" fill="none" stroke="#000099" stroke-width="2"/>
<g stroke="black" stroke-width="2" fill="none">
<line x1="389.113" y1="157.105" x2="390.113" y2="157.105"/>
</g>
<path d="M393.33,148.979v -9.49688" fill="none" stroke="#000099" stroke-width="2"/>
<path d="M393.33,139.482v -9.49688" fill="none" stroke="#000099" stroke-width="2"/>
<g stroke="black" stroke-width="2" fill="none">
<line x1="392.33" y1="139.482" x2="393.33" y2="139.482"/>
</g>
<path d="M396.546,130.696v -7.96361" fill="none" stroke="#000099" stroke-width="2"/>
<path d="M396.546,122.732v -7.96361" fill="none" stroke="#000099" stroke-width="2"/>
<g stroke="black" stroke-width="2" fill="none">
<line x1="395.546" y1="122.732" x2="396.546" y2="122.732"/>
</g>
<path d="M399.763,142.958v -8.27459" fill="none" stroke="#000099" stroke-width="2"/>
<path d="M399.763,134.684v -8.27459" fill="none" stroke="#000099" stroke-width="2"/>
<g stroke="black" stroke-width="2" fill="none">
<line x1="398.763" y1="134.684" x2="399.763" y2="134.684"/>
</g>
<path d="M402.979,155.32v -8.67671" fill="none" stroke="#000099" stroke-width="2"/>
<path d="M402.979,146.644v -8.67671" fill="none" stroke="#000099" stroke-width="2"/>
<g stroke="black" stroke-width="2" fill="none">
<line x1="401.979" y1="146.644" x2="402.979" y2="146.644"/>
</g>
<path d="M406.196,159.559v -6.98342" fill="none" stroke="#000099" stroke-width="2"/>
<path d="M406.196,152.576v -6.98342" fill="none" stroke="#000099" stroke-width="2"/>
<g stroke="black" stroke-width="2" fill="none">
<line x1="405.196" y1="152.576" x2="406.196" y2="152.576"/>
</g>
<path d="M409.413,149.643v -7.69413" fill="none" stroke="#000099" stroke-width="2"/>
<path d="M409.413,141.949v -7.69413" fill="none" stroke="#000099" stroke-width="2"/>
<g stroke="black" stroke-width="2" fill="none">
<line x1="408.413" y1="141.949" x2="409.413" y2="141.949"/>
</g>
<path d="M412.629,148.759v -6.99226" fill="none" stroke="#000099" stroke-width="2"/>
<path d="M412.629,141.767v -6.99226" fill="none" stroke="#000099" stroke-width="2"/>
<g stroke="black" stroke-width="2" fill="none">
<line x1="411.629" y1="141.767" x2="412.629" y2="141.767"/>
</g>
<path d="M415.846,181.545v -7.90653" fill="none" stroke="#000099" stroke-width="2"/>
<path d="M415.846,173.639v -7.90653" fill="none" stroke="#000099" stroke-width="2"/>
<g stroke="black" stroke-width="2" fill="none">
<line x1="414.846" y1="173.639" x2="415.846" y2="173.639"/>
</g>
<path d="M419.063,174.524v -6.70025" fill="none" stroke="#000099" stroke-width="2"/>
<path d="M419.063,167.823v -6.70025" fill="none" stroke="#000099" stroke-width="2"/>
<g stroke="black" stroke-width="2" fill="none">
<line x1="418.063" y1="167.823" x2="419.063" y2="167.823"/>
</g>
<path d="M422.279,161.434v -6.82141" fill="none" stroke="#000099" stroke-width="2"/>
<path d="M422.279,154.612v -6.82141" fill="none" stroke="#000099" stroke-width="2"/>
<g stroke="black" stroke-width="2" fill="none">
<line x1="421.279" y1="154.612" x2="422.279" y2="154.612"/>
</g>
<path d="M425.496,169.682v -5.8827" fill="none" stroke="#000099" stroke-width="2"/>
<path d="M425.496,163.8v -5.8827" fill="none" stroke="#000099" stroke-width="2"/>
<g stroke="black" stroke-width="2" fill="none">
<line x1="424.496" y1="163.8" x2="425.496" y2="163.8"/>
</g>
<path d="M428.712,167.274v -6.31437" fill="none" stroke="#000099" stroke-width="2"/>
<path d="M428.712,160.959v -6.31437" fill="none" stroke="#000099" stroke-width="2"/>
<g stroke="black" stroke-width="2" fill="none">
<line x1="427.712" y1="160.959" x2="428.712" y2="160.959"/>
</g>
<path d="M431.929,163.068v -6.32032" fill="none" stroke="#000099" stroke-width="2"/>
<path d="M431.929,156.748v -6.32032" fill="none" stroke="#000099" stroke-width="2"/>
<g stroke="black" stroke-width="2" fill="none">
<line x1="430.929" y1="156.748" x2="431.929" y2="156.748"/>
</g>
<path d="M435.146,180.722v -6.573" fill="none" stroke="#000099" stroke-width="2"/>
<path d="M435.146,174.149v -6.573" fill="none" stroke="#000099" stroke-width="2"/>
<g stroke="black" stroke-width="2" fill="none">
<line x1="434.146" y1="174.149" x2="435.146" y2="174.149"/>
</g>
<path d="M438.362,178.822v -5.03128" fill="none" stroke="#000099" stroke-width="2"/>
<path d="M438.362,173.79v -5.03128" fill="none" stroke="#000099" stroke-width="2"/>
<g stroke="black" stroke-width="2" fill="none">
<line x1="437.362" y1="173.79" x2="438.362" y2="173.79"/>
</g>
<path d="M441.579,168.244v -5.76951" fill="none" stroke="#000099" stroke-width="2"/>
<path d="M441.579,162.474v -5.76951" fill="none" stroke="#000099" stroke-width="2"/>
<g stroke="black" stroke-width="2" fill="none">
<line x1="440.579" y1="162.474" x2="441.579" y2="162.474"/>
</g>
<path d="M444.796,194.656v -6.89136" fill="none" stroke="#000099" stroke-width="2"/>
<path d="M444.796,187.765v -6.89136" fill="none" stroke="#000099" stroke-width="2"/>
<g stroke="black" stroke-width="2" fill="none">
<line x1="443.796" y1="187.765" x2="444.796" y2="187.765"/>
</g>
<path d="M448.012,174.041v -5.44182" fill="none" stroke="#000099" stroke-width="2"/>
<path d="M448.012,168.6v -5.44182" fill="none" stroke="#000099" stroke-width="2"/>
<g stroke="black" stroke-width="2" fill="none">
<line x1="447.012" y1="168.6" x2="448.012" y2="168.6"/>
</g>
<path d="M451.229,192.792v -8.1657" fill="none" stroke="#000099" stroke-width="2"/>
<path d="M451.229,184.626v -8.1657" fill="none" stroke="#000099" stroke-width="2"/>
<g stroke="black" stroke-width="2" fill="none">
<line x1="450.229" y1="184.626" x2="451.229" y2="184.626"/>
</g>
<path d="M454.445,185.913v -5.70292" fill="none" stroke="#000099" stroke-width="2"/>
<path d="M454.445,180.21v -5.70292" fill="none" stroke="#000099" stroke-width="2"/>
<g stroke="black" stroke-width="2" fill="none">
<line x1="453.445" y1="180.21" x2="454.445" y2="180.21"/>
</g>
<path d="M457.662,177.676v -5.18483" fill="none" stroke="#000099" stroke-width="2"/>
<path d="M457.662,172.491v -5.18483" fill="none" stroke="#000099" stroke-width="2"/>
<g stroke="black" stroke-width="2" fill="none">
<line x1="456.662" y1="172.491" x2="457.662" y2="172.491"/>
</g>
<path d="M460.879,185.697v -6.81928" fill="none" stroke="#000099" stroke-width="2"/>
<path d="M460.879,178.878v -6.81928" fill="none" stroke="#000099" stroke-width="2"/>
<g stroke="black" stroke-width="2" fill="none">
<line x1="459.879" y1="178.878" x2="460.879" y2="178.878"/>
</g>
<path d="M464.095,187.222v -5.24535" fill="none" stroke="#000099" stroke-width="2"/>
<path d="M464.095,181.976v -5.24535" fill="none" stroke="#000099" stroke-width="2"/>
<g stroke="black" stroke-width="2" fill="none">
<line x1="463.095" y1="181.976" x2="464.095" y2="181.976"/>
</g>
<path d="M467.312,201.177v -9.71934" fill="none" stroke="#000099" stroke-width="2"/>
<path d="M467.312,191.457v -9.71934" fill="none" stroke="#000099" stroke-width="2"/>
<g stroke="black" stroke-width="2" fill="none">
<line x1="466.312" y1="191.457" x2="467.312" y2="191.457"/>
</g>
<path d="M470.528,189.127v -3.68623" fill="none" stroke="#000099" stroke-width="2"/>
<path d="M470.528,185.441v -3.68623" fill="none" stroke="#000099" stroke-width="2"/>
<g stroke="black" stroke-width="2" fill="none">
<line x1="469.528" y1="185.441" x2="470.528" y2="185.441"/>
</g>
<path d="M473.745,187.373v -5.13782" fill="none" stroke="#000099" stroke-width="2"/>
<path d="M473.745,182.235v -5.13782" fill="none" stroke="#000099" stroke-width="2"/>
<g stroke="black" stroke-width="2" fill="none">
<line x1="472.745" y1="182.235" x2="473.745" y2="182.235"/>
</g>
<path d="M476.962,184.97v -5.13535" fill="none" stroke="#000099" stroke-width="2"/>
<path d="M476.962,179.834v -5.13535" fill="none" stroke="#000099" stroke-width="2"/>
<g stroke="black" stroke-width="2" fill="none">
<line x1="475.962" y1="179.834" x2="476.962" y2="179.834"/>
</g>
<path d="M480.178,183.848v -4.93212" fill="none" stroke="#000099" stroke-width="2"/>
<path d="M480.178,178.916v -4.93212" fill="none" stroke="#000099" stroke-width="2"/>
<g stroke="black" stroke-width="2" fill="none">
<line x1="479.178" y1="178.916" x2="480.178" y2="178.916"/>
</g>
<path d="M483.395,181.546v -5.38241" fill="none" stroke="#000099" stroke-width="2"/>
<path d="M483.395,176.164v -5.38241" fill="none" stroke="#000099" stroke-width="2"/>
<g stroke="black" stroke-width="2" fill="none">
<line x1="482.395" y1="176.164" x2="483.395" y2="176.164"/>
</g>
<path d="M486.612,186.272v -3.65861" fill="none" stroke="#000099" stroke-width="2"/>
<path d="M486.612,182.613v -3.65861" fill="none" stroke="#000099" stroke-width="2"/>
<g stroke="black" stroke-width="2" fill="none">
<line x1="485.612" y1="182.613" x2="486.612" y2="182.613"/>
</g>
<path d="M489.828,191.294v -4.49393" fill="none" stroke="#000099" stroke-width="2"/>
<path d="M489.828,186.801v -4.49393" fill="none" stroke="#000099" stroke-width="2"/>
<g stroke="black" stroke-width="2" fill="none">
<line x1="488.828" y1="186.801" x2="489.828" y2="186.801"/>
</g>
<path d="M493.045,191.631v -7.01802" fill="none" stroke="#000099" stroke-width="2"/>
<path d="M493.045,184.613v -7.01802" fill="none" stroke="#000099" stroke-width="2"/>
<g stroke="black" stroke-width="2" fill="none">
<line x1="492.045" y1="184.613" x2="493.045" y2="184.613"/>
</g>
<path d="M496.261,184.256v -5.27651" fill="none" stroke="#000099" stroke-width="2"/>
<path d="M496.261,178.979v -5.27651" fill="none" stroke="#000099" stroke-width="2"/>
<g stroke="black" stroke-width="2" fill="none">
<line x1="495.261" y1="178.979" x2="496.261" y2="178.979"/>
</g>
<path d="M499.478,187.053v -4.42918" fill="none" stroke="#000099" stroke-width="2"/>
<path d="M499.478,182.624v -4.42918" fill="none" stroke="#000099" stroke-width="2"/>
<g stroke="black" stroke-width="2" fill="none">
<line x1="498.478" y1="182.624" x2="499.478" y2="182.624"/>
</g>
<path d="M502.695,186.688v -4.65262" fill="none" stroke="#000099" stroke-width="2"/>
<path d="M502.695,182.035v -4.65262" fill="none" stroke="#000099" stroke-width="2"/>
<g stroke="black" stroke-width="2" fill="none">
<line x1="501.695" y1="182.035" x2="502.695" y2="182.035"/>
</g>
<path d="M505.911,189.135v -3.84832" fill="none" stroke="#000099" stroke-width="2"/>
<path d="M505.911,185.287v -3.84832" fill="none" stroke="#000099" stroke-width="2"/>
<g stroke="black" stroke-width="2" fill="none">
<line x1="504.911" y1="185.287" x2="505.911" y2="185.287"/>
</g>
<path d="M509.128,190.54v -3.47953" fill="none" stroke="#000099" stroke-width="2"/>
<path d="M509.128,187.061v -3.47953" fill="none" stroke="#000099" stroke-width="2"/>
<g stroke="black" stroke-width="2" fill="none">
<line x1="508.128" y1="187.061" x2="509.128" y2="187.061"/>
</g>
<path d="M57.1929,195.982h 90.0653v 0.260626h 3.21662v -0.13448h 3.21662v 0.433826h 3.21662v 0.685055h 3.21662v 0.0462734h 3.21662v 3.62636h 3.21662v 3.22392h 3.21662v 1.89744h 3.21662v 0.245117h 3.21662v -6.58567h 3.21662v 4.56353h 3.21662v
 -2.75257h 3.21662v 20.6181h 3.21662v -11.7818h 3.21662v -1.98114h 3.21662v -0.428913h 3.21662v 11.8525h 3.21662v -10.755h 3.21662v -16.1883h 3.21662v 7.13875h 3.21662v 2.81651h 3.21662v -1.94908h 3.21662v -11.4356h 3.21662v -6.94986h 3.21662v
 13.4821h 3.21662v -19.0892h 3.21662v 12.0008h 3.21662v -10.0731h 3.21662v -5.03942h 3.21662v 3.2963h 3.21662v -9.0565h 3.21662v 9.57474h 3.21662v -26.0888h 3.21662v 20.4056h 3.21662v -32.1498h 3.21662v 9.65177h 3.21662v -13.5264h 3.21662v 13.0825h
 3.21662v 19.0143h 3.21662v -27.976h 3.21662v -0.862669h 3.21662v -5.05088h 3.21662v 39.2762h 3.21662v -42.7994h 3.21662v 5.11805h 3.21662v -16.1399h 3.21662v 5.88733h 3.21662v 6.31804h 3.21662v -0.614912h 3.21662v 24.7148h 3.21662v -38.1554h
 3.21662v -20.675h 3.21662v 21.5505h 3.21662v -10.6843h 3.21662v -21.2257h 3.21662v 14.8463h 3.21662v -3.62214h 3.21662v -2.74045h 3.21662v 5.47143h 3.21662v -17.8998h 3.21662v 19.8298h 3.21662v -30.3892h 3.21662v -10.204h 3.21662v 10.9213h 3.21662v
 -24.0498h 3.21662v 20.1108h 3.21662v -3.98918h 3.21662v 18.0843h 3.21662v -22.4508h 3.21662v 35.3984h 3.21662v -4.63172h 3.21662v 20.8717h 3.21662v -14.0758h 3.21662v 4.609h 3.21662v 13.7464h 3.21662v 40.6559h 3.21662v -17.6238h 3.21662v -16.7496h
 3.21662v 11.9515h 3.21662v 11.96h 3.21662v 5.9319h 3.21662v -10.6267h 3.21662v -0.181817h 3.21662v 31.8716h 3.21662v -5.81523h 3.21662v -13.2111h 3.21662v 9.18742h 3.21662v -2.84057h 3.21662v -4.21159h 3.21662v 17.4016h 3.21662v -0.358884h 3.21662v
 -11.3161h 3.21662v 25.2909h 3.21662v -19.1655h 3.21662v 16.0264h 3.21662v -4.41612h 3.21662v -7.71897h 3.21662v 6.3873h 3.21662v 3.09813h 3.21662v 9.48082h 3.21662v -6.01623h 3.21662v -3.20624h 3.21662v -2.4004h 3.21662v -0.918396h 3.21662v
 -2.75239h 3.21662v 6.44987h 3.21662v 4.18713h 3.21662v -2.18717h 3.21662v -5.63396h 3.21662v 3.64442h 3.21662v -0.588831h 3.21662v 3.25199h 3.21662v 1.77389h 3.21662" fill="none" stroke="#000099" stroke-width="2"/>
<path d="M57.1929,248.201h 453.543" fill="none" stroke="black"/>
<path d="M57.1929,241.583v 6.61871" fill="none" stroke="black"/>
<path d="M70.0594,244.892v 3.30935" fill="none" stroke="black"/>
<path d="M82.9259,244.892v 3.30935" fill="none" stroke="black"/>
<path d="M95.7924,244.892v 3.30935" fill="none" stroke="black"/>
<path d="M108.659,244.892v 3.30935" fill="none" stroke="black"/>
<path d="M121.525,241.583v 6.61871" fill="none" stroke="black"/>
<path d="M134.392,244.892v 3.30935" fill="none" stroke="black"/>
<path d="M147.258,244.892v 3.30935" fill="none" stroke="black"/>
<path d="M160.125,244.892v 3.30935" fill="none" stroke="black"/>
<path d="M172.991,244.892v 3.30935" fill="none" stroke="black"/>
<path d="M185.858,241.583v 6.61871" fill="none" stroke="black"/>
<path d="M198.724,244.892v 3.30935" fill="none" stroke="black"/>
<path d="M211.591,244.892v 3.30935" fill="none" stroke="black"/>
<path d="M224.457,244.892v 3.30935" fill="none" stroke="black"/>
<path d="M237.324,244.892v 3.30935" fill="none" stroke="black"/>
<path d="M250.19,241.583v 6.61871" fill="none" stroke="black"/>
<path d="M263.057,244.892v 3.30935" fill="none" stroke="black"/>
<path d="M275.923,244.892v 3.30935" fill="none" stroke="black"/>
<path d="M288.789,244.892v 3.30935" fill="none" stroke="black"/>
<path d="M301.656,244.892v 3.30935" fill="none" stroke="black"/>
<path d="M314.522,241.583v 6.61871" fill="none" stroke="black"/>
<path d="M327.389,244.892v 3.30935" fill="none" stroke="black"/>
<path d="M340.255,244.892v 3.30935" fill="none" stroke="black"/>
<path d="M353.122,244.892v 3.30935" fill="none" stroke="black"/>
<path d="M365.988,244.892v 3.30935" fill="none" stroke="black"/>
<path d="M378.855,241.583v 6.61871" fill="none" stroke="black"/>
<path d="M391.721,244.892v 3.30935" fill="none" stroke="black"/>
<path d="M404.588,244.892v 3.30935" fill="none" stroke="black"/>
<path d="M417.454,244.892v 3.30935" fill="none" stroke="black"/>
<path d="M430.321,244.892v 3.30935" fill="none" stroke="black"/>
<path d="M443.187,241.583v 6.61871" fill="none" stroke="black"/>
<path d="M456.054,244.892v 3.30935" fill="none" stroke="black"/>
<path d="M468.92,244.892v 3.30935" fill="none" stroke="black"/>
<path d="M481.787,244.892v 3.30935" fill="none" stroke="black"/>
<path d="M494.653,244.892v 3.30935" fill="none" stroke="black"/>
<path d="M507.52,241.583v 6.61871" fill="none" stroke="black"/>
<path d="M507.52,241.583v 6.61871" fill="none" stroke="black"/>
<text xml:space="preserve" x="53.4094" y="260.409" fill="black" font-size="13.1504" font-family="Helvetica">0</text>
<text xml:space="preserve" x="112.526" y="260.409" fill="black" font-size="13.1504" font-family="Helvetica">0.5</text>
<text xml:space="preserve" x="183.466" y="260.409" fill="black" font-size="13.1504" font-family="Helvetica">1</text>
<text xml:space="preserve" x="241.105" y="260.409" fill="black" font-size="13.1504" font-family="Helvetica">1.5</text>
<text xml:space="preserve" x="310.863" y="260.409" fill="black" font-size="13.1504" font-family="Helvetica">2</text>
<text xml:space="preserve" x="369.979" y="260.409" fill="black" font-size="13.1504" font-family="Helvetica">2.5</text>
<text xml:space="preserve" x="439.441" y="260.409" fill="black" font-size="13.1504" font-family="Helvetica">3</text>
<text xml:space="preserve" x="498.558" y="260.409" fill="black" font-size="13.1504" font-family="Helvetica">3.5</text>
<text xml:space="preserve" x="474.616" y="272.232" fill="black" font-size="13.1504" font-family="Helvetica"> [GeV]</text>
<text xml:space="preserve" x="445.649" y="276.075" fill="black" font-size="8.93362" font-family="Helvetica">kin, e pi</text>
<text xml:space="preserve" x="437.372" y="272.232" fill="black" font-size="13.1504" font-family="Helvetica">E</text>
<path d="M57.1929,248.201v -220.624" fill="none" stroke="black"/>
<path d="M70.7992,245.664h -13.6063" fill="none" stroke="black"/>
<path d="M63.9961,240.695h -6.80315" fill="none" stroke="black"/>
<path d="M63.9961,235.727h -6.80315" fill="none" stroke="black"/>
<path d="M63.9961,230.759h -6.80315" fill="none" stroke="black"/>
<path d="M63.9961,225.791h -6.80315" fill="none" stroke="black"/>
<path d="M70.7992,220.823h -13.6063" fill="none" stroke="black"/>
<path d="M63.9961,215.854h -6.80315" fill="none" stroke="black"/>
<path d="M63.9961,210.886h -6.80315" fill="none" stroke="black"/>
<path d="M63.9961,205.918h -6.80315" fill="none" stroke="black"/>
<path d="M63.9961,200.95h -6.80315" fill="none" stroke="black"/>
<path d="M70.7992,195.982h -13.6063" fill="none" stroke="black"/>
<path d="M63.9961,191.013h -6.80315" fill="none" stroke="black"/>
<path d="M63.9961,186.045h -6.80315" fill="none" stroke="black"/>
<path d="M63.9961,181.077h -6.80315" fill="none" stroke="black"/>
<path d="M63.9961,176.109h -6.80315" fill="none" stroke="black"/>
<path d="M70.7992,171.141h -13.6063" fill="none" stroke="black"/>
<path d="M63.9961,166.173h -6.80315" fill="none" stroke="black"/>
<path d="M63.9961,161.204h -6.80315" fill="none" stroke="black"/>
<path d="M63.9961,156.236h -6.80315" fill="none" stroke="black"/>
<path d="M63.9961,151.268h -6.80315" fill="none" stroke="black"/>
<path d="M70.7992,146.3h -13.6063" fill="none" stroke="black"/>
<path d="M63.9961,141.331h -6.80315" fill="none" stroke="black"/>
<path d="M63.9961,136.363h -6.80315" fill="none" stroke="black"/>
<path d="M63.9961,131.395h -6.80315" fill="none" stroke="black"/>
<path d="M63.9961,126.427h -6.80315" fill="none" stroke="black"/>
<path d="M70.7992,121.459h -13.6063" fill="none" stroke="black"/>
<path d="M63.9961,116.491h -6.80315" fill="none" stroke="black"/>
<path d="M63.9961,111.522h -6.80315" fill="none" stroke="black"/>
<path d="M63.9961,106.554h -6.80315" fill="none" stroke="black"/>
<path d="M63.9961,101.586h -6.80315" fill="none" stroke="black"/>
<path d="M70.7992,96.6177h -13.6063" fill="none" stroke="black"/>
<path d="M63.9961,91.6495h -6.80315" fill="none" stroke="black"/>
<path d="M63.9961,86.6813h -6.80315" fill="none" stroke="black"/>
<path d="M63.9961,81.7131h -6.80315" fill="none" stroke="black"/>
<path d="M63.9961,76.7449h -6.80315" fill="none" stroke="black"/>
<path d="M70.7992,71.7767h -13.6063" fill="none" stroke="black"/>
<path d="M63.9961,66.8085h -6.80315" fill="none" stroke="black"/>
<path d="M63.9961,61.8403h -6.80315" fill="none" stroke="black"/>
<path d="M63.9961,56.8721h -6.80315" fill="none" stroke="black"/>
<path d="M63.9961,51.9039h -6.80315" fill="none" stroke="black"/>
<path d="M70.7992,46.9357h -13.6063" fill="none" stroke="black"/>
<path d="M70.7992,245.664h -13.6063" fill="none" stroke="black"/>
<path d="M70.7992,46.9357h -13.6063" fill="none" stroke="black"/>
<path d="M63.9961,41.9675h -6.80315" fill="none" stroke="black"/>
<path d="M63.9961,36.9993h -6.80315" fill="none" stroke="black"/>
<path d="M63.9961,32.0311h -6.80315" fill="none" stroke="black"/>
<text xml:space="preserve" x="33.0142" y="250.359" fill="black" font-size="13.1504" font-family="Helvetica">100</text>
<text xml:space="preserve" x="25.9202" y="250.359" fill="black" font-size="13.1504" font-family="Times">&#8722;</text>
<text xml:space="preserve" x="40.4038" y="225.53" fill="black" font-size="13.1504" font-family="Helvetica">50</text>
<text xml:space="preserve" x="33.3098" y="225.53" fill="black" font-size="13.1504" font-family="Times">&#8722;</text>
<text xml:space="preserve" x="47.4978" y="200.701" fill="black" font-size="13.1504" font-family="Helvetica">0</text>
<text xml:space="preserve" x="40.4038" y="175.577" fill="black" font-size="13.1504" font-family="Helvetica">50</text>
<text xml:space="preserve" x="33.0142" y="150.748" fill="black" font-size="13.1504" font-family="Helvetica">100</text>
<text xml:space="preserve" x="33.0142" y="125.919" fill="black" font-size="13.1504" font-family="Helvetica">150</text>
<text xml:space="preserve" x="33.0142" y="101.09" fill="black" font-size="13.1504" font-family="Helvetica">200</text>
<text xml:space="preserve" x="33.0142" y="76.2605" fill="black" font-size="13.1504" font-family="Helvetica">250</text>
<text xml:space="preserve" x="33.0142" y="51.4315" fill="black" font-size="13.1504" font-family="Helvetica">300</text>
<text xml:space="preserve" x="77.9429" y="19.8041" fill="black" font-size="8.93362" font-family="Helvetica">3</text>
<text xml:space="preserve" x="64.0505" y="26.0113" fill="black" font-size="13.1504" font-family="Helvetica">10</text>
<text xml:space="preserve" x="56.9564" y="26.0113" fill="black" font-size="13.1504" font-family="Times">&#0215;</text></svg>
