<?xml version="1.0" standalone="no"?>
<svg width="567.429" height="345.675" viewBox="0 0 567.429 345.675" xmlns="http://www.w3.org/2000/svg" shape-rendering="crispEdges">
<title>
56Fe_4461_pipl.svg
</title>
<desc>
Creator: ROOT Version 6.18/04
CreationDate: Tue Mar  3 09:23:33 2020</desc>
<defs>
</defs>
<rect x="0.5" y="0" width="566.929" height="345.175" fill="white"/>
<rect x="57.1929" y="34.5175" width="453.543" height="276.14" fill="white"/>
<rect x="57.1929" y="34.5175" width="453.543" height="276.14" fill="none" stroke="black"/>
<path d="M57.1929,310.657h 106.716v -5.70302h 17.786v -68.6866h 17.786v -48.2921h 17.786v 58.5575h 17.786v -85.0565h 17.786v 14.2091h 17.786v -70.5864h 17.786v 15.3769h 17.786v -62.2474h 17.786v 55.9062h 17.786v -38.0594h 17.786v 76.9151h 17.786v
 -105.324h 17.786v 54.0803h 17.786v 12.9471h 17.786v 45.7596h 4.4465v 25.5578h 4.4465v 45.325h 4.4465v 27.321h 4.4465v 39.1211h 4.4465v 6.93983h 4.4465v 5.93841h 4.4465v -0.899664h 4.4465v -0.715653h 4.4465v 1.36418h 4.4465v -0.685496h 4.4465v
 -0.245465h 4.4465v -0.882601h 4.4465v 1.58943h 4.4465v -2.28906h 4.4465v 2.04555h 4.4465v 0.71877h 4.4465v -0.0409643h 11.8183" fill="none" stroke="#000099" stroke-width="3"/>
<path d="M57.1929,310.657h 453.543" fill="none" stroke="black"/>
<path d="M57.1929,302.373v 8.28419" fill="none" stroke="black"/>
<path d="M74.9789,306.515v 4.14209" fill="none" stroke="black"/>
<path d="M92.7649,306.515v 4.14209" fill="none" stroke="black"/>
<path d="M110.551,306.515v 4.14209" fill="none" stroke="black"/>
<path d="M128.337,306.515v 4.14209" fill="none" stroke="black"/>
<path d="M146.123,302.373v 8.28419" fill="none" stroke="black"/>
<path d="M163.909,306.515v 4.14209" fill="none" stroke="black"/>
<path d="M181.695,306.515v 4.14209" fill="none" stroke="black"/>
<path d="M199.481,306.515v 4.14209" fill="none" stroke="black"/>
<path d="M217.267,306.515v 4.14209" fill="none" stroke="black"/>
<path d="M235.053,302.373v 8.28419" fill="none" stroke="black"/>
<path d="M252.839,306.515v 4.14209" fill="none" stroke="black"/>
<path d="M270.625,306.515v 4.14209" fill="none" stroke="black"/>
<path d="M288.411,306.515v 4.14209" fill="none" stroke="black"/>
<path d="M306.197,306.515v 4.14209" fill="none" stroke="black"/>
<path d="M323.983,302.373v 8.28419" fill="none" stroke="black"/>
<path d="M341.769,306.515v 4.14209" fill="none" stroke="black"/>
<path d="M359.555,306.515v 4.14209" fill="none" stroke="black"/>
<path d="M377.341,306.515v 4.14209" fill="none" stroke="black"/>
<path d="M395.127,306.515v 4.14209" fill="none" stroke="black"/>
<path d="M412.913,302.373v 8.28419" fill="none" stroke="black"/>
<path d="M430.699,306.515v 4.14209" fill="none" stroke="black"/>
<path d="M448.485,306.515v 4.14209" fill="none" stroke="black"/>
<path d="M466.271,306.515v 4.14209" fill="none" stroke="black"/>
<path d="M484.057,306.515v 4.14209" fill="none" stroke="black"/>
<path d="M501.843,302.373v 8.28419" fill="none" stroke="black"/>
<path d="M501.843,302.373v 8.28419" fill="none" stroke="black"/>
<text xml:space="preserve" x="51.6741" y="326.11" fill="black" font-size="16.3337" font-family="Helvetica">0</text>
<text xml:space="preserve" x="142.985" y="326.11" fill="black" font-size="16.3337" font-family="Helvetica">1</text>
<text xml:space="preserve" x="229.278" y="326.11" fill="black" font-size="16.3337" font-family="Helvetica">2</text>
<text xml:space="preserve" x="318.582" y="326.11" fill="black" font-size="16.3337" font-family="Helvetica">3</text>
<text xml:space="preserve" x="407.886" y="326.11" fill="black" font-size="16.3337" font-family="Helvetica">4</text>
<text xml:space="preserve" x="496.187" y="326.11" fill="black" font-size="16.3337" font-family="Helvetica">5</text>
<text xml:space="preserve" x="495.183" y="337.147" fill="black" font-size="11.0558" font-family="Helvetica">rec</text>
<text xml:space="preserve" x="485.149" y="333.134" fill="black" font-size="16.3337" font-family="Helvetica">E</text>
<path d="M57.1929,310.657v -276.14" fill="none" stroke="black"/>
<path d="M70.7992,310.657h -13.6063" fill="none" stroke="black"/>
<path d="M63.9961,303.246h -6.80315" fill="none" stroke="black"/>
<path d="M63.9961,295.834h -6.80315" fill="none" stroke="black"/>
<path d="M63.9961,288.423h -6.80315" fill="none" stroke="black"/>
<path d="M63.9961,281.011h -6.80315" fill="none" stroke="black"/>
<path d="M70.7992,273.6h -13.6063" fill="none" stroke="black"/>
<path d="M63.9961,266.189h -6.80315" fill="none" stroke="black"/>
<path d="M63.9961,258.777h -6.80315" fill="none" stroke="black"/>
<path d="M63.9961,251.366h -6.80315" fill="none" stroke="black"/>
<path d="M63.9961,243.954h -6.80315" fill="none" stroke="black"/>
<path d="M70.7992,236.543h -13.6063" fill="none" stroke="black"/>
<path d="M63.9961,229.131h -6.80315" fill="none" stroke="black"/>
<path d="M63.9961,221.72h -6.80315" fill="none" stroke="black"/>
<path d="M63.9961,214.309h -6.80315" fill="none" stroke="black"/>
<path d="M63.9961,206.897h -6.80315" fill="none" stroke="black"/>
<path d="M70.7992,199.486h -13.6063" fill="none" stroke="black"/>
<path d="M63.9961,192.074h -6.80315" fill="none" stroke="black"/>
<path d="M63.9961,184.663h -6.80315" fill="none" stroke="black"/>
<path d="M63.9961,177.251h -6.80315" fill="none" stroke="black"/>
<path d="M63.9961,169.84h -6.80315" fill="none" stroke="black"/>
<path d="M70.7992,162.429h -13.6063" fill="none" stroke="black"/>
<path d="M63.9961,155.017h -6.80315" fill="none" stroke="black"/>
<path d="M63.9961,147.606h -6.80315" fill="none" stroke="black"/>
<path d="M63.9961,140.194h -6.80315" fill="none" stroke="black"/>
<path d="M63.9961,132.783h -6.80315" fill="none" stroke="black"/>
<path d="M70.7992,125.371h -13.6063" fill="none" stroke="black"/>
<path d="M63.9961,117.96h -6.80315" fill="none" stroke="black"/>
<path d="M63.9961,110.549h -6.80315" fill="none" stroke="black"/>
<path d="M63.9961,103.137h -6.80315" fill="none" stroke="black"/>
<path d="M63.9961,95.7257h -6.80315" fill="none" stroke="black"/>
<path d="M70.7992,88.3143h -13.6063" fill="none" stroke="black"/>
<path d="M63.9961,80.9028h -6.80315" fill="none" stroke="black"/>
<path d="M63.9961,73.4914h -6.80315" fill="none" stroke="black"/>
<path d="M63.9961,66.08h -6.80315" fill="none" stroke="black"/>
<path d="M63.9961,58.6686h -6.80315" fill="none" stroke="black"/>
<path d="M70.7992,51.2571h -13.6063" fill="none" stroke="black"/>
<path d="M70.7992,51.2571h -13.6063" fill="none" stroke="black"/>
<path d="M63.9961,43.8457h -6.80315" fill="none" stroke="black"/>
<path d="M63.9961,36.4343h -6.80315" fill="none" stroke="black"/>
<text xml:space="preserve" x="44.6502" y="316.076" fill="black" font-size="16.3337" font-family="Helvetica">0</text>
<text xml:space="preserve" x="27.5922" y="278.949" fill="black" font-size="16.3337" font-family="Helvetica">500</text>
<text xml:space="preserve" x="18.5615" y="241.823" fill="black" font-size="16.3337" font-family="Helvetica">1000</text>
<text xml:space="preserve" x="18.5615" y="204.697" fill="black" font-size="16.3337" font-family="Helvetica">1500</text>
<text xml:space="preserve" x="18.5615" y="167.57" fill="black" font-size="16.3337" font-family="Helvetica">2000</text>
<text xml:space="preserve" x="18.5615" y="130.444" fill="black" font-size="16.3337" font-family="Helvetica">2500</text>
<text xml:space="preserve" x="18.5615" y="94.321" fill="black" font-size="16.3337" font-family="Helvetica">3000</text>
<text xml:space="preserve" x="18.5615" y="57.1946" fill="black" font-size="16.3337" font-family="Helvetica">3500</text>
<text xml:space="preserve" x="83.7834" y="23.0785" fill="black" font-size="11.0558" font-family="Helvetica">3</text>
<text xml:space="preserve" x="65.7219" y="32.1093" fill="black" font-size="16.3337" font-family="Helvetica">10</text>
<text xml:space="preserve" x="56.6912" y="32.1093" fill="black" font-size="16.3337" font-family="Times">&#0215;</text>
<path d="M57.1929,310.657h 124.502v -3.20098h 17.786v -56.8067h 17.786v 7.45007h 17.786v -19.4577h 17.786v -134.163h 17.786v -43.0311h 17.786v 65.2638h 17.786v -16.1862h 17.786v -4.95241h 17.786v -32.4907h 17.786v 89.3261h 17.786v 2.20949h 17.786v
 19.3978h 17.786v -2.44357h 17.786v -19.9428h 4.4465v 85.9316h 4.4465v 29.5386h 4.4465v -63.1576h 4.4465v 21.7239h 4.4465v -56.6353h 4.4465v 9.44763h 4.4465v 89.7366h 4.4465v -51.1132h 4.4465v 0.0166109h 4.4465v 29.1717h 4.4465v -18.7162h 4.4465v
 -123.445h 4.4465v 184.687h 4.4465v -17.9876h 4.4465v -8.69871h 4.4465v 3.02292h 4.4465v 35.5053" fill="none" stroke="black" stroke-width="3"/></svg>
