<?xml version="1.0" standalone="no"?>
<svg width="567.429" height="384.68" viewBox="0 0 567.429 384.68" xmlns="http://www.w3.org/2000/svg" shape-rendering="crispEdges">
<title>
/u/home/ltracy/Root_work/01-18-19/56Fe_4461.svg
</title>
<desc>
Creator: ROOT Version 6.10/02
CreationDate: Mon Nov  4 09:57:54 2019</desc>
<defs>
</defs>
<rect x="0.5" y="0" width="566.929" height="384.18" fill="white"/>
<rect x="57.1929" y="38.418" width="453.543" height="307.344" fill="white"/>
<rect x="57.1929" y="38.418" width="453.543" height="307.344" fill="none" stroke="black"/>
<rect x="57.1929" y="38.418" width="453.543" height="307.344" fill="white"/>
<rect x="57.1929" y="38.418" width="453.543" height="307.344" fill="none" stroke="black"/>
<path d="M57.1929,345.762h 90.7087v -6.177h 2.26772v 5.03783h 2.26772v -5.60779h 2.26772v -5.64326h 2.26772v 5.07547h 2.26772v -2.89534h 2.26772v -23.9246h 2.26772v 0.0727672h 2.26772v 2.61487h 2.26772v -20.162h 2.26772v -1.45631h 2.26772v -20.5442h
 2.26772v -33.3236h 2.26772v 20.7887h 2.26772v -16.9698h 2.26772v 3.05767h 2.26772v 23.5049h 2.26772v -28.7101h 2.26772v -46.3919h 2.26772v 24.8395h 2.26772v -49.1636h 2.26772v 12.6002h 2.26772v 4.15206h 2.26772v -21.0548h 2.26772v -8.38937h 2.26772v
 -10.7563h 2.26772v 22.9896h 2.26772v -5.03899h 2.26772v -35.0987h 2.26772v 7.49516h 2.26772v -57.3076h 2.26772v 43.7954h 2.26772v 64.6208h 2.26772v -35.8845h 2.26772v -22.6094h 2.26772v -33.0512h 2.26772v 34.0541h 2.26772v -27.5763h 2.26772v
 -3.96426h 2.26772v 27.3408h 2.26772v -30.8521h 2.26772v 37.4125h 2.26772v -22.5366h 2.26772v 25.2278h 2.26772v 11.7325h 2.26772v -32.4069h 2.26772v -61.6246h 2.26772v 65.137h 2.26772v -18.9042h 2.26772v 21.3025h 2.26772v -22.8904h 2.26772v 43.324h
 2.26772v -5.63101h 2.26772v -20.3432h 2.26772v 1.74335h 2.26772v 6.90663h 2.26772v 6.78878h 2.26772v 3.74048h 2.26772v 28.1261h 2.26772v -14.775h 2.26772v -35.9902h 2.26772v 14.3141h 2.26772v 23.6325h 2.26772v -9.13352h 2.26772v -2.862h 2.26772v
 -18.7289h 2.26772v 27.2188h 2.26772v -5.76963h 2.26772v 17.5954h 2.26772v 26.4283h 2.26772v -19.0974h 2.26772v -13.7867h 2.26772v 7.90004h 2.26772v -15.4512h 2.26772v 27.1415h 2.26772v 4.38763h 2.26772v 6.26268h 2.26772v -15.227h 2.26772v 3.24649h
 2.26772v 26.3556h 2.26772v -6.53928h 2.26772v -4.16997h 2.26772v -10.0815h 2.26772v 30.2834h 2.26772v -24.9833h 2.26772v 6.234h 2.26772v -18.5208h 2.26772v 42.4205h 2.26772v -2.84183h 2.26772v 12.8136h 2.26772v 2.88814h 2.26772v 3.49321h 2.26772v
 -4.15982h 2.26772v 20.2334h 2.26772v -10.8338h 2.26772v 6.87384h 2.26772v -5.66264h 2.26772v 23.8061h 2.26772v -2.92647h 2.26772v 7.56609h 2.26772v -7.53557h 2.26772v -8.04311h 2.26772v 26.3583h 2.26772v 11.7474h 2.26772v -24.3662h 2.26772v
 -69.7769h 2.26772v -27.215h 2.26772v -68.1024h 2.26772v 80.3425h 2.26772v 115.956h 2.26772v 36.2559h 2.26772v 17.3395h 2.26772v 0.894133h 6.80315v -0.568659h 2.26772v 0.568659h 58.9606v -3.3186h 2.26772v 3.3186h 38.5512" fill="none" stroke="#000099"
 stroke-width="5"/>
<path d="M57.1929,345.762h 453.543" fill="none" stroke="black"/>
<path d="M57.1929,336.541v 9.22031" fill="none" stroke="black"/>
<path d="M72.311,341.152v 4.61016" fill="none" stroke="black"/>
<path d="M87.4291,341.152v 4.61016" fill="none" stroke="black"/>
<path d="M102.547,341.152v 4.61016" fill="none" stroke="black"/>
<path d="M117.665,341.152v 4.61016" fill="none" stroke="black"/>
<path d="M132.783,336.541v 9.22031" fill="none" stroke="black"/>
<path d="M147.902,341.152v 4.61016" fill="none" stroke="black"/>
<path d="M163.02,341.152v 4.61016" fill="none" stroke="black"/>
<path d="M178.138,341.152v 4.61016" fill="none" stroke="black"/>
<path d="M193.256,341.152v 4.61016" fill="none" stroke="black"/>
<path d="M208.374,336.541v 9.22031" fill="none" stroke="black"/>
<path d="M223.492,341.152v 4.61016" fill="none" stroke="black"/>
<path d="M238.61,341.152v 4.61016" fill="none" stroke="black"/>
<path d="M253.728,341.152v 4.61016" fill="none" stroke="black"/>
<path d="M268.846,341.152v 4.61016" fill="none" stroke="black"/>
<path d="M283.965,336.541v 9.22031" fill="none" stroke="black"/>
<path d="M299.083,341.152v 4.61016" fill="none" stroke="black"/>
<path d="M314.201,341.152v 4.61016" fill="none" stroke="black"/>
<path d="M329.319,341.152v 4.61016" fill="none" stroke="black"/>
<path d="M344.437,341.152v 4.61016" fill="none" stroke="black"/>
<path d="M359.555,336.541v 9.22031" fill="none" stroke="black"/>
<path d="M374.673,341.152v 4.61016" fill="none" stroke="black"/>
<path d="M389.791,341.152v 4.61016" fill="none" stroke="black"/>
<path d="M404.909,341.152v 4.61016" fill="none" stroke="black"/>
<path d="M420.028,341.152v 4.61016" fill="none" stroke="black"/>
<path d="M435.146,336.541v 9.22031" fill="none" stroke="black"/>
<path d="M450.264,341.152v 4.61016" fill="none" stroke="black"/>
<path d="M465.382,341.152v 4.61016" fill="none" stroke="black"/>
<path d="M480.5,341.152v 4.61016" fill="none" stroke="black"/>
<path d="M495.618,341.152v 4.61016" fill="none" stroke="black"/>
<path d="M510.736,336.541v 9.22031" fill="none" stroke="black"/>
<text xml:space="preserve" x="51.6698" y="362.25" fill="black" font-size="18.1229" font-family="Helvetica">0</text>
<text xml:space="preserve" x="128.831" y="362.25" fill="black" font-size="18.1229" font-family="Helvetica">1</text>
<text xml:space="preserve" x="202.743" y="362.25" fill="black" font-size="18.1229" font-family="Helvetica">2</text>
<text xml:space="preserve" x="279.091" y="362.25" fill="black" font-size="18.1229" font-family="Helvetica">3</text>
<text xml:space="preserve" x="354.628" y="362.25" fill="black" font-size="18.1229" font-family="Helvetica">4</text>
<text xml:space="preserve" x="430.164" y="362.25" fill="black" font-size="18.1229" font-family="Helvetica">5</text>
<text xml:space="preserve" x="505.7" y="362.25" fill="black" font-size="18.1229" font-family="Helvetica">6</text>
<path d="M57.1929,345.762v -307.344" fill="none" stroke="black"/>
<path d="M70.7992,345.762h -13.6063" fill="none" stroke="black"/>
<path d="M63.9961,337.926h -6.80315" fill="none" stroke="black"/>
<path d="M63.9961,330.091h -6.80315" fill="none" stroke="black"/>
<path d="M63.9961,322.255h -6.80315" fill="none" stroke="black"/>
<path d="M70.7992,314.419h -13.6063" fill="none" stroke="black"/>
<path d="M63.9961,306.584h -6.80315" fill="none" stroke="black"/>
<path d="M63.9961,298.748h -6.80315" fill="none" stroke="black"/>
<path d="M63.9961,290.912h -6.80315" fill="none" stroke="black"/>
<path d="M70.7992,283.077h -13.6063" fill="none" stroke="black"/>
<path d="M63.9961,275.241h -6.80315" fill="none" stroke="black"/>
<path d="M63.9961,267.406h -6.80315" fill="none" stroke="black"/>
<path d="M63.9961,259.57h -6.80315" fill="none" stroke="black"/>
<path d="M70.7992,251.734h -13.6063" fill="none" stroke="black"/>
<path d="M63.9961,243.899h -6.80315" fill="none" stroke="black"/>
<path d="M63.9961,236.063h -6.80315" fill="none" stroke="black"/>
<path d="M63.9961,228.227h -6.80315" fill="none" stroke="black"/>
<path d="M70.7992,220.392h -13.6063" fill="none" stroke="black"/>
<path d="M63.9961,212.556h -6.80315" fill="none" stroke="black"/>
<path d="M63.9961,204.721h -6.80315" fill="none" stroke="black"/>
<path d="M63.9961,196.885h -6.80315" fill="none" stroke="black"/>
<path d="M70.7992,189.049h -13.6063" fill="none" stroke="black"/>
<path d="M63.9961,181.214h -6.80315" fill="none" stroke="black"/>
<path d="M63.9961,173.378h -6.80315" fill="none" stroke="black"/>
<path d="M63.9961,165.543h -6.80315" fill="none" stroke="black"/>
<path d="M70.7992,157.707h -13.6063" fill="none" stroke="black"/>
<path d="M63.9961,149.871h -6.80315" fill="none" stroke="black"/>
<path d="M63.9961,142.036h -6.80315" fill="none" stroke="black"/>
<path d="M63.9961,134.2h -6.80315" fill="none" stroke="black"/>
<path d="M70.7992,126.364h -13.6063" fill="none" stroke="black"/>
<path d="M63.9961,118.529h -6.80315" fill="none" stroke="black"/>
<path d="M63.9961,110.693h -6.80315" fill="none" stroke="black"/>
<path d="M63.9961,102.858h -6.80315" fill="none" stroke="black"/>
<path d="M70.7992,95.0219h -13.6063" fill="none" stroke="black"/>
<path d="M63.9961,87.1863h -6.80315" fill="none" stroke="black"/>
<path d="M63.9961,79.3507h -6.80315" fill="none" stroke="black"/>
<path d="M63.9961,71.5151h -6.80315" fill="none" stroke="black"/>
<path d="M70.7992,63.6794h -13.6063" fill="none" stroke="black"/>
<path d="M70.7992,63.6794h -13.6063" fill="none" stroke="black"/>
<path d="M63.9961,55.8438h -6.80315" fill="none" stroke="black"/>
<path d="M63.9961,48.0082h -6.80315" fill="none" stroke="black"/>
<path d="M63.9961,40.1726h -6.80315" fill="none" stroke="black"/>
<text xml:space="preserve" x="44.3598" y="351.691" fill="black" font-size="18.1229" font-family="Helvetica">0</text>
<text xml:space="preserve" x="34.6132" y="320.827" fill="black" font-size="18.1229" font-family="Helvetica">20</text>
<text xml:space="preserve" x="34.6132" y="289.15" fill="black" font-size="18.1229" font-family="Helvetica">40</text>
<text xml:space="preserve" x="34.6132" y="257.474" fill="black" font-size="18.1229" font-family="Helvetica">60</text>
<text xml:space="preserve" x="34.6132" y="226.609" fill="black" font-size="18.1229" font-family="Helvetica">80</text>
<text xml:space="preserve" x="24.8666" y="194.933" fill="black" font-size="18.1229" font-family="Helvetica">100</text>
<text xml:space="preserve" x="24.8666" y="164.068" fill="black" font-size="18.1229" font-family="Helvetica">120</text>
<text xml:space="preserve" x="24.8666" y="132.392" fill="black" font-size="18.1229" font-family="Helvetica">140</text>
<text xml:space="preserve" x="24.8666" y="100.715" fill="black" font-size="18.1229" font-family="Helvetica">160</text>
<text xml:space="preserve" x="24.8666" y="69.8509" fill="black" font-size="18.1229" font-family="Helvetica">180</text>
<text xml:space="preserve" x="85.783" y="26.8032" fill="black" font-size="12.2486" font-family="Helvetica">3</text>
<text xml:space="preserve" x="66.2898" y="35.7377" fill="black" font-size="18.1229" font-family="Helvetica">10</text>
<text xml:space="preserve" x="56.5431" y="35.7377" fill="black" font-size="18.1229" font-family="Times">&#0215;</text>
<path d="M57.1929,345.762h 88.4409v -0.0809699h 2.26772v -14.5338h 2.26772v 14.6148h 6.80315v -7.09508h 2.26772v 7.09508h 4.53543v -38.2386h 2.26772v 34.1011h 2.26772v 4.13753h 4.53543v -40.0088h 2.26772v 24.3094h 2.26772v -0.493753h 2.26772v
 -51.217h 2.26772v 67.4102h 2.26772v -25.5014h 2.26772v 25.5014h 2.26772v -34.2531h 2.26772v 34.2531h 4.53543v -55.9004h 2.26772v 13.9492h 2.26772v 41.9513h 2.26772v -10.495h 2.26772v 0.0879174h 2.26772v 10.4071h 6.80315v -307.344" fill="none"
 stroke="black" stroke-width="5"/>
<path d="M215.933,38.418v 228.038" fill="none" stroke="black" stroke-width="5"/>
<path d="M215.933,266.456h 2.26772v 26.1787h 2.26772v 53.1272h 6.80315v -8.57496h 2.26772v 8.57496h 2.26772v -144.468h 2.26772v 144.468h 11.3386v -41.2164h 2.26772v 41.2164h 2.26772v -0.123318h 2.26772v -135.308h 2.26772v 87.8494h 2.26772v -131.829h
 2.26772v 179.411h 2.26772v -36.0252h 2.26772v 36.0252h 2.26772v -11.4701h 2.26772v -11.8571h 2.26772v -107.616h 2.26772v 130.943h 6.80315v -105.155h 2.26772v 100.381h 2.26772v 4.77472h 6.80315v -53.7176h 2.26772v 53.7176h 2.26772v -1.86196h 2.26772v
 1.86196h 2.26772v -12.4951h 2.26772v -56.6494h 2.26772v 23.8503h 2.26772v 45.2942h 4.53543v -23.4951h 2.26772v -23.8901h 2.26772v 47.3853h 2.26772v -60.4109h 2.26772v 24.2736h 2.26772v -29.3688h 2.26772v 31.3367h 2.26772v 6.37666h 2.26772v -8.98681h
 2.26772v -30.7067h 2.26772v 16.7992h 2.26772v -1.39778h 2.26772v 7.55626h 2.26772v 44.5286h 2.26772v -109.779h 2.26772v 4.15467h 2.26772v 61.4916h 2.26772v -11.5267h 2.26772v 55.659h 2.26772v -34.2133h 2.26772v -41.3381h 2.26772v 16.1835h 2.26772v
 -5.50103h 2.26772v 38.3137h 2.26772v -47.7461h 2.26772v 24.4472h 2.26772v -15.2277h 2.26772v 16.4743h 2.26772v -22.6545h 2.26772v -3.27844h 2.26772v 15.4282h 2.26772v 19.9211h 2.26772v -37.3297h 2.26772v -61.0324h 2.26772v -34.3605h 2.26772v
 -62.6399h 2.26772v 65.5511h 2.26772v 123.044h 2.26772v 27.7246h 2.26772v 18.2336h 9.07087v -0.568659h 2.26772v 0.568659h 58.9606v -3.3186h 2.26772v 3.3186h 38.5512" fill="none" stroke="black" stroke-width="5"/></svg>
