<?xml version="1.0" encoding="UTF-8" standalone="no"?>
<svg
   xmlns:dc="http://purl.org/dc/elements/1.1/"
   xmlns:cc="http://creativecommons.org/ns#"
   xmlns:rdf="http://www.w3.org/1999/02/22-rdf-syntax-ns#"
   xmlns:svg="http://www.w3.org/2000/svg"
   xmlns="http://www.w3.org/2000/svg"
   xmlns:sodipodi="http://sodipodi.sourceforge.net/DTD/sodipodi-0.dtd"
   xmlns:inkscape="http://www.inkscape.org/namespaces/inkscape"
   width="567.429"
   height="385.492"
   viewBox="0 0 567.429 385.492"
   shape-rendering="crispEdges"
   version="1.1"
   id="svg248"
   sodipodi:docname="56Fe_2261_pipl.svg"
   inkscape:export-filename="C:\Users\eggne\Documents\Thesis\56Fe_2261_pipl.png"
   inkscape:export-xdpi="96"
   inkscape:export-ydpi="96"
   inkscape:version="0.92.4 (5da689c313, 2019-01-14)">
  <metadata
     id="metadata252">
    <rdf:RDF>
      <cc:Work
         rdf:about="">
        <dc:format>image/svg+xml</dc:format>
        <dc:type
           rdf:resource="http://purl.org/dc/dcmitype/StillImage" />
      </cc:Work>
    </rdf:RDF>
  </metadata>
  <sodipodi:namedview
     pagecolor="#ffffff"
     bordercolor="#666666"
     borderopacity="1"
     objecttolerance="10"
     gridtolerance="10"
     guidetolerance="10"
     inkscape:pageopacity="0"
     inkscape:pageshadow="2"
     inkscape:window-width="1920"
     inkscape:window-height="1001"
     id="namedview250"
     showgrid="false"
     inkscape:zoom="1.6897916"
     inkscape:cx="240.60571"
     inkscape:cy="175.62023"
     inkscape:window-x="-9"
     inkscape:window-y="-9"
     inkscape:window-maximized="1"
     inkscape:current-layer="svg248" />
  <title
     id="title2">
/mnt/c/Users/eggne/Documents/01-18-19/56Fe_2261_pipl.svg
</title>
  <desc
     id="desc4">
Creator: ROOT Version 6.18/04
CreationDate: Thu Jan 16 13:13:49 2020</desc>
  <defs
     id="defs6" />
  <rect
     x="0.5"
     y="0"
     width="566.929"
     height="384.992"
     fill="white"
     id="rect8" />
  <rect
     x="57.1929"
     y="38.4992"
     width="453.543"
     height="307.994"
     fill="white"
     id="rect10" />
  <rect
     x="57.1929"
     y="38.4992"
     width="453.543"
     height="307.994"
     fill="none"
     stroke="black"
     id="rect12" />
  <rect
     x="57.1929"
     y="38.4992"
     width="453.543"
     height="307.994"
     fill="white"
     id="rect14" />
  <rect
     x="57.1929"
     y="38.4992"
     width="453.543"
     height="307.994"
     fill="none"
     stroke="black"
     id="rect16" />
  <path
     d="M57.1929,331.196h 96.4986v -0.143249h 3.21662v -7.37457h 3.21662v 7.39033h 3.21662v -4.55278h 3.21662v -2.64736h 3.21662v 4.54435h 3.21662v -8.10527h 3.21662v -31.4387h 3.21662v 12.4699h 3.21662v -10.359h 3.21662v 27.0119h 3.21662v -19.5328h  3.21662v -26.857h 3.21662v 0.41236h 3.21662v 7.11469h 3.21662v -17.351h 3.21662v 1.33831h 3.21662v -26.5439h 3.21662v -15.3187h 3.21662v 8.42164h 3.21662v -9.98546h 3.21662v 9.46496h 3.21662v -49.1821h 3.21662v 24.4824h 3.21662v -55.6602h 3.21662v  25.01h 3.21662v -42.715h 3.21662v 0.41562h 3.21662v 40.5053h 3.21662v -40.1751h 3.21662v 48.029h 3.21662v -69.4264h 3.21662v 10.9725h 3.21662v -24.4362h 3.21662v 10.4798h 3.21662v -32.9269h 3.21662v 3.52953h 3.21662v -4.50864h 3.21662v -20.3822h  3.21662v 36.8291h 3.21662v 0.246384h 3.21662v -19.6133h 3.21662v -3.14691h 3.21662v 1.70675h 3.21662v 21.4714h 3.21662v -35.6077h 3.21662v 24.5744h 3.21662v 20.6561h 3.21662v 3.3762h 3.21662v 12.9958h 3.21662v 13.0582h 3.21662v 9.65172h 3.21662v  12.7326h 3.21662v 17.3204h 3.21662v 22.9926h 3.21662v 23.0223h 3.21662v 29.6594h 3.21662v 14.7238h 3.21662v 28.7784h 3.21662v 19.958h 3.21662v 16.6616h 3.21662v 1.34022h 3.21662v 3.41246h 3.21662v -0.555809h 3.21662v 0.815114h 3.21662v 0.581157h  3.21662v -4.24678h 3.21662v 4.42216h 3.21662v -1.63496h 3.21662v 0.8221h 3.21662v 0.300406h 3.21662v -0.347114h 3.21662v 1.07404h 3.21662v -1.3448h 3.21662v 1.18072h 3.21662v 0.164079h 3.21662v -2.61337h 3.21662v 3.94247h 3.21662v -1.3291h 3.21662v  -3.19084h 3.21662v 4.49186h 3.21662v -1.30102h 3.21662v -0.604533h 3.21662v 0.452044h 3.21662v 0.152489h 38.5994v 0.458149h 3.21662v -0.458149h 45.0327"
     fill="none"
     stroke="#000099"
     stroke-width="3"
     id="path18" />
  <path
     d="M57.1929,346.493h 453.543"
     fill="none"
     stroke="black"
     id="path20" />
  <path
     d="M57.1929,337.253v 9.23981"
     fill="none"
     stroke="black"
     id="path22" />
  <path
     d="M70.0594,341.873v 4.6199"
     fill="none"
     stroke="black"
     id="path24" />
  <path
     d="M82.9259,341.873v 4.6199"
     fill="none"
     stroke="black"
     id="path26" />
  <path
     d="M95.7923,341.873v 4.6199"
     fill="none"
     stroke="black"
     id="path28" />
  <path
     d="M108.659,341.873v 4.6199"
     fill="none"
     stroke="black"
     id="path30" />
  <path
     d="M121.525,337.253v 9.23981"
     fill="none"
     stroke="black"
     id="path32" />
  <path
     d="M134.392,341.873v 4.6199"
     fill="none"
     stroke="black"
     id="path34" />
  <path
     d="M147.258,341.873v 4.6199"
     fill="none"
     stroke="black"
     id="path36" />
  <path
     d="M160.125,341.873v 4.6199"
     fill="none"
     stroke="black"
     id="path38" />
  <path
     d="M172.991,341.873v 4.6199"
     fill="none"
     stroke="black"
     id="path40" />
  <path
     d="M185.858,337.253v 9.23981"
     fill="none"
     stroke="black"
     id="path42" />
  <path
     d="M198.724,341.873v 4.6199"
     fill="none"
     stroke="black"
     id="path44" />
  <path
     d="M211.591,341.873v 4.6199"
     fill="none"
     stroke="black"
     id="path46" />
  <path
     d="M224.457,341.873v 4.6199"
     fill="none"
     stroke="black"
     id="path48" />
  <path
     d="M237.324,341.873v 4.6199"
     fill="none"
     stroke="black"
     id="path50" />
  <path
     d="M250.19,337.253v 9.23981"
     fill="none"
     stroke="black"
     id="path52" />
  <path
     d="M263.057,341.873v 4.6199"
     fill="none"
     stroke="black"
     id="path54" />
  <path
     d="M275.923,341.873v 4.6199"
     fill="none"
     stroke="black"
     id="path56" />
  <path
     d="M288.789,341.873v 4.6199"
     fill="none"
     stroke="black"
     id="path58" />
  <path
     d="M301.656,341.873v 4.6199"
     fill="none"
     stroke="black"
     id="path60" />
  <path
     d="M314.522,337.253v 9.23981"
     fill="none"
     stroke="black"
     id="path62" />
  <path
     d="M327.389,341.873v 4.6199"
     fill="none"
     stroke="black"
     id="path64" />
  <path
     d="M340.255,341.873v 4.6199"
     fill="none"
     stroke="black"
     id="path66" />
  <path
     d="M353.122,341.873v 4.6199"
     fill="none"
     stroke="black"
     id="path68" />
  <path
     d="M365.988,341.873v 4.6199"
     fill="none"
     stroke="black"
     id="path70" />
  <path
     d="M378.855,337.253v 9.23981"
     fill="none"
     stroke="black"
     id="path72" />
  <path
     d="M391.721,341.873v 4.6199"
     fill="none"
     stroke="black"
     id="path74" />
  <path
     d="M404.588,341.873v 4.6199"
     fill="none"
     stroke="black"
     id="path76" />
  <path
     d="M417.454,341.873v 4.6199"
     fill="none"
     stroke="black"
     id="path78" />
  <path
     d="M430.321,341.873v 4.6199"
     fill="none"
     stroke="black"
     id="path80" />
  <path
     d="M443.187,337.253v 9.23981"
     fill="none"
     stroke="black"
     id="path82" />
  <path
     d="M456.054,341.873v 4.6199"
     fill="none"
     stroke="black"
     id="path84" />
  <path
     d="M468.92,341.873v 4.6199"
     fill="none"
     stroke="black"
     id="path86" />
  <path
     d="M481.787,341.873v 4.6199"
     fill="none"
     stroke="black"
     id="path88" />
  <path
     d="M494.653,341.873v 4.6199"
     fill="none"
     stroke="black"
     id="path90" />
  <path
     d="M507.52,337.253v 9.23981"
     fill="none"
     stroke="black"
     id="path92" />
  <path
     d="M507.52,337.253v 9.23981"
     fill="none"
     stroke="black"
     id="path94" />
  <text
     xml:space="preserve"
     x="51.6698"
     y="363.062"
     fill="black"
     font-size="18.1602"
     font-family="Helvetica"
     id="text96">0</text>
  <text
     xml:space="preserve"
     x="109.337"
     y="363.062"
     fill="black"
     font-size="18.1602"
     font-family="Helvetica"
     id="text98">0.5</text>
  <text
     xml:space="preserve"
     x="182.437"
     y="363.062"
     fill="black"
     font-size="18.1602"
     font-family="Helvetica"
     id="text100">1</text>
  <text
     xml:space="preserve"
     x="237.668"
     y="363.062"
     fill="black"
     font-size="18.1602"
     font-family="Helvetica"
     id="text102">1.5</text>
  <text
     xml:space="preserve"
     x="309.143"
     y="363.062"
     fill="black"
     font-size="18.1602"
     font-family="Helvetica"
     id="text104">2</text>
  <text
     xml:space="preserve"
     x="365.999"
     y="363.062"
     fill="black"
     font-size="18.1602"
     font-family="Helvetica"
     id="text106">2.5</text>
  <text
     xml:space="preserve"
     x="438.286"
     y="363.062"
     fill="black"
     font-size="18.1602"
     font-family="Helvetica"
     id="text108">3</text>
  <text
     xml:space="preserve"
     x="495.142"
     y="363.062"
     fill="black"
     font-size="18.1602"
     font-family="Helvetica"
     id="text110">3.5</text>
  <text
     xml:space="preserve"
     x="448.845"
     y="382.555"
     fill="black"
     font-size="18.1602"
     font-family="Helvetica"
     id="text112">E [GeV]</text>
  <path
     d="M57.1929,346.493v -307.994"
     fill="none"
     stroke="black"
     id="path114" />
  <path
     d="M70.7992,331.196h -13.6063"
     fill="none"
     stroke="black"
     id="path116" />
  <path
     d="M63.9961,324.996h -6.80315"
     fill="none"
     stroke="black"
     id="path118" />
  <path
     d="M63.9961,318.796h -6.80315"
     fill="none"
     stroke="black"
     id="path120" />
  <path
     d="M63.9961,312.596h -6.80315"
     fill="none"
     stroke="black"
     id="path122" />
  <path
     d="M63.9961,306.397h -6.80315"
     fill="none"
     stroke="black"
     id="path124" />
  <path
     d="M70.7992,300.197h -13.6063"
     fill="none"
     stroke="black"
     id="path126" />
  <path
     d="M63.9961,293.997h -6.80315"
     fill="none"
     stroke="black"
     id="path128" />
  <path
     d="M63.9961,287.797h -6.80315"
     fill="none"
     stroke="black"
     id="path130" />
  <path
     d="M63.9961,281.597h -6.80315"
     fill="none"
     stroke="black"
     id="path132" />
  <path
     d="M63.9961,275.397h -6.80315"
     fill="none"
     stroke="black"
     id="path134" />
  <path
     d="M70.7992,269.198h -13.6063"
     fill="none"
     stroke="black"
     id="path136" />
  <path
     d="M63.9961,262.998h -6.80315"
     fill="none"
     stroke="black"
     id="path138" />
  <path
     d="M63.9961,256.798h -6.80315"
     fill="none"
     stroke="black"
     id="path140" />
  <path
     d="M63.9961,250.598h -6.80315"
     fill="none"
     stroke="black"
     id="path142" />
  <path
     d="M63.9961,244.398h -6.80315"
     fill="none"
     stroke="black"
     id="path144" />
  <path
     d="M70.7992,238.199h -13.6063"
     fill="none"
     stroke="black"
     id="path146" />
  <path
     d="M63.9961,231.999h -6.80315"
     fill="none"
     stroke="black"
     id="path148" />
  <path
     d="M63.9961,225.799h -6.80315"
     fill="none"
     stroke="black"
     id="path150" />
  <path
     d="M63.9961,219.599h -6.80315"
     fill="none"
     stroke="black"
     id="path152" />
  <path
     d="M63.9961,213.399h -6.80315"
     fill="none"
     stroke="black"
     id="path154" />
  <path
     d="M70.7992,207.2h -13.6063"
     fill="none"
     stroke="black"
     id="path156" />
  <path
     d="M63.9961,201h -6.80315"
     fill="none"
     stroke="black"
     id="path158" />
  <path
     d="M63.9961,194.8h -6.80315"
     fill="none"
     stroke="black"
     id="path160" />
  <path
     d="M63.9961,188.6h -6.80315"
     fill="none"
     stroke="black"
     id="path162" />
  <path
     d="M63.9961,182.4h -6.80315"
     fill="none"
     stroke="black"
     id="path164" />
  <path
     d="M70.7992,176.201h -13.6063"
     fill="none"
     stroke="black"
     id="path166" />
  <path
     d="M63.9961,170.001h -6.80315"
     fill="none"
     stroke="black"
     id="path168" />
  <path
     d="M63.9961,163.801h -6.80315"
     fill="none"
     stroke="black"
     id="path170" />
  <path
     d="M63.9961,157.601h -6.80315"
     fill="none"
     stroke="black"
     id="path172" />
  <path
     d="M63.9961,151.401h -6.80315"
     fill="none"
     stroke="black"
     id="path174" />
  <path
     d="M70.7992,145.202h -13.6063"
     fill="none"
     stroke="black"
     id="path176" />
  <path
     d="M63.9961,139.002h -6.80315"
     fill="none"
     stroke="black"
     id="path178" />
  <path
     d="M63.9961,132.802h -6.80315"
     fill="none"
     stroke="black"
     id="path180" />
  <path
     d="M63.9961,126.602h -6.80315"
     fill="none"
     stroke="black"
     id="path182" />
  <path
     d="M63.9961,120.402h -6.80315"
     fill="none"
     stroke="black"
     id="path184" />
  <path
     d="M70.7992,114.202h -13.6063"
     fill="none"
     stroke="black"
     id="path186" />
  <path
     d="M63.9961,108.003h -6.80315"
     fill="none"
     stroke="black"
     id="path188" />
  <path
     d="M63.9961,101.803h -6.80315"
     fill="none"
     stroke="black"
     id="path190" />
  <path
     d="M63.9961,95.6031h -6.80315"
     fill="none"
     stroke="black"
     id="path192" />
  <path
     d="M63.9961,89.4032h -6.80315"
     fill="none"
     stroke="black"
     id="path194" />
  <path
     d="M70.7992,83.2034h -13.6063"
     fill="none"
     stroke="black"
     id="path196" />
  <path
     d="M63.9961,77.0036h -6.80315"
     fill="none"
     stroke="black"
     id="path198" />
  <path
     d="M63.9961,70.8038h -6.80315"
     fill="none"
     stroke="black"
     id="path200" />
  <path
     d="M63.9961,64.604h -6.80315"
     fill="none"
     stroke="black"
     id="path202" />
  <path
     d="M63.9961,58.4042h -6.80315"
     fill="none"
     stroke="black"
     id="path204" />
  <path
     d="M70.7992,52.2044h -13.6063"
     fill="none"
     stroke="black"
     id="path206" />
  <path
     d="M70.7992,331.196h -13.6063"
     fill="none"
     stroke="black"
     id="path208" />
  <path
     d="M63.9961,337.396h -6.80315"
     fill="none"
     stroke="black"
     id="path210" />
  <path
     d="M63.9961,343.595h -6.80315"
     fill="none"
     stroke="black"
     id="path212" />
  <path
     d="M70.7992,52.2044h -13.6063"
     fill="none"
     stroke="black"
     id="path214" />
  <path
     d="M63.9961,46.0046h -6.80315"
     fill="none"
     stroke="black"
     id="path216" />
  <path
     d="M63.9961,39.8048h -6.80315"
     fill="none"
     stroke="black"
     id="path218" />
  <text
     xml:space="preserve"
     x="44.3598"
     y="337.071"
     fill="black"
     font-size="18.1602"
     font-family="Helvetica"
     id="text220">0</text>
  <text
     xml:space="preserve"
     x="34.6132"
     y="306.207"
     fill="black"
     font-size="18.1602"
     font-family="Helvetica"
     id="text222">50</text>
  <text
     xml:space="preserve"
     x="24.8666"
     y="275.342"
     fill="black"
     font-size="18.1602"
     font-family="Helvetica"
     id="text224">100</text>
  <text
     xml:space="preserve"
     x="24.8666"
     y="244.478"
     fill="black"
     font-size="18.1602"
     font-family="Helvetica"
     id="text226">150</text>
  <text
     xml:space="preserve"
     x="24.8666"
     y="213.614"
     fill="black"
     font-size="18.1602"
     font-family="Helvetica"
     id="text228">200</text>
  <text
     xml:space="preserve"
     x="24.8666"
     y="181.937"
     fill="black"
     font-size="18.1602"
     font-family="Helvetica"
     id="text230">250</text>
  <text
     xml:space="preserve"
     x="24.8666"
     y="151.073"
     fill="black"
     font-size="18.1602"
     font-family="Helvetica"
     id="text232">300</text>
  <text
     xml:space="preserve"
     x="24.8666"
     y="120.208"
     fill="black"
     font-size="18.1602"
     font-family="Helvetica"
     id="text234">350</text>
  <text
     xml:space="preserve"
     x="24.8666"
     y="89.3441"
     fill="black"
     font-size="18.1602"
     font-family="Helvetica"
     id="text236">400</text>
  <text
     xml:space="preserve"
     x="24.8666"
     y="58.4798"
     fill="black"
     font-size="18.1602"
     font-family="Helvetica"
     id="text238">450</text>
  <text
     xml:space="preserve"
     x="85.783"
     y="27.6155"
     fill="black"
     font-size="12.2735"
     font-family="Helvetica"
     id="text240">3</text>
  <text
     xml:space="preserve"
     x="66.2898"
     y="36.5499"
     fill="black"
     font-size="18.1602"
     font-family="Helvetica"
     id="text242">10</text>
  <text
     xml:space="preserve"
     x="56.5431"
     y="36.5499"
     fill="black"
     font-size="18.1602"
     font-family="Times"
     id="text244">×</text>
  <path
     d="M57.1929,331.196h 128.665v -0.791453h 3.21662v -7.14363h 3.21662v -12.3737h 3.21662v -23.2306h 3.21662v -30.2644h 3.21662v 1.51528h 3.21662v -0.614968h 3.21662v -50.5745h 3.21662v -7.35205h 3.21662v 5.28412h 3.21662v 1.14128h 3.21662v  16.803h 3.21662v -23.0349h 3.21662v 1.87939h 3.21662v -34.8203h 3.21662v 8.20921h 3.21662v -21.2096h 3.21662v 23.9596h 3.21662v -16.5274h 3.21662v 13.2835h 3.21662v -24.034h 3.21662v -48.5963h 3.21662v -23.6106h 3.21662v 35.9971h 3.21662v 34.2862h  3.21662v 8.64612h 3.21662v 19.4901h 3.21662v -45.2849h 3.21662v 18.6244h 3.21662v 18.2149h 3.21662v -27.8654h 3.21662v 6.28412h 3.21662v 19.0317h 3.21662v -24.9807h 3.21662v 3.07416h 3.21662v 11.2123h 3.21662v -0.506331h 3.21662v 17.5314h 3.21662v  5.7644h 3.21662v 19.3853h 3.21662v -16.8713h 3.21662v 2.62935h 3.21662v 8.99761h 3.21662v -1.48219h 3.21662v 19.3745h 3.21662v 15.625h 3.21662v -32.2063h 3.21662v 14.1974h 3.21662v 5.80545h 3.21662v -0.658933h 3.21662v 15.3147h 3.21662v 16.1529h  3.21662v 5.62188h 3.21662v 2.78622h 3.21662v 8.76333h 3.21662v -17.2386h 3.21662v -0.810983h 3.21662v 3.98324h 3.21662v 44.2914h 3.21662v -3.61152h 3.21662v -13.6372h 3.21662v 9.77524h 3.21662v -5.82445h 3.21662v 1.23541h 3.21662v 6.3h 3.21662v  16.4146h 3.21662v -1.2697h 3.21662v 6.33241h 3.21662v -4.27926h 3.21662v 6.72923h 3.21662v -1.44525h 3.21662v 4.23402h 3.21662v -4.57481h 3.21662v 6.33078h 3.21662v 3.51972h 3.21662v -2.87857h 3.21662v -0.634687h 3.21662v 13.2624h 3.21662v -10.5487h  3.21662v 9.83592h 3.21662v -0.555192h 3.21662v -2.2517h 3.21662v 7.76055h 3.21662v -3.18488h 3.21662v 0.229829h 3.21662v 0.526993h 3.21662v -4.19032h 3.21662v 5.32249h 3.21662v -4.58972h 3.21662v 0.811324h 3.21662v 3.77839h 3.21662v -2.15343h  3.21662v 2.15343h 6.43324v -1.90431h 3.21662v 1.90431h 19.2997"
     fill="none"
     stroke="black"
     stroke-width="3"
     id="path246" />
  <text
     xml:space="preserve"
     style="font-style:normal;font-weight:normal;font-size:18.66666667px;line-height:1.25;font-family:sans-serif;letter-spacing:0px;word-spacing:0px;fill:#000000;fill-opacity:1;stroke:none;"
     x="71.990417"
     y="72.478928"
     id="text242-0"><tspan
       sodipodi:role="line"
       x="71.990417"
       y="72.478928"
       style="font-size:18.66666667px;"
       id="tspan278"><tspan
   style="font-size:18.66666667px;baseline-shift:super;"
   id="tspan276">56</tspan>Fe @ 2.2 GeV:<tspan
   style="font-style:normal;font-variant:normal;font-weight:normal;font-stretch:normal;font-family:'Times New Roman';-inkscape-font-specification:'Times New Roman, ';font-size:18.66666667px;"
   id="tspan9554">π</tspan><tspan
   style="font-size:18.66666667px;baseline-shift:super;"
   id="tspan9550">+</tspan></tspan></text>
  <text
     xml:space="preserve"
     style="font-style:normal;font-weight:normal;font-size:40px;line-height:1.25;font-family:sans-serif;letter-spacing:0px;word-spacing:0px;fill:#000099;fill-opacity:1;stroke:none"
     x="313.75244"
     y="95.716705"
     id="text250"><tspan
       sodipodi:role="line"
       id="tspan248"
       x="313.75244"
       y="95.716705"
       style="font-size:26.66666603px;fill:#000099;fill-opacity:1">Calorimetric</tspan></text>
  <text
     xml:space="preserve"
     style="font-style:normal;font-weight:normal;font-size:26.66666603px;line-height:1.25;font-family:sans-serif;letter-spacing:0px;word-spacing:0px;fill:#000000;fill-opacity:1;stroke:none"
     x="359.80542"
     y="238.73291"
     id="text254"><tspan
       sodipodi:role="line"
       id="tspan252"
       x="359.80542"
       y="238.73291">Kinematic</tspan></text>
</svg>
