<?xml version="1.0" standalone="no"?>
<svg width="567.429" height="276.279" viewBox="0 0 567.429 276.279" xmlns="http://www.w3.org/2000/svg" shape-rendering="crispEdges">
<title>
/u/home/ltracy/Root_work/01-18-19/56Fe_2261_cal_pimi.svg
</title>
<desc>
Creator: ROOT Version 6.10/02
CreationDate: Mon Nov 25 09:45:24 2019</desc>
<defs>
</defs>
<rect x="0.5" y="0" width="566.929" height="275.779" fill="white"/>
<rect x="57.1929" y="27.5779" width="453.543" height="220.624" fill="white"/>
<rect x="57.1929" y="27.5779" width="453.543" height="220.624" fill="none" stroke="black"/>
<rect x="57.1929" y="27.5779" width="453.543" height="220.624" fill="white"/>
<rect x="57.1929" y="27.5779" width="453.543" height="220.624" fill="none" stroke="black"/>
<path d="M156.001,236.704v -0.168065" fill="none" stroke="#000099" stroke-width="2"/>
<path d="M156.001,236.536v -0.168065" fill="none" stroke="#000099" stroke-width="2"/>
<g stroke="black" stroke-width="2" fill="none">
<line x1="155.001" y1="236.536" x2="156.001" y2="236.536"/>
</g>
<path d="M159.24,236.699v -0.327819" fill="none" stroke="#000099" stroke-width="2"/>
<path d="M159.24,236.371v -0.327819" fill="none" stroke="#000099" stroke-width="2"/>
<g stroke="black" stroke-width="2" fill="none">
<line x1="158.24" y1="236.371" x2="159.24" y2="236.371"/>
</g>
<path d="M162.48,236.719v -0.687273" fill="none" stroke="#000099" stroke-width="2"/>
<path d="M162.48,236.032v -0.687273" fill="none" stroke="#000099" stroke-width="2"/>
<g stroke="black" stroke-width="2" fill="none">
<line x1="161.48" y1="236.032" x2="162.48" y2="236.032"/>
</g>
<path d="M165.719,235.33v -1.23326" fill="none" stroke="#000099" stroke-width="2"/>
<path d="M165.719,234.097v -1.23326" fill="none" stroke="#000099" stroke-width="2"/>
<g stroke="black" stroke-width="2" fill="none">
<line x1="164.719" y1="234.097" x2="165.719" y2="234.097"/>
</g>
<path d="M168.959,235.924v -1.42801" fill="none" stroke="#000099" stroke-width="2"/>
<path d="M168.959,234.496v -1.42801" fill="none" stroke="#000099" stroke-width="2"/>
<g stroke="black" stroke-width="2" fill="none">
<line x1="167.959" y1="234.496" x2="168.959" y2="234.496"/>
</g>
<path d="M172.199,237.719v -1.81481" fill="none" stroke="#000099" stroke-width="2"/>
<path d="M172.199,235.904v -1.81481" fill="none" stroke="#000099" stroke-width="2"/>
<g stroke="black" stroke-width="2" fill="none">
<line x1="171.199" y1="235.904" x2="172.199" y2="235.904"/>
</g>
<path d="M175.438,234.914v -2.58202" fill="none" stroke="#000099" stroke-width="2"/>
<path d="M175.438,232.332v -2.58202" fill="none" stroke="#000099" stroke-width="2"/>
<g stroke="black" stroke-width="2" fill="none">
<line x1="174.438" y1="232.332" x2="175.438" y2="232.332"/>
</g>
<path d="M178.678,235.542v -4.13387" fill="none" stroke="#000099" stroke-width="2"/>
<path d="M178.678,231.408v -4.13387" fill="none" stroke="#000099" stroke-width="2"/>
<g stroke="black" stroke-width="2" fill="none">
<line x1="177.678" y1="231.408" x2="178.678" y2="231.408"/>
</g>
<path d="M181.917,233.846v -3.72118" fill="none" stroke="#000099" stroke-width="2"/>
<path d="M181.917,230.125v -3.72118" fill="none" stroke="#000099" stroke-width="2"/>
<g stroke="black" stroke-width="2" fill="none">
<line x1="180.917" y1="230.125" x2="181.917" y2="230.125"/>
</g>
<path d="M185.157,233.575v -2.75313" fill="none" stroke="#000099" stroke-width="2"/>
<path d="M185.157,230.822v -2.75313" fill="none" stroke="#000099" stroke-width="2"/>
<g stroke="black" stroke-width="2" fill="none">
<line x1="184.157" y1="230.822" x2="185.157" y2="230.822"/>
</g>
<path d="M188.397,232.416v -3.88638" fill="none" stroke="#000099" stroke-width="2"/>
<path d="M188.397,228.529v -3.88638" fill="none" stroke="#000099" stroke-width="2"/>
<g stroke="black" stroke-width="2" fill="none">
<line x1="187.397" y1="228.529" x2="188.397" y2="228.529"/>
</g>
<path d="M191.636,238.196v -4.27326" fill="none" stroke="#000099" stroke-width="2"/>
<path d="M191.636,233.923v -4.27326" fill="none" stroke="#000099" stroke-width="2"/>
<g stroke="black" stroke-width="2" fill="none">
<line x1="190.636" y1="233.923" x2="191.636" y2="233.923"/>
</g>
<path d="M194.876,233.859v -4.70109" fill="none" stroke="#000099" stroke-width="2"/>
<path d="M194.876,229.158v -4.70109" fill="none" stroke="#000099" stroke-width="2"/>
<g stroke="black" stroke-width="2" fill="none">
<line x1="193.876" y1="229.158" x2="194.876" y2="229.158"/>
</g>
<path d="M198.115,229.954v -4.18414" fill="none" stroke="#000099" stroke-width="2"/>
<path d="M198.115,225.77v -4.18414" fill="none" stroke="#000099" stroke-width="2"/>
<g stroke="black" stroke-width="2" fill="none">
<line x1="197.115" y1="225.77" x2="198.115" y2="225.77"/>
</g>
<path d="M201.355,232.398v -6.72209" fill="none" stroke="#000099" stroke-width="2"/>
<path d="M201.355,225.676v -6.72209" fill="none" stroke="#000099" stroke-width="2"/>
<g stroke="black" stroke-width="2" fill="none">
<line x1="200.355" y1="225.676" x2="201.355" y2="225.676"/>
</g>
<path d="M204.594,229.305v -5.11661" fill="none" stroke="#000099" stroke-width="2"/>
<path d="M204.594,224.188v -5.11661" fill="none" stroke="#000099" stroke-width="2"/>
<g stroke="black" stroke-width="2" fill="none">
<line x1="203.594" y1="224.188" x2="204.594" y2="224.188"/>
</g>
<path d="M207.834,231.16v -8.57101" fill="none" stroke="#000099" stroke-width="2"/>
<path d="M207.834,222.589v -8.57101" fill="none" stroke="#000099" stroke-width="2"/>
<g stroke="black" stroke-width="2" fill="none">
<line x1="206.834" y1="222.589" x2="207.834" y2="222.589"/>
</g>
<path d="M211.074,216.26v -5.52839" fill="none" stroke="#000099" stroke-width="2"/>
<path d="M211.074,210.732v -5.52839" fill="none" stroke="#000099" stroke-width="2"/>
<g stroke="black" stroke-width="2" fill="none">
<line x1="210.074" y1="210.732" x2="211.074" y2="210.732"/>
</g>
<path d="M214.313,227.143v -5.49904" fill="none" stroke="#000099" stroke-width="2"/>
<path d="M214.313,221.644v -5.49904" fill="none" stroke="#000099" stroke-width="2"/>
<g stroke="black" stroke-width="2" fill="none">
<line x1="213.313" y1="221.644" x2="214.313" y2="221.644"/>
</g>
<path d="M217.553,219.915v -5.12866" fill="none" stroke="#000099" stroke-width="2"/>
<path d="M217.553,214.786v -5.12866" fill="none" stroke="#000099" stroke-width="2"/>
<g stroke="black" stroke-width="2" fill="none">
<line x1="216.553" y1="214.786" x2="217.553" y2="214.786"/>
</g>
<path d="M220.792,219.62v -5.55074" fill="none" stroke="#000099" stroke-width="2"/>
<path d="M220.792,214.07v -5.55074" fill="none" stroke="#000099" stroke-width="2"/>
<g stroke="black" stroke-width="2" fill="none">
<line x1="219.792" y1="214.07" x2="220.792" y2="214.07"/>
</g>
<path d="M224.032,222.041v -5.9862" fill="none" stroke="#000099" stroke-width="2"/>
<path d="M224.032,216.055v -5.9862" fill="none" stroke="#000099" stroke-width="2"/>
<g stroke="black" stroke-width="2" fill="none">
<line x1="223.032" y1="216.055" x2="224.032" y2="216.055"/>
</g>
<path d="M227.272,216.344v -6.33327" fill="none" stroke="#000099" stroke-width="2"/>
<path d="M227.272,210.011v -6.33327" fill="none" stroke="#000099" stroke-width="2"/>
<g stroke="black" stroke-width="2" fill="none">
<line x1="226.272" y1="210.011" x2="227.272" y2="210.011"/>
</g>
<path d="M230.511,223.466v -6.61605" fill="none" stroke="#000099" stroke-width="2"/>
<path d="M230.511,216.85v -6.61605" fill="none" stroke="#000099" stroke-width="2"/>
<g stroke="black" stroke-width="2" fill="none">
<line x1="229.511" y1="216.85" x2="230.511" y2="216.85"/>
</g>
<path d="M233.751,227.706v -9.81406" fill="none" stroke="#000099" stroke-width="2"/>
<path d="M233.751,217.892v -9.81406" fill="none" stroke="#000099" stroke-width="2"/>
<g stroke="black" stroke-width="2" fill="none">
<line x1="232.751" y1="217.892" x2="233.751" y2="217.892"/>
</g>
<path d="M236.99,213.654v -6.09319" fill="none" stroke="#000099" stroke-width="2"/>
<path d="M236.99,207.561v -6.09319" fill="none" stroke="#000099" stroke-width="2"/>
<g stroke="black" stroke-width="2" fill="none">
<line x1="235.99" y1="207.561" x2="236.99" y2="207.561"/>
</g>
<path d="M240.23,217.276v -6.36628" fill="none" stroke="#000099" stroke-width="2"/>
<path d="M240.23,210.91v -6.36628" fill="none" stroke="#000099" stroke-width="2"/>
<g stroke="black" stroke-width="2" fill="none">
<line x1="239.23" y1="210.91" x2="240.23" y2="210.91"/>
</g>
<path d="M243.47,206.447v -7.0863" fill="none" stroke="#000099" stroke-width="2"/>
<path d="M243.47,199.361v -7.0863" fill="none" stroke="#000099" stroke-width="2"/>
<g stroke="black" stroke-width="2" fill="none">
<line x1="242.47" y1="199.361" x2="243.47" y2="199.361"/>
</g>
<path d="M246.709,208.029v -6.75506" fill="none" stroke="#000099" stroke-width="2"/>
<path d="M246.709,201.274v -6.75506" fill="none" stroke="#000099" stroke-width="2"/>
<g stroke="black" stroke-width="2" fill="none">
<line x1="245.709" y1="201.274" x2="246.709" y2="201.274"/>
</g>
<path d="M249.949,208.641v -6.8642" fill="none" stroke="#000099" stroke-width="2"/>
<path d="M249.949,201.776v -6.8642" fill="none" stroke="#000099" stroke-width="2"/>
<g stroke="black" stroke-width="2" fill="none">
<line x1="248.949" y1="201.776" x2="249.949" y2="201.776"/>
</g>
<path d="M253.188,208.663v -8.12996" fill="none" stroke="#000099" stroke-width="2"/>
<path d="M253.188,200.533v -8.12996" fill="none" stroke="#000099" stroke-width="2"/>
<g stroke="black" stroke-width="2" fill="none">
<line x1="252.188" y1="200.533" x2="253.188" y2="200.533"/>
</g>
<path d="M256.428,212.59v -7.39157" fill="none" stroke="#000099" stroke-width="2"/>
<path d="M256.428,205.199v -7.39157" fill="none" stroke="#000099" stroke-width="2"/>
<g stroke="black" stroke-width="2" fill="none">
<line x1="255.428" y1="205.199" x2="256.428" y2="205.199"/>
</g>
<path d="M259.668,208.275v -7.48092" fill="none" stroke="#000099" stroke-width="2"/>
<path d="M259.668,200.795v -7.48092" fill="none" stroke="#000099" stroke-width="2"/>
<g stroke="black" stroke-width="2" fill="none">
<line x1="258.668" y1="200.795" x2="259.668" y2="200.795"/>
</g>
<path d="M262.907,225.31v -8.78604" fill="none" stroke="#000099" stroke-width="2"/>
<path d="M262.907,216.524v -8.78604" fill="none" stroke="#000099" stroke-width="2"/>
<g stroke="black" stroke-width="2" fill="none">
<line x1="261.907" y1="216.524" x2="262.907" y2="216.524"/>
</g>
<path d="M266.147,195.295v -7.23886" fill="none" stroke="#000099" stroke-width="2"/>
<path d="M266.147,188.057v -7.23886" fill="none" stroke="#000099" stroke-width="2"/>
<g stroke="black" stroke-width="2" fill="none">
<line x1="265.147" y1="188.057" x2="266.147" y2="188.057"/>
</g>
<path d="M269.386,204.936v -10.1347" fill="none" stroke="#000099" stroke-width="2"/>
<path d="M269.386,194.801v -10.1347" fill="none" stroke="#000099" stroke-width="2"/>
<g stroke="black" stroke-width="2" fill="none">
<line x1="268.386" y1="194.801" x2="269.386" y2="194.801"/>
</g>
<path d="M272.626,199.01v -5.9235" fill="none" stroke="#000099" stroke-width="2"/>
<path d="M272.626,193.087v -5.9235" fill="none" stroke="#000099" stroke-width="2"/>
<g stroke="black" stroke-width="2" fill="none">
<line x1="271.626" y1="193.087" x2="272.626" y2="193.087"/>
</g>
<path d="M275.866,201.862v -6.99452" fill="none" stroke="#000099" stroke-width="2"/>
<path d="M275.866,194.868v -6.99452" fill="none" stroke="#000099" stroke-width="2"/>
<g stroke="black" stroke-width="2" fill="none">
<line x1="274.866" y1="194.868" x2="275.866" y2="194.868"/>
</g>
<path d="M279.105,197.487v -6.71429" fill="none" stroke="#000099" stroke-width="2"/>
<path d="M279.105,190.773v -6.71429" fill="none" stroke="#000099" stroke-width="2"/>
<g stroke="black" stroke-width="2" fill="none">
<line x1="278.105" y1="190.773" x2="279.105" y2="190.773"/>
</g>
<path d="M282.345,196.022v -6.0261" fill="none" stroke="#000099" stroke-width="2"/>
<path d="M282.345,189.996v -6.0261" fill="none" stroke="#000099" stroke-width="2"/>
<g stroke="black" stroke-width="2" fill="none">
<line x1="281.345" y1="189.996" x2="282.345" y2="189.996"/>
</g>
<path d="M285.584,203.349v -5.42873" fill="none" stroke="#000099" stroke-width="2"/>
<path d="M285.584,197.92v -5.42873" fill="none" stroke="#000099" stroke-width="2"/>
<g stroke="black" stroke-width="2" fill="none">
<line x1="284.584" y1="197.92" x2="285.584" y2="197.92"/>
</g>
<path d="M288.824,202.01v -6.81519" fill="none" stroke="#000099" stroke-width="2"/>
<path d="M288.824,195.195v -6.81519" fill="none" stroke="#000099" stroke-width="2"/>
<g stroke="black" stroke-width="2" fill="none">
<line x1="287.824" y1="195.195" x2="288.824" y2="195.195"/>
</g>
<path d="M292.064,208.068v -11.6464" fill="none" stroke="#000099" stroke-width="2"/>
<path d="M292.064,196.421v -11.6464" fill="none" stroke="#000099" stroke-width="2"/>
<g stroke="black" stroke-width="2" fill="none">
<line x1="291.064" y1="196.421" x2="292.064" y2="196.421"/>
</g>
<path d="M295.303,191.98v -6.43309" fill="none" stroke="#000099" stroke-width="2"/>
<path d="M295.303,185.547v -6.43309" fill="none" stroke="#000099" stroke-width="2"/>
<g stroke="black" stroke-width="2" fill="none">
<line x1="294.303" y1="185.547" x2="295.303" y2="185.547"/>
</g>
<path d="M298.543,199.2v -5.26344" fill="none" stroke="#000099" stroke-width="2"/>
<path d="M298.543,193.936v -5.26344" fill="none" stroke="#000099" stroke-width="2"/>
<g stroke="black" stroke-width="2" fill="none">
<line x1="297.543" y1="193.936" x2="298.543" y2="193.936"/>
</g>
<path d="M301.782,194.417v -5.17693" fill="none" stroke="#000099" stroke-width="2"/>
<path d="M301.782,189.24v -5.17693" fill="none" stroke="#000099" stroke-width="2"/>
<g stroke="black" stroke-width="2" fill="none">
<line x1="300.782" y1="189.24" x2="301.782" y2="189.24"/>
</g>
<path d="M305.022,190.087v -5.49457" fill="none" stroke="#000099" stroke-width="2"/>
<path d="M305.022,184.592v -5.49457" fill="none" stroke="#000099" stroke-width="2"/>
<g stroke="black" stroke-width="2" fill="none">
<line x1="304.022" y1="184.592" x2="305.022" y2="184.592"/>
</g>
<path d="M308.262,190.89v -6.3499" fill="none" stroke="#000099" stroke-width="2"/>
<path d="M308.262,184.54v -6.3499" fill="none" stroke="#000099" stroke-width="2"/>
<g stroke="black" stroke-width="2" fill="none">
<line x1="307.262" y1="184.54" x2="308.262" y2="184.54"/>
</g>
<path d="M311.501,195.856v -6.39917" fill="none" stroke="#000099" stroke-width="2"/>
<path d="M311.501,189.457v -6.39917" fill="none" stroke="#000099" stroke-width="2"/>
<g stroke="black" stroke-width="2" fill="none">
<line x1="310.501" y1="189.457" x2="311.501" y2="189.457"/>
</g>
<path d="M314.741,187.207v -5.2406" fill="none" stroke="#000099" stroke-width="2"/>
<path d="M314.741,181.966v -5.2406" fill="none" stroke="#000099" stroke-width="2"/>
<g stroke="black" stroke-width="2" fill="none">
<line x1="313.741" y1="181.966" x2="314.741" y2="181.966"/>
</g>
<path d="M317.98,195.918v -8.34597" fill="none" stroke="#000099" stroke-width="2"/>
<path d="M317.98,187.572v -8.34597" fill="none" stroke="#000099" stroke-width="2"/>
<g stroke="black" stroke-width="2" fill="none">
<line x1="316.98" y1="187.572" x2="317.98" y2="187.572"/>
</g>
<path d="M321.22,187.818v -5.07062" fill="none" stroke="#000099" stroke-width="2"/>
<path d="M321.22,182.747v -5.07062" fill="none" stroke="#000099" stroke-width="2"/>
<g stroke="black" stroke-width="2" fill="none">
<line x1="320.22" y1="182.747" x2="321.22" y2="182.747"/>
</g>
<path d="M324.46,182.151v -4.05128" fill="none" stroke="#000099" stroke-width="2"/>
<path d="M324.46,178.1v -4.05128" fill="none" stroke="#000099" stroke-width="2"/>
<g stroke="black" stroke-width="2" fill="none">
<line x1="323.46" y1="178.1" x2="324.46" y2="178.1"/>
</g>
<path d="M327.699,166.296v -5.12896" fill="none" stroke="#000099" stroke-width="2"/>
<path d="M327.699,161.167v -5.12896" fill="none" stroke="#000099" stroke-width="2"/>
<g stroke="black" stroke-width="2" fill="none">
<line x1="326.699" y1="161.167" x2="327.699" y2="161.167"/>
</g>
<path d="M330.939,177.346v -4.18529" fill="none" stroke="#000099" stroke-width="2"/>
<path d="M330.939,173.161v -4.18529" fill="none" stroke="#000099" stroke-width="2"/>
<g stroke="black" stroke-width="2" fill="none">
<line x1="329.939" y1="173.161" x2="330.939" y2="173.161"/>
</g>
<path d="M334.178,173.897v -4.3887" fill="none" stroke="#000099" stroke-width="2"/>
<path d="M334.178,169.508v -4.3887" fill="none" stroke="#000099" stroke-width="2"/>
<g stroke="black" stroke-width="2" fill="none">
<line x1="333.178" y1="169.508" x2="334.178" y2="169.508"/>
</g>
<path d="M337.418,163.444v -4.47796" fill="none" stroke="#000099" stroke-width="2"/>
<path d="M337.418,158.966v -4.47796" fill="none" stroke="#000099" stroke-width="2"/>
<g stroke="black" stroke-width="2" fill="none">
<line x1="336.418" y1="158.966" x2="337.418" y2="158.966"/>
</g>
<path d="M340.657,150.531v -4.74641" fill="none" stroke="#000099" stroke-width="2"/>
<path d="M340.657,145.785v -4.74641" fill="none" stroke="#000099" stroke-width="2"/>
<g stroke="black" stroke-width="2" fill="none">
<line x1="339.657" y1="145.785" x2="340.657" y2="145.785"/>
</g>
<path d="M343.897,108.798v -6.12626" fill="none" stroke="#000099" stroke-width="2"/>
<path d="M343.897,102.671v -6.12626" fill="none" stroke="#000099" stroke-width="2"/>
<g stroke="black" stroke-width="2" fill="none">
<line x1="342.897" y1="102.671" x2="343.897" y2="102.671"/>
</g>
<path d="M347.137,54.0186v -7.96739" fill="none" stroke="#000099" stroke-width="2"/>
<path d="M347.137,46.0512v -7.96739" fill="none" stroke="#000099" stroke-width="2"/>
<g stroke="black" stroke-width="2" fill="none">
<line x1="346.137" y1="46.0512" x2="347.137" y2="46.0512"/>
</g>
<path d="M350.376,169.338v -5.77768" fill="none" stroke="#000099" stroke-width="2"/>
<path d="M350.376,163.561v -5.77768" fill="none" stroke="#000099" stroke-width="2"/>
<g stroke="black" stroke-width="2" fill="none">
<line x1="349.376" y1="163.561" x2="350.376" y2="163.561"/>
</g>
<path d="M353.616,232.611v -1.06504" fill="none" stroke="#000099" stroke-width="2"/>
<path d="M353.616,231.546v -1.06504" fill="none" stroke="#000099" stroke-width="2"/>
<g stroke="black" stroke-width="2" fill="none">
<line x1="352.616" y1="231.546" x2="353.616" y2="231.546"/>
</g>
<path d="M356.855,235.737v -0.617543" fill="none" stroke="#000099" stroke-width="2"/>
<path d="M356.855,235.119v -0.617543" fill="none" stroke="#000099" stroke-width="2"/>
<g stroke="black" stroke-width="2" fill="none">
<line x1="355.855" y1="235.119" x2="356.855" y2="235.119"/>
</g>
<path d="M360.095,236.528v -0.276926" fill="none" stroke="#000099" stroke-width="2"/>
<path d="M360.095,236.251v -0.276926" fill="none" stroke="#000099" stroke-width="2"/>
<g stroke="black" stroke-width="2" fill="none">
<line x1="359.095" y1="236.251" x2="360.095" y2="236.251"/>
</g>
<path d="M366.574,236.617v -0.194237" fill="none" stroke="#000099" stroke-width="2"/>
<path d="M366.574,236.423v -0.194237" fill="none" stroke="#000099" stroke-width="2"/>
<g stroke="black" stroke-width="2" fill="none">
<line x1="365.574" y1="236.423" x2="366.574" y2="236.423"/>
</g>
<path d="M369.814,236.617v -0.285966" fill="none" stroke="#000099" stroke-width="2"/>
<path d="M369.814,236.331v -0.285966" fill="none" stroke="#000099" stroke-width="2"/>
<g stroke="black" stroke-width="2" fill="none">
<line x1="368.814" y1="236.331" x2="369.814" y2="236.331"/>
</g>
<path d="M479.96,236.746v -0.0645463" fill="none" stroke="#000099" stroke-width="2"/>
<path d="M479.96,236.681v -0.0645463" fill="none" stroke="#000099" stroke-width="2"/>
<g stroke="black" stroke-width="2" fill="none">
<line x1="478.96" y1="236.681" x2="479.96" y2="236.681"/>
</g>
<path d="M57.1929,236.617h 97.1879v -0.0811135h 3.23959v -0.164589h 3.23959v -0.339276h 3.23959v -1.93512h 3.23959v 0.398878h 3.23959v 1.40847h 3.23959v -3.57204h 3.23959v -0.924305h 3.23959v -1.28289h 3.23959v 0.696835h 3.23959v -2.29247h 3.23959v
 5.39348h 3.23959v -4.76488h 3.23959v -3.38773h 3.23959v -0.0941528h 3.23959v -1.48744h 3.23959v -1.59982h 3.23959v -11.8565h 3.23959v 10.9116h 3.23959v -6.85733h 3.23959v -0.716813h 3.23959v 1.98539h 3.23959v -6.04438h 3.23959v 6.83969h 3.23959v
 1.04159h 3.23959v -10.3305h 3.23959v 3.34827h 3.23959v -11.5485h 3.23959v 1.91295h 3.23959v 0.502247h 3.23959v -1.24301h 3.23959v 4.66523h 3.23959v -4.40398h 3.23959v 15.7291h 3.23959v -28.4671h 3.23959v 6.74429h 3.23959v -1.71432h 3.23959v 1.78116h
 3.23959v -4.09504h 3.23959v -0.777099h 3.23959v 7.92455h 3.23959v -2.72511h 3.23959v 1.22636h 3.23959v -10.8746h 3.23959v 8.38957h 3.23959v -4.69661h 3.23959v -4.64744h 3.23959v -0.0525251h 3.23959v 4.91751h 3.23959v -7.49111h 3.23959v 5.60607h
 3.23959v -4.82505h 3.23959v -4.64721h 3.23959v -16.933h 3.23959v 11.9936h 3.23959v -3.65216h 3.23959v -10.542h 3.23959v -13.1815h 3.23959v -43.1136h 3.23959v -56.6201h 3.23959v 117.509h 3.23959v 67.9854h 3.23959v 3.57336h 3.23959v 1.13154h 3.23959v
 0.365894h 3.23959v -0.194237h 3.23959v -0.0917286h 3.23959v 0.285966h 106.907v 0.0645463h 3.23959v -0.0645463h 29.1564" fill="none" stroke="#000099" stroke-width="2"/>
<path d="M57.1929,248.201h 453.543" fill="none" stroke="black"/>
<path d="M57.1929,241.583v 6.61871" fill="none" stroke="black"/>
<path d="M70.1513,244.892v 3.30935" fill="none" stroke="black"/>
<path d="M83.1097,244.892v 3.30935" fill="none" stroke="black"/>
<path d="M96.0681,244.892v 3.30935" fill="none" stroke="black"/>
<path d="M109.026,244.892v 3.30935" fill="none" stroke="black"/>
<path d="M121.985,241.583v 6.61871" fill="none" stroke="black"/>
<path d="M134.943,244.892v 3.30935" fill="none" stroke="black"/>
<path d="M147.902,244.892v 3.30935" fill="none" stroke="black"/>
<path d="M160.86,244.892v 3.30935" fill="none" stroke="black"/>
<path d="M173.818,244.892v 3.30935" fill="none" stroke="black"/>
<path d="M186.777,241.583v 6.61871" fill="none" stroke="black"/>
<path d="M199.735,244.892v 3.30935" fill="none" stroke="black"/>
<path d="M212.693,244.892v 3.30935" fill="none" stroke="black"/>
<path d="M225.652,244.892v 3.30935" fill="none" stroke="black"/>
<path d="M238.61,244.892v 3.30935" fill="none" stroke="black"/>
<path d="M251.569,241.583v 6.61871" fill="none" stroke="black"/>
<path d="M264.527,244.892v 3.30935" fill="none" stroke="black"/>
<path d="M277.485,244.892v 3.30935" fill="none" stroke="black"/>
<path d="M290.444,244.892v 3.30935" fill="none" stroke="black"/>
<path d="M303.402,244.892v 3.30935" fill="none" stroke="black"/>
<path d="M316.361,241.583v 6.61871" fill="none" stroke="black"/>
<path d="M329.319,244.892v 3.30935" fill="none" stroke="black"/>
<path d="M342.277,244.892v 3.30935" fill="none" stroke="black"/>
<path d="M355.236,244.892v 3.30935" fill="none" stroke="black"/>
<path d="M368.194,244.892v 3.30935" fill="none" stroke="black"/>
<path d="M381.152,241.583v 6.61871" fill="none" stroke="black"/>
<path d="M394.111,244.892v 3.30935" fill="none" stroke="black"/>
<path d="M407.069,244.892v 3.30935" fill="none" stroke="black"/>
<path d="M420.028,244.892v 3.30935" fill="none" stroke="black"/>
<path d="M432.986,244.892v 3.30935" fill="none" stroke="black"/>
<path d="M445.944,241.583v 6.61871" fill="none" stroke="black"/>
<path d="M458.903,244.892v 3.30935" fill="none" stroke="black"/>
<path d="M471.861,244.892v 3.30935" fill="none" stroke="black"/>
<path d="M484.819,244.892v 3.30935" fill="none" stroke="black"/>
<path d="M497.778,244.892v 3.30935" fill="none" stroke="black"/>
<path d="M510.736,241.583v 6.61871" fill="none" stroke="black"/>
<text xml:space="preserve" x="53.4094" y="260.409" fill="black" font-size="13.1504" font-family="Helvetica">0</text>
<text xml:space="preserve" x="113.117" y="260.409" fill="black" font-size="13.1504" font-family="Helvetica">0.5</text>
<text xml:space="preserve" x="184.353" y="260.409" fill="black" font-size="13.1504" font-family="Helvetica">1</text>
<text xml:space="preserve" x="242.583" y="260.409" fill="black" font-size="13.1504" font-family="Helvetica">1.5</text>
<text xml:space="preserve" x="312.636" y="260.409" fill="black" font-size="13.1504" font-family="Helvetica">2</text>
<text xml:space="preserve" x="372.048" y="260.409" fill="black" font-size="13.1504" font-family="Helvetica">2.5</text>
<text xml:space="preserve" x="442.397" y="260.409" fill="black" font-size="13.1504" font-family="Helvetica">3</text>
<text xml:space="preserve" x="501.81" y="260.409" fill="black" font-size="13.1504" font-family="Helvetica">3.5</text>
<text xml:space="preserve" x="474.616" y="273.119" fill="black" font-size="13.1504" font-family="Helvetica"> [GeV]</text>
<text xml:space="preserve" x="464.271" y="276.962" fill="black" font-size="8.93362" font-family="Helvetica">cal</text>
<text xml:space="preserve" x="455.994" y="273.119" fill="black" font-size="13.1504" font-family="Helvetica">E</text>
<path d="M57.1929,248.201v -220.624" fill="none" stroke="black"/>
<path d="M70.7992,236.617h -13.6063" fill="none" stroke="black"/>
<path d="M63.9961,225.623h -6.80315" fill="none" stroke="black"/>
<path d="M63.9961,214.63h -6.80315" fill="none" stroke="black"/>
<path d="M63.9961,203.636h -6.80315" fill="none" stroke="black"/>
<path d="M70.7992,192.643h -13.6063" fill="none" stroke="black"/>
<path d="M63.9961,181.649h -6.80315" fill="none" stroke="black"/>
<path d="M63.9961,170.655h -6.80315" fill="none" stroke="black"/>
<path d="M63.9961,159.662h -6.80315" fill="none" stroke="black"/>
<path d="M70.7992,148.668h -13.6063" fill="none" stroke="black"/>
<path d="M63.9961,137.675h -6.80315" fill="none" stroke="black"/>
<path d="M63.9961,126.681h -6.80315" fill="none" stroke="black"/>
<path d="M63.9961,115.688h -6.80315" fill="none" stroke="black"/>
<path d="M70.7992,104.694h -13.6063" fill="none" stroke="black"/>
<path d="M63.9961,93.7007h -6.80315" fill="none" stroke="black"/>
<path d="M63.9961,82.7072h -6.80315" fill="none" stroke="black"/>
<path d="M63.9961,71.7136h -6.80315" fill="none" stroke="black"/>
<path d="M70.7992,60.7201h -13.6063" fill="none" stroke="black"/>
<path d="M70.7992,236.617h -13.6063" fill="none" stroke="black"/>
<path d="M63.9961,247.61h -6.80315" fill="none" stroke="black"/>
<path d="M70.7992,60.7201h -13.6063" fill="none" stroke="black"/>
<path d="M63.9961,49.7265h -6.80315" fill="none" stroke="black"/>
<path d="M63.9961,38.733h -6.80315" fill="none" stroke="black"/>
<path d="M63.9961,27.7394h -6.80315" fill="none" stroke="black"/>
<text xml:space="preserve" x="47.4978" y="241.196" fill="black" font-size="13.1504" font-family="Helvetica">0</text>
<text xml:space="preserve" x="33.0142" y="197.154" fill="black" font-size="13.1504" font-family="Helvetica">200</text>
<text xml:space="preserve" x="33.0142" y="153.112" fill="black" font-size="13.1504" font-family="Helvetica">400</text>
<text xml:space="preserve" x="33.0142" y="109.366" fill="black" font-size="13.1504" font-family="Helvetica">600</text>
<text xml:space="preserve" x="33.0142" y="65.324" fill="black" font-size="13.1504" font-family="Helvetica">800</text>
<text xml:space="preserve" x="77.9429" y="19.8041" fill="black" font-size="8.93362" font-family="Helvetica">3</text>
<text xml:space="preserve" x="64.0505" y="26.0113" fill="black" font-size="13.1504" font-family="Helvetica">10</text>
<text xml:space="preserve" x="56.9564" y="26.0113" fill="black" font-size="13.1504" font-family="Times">&#0215;</text></svg>
