<?xml version="1.0" standalone="no"?>
<svg width="567.429" height="540.107" viewBox="0 0 567.429 540.107" xmlns="http://www.w3.org/2000/svg" shape-rendering="crispEdges">
<title>
56Fe_4461_mult_2p.svg
</title>
<desc>
Creator: ROOT Version 6.18/04
CreationDate: Tue Mar  3 09:23:33 2020</desc>
<defs>
</defs>
<rect x="0.5" y="0" width="566.929" height="539.607" fill="white"/>
<rect x="57.1929" y="53.9607" width="453.543" height="431.686" fill="white"/>
<rect x="57.1929" y="53.9607" width="453.543" height="431.686" fill="none" stroke="black"/>
<rect x="98.4241" y="407.158" width="41.2312" height="39.2442" fill="#f9f90e"/>
<rect x="180.887" y="407.158" width="41.2312" height="39.2442" fill="#0da7c2"/>
<rect x="263.349" y="407.158" width="41.2312" height="39.2442" fill="#1652cc"/>
<rect x="345.811" y="407.158" width="41.2312" height="39.2442" fill="#263da8"/>
<rect x="428.274" y="407.158" width="41.2312" height="39.2442" fill="#263da8"/>
<rect x="98.4241" y="328.67" width="41.2312" height="39.2442" fill="#1380d5"/>
<rect x="180.887" y="328.67" width="41.2312" height="39.2442" fill="#1652cc"/>
<rect x="263.349" y="328.67" width="41.2312" height="39.2442" fill="#263da8"/>
<rect x="345.811" y="328.67" width="41.2312" height="39.2442" fill="#263da8"/>
<rect x="428.274" y="328.67" width="41.2312" height="39.2442" fill="#263da8"/>
<rect x="98.4241" y="250.182" width="41.2312" height="39.2442" fill="#263da8"/>
<rect x="180.887" y="250.182" width="41.2312" height="39.2442" fill="#263da8"/>
<rect x="263.349" y="250.182" width="41.2312" height="39.2442" fill="#263da8"/>
<rect x="345.811" y="250.182" width="41.2312" height="39.2442" fill="#263da8"/>
<rect x="98.4241" y="171.693" width="41.2312" height="39.2442" fill="#263da8"/>
<rect x="180.887" y="171.693" width="41.2312" height="39.2442" fill="#263da8"/>
<rect x="263.349" y="171.693" width="41.2312" height="39.2442" fill="#263da8"/>
<rect x="98.4241" y="93.2049" width="41.2312" height="39.2442" fill="#263da8"/>
<rect x="180.887" y="93.2049" width="41.2312" height="39.2442" fill="#263da8"/>
<rect x="263.349" y="93.2049" width="41.2312" height="39.2442" fill="#263da8"/>
<text xml:space="preserve" x="104.095" y="430.32" fill="white" font-size="10.401" font-family="Helvetica" font-weight="bold">33157</text>
<text xml:space="preserve" x="186.061" y="430.32" fill="white" font-size="10.401" font-family="Helvetica" font-weight="bold">11598</text>
<text xml:space="preserve" x="272.58" y="430.32" fill="white" font-size="10.401" font-family="Helvetica" font-weight="bold">1730</text>
<text xml:space="preserve" x="356.823" y="430.32" fill="white" font-size="10.401" font-family="Helvetica" font-weight="bold">152</text>
<text xml:space="preserve" x="444.481" y="430.32" fill="white" font-size="10.401" font-family="Helvetica" font-weight="bold">5</text>
<text xml:space="preserve" x="107.511" y="351.769" fill="white" font-size="10.401" font-family="Helvetica" font-weight="bold">7434</text>
<text xml:space="preserve" x="189.476" y="351.769" fill="white" font-size="10.401" font-family="Helvetica" font-weight="bold">2463</text>
<text xml:space="preserve" x="274.857" y="351.769" fill="white" font-size="10.401" font-family="Helvetica" font-weight="bold">319</text>
<text xml:space="preserve" x="360.238" y="351.769" fill="white" font-size="10.401" font-family="Helvetica" font-weight="bold">26</text>
<text xml:space="preserve" x="445.619" y="351.769" fill="white" font-size="10.401" font-family="Helvetica" font-weight="bold">1</text>
<text xml:space="preserve" x="107.511" y="274.357" fill="white" font-size="10.401" font-family="Helvetica" font-weight="bold">1323</text>
<text xml:space="preserve" x="191.753" y="274.357" fill="white" font-size="10.401" font-family="Helvetica" font-weight="bold">377</text>
<text xml:space="preserve" x="278.273" y="274.357" fill="white" font-size="10.401" font-family="Helvetica" font-weight="bold">25</text>
<text xml:space="preserve" x="362.515" y="274.357" fill="white" font-size="10.401" font-family="Helvetica" font-weight="bold">5</text>
<text xml:space="preserve" x="109.788" y="195.807" fill="white" font-size="10.401" font-family="Helvetica" font-weight="bold">229</text>
<text xml:space="preserve" x="195.168" y="195.807" fill="white" font-size="10.401" font-family="Helvetica" font-weight="bold">40</text>
<text xml:space="preserve" x="280.549" y="195.807" fill="white" font-size="10.401" font-family="Helvetica" font-weight="bold">6</text>
<text xml:space="preserve" x="113.203" y="117.256" fill="white" font-size="10.401" font-family="Helvetica" font-weight="bold">24</text>
<text xml:space="preserve" x="197.445" y="117.256" fill="white" font-size="10.401" font-family="Helvetica" font-weight="bold">5</text>
<text xml:space="preserve" x="281.688" y="117.256" fill="white" font-size="10.401" font-family="Helvetica" font-weight="bold">1</text>
<path d="M57.1929,485.647h 453.543" fill="none" stroke="black"/>
<path d="M57.1929,472.696v 12.9506" fill="none" stroke="black"/>
<path d="M66.2638,479.171v 6.47529" fill="none" stroke="black"/>
<path d="M75.3346,479.171v 6.47529" fill="none" stroke="black"/>
<path d="M84.4055,479.171v 6.47529" fill="none" stroke="black"/>
<path d="M93.4764,479.171v 6.47529" fill="none" stroke="black"/>
<path d="M102.547,472.696v 12.9506" fill="none" stroke="black"/>
<path d="M111.618,479.171v 6.47529" fill="none" stroke="black"/>
<path d="M120.689,479.171v 6.47529" fill="none" stroke="black"/>
<path d="M129.76,479.171v 6.47529" fill="none" stroke="black"/>
<path d="M138.831,479.171v 6.47529" fill="none" stroke="black"/>
<path d="M147.902,472.696v 12.9506" fill="none" stroke="black"/>
<path d="M156.972,479.171v 6.47529" fill="none" stroke="black"/>
<path d="M166.043,479.171v 6.47529" fill="none" stroke="black"/>
<path d="M175.114,479.171v 6.47529" fill="none" stroke="black"/>
<path d="M184.185,479.171v 6.47529" fill="none" stroke="black"/>
<path d="M193.256,472.696v 12.9506" fill="none" stroke="black"/>
<path d="M202.327,479.171v 6.47529" fill="none" stroke="black"/>
<path d="M211.398,479.171v 6.47529" fill="none" stroke="black"/>
<path d="M220.469,479.171v 6.47529" fill="none" stroke="black"/>
<path d="M229.539,479.171v 6.47529" fill="none" stroke="black"/>
<path d="M238.61,472.696v 12.9506" fill="none" stroke="black"/>
<path d="M247.681,479.171v 6.47529" fill="none" stroke="black"/>
<path d="M256.752,479.171v 6.47529" fill="none" stroke="black"/>
<path d="M265.823,479.171v 6.47529" fill="none" stroke="black"/>
<path d="M274.894,479.171v 6.47529" fill="none" stroke="black"/>
<path d="M283.965,472.696v 12.9506" fill="none" stroke="black"/>
<path d="M293.035,479.171v 6.47529" fill="none" stroke="black"/>
<path d="M302.106,479.171v 6.47529" fill="none" stroke="black"/>
<path d="M311.177,479.171v 6.47529" fill="none" stroke="black"/>
<path d="M320.248,479.171v 6.47529" fill="none" stroke="black"/>
<path d="M329.319,472.696v 12.9506" fill="none" stroke="black"/>
<path d="M338.39,479.171v 6.47529" fill="none" stroke="black"/>
<path d="M347.461,479.171v 6.47529" fill="none" stroke="black"/>
<path d="M356.531,479.171v 6.47529" fill="none" stroke="black"/>
<path d="M365.602,479.171v 6.47529" fill="none" stroke="black"/>
<path d="M374.673,472.696v 12.9506" fill="none" stroke="black"/>
<path d="M383.744,479.171v 6.47529" fill="none" stroke="black"/>
<path d="M392.815,479.171v 6.47529" fill="none" stroke="black"/>
<path d="M401.886,479.171v 6.47529" fill="none" stroke="black"/>
<path d="M410.957,479.171v 6.47529" fill="none" stroke="black"/>
<path d="M420.028,472.696v 12.9506" fill="none" stroke="black"/>
<path d="M429.098,479.171v 6.47529" fill="none" stroke="black"/>
<path d="M438.169,479.171v 6.47529" fill="none" stroke="black"/>
<path d="M447.24,479.171v 6.47529" fill="none" stroke="black"/>
<path d="M456.311,479.171v 6.47529" fill="none" stroke="black"/>
<path d="M465.382,472.696v 12.9506" fill="none" stroke="black"/>
<path d="M474.453,479.171v 6.47529" fill="none" stroke="black"/>
<path d="M483.524,479.171v 6.47529" fill="none" stroke="black"/>
<path d="M492.594,479.171v 6.47529" fill="none" stroke="black"/>
<path d="M501.665,479.171v 6.47529" fill="none" stroke="black"/>
<path d="M510.736,472.696v 12.9506" fill="none" stroke="black"/>
<path d="M510.736,472.696v 12.9506" fill="none" stroke="black"/>
<text xml:space="preserve" x="44.8981" y="508.87" fill="black" font-size="25.2526" font-family="Helvetica">0.5</text>
<text xml:space="preserve" x="32.3755" y="508.87" fill="black" font-size="25.2526" font-family="Times">&#8722;</text>
<text xml:space="preserve" x="94.9882" y="508.87" fill="black" font-size="25.2526" font-family="Helvetica">0</text>
<text xml:space="preserve" x="130.279" y="508.87" fill="black" font-size="25.2526" font-family="Helvetica">0.5</text>
<text xml:space="preserve" x="188.338" y="508.87" fill="black" font-size="25.2526" font-family="Helvetica">1</text>
<text xml:space="preserve" x="221.352" y="508.87" fill="black" font-size="25.2526" font-family="Helvetica">1.5</text>
<text xml:space="preserve" x="277.134" y="508.87" fill="black" font-size="25.2526" font-family="Helvetica">2</text>
<text xml:space="preserve" x="311.286" y="508.87" fill="black" font-size="25.2526" font-family="Helvetica">2.5</text>
<text xml:space="preserve" x="367.069" y="508.87" fill="black" font-size="25.2526" font-family="Helvetica">3</text>
<text xml:space="preserve" x="402.359" y="508.87" fill="black" font-size="25.2526" font-family="Helvetica">3.5</text>
<text xml:space="preserve" x="458.142" y="508.87" fill="black" font-size="25.2526" font-family="Helvetica">4</text>
<text xml:space="preserve" x="493.432" y="508.87" fill="black" font-size="25.2526" font-family="Helvetica">4.5</text>
<text xml:space="preserve" x="387.56" y="538.469" fill="black" font-size="25.2526" font-family="Helvetica"> Multiplicity</text>
<text xml:space="preserve" x="377.314" y="530.5" fill="black" font-size="17.0018" font-family="Times">&#0177;</text>
<text xml:space="preserve" x="363.653" y="538.469" fill="black" font-size="25.2526" font-family="Times">&#0960;</text>
<path d="M57.1929,485.647v -431.686" fill="none" stroke="black"/>
<path d="M70.7992,485.647h -13.6063" fill="none" stroke="black"/>
<path d="M63.9961,477.013h -6.80315" fill="none" stroke="black"/>
<path d="M63.9961,468.379h -6.80315" fill="none" stroke="black"/>
<path d="M63.9961,459.745h -6.80315" fill="none" stroke="black"/>
<path d="M63.9961,451.112h -6.80315" fill="none" stroke="black"/>
<path d="M70.7992,442.478h -13.6063" fill="none" stroke="black"/>
<path d="M63.9961,433.844h -6.80315" fill="none" stroke="black"/>
<path d="M63.9961,425.211h -6.80315" fill="none" stroke="black"/>
<path d="M63.9961,416.577h -6.80315" fill="none" stroke="black"/>
<path d="M63.9961,407.943h -6.80315" fill="none" stroke="black"/>
<path d="M70.7992,399.309h -13.6063" fill="none" stroke="black"/>
<path d="M63.9961,390.676h -6.80315" fill="none" stroke="black"/>
<path d="M63.9961,382.042h -6.80315" fill="none" stroke="black"/>
<path d="M63.9961,373.408h -6.80315" fill="none" stroke="black"/>
<path d="M63.9961,364.775h -6.80315" fill="none" stroke="black"/>
<path d="M70.7992,356.141h -13.6063" fill="none" stroke="black"/>
<path d="M63.9961,347.507h -6.80315" fill="none" stroke="black"/>
<path d="M63.9961,338.873h -6.80315" fill="none" stroke="black"/>
<path d="M63.9961,330.24h -6.80315" fill="none" stroke="black"/>
<path d="M63.9961,321.606h -6.80315" fill="none" stroke="black"/>
<path d="M70.7992,312.972h -13.6063" fill="none" stroke="black"/>
<path d="M63.9961,304.338h -6.80315" fill="none" stroke="black"/>
<path d="M63.9961,295.705h -6.80315" fill="none" stroke="black"/>
<path d="M63.9961,287.071h -6.80315" fill="none" stroke="black"/>
<path d="M63.9961,278.437h -6.80315" fill="none" stroke="black"/>
<path d="M70.7992,269.804h -13.6063" fill="none" stroke="black"/>
<path d="M63.9961,261.17h -6.80315" fill="none" stroke="black"/>
<path d="M63.9961,252.536h -6.80315" fill="none" stroke="black"/>
<path d="M63.9961,243.902h -6.80315" fill="none" stroke="black"/>
<path d="M63.9961,235.269h -6.80315" fill="none" stroke="black"/>
<path d="M70.7992,226.635h -13.6063" fill="none" stroke="black"/>
<path d="M63.9961,218.001h -6.80315" fill="none" stroke="black"/>
<path d="M63.9961,209.368h -6.80315" fill="none" stroke="black"/>
<path d="M63.9961,200.734h -6.80315" fill="none" stroke="black"/>
<path d="M63.9961,192.1h -6.80315" fill="none" stroke="black"/>
<path d="M70.7992,183.466h -13.6063" fill="none" stroke="black"/>
<path d="M63.9961,174.833h -6.80315" fill="none" stroke="black"/>
<path d="M63.9961,166.199h -6.80315" fill="none" stroke="black"/>
<path d="M63.9961,157.565h -6.80315" fill="none" stroke="black"/>
<path d="M63.9961,148.932h -6.80315" fill="none" stroke="black"/>
<path d="M70.7992,140.298h -13.6063" fill="none" stroke="black"/>
<path d="M63.9961,131.664h -6.80315" fill="none" stroke="black"/>
<path d="M63.9961,123.03h -6.80315" fill="none" stroke="black"/>
<path d="M63.9961,114.397h -6.80315" fill="none" stroke="black"/>
<path d="M63.9961,105.763h -6.80315" fill="none" stroke="black"/>
<path d="M70.7992,97.1293h -13.6063" fill="none" stroke="black"/>
<path d="M63.9961,88.4956h -6.80315" fill="none" stroke="black"/>
<path d="M63.9961,79.8619h -6.80315" fill="none" stroke="black"/>
<path d="M63.9961,71.2282h -6.80315" fill="none" stroke="black"/>
<path d="M63.9961,62.5944h -6.80315" fill="none" stroke="black"/>
<path d="M70.7992,53.9607h -13.6063" fill="none" stroke="black"/>
<path d="M70.7992,53.9607h -13.6063" fill="none" stroke="black"/>
<text xml:space="preserve" x="19.853" y="494.071" fill="black" font-size="25.2526" font-family="Helvetica">0.5</text>
<text xml:space="preserve" x="6.19206" y="494.071" fill="black" font-size="25.2526" font-family="Times">&#8722;</text>
<text xml:space="preserve" x="40.3444" y="450.811" fill="black" font-size="25.2526" font-family="Helvetica">0</text>
<text xml:space="preserve" x="19.853" y="407.551" fill="black" font-size="25.2526" font-family="Helvetica">0.5</text>
<text xml:space="preserve" x="44.8981" y="365.43" fill="black" font-size="25.2526" font-family="Helvetica">1</text>
<text xml:space="preserve" x="19.853" y="321.032" fill="black" font-size="25.2526" font-family="Helvetica">1.5</text>
<text xml:space="preserve" x="40.3444" y="280.049" fill="black" font-size="25.2526" font-family="Helvetica">2</text>
<text xml:space="preserve" x="19.853" y="235.651" fill="black" font-size="25.2526" font-family="Helvetica">2.5</text>
<text xml:space="preserve" x="40.3444" y="192.392" fill="black" font-size="25.2526" font-family="Helvetica">3</text>
<text xml:space="preserve" x="19.853" y="149.132" fill="black" font-size="25.2526" font-family="Helvetica">3.5</text>
<text xml:space="preserve" x="40.3444" y="107.011" fill="black" font-size="25.2526" font-family="Helvetica">4</text>
<text xml:space="preserve" x="19.853" y="62.6127" fill="black" font-size="25.2526" font-family="Helvetica">4.5</text>
<g transform="rotate(-90,15.2994,176.454)">
<text xml:space="preserve" x="15.2994" y="176.454" fill="black" font-size="25.2526" font-family="Helvetica"> Multiplicity</text>
</g>
<g transform="rotate(-90,15.2994,188.976)">
<text xml:space="preserve" x="15.2994" y="188.976" fill="black" font-size="25.2526" font-family="Times">&#0947;</text>
</g></svg>
