<?xml version="1.0" standalone="no"?>
<svg width="567.429" height="384.68" viewBox="0 0 567.429 384.68" xmlns="http://www.w3.org/2000/svg" shape-rendering="crispEdges">
<title>
/u/home/ltracy/Root_work/01-18-19/beta.svg
</title>
<desc>
Creator: ROOT Version 6.10/02
CreationDate: Fri Nov 22 10:39:49 2019</desc>
<defs>
</defs>
<rect x="0.5" y="0" width="566.929" height="384.18" fill="white"/>
<rect x="57.1929" y="38.418" width="453.543" height="307.344" fill="white"/>
<rect x="57.1929" y="38.418" width="453.543" height="307.344" fill="none" stroke="black"/>
<rect x="57.1929" y="38.418" width="453.543" height="307.344" fill="white"/>
<rect x="57.1929" y="38.418" width="453.543" height="307.344" fill="none" stroke="black"/>
<path d="M57.1929,345.762h 19.6535v -0.000791536h 1.51181v -0.00474922h 1.51181v -0.0134561h 1.51181v -0.0166223h 1.51181v -0.0957758h 1.51181v -0.263581h 1.51181v -0.415556h 1.51181v -0.338777h 1.51181v 0.01029h 1.51181v -0.106857h 1.51181v
 -0.372813h 1.51181v -0.419514h 1.51181v -0.394976h 1.51181v -0.395768h 1.51181v -0.103691h 1.51181v -0.197884h 1.51181v 0.066489h 1.51181v -0.0609483h 1.51181v -0.0308699h 1.51181v 0.088652h 3.02362v -0.01029h 1.51181v 0.169389h 1.51181v 0.022163h
 1.51181v 0.00712382h 1.51181v 0.103691h 1.51181v 0.0554075h 1.51181v 0.0656975h 1.51181v 0.00395768h 1.51181v -0.00791536h 1.51181v 0.098942h 1.51181v 0.0783621h 1.51181v -0.0387853h 1.51181v 0.0641144h 1.51181v 0.022163h 1.51181v 0.0791536h
 1.51181v 0.0197884h 1.51181v -0.0482837h 1.51181v -0.0158307h 1.51181v -0.0229545h 1.51181v 0.0134561h 1.51181v 0.0641144h 1.51181v -0.0736128h 1.51181v 0.0791536h 1.51181v 0.00474922h 1.51181v -0.0174138h 1.51181v -0.0799451h 1.51181v -0.0269122h
 1.51181v -0.14406h 1.51181v 0.0862774h 1.51181v -0.182053h 1.51181v -0.265956h 1.51181v -0.0736128h 1.51181v -0.208965h 1.51181v -0.134561h 1.51181v -0.331654h 1.51181v -0.217672h 1.51181v -0.337194h 1.51181v -0.182053h 1.51181v -0.303158h 1.51181v
 -0.573864h 1.51181v -0.220047h 1.51181v -0.502625h 1.51181v -0.300784h 1.51181v -0.683096h 1.51181v -0.352233h 1.51181v -0.550117h 1.51181v -0.428221h 1.51181v -0.292868h 1.51181v -0.672806h 1.51181v -0.608691h 1.51181v -0.656183h 1.51181v -0.48442h
 1.51181v -0.516873h 1.51181v -0.456716h 1.51181v -0.85565h 1.51181v -0.699718h 1.51181v -0.593652h 1.51181v -0.782037h 1.51181v -0.995752h 1.51181v -0.524788h 1.51181v -0.837445h 1.51181v -0.579404h 1.51181v -1.04562h 1.51181v -0.967257h 1.51181v
 -0.752751h 1.51181v -0.915807h 1.51181v -1.02662h 1.51181v -0.959342h 1.51181v -1.4398h 1.51181v -0.777288h 1.51181v -1.08836h 1.51181v -1.14219h 1.51181v -1.30841h 1.51181v -1.42556h 1.51181v -1.22213h 1.51181v -0.967257h 1.51181v -1.8237h 1.51181v
 -1.24825h 1.51181v -1.29891h 1.51181v -0.923722h 1.51181v -1.04087h 1.51181v -1.78729h 1.51181v -0.714757h 1.51181v -1.41843h 1.51181v -0.711591h 1.51181v -0.861983h 1.51181v -0.398934h 1.51181v -0.916599h 1.51181v -0.192343h 1.51181v -0.0823197h
 1.51181v 0.0245376h 1.51181v 0.0799451h 1.51181v 0.578613h 1.51181v 0.181262h 1.51181v 0.561199h 1.51181v 0.233503h 1.51181v 0.201842h 1.51181v 0.140893h 1.51181v -0.70605h 1.51181v -0.520039h 1.51181v -1.31237h 1.51181v -1.37886h 1.51181v -2.24242h
 1.51181v -3.38698h 1.51181v -5.01596h 1.51181v -6.4898h 1.51181v -8.11166h 1.51181v -9.41769h 1.51181v -12.2419h 1.51181v -13.1941h 1.51181v -15.4904h 1.51181v -20.5871h 1.51181v -24.0492h 1.51181v -29.8013h 1.51181v -33.8366h 1.51181v -31.0124h
 1.51181v -21.1388h 1.51181v -8.3982h 1.51181v 7.54096h 1.51181v 21.1601h 1.51181v 26.7998h 1.51181v 28.7153h 1.51181v 29.0834h 1.51181v 27.7101h 1.51181v 23.9076h 1.51181v 21.2923h 1.51181v 17.7716h 1.51181v 15.8181h 1.51181v 12.678h 1.51181v
 10.7221h 1.51181v 8.7061h 1.51181v 6.81671h 1.51181v 6.06791h 1.51181v 4.54025h 1.51181v 3.86665h 1.51181v 3.07037h 1.51181v 2.52975h 1.51181v 1.78016h 1.51181v 1.8704h 1.51181v 1.53004h 1.51181v 1.19443h 1.51181v 0.978338h 1.51181v 0.976755h
 1.51181v 0.745627h 1.51181v 0.392602h 1.51181v 0.632437h 1.51181v 0.317406h 1.51181v 0.429012h 1.51181v 0.290494h 1.51181v 0.189177h 1.51181v 0.351442h 1.51181v 0.13931h 1.51181v 0.21134h 1.51181v 0.131395h 1.51181v 0.167806h 1.51181v 0.1029h
 1.51181v 0.0514498h 1.51181v 0.0593652h 1.51181v 0.15989h 1.51181v 0.0506583h 1.51181v 0.0197884h 1.51181v 0.0823197h 1.51181v 0.0617398h 1.51181v 0.0926097h 1.51181v 0.0150392h 1.51181v 0.0332445h 1.51181v 0.0601567h 1.51181v 0.0419514h 1.51181v
 0.0253291h 1.51181v 0.00791536h 1.51181v 0.0672806h 1.51181v -0.0237461h 1.51181v 0.0846943h 1.51181v -0.0261207h 1.51181v 0.0601567h 1.51181v -0.0253291h 1.51181v 0.0506583h 1.51181v 0.0237461h 1.51181v 0.0150392h 1.51181v 0.00158307h 1.51181v
 0.0411599h 1.51181v -0.0284953h 1.51181v 0.0585737h 1.51181v -0.00474922h 3.02362v 0.00395768h 1.51181v 0.00474922h 1.51181v -0.00870689h 1.51181v 0.0277038h 1.51181v 0.00791536h 1.51181v 0.0174138h 1.51181v 0.0245376h 1.51181v 0.0759875h 1.51181v
 0.054616h 1.51181v -0.00395768h 1.51181v 0.0245376h 1.51181v 0.0261207h 1.51181v 0.0253291h 1.51181v 0.00633229h 1.51181v 0.0364107h 1.51181v -0.0142476h 1.51181v 0.034036h 1.51181v -0.00474922h 1.51181v 0.0261207h 1.51181v 0.00949843h 1.51181v
 -0.0126646h 1.51181v 0.0253291h 1.51181v 0.00316614h 1.51181v 0.00554075h 1.51181v -0.00158307h 1.51181v 0.01029h 1.51181v 0.0110815h 1.51181v 0.00554075h 1.51181v 0.000791536h 1.51181v 0.00237461h 1.51181v -0.000791536h 1.51181v -0.000791536h
 1.51181v 0.00237461h 1.51181v -0.00395768h 1.51181v 0.00395768h 6.04724v -0.000791536h 1.51181v 0.000791536h 63.4961" fill="none" stroke="#000099"/>
<path d="M57.1929,345.762h 453.543" fill="none" stroke="black"/>
<path d="M57.1929,336.541v 9.22031" fill="none" stroke="black"/>
<path d="M68.5315,341.152v 4.61016" fill="none" stroke="black"/>
<path d="M79.8701,341.152v 4.61016" fill="none" stroke="black"/>
<path d="M91.2087,341.152v 4.61016" fill="none" stroke="black"/>
<path d="M102.547,336.541v 9.22031" fill="none" stroke="black"/>
<path d="M113.886,341.152v 4.61016" fill="none" stroke="black"/>
<path d="M125.224,341.152v 4.61016" fill="none" stroke="black"/>
<path d="M136.563,341.152v 4.61016" fill="none" stroke="black"/>
<path d="M147.902,336.541v 9.22031" fill="none" stroke="black"/>
<path d="M159.24,341.152v 4.61016" fill="none" stroke="black"/>
<path d="M170.579,341.152v 4.61016" fill="none" stroke="black"/>
<path d="M181.917,341.152v 4.61016" fill="none" stroke="black"/>
<path d="M193.256,336.541v 9.22031" fill="none" stroke="black"/>
<path d="M204.594,341.152v 4.61016" fill="none" stroke="black"/>
<path d="M215.933,341.152v 4.61016" fill="none" stroke="black"/>
<path d="M227.272,341.152v 4.61016" fill="none" stroke="black"/>
<path d="M238.61,336.541v 9.22031" fill="none" stroke="black"/>
<path d="M249.949,341.152v 4.61016" fill="none" stroke="black"/>
<path d="M261.287,341.152v 4.61016" fill="none" stroke="black"/>
<path d="M272.626,341.152v 4.61016" fill="none" stroke="black"/>
<path d="M283.965,336.541v 9.22031" fill="none" stroke="black"/>
<path d="M295.303,341.152v 4.61016" fill="none" stroke="black"/>
<path d="M306.642,341.152v 4.61016" fill="none" stroke="black"/>
<path d="M317.98,341.152v 4.61016" fill="none" stroke="black"/>
<path d="M329.319,336.541v 9.22031" fill="none" stroke="black"/>
<path d="M340.657,341.152v 4.61016" fill="none" stroke="black"/>
<path d="M351.996,341.152v 4.61016" fill="none" stroke="black"/>
<path d="M363.335,341.152v 4.61016" fill="none" stroke="black"/>
<path d="M374.673,336.541v 9.22031" fill="none" stroke="black"/>
<path d="M386.012,341.152v 4.61016" fill="none" stroke="black"/>
<path d="M397.35,341.152v 4.61016" fill="none" stroke="black"/>
<path d="M408.689,341.152v 4.61016" fill="none" stroke="black"/>
<path d="M420.028,336.541v 9.22031" fill="none" stroke="black"/>
<path d="M431.366,341.152v 4.61016" fill="none" stroke="black"/>
<path d="M442.705,341.152v 4.61016" fill="none" stroke="black"/>
<path d="M454.043,341.152v 4.61016" fill="none" stroke="black"/>
<path d="M465.382,336.541v 9.22031" fill="none" stroke="black"/>
<path d="M476.72,341.152v 4.61016" fill="none" stroke="black"/>
<path d="M488.059,341.152v 4.61016" fill="none" stroke="black"/>
<path d="M499.398,341.152v 4.61016" fill="none" stroke="black"/>
<path d="M510.736,336.541v 9.22031" fill="none" stroke="black"/>
<text xml:space="preserve" x="51.6698" y="362.25" fill="black" font-size="18.1229" font-family="Helvetica">0</text>
<text xml:space="preserve" x="89.8441" y="362.25" fill="black" font-size="18.1229" font-family="Helvetica">0.2</text>
<text xml:space="preserve" x="135.328" y="362.25" fill="black" font-size="18.1229" font-family="Helvetica">0.4</text>
<text xml:space="preserve" x="180.813" y="362.25" fill="black" font-size="18.1229" font-family="Helvetica">0.6</text>
<text xml:space="preserve" x="226.297" y="362.25" fill="black" font-size="18.1229" font-family="Helvetica">0.8</text>
<text xml:space="preserve" x="280.716" y="362.25" fill="black" font-size="18.1229" font-family="Helvetica">1</text>
<text xml:space="preserve" x="316.453" y="362.25" fill="black" font-size="18.1229" font-family="Helvetica">1.2</text>
<text xml:space="preserve" x="361.938" y="362.25" fill="black" font-size="18.1229" font-family="Helvetica">1.4</text>
<text xml:space="preserve" x="407.422" y="362.25" fill="black" font-size="18.1229" font-family="Helvetica">1.6</text>
<text xml:space="preserve" x="452.906" y="362.25" fill="black" font-size="18.1229" font-family="Helvetica">1.8</text>
<text xml:space="preserve" x="505.7" y="362.25" fill="black" font-size="18.1229" font-family="Helvetica">2</text>
<path d="M57.1929,345.762v -307.344" fill="none" stroke="black"/>
<path d="M70.7992,345.762h -13.6063" fill="none" stroke="black"/>
<path d="M63.9961,337.846h -6.80315" fill="none" stroke="black"/>
<path d="M63.9961,329.931h -6.80315" fill="none" stroke="black"/>
<path d="M63.9961,322.016h -6.80315" fill="none" stroke="black"/>
<path d="M63.9961,314.1h -6.80315" fill="none" stroke="black"/>
<path d="M70.7992,306.185h -13.6063" fill="none" stroke="black"/>
<path d="M63.9961,298.27h -6.80315" fill="none" stroke="black"/>
<path d="M63.9961,290.354h -6.80315" fill="none" stroke="black"/>
<path d="M63.9961,282.439h -6.80315" fill="none" stroke="black"/>
<path d="M63.9961,274.524h -6.80315" fill="none" stroke="black"/>
<path d="M70.7992,266.608h -13.6063" fill="none" stroke="black"/>
<path d="M63.9961,258.693h -6.80315" fill="none" stroke="black"/>
<path d="M63.9961,250.777h -6.80315" fill="none" stroke="black"/>
<path d="M63.9961,242.862h -6.80315" fill="none" stroke="black"/>
<path d="M63.9961,234.947h -6.80315" fill="none" stroke="black"/>
<path d="M70.7992,227.031h -13.6063" fill="none" stroke="black"/>
<path d="M63.9961,219.116h -6.80315" fill="none" stroke="black"/>
<path d="M63.9961,211.201h -6.80315" fill="none" stroke="black"/>
<path d="M63.9961,203.285h -6.80315" fill="none" stroke="black"/>
<path d="M63.9961,195.37h -6.80315" fill="none" stroke="black"/>
<path d="M70.7992,187.455h -13.6063" fill="none" stroke="black"/>
<path d="M63.9961,179.539h -6.80315" fill="none" stroke="black"/>
<path d="M63.9961,171.624h -6.80315" fill="none" stroke="black"/>
<path d="M63.9961,163.709h -6.80315" fill="none" stroke="black"/>
<path d="M63.9961,155.793h -6.80315" fill="none" stroke="black"/>
<path d="M70.7992,147.878h -13.6063" fill="none" stroke="black"/>
<path d="M63.9961,139.962h -6.80315" fill="none" stroke="black"/>
<path d="M63.9961,132.047h -6.80315" fill="none" stroke="black"/>
<path d="M63.9961,124.132h -6.80315" fill="none" stroke="black"/>
<path d="M63.9961,116.216h -6.80315" fill="none" stroke="black"/>
<path d="M70.7992,108.301h -13.6063" fill="none" stroke="black"/>
<path d="M63.9961,100.386h -6.80315" fill="none" stroke="black"/>
<path d="M63.9961,92.4703h -6.80315" fill="none" stroke="black"/>
<path d="M63.9961,84.5549h -6.80315" fill="none" stroke="black"/>
<path d="M63.9961,76.6396h -6.80315" fill="none" stroke="black"/>
<path d="M70.7992,68.7242h -13.6063" fill="none" stroke="black"/>
<path d="M70.7992,68.7242h -13.6063" fill="none" stroke="black"/>
<path d="M63.9961,60.8089h -6.80315" fill="none" stroke="black"/>
<path d="M63.9961,52.8935h -6.80315" fill="none" stroke="black"/>
<path d="M63.9961,44.9782h -6.80315" fill="none" stroke="black"/>
<text xml:space="preserve" x="44.3598" y="351.691" fill="black" font-size="18.1229" font-family="Helvetica">0</text>
<text xml:space="preserve" x="34.6132" y="311.892" fill="black" font-size="18.1229" font-family="Helvetica">50</text>
<text xml:space="preserve" x="24.8666" y="272.906" fill="black" font-size="18.1229" font-family="Helvetica">100</text>
<text xml:space="preserve" x="24.8666" y="233.107" fill="black" font-size="18.1229" font-family="Helvetica">150</text>
<text xml:space="preserve" x="24.8666" y="193.308" fill="black" font-size="18.1229" font-family="Helvetica">200</text>
<text xml:space="preserve" x="24.8666" y="154.322" fill="black" font-size="18.1229" font-family="Helvetica">250</text>
<text xml:space="preserve" x="24.8666" y="114.523" fill="black" font-size="18.1229" font-family="Helvetica">300</text>
<text xml:space="preserve" x="24.8666" y="74.7242" fill="black" font-size="18.1229" font-family="Helvetica">350</text>
<text xml:space="preserve" x="85.783" y="26.8032" fill="black" font-size="12.2486" font-family="Helvetica">3</text>
<text xml:space="preserve" x="66.2898" y="35.7377" fill="black" font-size="18.1229" font-family="Helvetica">10</text>
<text xml:space="preserve" x="56.5431" y="35.7377" fill="black" font-size="18.1229" font-family="Times">&#0215;</text></svg>
