<?xml version="1.0" standalone="no"?>
<svg width="567.429" height="384.68" viewBox="0 0 567.429 384.68" xmlns="http://www.w3.org/2000/svg" shape-rendering="crispEdges">
<title>
/u/home/ltracy/Root_work/01-18-19/C12_2261_e.svg
</title>
<desc>
Creator: ROOT Version 6.10/02
CreationDate: Thu Nov  7 11:09:56 2019</desc>
<defs>
</defs>
<rect x="0.5" y="0" width="566.929" height="384.18" fill="white"/>
<rect x="57.1929" y="38.418" width="453.543" height="307.344" fill="white"/>
<rect x="57.1929" y="38.418" width="453.543" height="307.344" fill="none" stroke="black"/>
<rect x="57.1929" y="38.418" width="453.543" height="307.344" fill="white"/>
<rect x="57.1929" y="38.418" width="453.543" height="307.344" fill="none" stroke="black"/>
<path d="M57.1929,345.762h 128.665v -1.19984h 3.21662v -11.5353h 3.21662v -25.8188h 3.21662v -28.8059h 3.21662v -33.4421h 3.21662v -28.777h 3.21662v -39.2564h 3.21662v -18.407h 3.21662v -26.5779h 3.21662v -13.7861h 3.21662v -17.9225h 3.21662v
 4.47539h 3.21662v -9.93833h 3.21662v 2.56817h 3.21662v -19.4197h 3.21662v 2.1717h 3.21662v 1.43462h 3.21662v -8.78066h 3.21662v -8.97894h 3.21662v -0.349981h 3.21662v 24.0297h 3.21662v -16.5719h 3.21662v 7.89102h 3.21662v -12.1919h 3.21662v
 -13.5188h 3.21662v 14.636h 3.21662v 3.73547h 3.21662v 13.0879h 3.21662v -3.26274h 3.21662v -2.45032h 3.21662v 19.4207h 3.21662v -2.3195h 3.21662v 9.60608h 3.21662v 1.00382h 3.21662v 8.65066h 3.21662v 4.00616h 3.21662v 0.254865h 3.21662v 7.6631h
 3.21662v 14.5797h 3.21662v -2.09103h 3.21662v 12.4055h 3.21662v 10.3552h 3.21662v 7.08102h 3.21662v 6.62589h 3.21662v 2.99143h 3.21662v 27.3812h 3.21662v -1.72333h 3.21662v 9.44547h 3.21662v -10.0752h 3.21662v 23.5351h 3.21662v -0.0169038h 3.21662v
 14.415h 3.21662v 2.94763h 3.21662v -8.82523h 3.21662v 9.79056h 3.21662v 16.1689h 3.21662v 5.59547h 3.21662v 0.805794h 3.21662v 13.8022h 3.21662v -2.74021h 3.21662v -1.74888h 3.21662v 19.2991h 3.21662v -1.97848h 3.21662v 7.71679h 3.21662v 8.42266h
 3.21662v -7.52287h 3.21662v 8.84343h 3.21662v 4.52196h 3.21662v -2.13032h 3.21662v -0.271207h 3.21662v 9.18358h 3.21662v 1.87389h 3.21662v 5.83215h 3.21662v -7.26875h 3.21662v 6.02564h 3.21662v 2.0076h 3.21662v -3.86153h 3.21662v -0.718307h 3.21662v
 12.142h 3.21662v -3.91924h 3.21662v 4.69975h 3.21662v 1.3358h 3.21662v -6.1811h 3.21662v 7.99754h 3.21662v 0.55287h 3.21662v -1.9094h 3.21662v -0.323922h 3.21662v -2.92842h 3.21662v 4.06282h 3.21662v 0.199214h 3.21662v 1.04263h 3.21662v -2.27687h
 3.21662v 3.50189h 3.21662v -2.80944h 3.21662v 2.80944h 22.5163" fill="none" stroke="#ff0000" stroke-width="5"/>
<path d="M57.1929,345.762h 453.543" fill="none" stroke="black"/>
<path d="M57.1929,336.541v 9.22031" fill="none" stroke="black"/>
<path d="M70.0594,341.152v 4.61016" fill="none" stroke="black"/>
<path d="M82.9259,341.152v 4.61016" fill="none" stroke="black"/>
<path d="M95.7923,341.152v 4.61016" fill="none" stroke="black"/>
<path d="M108.659,341.152v 4.61016" fill="none" stroke="black"/>
<path d="M121.525,336.541v 9.22031" fill="none" stroke="black"/>
<path d="M134.392,341.152v 4.61016" fill="none" stroke="black"/>
<path d="M147.258,341.152v 4.61016" fill="none" stroke="black"/>
<path d="M160.125,341.152v 4.61016" fill="none" stroke="black"/>
<path d="M172.991,341.152v 4.61016" fill="none" stroke="black"/>
<path d="M185.858,336.541v 9.22031" fill="none" stroke="black"/>
<path d="M198.724,341.152v 4.61016" fill="none" stroke="black"/>
<path d="M211.591,341.152v 4.61016" fill="none" stroke="black"/>
<path d="M224.457,341.152v 4.61016" fill="none" stroke="black"/>
<path d="M237.324,341.152v 4.61016" fill="none" stroke="black"/>
<path d="M250.19,336.541v 9.22031" fill="none" stroke="black"/>
<path d="M263.057,341.152v 4.61016" fill="none" stroke="black"/>
<path d="M275.923,341.152v 4.61016" fill="none" stroke="black"/>
<path d="M288.789,341.152v 4.61016" fill="none" stroke="black"/>
<path d="M301.656,341.152v 4.61016" fill="none" stroke="black"/>
<path d="M314.522,336.541v 9.22031" fill="none" stroke="black"/>
<path d="M327.389,341.152v 4.61016" fill="none" stroke="black"/>
<path d="M340.255,341.152v 4.61016" fill="none" stroke="black"/>
<path d="M353.122,341.152v 4.61016" fill="none" stroke="black"/>
<path d="M365.988,341.152v 4.61016" fill="none" stroke="black"/>
<path d="M378.855,336.541v 9.22031" fill="none" stroke="black"/>
<path d="M391.721,341.152v 4.61016" fill="none" stroke="black"/>
<path d="M404.588,341.152v 4.61016" fill="none" stroke="black"/>
<path d="M417.454,341.152v 4.61016" fill="none" stroke="black"/>
<path d="M430.321,341.152v 4.61016" fill="none" stroke="black"/>
<path d="M443.187,336.541v 9.22031" fill="none" stroke="black"/>
<path d="M456.054,341.152v 4.61016" fill="none" stroke="black"/>
<path d="M468.92,341.152v 4.61016" fill="none" stroke="black"/>
<path d="M481.787,341.152v 4.61016" fill="none" stroke="black"/>
<path d="M494.653,341.152v 4.61016" fill="none" stroke="black"/>
<path d="M507.52,336.541v 9.22031" fill="none" stroke="black"/>
<path d="M507.52,336.541v 9.22031" fill="none" stroke="black"/>
<text xml:space="preserve" x="51.6698" y="362.25" fill="black" font-size="18.1229" font-family="Helvetica">0</text>
<text xml:space="preserve" x="109.337" y="362.25" fill="black" font-size="18.1229" font-family="Helvetica">0.5</text>
<text xml:space="preserve" x="182.437" y="362.25" fill="black" font-size="18.1229" font-family="Helvetica">1</text>
<text xml:space="preserve" x="237.668" y="362.25" fill="black" font-size="18.1229" font-family="Helvetica">1.5</text>
<text xml:space="preserve" x="309.143" y="362.25" fill="black" font-size="18.1229" font-family="Helvetica">2</text>
<text xml:space="preserve" x="365.999" y="362.25" fill="black" font-size="18.1229" font-family="Helvetica">2.5</text>
<text xml:space="preserve" x="438.286" y="362.25" fill="black" font-size="18.1229" font-family="Helvetica">3</text>
<text xml:space="preserve" x="495.142" y="362.25" fill="black" font-size="18.1229" font-family="Helvetica">3.5</text>
<path d="M57.1929,345.762v -307.344" fill="none" stroke="black"/>
<path d="M70.7992,345.762h -13.6063" fill="none" stroke="black"/>
<path d="M63.9961,338.422h -6.80315" fill="none" stroke="black"/>
<path d="M63.9961,331.083h -6.80315" fill="none" stroke="black"/>
<path d="M63.9961,323.743h -6.80315" fill="none" stroke="black"/>
<path d="M63.9961,316.404h -6.80315" fill="none" stroke="black"/>
<path d="M70.7992,309.064h -13.6063" fill="none" stroke="black"/>
<path d="M63.9961,301.725h -6.80315" fill="none" stroke="black"/>
<path d="M63.9961,294.385h -6.80315" fill="none" stroke="black"/>
<path d="M63.9961,287.046h -6.80315" fill="none" stroke="black"/>
<path d="M63.9961,279.706h -6.80315" fill="none" stroke="black"/>
<path d="M70.7992,272.367h -13.6063" fill="none" stroke="black"/>
<path d="M63.9961,265.027h -6.80315" fill="none" stroke="black"/>
<path d="M63.9961,257.688h -6.80315" fill="none" stroke="black"/>
<path d="M63.9961,250.348h -6.80315" fill="none" stroke="black"/>
<path d="M63.9961,243.008h -6.80315" fill="none" stroke="black"/>
<path d="M70.7992,235.669h -13.6063" fill="none" stroke="black"/>
<path d="M63.9961,228.329h -6.80315" fill="none" stroke="black"/>
<path d="M63.9961,220.99h -6.80315" fill="none" stroke="black"/>
<path d="M63.9961,213.65h -6.80315" fill="none" stroke="black"/>
<path d="M63.9961,206.311h -6.80315" fill="none" stroke="black"/>
<path d="M70.7992,198.971h -13.6063" fill="none" stroke="black"/>
<path d="M63.9961,191.632h -6.80315" fill="none" stroke="black"/>
<path d="M63.9961,184.292h -6.80315" fill="none" stroke="black"/>
<path d="M63.9961,176.953h -6.80315" fill="none" stroke="black"/>
<path d="M63.9961,169.613h -6.80315" fill="none" stroke="black"/>
<path d="M70.7992,162.274h -13.6063" fill="none" stroke="black"/>
<path d="M63.9961,154.934h -6.80315" fill="none" stroke="black"/>
<path d="M63.9961,147.595h -6.80315" fill="none" stroke="black"/>
<path d="M63.9961,140.255h -6.80315" fill="none" stroke="black"/>
<path d="M63.9961,132.916h -6.80315" fill="none" stroke="black"/>
<path d="M70.7992,125.576h -13.6063" fill="none" stroke="black"/>
<path d="M63.9961,118.237h -6.80315" fill="none" stroke="black"/>
<path d="M63.9961,110.897h -6.80315" fill="none" stroke="black"/>
<path d="M63.9961,103.558h -6.80315" fill="none" stroke="black"/>
<path d="M63.9961,96.218h -6.80315" fill="none" stroke="black"/>
<path d="M70.7992,88.8785h -13.6063" fill="none" stroke="black"/>
<path d="M63.9961,81.539h -6.80315" fill="none" stroke="black"/>
<path d="M63.9961,74.1994h -6.80315" fill="none" stroke="black"/>
<path d="M63.9961,66.8599h -6.80315" fill="none" stroke="black"/>
<path d="M63.9961,59.5204h -6.80315" fill="none" stroke="black"/>
<path d="M70.7992,52.1809h -13.6063" fill="none" stroke="black"/>
<path d="M70.7992,52.1809h -13.6063" fill="none" stroke="black"/>
<path d="M63.9961,44.8413h -6.80315" fill="none" stroke="black"/>
<text xml:space="preserve" x="44.3598" y="351.691" fill="black" font-size="18.1229" font-family="Helvetica">0</text>
<text xml:space="preserve" x="24.8666" y="315.141" fill="black" font-size="18.1229" font-family="Helvetica">100</text>
<text xml:space="preserve" x="24.8666" y="278.591" fill="black" font-size="18.1229" font-family="Helvetica">200</text>
<text xml:space="preserve" x="24.8666" y="242.041" fill="black" font-size="18.1229" font-family="Helvetica">300</text>
<text xml:space="preserve" x="24.8666" y="204.679" fill="black" font-size="18.1229" font-family="Helvetica">400</text>
<text xml:space="preserve" x="24.8666" y="168.129" fill="black" font-size="18.1229" font-family="Helvetica">500</text>
<text xml:space="preserve" x="24.8666" y="131.58" fill="black" font-size="18.1229" font-family="Helvetica">600</text>
<text xml:space="preserve" x="24.8666" y="95.0297" fill="black" font-size="18.1229" font-family="Helvetica">700</text>
<text xml:space="preserve" x="24.8666" y="58.4798" fill="black" font-size="18.1229" font-family="Helvetica">800</text>
<text xml:space="preserve" x="85.783" y="26.8032" fill="black" font-size="12.2486" font-family="Helvetica">3</text>
<text xml:space="preserve" x="66.2898" y="35.7377" fill="black" font-size="18.1229" font-family="Helvetica">10</text>
<text xml:space="preserve" x="56.5431" y="35.7377" fill="black" font-size="18.1229" font-family="Times">&#0215;</text>
<path d="M57.1929,345.762h 128.665v -0.674357h 3.21662v -8.76449h 3.21662v -17.7396h 3.21662v -15.6113h 3.21662v -23.9792h 3.21662v -23.1503h 3.21662v -21.9819h 3.21662v -9.99165h 3.21662v -25.5665h 3.21662v -14.5786h 3.21662v 1.29124h 3.21662v
 -8.17507h 3.21662v -12.4045h 3.21662v -0.466564h 3.21662v -6.11045h 3.21662v 2.39638h 3.21662v -15.2717h 3.21662v 24.8099h 3.21662v -25.2959h 3.21662v 17.1529h 3.21662v -25.0562h 3.21662v -1.77249h 3.21662v -0.812577h 3.21662v 17.4635h 3.21662v
 -17.7041h 3.21662v -4.55044h 3.21662v 5.05221h 3.21662v -12.5295h 3.21662v 10.9586h 3.21662v 0.839137h 3.21662v 0.43216h 3.21662v -7.91898h 3.21662v 12.9113h 3.21662v 6.52454h 3.21662v -9.95145h 3.21662v -22.4687h 3.21662v 26.8646h 3.21662v
 -8.88342h 3.21662v 28.3636h 3.21662v -21.1732h 3.21662v 19.1587h 3.21662v -10.5909h 3.21662v 16.5749h 3.21662v -1.44628h 3.21662v -9.4671h 3.21662v -4.83204h 3.21662v 18.0569h 3.21662v -6.26118h 3.21662v 6.62861h 3.21662v -3.19128h 3.21662v 14.3014h
 3.21662v 8.53849h 3.21662v 0.464431h 3.21662v 5.61174h 3.21662v 6.31106h 3.21662v 7.75533h 3.21662v 19.1129h 3.21662v 0.10187h 3.21662v 8.44159h 3.21662v 7.98999h 3.21662v 14.5143h 3.21662v 19.0669h 3.21662v 4.27612h 3.21662v 11.3037h 3.21662v
 4.4623h 3.21662v -4.77722h 3.21662v 18.0467h 3.21662v 4.89742h 3.21662v -9.31727h 3.21662v 16.443h 3.21662v 1.52802h 3.21662v 1.1808h 3.21662v 2.03195h 3.21662v 1.7428h 3.21662v 6.34113h 3.21662v 3.04403h 3.21662v 1.6341h 3.21662v -5.26706h 3.21662v
 7.28782h 3.21662v 1.58648h 3.21662v 3.31117h 3.21662v -4.04224h 3.21662v -2.17996h 3.21662v 2.07968h 3.21662v -1.54499h 3.21662v 0.879322h 3.21662v -1.05939h 3.21662v 3.20171h 3.21662v -2.62847h 3.21662v 1.10076h 3.21662v 1.50746h 3.21662v 0.333973h
 3.21662v 3.2788h 3.21662v -1.28305h 3.21662v -0.153757h 3.21662v 1.4368h 19.2997" fill="none" stroke="black" stroke-width="5"/></svg>
