<?xml version="1.0" standalone="no"?>
<svg width="567.429" height="276.279" viewBox="0 0 567.429 276.279" xmlns="http://www.w3.org/2000/svg" shape-rendering="crispEdges">
<title>
/u/home/ltracy/Root_work/01-18-19/C12_2261_kin_e_pi_pimi.svg
</title>
<desc>
Creator: ROOT Version 6.10/02
CreationDate: Mon Nov 25 09:28:00 2019</desc>
<defs>
</defs>
<rect x="0.5" y="0" width="566.929" height="275.779" fill="white"/>
<rect x="57.1929" y="27.5779" width="453.543" height="220.624" fill="white"/>
<rect x="57.1929" y="27.5779" width="453.543" height="220.624" fill="none" stroke="black"/>
<rect x="57.1929" y="27.5779" width="453.543" height="220.624" fill="white"/>
<rect x="57.1929" y="27.5779" width="453.543" height="220.624" fill="none" stroke="black"/>
<path d="M142.433,233.871v -0.0293391" fill="none" stroke="#000099" stroke-width="2"/>
<path d="M142.433,233.842v -0.0293391" fill="none" stroke="#000099" stroke-width="2"/>
<g stroke="black" stroke-width="2" fill="none">
<line x1="141.433" y1="233.842" x2="142.433" y2="233.842"/>
</g>
<path d="M145.65,233.839v -0.00372789" fill="none" stroke="#000099" stroke-width="2"/>
<path d="M145.65,233.835v -0.00372789" fill="none" stroke="#000099" stroke-width="2"/>
<g stroke="black" stroke-width="2" fill="none">
<line x1="144.65" y1="233.835" x2="145.65" y2="233.835"/>
</g>
<path d="M148.867,233.96v -0.0445753" fill="none" stroke="#000099" stroke-width="2"/>
<path d="M148.867,233.916v -0.0445753" fill="none" stroke="#000099" stroke-width="2"/>
<g stroke="black" stroke-width="2" fill="none">
<line x1="147.867" y1="233.916" x2="148.867" y2="233.916"/>
</g>
<path d="M152.083,234.094v -0.0619333" fill="none" stroke="#000099" stroke-width="2"/>
<path d="M152.083,234.032v -0.0619333" fill="none" stroke="#000099" stroke-width="2"/>
<g stroke="black" stroke-width="2" fill="none">
<line x1="151.083" y1="234.032" x2="152.083" y2="234.032"/>
</g>
<path d="M155.3,234.207v -0.0865259" fill="none" stroke="#000099" stroke-width="2"/>
<path d="M155.3,234.12v -0.0865259" fill="none" stroke="#000099" stroke-width="2"/>
<g stroke="black" stroke-width="2" fill="none">
<line x1="154.3" y1="234.12" x2="155.3" y2="234.12"/>
</g>
<path d="M158.516,234.295v -0.191946" fill="none" stroke="#000099" stroke-width="2"/>
<path d="M158.516,234.103v -0.191946" fill="none" stroke="#000099" stroke-width="2"/>
<g stroke="black" stroke-width="2" fill="none">
<line x1="157.516" y1="234.103" x2="158.516" y2="234.103"/>
</g>
<path d="M161.733,234.721v -0.145303" fill="none" stroke="#000099" stroke-width="2"/>
<path d="M161.733,234.576v -0.145303" fill="none" stroke="#000099" stroke-width="2"/>
<g stroke="black" stroke-width="2" fill="none">
<line x1="160.733" y1="234.576" x2="161.733" y2="234.576"/>
</g>
<path d="M164.95,235.04v -0.193709" fill="none" stroke="#000099" stroke-width="2"/>
<path d="M164.95,234.846v -0.193709" fill="none" stroke="#000099" stroke-width="2"/>
<g stroke="black" stroke-width="2" fill="none">
<line x1="163.95" y1="234.846" x2="164.95" y2="234.846"/>
</g>
<path d="M168.166,236.159v -0.471185" fill="none" stroke="#000099" stroke-width="2"/>
<path d="M168.166,235.688v -0.471185" fill="none" stroke="#000099" stroke-width="2"/>
<g stroke="black" stroke-width="2" fill="none">
<line x1="167.166" y1="235.688" x2="168.166" y2="235.688"/>
</g>
<path d="M171.383,236.458v -0.348013" fill="none" stroke="#000099" stroke-width="2"/>
<path d="M171.383,236.11v -0.348013" fill="none" stroke="#000099" stroke-width="2"/>
<g stroke="black" stroke-width="2" fill="none">
<line x1="170.383" y1="236.11" x2="171.383" y2="236.11"/>
</g>
<path d="M174.6,237.686v -0.525569" fill="none" stroke="#000099" stroke-width="2"/>
<path d="M174.6,237.161v -0.525569" fill="none" stroke="#000099" stroke-width="2"/>
<g stroke="black" stroke-width="2" fill="none">
<line x1="173.6" y1="237.161" x2="174.6" y2="237.161"/>
</g>
<path d="M177.816,237.716v -0.465721" fill="none" stroke="#000099" stroke-width="2"/>
<path d="M177.816,237.25v -0.465721" fill="none" stroke="#000099" stroke-width="2"/>
<g stroke="black" stroke-width="2" fill="none">
<line x1="176.816" y1="237.25" x2="177.816" y2="237.25"/>
</g>
<path d="M181.033,238.196v -0.621914" fill="none" stroke="#000099" stroke-width="2"/>
<path d="M181.033,237.574v -0.621914" fill="none" stroke="#000099" stroke-width="2"/>
<g stroke="black" stroke-width="2" fill="none">
<line x1="180.033" y1="237.574" x2="181.033" y2="237.574"/>
</g>
<path d="M184.249,237.102v -0.571921" fill="none" stroke="#000099" stroke-width="2"/>
<path d="M184.249,236.53v -0.571921" fill="none" stroke="#000099" stroke-width="2"/>
<g stroke="black" stroke-width="2" fill="none">
<line x1="183.249" y1="236.53" x2="184.249" y2="236.53"/>
</g>
<path d="M187.466,237.639v -0.828966" fill="none" stroke="#000099" stroke-width="2"/>
<path d="M187.466,236.81v -0.828966" fill="none" stroke="#000099" stroke-width="2"/>
<g stroke="black" stroke-width="2" fill="none">
<line x1="186.466" y1="236.81" x2="187.466" y2="236.81"/>
</g>
<path d="M190.683,236.867v -0.765885" fill="none" stroke="#000099" stroke-width="2"/>
<path d="M190.683,236.101v -0.765885" fill="none" stroke="#000099" stroke-width="2"/>
<g stroke="black" stroke-width="2" fill="none">
<line x1="189.683" y1="236.101" x2="190.683" y2="236.101"/>
</g>
<path d="M193.899,234.748v -1.13694" fill="none" stroke="#000099" stroke-width="2"/>
<path d="M193.899,233.611v -1.13694" fill="none" stroke="#000099" stroke-width="2"/>
<g stroke="black" stroke-width="2" fill="none">
<line x1="192.899" y1="233.611" x2="193.899" y2="233.611"/>
</g>
<path d="M197.116,235.757v -1.24228" fill="none" stroke="#000099" stroke-width="2"/>
<path d="M197.116,234.515v -1.24228" fill="none" stroke="#000099" stroke-width="2"/>
<g stroke="black" stroke-width="2" fill="none">
<line x1="196.116" y1="234.515" x2="197.116" y2="234.515"/>
</g>
<path d="M200.332,232.441v -1.3824" fill="none" stroke="#000099" stroke-width="2"/>
<path d="M200.332,231.059v -1.3824" fill="none" stroke="#000099" stroke-width="2"/>
<g stroke="black" stroke-width="2" fill="none">
<line x1="199.332" y1="231.059" x2="200.332" y2="231.059"/>
</g>
<path d="M203.549,229.998v -1.18034" fill="none" stroke="#000099" stroke-width="2"/>
<path d="M203.549,228.818v -1.18034" fill="none" stroke="#000099" stroke-width="2"/>
<g stroke="black" stroke-width="2" fill="none">
<line x1="202.549" y1="228.818" x2="203.549" y2="228.818"/>
</g>
<path d="M206.766,228.964v -1.49525" fill="none" stroke="#000099" stroke-width="2"/>
<path d="M206.766,227.469v -1.49525" fill="none" stroke="#000099" stroke-width="2"/>
<g stroke="black" stroke-width="2" fill="none">
<line x1="205.766" y1="227.469" x2="206.766" y2="227.469"/>
</g>
<path d="M209.982,228.6v -1.39856" fill="none" stroke="#000099" stroke-width="2"/>
<path d="M209.982,227.201v -1.39856" fill="none" stroke="#000099" stroke-width="2"/>
<g stroke="black" stroke-width="2" fill="none">
<line x1="208.982" y1="227.201" x2="209.982" y2="227.201"/>
</g>
<path d="M213.199,225.166v -1.59665" fill="none" stroke="#000099" stroke-width="2"/>
<path d="M213.199,223.569v -1.59665" fill="none" stroke="#000099" stroke-width="2"/>
<g stroke="black" stroke-width="2" fill="none">
<line x1="212.199" y1="223.569" x2="213.199" y2="223.569"/>
</g>
<path d="M216.416,221.695v -1.77886" fill="none" stroke="#000099" stroke-width="2"/>
<path d="M216.416,219.917v -1.77886" fill="none" stroke="#000099" stroke-width="2"/>
<g stroke="black" stroke-width="2" fill="none">
<line x1="215.416" y1="219.917" x2="216.416" y2="219.917"/>
</g>
<path d="M219.632,222.101v -2.23375" fill="none" stroke="#000099" stroke-width="2"/>
<path d="M219.632,219.867v -2.23375" fill="none" stroke="#000099" stroke-width="2"/>
<g stroke="black" stroke-width="2" fill="none">
<line x1="218.632" y1="219.867" x2="219.632" y2="219.867"/>
</g>
<path d="M222.849,214.445v -1.7441" fill="none" stroke="#000099" stroke-width="2"/>
<path d="M222.849,212.7v -1.7441" fill="none" stroke="#000099" stroke-width="2"/>
<g stroke="black" stroke-width="2" fill="none">
<line x1="221.849" y1="212.7" x2="222.849" y2="212.7"/>
</g>
<path d="M226.065,214.839v -1.87577" fill="none" stroke="#000099" stroke-width="2"/>
<path d="M226.065,212.963v -1.87577" fill="none" stroke="#000099" stroke-width="2"/>
<g stroke="black" stroke-width="2" fill="none">
<line x1="225.065" y1="212.963" x2="226.065" y2="212.963"/>
</g>
<path d="M229.282,212.041v -2.14758" fill="none" stroke="#000099" stroke-width="2"/>
<path d="M229.282,209.893v -2.14758" fill="none" stroke="#000099" stroke-width="2"/>
<g stroke="black" stroke-width="2" fill="none">
<line x1="228.282" y1="209.893" x2="229.282" y2="209.893"/>
</g>
<path d="M232.499,209.938v -2.05104" fill="none" stroke="#000099" stroke-width="2"/>
<path d="M232.499,207.886v -2.05104" fill="none" stroke="#000099" stroke-width="2"/>
<g stroke="black" stroke-width="2" fill="none">
<line x1="231.499" y1="207.886" x2="232.499" y2="207.886"/>
</g>
<path d="M235.715,202.185v -2.22953" fill="none" stroke="#000099" stroke-width="2"/>
<path d="M235.715,199.956v -2.22953" fill="none" stroke="#000099" stroke-width="2"/>
<g stroke="black" stroke-width="2" fill="none">
<line x1="234.715" y1="199.956" x2="235.715" y2="199.956"/>
</g>
<path d="M238.932,205.053v -2.02914" fill="none" stroke="#000099" stroke-width="2"/>
<path d="M238.932,203.024v -2.02914" fill="none" stroke="#000099" stroke-width="2"/>
<g stroke="black" stroke-width="2" fill="none">
<line x1="237.932" y1="203.024" x2="238.932" y2="203.024"/>
</g>
<path d="M242.149,201.478v -2.17058" fill="none" stroke="#000099" stroke-width="2"/>
<path d="M242.149,199.307v -2.17058" fill="none" stroke="#000099" stroke-width="2"/>
<g stroke="black" stroke-width="2" fill="none">
<line x1="241.149" y1="199.307" x2="242.149" y2="199.307"/>
</g>
<path d="M245.365,194.583v -2.14736" fill="none" stroke="#000099" stroke-width="2"/>
<path d="M245.365,192.435v -2.14736" fill="none" stroke="#000099" stroke-width="2"/>
<g stroke="black" stroke-width="2" fill="none">
<line x1="244.365" y1="192.435" x2="245.365" y2="192.435"/>
</g>
<path d="M248.582,196.149v -2.53592" fill="none" stroke="#000099" stroke-width="2"/>
<path d="M248.582,193.613v -2.53592" fill="none" stroke="#000099" stroke-width="2"/>
<g stroke="black" stroke-width="2" fill="none">
<line x1="247.582" y1="193.613" x2="248.582" y2="193.613"/>
</g>
<path d="M251.798,188.843v -2.3705" fill="none" stroke="#000099" stroke-width="2"/>
<path d="M251.798,186.473v -2.3705" fill="none" stroke="#000099" stroke-width="2"/>
<g stroke="black" stroke-width="2" fill="none">
<line x1="250.798" y1="186.473" x2="251.798" y2="186.473"/>
</g>
<path d="M255.015,191.265v -2.48391" fill="none" stroke="#000099" stroke-width="2"/>
<path d="M255.015,188.782v -2.48391" fill="none" stroke="#000099" stroke-width="2"/>
<g stroke="black" stroke-width="2" fill="none">
<line x1="254.015" y1="188.782" x2="255.015" y2="188.782"/>
</g>
<path d="M258.232,184.567v -2.70555" fill="none" stroke="#000099" stroke-width="2"/>
<path d="M258.232,181.861v -2.70555" fill="none" stroke="#000099" stroke-width="2"/>
<g stroke="black" stroke-width="2" fill="none">
<line x1="257.232" y1="181.861" x2="258.232" y2="181.861"/>
</g>
<path d="M261.448,184.382v -2.31834" fill="none" stroke="#000099" stroke-width="2"/>
<path d="M261.448,182.064v -2.31834" fill="none" stroke="#000099" stroke-width="2"/>
<g stroke="black" stroke-width="2" fill="none">
<line x1="260.448" y1="182.064" x2="261.448" y2="182.064"/>
</g>
<path d="M264.665,176.547v -2.44309" fill="none" stroke="#000099" stroke-width="2"/>
<path d="M264.665,174.104v -2.44309" fill="none" stroke="#000099" stroke-width="2"/>
<g stroke="black" stroke-width="2" fill="none">
<line x1="263.665" y1="174.104" x2="264.665" y2="174.104"/>
</g>
<path d="M267.881,172.962v -2.45101" fill="none" stroke="#000099" stroke-width="2"/>
<path d="M267.881,170.511v -2.45101" fill="none" stroke="#000099" stroke-width="2"/>
<g stroke="black" stroke-width="2" fill="none">
<line x1="266.881" y1="170.511" x2="267.881" y2="170.511"/>
</g>
<path d="M271.098,174.177v -2.57869" fill="none" stroke="#000099" stroke-width="2"/>
<path d="M271.098,171.598v -2.57869" fill="none" stroke="#000099" stroke-width="2"/>
<g stroke="black" stroke-width="2" fill="none">
<line x1="270.098" y1="171.598" x2="271.098" y2="171.598"/>
</g>
<path d="M274.315,169.428v -2.56841" fill="none" stroke="#000099" stroke-width="2"/>
<path d="M274.315,166.859v -2.56841" fill="none" stroke="#000099" stroke-width="2"/>
<g stroke="black" stroke-width="2" fill="none">
<line x1="273.315" y1="166.859" x2="274.315" y2="166.859"/>
</g>
<path d="M277.531,169.846v -2.83358" fill="none" stroke="#000099" stroke-width="2"/>
<path d="M277.531,167.012v -2.83358" fill="none" stroke="#000099" stroke-width="2"/>
<g stroke="black" stroke-width="2" fill="none">
<line x1="276.531" y1="167.012" x2="277.531" y2="167.012"/>
</g>
<path d="M280.748,165.329v -2.82078" fill="none" stroke="#000099" stroke-width="2"/>
<path d="M280.748,162.508v -2.82078" fill="none" stroke="#000099" stroke-width="2"/>
<g stroke="black" stroke-width="2" fill="none">
<line x1="279.748" y1="162.508" x2="280.748" y2="162.508"/>
</g>
<path d="M283.965,157.794v -2.60077" fill="none" stroke="#000099" stroke-width="2"/>
<path d="M283.965,155.193v -2.60077" fill="none" stroke="#000099" stroke-width="2"/>
<g stroke="black" stroke-width="2" fill="none">
<line x1="282.965" y1="155.193" x2="283.965" y2="155.193"/>
</g>
<path d="M287.181,156.679v -2.65098" fill="none" stroke="#000099" stroke-width="2"/>
<path d="M287.181,154.028v -2.65098" fill="none" stroke="#000099" stroke-width="2"/>
<g stroke="black" stroke-width="2" fill="none">
<line x1="286.181" y1="154.028" x2="287.181" y2="154.028"/>
</g>
<path d="M290.398,149.096v -2.69436" fill="none" stroke="#000099" stroke-width="2"/>
<path d="M290.398,146.402v -2.69436" fill="none" stroke="#000099" stroke-width="2"/>
<g stroke="black" stroke-width="2" fill="none">
<line x1="289.398" y1="146.402" x2="290.398" y2="146.402"/>
</g>
<path d="M293.614,141.245v -14.8798" fill="none" stroke="#000099" stroke-width="2"/>
<path d="M293.614,126.365v -14.8798" fill="none" stroke="#000099" stroke-width="2"/>
<g stroke="black" stroke-width="2" fill="none">
<line x1="292.614" y1="126.365" x2="293.614" y2="126.365"/>
</g>
<path d="M296.831,148.213v -3.64721" fill="none" stroke="#000099" stroke-width="2"/>
<path d="M296.831,144.566v -3.64721" fill="none" stroke="#000099" stroke-width="2"/>
<g stroke="black" stroke-width="2" fill="none">
<line x1="295.831" y1="144.566" x2="296.831" y2="144.566"/>
</g>
<path d="M300.048,140.438v -2.73924" fill="none" stroke="#000099" stroke-width="2"/>
<path d="M300.048,137.698v -2.73924" fill="none" stroke="#000099" stroke-width="2"/>
<g stroke="black" stroke-width="2" fill="none">
<line x1="299.048" y1="137.698" x2="300.048" y2="137.698"/>
</g>
<path d="M303.264,137.857v -3.96142" fill="none" stroke="#000099" stroke-width="2"/>
<path d="M303.264,133.895v -3.96142" fill="none" stroke="#000099" stroke-width="2"/>
<g stroke="black" stroke-width="2" fill="none">
<line x1="302.264" y1="133.895" x2="303.264" y2="133.895"/>
</g>
<path d="M306.481,129.976v -2.81425" fill="none" stroke="#000099" stroke-width="2"/>
<path d="M306.481,127.162v -2.81425" fill="none" stroke="#000099" stroke-width="2"/>
<g stroke="black" stroke-width="2" fill="none">
<line x1="305.481" y1="127.162" x2="306.481" y2="127.162"/>
</g>
<path d="M309.698,132.505v -2.67335" fill="none" stroke="#000099" stroke-width="2"/>
<path d="M309.698,129.832v -2.67335" fill="none" stroke="#000099" stroke-width="2"/>
<g stroke="black" stroke-width="2" fill="none">
<line x1="308.698" y1="129.832" x2="309.698" y2="129.832"/>
</g>
<path d="M312.914,121.931v -2.91875" fill="none" stroke="#000099" stroke-width="2"/>
<path d="M312.914,119.013v -2.91875" fill="none" stroke="#000099" stroke-width="2"/>
<g stroke="black" stroke-width="2" fill="none">
<line x1="311.914" y1="119.013" x2="312.914" y2="119.013"/>
</g>
<path d="M316.131,116.27v -2.88983" fill="none" stroke="#000099" stroke-width="2"/>
<path d="M316.131,113.381v -2.88983" fill="none" stroke="#000099" stroke-width="2"/>
<g stroke="black" stroke-width="2" fill="none">
<line x1="315.131" y1="113.381" x2="316.131" y2="113.381"/>
</g>
<path d="M319.347,115.178v -3.19876" fill="none" stroke="#000099" stroke-width="2"/>
<path d="M319.347,111.979v -3.19876" fill="none" stroke="#000099" stroke-width="2"/>
<g stroke="black" stroke-width="2" fill="none">
<line x1="318.347" y1="111.979" x2="319.347" y2="111.979"/>
</g>
<path d="M322.564,108.716v -2.93166" fill="none" stroke="#000099" stroke-width="2"/>
<path d="M322.564,105.784v -2.93166" fill="none" stroke="#000099" stroke-width="2"/>
<g stroke="black" stroke-width="2" fill="none">
<line x1="321.564" y1="105.784" x2="322.564" y2="105.784"/>
</g>
<path d="M325.781,107.145v -2.89954" fill="none" stroke="#000099" stroke-width="2"/>
<path d="M325.781,104.245v -2.89954" fill="none" stroke="#000099" stroke-width="2"/>
<g stroke="black" stroke-width="2" fill="none">
<line x1="324.781" y1="104.245" x2="325.781" y2="104.245"/>
</g>
<path d="M328.997,99.5978v -2.91005" fill="none" stroke="#000099" stroke-width="2"/>
<path d="M328.997,96.6878v -2.91005" fill="none" stroke="#000099" stroke-width="2"/>
<g stroke="black" stroke-width="2" fill="none">
<line x1="327.997" y1="96.6878" x2="328.997" y2="96.6878"/>
</g>
<path d="M332.214,93.2863v -2.87564" fill="none" stroke="#000099" stroke-width="2"/>
<path d="M332.214,90.4107v -2.87564" fill="none" stroke="#000099" stroke-width="2"/>
<g stroke="black" stroke-width="2" fill="none">
<line x1="331.214" y1="90.4107" x2="332.214" y2="90.4107"/>
</g>
<path d="M335.43,89.3077v -3.43551" fill="none" stroke="#000099" stroke-width="2"/>
<path d="M335.43,85.8722v -3.43551" fill="none" stroke="#000099" stroke-width="2"/>
<g stroke="black" stroke-width="2" fill="none">
<line x1="334.43" y1="85.8722" x2="335.43" y2="85.8722"/>
</g>
<path d="M338.647,77.8139v -2.93165" fill="none" stroke="#000099" stroke-width="2"/>
<path d="M338.647,74.8823v -2.93165" fill="none" stroke="#000099" stroke-width="2"/>
<g stroke="black" stroke-width="2" fill="none">
<line x1="337.647" y1="74.8823" x2="338.647" y2="74.8823"/>
</g>
<path d="M341.864,68.5825v -3.05471" fill="none" stroke="#000099" stroke-width="2"/>
<path d="M341.864,65.5278v -3.05471" fill="none" stroke="#000099" stroke-width="2"/>
<g stroke="black" stroke-width="2" fill="none">
<line x1="340.864" y1="65.5278" x2="341.864" y2="65.5278"/>
</g>
<path d="M345.08,67.565v -4.39038" fill="none" stroke="#000099" stroke-width="2"/>
<path d="M345.08,63.1746v -4.39038" fill="none" stroke="#000099" stroke-width="2"/>
<g stroke="black" stroke-width="2" fill="none">
<line x1="344.08" y1="63.1746" x2="345.08" y2="63.1746"/>
</g>
<path d="M348.297,51.1437v -2.882" fill="none" stroke="#000099" stroke-width="2"/>
<path d="M348.297,48.2617v -2.882" fill="none" stroke="#000099" stroke-width="2"/>
<g stroke="black" stroke-width="2" fill="none">
<line x1="347.297" y1="48.2617" x2="348.297" y2="48.2617"/>
</g>
<path d="M351.514,56.2924v -3.71881" fill="none" stroke="#000099" stroke-width="2"/>
<path d="M351.514,52.5736v -3.71881" fill="none" stroke="#000099" stroke-width="2"/>
<g stroke="black" stroke-width="2" fill="none">
<line x1="350.514" y1="52.5736" x2="351.514" y2="52.5736"/>
</g>
<path d="M354.73,47.1484v -3.09858" fill="none" stroke="#000099" stroke-width="2"/>
<path d="M354.73,44.0499v -3.09858" fill="none" stroke="#000099" stroke-width="2"/>
<g stroke="black" stroke-width="2" fill="none">
<line x1="353.73" y1="44.0499" x2="354.73" y2="44.0499"/>
</g>
<path d="M357.947,44.2995v -3.10784" fill="none" stroke="#000099" stroke-width="2"/>
<path d="M357.947,41.1917v -3.10784" fill="none" stroke="#000099" stroke-width="2"/>
<g stroke="black" stroke-width="2" fill="none">
<line x1="356.947" y1="41.1917" x2="357.947" y2="41.1917"/>
</g>
<path d="M361.163,48.7882v -2.93366" fill="none" stroke="#000099" stroke-width="2"/>
<path d="M361.163,45.8545v -2.93366" fill="none" stroke="#000099" stroke-width="2"/>
<g stroke="black" stroke-width="2" fill="none">
<line x1="360.163" y1="45.8545" x2="361.163" y2="45.8545"/>
</g>
<path d="M364.38,51.667v -3.11937" fill="none" stroke="#000099" stroke-width="2"/>
<path d="M364.38,48.5476v -3.11937" fill="none" stroke="#000099" stroke-width="2"/>
<g stroke="black" stroke-width="2" fill="none">
<line x1="363.38" y1="48.5476" x2="364.38" y2="48.5476"/>
</g>
<path d="M367.597,64.1219v -2.95844" fill="none" stroke="#000099" stroke-width="2"/>
<path d="M367.597,61.1635v -2.95844" fill="none" stroke="#000099" stroke-width="2"/>
<g stroke="black" stroke-width="2" fill="none">
<line x1="366.597" y1="61.1635" x2="367.597" y2="61.1635"/>
</g>
<path d="M370.813,80.2274v -2.77631" fill="none" stroke="#000099" stroke-width="2"/>
<path d="M370.813,77.4511v -2.77631" fill="none" stroke="#000099" stroke-width="2"/>
<g stroke="black" stroke-width="2" fill="none">
<line x1="369.813" y1="77.4511" x2="370.813" y2="77.4511"/>
</g>
<path d="M374.03,92.1926v -2.8288" fill="none" stroke="#000099" stroke-width="2"/>
<path d="M374.03,89.3638v -2.8288" fill="none" stroke="#000099" stroke-width="2"/>
<g stroke="black" stroke-width="2" fill="none">
<line x1="373.03" y1="89.3638" x2="374.03" y2="89.3638"/>
</g>
<path d="M377.247,97.2913v -2.80284" fill="none" stroke="#000099" stroke-width="2"/>
<path d="M377.247,94.4885v -2.80284" fill="none" stroke="#000099" stroke-width="2"/>
<g stroke="black" stroke-width="2" fill="none">
<line x1="376.247" y1="94.4885" x2="377.247" y2="94.4885"/>
</g>
<path d="M380.463,108.252v -2.63312" fill="none" stroke="#000099" stroke-width="2"/>
<path d="M380.463,105.619v -2.63312" fill="none" stroke="#000099" stroke-width="2"/>
<g stroke="black" stroke-width="2" fill="none">
<line x1="379.463" y1="105.619" x2="380.463" y2="105.619"/>
</g>
<path d="M383.68,117.973v -2.55022" fill="none" stroke="#000099" stroke-width="2"/>
<path d="M383.68,115.423v -2.55022" fill="none" stroke="#000099" stroke-width="2"/>
<g stroke="black" stroke-width="2" fill="none">
<line x1="382.68" y1="115.423" x2="383.68" y2="115.423"/>
</g>
<path d="M386.896,132.994v -2.56433" fill="none" stroke="#000099" stroke-width="2"/>
<path d="M386.896,130.43v -2.56433" fill="none" stroke="#000099" stroke-width="2"/>
<g stroke="black" stroke-width="2" fill="none">
<line x1="385.896" y1="130.43" x2="386.896" y2="130.43"/>
</g>
<path d="M390.113,143.098v -12.2798" fill="none" stroke="#000099" stroke-width="2"/>
<path d="M390.113,130.818v -12.2798" fill="none" stroke="#000099" stroke-width="2"/>
<g stroke="black" stroke-width="2" fill="none">
<line x1="389.113" y1="130.818" x2="390.113" y2="130.818"/>
</g>
<path d="M393.33,149.687v -2.26637" fill="none" stroke="#000099" stroke-width="2"/>
<path d="M393.33,147.42v -2.26637" fill="none" stroke="#000099" stroke-width="2"/>
<g stroke="black" stroke-width="2" fill="none">
<line x1="392.33" y1="147.42" x2="393.33" y2="147.42"/>
</g>
<path d="M396.546,152.894v -2.57567" fill="none" stroke="#000099" stroke-width="2"/>
<path d="M396.546,150.318v -2.57567" fill="none" stroke="#000099" stroke-width="2"/>
<g stroke="black" stroke-width="2" fill="none">
<line x1="395.546" y1="150.318" x2="396.546" y2="150.318"/>
</g>
<path d="M399.763,161.793v -2.37732" fill="none" stroke="#000099" stroke-width="2"/>
<path d="M399.763,159.416v -2.37732" fill="none" stroke="#000099" stroke-width="2"/>
<g stroke="black" stroke-width="2" fill="none">
<line x1="398.763" y1="159.416" x2="399.763" y2="159.416"/>
</g>
<path d="M402.979,171.305v -2.53241" fill="none" stroke="#000099" stroke-width="2"/>
<path d="M402.979,168.773v -2.53241" fill="none" stroke="#000099" stroke-width="2"/>
<g stroke="black" stroke-width="2" fill="none">
<line x1="401.979" y1="168.773" x2="402.979" y2="168.773"/>
</g>
<path d="M406.196,168.697v -2.17974" fill="none" stroke="#000099" stroke-width="2"/>
<path d="M406.196,166.517v -2.17974" fill="none" stroke="#000099" stroke-width="2"/>
<g stroke="black" stroke-width="2" fill="none">
<line x1="405.196" y1="166.517" x2="406.196" y2="166.517"/>
</g>
<path d="M409.413,179.01v -2.04881" fill="none" stroke="#000099" stroke-width="2"/>
<path d="M409.413,176.961v -2.04881" fill="none" stroke="#000099" stroke-width="2"/>
<g stroke="black" stroke-width="2" fill="none">
<line x1="408.413" y1="176.961" x2="409.413" y2="176.961"/>
</g>
<path d="M412.629,182.205v -1.9846" fill="none" stroke="#000099" stroke-width="2"/>
<path d="M412.629,180.22v -1.9846" fill="none" stroke="#000099" stroke-width="2"/>
<g stroke="black" stroke-width="2" fill="none">
<line x1="411.629" y1="180.22" x2="412.629" y2="180.22"/>
</g>
<path d="M415.846,185.75v -2.15434" fill="none" stroke="#000099" stroke-width="2"/>
<path d="M415.846,183.595v -2.15434" fill="none" stroke="#000099" stroke-width="2"/>
<g stroke="black" stroke-width="2" fill="none">
<line x1="414.846" y1="183.595" x2="415.846" y2="183.595"/>
</g>
<path d="M419.063,189.545v -1.85469" fill="none" stroke="#000099" stroke-width="2"/>
<path d="M419.063,187.69v -1.85469" fill="none" stroke="#000099" stroke-width="2"/>
<g stroke="black" stroke-width="2" fill="none">
<line x1="418.063" y1="187.69" x2="419.063" y2="187.69"/>
</g>
<path d="M422.279,194.191v -1.85217" fill="none" stroke="#000099" stroke-width="2"/>
<path d="M422.279,192.339v -1.85217" fill="none" stroke="#000099" stroke-width="2"/>
<g stroke="black" stroke-width="2" fill="none">
<line x1="421.279" y1="192.339" x2="422.279" y2="192.339"/>
</g>
<path d="M425.496,196.391v -2.23798" fill="none" stroke="#000099" stroke-width="2"/>
<path d="M425.496,194.153v -2.23798" fill="none" stroke="#000099" stroke-width="2"/>
<g stroke="black" stroke-width="2" fill="none">
<line x1="424.496" y1="194.153" x2="425.496" y2="194.153"/>
</g>
<path d="M428.712,196.549v -1.81503" fill="none" stroke="#000099" stroke-width="2"/>
<path d="M428.712,194.734v -1.81503" fill="none" stroke="#000099" stroke-width="2"/>
<g stroke="black" stroke-width="2" fill="none">
<line x1="427.712" y1="194.734" x2="428.712" y2="194.734"/>
</g>
<path d="M431.929,197.158v -1.67355" fill="none" stroke="#000099" stroke-width="2"/>
<path d="M431.929,195.484v -1.67355" fill="none" stroke="#000099" stroke-width="2"/>
<g stroke="black" stroke-width="2" fill="none">
<line x1="430.929" y1="195.484" x2="431.929" y2="195.484"/>
</g>
<path d="M435.146,202.714v -1.87181" fill="none" stroke="#000099" stroke-width="2"/>
<path d="M435.146,200.842v -1.87181" fill="none" stroke="#000099" stroke-width="2"/>
<g stroke="black" stroke-width="2" fill="none">
<line x1="434.146" y1="200.842" x2="435.146" y2="200.842"/>
</g>
<path d="M438.362,204.89v -1.74803" fill="none" stroke="#000099" stroke-width="2"/>
<path d="M438.362,203.142v -1.74803" fill="none" stroke="#000099" stroke-width="2"/>
<g stroke="black" stroke-width="2" fill="none">
<line x1="437.362" y1="203.142" x2="438.362" y2="203.142"/>
</g>
<path d="M441.579,204.822v -1.60544" fill="none" stroke="#000099" stroke-width="2"/>
<path d="M441.579,203.216v -1.60544" fill="none" stroke="#000099" stroke-width="2"/>
<g stroke="black" stroke-width="2" fill="none">
<line x1="440.579" y1="203.216" x2="441.579" y2="203.216"/>
</g>
<path d="M444.796,207.074v -1.73096" fill="none" stroke="#000099" stroke-width="2"/>
<path d="M444.796,205.343v -1.73096" fill="none" stroke="#000099" stroke-width="2"/>
<g stroke="black" stroke-width="2" fill="none">
<line x1="443.796" y1="205.343" x2="444.796" y2="205.343"/>
</g>
<path d="M448.012,208.4v -1.5536" fill="none" stroke="#000099" stroke-width="2"/>
<path d="M448.012,206.846v -1.5536" fill="none" stroke="#000099" stroke-width="2"/>
<g stroke="black" stroke-width="2" fill="none">
<line x1="447.012" y1="206.846" x2="448.012" y2="206.846"/>
</g>
<path d="M451.229,211.481v -1.53273" fill="none" stroke="#000099" stroke-width="2"/>
<path d="M451.229,209.948v -1.53273" fill="none" stroke="#000099" stroke-width="2"/>
<g stroke="black" stroke-width="2" fill="none">
<line x1="450.229" y1="209.948" x2="451.229" y2="209.948"/>
</g>
<path d="M454.445,213.484v -1.44256" fill="none" stroke="#000099" stroke-width="2"/>
<path d="M454.445,212.041v -1.44256" fill="none" stroke="#000099" stroke-width="2"/>
<g stroke="black" stroke-width="2" fill="none">
<line x1="453.445" y1="212.041" x2="454.445" y2="212.041"/>
</g>
<path d="M457.662,210.406v -2.66485" fill="none" stroke="#000099" stroke-width="2"/>
<path d="M457.662,207.741v -2.66485" fill="none" stroke="#000099" stroke-width="2"/>
<g stroke="black" stroke-width="2" fill="none">
<line x1="456.662" y1="207.741" x2="457.662" y2="207.741"/>
</g>
<path d="M460.879,215.42v -1.44512" fill="none" stroke="#000099" stroke-width="2"/>
<path d="M460.879,213.975v -1.44512" fill="none" stroke="#000099" stroke-width="2"/>
<g stroke="black" stroke-width="2" fill="none">
<line x1="459.879" y1="213.975" x2="460.879" y2="213.975"/>
</g>
<path d="M464.095,217.735v -1.27884" fill="none" stroke="#000099" stroke-width="2"/>
<path d="M464.095,216.456v -1.27884" fill="none" stroke="#000099" stroke-width="2"/>
<g stroke="black" stroke-width="2" fill="none">
<line x1="463.095" y1="216.456" x2="464.095" y2="216.456"/>
</g>
<path d="M467.312,216.742v -1.41732" fill="none" stroke="#000099" stroke-width="2"/>
<path d="M467.312,215.324v -1.41732" fill="none" stroke="#000099" stroke-width="2"/>
<g stroke="black" stroke-width="2" fill="none">
<line x1="466.312" y1="215.324" x2="467.312" y2="215.324"/>
</g>
<path d="M470.528,217.131v -1.44333" fill="none" stroke="#000099" stroke-width="2"/>
<path d="M470.528,215.687v -1.44333" fill="none" stroke="#000099" stroke-width="2"/>
<g stroke="black" stroke-width="2" fill="none">
<line x1="469.528" y1="215.687" x2="470.528" y2="215.687"/>
</g>
<path d="M473.745,217.953v -1.21319" fill="none" stroke="#000099" stroke-width="2"/>
<path d="M473.745,216.74v -1.21319" fill="none" stroke="#000099" stroke-width="2"/>
<g stroke="black" stroke-width="2" fill="none">
<line x1="472.745" y1="216.74" x2="473.745" y2="216.74"/>
</g>
<path d="M476.962,220.172v -1.17043" fill="none" stroke="#000099" stroke-width="2"/>
<path d="M476.962,219.002v -1.17043" fill="none" stroke="#000099" stroke-width="2"/>
<g stroke="black" stroke-width="2" fill="none">
<line x1="475.962" y1="219.002" x2="476.962" y2="219.002"/>
</g>
<path d="M480.178,219.661v -1.19225" fill="none" stroke="#000099" stroke-width="2"/>
<path d="M480.178,218.469v -1.19225" fill="none" stroke="#000099" stroke-width="2"/>
<g stroke="black" stroke-width="2" fill="none">
<line x1="479.178" y1="218.469" x2="480.178" y2="218.469"/>
</g>
<path d="M483.395,220.161v -1.158" fill="none" stroke="#000099" stroke-width="2"/>
<path d="M483.395,219.003v -1.158" fill="none" stroke="#000099" stroke-width="2"/>
<g stroke="black" stroke-width="2" fill="none">
<line x1="482.395" y1="219.003" x2="483.395" y2="219.003"/>
</g>
<path d="M486.612,221.169v -1.20087" fill="none" stroke="#000099" stroke-width="2"/>
<path d="M486.612,219.968v -1.20087" fill="none" stroke="#000099" stroke-width="2"/>
<g stroke="black" stroke-width="2" fill="none">
<line x1="485.612" y1="219.968" x2="486.612" y2="219.968"/>
</g>
<path d="M489.828,223.102v -1.19343" fill="none" stroke="#000099" stroke-width="2"/>
<path d="M489.828,221.909v -1.19343" fill="none" stroke="#000099" stroke-width="2"/>
<g stroke="black" stroke-width="2" fill="none">
<line x1="488.828" y1="221.909" x2="489.828" y2="221.909"/>
</g>
<path d="M493.045,222.42v -1.13064" fill="none" stroke="#000099" stroke-width="2"/>
<path d="M493.045,221.289v -1.13064" fill="none" stroke="#000099" stroke-width="2"/>
<g stroke="black" stroke-width="2" fill="none">
<line x1="492.045" y1="221.289" x2="493.045" y2="221.289"/>
</g>
<path d="M496.261,223.042v -1.21148" fill="none" stroke="#000099" stroke-width="2"/>
<path d="M496.261,221.831v -1.21148" fill="none" stroke="#000099" stroke-width="2"/>
<g stroke="black" stroke-width="2" fill="none">
<line x1="495.261" y1="221.831" x2="496.261" y2="221.831"/>
</g>
<path d="M499.478,225.812v -1.15529" fill="none" stroke="#000099" stroke-width="2"/>
<path d="M499.478,224.657v -1.15529" fill="none" stroke="#000099" stroke-width="2"/>
<g stroke="black" stroke-width="2" fill="none">
<line x1="498.478" y1="224.657" x2="499.478" y2="224.657"/>
</g>
<path d="M502.695,223.047v -1.08603" fill="none" stroke="#000099" stroke-width="2"/>
<path d="M502.695,221.961v -1.08603" fill="none" stroke="#000099" stroke-width="2"/>
<g stroke="black" stroke-width="2" fill="none">
<line x1="501.695" y1="221.961" x2="502.695" y2="221.961"/>
</g>
<path d="M505.911,223.841v -1.01597" fill="none" stroke="#000099" stroke-width="2"/>
<path d="M505.911,222.825v -1.01597" fill="none" stroke="#000099" stroke-width="2"/>
<g stroke="black" stroke-width="2" fill="none">
<line x1="504.911" y1="222.825" x2="505.911" y2="222.825"/>
</g>
<path d="M509.128,224.811v -1.04138" fill="none" stroke="#000099" stroke-width="2"/>
<path d="M509.128,223.77v -1.04138" fill="none" stroke="#000099" stroke-width="2"/>
<g stroke="black" stroke-width="2" fill="none">
<line x1="508.128" y1="223.77" x2="509.128" y2="223.77"/>
</g>
<path d="M57.1929,233.838h 83.6321v 0.00411202h 3.21662v -0.00674973h 3.21662v 0.0807362h 3.21662v 0.115975h 3.21662v 0.0887068h 3.21662v -0.0176301h 3.21662v 0.473149h 3.21662v 0.269992h 3.21662v 0.842274h 3.21662v 0.421424h 3.21662v 1.05129h
 3.21662v 0.0889983h 3.21662v 0.324024h 3.21662v -1.04353h 3.21662v 0.279339h 3.21662v -0.70907h 3.21662v -2.48942h 3.21662v 0.903554h 3.21662v -3.45616h 3.21662v -2.24104h 3.21662v -1.34867h 3.21662v -0.267943h 3.21662v -3.63177h 3.21662v -3.65266h
 3.21662v -0.0497886h 3.21662v -7.16631h 3.21662v 0.262828h 3.21662v -3.07028h 3.21662v -2.00655h 3.21662v -7.93093h 3.21662v 3.06852h 3.21662v -3.71686h 3.21662v -6.87177h 3.21662v 1.1772h 3.21662v -7.13971h 3.21662v 2.30861h 3.21662v -6.92044h
 3.21662v 0.202658h 3.21662v -7.95984h 3.21662v -3.59318h 3.21662v 1.08759h 3.21662v -4.73896h 3.21662v 0.152861h 3.21662v -4.50374h 3.21662v -7.31518h 3.21662v -1.16577h 3.21662v -7.62581h 3.21662v -20.0366h 3.21662v 18.2009h 3.21662v -6.8676h
 3.21662v -3.80323h 3.21662v -6.73355h 3.21662v 2.67044h 3.21662v -10.8194h 3.21662v -5.63203h 3.21662v -1.40161h 3.21662v -6.19469h 3.21662v -1.53927h 3.21662v -7.55728h 3.21662v -6.2771h 3.21662v -4.53854h 3.21662v -10.9899h 3.21662v -9.3545h
 3.21662v -2.35315h 3.21662v -14.9129h 3.21662v 4.31191h 3.21662v -8.52373h 3.21662v -2.8582h 3.21662v 4.66284h 3.21662v 2.69311h 3.21662v 12.6159h 3.21662v 16.2876h 3.21662v 11.9127h 3.21662v 5.12463h 3.21662v 11.1302h 3.21662v 9.80455h 3.21662v
 15.0067h 3.21662v 0.387791h 3.21662v 16.6025h 3.21662v 2.89775h 3.21662v 9.09813h 3.21662v 9.35689h 3.21662v -2.25609h 3.21662v 10.4446h 3.21662v 3.25894h 3.21662v 3.37505h 3.21662v 4.09455h 3.21662v 4.64928h 3.21662v 1.81374h 3.21662v 0.580559h
 3.21662v 0.750645h 3.21662v 5.35772h 3.21662v 2.30036h 3.21662v 0.073772h 3.21662v 2.12722h 3.21662v 1.50292h 3.21662v 3.10194h 3.21662v 2.09307h 3.21662v -4.30025h 3.21662v 6.23362h 3.21662v 2.48143h 3.21662v -1.13183h 3.21662v 0.363205h 3.21662v
 1.05219h 3.21662v 2.26197h 3.21662v -0.532563h 3.21662v 0.533976h 3.21662v 0.964922h 3.21662v 1.94079h 3.21662v -0.619726h 3.21662v 0.541664h 3.21662v 2.82605h 3.21662v -2.69548h 3.21662v 0.864068h 3.21662v 0.944526h 3.21662" fill="none"
 stroke="#000099" stroke-width="2"/>
<path d="M57.1929,248.201h 453.543" fill="none" stroke="black"/>
<path d="M57.1929,241.583v 6.61871" fill="none" stroke="black"/>
<path d="M70.0594,244.892v 3.30935" fill="none" stroke="black"/>
<path d="M82.9259,244.892v 3.30935" fill="none" stroke="black"/>
<path d="M95.7924,244.892v 3.30935" fill="none" stroke="black"/>
<path d="M108.659,244.892v 3.30935" fill="none" stroke="black"/>
<path d="M121.525,241.583v 6.61871" fill="none" stroke="black"/>
<path d="M134.392,244.892v 3.30935" fill="none" stroke="black"/>
<path d="M147.258,244.892v 3.30935" fill="none" stroke="black"/>
<path d="M160.125,244.892v 3.30935" fill="none" stroke="black"/>
<path d="M172.991,244.892v 3.30935" fill="none" stroke="black"/>
<path d="M185.858,241.583v 6.61871" fill="none" stroke="black"/>
<path d="M198.724,244.892v 3.30935" fill="none" stroke="black"/>
<path d="M211.591,244.892v 3.30935" fill="none" stroke="black"/>
<path d="M224.457,244.892v 3.30935" fill="none" stroke="black"/>
<path d="M237.324,244.892v 3.30935" fill="none" stroke="black"/>
<path d="M250.19,241.583v 6.61871" fill="none" stroke="black"/>
<path d="M263.057,244.892v 3.30935" fill="none" stroke="black"/>
<path d="M275.923,244.892v 3.30935" fill="none" stroke="black"/>
<path d="M288.789,244.892v 3.30935" fill="none" stroke="black"/>
<path d="M301.656,244.892v 3.30935" fill="none" stroke="black"/>
<path d="M314.522,241.583v 6.61871" fill="none" stroke="black"/>
<path d="M327.389,244.892v 3.30935" fill="none" stroke="black"/>
<path d="M340.255,244.892v 3.30935" fill="none" stroke="black"/>
<path d="M353.122,244.892v 3.30935" fill="none" stroke="black"/>
<path d="M365.988,244.892v 3.30935" fill="none" stroke="black"/>
<path d="M378.855,241.583v 6.61871" fill="none" stroke="black"/>
<path d="M391.721,244.892v 3.30935" fill="none" stroke="black"/>
<path d="M404.588,244.892v 3.30935" fill="none" stroke="black"/>
<path d="M417.454,244.892v 3.30935" fill="none" stroke="black"/>
<path d="M430.321,244.892v 3.30935" fill="none" stroke="black"/>
<path d="M443.187,241.583v 6.61871" fill="none" stroke="black"/>
<path d="M456.054,244.892v 3.30935" fill="none" stroke="black"/>
<path d="M468.92,244.892v 3.30935" fill="none" stroke="black"/>
<path d="M481.787,244.892v 3.30935" fill="none" stroke="black"/>
<path d="M494.653,244.892v 3.30935" fill="none" stroke="black"/>
<path d="M507.52,241.583v 6.61871" fill="none" stroke="black"/>
<path d="M507.52,241.583v 6.61871" fill="none" stroke="black"/>
<text xml:space="preserve" x="53.4094" y="260.409" fill="black" font-size="13.1504" font-family="Helvetica">0</text>
<text xml:space="preserve" x="112.526" y="260.409" fill="black" font-size="13.1504" font-family="Helvetica">0.5</text>
<text xml:space="preserve" x="183.466" y="260.409" fill="black" font-size="13.1504" font-family="Helvetica">1</text>
<text xml:space="preserve" x="241.105" y="260.409" fill="black" font-size="13.1504" font-family="Helvetica">1.5</text>
<text xml:space="preserve" x="310.863" y="260.409" fill="black" font-size="13.1504" font-family="Helvetica">2</text>
<text xml:space="preserve" x="369.979" y="260.409" fill="black" font-size="13.1504" font-family="Helvetica">2.5</text>
<text xml:space="preserve" x="439.441" y="260.409" fill="black" font-size="13.1504" font-family="Helvetica">3</text>
<text xml:space="preserve" x="498.558" y="260.409" fill="black" font-size="13.1504" font-family="Helvetica">3.5</text>
<text xml:space="preserve" x="474.616" y="272.232" fill="black" font-size="13.1504" font-family="Helvetica"> [GeV]</text>
<text xml:space="preserve" x="445.649" y="276.075" fill="black" font-size="8.93362" font-family="Helvetica">kin, e pi</text>
<text xml:space="preserve" x="437.372" y="272.232" fill="black" font-size="13.1504" font-family="Helvetica">E</text>
<path d="M57.1929,248.201v -220.624" fill="none" stroke="black"/>
<path d="M70.7992,233.838h -13.6063" fill="none" stroke="black"/>
<path d="M63.9961,227.596h -6.80315" fill="none" stroke="black"/>
<path d="M63.9961,221.353h -6.80315" fill="none" stroke="black"/>
<path d="M63.9961,215.111h -6.80315" fill="none" stroke="black"/>
<path d="M63.9961,208.869h -6.80315" fill="none" stroke="black"/>
<path d="M70.7992,202.627h -13.6063" fill="none" stroke="black"/>
<path d="M63.9961,196.385h -6.80315" fill="none" stroke="black"/>
<path d="M63.9961,190.143h -6.80315" fill="none" stroke="black"/>
<path d="M63.9961,183.901h -6.80315" fill="none" stroke="black"/>
<path d="M63.9961,177.659h -6.80315" fill="none" stroke="black"/>
<path d="M70.7992,171.417h -13.6063" fill="none" stroke="black"/>
<path d="M63.9961,165.174h -6.80315" fill="none" stroke="black"/>
<path d="M63.9961,158.932h -6.80315" fill="none" stroke="black"/>
<path d="M63.9961,152.69h -6.80315" fill="none" stroke="black"/>
<path d="M63.9961,146.448h -6.80315" fill="none" stroke="black"/>
<path d="M70.7992,140.206h -13.6063" fill="none" stroke="black"/>
<path d="M63.9961,133.964h -6.80315" fill="none" stroke="black"/>
<path d="M63.9961,127.722h -6.80315" fill="none" stroke="black"/>
<path d="M63.9961,121.48h -6.80315" fill="none" stroke="black"/>
<path d="M63.9961,115.238h -6.80315" fill="none" stroke="black"/>
<path d="M70.7992,108.995h -13.6063" fill="none" stroke="black"/>
<path d="M63.9961,102.753h -6.80315" fill="none" stroke="black"/>
<path d="M63.9961,96.5112h -6.80315" fill="none" stroke="black"/>
<path d="M63.9961,90.2691h -6.80315" fill="none" stroke="black"/>
<path d="M63.9961,84.027h -6.80315" fill="none" stroke="black"/>
<path d="M70.7992,77.7849h -13.6063" fill="none" stroke="black"/>
<path d="M63.9961,71.5428h -6.80315" fill="none" stroke="black"/>
<path d="M63.9961,65.3007h -6.80315" fill="none" stroke="black"/>
<path d="M63.9961,59.0586h -6.80315" fill="none" stroke="black"/>
<path d="M63.9961,52.8165h -6.80315" fill="none" stroke="black"/>
<path d="M70.7992,46.5744h -13.6063" fill="none" stroke="black"/>
<path d="M70.7992,233.838h -13.6063" fill="none" stroke="black"/>
<path d="M63.9961,240.08h -6.80315" fill="none" stroke="black"/>
<path d="M63.9961,246.322h -6.80315" fill="none" stroke="black"/>
<path d="M70.7992,46.5744h -13.6063" fill="none" stroke="black"/>
<path d="M63.9961,40.3322h -6.80315" fill="none" stroke="black"/>
<path d="M63.9961,34.0901h -6.80315" fill="none" stroke="black"/>
<path d="M63.9961,27.848h -6.80315" fill="none" stroke="black"/>
<text xml:space="preserve" x="47.4978" y="238.536" fill="black" font-size="13.1504" font-family="Helvetica">0</text>
<text xml:space="preserve" x="25.9202" y="207.204" fill="black" font-size="13.1504" font-family="Helvetica">1000</text>
<text xml:space="preserve" x="25.9202" y="175.872" fill="black" font-size="13.1504" font-family="Helvetica">2000</text>
<text xml:space="preserve" x="25.9202" y="144.836" fill="black" font-size="13.1504" font-family="Helvetica">3000</text>
<text xml:space="preserve" x="25.9202" y="113.504" fill="black" font-size="13.1504" font-family="Helvetica">4000</text>
<text xml:space="preserve" x="25.9202" y="82.4678" fill="black" font-size="13.1504" font-family="Helvetica">5000</text>
<text xml:space="preserve" x="25.9202" y="51.1359" fill="black" font-size="13.1504" font-family="Helvetica">6000</text>
<text xml:space="preserve" x="77.9429" y="19.8041" fill="black" font-size="8.93362" font-family="Helvetica">3</text>
<text xml:space="preserve" x="64.0505" y="26.0113" fill="black" font-size="13.1504" font-family="Helvetica">10</text>
<text xml:space="preserve" x="56.9564" y="26.0113" fill="black" font-size="13.1504" font-family="Times">&#0215;</text></svg>
