<?xml version="1.0" standalone="no"?>
<svg width="567.429" height="385.492" viewBox="0 0 567.429 385.492" xmlns="http://www.w3.org/2000/svg" shape-rendering="crispEdges">
<title>
/mnt/c/Users/eggne/Documents/01-18-19/C12_4461_cal_pimi.svg
</title>
<desc>
Creator: ROOT Version 6.18/04
CreationDate: Thu Jan 16 12:39:09 2020</desc>
<defs>
</defs>
<rect x="0.5" y="0" width="566.929" height="384.992" fill="white"/>
<rect x="57.1929" y="38.4992" width="453.543" height="307.994" fill="white"/>
<rect x="57.1929" y="38.4992" width="453.543" height="307.994" fill="none" stroke="black"/>
<rect x="57.1929" y="38.4992" width="453.543" height="307.994" fill="white"/>
<rect x="57.1929" y="38.4992" width="453.543" height="307.994" fill="none" stroke="black"/>
<path d="M57.1929,327.874h 83.9055v -0.0519937h 2.26772v -0.638912h 2.26772v 0.574026h 2.26772v -0.159015h 2.26772v -1.50045h 2.26772v 3.08634h 2.26772v -1.6953h 2.26772v 2.4578h 2.26772v -5.3813h 2.26772v 1.69347h 2.26772v -1.32971h 2.26772v
 0.223423h 2.26772v 5.18381h 2.26772v -8.31389h 2.26772v -18.681h 2.26772v 21.8285h 2.26772v 7.35471h 2.26772v -29.8178h 2.26772v 28.0985h 2.26772v -0.496275h 2.26772v -6.96643h 2.26772v -50.7572h 2.26772v 23.49h 2.26772v 22.8433h 2.26772v 1.35006h
 2.26772v -5.67971h 2.26772v 16.8661h 2.26772v -20.5428h 2.26772v 3.62416h 2.26772v -4.80137h 2.26772v 4.94258h 2.26772v -4.81639h 2.26772v -27.4693h 2.26772v 27.5885h 2.26772v 16.6542h 2.26772v -23.5472h 2.26772v 6.73624h 2.26772v 2.14358h 2.26772v
 -11.759h 2.26772v 25.5481h 2.26772v 1.94473h 2.26772v -9.26429h 2.26772v -7.69633h 2.26772v 10.5122h 2.26772v 7.56934h 2.26772v -9.79129h 2.26772v 2.01277h 2.26772v -18.1903h 2.26772v -1.45891h 2.26772v -11.2433h 2.26772v 9.27h 2.26772v 0.565431h
 2.26772v 1.56386h 2.26772v -6.39223h 2.26772v 24.6902h 2.26772v 4.26858h 2.26772v -20.8325h 2.26772v 5.16491h 2.26772v -0.932431h 2.26772v -11.096h 2.26772v 6.70134h 2.26772v -9.53285h 2.26772v -1.77111h 2.26772v 9.58544h 2.26772v -2.35142h 2.26772v
 -0.388754h 2.26772v 2.24498h 2.26772v -16.0235h 2.26772v 15.6052h 2.26772v -5.16426h 2.26772v 2.4486h 2.26772v -6.85534h 2.26772v -10.4383h 2.26772v 12.6409h 2.26772v 4.11919h 2.26772v -20.8964h 2.26772v 18.2745h 2.26772v -7.8963h 2.26772v -1.83077h
 2.26772v 4.83087h 2.26772v -28.9168h 2.26772v 26.0443h 2.26772v -0.0846074h 2.26772v -8.67886h 2.26772v 7.29642h 2.26772v -0.171966h 2.26772v 1.2325h 2.26772v -10.2634h 2.26772v 8.83712h 2.26772v -7.90508h 2.26772v 3.57792h 2.26772v 3.85842h
 2.26772v -12.2194h 2.26772v 2.00584h 2.26772v 3.2589h 2.26772v -26.8576h 2.26772v 36.9332h 2.26772v -10.4066h 2.26772v -9.4575h 2.26772v 12.907h 2.26772v -9.05204h 2.26772v -6.72677h 2.26772v -0.225819h 2.26772v 2.91165h 2.26772v -9.50857h 2.26772v
 -9.47904h 2.26772v 7.47834h 2.26772v -12.9982h 2.26772v -31.3771h 2.26772v -66.047h 2.26772v -92.5228h 2.26772v 89.2204h 2.26772v 138.797h 2.26772v 38.3074h 2.26772v 6.91956h 2.26772v 0.937689h 2.26772v 0.0365976h 2.26772v -0.0480961h 2.26772v
 0.349026h 2.26772v 0.139001h 2.26772v 0.0138794h 2.26772v -0.150704h 2.26772v -0.648348h 2.26772v 0.800228h 2.26772v 0.0428646h 2.26772v -0.0854015h 2.26772v 0.00240858h 2.26772v -0.0952758h 2.26772v 0.192195h 2.26772v -0.0219802h 13.6063v
 -0.0612695h 2.26772v 0.0612695h 11.3386v 0.017832h 2.26772v -0.0749955h 2.26772v 0.0571636h 22.6772v -0.0447308h 2.26772v 0.0447308h 20.4094" fill="none" stroke="#000099" stroke-width="3"/>
<path d="M57.1929,346.493h 453.543" fill="none" stroke="black"/>
<path d="M57.1929,337.253v 9.23981" fill="none" stroke="black"/>
<path d="M72.311,341.873v 4.6199" fill="none" stroke="black"/>
<path d="M87.4291,341.873v 4.6199" fill="none" stroke="black"/>
<path d="M102.547,341.873v 4.6199" fill="none" stroke="black"/>
<path d="M117.665,341.873v 4.6199" fill="none" stroke="black"/>
<path d="M132.783,337.253v 9.23981" fill="none" stroke="black"/>
<path d="M147.902,341.873v 4.6199" fill="none" stroke="black"/>
<path d="M163.02,341.873v 4.6199" fill="none" stroke="black"/>
<path d="M178.138,341.873v 4.6199" fill="none" stroke="black"/>
<path d="M193.256,341.873v 4.6199" fill="none" stroke="black"/>
<path d="M208.374,337.253v 9.23981" fill="none" stroke="black"/>
<path d="M223.492,341.873v 4.6199" fill="none" stroke="black"/>
<path d="M238.61,341.873v 4.6199" fill="none" stroke="black"/>
<path d="M253.728,341.873v 4.6199" fill="none" stroke="black"/>
<path d="M268.846,341.873v 4.6199" fill="none" stroke="black"/>
<path d="M283.965,337.253v 9.23981" fill="none" stroke="black"/>
<path d="M299.083,341.873v 4.6199" fill="none" stroke="black"/>
<path d="M314.201,341.873v 4.6199" fill="none" stroke="black"/>
<path d="M329.319,341.873v 4.6199" fill="none" stroke="black"/>
<path d="M344.437,341.873v 4.6199" fill="none" stroke="black"/>
<path d="M359.555,337.253v 9.23981" fill="none" stroke="black"/>
<path d="M374.673,341.873v 4.6199" fill="none" stroke="black"/>
<path d="M389.791,341.873v 4.6199" fill="none" stroke="black"/>
<path d="M404.909,341.873v 4.6199" fill="none" stroke="black"/>
<path d="M420.028,341.873v 4.6199" fill="none" stroke="black"/>
<path d="M435.146,337.253v 9.23981" fill="none" stroke="black"/>
<path d="M450.264,341.873v 4.6199" fill="none" stroke="black"/>
<path d="M465.382,341.873v 4.6199" fill="none" stroke="black"/>
<path d="M480.5,341.873v 4.6199" fill="none" stroke="black"/>
<path d="M495.618,341.873v 4.6199" fill="none" stroke="black"/>
<path d="M510.736,337.253v 9.23981" fill="none" stroke="black"/>
<text xml:space="preserve" x="51.6698" y="363.062" fill="black" font-size="18.1602" font-family="Helvetica">0</text>
<text xml:space="preserve" x="128.831" y="363.062" fill="black" font-size="18.1602" font-family="Helvetica">1</text>
<text xml:space="preserve" x="202.743" y="363.062" fill="black" font-size="18.1602" font-family="Helvetica">2</text>
<text xml:space="preserve" x="279.091" y="363.062" fill="black" font-size="18.1602" font-family="Helvetica">3</text>
<text xml:space="preserve" x="354.628" y="363.062" fill="black" font-size="18.1602" font-family="Helvetica">4</text>
<text xml:space="preserve" x="430.164" y="363.062" fill="black" font-size="18.1602" font-family="Helvetica">5</text>
<text xml:space="preserve" x="505.7" y="363.062" fill="black" font-size="18.1602" font-family="Helvetica">6</text>
<text xml:space="preserve" x="461.028" y="380.931" fill="black" font-size="18.1602" font-family="Helvetica"> [GeV]</text>
<text xml:space="preserve" x="445.596" y="386.616" fill="black" font-size="12.2735" font-family="Helvetica">cal</text>
<text xml:space="preserve" x="434.225" y="380.931" fill="black" font-size="18.1602" font-family="Helvetica">E</text>
<path d="M57.1929,346.493v -307.994" fill="none" stroke="black"/>
<path d="M70.7992,327.874h -13.6063" fill="none" stroke="black"/>
<path d="M63.9961,318.198h -6.80315" fill="none" stroke="black"/>
<path d="M63.9961,308.522h -6.80315" fill="none" stroke="black"/>
<path d="M63.9961,298.846h -6.80315" fill="none" stroke="black"/>
<path d="M63.9961,289.17h -6.80315" fill="none" stroke="black"/>
<path d="M70.7992,279.494h -13.6063" fill="none" stroke="black"/>
<path d="M63.9961,269.818h -6.80315" fill="none" stroke="black"/>
<path d="M63.9961,260.142h -6.80315" fill="none" stroke="black"/>
<path d="M63.9961,250.466h -6.80315" fill="none" stroke="black"/>
<path d="M63.9961,240.79h -6.80315" fill="none" stroke="black"/>
<path d="M70.7992,231.114h -13.6063" fill="none" stroke="black"/>
<path d="M63.9961,221.438h -6.80315" fill="none" stroke="black"/>
<path d="M63.9961,211.762h -6.80315" fill="none" stroke="black"/>
<path d="M63.9961,202.086h -6.80315" fill="none" stroke="black"/>
<path d="M63.9961,192.411h -6.80315" fill="none" stroke="black"/>
<path d="M70.7992,182.735h -13.6063" fill="none" stroke="black"/>
<path d="M63.9961,173.059h -6.80315" fill="none" stroke="black"/>
<path d="M63.9961,163.383h -6.80315" fill="none" stroke="black"/>
<path d="M63.9961,153.707h -6.80315" fill="none" stroke="black"/>
<path d="M63.9961,144.031h -6.80315" fill="none" stroke="black"/>
<path d="M70.7992,134.355h -13.6063" fill="none" stroke="black"/>
<path d="M63.9961,124.679h -6.80315" fill="none" stroke="black"/>
<path d="M63.9961,115.003h -6.80315" fill="none" stroke="black"/>
<path d="M63.9961,105.327h -6.80315" fill="none" stroke="black"/>
<path d="M63.9961,95.6507h -6.80315" fill="none" stroke="black"/>
<path d="M70.7992,85.9747h -13.6063" fill="none" stroke="black"/>
<path d="M70.7992,327.874h -13.6063" fill="none" stroke="black"/>
<path d="M63.9961,337.55h -6.80315" fill="none" stroke="black"/>
<path d="M70.7992,85.9747h -13.6063" fill="none" stroke="black"/>
<path d="M63.9961,76.2987h -6.80315" fill="none" stroke="black"/>
<path d="M63.9961,66.6227h -6.80315" fill="none" stroke="black"/>
<path d="M63.9961,56.9467h -6.80315" fill="none" stroke="black"/>
<path d="M63.9961,47.2707h -6.80315" fill="none" stroke="black"/>
<text xml:space="preserve" x="44.3598" y="333.822" fill="black" font-size="18.1602" font-family="Helvetica">0</text>
<text xml:space="preserve" x="24.8666" y="285.901" fill="black" font-size="18.1602" font-family="Helvetica">500</text>
<text xml:space="preserve" x="15.1199" y="237.168" fill="black" font-size="18.1602" font-family="Helvetica">1000</text>
<text xml:space="preserve" x="15.1199" y="188.435" fill="black" font-size="18.1602" font-family="Helvetica">1500</text>
<text xml:space="preserve" x="15.1199" y="140.514" fill="black" font-size="18.1602" font-family="Helvetica">2000</text>
<text xml:space="preserve" x="15.1199" y="91.7808" fill="black" font-size="18.1602" font-family="Helvetica">2500</text>
<text xml:space="preserve" x="85.783" y="27.6155" fill="black" font-size="12.2735" font-family="Helvetica">3</text>
<text xml:space="preserve" x="66.2898" y="36.5499" fill="black" font-size="18.1602" font-family="Helvetica">10</text>
<text xml:space="preserve" x="56.5431" y="36.5499" fill="black" font-size="18.1602" font-family="Times">&#0215;</text></svg>
