<?xml version="1.0" encoding="UTF-8" standalone="no"?>
<svg
   xmlns:dc="http://purl.org/dc/elements/1.1/"
   xmlns:cc="http://creativecommons.org/ns#"
   xmlns:rdf="http://www.w3.org/1999/02/22-rdf-syntax-ns#"
   xmlns:svg="http://www.w3.org/2000/svg"
   xmlns="http://www.w3.org/2000/svg"
   xmlns:sodipodi="http://sodipodi.sourceforge.net/DTD/sodipodi-0.dtd"
   xmlns:inkscape="http://www.inkscape.org/namespaces/inkscape"
   width="567.429"
   height="385.492"
   viewBox="0 0 567.429 385.492"
   shape-rendering="crispEdges"
   version="1.1"
   id="svg198"
   sodipodi:docname="C12_4461_pipl.svg"
   inkscape:export-filename="C:\Users\eggne\Documents\Thesis\C12_4461_pipl.png"
   inkscape:export-xdpi="96"
   inkscape:export-ydpi="96"
   inkscape:version="0.92.4 (5da689c313, 2019-01-14)">
  <metadata
     id="metadata202">
    <rdf:RDF>
      <cc:Work
         rdf:about="">
        <dc:format>image/svg+xml</dc:format>
        <dc:type
           rdf:resource="http://purl.org/dc/dcmitype/StillImage" />
      </cc:Work>
    </rdf:RDF>
  </metadata>
  <sodipodi:namedview
     pagecolor="#ffffff"
     bordercolor="#666666"
     borderopacity="1"
     objecttolerance="10"
     gridtolerance="10"
     guidetolerance="10"
     inkscape:pageopacity="0"
     inkscape:pageshadow="2"
     inkscape:window-width="1920"
     inkscape:window-height="1001"
     id="namedview200"
     showgrid="false"
     inkscape:zoom="1.1948631"
     inkscape:cx="277.68037"
     inkscape:cy="170.83914"
     inkscape:window-x="-9"
     inkscape:window-y="-9"
     inkscape:window-maximized="1"
     inkscape:current-layer="svg198" />
  <title
     id="title2">
/mnt/c/Users/eggne/Documents/01-18-19/C12_4461_pipl.svg
</title>
  <desc
     id="desc4">
Creator: ROOT Version 6.18/04
CreationDate: Thu Jan 16 13:05:43 2020</desc>
  <defs
     id="defs6" />
  <rect
     x="0.5"
     y="0"
     width="566.929"
     height="384.992"
     fill="white"
     id="rect8" />
  <rect
     x="57.1929"
     y="38.4992"
     width="453.543"
     height="307.994"
     fill="white"
     id="rect10" />
  <rect
     x="57.1929"
     y="38.4992"
     width="453.543"
     height="307.994"
     fill="none"
     stroke="black"
     id="rect12" />
  <rect
     x="57.1929"
     y="38.4992"
     width="453.543"
     height="307.994"
     id="rect14"
     fill="white" />
  <rect
     x="57.1929"
     y="38.4992"
     width="453.543"
     height="307.994"
     fill="none"
     stroke="black"
     id="rect16" />
  <path
     d="M57.1929,342.562h 86.1732v -0.14102h 2.26772v 1.02014h 2.26772v -0.569565h 2.26772v -3.25889h 2.26772v 3.39041h 2.26772v -1.99017h 2.26772v -0.564184h 2.26772v -1.32206h 2.26772v -11.0978h 2.26772v 18.464h 2.26772v -6.47904h 2.26772v  -13.7496h 2.26772v 10.4836h 2.26772v -11.5971h 2.26772v 10.9129h 2.26772v -6.19687h 2.26772v 2.72157h 2.26772v -9.54916h 2.26772v 4.23377h 2.26772v -12.7284h 2.26772v -12.2712h 2.26772v 1.2918h 2.26772v 42.9277h 2.26772v -100.977h 2.26772v 63.6016h  2.26772v -27.1019h 2.26772v 52.4991h 2.26772v -35.744h 2.26772v -21.3855h 2.26772v 35.6917h 2.26772v -35.6878h 2.26772v 22.6378h 2.26772v -42.6364h 2.26772v -9.18345h 2.26772v 50.3872h 2.26772v -83.0929h 2.26772v 130.991h 2.26772v -88.9357h 2.26772v  -3.42228h 2.26772v 63.0378h 2.26772v -67.0488h 2.26772v 54.9517h 2.26772v -112.389h 2.26772v 80.3052h 2.26772v -31.3823h 2.26772v 30.7786h 2.26772v -70.4017h 2.26772v 42.0619h 2.26772v -31.5261h 2.26772v 17.3826h 2.26772v -35.2103h 2.26772v 25.8971h  2.26772v -38.2661h 2.26772v 46.6174h 2.26772v -75.4343h 2.26772v 21.8404h 2.26772v 24.8576h 2.26772v 34.8719h 2.26772v -67.6613h 2.26772v -2.69716h 2.26772v -18.8842h 2.26772v 44.1878h 2.26772v -27.779h 2.26772v -32.7134h 2.26772v -2.7341h 2.26772v  45.2904h 2.26772v -56.4494h 2.26772v 28.5135h 2.26772v 7.59683h 2.26772v -30.0448h 2.26772v 9.78174h 2.26772v 20.5346h 2.26772v -19.5736h 2.26772v -1.77657h 2.26772v -11.5937h 2.26772v 141.34h 2.26772v -113.875h 2.26772v 39.6324h 2.26772v -81.2878h  2.26772v -21.2855h 2.26772v 14.8934h 2.26772v 13.8689h 2.26772v 32.681h 2.26772v -23.9744h 2.26772v 40.7983h 2.26772v -67.2197h 2.26772v 24.3226h 2.26772v -44.2334h 2.26772v 20.9388h 2.26772v 40.4755h 2.26772v -18.9474h 2.26772v -1.36813h 2.26772v  13.0235h 2.26772v -17.5975h 2.26772v 34.8818h 2.26772v -6.33393h 2.26772v -7.54939h 2.26772v 10.5008h 2.26772v -18.0117h 2.26772v 31.6098h 2.26772v -12.2239h 2.26772v -18.1077h 2.26772v 12.8538h 2.26772v 18.1677h 2.26772v 26.0947h 2.26772v 35.3152h  2.26772v 31.338h 2.26772v 20.6376h 2.26772v 20.741h 2.26772v 35.0496h 2.26772v 13.1268h 2.26772v 3.68949h 2.26772v -1.44524h 2.26772v -0.251968h 2.26772v -0.508586h 2.26772v 0.0370911h 2.26772v 1.17676h 2.26772v -1.37442h 2.26772v 1.23148h 2.26772v  -0.10467h 2.26772v -0.502071h 2.26772v 0.914658h 2.26772v -0.542177h 2.26772v 0.530814h 2.26772v -0.61317h 2.26772v 0.377132h 2.26772v -0.245505h 2.26772v 0.671402h 2.26772v -0.170735h 2.26772v -0.114385h 2.26772v -1.13675h 2.26772v 1.40034h  2.26772v 0.0647833h 2.26772v -0.446409h 2.26772v 0.572493h 2.26772v -0.20605h 2.26772v 0.20605h 27.2126v -0.174129h 2.26772v -0.37879h 2.26772v 0.55292h 27.2126"
     fill="none"
     stroke="#000099"
     stroke-width="3"
     id="path18" />
  <path
     d="M57.1929,346.493h 453.543"
     fill="none"
     stroke="black"
     id="path20" />
  <path
     d="M57.1929,337.253v 9.23981"
     fill="none"
     stroke="black"
     id="path22" />
  <path
     d="M72.311,341.873v 4.6199"
     fill="none"
     stroke="black"
     id="path24" />
  <path
     d="M87.4291,341.873v 4.6199"
     fill="none"
     stroke="black"
     id="path26" />
  <path
     d="M102.547,341.873v 4.6199"
     fill="none"
     stroke="black"
     id="path28" />
  <path
     d="M117.665,341.873v 4.6199"
     fill="none"
     stroke="black"
     id="path30" />
  <path
     d="M132.783,337.253v 9.23981"
     fill="none"
     stroke="black"
     id="path32" />
  <path
     d="M147.902,341.873v 4.6199"
     fill="none"
     stroke="black"
     id="path34" />
  <path
     d="M163.02,341.873v 4.6199"
     fill="none"
     stroke="black"
     id="path36" />
  <path
     d="M178.138,341.873v 4.6199"
     fill="none"
     stroke="black"
     id="path38" />
  <path
     d="M193.256,341.873v 4.6199"
     fill="none"
     stroke="black"
     id="path40" />
  <path
     d="M208.374,337.253v 9.23981"
     fill="none"
     stroke="black"
     id="path42" />
  <path
     d="M223.492,341.873v 4.6199"
     fill="none"
     stroke="black"
     id="path44" />
  <path
     d="M238.61,341.873v 4.6199"
     fill="none"
     stroke="black"
     id="path46" />
  <path
     d="M253.728,341.873v 4.6199"
     fill="none"
     stroke="black"
     id="path48" />
  <path
     d="M268.846,341.873v 4.6199"
     fill="none"
     stroke="black"
     id="path50" />
  <path
     d="M283.965,337.253v 9.23981"
     fill="none"
     stroke="black"
     id="path52" />
  <path
     d="M299.083,341.873v 4.6199"
     fill="none"
     stroke="black"
     id="path54" />
  <path
     d="M314.201,341.873v 4.6199"
     fill="none"
     stroke="black"
     id="path56" />
  <path
     d="M329.319,341.873v 4.6199"
     fill="none"
     stroke="black"
     id="path58" />
  <path
     d="M344.437,341.873v 4.6199"
     fill="none"
     stroke="black"
     id="path60" />
  <path
     d="M359.555,337.253v 9.23981"
     fill="none"
     stroke="black"
     id="path62" />
  <path
     d="M374.673,341.873v 4.6199"
     fill="none"
     stroke="black"
     id="path64" />
  <path
     d="M389.791,341.873v 4.6199"
     fill="none"
     stroke="black"
     id="path66" />
  <path
     d="M404.909,341.873v 4.6199"
     fill="none"
     stroke="black"
     id="path68" />
  <path
     d="M420.028,341.873v 4.6199"
     fill="none"
     stroke="black"
     id="path70" />
  <path
     d="M435.146,337.253v 9.23981"
     fill="none"
     stroke="black"
     id="path72" />
  <path
     d="M450.264,341.873v 4.6199"
     fill="none"
     stroke="black"
     id="path74" />
  <path
     d="M465.382,341.873v 4.6199"
     fill="none"
     stroke="black"
     id="path76" />
  <path
     d="M480.5,341.873v 4.6199"
     fill="none"
     stroke="black"
     id="path78" />
  <path
     d="M495.618,341.873v 4.6199"
     fill="none"
     stroke="black"
     id="path80" />
  <path
     d="M510.736,337.253v 9.23981"
     fill="none"
     stroke="black"
     id="path82" />
  <text
     xml:space="preserve"
     x="51.6698"
     y="363.062"
     fill="black"
     font-size="18.1602"
     font-family="Helvetica"
     id="text84">0</text>
  <text
     xml:space="preserve"
     x="128.831"
     y="363.062"
     fill="black"
     font-size="18.1602"
     font-family="Helvetica"
     id="text86">1</text>
  <text
     xml:space="preserve"
     x="202.743"
     y="363.062"
     fill="black"
     font-size="18.1602"
     font-family="Helvetica"
     id="text88">2</text>
  <text
     xml:space="preserve"
     x="279.091"
     y="363.062"
     fill="black"
     font-size="18.1602"
     font-family="Helvetica"
     id="text90">3</text>
  <text
     xml:space="preserve"
     x="354.628"
     y="363.062"
     fill="black"
     font-size="18.1602"
     font-family="Helvetica"
     id="text92">4</text>
  <text
     xml:space="preserve"
     x="430.164"
     y="363.062"
     fill="black"
     font-size="18.1602"
     font-family="Helvetica"
     id="text94">5</text>
  <text
     xml:space="preserve"
     x="505.7"
     y="363.062"
     fill="black"
     font-size="18.1602"
     font-family="Helvetica"
     id="text96">6</text>
  <text
     xml:space="preserve"
     x="448.845"
     y="382.555"
     fill="black"
     font-size="18.1602"
     font-family="Helvetica"
     id="text98">E [GeV]</text>
  <path
     d="M57.1929,346.493v -307.994"
     fill="none"
     stroke="black"
     id="path100" />
  <path
     d="M70.7992,342.562h -13.6063"
     fill="none"
     stroke="black"
     id="path102" />
  <path
     d="M63.9961,333.24h -6.80315"
     fill="none"
     stroke="black"
     id="path104" />
  <path
     d="M63.9961,323.918h -6.80315"
     fill="none"
     stroke="black"
     id="path106" />
  <path
     d="M63.9961,314.596h -6.80315"
     fill="none"
     stroke="black"
     id="path108" />
  <path
     d="M70.7992,305.274h -13.6063"
     fill="none"
     stroke="black"
     id="path110" />
  <path
     d="M63.9961,295.952h -6.80315"
     fill="none"
     stroke="black"
     id="path112" />
  <path
     d="M63.9961,286.63h -6.80315"
     fill="none"
     stroke="black"
     id="path114" />
  <path
     d="M63.9961,277.308h -6.80315"
     fill="none"
     stroke="black"
     id="path116" />
  <path
     d="M70.7992,267.986h -13.6063"
     fill="none"
     stroke="black"
     id="path118" />
  <path
     d="M63.9961,258.665h -6.80315"
     fill="none"
     stroke="black"
     id="path120" />
  <path
     d="M63.9961,249.343h -6.80315"
     fill="none"
     stroke="black"
     id="path122" />
  <path
     d="M63.9961,240.021h -6.80315"
     fill="none"
     stroke="black"
     id="path124" />
  <path
     d="M70.7992,230.699h -13.6063"
     fill="none"
     stroke="black"
     id="path126" />
  <path
     d="M63.9961,221.377h -6.80315"
     fill="none"
     stroke="black"
     id="path128" />
  <path
     d="M63.9961,212.055h -6.80315"
     fill="none"
     stroke="black"
     id="path130" />
  <path
     d="M63.9961,202.733h -6.80315"
     fill="none"
     stroke="black"
     id="path132" />
  <path
     d="M70.7992,193.411h -13.6063"
     fill="none"
     stroke="black"
     id="path134" />
  <path
     d="M63.9961,184.089h -6.80315"
     fill="none"
     stroke="black"
     id="path136" />
  <path
     d="M63.9961,174.767h -6.80315"
     fill="none"
     stroke="black"
     id="path138" />
  <path
     d="M63.9961,165.445h -6.80315"
     fill="none"
     stroke="black"
     id="path140" />
  <path
     d="M70.7992,156.123h -13.6063"
     fill="none"
     stroke="black"
     id="path142" />
  <path
     d="M63.9961,146.801h -6.80315"
     fill="none"
     stroke="black"
     id="path144" />
  <path
     d="M63.9961,137.479h -6.80315"
     fill="none"
     stroke="black"
     id="path146" />
  <path
     d="M63.9961,128.157h -6.80315"
     fill="none"
     stroke="black"
     id="path148" />
  <path
     d="M70.7992,118.835h -13.6063"
     fill="none"
     stroke="black"
     id="path150" />
  <path
     d="M63.9961,109.514h -6.80315"
     fill="none"
     stroke="black"
     id="path152" />
  <path
     d="M63.9961,100.192h -6.80315"
     fill="none"
     stroke="black"
     id="path154" />
  <path
     d="M63.9961,90.8696h -6.80315"
     fill="none"
     stroke="black"
     id="path156" />
  <path
     d="M70.7992,81.5477h -13.6063"
     fill="none"
     stroke="black"
     id="path158" />
  <path
     d="M63.9961,72.2258h -6.80315"
     fill="none"
     stroke="black"
     id="path160" />
  <path
     d="M63.9961,62.9038h -6.80315"
     fill="none"
     stroke="black"
     id="path162" />
  <path
     d="M63.9961,53.5819h -6.80315"
     fill="none"
     stroke="black"
     id="path164" />
  <path
     d="M70.7992,44.26h -13.6063"
     fill="none"
     stroke="black"
     id="path166" />
  <path
     d="M70.7992,342.562h -13.6063"
     fill="none"
     stroke="black"
     id="path168" />
  <path
     d="M70.7992,44.26h -13.6063"
     fill="none"
     stroke="black"
     id="path170" />
  <text
     xml:space="preserve"
     x="44.3598"
     y="348.442"
     fill="black"
     font-size="18.1602"
     font-family="Helvetica"
     id="text172">0</text>
  <text
     xml:space="preserve"
     x="24.8666"
     y="311.08"
     fill="black"
     font-size="18.1602"
     font-family="Helvetica"
     id="text174">200</text>
  <text
     xml:space="preserve"
     x="24.8666"
     y="273.718"
     fill="black"
     font-size="18.1602"
     font-family="Helvetica"
     id="text176">400</text>
  <text
     xml:space="preserve"
     x="24.8666"
     y="237.168"
     fill="black"
     font-size="18.1602"
     font-family="Helvetica"
     id="text178">600</text>
  <text
     xml:space="preserve"
     x="24.8666"
     y="199.806"
     fill="black"
     font-size="18.1602"
     font-family="Helvetica"
     id="text180">800</text>
  <text
     xml:space="preserve"
     x="15.1199"
     y="162.444"
     fill="black"
     font-size="18.1602"
     font-family="Helvetica"
     id="text182">1000</text>
  <text
     xml:space="preserve"
     x="15.1199"
     y="125.082"
     fill="black"
     font-size="18.1602"
     font-family="Helvetica"
     id="text184">1200</text>
  <text
     xml:space="preserve"
     x="15.1199"
     y="87.7197"
     fill="black"
     font-size="18.1602"
     font-family="Helvetica"
     id="text186">1400</text>
  <text
     xml:space="preserve"
     x="15.1199"
     y="50.3576"
     fill="black"
     font-size="18.1602"
     font-family="Helvetica"
     id="text188">1600</text>
  <text
     xml:space="preserve"
     x="85.783"
     y="27.6155"
     fill="black"
     font-size="12.2735"
     font-family="Helvetica"
     id="text190">3</text>
  <text
     xml:space="preserve"
     x="66.2898"
     y="36.5499"
     fill="black"
     font-size="18.1602"
     font-family="Helvetica"
     id="text192">10</text>
  <text
     xml:space="preserve"
     x="56.5431"
     y="36.5499"
     fill="black"
     font-size="18.1602"
     font-family="Times"
     id="text194">×</text>
  <path
     d="M57.1929,342.562h 104.315v -0.0316252h 2.26772v -0.635227h 2.26772v -0.712823h 2.26772v 3.3106h 2.26772v -7.16255h 2.26772v 1.92209h 2.26772v -2.54005h 2.26772v -2.28969h 2.26772v -12.4216h 2.26772v 1.68627h 2.26772v -2.66581h 2.26772v  -24.095h 2.26772v 27.9366h 2.26772v 1.75878h 2.26772v -38.7158h 2.26772v 2.70509h 2.26772v 14.2881h 2.26772v -11.059h 2.26772v -14.1505h 2.26772v -2.11427h 2.26772v -24.4163h 2.26772v 36.9666h 2.26772v -36.3365h 2.26772v 3.92391h 2.26772v 29.2117h  2.26772v -11.4385h 2.26772v -12.6325h 2.26772v -48.7523h 2.26772v 10.6495h 2.26772v 23.1157h 2.26772v -34.4476h 2.26772v 14.0172h 2.26772v -15.3463h 2.26772v -15.8472h 2.26772v 38.6029h 2.26772v -36.0328h 2.26772v 15.3705h 2.26772v -4.2759h 2.26772v  -9.84278h 2.26772v -17.5601h 2.26772v 105.863h 2.26772v -81.576h 2.26772v 31.4731h 2.26772v -28.6914h 2.26772v -29.3294h 2.26772v 166.249h 2.26772v -232.273h 2.26772v 82.5744h 2.26772v 99.7793h 2.26772v -126.719h 2.26772v 12.0636h 2.26772v 5.86168h  2.26772v -18.6341h 2.26772v 8.22114h 2.26772v -18.1071h 2.26772v 4.99916h 2.26772v 54.7781h 2.26772v -57.0885h 2.26772v 30.1027h 2.26772v -13.4439h 2.26772v -13.0641h 2.26772v -7.2785h 2.26772v 12.7624h 2.26772v -48.908h 2.26772v 81.786h 2.26772v  -17.7079h 2.26772v -51.4592h 2.26772v 15.0189h 2.26772v 52.9293h 2.26772v -18.0862h 2.26772v 13.2785h 2.26772v -27.59h 2.26772v 37.3176h 2.26772v -51.5524h 2.26772v 51.2381h 2.26772v -16.0292h 2.26772v 3.17917h 2.26772v 1.14337h 2.26772v -24.1188h  2.26772v 52.1199h 2.26772v -23.6501h 2.26772v -18.6918h 2.26772v -15.8908h 2.26772v 39.3783h 2.26772v -6.4352h 2.26772v 11.5957h 2.26772v -31.3339h 2.26772v 41.3514h 2.26772v -10.9638h 2.26772v 46.3893h 2.26772v -45.4971h 2.26772v 17.3561h 2.26772v  -9.55866h 2.26772v 14.8172h 2.26772v -4.95382h 2.26772v 25.2385h 2.26772v 2.91634h 2.26772v -16.458h 2.26772v 0.191181h 2.26772v 9.40393h 2.26772v -4.67397h 2.26772v 40.0269h 2.26772v -10.7857h 2.26772v 11.733h 2.26772v -9.59718h 2.26772v 2.98132h  2.26772v -0.228341h 2.26772v -3.92969h 2.26772v 9.05874h 2.26772v -3.12304h 2.26772v -58.5124h 2.26772v 79.9542h 2.26772v -1.55911h 2.26772v 0.981749h 2.26772v 5.97868h 2.26772v -7.03155h 2.26772v 15.8436h 2.26772v -9.5237h 2.26772v 13.5343h  2.26772v -10.9612h 2.26772v -3.85057h 2.26772v 16.4174h 2.26772v 1.8302h 2.26772v -1.36517h 2.26772v 2.29973h 2.26772v -7.22216h 2.26772v 21.4499h 2.26772v 7.9758h 2.26772v -19.8419h 2.26772v 8.77782h 2.26772v -6.5451h 2.26772v 5.1275h 2.26772v  -3.73002h 2.26772v -0.483503h 2.26772v 2.11979h 2.26772v 7.37182h 2.26772v 3.21711h 2.26772v -2.71503h 2.26772v -5.71125h 2.26772v 3.96105h 2.26772v 3.79617h 2.26772v -8.07217h 2.26772v 4.03406h 2.26772v -1.92642h 2.26772v 4.16311h 2.26772v  0.151796h 2.26772v -1.57183h 2.26772v -1.27772h 2.26772v 4.11363h 2.26772v -2.27551h 2.26772v 1.22472h 2.26772v 0.74403h 2.26772v 2.17599h 2.26772v -2.40455h 2.26772"
     fill="none"
     stroke="black"
     stroke-width="3"
     id="path196" />
  <text
     xml:space="preserve"
     style="font-style:normal;font-weight:normal;font-size:40px;line-height:1.25;font-family:sans-serif;letter-spacing:0px;word-spacing:0px;fill:#000000;fill-opacity:1;stroke:none"
     x="69.480988"
     y="71.360054"
     id="text196"><tspan
       sodipodi:role="line"
       id="tspan194"
       x="69.480988"
       y="71.360054"
       style="font-size:26.66666603px"><tspan
   style="font-size:64.99999762%;baseline-shift:super"
   id="tspan224">12</tspan>C @ 4.4 GeV: <tspan
   style="font-style:normal;font-variant:normal;font-weight:normal;font-stretch:normal;font-size:26.66666603px;font-family:'Times New Roman';-inkscape-font-specification:'Times New Roman, '"
   id="tspan198">π<tspan
   style="font-size:64.99999762%;baseline-shift:super"
   id="tspan226">+</tspan></tspan></tspan></text>
  <text
     xml:space="preserve"
     style="font-style:normal;font-weight:normal;font-size:26.66666603px;line-height:1.25;font-family:sans-serif;letter-spacing:0px;word-spacing:0px;fill:#000099;fill-opacity:1;stroke:none"
     x="349.703"
     y="98.147316"
     id="text204"><tspan
       sodipodi:role="line"
       id="tspan202"
       x="349.703"
       y="98.147316">Calorimetric</tspan></text>
  <text
     xml:space="preserve"
     style="font-style:normal;font-weight:normal;font-size:21.33333397px;line-height:1.25;font-family:sans-serif;letter-spacing:0px;word-spacing:0px;fill:#000000;fill-opacity:1;stroke:none"
     x="395.74234"
     y="210.24777"
     id="text208"><tspan
       sodipodi:role="line"
       id="tspan206"
       x="395.74234"
       y="210.24777">Kinematic</tspan></text>
</svg>
