<?xml version="1.0" standalone="no"?>
<svg width="567.429" height="345.675" viewBox="0 0 567.429 345.675" xmlns="http://www.w3.org/2000/svg" shape-rendering="crispEdges">
<title>
C12_2261_slice3.svg
</title>
<desc>
Creator: ROOT Version 6.18/04
CreationDate: Tue Mar  3 09:23:33 2020</desc>
<defs>
</defs>
<rect x="0.5" y="0" width="566.929" height="345.175" fill="white"/>
<rect x="57.1929" y="34.5175" width="453.543" height="276.14" fill="white"/>
<rect x="57.1929" y="34.5175" width="453.543" height="276.14" fill="none" stroke="black"/>
<path d="M57.1929,310.657h 121.244v -4.82545h 13.4716v -21.4449h 13.4716v -34.263h 13.4716v -39.5438h 13.4716v -42.0146h 13.4716v -37.3982h 13.4716v -18.0503h 13.4716v -55.6634h 13.4716v -9.78648h 13.4716v 11.231h 13.4716v -2.78531h 13.4716v 18.4513h
 13.4716v 23.0874h 13.4716v 31.6005h 13.4716v 10.9781h 4.49053v -16.2468h 4.49053v 41.8624h 4.49053v 47.5318h 4.49053v 30.8816h 4.49053v 40.5564h 4.49053v 24.4925h 4.49053v 0.281807h 4.49053v 0.72438h 4.49053v -0.459656h 4.49053v 0.219221h 4.49053v
 0.583524h 8.98106v -0.235392h 4.49053v 0.235392h 31.4337v -0.582566h 4.49053v 0.582566h 4.49053v -0.210513h 4.49053v 0.210513h 17.9621v -0.239596h 4.49053v 0.239596h 17.2968" fill="none" stroke="#000099" stroke-width="3"/>
<path d="M57.1929,310.657h 453.543" fill="none" stroke="black"/>
<path d="M57.1929,302.373v 8.28419" fill="none" stroke="black"/>
<path d="M72.1613,306.515v 4.14209" fill="none" stroke="black"/>
<path d="M87.1298,306.515v 4.14209" fill="none" stroke="black"/>
<path d="M102.098,306.515v 4.14209" fill="none" stroke="black"/>
<path d="M117.067,306.515v 4.14209" fill="none" stroke="black"/>
<path d="M132.035,302.373v 8.28419" fill="none" stroke="black"/>
<path d="M147.003,306.515v 4.14209" fill="none" stroke="black"/>
<path d="M161.972,306.515v 4.14209" fill="none" stroke="black"/>
<path d="M176.94,306.515v 4.14209" fill="none" stroke="black"/>
<path d="M191.909,306.515v 4.14209" fill="none" stroke="black"/>
<path d="M206.877,302.373v 8.28419" fill="none" stroke="black"/>
<path d="M221.846,306.515v 4.14209" fill="none" stroke="black"/>
<path d="M236.814,306.515v 4.14209" fill="none" stroke="black"/>
<path d="M251.782,306.515v 4.14209" fill="none" stroke="black"/>
<path d="M266.751,306.515v 4.14209" fill="none" stroke="black"/>
<path d="M281.719,302.373v 8.28419" fill="none" stroke="black"/>
<path d="M296.688,306.515v 4.14209" fill="none" stroke="black"/>
<path d="M311.656,306.515v 4.14209" fill="none" stroke="black"/>
<path d="M326.625,306.515v 4.14209" fill="none" stroke="black"/>
<path d="M341.593,306.515v 4.14209" fill="none" stroke="black"/>
<path d="M356.561,302.373v 8.28419" fill="none" stroke="black"/>
<path d="M371.53,306.515v 4.14209" fill="none" stroke="black"/>
<path d="M386.498,306.515v 4.14209" fill="none" stroke="black"/>
<path d="M401.467,306.515v 4.14209" fill="none" stroke="black"/>
<path d="M416.435,306.515v 4.14209" fill="none" stroke="black"/>
<path d="M431.404,302.373v 8.28419" fill="none" stroke="black"/>
<path d="M446.372,306.515v 4.14209" fill="none" stroke="black"/>
<path d="M461.34,306.515v 4.14209" fill="none" stroke="black"/>
<path d="M476.309,306.515v 4.14209" fill="none" stroke="black"/>
<path d="M491.277,306.515v 4.14209" fill="none" stroke="black"/>
<path d="M506.246,302.373v 8.28419" fill="none" stroke="black"/>
<path d="M506.246,302.373v 8.28419" fill="none" stroke="black"/>
<text xml:space="preserve" x="51.6741" y="326.11" fill="black" font-size="16.3337" font-family="Helvetica">0</text>
<text xml:space="preserve" x="120.91" y="326.11" fill="black" font-size="16.3337" font-family="Helvetica">0.5</text>
<text xml:space="preserve" x="203.19" y="326.11" fill="black" font-size="16.3337" font-family="Helvetica">1</text>
<text xml:space="preserve" x="270.418" y="326.11" fill="black" font-size="16.3337" font-family="Helvetica">1.5</text>
<text xml:space="preserve" x="350.692" y="326.11" fill="black" font-size="16.3337" font-family="Helvetica">2</text>
<text xml:space="preserve" x="419.927" y="326.11" fill="black" font-size="16.3337" font-family="Helvetica">2.5</text>
<text xml:space="preserve" x="501.204" y="326.11" fill="black" font-size="16.3337" font-family="Helvetica">3</text>
<text xml:space="preserve" x="496.187" y="338.151" fill="black" font-size="11.0558" font-family="Helvetica">cal</text>
<text xml:space="preserve" x="486.153" y="332.13" fill="black" font-size="16.3337" font-family="Helvetica">E</text>
<path d="M57.1929,310.657v -276.14" fill="none" stroke="black"/>
<path d="M70.7992,310.657h -13.6063" fill="none" stroke="black"/>
<path d="M63.9961,299.982h -6.80315" fill="none" stroke="black"/>
<path d="M63.9961,289.307h -6.80315" fill="none" stroke="black"/>
<path d="M63.9961,278.632h -6.80315" fill="none" stroke="black"/>
<path d="M70.7992,267.957h -13.6063" fill="none" stroke="black"/>
<path d="M63.9961,257.282h -6.80315" fill="none" stroke="black"/>
<path d="M63.9961,246.607h -6.80315" fill="none" stroke="black"/>
<path d="M63.9961,235.932h -6.80315" fill="none" stroke="black"/>
<path d="M70.7992,225.257h -13.6063" fill="none" stroke="black"/>
<path d="M63.9961,214.582h -6.80315" fill="none" stroke="black"/>
<path d="M63.9961,203.907h -6.80315" fill="none" stroke="black"/>
<path d="M63.9961,193.232h -6.80315" fill="none" stroke="black"/>
<path d="M70.7992,182.557h -13.6063" fill="none" stroke="black"/>
<path d="M63.9961,171.881h -6.80315" fill="none" stroke="black"/>
<path d="M63.9961,161.206h -6.80315" fill="none" stroke="black"/>
<path d="M63.9961,150.531h -6.80315" fill="none" stroke="black"/>
<path d="M70.7992,139.856h -13.6063" fill="none" stroke="black"/>
<path d="M63.9961,129.181h -6.80315" fill="none" stroke="black"/>
<path d="M63.9961,118.506h -6.80315" fill="none" stroke="black"/>
<path d="M63.9961,107.831h -6.80315" fill="none" stroke="black"/>
<path d="M70.7992,97.1562h -13.6063" fill="none" stroke="black"/>
<path d="M63.9961,86.4811h -6.80315" fill="none" stroke="black"/>
<path d="M63.9961,75.8061h -6.80315" fill="none" stroke="black"/>
<path d="M63.9961,65.131h -6.80315" fill="none" stroke="black"/>
<path d="M70.7992,54.456h -13.6063" fill="none" stroke="black"/>
<path d="M70.7992,54.456h -13.6063" fill="none" stroke="black"/>
<path d="M63.9961,43.7809h -6.80315" fill="none" stroke="black"/>
<text xml:space="preserve" x="44.6502" y="316.076" fill="black" font-size="16.3337" font-family="Helvetica">0</text>
<text xml:space="preserve" x="44.6502" y="274.936" fill="black" font-size="16.3337" font-family="Helvetica">2</text>
<text xml:space="preserve" x="44.6502" y="231.789" fill="black" font-size="16.3337" font-family="Helvetica">4</text>
<text xml:space="preserve" x="44.6502" y="187.639" fill="black" font-size="16.3337" font-family="Helvetica">6</text>
<text xml:space="preserve" x="44.6502" y="145.495" fill="black" font-size="16.3337" font-family="Helvetica">8</text>
<text xml:space="preserve" x="35.6195" y="102.348" fill="black" font-size="16.3337" font-family="Helvetica">10</text>
<text xml:space="preserve" x="35.6195" y="61.2083" fill="black" font-size="16.3337" font-family="Helvetica">12</text>
<text xml:space="preserve" x="83.7834" y="23.0785" fill="black" font-size="11.0558" font-family="Helvetica">6</text>
<text xml:space="preserve" x="65.7219" y="32.1093" fill="black" font-size="16.3337" font-family="Helvetica">10</text>
<text xml:space="preserve" x="56.6912" y="32.1093" fill="black" font-size="16.3337" font-family="Times">&#0215;</text>
<path d="M57.1929,310.657h 107.773v -0.418022h 13.4716v -3.60382h 13.4716v -6.5509h 13.4716v 2.32604h 13.4716v -26.3832h 13.4716v -12.7876h 13.4716v -4.1546h 13.4716v -11.6361h 13.4716v -44.7458h 13.4716v 1.104h 13.4716v 6.45154h 13.4716v -21.338h
 13.4716v -2.15245h 13.4716v -8.38768h 13.4716v 4.01326h 13.4716v 3.05502h 4.49053v -33.6795h 4.49053v 29.2001h 4.49053v 44.595h 4.49053v 18.983h 4.49053v 40.4414h 4.49053v 24.319h 4.49053v 0.281807h 4.49053v 0.768799h 4.49053v -0.504075h 4.49053v
 0.219221h 4.49053v 0.583524h 8.98106v -0.235392h 4.49053v 0.0741711h 4.49053v 0.161221h 4.49053v -0.138402h 4.49053v 0.138402h 17.9621v -0.582566h 4.49053v 0.582566h 4.49053v -0.210513h 4.49053v 0.210513h 17.9621v -0.239596h 4.49053v 0.239596h
 8.98106" fill="none" stroke="#ff0000" stroke-width="3"/></svg>
