<?xml version="1.0" standalone="no"?>
<svg width="567.429" height="384.68" viewBox="0 0 567.429 384.68" xmlns="http://www.w3.org/2000/svg" shape-rendering="crispEdges">
<title>
/u/home/ltracy/Root_work/01-18-19/C12_4461.svg
</title>
<desc>
Creator: ROOT Version 6.10/02
CreationDate: Tue Nov 12 13:23:16 2019</desc>
<defs>
</defs>
<rect x="0.5" y="0" width="566.929" height="384.18" fill="white"/>
<rect x="57.1929" y="38.418" width="453.543" height="307.344" fill="white"/>
<rect x="57.1929" y="38.418" width="453.543" height="307.344" fill="none" stroke="black"/>
<rect x="57.1929" y="38.418" width="453.543" height="307.344" fill="white"/>
<rect x="57.1929" y="38.418" width="453.543" height="307.344" fill="none" stroke="black"/>
<path d="M57.1929,299.255h 86.1732v -3.46573h 2.26772v 3.49126h 2.26772v 0.544927h 2.26772v -0.883623h 2.26772v 2.96132h 2.26772v 1.46354h 2.26772v -1.83398h 2.26772v -3.7239h 2.26772v 12.8212h 2.26772v -13.4561h 2.26772v 0.720851h 2.26772v 0.312794h
 2.26772v 4.37407h 2.26772v 5.24843h 2.26772v 1.30003h 2.26772v -0.715725h 2.26772v -27.256h 2.26772v 21.0994h 2.26772v -0.174008h 2.26772v -14.6446h 2.26772v -234.386h 2.26772v 219.522h 2.26772v 35.4155h 2.26772v -33.2835h 2.26772v -13.7819h
 2.26772v 51.0797h 2.26772v -18.5315h 2.26772v 38.3492h 2.26772v -51.8114h 2.26772v 18.7073h 2.26772v -38.3468h 2.26772v 23.4187h 2.26772v 9.36902h 2.26772v 10.1282h 2.26772v -24.6828h 2.26772v -18.305h 2.26772v 25.6034h 2.26772v 21.1155h 2.26772v
 -24.4205h 2.26772v -6.36971h 2.26772v 36.0664h 2.26772v -14.8063h 2.26772v -5.76579h 2.26772v 33.1285h 2.26772v -8.89237h 2.26772v -21.3872h 2.26772v 6.17168h 2.26772v -43.522h 2.26772v 31.6536h 2.26772v -15.5155h 2.26772v 20.8166h 2.26772v
 -36.5004h 2.26772v 20.605h 2.26772v -14.3804h 2.26772v 17.4737h 2.26772v 16.3004h 2.26772v -12.1469h 2.26772v -5.96096h 2.26772v 1.78633h 2.26772v 4.39455h 2.26772v -13.1841h 2.26772v 10.2944h 2.26772v -6.24501h 2.26772v -10.9173h 2.26772v 30.4402h
 2.26772v -6.38628h 2.26772v -31.3878h 2.26772v 14.7941h 2.26772v 35.9317h 2.26772v -8.6282h 2.26772v -35.4417h 2.26772v 14.1595h 2.26772v -37.1487h 2.26772v 42.798h 2.26772v -13.8975h 2.26772v 9.83252h 2.26772v -17.144h 2.26772v 16.9663h 2.26772v
 12.3792h 2.26772v -18.2334h 2.26772v -8.77081h 2.26772v 19.2184h 2.26772v -4.70822h 2.26772v -3.4929h 2.26772v -6.06294h 2.26772v 7.68533h 2.26772v -55.0233h 2.26772v 36.1293h 2.26772v -2.42804h 2.26772v 10.217h 2.26772v 5.78774h 2.26772v -4.11557h
 2.26772v 4.1327h 2.26772v -5.48792h 2.26772v 6.09661h 2.26772v 14.0213h 2.26772v -19.3496h 2.26772v 3.3491h 2.26772v -6.29462h 2.26772v -3.92446h 2.26772v -5.85976h 2.26772v 2.51151h 2.26772v 9.71681h 2.26772v -11.7154h 2.26772v -1.19864h 2.26772v
 14.7786h 2.26772v -11.2137h 2.26772v -17.5781h 2.26772v -33.3697h 2.26772v -65.0611h 2.26772v 41.9769h 2.26772v 88.653h 2.26772v 21.8627h 2.26772v 4.04293h 2.26772v -1.05729h 2.26772v 0.374564h 2.26772v 0.682729h 22.6772v -0.2738h 2.26772v 0.2738h
 79.3701" fill="none" stroke="black" stroke-width="5"/>
<path d="M57.1929,345.762h 453.543" fill="none" stroke="black"/>
<path d="M57.1929,336.541v 9.22031" fill="none" stroke="black"/>
<path d="M72.311,341.152v 4.61016" fill="none" stroke="black"/>
<path d="M87.4291,341.152v 4.61016" fill="none" stroke="black"/>
<path d="M102.547,341.152v 4.61016" fill="none" stroke="black"/>
<path d="M117.665,341.152v 4.61016" fill="none" stroke="black"/>
<path d="M132.783,336.541v 9.22031" fill="none" stroke="black"/>
<path d="M147.902,341.152v 4.61016" fill="none" stroke="black"/>
<path d="M163.02,341.152v 4.61016" fill="none" stroke="black"/>
<path d="M178.138,341.152v 4.61016" fill="none" stroke="black"/>
<path d="M193.256,341.152v 4.61016" fill="none" stroke="black"/>
<path d="M208.374,336.541v 9.22031" fill="none" stroke="black"/>
<path d="M223.492,341.152v 4.61016" fill="none" stroke="black"/>
<path d="M238.61,341.152v 4.61016" fill="none" stroke="black"/>
<path d="M253.728,341.152v 4.61016" fill="none" stroke="black"/>
<path d="M268.846,341.152v 4.61016" fill="none" stroke="black"/>
<path d="M283.965,336.541v 9.22031" fill="none" stroke="black"/>
<path d="M299.083,341.152v 4.61016" fill="none" stroke="black"/>
<path d="M314.201,341.152v 4.61016" fill="none" stroke="black"/>
<path d="M329.319,341.152v 4.61016" fill="none" stroke="black"/>
<path d="M344.437,341.152v 4.61016" fill="none" stroke="black"/>
<path d="M359.555,336.541v 9.22031" fill="none" stroke="black"/>
<path d="M374.673,341.152v 4.61016" fill="none" stroke="black"/>
<path d="M389.791,341.152v 4.61016" fill="none" stroke="black"/>
<path d="M404.909,341.152v 4.61016" fill="none" stroke="black"/>
<path d="M420.028,341.152v 4.61016" fill="none" stroke="black"/>
<path d="M435.146,336.541v 9.22031" fill="none" stroke="black"/>
<path d="M450.264,341.152v 4.61016" fill="none" stroke="black"/>
<path d="M465.382,341.152v 4.61016" fill="none" stroke="black"/>
<path d="M480.5,341.152v 4.61016" fill="none" stroke="black"/>
<path d="M495.618,341.152v 4.61016" fill="none" stroke="black"/>
<path d="M510.736,336.541v 9.22031" fill="none" stroke="black"/>
<text xml:space="preserve" x="51.6698" y="362.25" fill="black" font-size="18.1229" font-family="Helvetica">0</text>
<text xml:space="preserve" x="128.831" y="362.25" fill="black" font-size="18.1229" font-family="Helvetica">1</text>
<text xml:space="preserve" x="202.743" y="362.25" fill="black" font-size="18.1229" font-family="Helvetica">2</text>
<text xml:space="preserve" x="279.091" y="362.25" fill="black" font-size="18.1229" font-family="Helvetica">3</text>
<text xml:space="preserve" x="354.628" y="362.25" fill="black" font-size="18.1229" font-family="Helvetica">4</text>
<text xml:space="preserve" x="430.164" y="362.25" fill="black" font-size="18.1229" font-family="Helvetica">5</text>
<text xml:space="preserve" x="505.7" y="362.25" fill="black" font-size="18.1229" font-family="Helvetica">6</text>
<path d="M57.1929,345.762v -307.344" fill="none" stroke="black"/>
<path d="M70.7992,299.255h -13.6063" fill="none" stroke="black"/>
<path d="M63.9961,288.902h -6.80315" fill="none" stroke="black"/>
<path d="M63.9961,278.549h -6.80315" fill="none" stroke="black"/>
<path d="M63.9961,268.196h -6.80315" fill="none" stroke="black"/>
<path d="M63.9961,257.843h -6.80315" fill="none" stroke="black"/>
<path d="M70.7992,247.49h -13.6063" fill="none" stroke="black"/>
<path d="M63.9961,237.137h -6.80315" fill="none" stroke="black"/>
<path d="M63.9961,226.785h -6.80315" fill="none" stroke="black"/>
<path d="M63.9961,216.432h -6.80315" fill="none" stroke="black"/>
<path d="M63.9961,206.079h -6.80315" fill="none" stroke="black"/>
<path d="M70.7992,195.726h -13.6063" fill="none" stroke="black"/>
<path d="M63.9961,185.373h -6.80315" fill="none" stroke="black"/>
<path d="M63.9961,175.02h -6.80315" fill="none" stroke="black"/>
<path d="M63.9961,164.667h -6.80315" fill="none" stroke="black"/>
<path d="M63.9961,154.314h -6.80315" fill="none" stroke="black"/>
<path d="M70.7992,143.961h -13.6063" fill="none" stroke="black"/>
<path d="M63.9961,133.608h -6.80315" fill="none" stroke="black"/>
<path d="M63.9961,123.255h -6.80315" fill="none" stroke="black"/>
<path d="M63.9961,112.902h -6.80315" fill="none" stroke="black"/>
<path d="M63.9961,102.55h -6.80315" fill="none" stroke="black"/>
<path d="M70.7992,92.1966h -13.6063" fill="none" stroke="black"/>
<path d="M63.9961,81.8437h -6.80315" fill="none" stroke="black"/>
<path d="M63.9961,71.4907h -6.80315" fill="none" stroke="black"/>
<path d="M63.9961,61.1378h -6.80315" fill="none" stroke="black"/>
<path d="M63.9961,50.7849h -6.80315" fill="none" stroke="black"/>
<path d="M70.7992,40.432h -13.6063" fill="none" stroke="black"/>
<path d="M70.7992,299.255h -13.6063" fill="none" stroke="black"/>
<path d="M63.9961,309.608h -6.80315" fill="none" stroke="black"/>
<path d="M63.9961,319.961h -6.80315" fill="none" stroke="black"/>
<path d="M63.9961,330.314h -6.80315" fill="none" stroke="black"/>
<path d="M63.9961,340.667h -6.80315" fill="none" stroke="black"/>
<path d="M70.7992,40.432h -13.6063" fill="none" stroke="black"/>
<text xml:space="preserve" x="44.3598" y="305.395" fill="black" font-size="18.1229" font-family="Helvetica">0</text>
<text xml:space="preserve" x="24.8666" y="253.412" fill="black" font-size="18.1229" font-family="Helvetica">100</text>
<text xml:space="preserve" x="24.8666" y="201.43" fill="black" font-size="18.1229" font-family="Helvetica">200</text>
<text xml:space="preserve" x="24.8666" y="150.261" fill="black" font-size="18.1229" font-family="Helvetica">300</text>
<text xml:space="preserve" x="24.8666" y="98.2785" fill="black" font-size="18.1229" font-family="Helvetica">400</text>
<text xml:space="preserve" x="24.8666" y="46.2965" fill="black" font-size="18.1229" font-family="Helvetica">500</text>
<text xml:space="preserve" x="85.783" y="26.8032" fill="black" font-size="12.2486" font-family="Helvetica">3</text>
<text xml:space="preserve" x="66.2898" y="35.7377" fill="black" font-size="18.1229" font-family="Helvetica">10</text>
<text xml:space="preserve" x="56.5431" y="35.7377" fill="black" font-size="18.1229" font-family="Times">&#0215;</text>
<path d="M57.1929,299.255h 86.1732v -0.260046h 2.26772v 2.50464h 2.26772v -2.45367h 2.26772v 0.873364h 2.26772v -2.23685h 2.26772v -3.80849h 2.26772v 6.58618h 2.26772v -2.75049h 2.26772v 1.07251h 2.26772v 8.41768h 2.26772v -7.56785h 2.26772v
 -16.4076h 2.26772v 5.83374h 2.26772v 0.174399h 2.26772v 4.3053h 2.26772v 1.53626h 2.26772v -8.62023h 2.26772v 9.17877h 2.26772v -7.94357h 2.26772v -15.2319h 2.26772v 16.7256h 2.26772v 0.851072h 2.26772v 0.312346h 2.26772v -104.348h 2.26772v 70.4519h
 2.26772v 45.2119h 2.26772v 16.6901h 2.26772v -21.127h 2.26772v -13.3371h 2.26772v 27.4139h 2.26772v -31.5215h 2.26772v 14.6164h 2.26772v -4.96078h 2.26772v -30.9756h 2.26772v 63.6226h 2.26772v -14.553h 2.26772v -41.8195h 2.26772v -14.9014h 2.26772v
 7.25736h 2.26772v 23.5064h 2.26772v 2.17707h 2.26772v 62.012h 2.26772v -34.3657h 2.26772v -24.2368h 2.26772v 3.16694h 2.26772v -20.5647h 2.26772v -6.81063h 2.26772v -20.8196h 2.26772v 34.4131h 2.26772v -23.7045h 2.26772v 8.49769h 2.26772v -111.304h
 2.26772v 78.4455h 2.26772v 46.4699h 2.26772v -19.5927h 2.26772v -19.6181h 2.26772v 19.6063h 2.26772v 28.1719h 2.26772v -15.1538h 2.26772v 0.533295h 2.26772v -8.41138h 2.26772v -17.2595h 2.26772v 3.40282h 2.26772v -11.0578h 2.26772v 0.2387h 2.26772v
 -7.4971h 2.26772v -6.26449h 2.26772v -12.4267h 2.26772v 29.1372h 2.26772v -24.126h 2.26772v 21.7939h 2.26772v 10.4909h 2.26772v -13.8924h 2.26772v 1.46355h 2.26772v -21.9143h 2.26772v 24.9946h 2.26772v -7.07909h 2.26772v -8.67032h 2.26772v 0.95149h
 2.26772v 3.29703h 2.26772v 5.17475h 2.26772v -6.37577h 2.26772v 32.7695h 2.26772v -9.54358h 2.26772v 13.0271h 2.26772v -40.7558h 2.26772v -1.90063h 2.26772v -2.45769h 2.26772v 2.28902h 2.26772v 7.16523h 2.26772v 5.23006h 2.26772v 17.887h 2.26772v
 -15.2188h 2.26772v -3.70243h 2.26772v 6.25596h 2.26772v -8.58872h 2.26772v 30.1866h 2.26772v -24.9796h 2.26772v 13.0355h 2.26772v 3.76664h 2.26772v -4.1656h 2.26772v -5.21475h 2.26772v 6.42048h 2.26772v 7.54142h 2.26772v 1.95646h 2.26772v 8.69899h
 2.26772v 4.58305h 2.26772v 12.7107h 2.26772v 3.29805h 2.26772v 11.2924h 2.26772v 1.9343h 2.26772v -0.71409h 2.26772v 1.43347h 2.26772v -0.595897h 2.26772v 0.744714h 4.53543v 0.0356842h 2.26772v -1.1983h 2.26772v 0.799291h 2.26772v 0.363324h 2.26772v
 -0.282266h 2.26772v 0.789969h 2.26772v -1.7272h 2.26772v 0.278522h 2.26772v 0.940973h 6.80315v -0.257365h 2.26772v -0.0641105h 2.26772v 0.321475h 2.26772v -0.598115h 2.26772v 0.439147h 2.26772v 0.158968h 2.26772v -0.426889h 2.26772v 0.426889h
 2.26772v -0.37065h 2.26772v 0.37065h 58.9606" fill="none" stroke="#ff0000" stroke-width="5"/></svg>
