<?xml version="1.0" standalone="no"?>
<svg width="567.429" height="385.492" viewBox="0 0 567.429 385.492" xmlns="http://www.w3.org/2000/svg" shape-rendering="crispEdges">
<title>
/mnt/c/Users/eggne/Documents/01-18-19/C12_2261_kin_e_pimi.svg
</title>
<desc>
Creator: ROOT Version 6.18/04
CreationDate: Thu Jan 16 12:35:21 2020</desc>
<defs>
</defs>
<rect x="0.5" y="0" width="566.929" height="384.992" fill="white"/>
<rect x="57.1929" y="38.4992" width="453.543" height="307.994" fill="white"/>
<rect x="57.1929" y="38.4992" width="453.543" height="307.994" fill="none" stroke="black"/>
<rect x="57.1929" y="38.4992" width="453.543" height="307.994" fill="white"/>
<rect x="57.1929" y="38.4992" width="453.543" height="307.994" fill="none" stroke="black"/>
<path d="M57.1929,346.493h 128.665v -0.0746936h 3.21662v -8.50599h 3.21662v -13.1559h 3.21662v -15.5971h 3.21662v -19.8554h 3.21662v -24.7175h 3.21662v -15.1461h 3.21662v -7.39932h 3.21662v -16.7057h 3.21662v -24.9096h 3.21662v -19.7787h 3.21662v
 8.54741h 3.21662v -3.50961h 3.21662v 2.62127h 3.21662v -12.547h 3.21662v -19.3579h 3.21662v 9.95153h 3.21662v -8.74977h 3.21662v -2.32439h 3.21662v -2.53623h 3.21662v -14.4999h 3.21662v -9.24666h 3.21662v -11.8657h 3.21662v 4.36014h 3.21662v
 -10.6228h 3.21662v 0.267091h 3.21662v -2.83885h 3.21662v -11.5187h 3.21662v -6.44948h 3.21662v -2.00807h 3.21662v 9.21784h 3.21662v -36.3559h 3.21662v 20.3213h 3.21662v -4.32664h 3.21662v -1.96114h 3.21662v 4.1567h 3.21662v -3.4294h 3.21662v
 2.31721h 3.21662v -4.07928h 3.21662v -6.69495h 3.21662v -12.5927h 3.21662v 13.0391h 3.21662v -5.89346h 3.21662v -5.97162h 3.21662v 8.47935h 3.21662v -11.38h 3.21662v 7.90081h 3.21662v 4.4593h 3.21662v -7.8466h 3.21662v 3.89125h 3.21662v 8.59616h
 3.21662v -3.17205h 3.21662v 24.6166h 3.21662v -7.78438h 3.21662v 13.5139h 3.21662v 14.7668h 3.21662v 23.9927h 3.21662v 3.54185h 3.21662v 24.1701h 3.21662v 19.8713h 3.21662v 21.5237h 3.21662v 19.1949h 3.21662v 4.55096h 3.21662v 24.2618h 3.21662v
 12.5349h 3.21662v 7.03996h 3.21662v 11.7985h 3.21662v 2.10159h 3.21662v 5.825h 3.21662v 16.5595h 3.21662v 0.544136h 3.21662v 5.54641h 3.21662v -0.151034h 3.21662v 5.8169h 3.21662v -0.935993h 3.21662v 6.80179h 3.21662v 0.326975h 3.21662v 6.2555h
 3.21662v -2.23869h 3.21662v 2.6842h 3.21662v -0.323645h 3.21662v 6.38221h 3.21662v 1.21438h 3.21662v -1.73805h 3.21662v 1.02623h 3.21662v 2.34515h 3.21662v 0.41334h 3.21662v -0.555198h 3.21662v 1.4326h 3.21662v -0.326144h 3.21662v -0.784113h
 3.21662v 1.58832h 3.21662v 0.0854788h 3.21662v -0.518949h 3.21662v 0.633781h 3.21662v 1.40942h 3.21662v 0.483736h 16.0831" fill="none" stroke="#000099" stroke-width="3"/>
<path d="M57.1929,346.493h 453.543" fill="none" stroke="black"/>
<path d="M57.1929,337.253v 9.23981" fill="none" stroke="black"/>
<path d="M70.0594,341.873v 4.6199" fill="none" stroke="black"/>
<path d="M82.9259,341.873v 4.6199" fill="none" stroke="black"/>
<path d="M95.7923,341.873v 4.6199" fill="none" stroke="black"/>
<path d="M108.659,341.873v 4.6199" fill="none" stroke="black"/>
<path d="M121.525,337.253v 9.23981" fill="none" stroke="black"/>
<path d="M134.392,341.873v 4.6199" fill="none" stroke="black"/>
<path d="M147.258,341.873v 4.6199" fill="none" stroke="black"/>
<path d="M160.125,341.873v 4.6199" fill="none" stroke="black"/>
<path d="M172.991,341.873v 4.6199" fill="none" stroke="black"/>
<path d="M185.858,337.253v 9.23981" fill="none" stroke="black"/>
<path d="M198.724,341.873v 4.6199" fill="none" stroke="black"/>
<path d="M211.591,341.873v 4.6199" fill="none" stroke="black"/>
<path d="M224.457,341.873v 4.6199" fill="none" stroke="black"/>
<path d="M237.324,341.873v 4.6199" fill="none" stroke="black"/>
<path d="M250.19,337.253v 9.23981" fill="none" stroke="black"/>
<path d="M263.057,341.873v 4.6199" fill="none" stroke="black"/>
<path d="M275.923,341.873v 4.6199" fill="none" stroke="black"/>
<path d="M288.789,341.873v 4.6199" fill="none" stroke="black"/>
<path d="M301.656,341.873v 4.6199" fill="none" stroke="black"/>
<path d="M314.522,337.253v 9.23981" fill="none" stroke="black"/>
<path d="M327.389,341.873v 4.6199" fill="none" stroke="black"/>
<path d="M340.255,341.873v 4.6199" fill="none" stroke="black"/>
<path d="M353.122,341.873v 4.6199" fill="none" stroke="black"/>
<path d="M365.988,341.873v 4.6199" fill="none" stroke="black"/>
<path d="M378.855,337.253v 9.23981" fill="none" stroke="black"/>
<path d="M391.721,341.873v 4.6199" fill="none" stroke="black"/>
<path d="M404.588,341.873v 4.6199" fill="none" stroke="black"/>
<path d="M417.454,341.873v 4.6199" fill="none" stroke="black"/>
<path d="M430.321,341.873v 4.6199" fill="none" stroke="black"/>
<path d="M443.187,337.253v 9.23981" fill="none" stroke="black"/>
<path d="M456.054,341.873v 4.6199" fill="none" stroke="black"/>
<path d="M468.92,341.873v 4.6199" fill="none" stroke="black"/>
<path d="M481.787,341.873v 4.6199" fill="none" stroke="black"/>
<path d="M494.653,341.873v 4.6199" fill="none" stroke="black"/>
<path d="M507.52,337.253v 9.23981" fill="none" stroke="black"/>
<path d="M507.52,337.253v 9.23981" fill="none" stroke="black"/>
<text xml:space="preserve" x="51.6698" y="363.062" fill="black" font-size="18.1602" font-family="Helvetica">0</text>
<text xml:space="preserve" x="109.337" y="363.062" fill="black" font-size="18.1602" font-family="Helvetica">0.5</text>
<text xml:space="preserve" x="182.437" y="363.062" fill="black" font-size="18.1602" font-family="Helvetica">1</text>
<text xml:space="preserve" x="237.668" y="363.062" fill="black" font-size="18.1602" font-family="Helvetica">1.5</text>
<text xml:space="preserve" x="309.143" y="363.062" fill="black" font-size="18.1602" font-family="Helvetica">2</text>
<text xml:space="preserve" x="365.999" y="363.062" fill="black" font-size="18.1602" font-family="Helvetica">2.5</text>
<text xml:space="preserve" x="438.286" y="363.062" fill="black" font-size="18.1602" font-family="Helvetica">3</text>
<text xml:space="preserve" x="495.142" y="363.062" fill="black" font-size="18.1602" font-family="Helvetica">3.5</text>
<text xml:space="preserve" x="461.028" y="381.743" fill="black" font-size="18.1602" font-family="Helvetica"> [GeV]</text>
<text xml:space="preserve" x="445.596" y="386.616" fill="black" font-size="12.2735" font-family="Helvetica">kin</text>
<text xml:space="preserve" x="434.225" y="381.743" fill="black" font-size="18.1602" font-family="Helvetica">E</text>
<path d="M57.1929,346.493v -307.994" fill="none" stroke="black"/>
<path d="M70.7992,346.493h -13.6063" fill="none" stroke="black"/>
<path d="M63.9961,340.096h -6.80315" fill="none" stroke="black"/>
<path d="M63.9961,333.7h -6.80315" fill="none" stroke="black"/>
<path d="M63.9961,327.303h -6.80315" fill="none" stroke="black"/>
<path d="M63.9961,320.906h -6.80315" fill="none" stroke="black"/>
<path d="M70.7992,314.51h -13.6063" fill="none" stroke="black"/>
<path d="M63.9961,308.113h -6.80315" fill="none" stroke="black"/>
<path d="M63.9961,301.716h -6.80315" fill="none" stroke="black"/>
<path d="M63.9961,295.32h -6.80315" fill="none" stroke="black"/>
<path d="M63.9961,288.923h -6.80315" fill="none" stroke="black"/>
<path d="M70.7992,282.527h -13.6063" fill="none" stroke="black"/>
<path d="M63.9961,276.13h -6.80315" fill="none" stroke="black"/>
<path d="M63.9961,269.733h -6.80315" fill="none" stroke="black"/>
<path d="M63.9961,263.337h -6.80315" fill="none" stroke="black"/>
<path d="M63.9961,256.94h -6.80315" fill="none" stroke="black"/>
<path d="M70.7992,250.544h -13.6063" fill="none" stroke="black"/>
<path d="M63.9961,244.147h -6.80315" fill="none" stroke="black"/>
<path d="M63.9961,237.75h -6.80315" fill="none" stroke="black"/>
<path d="M63.9961,231.354h -6.80315" fill="none" stroke="black"/>
<path d="M63.9961,224.957h -6.80315" fill="none" stroke="black"/>
<path d="M70.7992,218.561h -13.6063" fill="none" stroke="black"/>
<path d="M63.9961,212.164h -6.80315" fill="none" stroke="black"/>
<path d="M63.9961,205.767h -6.80315" fill="none" stroke="black"/>
<path d="M63.9961,199.371h -6.80315" fill="none" stroke="black"/>
<path d="M63.9961,192.974h -6.80315" fill="none" stroke="black"/>
<path d="M70.7992,186.577h -13.6063" fill="none" stroke="black"/>
<path d="M63.9961,180.181h -6.80315" fill="none" stroke="black"/>
<path d="M63.9961,173.784h -6.80315" fill="none" stroke="black"/>
<path d="M63.9961,167.388h -6.80315" fill="none" stroke="black"/>
<path d="M63.9961,160.991h -6.80315" fill="none" stroke="black"/>
<path d="M70.7992,154.594h -13.6063" fill="none" stroke="black"/>
<path d="M63.9961,148.198h -6.80315" fill="none" stroke="black"/>
<path d="M63.9961,141.801h -6.80315" fill="none" stroke="black"/>
<path d="M63.9961,135.405h -6.80315" fill="none" stroke="black"/>
<path d="M63.9961,129.008h -6.80315" fill="none" stroke="black"/>
<path d="M70.7992,122.611h -13.6063" fill="none" stroke="black"/>
<path d="M63.9961,116.215h -6.80315" fill="none" stroke="black"/>
<path d="M63.9961,109.818h -6.80315" fill="none" stroke="black"/>
<path d="M63.9961,103.421h -6.80315" fill="none" stroke="black"/>
<path d="M63.9961,97.0248h -6.80315" fill="none" stroke="black"/>
<path d="M70.7992,90.6282h -13.6063" fill="none" stroke="black"/>
<path d="M63.9961,84.2316h -6.80315" fill="none" stroke="black"/>
<path d="M63.9961,77.835h -6.80315" fill="none" stroke="black"/>
<path d="M63.9961,71.4384h -6.80315" fill="none" stroke="black"/>
<path d="M63.9961,65.0417h -6.80315" fill="none" stroke="black"/>
<path d="M70.7992,58.6451h -13.6063" fill="none" stroke="black"/>
<path d="M70.7992,58.6451h -13.6063" fill="none" stroke="black"/>
<path d="M63.9961,52.2485h -6.80315" fill="none" stroke="black"/>
<path d="M63.9961,45.8519h -6.80315" fill="none" stroke="black"/>
<path d="M63.9961,39.4553h -6.80315" fill="none" stroke="black"/>
<text xml:space="preserve" x="44.3598" y="352.503" fill="black" font-size="18.1602" font-family="Helvetica">0</text>
<text xml:space="preserve" x="24.8666" y="320.827" fill="black" font-size="18.1602" font-family="Helvetica">500</text>
<text xml:space="preserve" x="15.1199" y="288.338" fill="black" font-size="18.1602" font-family="Helvetica">1000</text>
<text xml:space="preserve" x="15.1199" y="256.661" fill="black" font-size="18.1602" font-family="Helvetica">1500</text>
<text xml:space="preserve" x="15.1199" y="224.985" fill="black" font-size="18.1602" font-family="Helvetica">2000</text>
<text xml:space="preserve" x="15.1199" y="192.496" fill="black" font-size="18.1602" font-family="Helvetica">2500</text>
<text xml:space="preserve" x="15.1199" y="160.819" fill="black" font-size="18.1602" font-family="Helvetica">3000</text>
<text xml:space="preserve" x="15.1199" y="128.331" fill="black" font-size="18.1602" font-family="Helvetica">3500</text>
<text xml:space="preserve" x="15.1199" y="96.6541" fill="black" font-size="18.1602" font-family="Helvetica">4000</text>
<text xml:space="preserve" x="15.1199" y="64.9776" fill="black" font-size="18.1602" font-family="Helvetica">4500</text>
<text xml:space="preserve" x="85.783" y="27.6155" fill="black" font-size="12.2735" font-family="Helvetica">3</text>
<text xml:space="preserve" x="66.2898" y="36.5499" fill="black" font-size="18.1602" font-family="Helvetica">10</text>
<text xml:space="preserve" x="56.5431" y="36.5499" fill="black" font-size="18.1602" font-family="Times">&#0215;</text></svg>
