<?xml version="1.0" standalone="no"?>
<svg width="567.429" height="385.492" viewBox="0 0 567.429 385.492" xmlns="http://www.w3.org/2000/svg" shape-rendering="crispEdges">
<title>
/mnt/c/Users/eggne/Documents/01-18-19/C12_2261_cal_pimi.svg
</title>
<desc>
Creator: ROOT Version 6.18/04
CreationDate: Thu Jan 16 12:28:52 2020</desc>
<defs>
</defs>
<rect x="0.5" y="0" width="566.929" height="384.992" fill="white"/>
<rect x="56.9492" y="38.5804" width="454.031" height="307.831" fill="white"/>
<rect x="56.9492" y="38.5804" width="454.031" height="307.831" fill="none" stroke="black"/>
<rect x="56.9492" y="38.5804" width="454.031" height="307.831" fill="white"/>
<rect x="56.9492" y="38.5804" width="454.031" height="307.831" fill="none" stroke="black"/>
<path d="M56.9492,332.449h 90.8061v -0.00115548h 3.24308v -0.00481427h 3.24308v -0.0910756h 3.24308v -0.0791734h 3.24308v -0.0469228h 3.24308v -0.239617h 3.24308v -0.631392h 3.24308v -0.487043h 3.24308v -0.294506h 3.24308v -0.813139h 3.24308v
 -0.88118h 3.24308v -0.505621h 3.24308v -1.34082h 3.24308v -1.547h 3.24308v 1.28703h 3.24308v -2.30041h 3.24308v -0.561801h 3.24308v -1.20725h 3.24308v -0.234815h 3.24308v -1.98902h 3.24308v 0.231553h 3.24308v -0.940068h 3.24308v -1.25067h 3.24308v
 -0.0275732h 3.24308v -3.24736h 3.24308v 0.233508h 3.24308v -2.60109h 3.24308v 1.79288h 3.24308v -2.9221h 3.24308v -2.21413h 3.24308v -1.18552h 3.24308v -1.04398h 3.24308v -1.52806h 3.24308v -1.37437h 3.24308v -0.865465h 3.24308v -0.451085h 3.24308v
 -5.4921h 3.24308v -0.377636h 3.24308v -0.315003h 3.24308v -1.30512h 3.24308v -2.99391h 3.24308v 0.877434h 3.24308v -2.00273h 3.24308v 0.178546h 3.24308v -2.23085h 3.24308v 1.39775h 3.24308v -1.82784h 3.24308v -1.40093h 3.24308v -3.63218h 3.24308v
 -0.105848h 3.24308v -2.00266h 3.24308v -0.221289h 3.24308v -2.9522h 3.24308v -4.91488h 3.24308v -0.246715h 3.24308v -0.654397h 3.24308v -5.77166h 3.24308v -13.0835h 3.24308v -14.1205h 3.24308v -32.3989h 3.24308v -63.277h 3.24308v -90.9726h 3.24308v
 203.12h 3.24308v 70.6236h 3.24308v 4.0684h 3.24308v 0.866648h 3.24308v 0.246716h 3.24308v 0.107014h 3.24308v 0.0508768h 3.24308v 0.0277266h 3.24308v 0.0030677h 3.24308v -0.0277478h 3.24308v 0.015316h 3.24308v 0.0979619h 3.24308v -0.0204339h 3.24308v
 0.00922971h 3.24308v 0.00302814h 3.24308v 0.0100652h 3.24308v 0.00300106h 3.24308v -0.00477543h 3.24308v -0.0148335h 3.24308v -0.0140417h 3.24308v 0.0315642h 3.24308v 0.003097h 3.24308v -0.0215815h 3.24308v 0.0281616h 3.24308v -0.0104639h 3.24308v
 0.00853049h 3.24308v -0.00902537h 3.24308v 0.00978201h 3.24308v -0.00532453h 3.24308v -0.00440203h 3.24308v 0.0045831h 3.24308v -0.000755768h 3.24308v 0.00514259h 3.24308v -0.00425877h 3.24308v 0.00448276h 3.24308v -0.000223992h 3.24308v -0.0118766h
 3.24308v 0.0118766h 3.24308v -0.00388165h 3.24308v 0.00135848h 3.24308v 0.000140228h 3.24308v 0.00238295h 3.24308v -0.00282925h 3.24308v 0.00282925h 16.2154v -0.00970504h 3.24308v 0.00970504h 3.24308" fill="none" stroke="#000099" stroke-width="3"/>
<path d="M56.9492,346.412h 454.031" fill="none" stroke="black"/>
<path d="M56.9492,337.162v 9.24974" fill="none" stroke="black"/>
<path d="M69.9216,341.787v 4.62487" fill="none" stroke="black"/>
<path d="M82.8939,341.787v 4.62487" fill="none" stroke="black"/>
<path d="M95.8662,341.787v 4.62487" fill="none" stroke="black"/>
<path d="M108.838,341.787v 4.62487" fill="none" stroke="black"/>
<path d="M121.811,337.162v 9.24974" fill="none" stroke="black"/>
<path d="M134.783,341.787v 4.62487" fill="none" stroke="black"/>
<path d="M147.755,341.787v 4.62487" fill="none" stroke="black"/>
<path d="M160.728,341.787v 4.62487" fill="none" stroke="black"/>
<path d="M173.7,341.787v 4.62487" fill="none" stroke="black"/>
<path d="M186.672,337.162v 9.24974" fill="none" stroke="black"/>
<path d="M199.645,341.787v 4.62487" fill="none" stroke="black"/>
<path d="M212.617,341.787v 4.62487" fill="none" stroke="black"/>
<path d="M225.589,341.787v 4.62487" fill="none" stroke="black"/>
<path d="M238.562,341.787v 4.62487" fill="none" stroke="black"/>
<path d="M251.534,337.162v 9.24974" fill="none" stroke="black"/>
<path d="M264.506,341.787v 4.62487" fill="none" stroke="black"/>
<path d="M277.478,341.787v 4.62487" fill="none" stroke="black"/>
<path d="M290.451,341.787v 4.62487" fill="none" stroke="black"/>
<path d="M303.423,341.787v 4.62487" fill="none" stroke="black"/>
<path d="M316.395,337.162v 9.24974" fill="none" stroke="black"/>
<path d="M329.368,341.787v 4.62487" fill="none" stroke="black"/>
<path d="M342.34,341.787v 4.62487" fill="none" stroke="black"/>
<path d="M355.312,341.787v 4.62487" fill="none" stroke="black"/>
<path d="M368.285,341.787v 4.62487" fill="none" stroke="black"/>
<path d="M381.257,337.162v 9.24974" fill="none" stroke="black"/>
<path d="M394.229,341.787v 4.62487" fill="none" stroke="black"/>
<path d="M407.201,341.787v 4.62487" fill="none" stroke="black"/>
<path d="M420.174,341.787v 4.62487" fill="none" stroke="black"/>
<path d="M433.146,341.787v 4.62487" fill="none" stroke="black"/>
<path d="M446.118,337.162v 9.24974" fill="none" stroke="black"/>
<path d="M459.091,341.787v 4.62487" fill="none" stroke="black"/>
<path d="M472.063,341.787v 4.62487" fill="none" stroke="black"/>
<path d="M485.035,341.787v 4.62487" fill="none" stroke="black"/>
<path d="M498.008,341.787v 4.62487" fill="none" stroke="black"/>
<path d="M510.98,337.162v 9.24974" fill="none" stroke="black"/>
<text xml:space="preserve" x="51.6698" y="363.062" fill="black" font-size="18.1602" font-family="Helvetica">0</text>
<text xml:space="preserve" x="109.337" y="363.062" fill="black" font-size="18.1602" font-family="Helvetica">0.5</text>
<text xml:space="preserve" x="183.249" y="363.062" fill="black" font-size="18.1602" font-family="Helvetica">1</text>
<text xml:space="preserve" x="239.292" y="363.062" fill="black" font-size="18.1602" font-family="Helvetica">1.5</text>
<text xml:space="preserve" x="310.768" y="363.062" fill="black" font-size="18.1602" font-family="Helvetica">2</text>
<text xml:space="preserve" x="368.435" y="363.062" fill="black" font-size="18.1602" font-family="Helvetica">2.5</text>
<text xml:space="preserve" x="440.723" y="363.062" fill="black" font-size="18.1602" font-family="Helvetica">3</text>
<text xml:space="preserve" x="498.39" y="363.062" fill="black" font-size="18.1602" font-family="Helvetica">3.5</text>
<text xml:space="preserve" x="461.028" y="380.931" fill="black" font-size="18.1602" font-family="Helvetica"> [GeV]</text>
<text xml:space="preserve" x="445.596" y="386.616" fill="black" font-size="12.2735" font-family="Helvetica">cal</text>
<text xml:space="preserve" x="434.225" y="380.931" fill="black" font-size="18.1602" font-family="Helvetica">E</text>
<path d="M56.9492,346.412v -307.831" fill="none" stroke="black"/>
<path d="M70.5484,332.449h -13.5991" fill="none" stroke="black"/>
<path d="M63.7488,322.604h -6.79956" fill="none" stroke="black"/>
<path d="M63.7488,312.758h -6.79956" fill="none" stroke="black"/>
<path d="M63.7488,302.913h -6.79956" fill="none" stroke="black"/>
<path d="M63.7488,293.068h -6.79956" fill="none" stroke="black"/>
<path d="M70.5484,283.222h -13.5991" fill="none" stroke="black"/>
<path d="M63.7488,273.377h -6.79956" fill="none" stroke="black"/>
<path d="M63.7488,263.531h -6.79956" fill="none" stroke="black"/>
<path d="M63.7488,253.686h -6.79956" fill="none" stroke="black"/>
<path d="M63.7488,243.841h -6.79956" fill="none" stroke="black"/>
<path d="M70.5484,233.995h -13.5991" fill="none" stroke="black"/>
<path d="M63.7488,224.15h -6.79956" fill="none" stroke="black"/>
<path d="M63.7488,214.305h -6.79956" fill="none" stroke="black"/>
<path d="M63.7488,204.459h -6.79956" fill="none" stroke="black"/>
<path d="M63.7488,194.614h -6.79956" fill="none" stroke="black"/>
<path d="M70.5484,184.769h -13.5991" fill="none" stroke="black"/>
<path d="M63.7488,174.923h -6.79956" fill="none" stroke="black"/>
<path d="M63.7488,165.078h -6.79956" fill="none" stroke="black"/>
<path d="M63.7488,155.232h -6.79956" fill="none" stroke="black"/>
<path d="M63.7488,145.387h -6.79956" fill="none" stroke="black"/>
<path d="M70.5484,135.542h -13.5991" fill="none" stroke="black"/>
<path d="M63.7488,125.696h -6.79956" fill="none" stroke="black"/>
<path d="M63.7488,115.851h -6.79956" fill="none" stroke="black"/>
<path d="M63.7488,106.006h -6.79956" fill="none" stroke="black"/>
<path d="M63.7488,96.1602h -6.79956" fill="none" stroke="black"/>
<path d="M70.5484,86.3148h -13.5991" fill="none" stroke="black"/>
<path d="M70.5484,332.449h -13.5991" fill="none" stroke="black"/>
<path d="M63.7488,342.294h -6.79956" fill="none" stroke="black"/>
<path d="M70.5484,86.3148h -13.5991" fill="none" stroke="black"/>
<path d="M63.7488,76.4695h -6.79956" fill="none" stroke="black"/>
<path d="M63.7488,66.6241h -6.79956" fill="none" stroke="black"/>
<path d="M63.7488,56.7787h -6.79956" fill="none" stroke="black"/>
<path d="M63.7488,46.9334h -6.79956" fill="none" stroke="black"/>
<text xml:space="preserve" x="44.3598" y="338.695" fill="black" font-size="18.1602" font-family="Helvetica">0</text>
<text xml:space="preserve" x="44.3598" y="289.15" fill="black" font-size="18.1602" font-family="Helvetica">5</text>
<text xml:space="preserve" x="34.6132" y="240.417" fill="black" font-size="18.1602" font-family="Helvetica">10</text>
<text xml:space="preserve" x="34.6132" y="190.872" fill="black" font-size="18.1602" font-family="Helvetica">15</text>
<text xml:space="preserve" x="34.6132" y="141.326" fill="black" font-size="18.1602" font-family="Helvetica">20</text>
<text xml:space="preserve" x="34.6132" y="92.593" fill="black" font-size="18.1602" font-family="Helvetica">25</text>
<text xml:space="preserve" x="85.783" y="27.6155" fill="black" font-size="12.2735" font-family="Helvetica">6</text>
<text xml:space="preserve" x="66.2898" y="36.5499" fill="black" font-size="18.1602" font-family="Helvetica">10</text>
<text xml:space="preserve" x="56.5431" y="36.5499" fill="black" font-size="18.1602" font-family="Times">&#0215;</text></svg>
