<?xml version="1.0" standalone="no"?>
<svg width="567.429" height="384.68" viewBox="0 0 567.429 384.68" xmlns="http://www.w3.org/2000/svg" shape-rendering="crispEdges">
<title>
/u/home/ltracy/Root_work/01-18-19/C12_2261_e_pi.svg
</title>
<desc>
Creator: ROOT Version 6.10/02
CreationDate: Thu Nov  7 11:15:38 2019</desc>
<defs>
</defs>
<rect x="0.5" y="0" width="566.929" height="384.18" fill="white"/>
<rect x="57.1929" y="38.418" width="453.543" height="307.344" fill="white"/>
<rect x="57.1929" y="38.418" width="453.543" height="307.344" fill="none" stroke="black"/>
<rect x="57.1929" y="38.418" width="453.543" height="307.344" fill="white"/>
<rect x="57.1929" y="38.418" width="453.543" height="307.344" fill="none" stroke="black"/>
<path d="M57.1929,345.762h 112.582v -0.101695h 3.21662v -0.0931498h 3.21662v -0.199427h 3.21662v -1.29912h 3.21662v -1.10967h 3.21662v -2.51388h 3.21662v -2.5555h 3.21662v -6.60724h 3.21662v -3.17736h 3.21662v -4.53684h 3.21662v 0.0109576h 3.21662v
 -9.94218h 3.21662v -4.4032h 3.21662v -12.8057h 3.21662v -2.39578h 3.21662v -0.823591h 3.21662v -15.2504h 3.21662v 0.0968798h 3.21662v -4.46116h 3.21662v -8.29354h 3.21662v -4.9029h 3.21662v -3.41192h 3.21662v -9.73115h 3.21662v 1.78396h 3.21662v
 -10.0409h 3.21662v -12.9435h 3.21662v -8.82329h 3.21662v 13.0205h 3.21662v -15.6735h 3.21662v -6.32327h 3.21662v 5.76622h 3.21662v -14.6391h 3.21662v -18.0306h 3.21662v 18.9404h 3.21662v -21.0749h 3.21662v 4.50565h 3.21662v -0.378014h 3.21662v
 -33.1088h 3.21662v 16.9624h 3.21662v 3.7539h 3.21662v -30.7106h 3.21662v 7.93274h 3.21662v -12.6737h 3.21662v 9.29217h 3.21662v -16.9712h 3.21662v -1.96943h 3.21662v -14.2653h 3.21662v 12.8708h 3.21662v -8.13767h 3.21662v -18.3164h 3.21662v 15.5076h
 3.21662v -27.4249h 3.21662v 8.57048h 3.21662v -10.6616h 3.21662v -4.57138h 3.21662v -26.3696h 3.21662v 17.3676h 3.21662v 5.31751h 3.21662v -6.50401h 3.21662v 7.95058h 3.21662v 2.83248h 3.21662v 5.24583h 3.21662v 39.7724h 3.21662v -5.76167h 3.21662v
 21.2882h 3.21662v 12.4414h 3.21662v 17.7444h 3.21662v 6.51559h 3.21662v 26.2317h 3.21662v -3.6352h 3.21662v 20.1171h 3.21662v 2.3453h 3.21662v 32.3714h 3.21662v -2.89244h 3.21662v -8.96259h 3.21662v 9.11359h 3.21662v 17.4685h 3.21662v -11.8723h
 3.21662v 11.2009h 3.21662v 4.08201h 3.21662v 10.0481h 3.21662v -0.223475h 3.21662v 8.89485h 3.21662v 9.12259h 3.21662v -11.9802h 3.21662v 12.2389h 3.21662v -3.33452h 3.21662v 7.7481h 3.21662v -4.08283h 3.21662v -5.16033h 3.21662v 17.726h 3.21662v
 2.20539h 3.21662v -8.22788h 3.21662v 3.41592h 3.21662v 5.13606h 3.21662v -0.387434h 3.21662v -1.02281h 3.21662v -1.75621h 3.21662v 7.68526h 3.21662v 1.70214h 3.21662v 3.62996h 3.21662v -9.60855h 3.21662v 8.02986h 3.21662v 0.150272h 3.21662v 4.8418h
 3.21662v 1.41755h 3.21662" fill="none" stroke="black" stroke-width="5"/>
<path d="M57.1929,345.762h 453.543" fill="none" stroke="black"/>
<path d="M57.1929,336.541v 9.22031" fill="none" stroke="black"/>
<path d="M70.0594,341.152v 4.61016" fill="none" stroke="black"/>
<path d="M82.9259,341.152v 4.61016" fill="none" stroke="black"/>
<path d="M95.7923,341.152v 4.61016" fill="none" stroke="black"/>
<path d="M108.659,341.152v 4.61016" fill="none" stroke="black"/>
<path d="M121.525,336.541v 9.22031" fill="none" stroke="black"/>
<path d="M134.392,341.152v 4.61016" fill="none" stroke="black"/>
<path d="M147.258,341.152v 4.61016" fill="none" stroke="black"/>
<path d="M160.125,341.152v 4.61016" fill="none" stroke="black"/>
<path d="M172.991,341.152v 4.61016" fill="none" stroke="black"/>
<path d="M185.858,336.541v 9.22031" fill="none" stroke="black"/>
<path d="M198.724,341.152v 4.61016" fill="none" stroke="black"/>
<path d="M211.591,341.152v 4.61016" fill="none" stroke="black"/>
<path d="M224.457,341.152v 4.61016" fill="none" stroke="black"/>
<path d="M237.324,341.152v 4.61016" fill="none" stroke="black"/>
<path d="M250.19,336.541v 9.22031" fill="none" stroke="black"/>
<path d="M263.057,341.152v 4.61016" fill="none" stroke="black"/>
<path d="M275.923,341.152v 4.61016" fill="none" stroke="black"/>
<path d="M288.789,341.152v 4.61016" fill="none" stroke="black"/>
<path d="M301.656,341.152v 4.61016" fill="none" stroke="black"/>
<path d="M314.522,336.541v 9.22031" fill="none" stroke="black"/>
<path d="M327.389,341.152v 4.61016" fill="none" stroke="black"/>
<path d="M340.255,341.152v 4.61016" fill="none" stroke="black"/>
<path d="M353.122,341.152v 4.61016" fill="none" stroke="black"/>
<path d="M365.988,341.152v 4.61016" fill="none" stroke="black"/>
<path d="M378.855,336.541v 9.22031" fill="none" stroke="black"/>
<path d="M391.721,341.152v 4.61016" fill="none" stroke="black"/>
<path d="M404.588,341.152v 4.61016" fill="none" stroke="black"/>
<path d="M417.454,341.152v 4.61016" fill="none" stroke="black"/>
<path d="M430.321,341.152v 4.61016" fill="none" stroke="black"/>
<path d="M443.187,336.541v 9.22031" fill="none" stroke="black"/>
<path d="M456.054,341.152v 4.61016" fill="none" stroke="black"/>
<path d="M468.92,341.152v 4.61016" fill="none" stroke="black"/>
<path d="M481.787,341.152v 4.61016" fill="none" stroke="black"/>
<path d="M494.653,341.152v 4.61016" fill="none" stroke="black"/>
<path d="M507.52,336.541v 9.22031" fill="none" stroke="black"/>
<path d="M507.52,336.541v 9.22031" fill="none" stroke="black"/>
<text xml:space="preserve" x="51.6698" y="362.25" fill="black" font-size="18.1229" font-family="Helvetica">0</text>
<text xml:space="preserve" x="109.337" y="362.25" fill="black" font-size="18.1229" font-family="Helvetica">0.5</text>
<text xml:space="preserve" x="182.437" y="362.25" fill="black" font-size="18.1229" font-family="Helvetica">1</text>
<text xml:space="preserve" x="237.668" y="362.25" fill="black" font-size="18.1229" font-family="Helvetica">1.5</text>
<text xml:space="preserve" x="309.143" y="362.25" fill="black" font-size="18.1229" font-family="Helvetica">2</text>
<text xml:space="preserve" x="365.999" y="362.25" fill="black" font-size="18.1229" font-family="Helvetica">2.5</text>
<text xml:space="preserve" x="438.286" y="362.25" fill="black" font-size="18.1229" font-family="Helvetica">3</text>
<text xml:space="preserve" x="495.142" y="362.25" fill="black" font-size="18.1229" font-family="Helvetica">3.5</text>
<path d="M57.1929,345.762v -307.344" fill="none" stroke="black"/>
<path d="M70.7992,345.762h -13.6063" fill="none" stroke="black"/>
<path d="M63.9961,337.034h -6.80315" fill="none" stroke="black"/>
<path d="M63.9961,328.306h -6.80315" fill="none" stroke="black"/>
<path d="M63.9961,319.578h -6.80315" fill="none" stroke="black"/>
<path d="M63.9961,310.85h -6.80315" fill="none" stroke="black"/>
<path d="M70.7992,302.122h -13.6063" fill="none" stroke="black"/>
<path d="M63.9961,293.394h -6.80315" fill="none" stroke="black"/>
<path d="M63.9961,284.666h -6.80315" fill="none" stroke="black"/>
<path d="M63.9961,275.939h -6.80315" fill="none" stroke="black"/>
<path d="M63.9961,267.211h -6.80315" fill="none" stroke="black"/>
<path d="M70.7992,258.483h -13.6063" fill="none" stroke="black"/>
<path d="M63.9961,249.755h -6.80315" fill="none" stroke="black"/>
<path d="M63.9961,241.027h -6.80315" fill="none" stroke="black"/>
<path d="M63.9961,232.299h -6.80315" fill="none" stroke="black"/>
<path d="M63.9961,223.571h -6.80315" fill="none" stroke="black"/>
<path d="M70.7992,214.843h -13.6063" fill="none" stroke="black"/>
<path d="M63.9961,206.115h -6.80315" fill="none" stroke="black"/>
<path d="M63.9961,197.387h -6.80315" fill="none" stroke="black"/>
<path d="M63.9961,188.659h -6.80315" fill="none" stroke="black"/>
<path d="M63.9961,179.932h -6.80315" fill="none" stroke="black"/>
<path d="M70.7992,171.204h -13.6063" fill="none" stroke="black"/>
<path d="M63.9961,162.476h -6.80315" fill="none" stroke="black"/>
<path d="M63.9961,153.748h -6.80315" fill="none" stroke="black"/>
<path d="M63.9961,145.02h -6.80315" fill="none" stroke="black"/>
<path d="M63.9961,136.292h -6.80315" fill="none" stroke="black"/>
<path d="M70.7992,127.564h -13.6063" fill="none" stroke="black"/>
<path d="M63.9961,118.836h -6.80315" fill="none" stroke="black"/>
<path d="M63.9961,110.108h -6.80315" fill="none" stroke="black"/>
<path d="M63.9961,101.38h -6.80315" fill="none" stroke="black"/>
<path d="M63.9961,92.6525h -6.80315" fill="none" stroke="black"/>
<path d="M70.7992,83.9246h -13.6063" fill="none" stroke="black"/>
<path d="M63.9961,75.1966h -6.80315" fill="none" stroke="black"/>
<path d="M63.9961,66.4687h -6.80315" fill="none" stroke="black"/>
<path d="M63.9961,57.7408h -6.80315" fill="none" stroke="black"/>
<path d="M63.9961,49.0129h -6.80315" fill="none" stroke="black"/>
<path d="M70.7992,40.285h -13.6063" fill="none" stroke="black"/>
<path d="M70.7992,40.285h -13.6063" fill="none" stroke="black"/>
<text xml:space="preserve" x="44.3598" y="351.691" fill="black" font-size="18.1229" font-family="Helvetica">0</text>
<text xml:space="preserve" x="24.8666" y="307.831" fill="black" font-size="18.1229" font-family="Helvetica">100</text>
<text xml:space="preserve" x="24.8666" y="264.784" fill="black" font-size="18.1229" font-family="Helvetica">200</text>
<text xml:space="preserve" x="24.8666" y="220.924" fill="black" font-size="18.1229" font-family="Helvetica">300</text>
<text xml:space="preserve" x="24.8666" y="177.064" fill="black" font-size="18.1229" font-family="Helvetica">400</text>
<text xml:space="preserve" x="24.8666" y="134.016" fill="black" font-size="18.1229" font-family="Helvetica">500</text>
<text xml:space="preserve" x="24.8666" y="90.1564" fill="black" font-size="18.1229" font-family="Helvetica">600</text>
<text xml:space="preserve" x="24.8666" y="46.2965" fill="black" font-size="18.1229" font-family="Helvetica">700</text>
<text xml:space="preserve" x="85.783" y="26.8032" fill="black" font-size="12.2486" font-family="Helvetica">3</text>
<text xml:space="preserve" x="66.2898" y="35.7377" fill="black" font-size="18.1229" font-family="Helvetica">10</text>
<text xml:space="preserve" x="56.5431" y="35.7377" fill="black" font-size="18.1229" font-family="Times">&#0215;</text>
<path d="M57.1929,345.762h 109.365v -0.0713912h 3.21662v 0.0713912h 3.21662v -0.735666h 3.21662v -2.49816h 3.21662v -3.84628h 3.21662v -7.7139h 3.21662v -2.53679h 3.21662v -8.04814h 3.21662v -9.70476h 3.21662v -8.1732h 3.21662v -17.9065h 3.21662v
 -8.03504h 3.21662v -5.82789h 3.21662v -15.9814h 3.21662v -5.34503h 3.21662v -12.2609h 3.21662v -18.1211h 3.21662v -8.41661h 3.21662v -15.4375h 3.21662v -14.865h 3.21662v -8.14794h 3.21662v -0.896861h 3.21662v 6.07832h 3.21662v -20.8199h 3.21662v
 -2.15592h 3.21662v -24.8427h 3.21662v -3.80436h 3.21662v -8.91703h 3.21662v -6.4388h 3.21662v -2.1211h 3.21662v 1.92791h 3.21662v -25.7279h 3.21662v -10.7837h 3.21662v -9.25619h 3.21662v 4.44392h 3.21662v -4.13736h 3.21662v 18.3862h 3.21662v
 -3.80188h 3.21662v -21.4837h 3.21662v -4.87675h 3.21662v 32.9854h 3.21662v -17.2289h 3.21662v -9.56824h 3.21662v -12.4836h 3.21662v 32.4904h 3.21662v 10.5201h 3.21662v -32.9312h 3.21662v 32.1243h 3.21662v 22.8179h 3.21662v -6.98961h 3.21662v
 -10.9045h 3.21662v 16.5305h 3.21662v -12.9121h 3.21662v 34.4947h 3.21662v 11.6303h 3.21662v 6.19491h 3.21662v -11.8405h 3.21662v 28.2962h 3.21662v -18.9103h 3.21662v 22.7231h 3.21662v -0.200537h 3.21662v 14.514h 3.21662v 2.24354h 3.21662v 21.1879h
 3.21662v 4.99832h 3.21662v 1.75716h 3.21662v 17.7027h 3.21662v -9.03051h 3.21662v 12.766h 3.21662v 14.6137h 3.21662v 0.202801h 3.21662v 10.0791h 3.21662v -2.87649h 3.21662v 4.32283h 3.21662v 0.39862h 3.21662v 19.2868h 3.21662v 5.22651h 3.21662v
 -23.1331h 3.21662v 27.2911h 3.21662v -7.76402h 3.21662v 8.12983h 3.21662v 7.03773h 3.21662v 4.79031h 3.21662v -3.82579h 3.21662v 0.922908h 3.21662v 6.46717h 3.21662v 1.07587h 3.21662v 7.33078h 3.21662v -4.01205h 3.21662v 8.55864h 3.21662v -10.1488h
 3.21662v 10.102h 3.21662v -1.47766h 3.21662v 8.45503h 3.21662v -4.78044h 3.21662v 3.40595h 3.21662v 0.515811h 3.21662v 0.305654h 3.21662v -2.2302h 3.21662v 7.38849h 3.21662v -4.58324h 3.21662v -4.82921h 3.21662v 4.27973h 3.21662v 5.9709h 3.21662v
 4.19991h 3.21662v -3.5818h 3.21662v 3.97587h 3.21662" fill="none" stroke="#ff0000" stroke-width="5"/></svg>
