<?xml version="1.0" standalone="no"?>
<svg width="567.429" height="385.492" viewBox="0 0 567.429 385.492" xmlns="http://www.w3.org/2000/svg" shape-rendering="crispEdges">
<title>
/mnt/c/Users/eggne/Documents/01-18-19/C12_4461_cal_pipl.svg
</title>
<desc>
Creator: ROOT Version 6.18/04
CreationDate: Thu Jan 16 12:37:43 2020</desc>
<defs>
</defs>
<rect x="0.5" y="0" width="566.929" height="384.992" fill="white"/>
<rect x="57.1929" y="38.4992" width="453.543" height="307.994" fill="white"/>
<rect x="57.1929" y="38.4992" width="453.543" height="307.994" fill="none" stroke="black"/>
<rect x="57.1929" y="38.4992" width="453.543" height="307.994" fill="white"/>
<rect x="57.1929" y="38.4992" width="453.543" height="307.994" fill="none" stroke="black"/>
<path d="M57.1929,337.979h 86.1732v -0.111426h 2.26772v 0.806056h 2.26772v -0.450038h 2.26772v -2.57499h 2.26772v 2.67891h 2.26772v -1.57252h 2.26772v -0.445786h 2.26772v -1.04462h 2.26772v -8.76881h 2.26772v 16.1166h 2.26772v -6.64678h 2.26772v
 -10.8641h 2.26772v 8.28351h 2.26772v -9.16333h 2.26772v 8.62274h 2.26772v -4.89641h 2.26772v 2.15043h 2.26772v -7.5452h 2.26772v 3.34528h 2.26772v -10.0573h 2.26772v -9.69596h 2.26772v 1.02071h 2.26772v 36.8733h 2.26772v -82.7402h 2.26772v 50.2543h
 2.26772v -21.4144h 2.26772v 41.4817h 2.26772v -28.2429h 2.26772v -16.8976h 2.26772v 28.2015h 2.26772v -28.1984h 2.26772v 17.8871h 2.26772v -33.6889h 2.26772v -7.25624h 2.26772v 39.8131h 2.26772v -65.6552h 2.26772v 108.91h 2.26772v -75.6799h 2.26772v
 -2.70409h 2.26772v 49.8089h 2.26772v -52.9781h 2.26772v 43.4196h 2.26772v -88.8035h 2.26772v 63.4526h 2.26772v -24.7965h 2.26772v 24.3195h 2.26772v -55.6274h 2.26772v 33.2349h 2.26772v -24.9101h 2.26772v 13.7348h 2.26772v -27.8212h 2.26772v 20.4624h
 2.26772v -30.2357h 2.26772v 36.8344h 2.26772v -59.6039h 2.26772v 17.257h 2.26772v 19.6411h 2.26772v 27.5538h 2.26772v -53.4621h 2.26772v -2.13114h 2.26772v -14.9212h 2.26772v 34.9147h 2.26772v -21.9494h 2.26772v -25.8483h 2.26772v -2.16033h 2.26772v
 35.7859h 2.26772v -44.6031h 2.26772v 22.5297h 2.26772v 6.00258h 2.26772v -23.7396h 2.26772v 7.72897h 2.26772v 16.2253h 2.26772v -15.4659h 2.26772v -1.40375h 2.26772v -9.16071h 2.26772v 111.679h 2.26772v -89.9774h 2.26772v 31.3153h 2.26772v -64.229h
 2.26772v -16.8185h 2.26772v 11.7679h 2.26772v 10.9584h 2.26772v 25.8227h 2.26772v -18.9432h 2.26772v 32.2365h 2.26772v -53.1132h 2.26772v 19.2183h 2.26772v -34.9507h 2.26772v 16.5447h 2.26772v 31.9814h 2.26772v -14.9712h 2.26772v -1.08102h 2.26772v
 10.2904h 2.26772v -13.9045h 2.26772v 27.5616h 2.26772v -5.00471h 2.26772v -5.9651h 2.26772v 8.29712h 2.26772v -14.2318h 2.26772v 24.9762h 2.26772v -9.65861h 2.26772v -14.3077h 2.26772v 10.1563h 2.26772v 14.3551h 2.26772v 20.6185h 2.26772v 27.904h
 2.26772v 24.7615h 2.26772v 16.3066h 2.26772v 16.3883h 2.26772v 27.6942h 2.26772v 10.372h 2.26772v 2.91522h 2.26772v -1.14195h 2.26772v -0.199091h 2.26772v -0.401855h 2.26772v 0.0293073h 2.26772v 0.92981h 2.26772v -1.08599h 2.26772v 0.973042h
 2.26772v -0.0827038h 2.26772v -0.396707h 2.26772v 0.72271h 2.26772v -0.428397h 2.26772v 0.419419h 2.26772v -0.484492h 2.26772v 0.297988h 2.26772v -0.193984h 2.26772v 0.530503h 2.26772v -0.134905h 2.26772v -0.0903801h 2.26772v -0.898194h 2.26772v
 1.10647h 2.26772v 0.051188h 2.26772v -0.352727h 2.26772v 0.452351h 2.26772v -0.162809h 2.26772v 0.162809h 27.2126v -0.137587h 2.26772v -0.299298h 2.26772v 0.436885h 27.2126" fill="none" stroke="#000099" stroke-width="3"/>
<path d="M57.1929,346.493h 453.543" fill="none" stroke="black"/>
<path d="M57.1929,337.253v 9.23981" fill="none" stroke="black"/>
<path d="M72.311,341.873v 4.6199" fill="none" stroke="black"/>
<path d="M87.4291,341.873v 4.6199" fill="none" stroke="black"/>
<path d="M102.547,341.873v 4.6199" fill="none" stroke="black"/>
<path d="M117.665,341.873v 4.6199" fill="none" stroke="black"/>
<path d="M132.783,337.253v 9.23981" fill="none" stroke="black"/>
<path d="M147.902,341.873v 4.6199" fill="none" stroke="black"/>
<path d="M163.02,341.873v 4.6199" fill="none" stroke="black"/>
<path d="M178.138,341.873v 4.6199" fill="none" stroke="black"/>
<path d="M193.256,341.873v 4.6199" fill="none" stroke="black"/>
<path d="M208.374,337.253v 9.23981" fill="none" stroke="black"/>
<path d="M223.492,341.873v 4.6199" fill="none" stroke="black"/>
<path d="M238.61,341.873v 4.6199" fill="none" stroke="black"/>
<path d="M253.728,341.873v 4.6199" fill="none" stroke="black"/>
<path d="M268.846,341.873v 4.6199" fill="none" stroke="black"/>
<path d="M283.965,337.253v 9.23981" fill="none" stroke="black"/>
<path d="M299.083,341.873v 4.6199" fill="none" stroke="black"/>
<path d="M314.201,341.873v 4.6199" fill="none" stroke="black"/>
<path d="M329.319,341.873v 4.6199" fill="none" stroke="black"/>
<path d="M344.437,341.873v 4.6199" fill="none" stroke="black"/>
<path d="M359.555,337.253v 9.23981" fill="none" stroke="black"/>
<path d="M374.673,341.873v 4.6199" fill="none" stroke="black"/>
<path d="M389.791,341.873v 4.6199" fill="none" stroke="black"/>
<path d="M404.909,341.873v 4.6199" fill="none" stroke="black"/>
<path d="M420.028,341.873v 4.6199" fill="none" stroke="black"/>
<path d="M435.146,337.253v 9.23981" fill="none" stroke="black"/>
<path d="M450.264,341.873v 4.6199" fill="none" stroke="black"/>
<path d="M465.382,341.873v 4.6199" fill="none" stroke="black"/>
<path d="M480.5,341.873v 4.6199" fill="none" stroke="black"/>
<path d="M495.618,341.873v 4.6199" fill="none" stroke="black"/>
<path d="M510.736,337.253v 9.23981" fill="none" stroke="black"/>
<text xml:space="preserve" x="51.6698" y="363.062" fill="black" font-size="18.1602" font-family="Helvetica">0</text>
<text xml:space="preserve" x="128.831" y="363.062" fill="black" font-size="18.1602" font-family="Helvetica">1</text>
<text xml:space="preserve" x="202.743" y="363.062" fill="black" font-size="18.1602" font-family="Helvetica">2</text>
<text xml:space="preserve" x="279.091" y="363.062" fill="black" font-size="18.1602" font-family="Helvetica">3</text>
<text xml:space="preserve" x="354.628" y="363.062" fill="black" font-size="18.1602" font-family="Helvetica">4</text>
<text xml:space="preserve" x="430.164" y="363.062" fill="black" font-size="18.1602" font-family="Helvetica">5</text>
<text xml:space="preserve" x="505.7" y="363.062" fill="black" font-size="18.1602" font-family="Helvetica">6</text>
<text xml:space="preserve" x="461.028" y="380.931" fill="black" font-size="18.1602" font-family="Helvetica"> [GeV]</text>
<text xml:space="preserve" x="445.596" y="386.616" fill="black" font-size="12.2735" font-family="Helvetica">cal</text>
<text xml:space="preserve" x="434.225" y="380.931" fill="black" font-size="18.1602" font-family="Helvetica">E</text>
<path d="M57.1929,346.493v -307.994" fill="none" stroke="black"/>
<path d="M70.7992,337.979h -13.6063" fill="none" stroke="black"/>
<path d="M63.9961,323.248h -6.80315" fill="none" stroke="black"/>
<path d="M63.9961,308.516h -6.80315" fill="none" stroke="black"/>
<path d="M63.9961,293.785h -6.80315" fill="none" stroke="black"/>
<path d="M63.9961,279.054h -6.80315" fill="none" stroke="black"/>
<path d="M70.7992,264.322h -13.6063" fill="none" stroke="black"/>
<path d="M63.9961,249.591h -6.80315" fill="none" stroke="black"/>
<path d="M63.9961,234.86h -6.80315" fill="none" stroke="black"/>
<path d="M63.9961,220.128h -6.80315" fill="none" stroke="black"/>
<path d="M63.9961,205.397h -6.80315" fill="none" stroke="black"/>
<path d="M70.7992,190.666h -13.6063" fill="none" stroke="black"/>
<path d="M63.9961,175.934h -6.80315" fill="none" stroke="black"/>
<path d="M63.9961,161.203h -6.80315" fill="none" stroke="black"/>
<path d="M63.9961,146.472h -6.80315" fill="none" stroke="black"/>
<path d="M63.9961,131.74h -6.80315" fill="none" stroke="black"/>
<path d="M70.7992,117.009h -13.6063" fill="none" stroke="black"/>
<path d="M63.9961,102.278h -6.80315" fill="none" stroke="black"/>
<path d="M63.9961,87.5465h -6.80315" fill="none" stroke="black"/>
<path d="M63.9961,72.8152h -6.80315" fill="none" stroke="black"/>
<path d="M63.9961,58.0839h -6.80315" fill="none" stroke="black"/>
<path d="M70.7992,43.3525h -13.6063" fill="none" stroke="black"/>
<path d="M70.7992,337.979h -13.6063" fill="none" stroke="black"/>
<path d="M70.7992,43.3525h -13.6063" fill="none" stroke="black"/>
<text xml:space="preserve" x="44.3598" y="344.381" fill="black" font-size="18.1602" font-family="Helvetica">0</text>
<text xml:space="preserve" x="24.8666" y="270.469" fill="black" font-size="18.1602" font-family="Helvetica">500</text>
<text xml:space="preserve" x="15.1199" y="196.557" fill="black" font-size="18.1602" font-family="Helvetica">1000</text>
<text xml:space="preserve" x="15.1199" y="123.457" fill="black" font-size="18.1602" font-family="Helvetica">1500</text>
<text xml:space="preserve" x="15.1199" y="49.5454" fill="black" font-size="18.1602" font-family="Helvetica">2000</text>
<text xml:space="preserve" x="85.783" y="27.6155" fill="black" font-size="12.2735" font-family="Helvetica">3</text>
<text xml:space="preserve" x="66.2898" y="36.5499" fill="black" font-size="18.1602" font-family="Helvetica">10</text>
<text xml:space="preserve" x="56.5431" y="36.5499" fill="black" font-size="18.1602" font-family="Times">&#0215;</text></svg>
