<?xml version="1.0" encoding="UTF-8" standalone="no"?>
<svg
   xmlns:dc="http://purl.org/dc/elements/1.1/"
   xmlns:cc="http://creativecommons.org/ns#"
   xmlns:rdf="http://www.w3.org/1999/02/22-rdf-syntax-ns#"
   xmlns:svg="http://www.w3.org/2000/svg"
   xmlns="http://www.w3.org/2000/svg"
   xmlns:sodipodi="http://sodipodi.sourceforge.net/DTD/sodipodi-0.dtd"
   xmlns:inkscape="http://www.inkscape.org/namespaces/inkscape"
   width="567.429"
   height="385.492"
   viewBox="0 0 567.429 385.492"
   shape-rendering="crispEdges"
   version="1.1"
   id="svg200"
   sodipodi:docname="C12_2261_pimi.svg"
   inkscape:export-filename="C:\Users\eggne\Documents\Thesis\C12_2261_pimi.png"
   inkscape:export-xdpi="96"
   inkscape:export-ydpi="96"
   inkscape:version="0.92.4 (5da689c313, 2019-01-14)">
  <metadata
     id="metadata204">
    <rdf:RDF>
      <cc:Work
         rdf:about="">
        <dc:format>image/svg+xml</dc:format>
        <dc:type
           rdf:resource="http://purl.org/dc/dcmitype/StillImage" />
      </cc:Work>
    </rdf:RDF>
  </metadata>
  <sodipodi:namedview
     pagecolor="#ffffff"
     bordercolor="#666666"
     borderopacity="1"
     objecttolerance="10"
     gridtolerance="10"
     guidetolerance="10"
     inkscape:pageopacity="0"
     inkscape:pageshadow="2"
     inkscape:window-width="1920"
     inkscape:window-height="1001"
     id="namedview202"
     showgrid="false"
     inkscape:zoom="1.6897916"
     inkscape:cx="287.83039"
     inkscape:cy="205.66225"
     inkscape:window-x="-9"
     inkscape:window-y="-9"
     inkscape:window-maximized="1"
     inkscape:current-layer="svg200" />
  <title
     id="title2">
/mnt/c/Users/eggne/Documents/01-18-19/C12_2261_pimi.svg
</title>
  <desc
     id="desc4">
Creator: ROOT Version 6.18/04
CreationDate: Thu Jan 16 12:56:40 2020</desc>
  <defs
     id="defs6" />
  <rect
     x="0.5"
     y="0"
     width="566.929"
     height="384.992"
     fill="white"
     id="rect8" />
  <rect
     x="57.1929"
     y="38.4992"
     width="453.543"
     height="307.994"
     fill="white"
     id="rect10" />
  <rect
     x="57.1929"
     y="38.4992"
     width="453.543"
     height="307.994"
     fill="none"
     stroke="black"
     id="rect12" />
  <rect
     x="57.1929"
     y="38.4992"
     width="453.543"
     height="307.994"
     id="rect14"
     fill="white" />
  <rect
     x="57.1929"
     y="38.4992"
     width="453.543"
     height="307.994"
     fill="none"
     stroke="black"
     id="rect16" />
  <path
     d="M57.1929,332.523h 90.7087v -0.00115609h 3.23959v -0.00481681h 3.23959v -0.0911237h 3.23959v -0.0792152h 3.23959v -0.0469476h 3.23959v -0.239743h 3.23959v -0.631725h 3.23959v -0.4873h 3.23959v -0.294661h 3.23959v -0.813568h 3.23959v  -0.881645h 3.23959v -0.505888h 3.23959v -1.34153h 3.23959v -1.54782h 3.23959v 1.28771h 3.23959v -2.30162h 3.23959v -0.562097h 3.23959v -1.20789h 3.23959v -0.234939h 3.23959v -1.99007h 3.23959v 0.231675h 3.23959v -0.940564h 3.23959v -1.25133h  3.23959v -0.0275877h 3.23959v -3.24907h 3.23959v 0.233631h 3.23959v -2.60246h 3.23959v 1.79383h 3.23959v -2.92364h 3.23959v -2.2153h 3.23959v -1.18615h 3.23959v -1.04453h 3.23959v -1.52887h 3.23959v -1.37509h 3.23959v -0.865921h 3.23959v -0.451323h  3.23959v -5.49499h 3.23959v -0.377836h 3.23959v -0.315169h 3.23959v -1.30581h 3.23959v -2.99549h 3.23959v 0.877897h 3.23959v -2.00379h 3.23959v 0.17864h 3.23959v -2.23203h 3.23959v 1.39848h 3.23959v -1.82881h 3.23959v -1.40167h 3.23959v -3.63409h  3.23959v -0.105903h 3.23959v -2.00372h 3.23959v -0.221406h 3.23959v -2.95376h 3.23959v -4.91747h 3.23959v -0.246845h 3.23959v -0.654742h 3.23959v -5.7747h 3.23959v -13.0904h 3.23959v -14.128h 3.23959v -32.416h 3.23959v -63.3104h 3.23959v -91.0206h  3.23959v 203.227h 3.23959v 70.6609h 3.23959v 4.07055h 3.23959v 0.867106h 3.23959v 0.246846h 3.23959v 0.10707h 3.23959v 0.0509037h 3.23959v 0.0277413h 3.23959v 0.00306932h 3.23959v -0.0277624h 3.23959v 0.0153241h 3.23959v 0.0980136h 3.23959v  -0.0204447h 3.23959v 0.00923458h 3.23959v 0.00302974h 3.23959v 0.0100705h 3.23959v 0.00300264h 3.23959v -0.00477795h 3.23959v -0.0148413h 3.23959v -0.0140491h 3.23959v 0.0315809h 3.23959v 0.00309863h 3.23959v -0.0215929h 3.23959v 0.0281765h 3.23959v  -0.0104694h 3.23959v 0.00853499h 3.23959v -0.00903013h 3.23959v 0.00978718h 3.23959v -0.00532734h 3.23959v -0.00440436h 3.23959v 0.00458552h 3.23959v -0.000756167h 3.23959v 0.0051453h 3.23959v -0.00426101h 3.23959v 0.00448513h 3.23959v -0.000224111h  3.23959v -0.0118829h 3.23959v 0.0118829h 3.23959v -0.0038837h 3.23959v 0.00135919h 3.23959v 0.000140302h 3.23959v 0.0023842h 3.23959v -0.00283075h 3.23959v 0.00283075h 16.198v -0.00971016h 3.23959v 0.00971016h 3.23959"
     fill="none"
     stroke="#000099"
     stroke-width="3"
     id="path18" />
  <path
     d="M57.1929,346.493h 453.543"
     fill="none"
     stroke="black"
     id="path20" />
  <path
     d="M57.1929,337.253v 9.23981"
     fill="none"
     stroke="black"
     id="path22" />
  <path
     d="M70.1513,341.873v 4.6199"
     fill="none"
     stroke="black"
     id="path24" />
  <path
     d="M83.1097,341.873v 4.6199"
     fill="none"
     stroke="black"
     id="path26" />
  <path
     d="M96.0681,341.873v 4.6199"
     fill="none"
     stroke="black"
     id="path28" />
  <path
     d="M109.026,341.873v 4.6199"
     fill="none"
     stroke="black"
     id="path30" />
  <path
     d="M121.985,337.253v 9.23981"
     fill="none"
     stroke="black"
     id="path32" />
  <path
     d="M134.943,341.873v 4.6199"
     fill="none"
     stroke="black"
     id="path34" />
  <path
     d="M147.902,341.873v 4.6199"
     fill="none"
     stroke="black"
     id="path36" />
  <path
     d="M160.86,341.873v 4.6199"
     fill="none"
     stroke="black"
     id="path38" />
  <path
     d="M173.818,341.873v 4.6199"
     fill="none"
     stroke="black"
     id="path40" />
  <path
     d="M186.777,337.253v 9.23981"
     fill="none"
     stroke="black"
     id="path42" />
  <path
     d="M199.735,341.873v 4.6199"
     fill="none"
     stroke="black"
     id="path44" />
  <path
     d="M212.693,341.873v 4.6199"
     fill="none"
     stroke="black"
     id="path46" />
  <path
     d="M225.652,341.873v 4.6199"
     fill="none"
     stroke="black"
     id="path48" />
  <path
     d="M238.61,341.873v 4.6199"
     fill="none"
     stroke="black"
     id="path50" />
  <path
     d="M251.569,337.253v 9.23981"
     fill="none"
     stroke="black"
     id="path52" />
  <path
     d="M264.527,341.873v 4.6199"
     fill="none"
     stroke="black"
     id="path54" />
  <path
     d="M277.485,341.873v 4.6199"
     fill="none"
     stroke="black"
     id="path56" />
  <path
     d="M290.444,341.873v 4.6199"
     fill="none"
     stroke="black"
     id="path58" />
  <path
     d="M303.402,341.873v 4.6199"
     fill="none"
     stroke="black"
     id="path60" />
  <path
     d="M316.361,337.253v 9.23981"
     fill="none"
     stroke="black"
     id="path62" />
  <path
     d="M329.319,341.873v 4.6199"
     fill="none"
     stroke="black"
     id="path64" />
  <path
     d="M342.277,341.873v 4.6199"
     fill="none"
     stroke="black"
     id="path66" />
  <path
     d="M355.236,341.873v 4.6199"
     fill="none"
     stroke="black"
     id="path68" />
  <path
     d="M368.194,341.873v 4.6199"
     fill="none"
     stroke="black"
     id="path70" />
  <path
     d="M381.152,337.253v 9.23981"
     fill="none"
     stroke="black"
     id="path72" />
  <path
     d="M394.111,341.873v 4.6199"
     fill="none"
     stroke="black"
     id="path74" />
  <path
     d="M407.069,341.873v 4.6199"
     fill="none"
     stroke="black"
     id="path76" />
  <path
     d="M420.028,341.873v 4.6199"
     fill="none"
     stroke="black"
     id="path78" />
  <path
     d="M432.986,341.873v 4.6199"
     fill="none"
     stroke="black"
     id="path80" />
  <path
     d="M445.944,337.253v 9.23981"
     fill="none"
     stroke="black"
     id="path82" />
  <path
     d="M458.903,341.873v 4.6199"
     fill="none"
     stroke="black"
     id="path84" />
  <path
     d="M471.861,341.873v 4.6199"
     fill="none"
     stroke="black"
     id="path86" />
  <path
     d="M484.819,341.873v 4.6199"
     fill="none"
     stroke="black"
     id="path88" />
  <path
     d="M497.778,341.873v 4.6199"
     fill="none"
     stroke="black"
     id="path90" />
  <path
     d="M510.736,337.253v 9.23981"
     fill="none"
     stroke="black"
     id="path92" />
  <text
     xml:space="preserve"
     x="51.6698"
     y="363.062"
     fill="black"
     font-size="18.1602"
     font-family="Helvetica"
     id="text94">0</text>
  <text
     xml:space="preserve"
     x="109.337"
     y="363.062"
     fill="black"
     font-size="18.1602"
     font-family="Helvetica"
     id="text96">0.5</text>
  <text
     xml:space="preserve"
     x="183.249"
     y="363.062"
     fill="black"
     font-size="18.1602"
     font-family="Helvetica"
     id="text98">1</text>
  <text
     xml:space="preserve"
     x="239.292"
     y="363.062"
     fill="black"
     font-size="18.1602"
     font-family="Helvetica"
     id="text100">1.5</text>
  <text
     xml:space="preserve"
     x="310.768"
     y="363.062"
     fill="black"
     font-size="18.1602"
     font-family="Helvetica"
     id="text102">2</text>
  <text
     xml:space="preserve"
     x="368.435"
     y="363.062"
     fill="black"
     font-size="18.1602"
     font-family="Helvetica"
     id="text104">2.5</text>
  <text
     xml:space="preserve"
     x="440.723"
     y="363.062"
     fill="black"
     font-size="18.1602"
     font-family="Helvetica"
     id="text106">3</text>
  <text
     xml:space="preserve"
     x="498.39"
     y="363.062"
     fill="black"
     font-size="18.1602"
     font-family="Helvetica"
     id="text108">3.5</text>
  <text
     xml:space="preserve"
     x="448.845"
     y="382.555"
     fill="black"
     font-size="18.1602"
     font-family="Helvetica"
     id="text110">E [GeV]</text>
  <path
     d="M57.1929,346.493v -307.994"
     fill="none"
     stroke="black"
     id="path112" />
  <path
     d="M70.7992,332.523h -13.6063"
     fill="none"
     stroke="black"
     id="path114" />
  <path
     d="M63.9961,322.672h -6.80315"
     fill="none"
     stroke="black"
     id="path116" />
  <path
     d="M63.9961,312.822h -6.80315"
     fill="none"
     stroke="black"
     id="path118" />
  <path
     d="M63.9961,302.971h -6.80315"
     fill="none"
     stroke="black"
     id="path120" />
  <path
     d="M63.9961,293.121h -6.80315"
     fill="none"
     stroke="black"
     id="path122" />
  <path
     d="M70.7992,283.27h -13.6063"
     fill="none"
     stroke="black"
     id="path124" />
  <path
     d="M63.9961,273.42h -6.80315"
     fill="none"
     stroke="black"
     id="path126" />
  <path
     d="M63.9961,263.569h -6.80315"
     fill="none"
     stroke="black"
     id="path128" />
  <path
     d="M63.9961,253.718h -6.80315"
     fill="none"
     stroke="black"
     id="path130" />
  <path
     d="M63.9961,243.868h -6.80315"
     fill="none"
     stroke="black"
     id="path132" />
  <path
     d="M70.7992,234.017h -13.6063"
     fill="none"
     stroke="black"
     id="path134" />
  <path
     d="M63.9961,224.167h -6.80315"
     fill="none"
     stroke="black"
     id="path136" />
  <path
     d="M63.9961,214.316h -6.80315"
     fill="none"
     stroke="black"
     id="path138" />
  <path
     d="M63.9961,204.466h -6.80315"
     fill="none"
     stroke="black"
     id="path140" />
  <path
     d="M63.9961,194.615h -6.80315"
     fill="none"
     stroke="black"
     id="path142" />
  <path
     d="M70.7992,184.764h -13.6063"
     fill="none"
     stroke="black"
     id="path144" />
  <path
     d="M63.9961,174.914h -6.80315"
     fill="none"
     stroke="black"
     id="path146" />
  <path
     d="M63.9961,165.063h -6.80315"
     fill="none"
     stroke="black"
     id="path148" />
  <path
     d="M63.9961,155.213h -6.80315"
     fill="none"
     stroke="black"
     id="path150" />
  <path
     d="M63.9961,145.362h -6.80315"
     fill="none"
     stroke="black"
     id="path152" />
  <path
     d="M70.7992,135.512h -13.6063"
     fill="none"
     stroke="black"
     id="path154" />
  <path
     d="M63.9961,125.661h -6.80315"
     fill="none"
     stroke="black"
     id="path156" />
  <path
     d="M63.9961,115.811h -6.80315"
     fill="none"
     stroke="black"
     id="path158" />
  <path
     d="M63.9961,105.96h -6.80315"
     fill="none"
     stroke="black"
     id="path160" />
  <path
     d="M63.9961,96.1094h -6.80315"
     fill="none"
     stroke="black"
     id="path162" />
  <path
     d="M70.7992,86.2588h -13.6063"
     fill="none"
     stroke="black"
     id="path164" />
  <path
     d="M70.7992,332.523h -13.6063"
     fill="none"
     stroke="black"
     id="path166" />
  <path
     d="M63.9961,342.373h -6.80315"
     fill="none"
     stroke="black"
     id="path168" />
  <path
     d="M70.7992,86.2588h -13.6063"
     fill="none"
     stroke="black"
     id="path170" />
  <path
     d="M63.9961,76.4082h -6.80315"
     fill="none"
     stroke="black"
     id="path172" />
  <path
     d="M63.9961,66.5577h -6.80315"
     fill="none"
     stroke="black"
     id="path174" />
  <path
     d="M63.9961,56.7071h -6.80315"
     fill="none"
     stroke="black"
     id="path176" />
  <path
     d="M63.9961,46.8566h -6.80315"
     fill="none"
     stroke="black"
     id="path178" />
  <text
     xml:space="preserve"
     x="44.3598"
     y="338.695"
     fill="black"
     font-size="18.1602"
     font-family="Helvetica"
     id="text180">0</text>
  <text
     xml:space="preserve"
     x="44.3598"
     y="289.15"
     fill="black"
     font-size="18.1602"
     font-family="Helvetica"
     id="text182">5</text>
  <text
     xml:space="preserve"
     x="34.6132"
     y="240.417"
     fill="black"
     font-size="18.1602"
     font-family="Helvetica"
     id="text184">10</text>
  <text
     xml:space="preserve"
     x="34.6132"
     y="190.872"
     fill="black"
     font-size="18.1602"
     font-family="Helvetica"
     id="text186">15</text>
  <text
     xml:space="preserve"
     x="34.6132"
     y="141.326"
     fill="black"
     font-size="18.1602"
     font-family="Helvetica"
     id="text188">20</text>
  <text
     xml:space="preserve"
     x="34.6132"
     y="92.593"
     fill="black"
     font-size="18.1602"
     font-family="Helvetica"
     id="text190">25</text>
  <text
     xml:space="preserve"
     x="85.783"
     y="27.6155"
     fill="black"
     font-size="12.2735"
     font-family="Helvetica"
     id="text192">6</text>
  <text
     xml:space="preserve"
     x="66.2898"
     y="36.5499"
     fill="black"
     font-size="18.1602"
     font-family="Helvetica"
     id="text194">10</text>
  <text
     xml:space="preserve"
     x="56.5431"
     y="36.5499"
     fill="black"
     font-size="18.1602"
     font-family="Times"
     id="text196">×</text>
  <path
     d="M57.1929,332.523h 129.584v -0.0115026h 3.23959v -1.30989h 3.23959v -2.02597h 3.23959v -2.4019h 3.23959v -3.05766h 3.23959v -3.80642h 3.23959v -2.33245h 3.23959v -1.13947h 3.23959v -2.57262h 3.23959v -3.83599h 3.23959v -3.04586h 3.23959v  1.31627h 3.23959v -0.540468h 3.23959v 0.403666h 3.23959v -1.93219h 3.23959v -2.98105h 3.23959v 1.5325h 3.23959v -1.34743h 3.23959v -0.357947h 3.23959v -0.39057h 3.23959v -2.23293h 3.23959v -1.42395h 3.23959v -1.82728h 3.23959v 0.671446h 3.23959v  -1.63588h 3.23959v 0.041131h 3.23959v -0.437173h 3.23959v -1.77384h 3.23959v -0.993198h 3.23959v -0.309236h 3.23959v 1.41952h 3.23959v -5.59868h 3.23959v 3.12941h 3.23959v -0.666287h 3.23959v -0.302008h 3.23959v 0.640117h 3.23959v -0.528116h  3.23959v 0.356842h 3.23959v -0.628195h 3.23959v -1.031h 3.23959v -1.93923h 3.23959v 2.00797h 3.23959v -0.907572h 3.23959v -0.919609h 3.23959v 1.30579h 3.23959v -1.75247h 3.23959v 1.2167h 3.23959v 0.686717h 3.23959v -1.20835h 3.23959v 0.599239h  3.23959v 1.32378h 3.23959v -0.488485h 3.23959v 3.79087h 3.23959v -1.19877h 3.23959v 2.08109h 3.23959v 2.27404h 3.23959v 3.69479h 3.23959v 0.545433h 3.23959v 3.7221h 3.23959v 3.06011h 3.23959v 3.31457h 3.23959v 2.95595h 3.23959v 0.700832h 3.23959v  3.73624h 3.23959v 1.93033h 3.23959v 1.08413h 3.23959v 1.81693h 3.23959v 0.323637h 3.23959v 0.89703h 3.23959v 2.5501h 3.23959v 0.083795h 3.23959v 0.854128h 3.23959v -0.0232587h 3.23959v 0.895782h 3.23959v -0.14414h 3.23959v 1.04745h 3.23959v  0.050353h 3.23959v 0.963326h 3.23959v -0.344751h 3.23959v 0.413357h 3.23959v -0.0498402h 3.23959v 0.982838h 3.23959v 0.187011h 3.23959v -0.267654h 3.23959v 0.158036h 3.23959v 0.361144h 3.23959v 0.0636529h 3.23959v -0.0854985h 3.23959v 0.220616h  3.23959v -0.050225h 3.23959v -0.120751h 3.23959v 0.244596h 3.23959v 0.0131634h 3.23959v -0.0799164h 3.23959v 0.0976h 3.23959v 0.217046h 3.23959v 0.0744936h 12.9584"
     fill="none"
     stroke="black"
     stroke-width="3"
     id="path198" />
  <text
     xml:space="preserve"
     style="font-style:normal;font-weight:normal;font-size:40px;line-height:1.25;font-family:sans-serif;letter-spacing:0px;word-spacing:0px;fill:#000000;fill-opacity:1;stroke:none"
     x="67.545769"
     y="88.332794"
     id="text242"><tspan
       sodipodi:role="line"
       x="67.545769"
       y="88.332794"
       id="tspan244"
       style="font-size:26.66666603px"><tspan
   style="font-size:64.99999762%;baseline-shift:super"
   id="tspan268">12</tspan>C @ 2.2 GeV:<tspan
   style="font-style:normal;font-variant:normal;font-weight:normal;font-stretch:normal;font-family:'Times New Roman';-inkscape-font-specification:'Times New Roman, '"
   id="tspan9554">π<tspan
   style="font-size:65%;baseline-shift:super"
   id="tspan228">-</tspan></tspan></tspan></text>
  <text
     xml:space="preserve"
     style="font-style:normal;font-weight:normal;font-size:40px;line-height:1.25;font-family:sans-serif;letter-spacing:0px;word-spacing:0px;fill:#000099;fill-opacity:1;stroke:none"
     x="180.29781"
     y="141.16003"
     id="text250"><tspan
       sodipodi:role="line"
       id="tspan248"
       x="180.29781"
       y="141.16003"
       style="font-size:26.66666603px;fill:#000099;fill-opacity:1">Calorimetric</tspan></text>
  <text
     xml:space="preserve"
     style="font-style:normal;font-weight:normal;font-size:26.66666603px;line-height:1.25;font-family:sans-serif;letter-spacing:0px;word-spacing:0px;fill:#000000;fill-opacity:1;stroke:none"
     x="368.3801"
     y="295.42026"
     id="text254"><tspan
       sodipodi:role="line"
       id="tspan252"
       x="368.3801"
       y="295.42026">Kinematic</tspan></text>
</svg>
