<?xml version="1.0" encoding="UTF-8" standalone="no"?>
<svg
   xmlns:dc="http://purl.org/dc/elements/1.1/"
   xmlns:cc="http://creativecommons.org/ns#"
   xmlns:rdf="http://www.w3.org/1999/02/22-rdf-syntax-ns#"
   xmlns:svg="http://www.w3.org/2000/svg"
   xmlns="http://www.w3.org/2000/svg"
   xmlns:sodipodi="http://sodipodi.sourceforge.net/DTD/sodipodi-0.dtd"
   xmlns:inkscape="http://www.inkscape.org/namespaces/inkscape"
   width="567.429"
   height="385.492"
   viewBox="0 0 567.429 385.492"
   shape-rendering="crispEdges"
   version="1.1"
   id="svg240"
   sodipodi:docname="C12_2261_pipl.svg"
   inkscape:export-filename="C:\Users\eggne\Documents\01-18-19\C12_2261_pipl.png"
   inkscape:export-xdpi="96"
   inkscape:export-ydpi="96"
   inkscape:version="0.92.4 (5da689c313, 2019-01-14)">
  <metadata
     id="metadata244">
    <rdf:RDF>
      <cc:Work
         rdf:about="">
        <dc:format>image/svg+xml</dc:format>
        <dc:type
           rdf:resource="http://purl.org/dc/dcmitype/StillImage" />
      </cc:Work>
    </rdf:RDF>
  </metadata>
  <sodipodi:namedview
     pagecolor="#ffffff"
     bordercolor="#666666"
     borderopacity="1"
     objecttolerance="10"
     gridtolerance="10"
     guidetolerance="10"
     inkscape:pageopacity="0"
     inkscape:pageshadow="2"
     inkscape:window-width="1920"
     inkscape:window-height="1001"
     id="namedview242"
     showgrid="false"
     inkscape:zoom="1.6897916"
     inkscape:cx="314.93095"
     inkscape:cy="188.59841"
     inkscape:window-x="-9"
     inkscape:window-y="-9"
     inkscape:window-maximized="1"
     inkscape:current-layer="svg240" />
  <title
     id="title2">
/mnt/c/Users/eggne/Documents/01-18-19/C12_2261_pipl.svg
</title>
  <desc
     id="desc4">
Creator: ROOT Version 6.18/04
CreationDate: Thu Jan 16 12:59:18 2020</desc>
  <defs
     id="defs6" />
  <rect
     x="0.5"
     y="0"
     width="566.929"
     height="384.992"
     fill="white"
     id="rect8" />
  <rect
     x="57.1929"
     y="38.4992"
     width="453.543"
     height="307.994"
     fill="white"
     id="rect10" />
  <rect
     x="57.1929"
     y="38.4992"
     width="453.543"
     height="307.994"
     fill="none"
     stroke="black"
     id="rect12" />
  <rect
     x="57.1929"
     y="38.4992"
     width="453.543"
     height="307.994"
     id="rect14"
     fill="white" />
  <rect
     x="57.1929"
     y="38.4992"
     width="453.543"
     height="307.994"
     fill="none"
     stroke="black"
     id="rect16" />
  <path
     d="M57.1929,332.183h 93.282v -0.00838554h 3.21662v -0.0616769h 3.21662v -0.299874h 3.21662v -0.661216h 3.21662v 1.37302h 3.21662v -4.25129h 3.21662v -3.64291h 3.21662v -1.35211h 3.21662v -4.16259h 3.21662v -7.93306h 3.21662v 1.09841h 3.21662v  -5.65392h 3.21662v -11.2087h 3.21662v -6.10378h 3.21662v -5.61879h 3.21662v -4.98251h 3.21662v -0.506788h 3.21662v -16.9081h 3.21662v -3.31929h 3.21662v -7.21419h 3.21662v -8.44511h 3.21662v -11.6785h 3.21662v -12.2564h 3.21662v -4.18556h 3.21662v  -9.27109h 3.21662v -13.2236h 3.21662v 2.21288h 3.21662v -13.4481h 3.21662v -13.0937h 3.21662v -11.8793h 3.21662v -8.3194h 3.21662v -12.4632h 3.21662v -1.40191h 3.21662v -12.0109h 3.21662v -7.78801h 3.21662v -6.24642h 3.21662v -6.38782h 3.21662v  -18.6044h 3.21662v 1.6616h 3.21662v -4.80671h 3.21662v 2.03566h 3.21662v -7.9796h 3.21662v -11.5315h 3.21662v -1.42842h 3.21662v -3.10686h 3.21662v 0.676475h 3.21662v 4.24417h 3.21662v -8.87386h 3.21662v 3.9951h 3.21662v 2.83323h 3.21662v 2.33376h  3.21662v -6.94346h 3.21662v 24.7864h 3.21662v 11.2747h 3.21662v 30.5371h 3.21662v 33.5514h 3.21662v 14.6046h 3.21662v 18.7753h 3.21662v 42.6212h 3.21662v 50.3253h 3.21662v 40.0884h 3.21662v 7.38992h 3.21662v 1.02986h 3.21662v 0.534644h 3.21662v  0.806519h 3.21662v -0.8384h 3.21662v -0.168385h 3.21662v 0.129853h 3.21662v 0.0620601h 3.21662v 0.159414h 3.21662v -0.440139h 3.21662v 0.249758h 3.21662v 0.167474h 3.21662v 0.0996376h 3.21662v 0.153652h 3.21662v -0.0497565h 3.21662v -0.254061h  3.21662v -0.0905634h 3.21662v 0.326012h 3.21662v 0.294702h 3.21662v 0.110625h 3.21662v -0.0309194h 3.21662v -0.430867h 3.21662v 0.366794h 3.21662v 0.064826h 3.21662v 0.151291h 3.21662v 0.193719h 3.21662v -0.143089h 3.21662v 0.248214h 3.21662v  -0.0899159h 3.21662v 0.176999h 3.21662v 0.0128451h 3.21662v -0.0339377h 3.21662v 0.0295739h 3.21662v -0.0443666h 3.21662v 0.0428839h 3.21662v 0.0241939h 3.21662v 0.0298467h 3.21662v -0.132769h 3.21662v 0.0605086h 3.21662v 0.017772h 3.21662v  -0.025134h 3.21662v 0.0903471h 3.21662v -0.0256666h 3.21662v -0.0704918h 3.21662v 0.0514498h 3.21662v -0.00417551h 3.21662v 0.0199603h 3.21662v -0.00859794h 3.21662v 0.0201449h 9.64986"
     fill="none"
     stroke="#000099"
     stroke-width="3"
     id="path18" />
  <path
     d="M57.1929,346.493h 453.543"
     fill="none"
     stroke="black"
     id="path20" />
  <path
     d="M57.1929,337.253v 9.23981"
     fill="none"
     stroke="black"
     id="path22" />
  <path
     d="M70.0594,341.873v 4.6199"
     fill="none"
     stroke="black"
     id="path24" />
  <path
     d="M82.9259,341.873v 4.6199"
     fill="none"
     stroke="black"
     id="path26" />
  <path
     d="M95.7923,341.873v 4.6199"
     fill="none"
     stroke="black"
     id="path28" />
  <path
     d="M108.659,341.873v 4.6199"
     fill="none"
     stroke="black"
     id="path30" />
  <path
     d="M121.525,337.253v 9.23981"
     fill="none"
     stroke="black"
     id="path32" />
  <path
     d="M134.392,341.873v 4.6199"
     fill="none"
     stroke="black"
     id="path34" />
  <path
     d="M147.258,341.873v 4.6199"
     fill="none"
     stroke="black"
     id="path36" />
  <path
     d="M160.125,341.873v 4.6199"
     fill="none"
     stroke="black"
     id="path38" />
  <path
     d="M172.991,341.873v 4.6199"
     fill="none"
     stroke="black"
     id="path40" />
  <path
     d="M185.858,337.253v 9.23981"
     fill="none"
     stroke="black"
     id="path42" />
  <path
     d="M198.724,341.873v 4.6199"
     fill="none"
     stroke="black"
     id="path44" />
  <path
     d="M211.591,341.873v 4.6199"
     fill="none"
     stroke="black"
     id="path46" />
  <path
     d="M224.457,341.873v 4.6199"
     fill="none"
     stroke="black"
     id="path48" />
  <path
     d="M237.324,341.873v 4.6199"
     fill="none"
     stroke="black"
     id="path50" />
  <path
     d="M250.19,337.253v 9.23981"
     fill="none"
     stroke="black"
     id="path52" />
  <path
     d="M263.057,341.873v 4.6199"
     fill="none"
     stroke="black"
     id="path54" />
  <path
     d="M275.923,341.873v 4.6199"
     fill="none"
     stroke="black"
     id="path56" />
  <path
     d="M288.789,341.873v 4.6199"
     fill="none"
     stroke="black"
     id="path58" />
  <path
     d="M301.656,341.873v 4.6199"
     fill="none"
     stroke="black"
     id="path60" />
  <path
     d="M314.522,337.253v 9.23981"
     fill="none"
     stroke="black"
     id="path62" />
  <path
     d="M327.389,341.873v 4.6199"
     fill="none"
     stroke="black"
     id="path64" />
  <path
     d="M340.255,341.873v 4.6199"
     fill="none"
     stroke="black"
     id="path66" />
  <path
     d="M353.122,341.873v 4.6199"
     fill="none"
     stroke="black"
     id="path68" />
  <path
     d="M365.988,341.873v 4.6199"
     fill="none"
     stroke="black"
     id="path70" />
  <path
     d="M378.855,337.253v 9.23981"
     fill="none"
     stroke="black"
     id="path72" />
  <path
     d="M391.721,341.873v 4.6199"
     fill="none"
     stroke="black"
     id="path74" />
  <path
     d="M404.588,341.873v 4.6199"
     fill="none"
     stroke="black"
     id="path76" />
  <path
     d="M417.454,341.873v 4.6199"
     fill="none"
     stroke="black"
     id="path78" />
  <path
     d="M430.321,341.873v 4.6199"
     fill="none"
     stroke="black"
     id="path80" />
  <path
     d="M443.187,337.253v 9.23981"
     fill="none"
     stroke="black"
     id="path82" />
  <path
     d="M456.054,341.873v 4.6199"
     fill="none"
     stroke="black"
     id="path84" />
  <path
     d="M468.92,341.873v 4.6199"
     fill="none"
     stroke="black"
     id="path86" />
  <path
     d="M481.787,341.873v 4.6199"
     fill="none"
     stroke="black"
     id="path88" />
  <path
     d="M494.653,341.873v 4.6199"
     fill="none"
     stroke="black"
     id="path90" />
  <path
     d="M507.52,337.253v 9.23981"
     fill="none"
     stroke="black"
     id="path92" />
  <path
     d="M507.52,337.253v 9.23981"
     fill="none"
     stroke="black"
     id="path94" />
  <text
     xml:space="preserve"
     x="51.6698"
     y="363.062"
     fill="black"
     font-size="18.1602"
     font-family="Helvetica"
     id="text96">0</text>
  <text
     xml:space="preserve"
     x="109.337"
     y="363.062"
     fill="black"
     font-size="18.1602"
     font-family="Helvetica"
     id="text98">0.5</text>
  <text
     xml:space="preserve"
     x="182.437"
     y="363.062"
     fill="black"
     font-size="18.1602"
     font-family="Helvetica"
     id="text100">1</text>
  <text
     xml:space="preserve"
     x="237.668"
     y="363.062"
     fill="black"
     font-size="18.1602"
     font-family="Helvetica"
     id="text102">1.5</text>
  <text
     xml:space="preserve"
     x="309.143"
     y="363.062"
     fill="black"
     font-size="18.1602"
     font-family="Helvetica"
     id="text104">2</text>
  <text
     xml:space="preserve"
     x="365.999"
     y="363.062"
     fill="black"
     font-size="18.1602"
     font-family="Helvetica"
     id="text106">2.5</text>
  <text
     xml:space="preserve"
     x="438.286"
     y="363.062"
     fill="black"
     font-size="18.1602"
     font-family="Helvetica"
     id="text108">3</text>
  <text
     xml:space="preserve"
     x="495.142"
     y="363.062"
     fill="black"
     font-size="18.1602"
     font-family="Helvetica"
     id="text110">3.5</text>
  <text
     xml:space="preserve"
     x="448.845"
     y="382.555"
     fill="black"
     font-size="18.1602"
     font-family="Helvetica"
     id="text112">E [GeV]</text>
  <path
     d="M57.1929,346.493v -307.994"
     fill="none"
     stroke="black"
     id="path114" />
  <path
     d="M70.7992,332.183h -13.6063"
     fill="none"
     stroke="black"
     id="path116" />
  <path
     d="M63.9961,325.637h -6.80315"
     fill="none"
     stroke="black"
     id="path118" />
  <path
     d="M63.9961,319.092h -6.80315"
     fill="none"
     stroke="black"
     id="path120" />
  <path
     d="M63.9961,312.547h -6.80315"
     fill="none"
     stroke="black"
     id="path122" />
  <path
     d="M63.9961,306.001h -6.80315"
     fill="none"
     stroke="black"
     id="path124" />
  <path
     d="M70.7992,299.456h -13.6063"
     fill="none"
     stroke="black"
     id="path126" />
  <path
     d="M63.9961,292.91h -6.80315"
     fill="none"
     stroke="black"
     id="path128" />
  <path
     d="M63.9961,286.365h -6.80315"
     fill="none"
     stroke="black"
     id="path130" />
  <path
     d="M63.9961,279.819h -6.80315"
     fill="none"
     stroke="black"
     id="path132" />
  <path
     d="M63.9961,273.274h -6.80315"
     fill="none"
     stroke="black"
     id="path134" />
  <path
     d="M70.7992,266.728h -13.6063"
     fill="none"
     stroke="black"
     id="path136" />
  <path
     d="M63.9961,260.183h -6.80315"
     fill="none"
     stroke="black"
     id="path138" />
  <path
     d="M63.9961,253.637h -6.80315"
     fill="none"
     stroke="black"
     id="path140" />
  <path
     d="M63.9961,247.092h -6.80315"
     fill="none"
     stroke="black"
     id="path142" />
  <path
     d="M63.9961,240.546h -6.80315"
     fill="none"
     stroke="black"
     id="path144" />
  <path
     d="M70.7992,234.001h -13.6063"
     fill="none"
     stroke="black"
     id="path146" />
  <path
     d="M63.9961,227.455h -6.80315"
     fill="none"
     stroke="black"
     id="path148" />
  <path
     d="M63.9961,220.91h -6.80315"
     fill="none"
     stroke="black"
     id="path150" />
  <path
     d="M63.9961,214.364h -6.80315"
     fill="none"
     stroke="black"
     id="path152" />
  <path
     d="M63.9961,207.819h -6.80315"
     fill="none"
     stroke="black"
     id="path154" />
  <path
     d="M70.7992,201.273h -13.6063"
     fill="none"
     stroke="black"
     id="path156" />
  <path
     d="M63.9961,194.728h -6.80315"
     fill="none"
     stroke="black"
     id="path158" />
  <path
     d="M63.9961,188.182h -6.80315"
     fill="none"
     stroke="black"
     id="path160" />
  <path
     d="M63.9961,181.637h -6.80315"
     fill="none"
     stroke="black"
     id="path162" />
  <path
     d="M63.9961,175.091h -6.80315"
     fill="none"
     stroke="black"
     id="path164" />
  <path
     d="M70.7992,168.546h -13.6063"
     fill="none"
     stroke="black"
     id="path166" />
  <path
     d="M63.9961,162h -6.80315"
     fill="none"
     stroke="black"
     id="path168" />
  <path
     d="M63.9961,155.455h -6.80315"
     fill="none"
     stroke="black"
     id="path170" />
  <path
     d="M63.9961,148.909h -6.80315"
     fill="none"
     stroke="black"
     id="path172" />
  <path
     d="M63.9961,142.364h -6.80315"
     fill="none"
     stroke="black"
     id="path174" />
  <path
     d="M70.7992,135.819h -13.6063"
     fill="none"
     stroke="black"
     id="path176" />
  <path
     d="M63.9961,129.273h -6.80315"
     fill="none"
     stroke="black"
     id="path178" />
  <path
     d="M63.9961,122.728h -6.80315"
     fill="none"
     stroke="black"
     id="path180" />
  <path
     d="M63.9961,116.182h -6.80315"
     fill="none"
     stroke="black"
     id="path182" />
  <path
     d="M63.9961,109.637h -6.80315"
     fill="none"
     stroke="black"
     id="path184" />
  <path
     d="M70.7992,103.091h -13.6063"
     fill="none"
     stroke="black"
     id="path186" />
  <path
     d="M63.9961,96.5456h -6.80315"
     fill="none"
     stroke="black"
     id="path188" />
  <path
     d="M63.9961,90.0002h -6.80315"
     fill="none"
     stroke="black"
     id="path190" />
  <path
     d="M63.9961,83.4547h -6.80315"
     fill="none"
     stroke="black"
     id="path192" />
  <path
     d="M63.9961,76.9092h -6.80315"
     fill="none"
     stroke="black"
     id="path194" />
  <path
     d="M70.7992,70.3637h -13.6063"
     fill="none"
     stroke="black"
     id="path196" />
  <path
     d="M70.7992,332.183h -13.6063"
     fill="none"
     stroke="black"
     id="path198" />
  <path
     d="M63.9961,338.728h -6.80315"
     fill="none"
     stroke="black"
     id="path200" />
  <path
     d="M63.9961,345.274h -6.80315"
     fill="none"
     stroke="black"
     id="path202" />
  <path
     d="M70.7992,70.3637h -13.6063"
     fill="none"
     stroke="black"
     id="path204" />
  <path
     d="M63.9961,63.8182h -6.80315"
     fill="none"
     stroke="black"
     id="path206" />
  <path
     d="M63.9961,57.2728h -6.80315"
     fill="none"
     stroke="black"
     id="path208" />
  <path
     d="M63.9961,50.7273h -6.80315"
     fill="none"
     stroke="black"
     id="path210" />
  <path
     d="M63.9961,44.1818h -6.80315"
     fill="none"
     stroke="black"
     id="path212" />
  <text
     xml:space="preserve"
     x="44.3598"
     y="337.883"
     fill="black"
     font-size="18.1602"
     font-family="Helvetica"
     id="text214">0</text>
  <text
     xml:space="preserve"
     x="15.1199"
     y="305.395"
     fill="black"
     font-size="18.1602"
     font-family="Helvetica"
     id="text216">1000</text>
  <text
     xml:space="preserve"
     x="15.1199"
     y="272.906"
     fill="black"
     font-size="18.1602"
     font-family="Helvetica"
     id="text218">2000</text>
  <text
     xml:space="preserve"
     x="15.1199"
     y="240.417"
     fill="black"
     font-size="18.1602"
     font-family="Helvetica"
     id="text220">3000</text>
  <text
     xml:space="preserve"
     x="15.1199"
     y="207.116"
     fill="black"
     font-size="18.1602"
     font-family="Helvetica"
     id="text222">4000</text>
  <text
     xml:space="preserve"
     x="15.1199"
     y="174.627"
     fill="black"
     font-size="18.1602"
     font-family="Helvetica"
     id="text224">5000</text>
  <text
     xml:space="preserve"
     x="15.1199"
     y="142.138"
     fill="black"
     font-size="18.1602"
     font-family="Helvetica"
     id="text226">6000</text>
  <text
     xml:space="preserve"
     x="15.1199"
     y="108.837"
     fill="black"
     font-size="18.1602"
     font-family="Helvetica"
     id="text228">7000</text>
  <text
     xml:space="preserve"
     x="15.1199"
     y="76.3486"
     fill="black"
     font-size="18.1602"
     font-family="Helvetica"
     id="text230">8000</text>
  <text
     xml:space="preserve"
     x="85.783"
     y="27.6155"
     fill="black"
     font-size="12.2735"
     font-family="Helvetica"
     id="text232">3</text>
  <text
     xml:space="preserve"
     x="66.2898"
     y="36.5499"
     fill="black"
     font-size="18.1602"
     font-family="Helvetica"
     id="text234">10</text>
  <text
     xml:space="preserve"
     x="56.5431"
     y="36.5499"
     fill="black"
     font-size="18.1602"
     font-family="Times"
     id="text236">×</text>
  <path
     d="M57.1929,332.183h 128.665v -0.732049h 3.21662v -7.49961h 3.21662v -14.6743h 3.21662v -17.2228h 3.21662v -22.9125h 3.21662v -19.138h 3.21662v -17.4273h 3.21662v -24.0061h 3.21662v -8.63658h 3.21662v -11.0922h 3.21662v -19.7508h 3.21662v  3.50589h 3.21662v 0.376218h 3.21662v -5.89268h 3.21662v 1.29391h 3.21662v -9.57263h 3.21662v 2.76776h 3.21662v -7.67034h 3.21662v -2.01697h 3.21662v -1.94615h 3.21662v 0.466709h 3.21662v 2.64896h 3.21662v -5.72381h 3.21662v 1.66126h 3.21662v  -7.80827h 3.21662v -1.98086h 3.21662v 2.74545h 3.21662v -8.83867h 3.21662v 5.45427h 3.21662v 0.79994h 3.21662v 13.6372h 3.21662v -13.5202h 3.21662v 18.5484h 3.21662v -1.86636h 3.21662v -4.16916h 3.21662v 12.8195h 3.21662v -3.13231h 3.21662v 1.5286h  3.21662v 12.4314h 3.21662v -0.337321h 3.21662v 3.48387h 3.21662v 8.04957h 3.21662v 0.651243h 3.21662v 6.85983h 3.21662v 3.11319h 3.21662v 8.89704h 3.21662v 1.80206h 3.21662v 9.22042h 3.21662v 4.89223h 3.21662v 4.24604h 3.21662v 0.273977h 3.21662v  5.81568h 3.21662v 8.2898h 3.21662v 3.08188h 3.21662v 6.56903h 3.21662v 4.58359h 3.21662v 0.618131h 3.21662v 9.88334h 3.21662v 2.07754h 3.21662v 6.40752h 3.21662v 1.2094h 3.21662v 5.90754h 3.21662v 7.73733h 3.21662v 1.58824h 3.21662v -0.436768h  3.21662v 6.98525h 3.21662v 0.958042h 3.21662v 4.19238h 3.21662v 4.58169h 3.21662v -0.212589h 3.21662v 3.85472h 3.21662v 3.64966h 3.21662v 0.80355h 3.21662v -0.787444h 3.21662v 4.9398h 3.21662v 0.0657565h 3.21662v 1.95723h 3.21662v -0.570438h  3.21662v 2.68375h 3.21662v 0.363204h 3.21662v 1.78712h 3.21662v -0.340956h 3.21662v 2.36839h 3.21662v -0.0196569h 3.21662v 1.45754h 3.21662v -0.274323h 3.21662v 0.228904h 3.21662v 0.884757h 3.21662v 0.541261h 3.21662v 0.680422h 3.21662v -0.0412323h  3.21662v 0.0388143h 3.21662v 0.10936h 3.21662v 0.373367h 3.21662v 0.216944h 3.21662v 0.478639h 3.21662v -0.464361h 3.21662v 0.571222h 12.8665"
     fill="none"
     stroke="black"
     stroke-width="3"
     id="path238" />
  <text
     xml:space="preserve"
     style="font-style:normal;font-weight:normal;font-size:40px;line-height:1.25;font-family:sans-serif;letter-spacing:0px;word-spacing:0px;fill:#000000;fill-opacity:1;stroke:none"
     x="61.731655"
     y="65.081566"
     id="text242"><tspan
       sodipodi:role="line"
       x="61.731655"
       y="65.081566"
       id="tspan244"
       style="font-size:26.66666603px"><tspan
   style="font-size:64.99999762%;baseline-shift:super"
   id="tspan268">12</tspan>C @ 2.2 GeV:<tspan
   style="font-style:normal;font-variant:normal;font-weight:normal;font-stretch:normal;font-family:'Times New Roman';-inkscape-font-specification:'Times New Roman, '"
   id="tspan9554">π</tspan><tspan
   style="font-size:64.99999762%;baseline-shift:super"
   id="tspan9550">+</tspan></tspan></text>
  <text
     xml:space="preserve"
     style="font-style:normal;font-weight:normal;font-size:40px;line-height:1.25;font-family:sans-serif;letter-spacing:0px;word-spacing:0px;fill:#000099;fill-opacity:1;stroke:none"
     x="333.08316"
     y="133.8871"
     id="text250"><tspan
       sodipodi:role="line"
       id="tspan248"
       x="333.08316"
       y="133.8871"
       style="font-size:26.66666603px;fill:#000099;fill-opacity:1">Calorimetric</tspan></text>
  <text
     xml:space="preserve"
     style="font-style:normal;font-weight:normal;font-size:26.66666603px;line-height:1.25;font-family:sans-serif;letter-spacing:0px;word-spacing:0px;fill:#000000;fill-opacity:1;stroke:none"
     x="368.48389"
     y="257.37427"
     id="text254"><tspan
       sodipodi:role="line"
       id="tspan252"
       x="368.48389"
       y="257.37427">Kinematic</tspan></text>
</svg>
