<?xml version="1.0" standalone="no"?>
<svg width="567.429" height="385.492" viewBox="0 0 567.429 385.492" xmlns="http://www.w3.org/2000/svg" shape-rendering="crispEdges">
<title>
/mnt/c/Users/eggne/Documents/01-18-19/C12_2261_kin_e_pipl.svg
</title>
<desc>
Creator: ROOT Version 6.18/04
CreationDate: Thu Jan 16 12:33:14 2020</desc>
<defs>
</defs>
<rect x="0.5" y="0" width="566.929" height="384.992" fill="white"/>
<rect x="57.1929" y="38.4992" width="453.543" height="307.994" fill="white"/>
<rect x="57.1929" y="38.4992" width="453.543" height="307.994" fill="none" stroke="black"/>
<rect x="57.1929" y="38.4992" width="453.543" height="307.994" fill="white"/>
<rect x="57.1929" y="38.4992" width="453.543" height="307.994" fill="none" stroke="black"/>
<path d="M57.1929,346.493h 128.665v -1.07863h 3.21662v -11.0502h 3.21662v -21.6217h 3.21662v -25.3767h 3.21662v -33.7602h 3.21662v -28.1987h 3.21662v -25.6781h 3.21662v -35.3716h 3.21662v -12.7255h 3.21662v -16.3436h 3.21662v -29.1016h 3.21662v
 5.16572h 3.21662v 0.554335h 3.21662v -8.68252h 3.21662v 1.9065h 3.21662v -14.1047h 3.21662v 4.07812h 3.21662v -11.3018h 3.21662v -2.97189h 3.21662v -2.86754h 3.21662v 0.687668h 3.21662v 3.90308h 3.21662v -8.43369h 3.21662v 2.44777h 3.21662v -11.505h
 3.21662v -2.91868h 3.21662v 4.04526h 3.21662v -13.0233h 3.21662v 8.03654h 3.21662v 1.17866h 3.21662v 20.0937h 3.21662v -19.9212h 3.21662v 27.3299h 3.21662v -2.74997h 3.21662v -6.14301h 3.21662v 18.8887h 3.21662v -4.61527h 3.21662v 2.2523h 3.21662v
 18.3169h 3.21662v -0.497023h 3.21662v 5.13327h 3.21662v 11.8606h 3.21662v 0.959567h 3.21662v 10.1075h 3.21662v 4.58709h 3.21662v 13.1093h 3.21662v 2.65523h 3.21662v 13.5857h 3.21662v 7.20841h 3.21662v 6.25628h 3.21662v 0.40369h 3.21662v 8.56907h
 3.21662v 12.2145h 3.21662v 4.54097h 3.21662v 9.67907h 3.21662v 6.75364h 3.21662v 0.910779h 3.21662v 14.5625h 3.21662v 3.06114h 3.21662v 9.4411h 3.21662v 1.78198h 3.21662v 8.70441h 3.21662v 11.4005h 3.21662v 2.34018h 3.21662v -0.643551h 3.21662v
 10.2924h 3.21662v 1.41162h 3.21662v 6.17723h 3.21662v 6.75084h 3.21662v -0.313237h 3.21662v 5.67969h 3.21662v 5.37756h 3.21662v 1.18398h 3.21662v -1.16025h 3.21662v 7.27849h 3.21662v 0.0968883h 3.21662v 2.88386h 3.21662v -0.840506h 3.21662v 3.95434h
 3.21662v 0.535159h 3.21662v 2.63321h 3.21662v -0.502379h 3.21662v 3.48969h 3.21662v -0.0289633h 3.21662v 2.1476h 3.21662v -0.404198h 3.21662v 0.337276h 3.21662v 1.30364h 3.21662v 0.797515h 3.21662v 1.00256h 3.21662v -0.0607534h 3.21662v 0.0571906h
 3.21662v 0.161135h 3.21662v 0.550134h 3.21662v 0.319654h 3.21662v 0.705246h 3.21662v -0.684208h 3.21662v 0.841662h 12.8665" fill="none" stroke="#000099" stroke-width="3"/>
<path d="M57.1929,346.493h 453.543" fill="none" stroke="black"/>
<path d="M57.1929,337.253v 9.23981" fill="none" stroke="black"/>
<path d="M70.0594,341.873v 4.6199" fill="none" stroke="black"/>
<path d="M82.9259,341.873v 4.6199" fill="none" stroke="black"/>
<path d="M95.7923,341.873v 4.6199" fill="none" stroke="black"/>
<path d="M108.659,341.873v 4.6199" fill="none" stroke="black"/>
<path d="M121.525,337.253v 9.23981" fill="none" stroke="black"/>
<path d="M134.392,341.873v 4.6199" fill="none" stroke="black"/>
<path d="M147.258,341.873v 4.6199" fill="none" stroke="black"/>
<path d="M160.125,341.873v 4.6199" fill="none" stroke="black"/>
<path d="M172.991,341.873v 4.6199" fill="none" stroke="black"/>
<path d="M185.858,337.253v 9.23981" fill="none" stroke="black"/>
<path d="M198.724,341.873v 4.6199" fill="none" stroke="black"/>
<path d="M211.591,341.873v 4.6199" fill="none" stroke="black"/>
<path d="M224.457,341.873v 4.6199" fill="none" stroke="black"/>
<path d="M237.324,341.873v 4.6199" fill="none" stroke="black"/>
<path d="M250.19,337.253v 9.23981" fill="none" stroke="black"/>
<path d="M263.057,341.873v 4.6199" fill="none" stroke="black"/>
<path d="M275.923,341.873v 4.6199" fill="none" stroke="black"/>
<path d="M288.789,341.873v 4.6199" fill="none" stroke="black"/>
<path d="M301.656,341.873v 4.6199" fill="none" stroke="black"/>
<path d="M314.522,337.253v 9.23981" fill="none" stroke="black"/>
<path d="M327.389,341.873v 4.6199" fill="none" stroke="black"/>
<path d="M340.255,341.873v 4.6199" fill="none" stroke="black"/>
<path d="M353.122,341.873v 4.6199" fill="none" stroke="black"/>
<path d="M365.988,341.873v 4.6199" fill="none" stroke="black"/>
<path d="M378.855,337.253v 9.23981" fill="none" stroke="black"/>
<path d="M391.721,341.873v 4.6199" fill="none" stroke="black"/>
<path d="M404.588,341.873v 4.6199" fill="none" stroke="black"/>
<path d="M417.454,341.873v 4.6199" fill="none" stroke="black"/>
<path d="M430.321,341.873v 4.6199" fill="none" stroke="black"/>
<path d="M443.187,337.253v 9.23981" fill="none" stroke="black"/>
<path d="M456.054,341.873v 4.6199" fill="none" stroke="black"/>
<path d="M468.92,341.873v 4.6199" fill="none" stroke="black"/>
<path d="M481.787,341.873v 4.6199" fill="none" stroke="black"/>
<path d="M494.653,341.873v 4.6199" fill="none" stroke="black"/>
<path d="M507.52,337.253v 9.23981" fill="none" stroke="black"/>
<path d="M507.52,337.253v 9.23981" fill="none" stroke="black"/>
<text xml:space="preserve" x="51.6698" y="363.062" fill="black" font-size="18.1602" font-family="Helvetica">0</text>
<text xml:space="preserve" x="109.337" y="363.062" fill="black" font-size="18.1602" font-family="Helvetica">0.5</text>
<text xml:space="preserve" x="182.437" y="363.062" fill="black" font-size="18.1602" font-family="Helvetica">1</text>
<text xml:space="preserve" x="237.668" y="363.062" fill="black" font-size="18.1602" font-family="Helvetica">1.5</text>
<text xml:space="preserve" x="309.143" y="363.062" fill="black" font-size="18.1602" font-family="Helvetica">2</text>
<text xml:space="preserve" x="365.999" y="363.062" fill="black" font-size="18.1602" font-family="Helvetica">2.5</text>
<text xml:space="preserve" x="438.286" y="363.062" fill="black" font-size="18.1602" font-family="Helvetica">3</text>
<text xml:space="preserve" x="495.142" y="363.062" fill="black" font-size="18.1602" font-family="Helvetica">3.5</text>
<text xml:space="preserve" x="461.028" y="381.743" fill="black" font-size="18.1602" font-family="Helvetica"> [GeV]</text>
<text xml:space="preserve" x="445.596" y="386.616" fill="black" font-size="12.2735" font-family="Helvetica">kin</text>
<text xml:space="preserve" x="434.225" y="381.743" fill="black" font-size="18.1602" font-family="Helvetica">E</text>
<path d="M57.1929,346.493v -307.994" fill="none" stroke="black"/>
<path d="M70.7992,346.493h -13.6063" fill="none" stroke="black"/>
<path d="M63.9961,336.848h -6.80315" fill="none" stroke="black"/>
<path d="M63.9961,327.204h -6.80315" fill="none" stroke="black"/>
<path d="M63.9961,317.56h -6.80315" fill="none" stroke="black"/>
<path d="M63.9961,307.915h -6.80315" fill="none" stroke="black"/>
<path d="M70.7992,298.271h -13.6063" fill="none" stroke="black"/>
<path d="M63.9961,288.627h -6.80315" fill="none" stroke="black"/>
<path d="M63.9961,278.982h -6.80315" fill="none" stroke="black"/>
<path d="M63.9961,269.338h -6.80315" fill="none" stroke="black"/>
<path d="M63.9961,259.693h -6.80315" fill="none" stroke="black"/>
<path d="M70.7992,250.049h -13.6063" fill="none" stroke="black"/>
<path d="M63.9961,240.405h -6.80315" fill="none" stroke="black"/>
<path d="M63.9961,230.76h -6.80315" fill="none" stroke="black"/>
<path d="M63.9961,221.116h -6.80315" fill="none" stroke="black"/>
<path d="M63.9961,211.472h -6.80315" fill="none" stroke="black"/>
<path d="M70.7992,201.827h -13.6063" fill="none" stroke="black"/>
<path d="M63.9961,192.183h -6.80315" fill="none" stroke="black"/>
<path d="M63.9961,182.538h -6.80315" fill="none" stroke="black"/>
<path d="M63.9961,172.894h -6.80315" fill="none" stroke="black"/>
<path d="M63.9961,163.25h -6.80315" fill="none" stroke="black"/>
<path d="M70.7992,153.605h -13.6063" fill="none" stroke="black"/>
<path d="M63.9961,143.961h -6.80315" fill="none" stroke="black"/>
<path d="M63.9961,134.316h -6.80315" fill="none" stroke="black"/>
<path d="M63.9961,124.672h -6.80315" fill="none" stroke="black"/>
<path d="M63.9961,115.028h -6.80315" fill="none" stroke="black"/>
<path d="M70.7992,105.383h -13.6063" fill="none" stroke="black"/>
<path d="M63.9961,95.739h -6.80315" fill="none" stroke="black"/>
<path d="M63.9961,86.0946h -6.80315" fill="none" stroke="black"/>
<path d="M63.9961,76.4502h -6.80315" fill="none" stroke="black"/>
<path d="M63.9961,66.8058h -6.80315" fill="none" stroke="black"/>
<path d="M70.7992,57.1615h -13.6063" fill="none" stroke="black"/>
<path d="M70.7992,57.1615h -13.6063" fill="none" stroke="black"/>
<path d="M63.9961,47.5171h -6.80315" fill="none" stroke="black"/>
<text xml:space="preserve" x="44.3598" y="352.503" fill="black" font-size="18.1602" font-family="Helvetica">0</text>
<text xml:space="preserve" x="15.1199" y="304.582" fill="black" font-size="18.1602" font-family="Helvetica">1000</text>
<text xml:space="preserve" x="15.1199" y="255.849" fill="black" font-size="18.1602" font-family="Helvetica">2000</text>
<text xml:space="preserve" x="15.1199" y="207.928" fill="black" font-size="18.1602" font-family="Helvetica">3000</text>
<text xml:space="preserve" x="15.1199" y="160.007" fill="black" font-size="18.1602" font-family="Helvetica">4000</text>
<text xml:space="preserve" x="15.1199" y="111.274" fill="black" font-size="18.1602" font-family="Helvetica">5000</text>
<text xml:space="preserve" x="15.1199" y="63.3531" fill="black" font-size="18.1602" font-family="Helvetica">6000</text>
<text xml:space="preserve" x="85.783" y="27.6155" fill="black" font-size="12.2735" font-family="Helvetica">3</text>
<text xml:space="preserve" x="66.2898" y="36.5499" fill="black" font-size="18.1602" font-family="Helvetica">10</text>
<text xml:space="preserve" x="56.5431" y="36.5499" fill="black" font-size="18.1602" font-family="Times">&#0215;</text></svg>
