<?xml version="1.0" standalone="no"?>
<svg width="567.429" height="345.675" viewBox="0 0 567.429 345.675" xmlns="http://www.w3.org/2000/svg" shape-rendering="crispEdges">
<title>
C12_2261_slice1.svg
</title>
<desc>
Creator: ROOT Version 6.18/04
CreationDate: Tue Mar  3 09:23:33 2020</desc>
<defs>
</defs>
<rect x="0.5" y="0" width="566.929" height="345.175" fill="white"/>
<rect x="57.1929" y="34.5175" width="453.543" height="276.14" fill="white"/>
<rect x="57.1929" y="34.5175" width="453.543" height="276.14" fill="none" stroke="black"/>
<path d="M57.1929,310.657h 121.244v -0.152987h 13.4716v -0.857533h 13.4716v -1.22605h 13.4716v -1.40294h 13.4716v -1.6902h 13.4716v -1.2745h 13.4716v -1.10069h 13.4716v -1.51809h 13.4716v -2.50118h 13.4716v -1.60849h 13.4716v -1.99675h 13.4716v
 -2.93171h 13.4716v -1.91379h 13.4716v -2.96636h 13.4716v -3.46239h 4.49053v -3.01671h 4.49053v -12.6543h 4.49053v -23.3941h 4.49053v -67.6804h 4.49053v -129.641h 4.49053v 194.291h 4.49053v 65.7001h 4.49053v 2.40207h 4.49053v 0.529231h 4.49053v
 -0.125434h 4.49053v 0.192724h 4.49053v -0.24056h 4.49053v 0.24056h 44.9053v -0.0257014h 4.49053v 0.0257014h 39.7495" fill="none" stroke="#000099" stroke-width="3"/>
<path d="M57.1929,310.657h 453.543" fill="none" stroke="black"/>
<path d="M57.1929,302.373v 8.28419" fill="none" stroke="black"/>
<path d="M72.1613,306.515v 4.14209" fill="none" stroke="black"/>
<path d="M87.1298,306.515v 4.14209" fill="none" stroke="black"/>
<path d="M102.098,306.515v 4.14209" fill="none" stroke="black"/>
<path d="M117.067,306.515v 4.14209" fill="none" stroke="black"/>
<path d="M132.035,302.373v 8.28419" fill="none" stroke="black"/>
<path d="M147.003,306.515v 4.14209" fill="none" stroke="black"/>
<path d="M161.972,306.515v 4.14209" fill="none" stroke="black"/>
<path d="M176.94,306.515v 4.14209" fill="none" stroke="black"/>
<path d="M191.909,306.515v 4.14209" fill="none" stroke="black"/>
<path d="M206.877,302.373v 8.28419" fill="none" stroke="black"/>
<path d="M221.846,306.515v 4.14209" fill="none" stroke="black"/>
<path d="M236.814,306.515v 4.14209" fill="none" stroke="black"/>
<path d="M251.782,306.515v 4.14209" fill="none" stroke="black"/>
<path d="M266.751,306.515v 4.14209" fill="none" stroke="black"/>
<path d="M281.719,302.373v 8.28419" fill="none" stroke="black"/>
<path d="M296.688,306.515v 4.14209" fill="none" stroke="black"/>
<path d="M311.656,306.515v 4.14209" fill="none" stroke="black"/>
<path d="M326.625,306.515v 4.14209" fill="none" stroke="black"/>
<path d="M341.593,306.515v 4.14209" fill="none" stroke="black"/>
<path d="M356.561,302.373v 8.28419" fill="none" stroke="black"/>
<path d="M371.53,306.515v 4.14209" fill="none" stroke="black"/>
<path d="M386.498,306.515v 4.14209" fill="none" stroke="black"/>
<path d="M401.467,306.515v 4.14209" fill="none" stroke="black"/>
<path d="M416.435,306.515v 4.14209" fill="none" stroke="black"/>
<path d="M431.404,302.373v 8.28419" fill="none" stroke="black"/>
<path d="M446.372,306.515v 4.14209" fill="none" stroke="black"/>
<path d="M461.34,306.515v 4.14209" fill="none" stroke="black"/>
<path d="M476.309,306.515v 4.14209" fill="none" stroke="black"/>
<path d="M491.277,306.515v 4.14209" fill="none" stroke="black"/>
<path d="M506.246,302.373v 8.28419" fill="none" stroke="black"/>
<path d="M506.246,302.373v 8.28419" fill="none" stroke="black"/>
<text xml:space="preserve" x="51.6741" y="326.11" fill="black" font-size="16.3337" font-family="Helvetica">0</text>
<text xml:space="preserve" x="120.91" y="326.11" fill="black" font-size="16.3337" font-family="Helvetica">0.5</text>
<text xml:space="preserve" x="203.19" y="326.11" fill="black" font-size="16.3337" font-family="Helvetica">1</text>
<text xml:space="preserve" x="270.418" y="326.11" fill="black" font-size="16.3337" font-family="Helvetica">1.5</text>
<text xml:space="preserve" x="350.692" y="326.11" fill="black" font-size="16.3337" font-family="Helvetica">2</text>
<text xml:space="preserve" x="419.927" y="326.11" fill="black" font-size="16.3337" font-family="Helvetica">2.5</text>
<text xml:space="preserve" x="501.204" y="326.11" fill="black" font-size="16.3337" font-family="Helvetica">3</text>
<text xml:space="preserve" x="496.187" y="338.151" fill="black" font-size="11.0558" font-family="Helvetica">cal</text>
<text xml:space="preserve" x="486.153" y="332.13" fill="black" font-size="16.3337" font-family="Helvetica">E</text>
<path d="M57.1929,310.657v -276.14" fill="none" stroke="black"/>
<path d="M70.7992,310.657h -13.6063" fill="none" stroke="black"/>
<path d="M63.9961,304.113h -6.80315" fill="none" stroke="black"/>
<path d="M63.9961,297.569h -6.80315" fill="none" stroke="black"/>
<path d="M63.9961,291.025h -6.80315" fill="none" stroke="black"/>
<path d="M63.9961,284.48h -6.80315" fill="none" stroke="black"/>
<path d="M70.7992,277.936h -13.6063" fill="none" stroke="black"/>
<path d="M63.9961,271.392h -6.80315" fill="none" stroke="black"/>
<path d="M63.9961,264.848h -6.80315" fill="none" stroke="black"/>
<path d="M63.9961,258.304h -6.80315" fill="none" stroke="black"/>
<path d="M63.9961,251.76h -6.80315" fill="none" stroke="black"/>
<path d="M70.7992,245.216h -13.6063" fill="none" stroke="black"/>
<path d="M63.9961,238.671h -6.80315" fill="none" stroke="black"/>
<path d="M63.9961,232.127h -6.80315" fill="none" stroke="black"/>
<path d="M63.9961,225.583h -6.80315" fill="none" stroke="black"/>
<path d="M63.9961,219.039h -6.80315" fill="none" stroke="black"/>
<path d="M70.7992,212.495h -13.6063" fill="none" stroke="black"/>
<path d="M63.9961,205.951h -6.80315" fill="none" stroke="black"/>
<path d="M63.9961,199.406h -6.80315" fill="none" stroke="black"/>
<path d="M63.9961,192.862h -6.80315" fill="none" stroke="black"/>
<path d="M63.9961,186.318h -6.80315" fill="none" stroke="black"/>
<path d="M70.7992,179.774h -13.6063" fill="none" stroke="black"/>
<path d="M63.9961,173.23h -6.80315" fill="none" stroke="black"/>
<path d="M63.9961,166.686h -6.80315" fill="none" stroke="black"/>
<path d="M63.9961,160.142h -6.80315" fill="none" stroke="black"/>
<path d="M63.9961,153.597h -6.80315" fill="none" stroke="black"/>
<path d="M70.7992,147.053h -13.6063" fill="none" stroke="black"/>
<path d="M63.9961,140.509h -6.80315" fill="none" stroke="black"/>
<path d="M63.9961,133.965h -6.80315" fill="none" stroke="black"/>
<path d="M63.9961,127.421h -6.80315" fill="none" stroke="black"/>
<path d="M63.9961,120.877h -6.80315" fill="none" stroke="black"/>
<path d="M70.7992,114.332h -13.6063" fill="none" stroke="black"/>
<path d="M63.9961,107.788h -6.80315" fill="none" stroke="black"/>
<path d="M63.9961,101.244h -6.80315" fill="none" stroke="black"/>
<path d="M63.9961,94.7h -6.80315" fill="none" stroke="black"/>
<path d="M63.9961,88.1558h -6.80315" fill="none" stroke="black"/>
<path d="M70.7992,81.6117h -13.6063" fill="none" stroke="black"/>
<path d="M63.9961,75.0675h -6.80315" fill="none" stroke="black"/>
<path d="M63.9961,68.5233h -6.80315" fill="none" stroke="black"/>
<path d="M63.9961,61.9792h -6.80315" fill="none" stroke="black"/>
<path d="M63.9961,55.435h -6.80315" fill="none" stroke="black"/>
<path d="M70.7992,48.8909h -13.6063" fill="none" stroke="black"/>
<path d="M70.7992,48.8909h -13.6063" fill="none" stroke="black"/>
<path d="M63.9961,42.3467h -6.80315" fill="none" stroke="black"/>
<path d="M63.9961,35.8026h -6.80315" fill="none" stroke="black"/>
<text xml:space="preserve" x="44.6502" y="316.076" fill="black" font-size="16.3337" font-family="Helvetica">0</text>
<text xml:space="preserve" x="35.6195" y="282.963" fill="black" font-size="16.3337" font-family="Helvetica">10</text>
<text xml:space="preserve" x="35.6195" y="250.854" fill="black" font-size="16.3337" font-family="Helvetica">20</text>
<text xml:space="preserve" x="35.6195" y="217.741" fill="black" font-size="16.3337" font-family="Helvetica">30</text>
<text xml:space="preserve" x="35.6195" y="185.632" fill="black" font-size="16.3337" font-family="Helvetica">40</text>
<text xml:space="preserve" x="35.6195" y="152.519" fill="black" font-size="16.3337" font-family="Helvetica">50</text>
<text xml:space="preserve" x="35.6195" y="119.406" fill="black" font-size="16.3337" font-family="Helvetica">60</text>
<text xml:space="preserve" x="35.6195" y="87.2971" fill="black" font-size="16.3337" font-family="Helvetica">70</text>
<text xml:space="preserve" x="35.6195" y="54.1844" fill="black" font-size="16.3337" font-family="Helvetica">80</text>
<text xml:space="preserve" x="83.7834" y="23.0785" fill="black" font-size="11.0558" font-family="Helvetica">6</text>
<text xml:space="preserve" x="65.7219" y="32.1093" fill="black" font-size="16.3337" font-family="Helvetica">10</text>
<text xml:space="preserve" x="56.6912" y="32.1093" fill="black" font-size="16.3337" font-family="Times">&#0215;</text>
<path d="M57.1929,310.657h 134.716v -0.639294h 13.4716v -0.595104h 13.4716v -0.407196h 13.4716v -1.34011h 13.4716v -1.19194h 13.4716v 0.0622975h 13.4716v -1.86154h 13.4716v -2.01795h 13.4716v 0.0765314h 13.4716v -2.35659h 13.4716v -1.82022h 13.4716v
 -4.05956h 13.4716v -1.1833h 13.4716v -7.51288h 4.49053v -1.77657h 4.49053v -14.808h 4.49053v -23.7926h 4.49053v -67.5304h 4.49053v -127.909h 4.49053v 192.225h 4.49053v 65.4399h 4.49053v 2.40207h 4.49053v 0.529231h 4.49053v -0.125434h 4.49053v
 0.192724h 4.49053v -0.24056h 4.49053v 0.24056h 80.8295" fill="none" stroke="#ff0000" stroke-width="3"/></svg>
