<?xml version="1.0" encoding="UTF-8" standalone="no"?>
<svg
   xmlns:dc="http://purl.org/dc/elements/1.1/"
   xmlns:cc="http://creativecommons.org/ns#"
   xmlns:rdf="http://www.w3.org/1999/02/22-rdf-syntax-ns#"
   xmlns:svg="http://www.w3.org/2000/svg"
   xmlns="http://www.w3.org/2000/svg"
   xmlns:sodipodi="http://sodipodi.sourceforge.net/DTD/sodipodi-0.dtd"
   xmlns:inkscape="http://www.inkscape.org/namespaces/inkscape"
   width="567.429"
   height="385.492"
   viewBox="0 0 567.429 385.492"
   shape-rendering="crispEdges"
   version="1.1"
   id="svg188"
   sodipodi:docname="C12_4461_pimi.svg"
   inkscape:export-filename="C:\Users\eggne\Documents\Thesis\C12_4461_pimi.png"
   inkscape:export-xdpi="96"
   inkscape:export-ydpi="96"
   inkscape:version="0.92.4 (5da689c313, 2019-01-14)">
  <metadata
     id="metadata192">
    <rdf:RDF>
      <cc:Work
         rdf:about="">
        <dc:format>image/svg+xml</dc:format>
        <dc:type
           rdf:resource="http://purl.org/dc/dcmitype/StillImage" />
      </cc:Work>
    </rdf:RDF>
  </metadata>
  <sodipodi:namedview
     pagecolor="#ffffff"
     bordercolor="#666666"
     borderopacity="1"
     objecttolerance="10"
     gridtolerance="10"
     guidetolerance="10"
     inkscape:pageopacity="0"
     inkscape:pageshadow="2"
     inkscape:window-width="1920"
     inkscape:window-height="1001"
     id="namedview190"
     showgrid="false"
     inkscape:zoom="1.6897916"
     inkscape:cx="121.59171"
     inkscape:cy="183.84595"
     inkscape:window-x="-9"
     inkscape:window-y="-9"
     inkscape:window-maximized="1"
     inkscape:current-layer="svg188" />
  <title
     id="title2">
/mnt/c/Users/eggne/Documents/01-18-19/C12_4461_pimi.svg
</title>
  <desc
     id="desc4">
Creator: ROOT Version 6.18/04
CreationDate: Thu Jan 16 13:01:21 2020</desc>
  <defs
     id="defs6" />
  <rect
     x="0.5"
     y="0"
     width="566.929"
     height="384.992"
     fill="white"
     id="rect8" />
  <rect
     x="57.1929"
     y="38.4992"
     width="453.543"
     height="307.994"
     fill="white"
     id="rect10" />
  <rect
     x="57.1929"
     y="38.4992"
     width="453.543"
     height="307.994"
     fill="none"
     stroke="black"
     id="rect12" />
  <rect
     x="57.1929"
     y="38.4992"
     width="453.543"
     height="307.994"
     fill="white"
     id="rect14" />
  <rect
     x="57.1929"
     y="38.4992"
     width="453.543"
     height="307.994"
     fill="none"
     stroke="black"
     id="rect16" />
  <path
     d="M57.1929,327.874h 83.9055v -0.0519937h 2.26772v -0.638912h 2.26772v 0.574026h 2.26772v -0.159015h 2.26772v -1.50045h 2.26772v 3.08634h 2.26772v -1.6953h 2.26772v 2.4578h 2.26772v -5.3813h 2.26772v 1.69347h 2.26772v -1.32971h 2.26772v  0.223423h 2.26772v 5.18381h 2.26772v -8.31389h 2.26772v -18.681h 2.26772v 21.8285h 2.26772v 7.35471h 2.26772v -29.8178h 2.26772v 28.0985h 2.26772v -0.496275h 2.26772v -6.96643h 2.26772v -50.7572h 2.26772v 23.49h 2.26772v 22.8433h 2.26772v 1.35006h  2.26772v -5.67971h 2.26772v 16.8661h 2.26772v -20.5428h 2.26772v 3.62416h 2.26772v -4.80137h 2.26772v 4.94258h 2.26772v -4.81639h 2.26772v -27.4693h 2.26772v 27.5885h 2.26772v 16.6542h 2.26772v -23.5472h 2.26772v 6.73624h 2.26772v 2.14358h 2.26772v  -11.759h 2.26772v 25.5481h 2.26772v 1.94473h 2.26772v -9.26429h 2.26772v -7.69633h 2.26772v 10.5122h 2.26772v 7.56934h 2.26772v -9.79129h 2.26772v 2.01277h 2.26772v -18.1903h 2.26772v -1.45891h 2.26772v -11.2433h 2.26772v 9.27h 2.26772v 0.565431h  2.26772v 1.56386h 2.26772v -6.39223h 2.26772v 24.6902h 2.26772v 4.26858h 2.26772v -20.8325h 2.26772v 5.16491h 2.26772v -0.932431h 2.26772v -11.096h 2.26772v 6.70134h 2.26772v -9.53285h 2.26772v -1.77111h 2.26772v 9.58544h 2.26772v -2.35142h 2.26772v  -0.388754h 2.26772v 2.24498h 2.26772v -16.0235h 2.26772v 15.6052h 2.26772v -5.16426h 2.26772v 2.4486h 2.26772v -6.85534h 2.26772v -10.4383h 2.26772v 12.6409h 2.26772v 4.11919h 2.26772v -20.8964h 2.26772v 18.2745h 2.26772v -7.8963h 2.26772v -1.83077h  2.26772v 4.83087h 2.26772v -28.9168h 2.26772v 26.0443h 2.26772v -0.0846074h 2.26772v -8.67886h 2.26772v 7.29642h 2.26772v -0.171966h 2.26772v 1.2325h 2.26772v -10.2634h 2.26772v 8.83712h 2.26772v -7.90508h 2.26772v 3.57792h 2.26772v 3.85842h  2.26772v -12.2194h 2.26772v 2.00584h 2.26772v 3.2589h 2.26772v -26.8576h 2.26772v 36.9332h 2.26772v -10.4066h 2.26772v -9.4575h 2.26772v 12.907h 2.26772v -9.05204h 2.26772v -6.72677h 2.26772v -0.225819h 2.26772v 2.91165h 2.26772v -9.50857h 2.26772v  -9.47904h 2.26772v 7.47834h 2.26772v -12.9982h 2.26772v -31.3771h 2.26772v -66.047h 2.26772v -92.5228h 2.26772v 89.2204h 2.26772v 138.797h 2.26772v 38.3074h 2.26772v 6.91956h 2.26772v 0.937689h 2.26772v 0.0365976h 2.26772v -0.0480961h 2.26772v  0.349026h 2.26772v 0.139001h 2.26772v 0.0138794h 2.26772v -0.150704h 2.26772v -0.648348h 2.26772v 0.800228h 2.26772v 0.0428646h 2.26772v -0.0854015h 2.26772v 0.00240858h 2.26772v -0.0952758h 2.26772v 0.192195h 2.26772v -0.0219802h 13.6063v  -0.0612695h 2.26772v 0.0612695h 11.3386v 0.017832h 2.26772v -0.0749955h 2.26772v 0.0571636h 22.6772v -0.0447308h 2.26772v 0.0447308h 20.4094"
     fill="none"
     stroke="#000099"
     stroke-width="3"
     id="path18" />
  <path
     d="M57.1929,346.493h 453.543"
     fill="none"
     stroke="black"
     id="path20" />
  <path
     d="M57.1929,337.253v 9.23981"
     fill="none"
     stroke="black"
     id="path22" />
  <path
     d="M72.311,341.873v 4.6199"
     fill="none"
     stroke="black"
     id="path24" />
  <path
     d="M87.4291,341.873v 4.6199"
     fill="none"
     stroke="black"
     id="path26" />
  <path
     d="M102.547,341.873v 4.6199"
     fill="none"
     stroke="black"
     id="path28" />
  <path
     d="M117.665,341.873v 4.6199"
     fill="none"
     stroke="black"
     id="path30" />
  <path
     d="M132.783,337.253v 9.23981"
     fill="none"
     stroke="black"
     id="path32" />
  <path
     d="M147.902,341.873v 4.6199"
     fill="none"
     stroke="black"
     id="path34" />
  <path
     d="M163.02,341.873v 4.6199"
     fill="none"
     stroke="black"
     id="path36" />
  <path
     d="M178.138,341.873v 4.6199"
     fill="none"
     stroke="black"
     id="path38" />
  <path
     d="M193.256,341.873v 4.6199"
     fill="none"
     stroke="black"
     id="path40" />
  <path
     d="M208.374,337.253v 9.23981"
     fill="none"
     stroke="black"
     id="path42" />
  <path
     d="M223.492,341.873v 4.6199"
     fill="none"
     stroke="black"
     id="path44" />
  <path
     d="M238.61,341.873v 4.6199"
     fill="none"
     stroke="black"
     id="path46" />
  <path
     d="M253.728,341.873v 4.6199"
     fill="none"
     stroke="black"
     id="path48" />
  <path
     d="M268.846,341.873v 4.6199"
     fill="none"
     stroke="black"
     id="path50" />
  <path
     d="M283.965,337.253v 9.23981"
     fill="none"
     stroke="black"
     id="path52" />
  <path
     d="M299.083,341.873v 4.6199"
     fill="none"
     stroke="black"
     id="path54" />
  <path
     d="M314.201,341.873v 4.6199"
     fill="none"
     stroke="black"
     id="path56" />
  <path
     d="M329.319,341.873v 4.6199"
     fill="none"
     stroke="black"
     id="path58" />
  <path
     d="M344.437,341.873v 4.6199"
     fill="none"
     stroke="black"
     id="path60" />
  <path
     d="M359.555,337.253v 9.23981"
     fill="none"
     stroke="black"
     id="path62" />
  <path
     d="M374.673,341.873v 4.6199"
     fill="none"
     stroke="black"
     id="path64" />
  <path
     d="M389.791,341.873v 4.6199"
     fill="none"
     stroke="black"
     id="path66" />
  <path
     d="M404.909,341.873v 4.6199"
     fill="none"
     stroke="black"
     id="path68" />
  <path
     d="M420.028,341.873v 4.6199"
     fill="none"
     stroke="black"
     id="path70" />
  <path
     d="M435.146,337.253v 9.23981"
     fill="none"
     stroke="black"
     id="path72" />
  <path
     d="M450.264,341.873v 4.6199"
     fill="none"
     stroke="black"
     id="path74" />
  <path
     d="M465.382,341.873v 4.6199"
     fill="none"
     stroke="black"
     id="path76" />
  <path
     d="M480.5,341.873v 4.6199"
     fill="none"
     stroke="black"
     id="path78" />
  <path
     d="M495.618,341.873v 4.6199"
     fill="none"
     stroke="black"
     id="path80" />
  <path
     d="M510.736,337.253v 9.23981"
     fill="none"
     stroke="black"
     id="path82" />
  <text
     xml:space="preserve"
     x="51.6698"
     y="363.062"
     fill="black"
     font-size="18.1602"
     font-family="Helvetica"
     id="text84">0</text>
  <text
     xml:space="preserve"
     x="128.831"
     y="363.062"
     fill="black"
     font-size="18.1602"
     font-family="Helvetica"
     id="text86">1</text>
  <text
     xml:space="preserve"
     x="202.743"
     y="363.062"
     fill="black"
     font-size="18.1602"
     font-family="Helvetica"
     id="text88">2</text>
  <text
     xml:space="preserve"
     x="279.091"
     y="363.062"
     fill="black"
     font-size="18.1602"
     font-family="Helvetica"
     id="text90">3</text>
  <text
     xml:space="preserve"
     x="354.628"
     y="363.062"
     fill="black"
     font-size="18.1602"
     font-family="Helvetica"
     id="text92">4</text>
  <text
     xml:space="preserve"
     x="430.164"
     y="363.062"
     fill="black"
     font-size="18.1602"
     font-family="Helvetica"
     id="text94">5</text>
  <text
     xml:space="preserve"
     x="505.7"
     y="363.062"
     fill="black"
     font-size="18.1602"
     font-family="Helvetica"
     id="text96">6</text>
  <text
     xml:space="preserve"
     x="448.845"
     y="382.555"
     fill="black"
     font-size="18.1602"
     font-family="Helvetica"
     id="text98">E [GeV]</text>
  <path
     d="M57.1929,346.493v -307.994"
     fill="none"
     stroke="black"
     id="path100" />
  <path
     d="M70.7992,327.874h -13.6063"
     fill="none"
     stroke="black"
     id="path102" />
  <path
     d="M63.9961,318.198h -6.80315"
     fill="none"
     stroke="black"
     id="path104" />
  <path
     d="M63.9961,308.522h -6.80315"
     fill="none"
     stroke="black"
     id="path106" />
  <path
     d="M63.9961,298.846h -6.80315"
     fill="none"
     stroke="black"
     id="path108" />
  <path
     d="M63.9961,289.17h -6.80315"
     fill="none"
     stroke="black"
     id="path110" />
  <path
     d="M70.7992,279.494h -13.6063"
     fill="none"
     stroke="black"
     id="path112" />
  <path
     d="M63.9961,269.818h -6.80315"
     fill="none"
     stroke="black"
     id="path114" />
  <path
     d="M63.9961,260.142h -6.80315"
     fill="none"
     stroke="black"
     id="path116" />
  <path
     d="M63.9961,250.466h -6.80315"
     fill="none"
     stroke="black"
     id="path118" />
  <path
     d="M63.9961,240.79h -6.80315"
     fill="none"
     stroke="black"
     id="path120" />
  <path
     d="M70.7992,231.114h -13.6063"
     fill="none"
     stroke="black"
     id="path122" />
  <path
     d="M63.9961,221.438h -6.80315"
     fill="none"
     stroke="black"
     id="path124" />
  <path
     d="M63.9961,211.762h -6.80315"
     fill="none"
     stroke="black"
     id="path126" />
  <path
     d="M63.9961,202.086h -6.80315"
     fill="none"
     stroke="black"
     id="path128" />
  <path
     d="M63.9961,192.411h -6.80315"
     fill="none"
     stroke="black"
     id="path130" />
  <path
     d="M70.7992,182.735h -13.6063"
     fill="none"
     stroke="black"
     id="path132" />
  <path
     d="M63.9961,173.059h -6.80315"
     fill="none"
     stroke="black"
     id="path134" />
  <path
     d="M63.9961,163.383h -6.80315"
     fill="none"
     stroke="black"
     id="path136" />
  <path
     d="M63.9961,153.707h -6.80315"
     fill="none"
     stroke="black"
     id="path138" />
  <path
     d="M63.9961,144.031h -6.80315"
     fill="none"
     stroke="black"
     id="path140" />
  <path
     d="M70.7992,134.355h -13.6063"
     fill="none"
     stroke="black"
     id="path142" />
  <path
     d="M63.9961,124.679h -6.80315"
     fill="none"
     stroke="black"
     id="path144" />
  <path
     d="M63.9961,115.003h -6.80315"
     fill="none"
     stroke="black"
     id="path146" />
  <path
     d="M63.9961,105.327h -6.80315"
     fill="none"
     stroke="black"
     id="path148" />
  <path
     d="M63.9961,95.6507h -6.80315"
     fill="none"
     stroke="black"
     id="path150" />
  <path
     d="M70.7992,85.9747h -13.6063"
     fill="none"
     stroke="black"
     id="path152" />
  <path
     d="M70.7992,327.874h -13.6063"
     fill="none"
     stroke="black"
     id="path154" />
  <path
     d="M63.9961,337.55h -6.80315"
     fill="none"
     stroke="black"
     id="path156" />
  <path
     d="M70.7992,85.9747h -13.6063"
     fill="none"
     stroke="black"
     id="path158" />
  <path
     d="M63.9961,76.2987h -6.80315"
     fill="none"
     stroke="black"
     id="path160" />
  <path
     d="M63.9961,66.6227h -6.80315"
     fill="none"
     stroke="black"
     id="path162" />
  <path
     d="M63.9961,56.9467h -6.80315"
     fill="none"
     stroke="black"
     id="path164" />
  <path
     d="M63.9961,47.2707h -6.80315"
     fill="none"
     stroke="black"
     id="path166" />
  <text
     xml:space="preserve"
     x="44.3598"
     y="333.822"
     fill="black"
     font-size="18.1602"
     font-family="Helvetica"
     id="text168">0</text>
  <text
     xml:space="preserve"
     x="24.8666"
     y="285.901"
     fill="black"
     font-size="18.1602"
     font-family="Helvetica"
     id="text170">500</text>
  <text
     xml:space="preserve"
     x="15.1199"
     y="237.168"
     fill="black"
     font-size="18.1602"
     font-family="Helvetica"
     id="text172">1000</text>
  <text
     xml:space="preserve"
     x="15.1199"
     y="188.435"
     fill="black"
     font-size="18.1602"
     font-family="Helvetica"
     id="text174">1500</text>
  <text
     xml:space="preserve"
     x="15.1199"
     y="140.514"
     fill="black"
     font-size="18.1602"
     font-family="Helvetica"
     id="text176">2000</text>
  <text
     xml:space="preserve"
     x="15.1199"
     y="91.7808"
     fill="black"
     font-size="18.1602"
     font-family="Helvetica"
     id="text178">2500</text>
  <text
     xml:space="preserve"
     x="85.783"
     y="27.6155"
     fill="black"
     font-size="12.2735"
     font-family="Helvetica"
     id="text180">3</text>
  <text
     xml:space="preserve"
     x="66.2898"
     y="36.5499"
     fill="black"
     font-size="18.1602"
     font-family="Helvetica"
     id="text182">10</text>
  <text
     xml:space="preserve"
     x="56.5431"
     y="36.5499"
     fill="black"
     font-size="18.1602"
     font-family="Times"
     id="text184">×</text>
  <path
     d="M57.1929,327.874h 106.583v -0.113567h 2.26772v -1.26473h 2.26772v 0.143458h 2.26772v 2.53308h 2.26772v -0.238021h 2.26772v -0.474667h 2.26772v 5.20617h 2.26772v -4.5548h 2.26772v -4.52013h 2.26772v 6.46284h 2.26772v -4.21972h 2.26772v  8.00692h 2.26772v -5.43538h 2.26772v -6.40612h 2.26772v 20.4194h 2.26772v -11.3649h 2.26772v -6.36628h 2.26772v -8.77576h 2.26772v 12.5675h 2.26772v -4.99998h 2.26772v -1.86725h 2.26772v 5.27661h 2.26772v -0.983141h 2.26772v 1.71592h 2.26772v  -3.15434h 2.26772v 21.0254h 2.26772v -20.8892h 2.26772v 6.67654h 2.26772v -2.02388h 2.26772v 16.2365h 2.26772v -25.5755h 2.26772v -13.8942h 2.26772v 26.2345h 2.26772v -23.1754h 2.26772v 18.5199h 2.26772v -3.13408h 2.26772v -17.3143h 2.26772v  -0.645456h 2.26772v 11.7205h 2.26772v 18.5084h 2.26772v -10.6465h 2.26772v -71.2545h 2.26772v 58.93h 2.26772v -8.52054h 2.26772v 3.65891h 2.26772v -38.1564h 2.26772v 67.0662h 2.26772v -20.2152h 2.26772v -3.97487h 2.26772v -22.8042h 2.26772v 28.1583h  2.26772v -16.6787h 2.26772v 6.91329h 2.26772v 0.364697h 2.26772v -3.83066h 2.26772v -6.1649h 2.26772v 2.84202h 2.26772v 15.7307h 2.26772v -3.0996h 2.26772v -10.8997h 2.26772v 4.23318h 2.26772v -3.12925h 2.26772v 11.4672h 2.26772v -49.507h 2.26772v  30.1249h 2.26772v -6.42607h 2.26772v 1.83182h 2.26772v -9.40574h 2.26772v -0.983999h 2.26772v 21.9877h 2.26772v -11.0369h 2.26772v 6.94189h 2.26772v 12.0175h 2.26772v -9.39816h 2.26772v -17.4577h 2.26772v 8.42083h 2.26772v -5.78465h 2.26772v  -9.64149h 2.26772v 16.9034h 2.26772v -16.5472h 2.26772v 20.9712h 2.26772v 4.59422h 2.26772v -3.93799h 2.26772v -25.1665h 2.26772v 16.9445h 2.26772v -13.253h 2.26772v 5.84442h 2.26772v 4.35373h 2.26772v -10.8809h 2.26772v 18.3218h 2.26772v -14.4532h  2.26772v 8.24304h 2.26772v -10.2238h 2.26772v 13.0781h 2.26772v -10.017h 2.26772v -7.71471h 2.26772v 15.0893h 2.26772v -3.1531h 2.26772v -2.48379h 2.26772v 8.15102h 2.26772v 6.39999h 2.26772v 1.29397h 2.26772v -11.7226h 2.26772v 6.06567h 2.26772v  4.15504h 2.26772v -4.76826h 2.26772v -1.43101h 2.26772v 5.86517h 2.26772v 11.9258h 2.26772v -23.4154h 2.26772v 7.04191h 2.26772v 7.98908h 2.26772v 14.8458h 2.26772v -2.0584h 2.26772v -7.06635h 2.26772v 6.54681h 2.26772v -1.63208h 2.26772v 0.15246h  2.26772v -3.74271h 2.26772v 8.41049h 2.26772v 1.79188h 2.26772v -4.05852h 2.26772v 10.9629h 2.26772v -7.7882h 2.26772v 9.53566h 2.26772v -4.63826h 2.26772v 1.10235h 2.26772v -20.6061h 2.26772v 21.6116h 2.26772v 1.74519h 2.26772v -6.90417h 2.26772v  3.71234h 2.26772v 0.77469h 2.26772v -0.734895h 2.26772v 0.137804h 2.26772v 2.58212h 2.26772v -0.630391h 2.26772v 1.57009h 2.26772v -2.41114h 2.26772v 0.328764h 2.26772v -2.02965h 2.26772v 2.875h 2.26772v -2.88904h 2.26772v 1.27599h 2.26772v 2.18832h  2.26772v -2.02704h 2.26772v -0.0737786h 2.26772v 2.07426h 2.26772v -1.38014h 2.26772v 1.60739h 2.26772v -0.966393h 2.26772v -1.2688h 2.26772v 1.14043h 2.26772"
     fill="none"
     stroke="black"
     stroke-width="3"
     id="path186" />
  <text
     xml:space="preserve"
     style="font-style:normal;font-weight:normal;font-size:40px;line-height:1.25;font-family:sans-serif;letter-spacing:0px;word-spacing:0px;fill:#000000;fill-opacity:1;stroke:none"
     x="77.524345"
     y="70.068497"
     id="text196"><tspan
       sodipodi:role="line"
       id="tspan194"
       x="77.524345"
       y="70.068497"
       style="font-size:26.66666603px"><tspan
   style="font-size:64.99999762%;baseline-shift:super"
   id="tspan226">12</tspan>C @ 4.4 GeV: <tspan
   style="font-style:normal;font-variant:normal;font-weight:normal;font-stretch:normal;font-size:26.66666603px;font-family:'Times New Roman';-inkscape-font-specification:'Times New Roman, '"
   id="tspan198">π<tspan
   style="font-size:26.66666603px;baseline-shift:super"
   id="tspan200">-</tspan></tspan></tspan></text>
  <text
     xml:space="preserve"
     style="font-style:normal;font-weight:normal;font-size:26.66666603px;line-height:1.25;font-family:sans-serif;letter-spacing:0px;word-spacing:0px;fill:#000099;fill-opacity:1;stroke:none"
     x="221.32907"
     y="187.24271"
     id="text204"><tspan
       sodipodi:role="line"
       id="tspan202"
       x="221.32907"
       y="187.24271">Calorimetric</tspan></text>
  <text
     xml:space="preserve"
     style="font-style:normal;font-weight:normal;font-size:21.33333333px;line-height:1.25;font-family:sans-serif;letter-spacing:0px;word-spacing:0px;fill:#000000;fill-opacity:1;stroke:none;"
     x="397.09039"
     y="274.23569"
     id="text208"><tspan
       sodipodi:role="line"
       id="tspan206"
       x="397.09039"
       y="274.23569">Kinematic</tspan></text>
</svg>
