<?xml version="1.0" standalone="no"?>
<svg width="567.429" height="385.492" viewBox="0 0 567.429 385.492" xmlns="http://www.w3.org/2000/svg" shape-rendering="crispEdges">
<title>
/mnt/c/Users/eggne/Documents/01-18-19/C12_2261_cal_pipl.svg
</title>
<desc>
Creator: ROOT Version 6.18/04
CreationDate: Thu Jan 16 12:30:37 2020</desc>
<defs>
</defs>
<rect x="0.5" y="0" width="566.929" height="384.992" fill="white"/>
<rect x="56.9492" y="38.5804" width="454.031" height="307.831" fill="white"/>
<rect x="56.9492" y="38.5804" width="454.031" height="307.831" fill="none" stroke="black"/>
<rect x="56.9492" y="38.5804" width="454.031" height="307.831" fill="white"/>
<rect x="56.9492" y="38.5804" width="454.031" height="307.831" fill="none" stroke="black"/>
<path d="M56.9492,332.109h 94.0492v -0.00838112h 3.24308v -0.0616444h 3.24308v -0.299715h 3.24308v -0.660867h 3.24308v 1.3723h 3.24308v -4.24904h 3.24308v -3.64099h 3.24308v -1.3514h 3.24308v -4.16039h 3.24308v -7.92888h 3.24308v 1.09783h 3.24308v
 -5.65094h 3.24308v -11.2028h 3.24308v -6.10056h 3.24308v -5.61583h 3.24308v -4.97988h 3.24308v -0.506521h 3.24308v -16.8991h 3.24308v -3.31754h 3.24308v -7.21039h 3.24308v -8.44066h 3.24308v -11.6724h 3.24308v -12.2499h 3.24308v -4.18336h 3.24308v
 -9.2662h 3.24308v -13.2166h 3.24308v 2.21171h 3.24308v -13.441h 3.24308v -13.0868h 3.24308v -11.873h 3.24308v -8.31502h 3.24308v -12.4566h 3.24308v -1.40117h 3.24308v -12.0046h 3.24308v -7.7839h 3.24308v -6.24312h 3.24308v -6.38445h 3.24308v
 -18.5946h 3.24308v 1.66073h 3.24308v -4.80417h 3.24308v 2.03459h 3.24308v -7.97539h 3.24308v -11.5254h 3.24308v -1.42767h 3.24308v -3.10522h 3.24308v 0.676119h 3.24308v 4.24193h 3.24308v -8.86918h 3.24308v 3.99299h 3.24308v 2.83173h 3.24308v
 2.33253h 3.24308v -6.9398h 3.24308v 24.7734h 3.24308v 11.2688h 3.24308v 30.521h 3.24308v 33.5337h 3.24308v 14.5969h 3.24308v 18.7654h 3.24308v 42.5988h 3.24308v 50.2987h 3.24308v 40.0673h 3.24308v 7.38602h 3.24308v 1.02932h 3.24308v 0.534362h
 3.24308v 0.806093h 3.24308v -0.837958h 3.24308v -0.168297h 3.24308v 0.129784h 3.24308v 0.0620274h 3.24308v 0.15933h 3.24308v -0.439907h 3.24308v 0.249627h 3.24308v 0.167385h 3.24308v 0.099585h 3.24308v 0.153571h 3.24308v -0.0497303h 3.24308v
 -0.253927h 3.24308v -0.0905156h 3.24308v 0.32584h 3.24308v 0.294547h 3.24308v 0.110566h 3.24308v -0.0309031h 3.24308v -0.43064h 3.24308v 0.366601h 3.24308v 0.0647918h 3.24308v 0.151211h 3.24308v 0.193617h 3.24308v -0.143014h 3.24308v 0.248083h
 3.24308v -0.0898685h 3.24308v 0.176906h 3.24308v 0.0128384h 3.24308v -0.0339198h 3.24308v 0.0295583h 3.24308v -0.0443432h 3.24308v 0.0428613h 3.24308v 0.0241811h 3.24308v 0.0298309h 3.24308v -0.132699h 3.24308v 0.0604767h 3.24308v 0.0177626h
 3.24308v -0.0251207h 3.24308v 0.0902994h 3.24308v -0.025653h 3.24308v -0.0704547h 3.24308v 0.0514227h 3.24308v -0.00417331h 3.24308v 0.0199498h 3.24308v -0.00859341h 3.24308v 0.0201343h 6.48615" fill="none" stroke="#000099" stroke-width="3"/>
<path d="M56.9492,346.412h 454.031" fill="none" stroke="black"/>
<path d="M56.9492,337.162v 9.24974" fill="none" stroke="black"/>
<path d="M69.9216,341.787v 4.62487" fill="none" stroke="black"/>
<path d="M82.8939,341.787v 4.62487" fill="none" stroke="black"/>
<path d="M95.8662,341.787v 4.62487" fill="none" stroke="black"/>
<path d="M108.838,341.787v 4.62487" fill="none" stroke="black"/>
<path d="M121.811,337.162v 9.24974" fill="none" stroke="black"/>
<path d="M134.783,341.787v 4.62487" fill="none" stroke="black"/>
<path d="M147.755,341.787v 4.62487" fill="none" stroke="black"/>
<path d="M160.728,341.787v 4.62487" fill="none" stroke="black"/>
<path d="M173.7,341.787v 4.62487" fill="none" stroke="black"/>
<path d="M186.672,337.162v 9.24974" fill="none" stroke="black"/>
<path d="M199.645,341.787v 4.62487" fill="none" stroke="black"/>
<path d="M212.617,341.787v 4.62487" fill="none" stroke="black"/>
<path d="M225.589,341.787v 4.62487" fill="none" stroke="black"/>
<path d="M238.562,341.787v 4.62487" fill="none" stroke="black"/>
<path d="M251.534,337.162v 9.24974" fill="none" stroke="black"/>
<path d="M264.506,341.787v 4.62487" fill="none" stroke="black"/>
<path d="M277.478,341.787v 4.62487" fill="none" stroke="black"/>
<path d="M290.451,341.787v 4.62487" fill="none" stroke="black"/>
<path d="M303.423,341.787v 4.62487" fill="none" stroke="black"/>
<path d="M316.395,337.162v 9.24974" fill="none" stroke="black"/>
<path d="M329.368,341.787v 4.62487" fill="none" stroke="black"/>
<path d="M342.34,341.787v 4.62487" fill="none" stroke="black"/>
<path d="M355.312,341.787v 4.62487" fill="none" stroke="black"/>
<path d="M368.285,341.787v 4.62487" fill="none" stroke="black"/>
<path d="M381.257,337.162v 9.24974" fill="none" stroke="black"/>
<path d="M394.229,341.787v 4.62487" fill="none" stroke="black"/>
<path d="M407.201,341.787v 4.62487" fill="none" stroke="black"/>
<path d="M420.174,341.787v 4.62487" fill="none" stroke="black"/>
<path d="M433.146,341.787v 4.62487" fill="none" stroke="black"/>
<path d="M446.118,337.162v 9.24974" fill="none" stroke="black"/>
<path d="M459.091,341.787v 4.62487" fill="none" stroke="black"/>
<path d="M472.063,341.787v 4.62487" fill="none" stroke="black"/>
<path d="M485.035,341.787v 4.62487" fill="none" stroke="black"/>
<path d="M498.008,341.787v 4.62487" fill="none" stroke="black"/>
<path d="M510.98,337.162v 9.24974" fill="none" stroke="black"/>
<text xml:space="preserve" x="51.6698" y="363.062" fill="black" font-size="18.1602" font-family="Helvetica">0</text>
<text xml:space="preserve" x="109.337" y="363.062" fill="black" font-size="18.1602" font-family="Helvetica">0.5</text>
<text xml:space="preserve" x="183.249" y="363.062" fill="black" font-size="18.1602" font-family="Helvetica">1</text>
<text xml:space="preserve" x="239.292" y="363.062" fill="black" font-size="18.1602" font-family="Helvetica">1.5</text>
<text xml:space="preserve" x="310.768" y="363.062" fill="black" font-size="18.1602" font-family="Helvetica">2</text>
<text xml:space="preserve" x="368.435" y="363.062" fill="black" font-size="18.1602" font-family="Helvetica">2.5</text>
<text xml:space="preserve" x="440.723" y="363.062" fill="black" font-size="18.1602" font-family="Helvetica">3</text>
<text xml:space="preserve" x="498.39" y="363.062" fill="black" font-size="18.1602" font-family="Helvetica">3.5</text>
<text xml:space="preserve" x="461.028" y="381.743" fill="black" font-size="18.1602" font-family="Helvetica"> [GeV]</text>
<text xml:space="preserve" x="445.596" y="386.616" fill="black" font-size="12.2735" font-family="Helvetica">kin</text>
<text xml:space="preserve" x="434.225" y="381.743" fill="black" font-size="18.1602" font-family="Helvetica">E</text>
<path d="M56.9492,346.412v -307.831" fill="none" stroke="black"/>
<path d="M70.5484,332.109h -13.5991" fill="none" stroke="black"/>
<path d="M63.7488,325.567h -6.79956" fill="none" stroke="black"/>
<path d="M63.7488,319.025h -6.79956" fill="none" stroke="black"/>
<path d="M63.7488,312.483h -6.79956" fill="none" stroke="black"/>
<path d="M63.7488,305.941h -6.79956" fill="none" stroke="black"/>
<path d="M70.5484,299.399h -13.5991" fill="none" stroke="black"/>
<path d="M63.7488,292.857h -6.79956" fill="none" stroke="black"/>
<path d="M63.7488,286.315h -6.79956" fill="none" stroke="black"/>
<path d="M63.7488,279.773h -6.79956" fill="none" stroke="black"/>
<path d="M63.7488,273.231h -6.79956" fill="none" stroke="black"/>
<path d="M70.5484,266.689h -13.5991" fill="none" stroke="black"/>
<path d="M63.7488,260.147h -6.79956" fill="none" stroke="black"/>
<path d="M63.7488,253.605h -6.79956" fill="none" stroke="black"/>
<path d="M63.7488,247.063h -6.79956" fill="none" stroke="black"/>
<path d="M63.7488,240.521h -6.79956" fill="none" stroke="black"/>
<path d="M70.5484,233.979h -13.5991" fill="none" stroke="black"/>
<path d="M63.7488,227.437h -6.79956" fill="none" stroke="black"/>
<path d="M63.7488,220.895h -6.79956" fill="none" stroke="black"/>
<path d="M63.7488,214.353h -6.79956" fill="none" stroke="black"/>
<path d="M63.7488,207.811h -6.79956" fill="none" stroke="black"/>
<path d="M70.5484,201.269h -13.5991" fill="none" stroke="black"/>
<path d="M63.7488,194.727h -6.79956" fill="none" stroke="black"/>
<path d="M63.7488,188.185h -6.79956" fill="none" stroke="black"/>
<path d="M63.7488,181.643h -6.79956" fill="none" stroke="black"/>
<path d="M63.7488,175.101h -6.79956" fill="none" stroke="black"/>
<path d="M70.5484,168.559h -13.5991" fill="none" stroke="black"/>
<path d="M63.7488,162.017h -6.79956" fill="none" stroke="black"/>
<path d="M63.7488,155.475h -6.79956" fill="none" stroke="black"/>
<path d="M63.7488,148.932h -6.79956" fill="none" stroke="black"/>
<path d="M63.7488,142.39h -6.79956" fill="none" stroke="black"/>
<path d="M70.5484,135.848h -13.5991" fill="none" stroke="black"/>
<path d="M63.7488,129.306h -6.79956" fill="none" stroke="black"/>
<path d="M63.7488,122.764h -6.79956" fill="none" stroke="black"/>
<path d="M63.7488,116.222h -6.79956" fill="none" stroke="black"/>
<path d="M63.7488,109.68h -6.79956" fill="none" stroke="black"/>
<path d="M70.5484,103.138h -13.5991" fill="none" stroke="black"/>
<path d="M63.7488,96.5962h -6.79956" fill="none" stroke="black"/>
<path d="M63.7488,90.0542h -6.79956" fill="none" stroke="black"/>
<path d="M63.7488,83.5122h -6.79956" fill="none" stroke="black"/>
<path d="M63.7488,76.9702h -6.79956" fill="none" stroke="black"/>
<path d="M70.5484,70.4281h -13.5991" fill="none" stroke="black"/>
<path d="M70.5484,332.109h -13.5991" fill="none" stroke="black"/>
<path d="M63.7488,338.651h -6.79956" fill="none" stroke="black"/>
<path d="M63.7488,345.193h -6.79956" fill="none" stroke="black"/>
<path d="M70.5484,70.4281h -13.5991" fill="none" stroke="black"/>
<path d="M63.7488,63.8861h -6.79956" fill="none" stroke="black"/>
<path d="M63.7488,57.3441h -6.79956" fill="none" stroke="black"/>
<path d="M63.7488,50.802h -6.79956" fill="none" stroke="black"/>
<path d="M63.7488,44.26h -6.79956" fill="none" stroke="black"/>
<text xml:space="preserve" x="44.3598" y="337.883" fill="black" font-size="18.1602" font-family="Helvetica">0</text>
<text xml:space="preserve" x="15.1199" y="305.395" fill="black" font-size="18.1602" font-family="Helvetica">1000</text>
<text xml:space="preserve" x="15.1199" y="272.906" fill="black" font-size="18.1602" font-family="Helvetica">2000</text>
<text xml:space="preserve" x="15.1199" y="240.417" fill="black" font-size="18.1602" font-family="Helvetica">3000</text>
<text xml:space="preserve" x="15.1199" y="207.116" fill="black" font-size="18.1602" font-family="Helvetica">4000</text>
<text xml:space="preserve" x="15.1199" y="174.627" fill="black" font-size="18.1602" font-family="Helvetica">5000</text>
<text xml:space="preserve" x="15.1199" y="142.138" fill="black" font-size="18.1602" font-family="Helvetica">6000</text>
<text xml:space="preserve" x="15.1199" y="108.837" fill="black" font-size="18.1602" font-family="Helvetica">7000</text>
<text xml:space="preserve" x="15.1199" y="76.3486" fill="black" font-size="18.1602" font-family="Helvetica">8000</text>
<text xml:space="preserve" x="85.783" y="27.6155" fill="black" font-size="12.2735" font-family="Helvetica">3</text>
<text xml:space="preserve" x="66.2898" y="36.5499" fill="black" font-size="18.1602" font-family="Helvetica">10</text>
<text xml:space="preserve" x="56.5431" y="36.5499" fill="black" font-size="18.1602" font-family="Times">&#0215;</text></svg>
