<?xml version="1.0" standalone="no"?>
<svg width="567.429" height="540.107" viewBox="0 0 567.429 540.107" xmlns="http://www.w3.org/2000/svg" shape-rendering="crispEdges">
<title>
C12_2261_process.svg
</title>
<desc>
Creator: ROOT Version 6.18/04
CreationDate: Tue Mar  3 09:23:33 2020</desc>
<defs>
</defs>
<rect x="0.5" y="0" width="566.929" height="539.607" fill="white"/>
<rect x="57.1929" y="53.9607" width="453.543" height="431.686" fill="white"/>
<rect x="57.1929" y="53.9607" width="453.543" height="431.686" fill="none" stroke="black"/>
<path d="M57.1929,465.968h 108.85v 0.0622578h 13.6063v -1.90862h 13.6063v -13.5263h 13.6063v -16.888h 13.6063v -22.4513h 13.6063v -19.1537h 13.6063v -20.1484h 13.6063v -23.258h 13.6063v -41.2521h 13.6063v -15.405h 13.6063v -15.027h 13.6063v -12.562h
 13.6063v -12.6835h 13.6063v -18.1481h 13.6063v -15.9933h 13.6063v 161.995h 4.53543v -16.0786h 4.53543v -23.3171h 4.53543v -29.9203h 4.53543v -77.9099h 4.53543v -157.876h 4.53543v 294.757h 4.53543v 92.0682h 4.53543v 3.03988h 4.53543v 0.688262h
 4.53543v 0.351054h 4.53543v 0.6477h 4.53543v -0.429307h 4.53543v 0.28396h 4.53543v -0.375759h 4.53543v 0.457157h 4.53543v -0.0372328h 22.6772v -0.109305h 4.53543v 0.109305h 4.53543v -0.0709626h 4.53543v 0.0709626h 18.1417v -0.0449544h 4.53543v
 0.0449544h 9.07087" fill="none" stroke="black" stroke-width="3"/>
<path d="M57.1929,485.647h 453.543" fill="none" stroke="black"/>
<path d="M57.1929,472.696v 12.9506" fill="none" stroke="black"/>
<path d="M72.311,479.171v 6.47529" fill="none" stroke="black"/>
<path d="M87.4291,479.171v 6.47529" fill="none" stroke="black"/>
<path d="M102.547,479.171v 6.47529" fill="none" stroke="black"/>
<path d="M117.665,479.171v 6.47529" fill="none" stroke="black"/>
<path d="M132.783,472.696v 12.9506" fill="none" stroke="black"/>
<path d="M147.902,479.171v 6.47529" fill="none" stroke="black"/>
<path d="M163.02,479.171v 6.47529" fill="none" stroke="black"/>
<path d="M178.138,479.171v 6.47529" fill="none" stroke="black"/>
<path d="M193.256,479.171v 6.47529" fill="none" stroke="black"/>
<path d="M208.374,472.696v 12.9506" fill="none" stroke="black"/>
<path d="M223.492,479.171v 6.47529" fill="none" stroke="black"/>
<path d="M238.61,479.171v 6.47529" fill="none" stroke="black"/>
<path d="M253.728,479.171v 6.47529" fill="none" stroke="black"/>
<path d="M268.846,479.171v 6.47529" fill="none" stroke="black"/>
<path d="M283.965,472.696v 12.9506" fill="none" stroke="black"/>
<path d="M299.083,479.171v 6.47529" fill="none" stroke="black"/>
<path d="M314.201,479.171v 6.47529" fill="none" stroke="black"/>
<path d="M329.319,479.171v 6.47529" fill="none" stroke="black"/>
<path d="M344.437,479.171v 6.47529" fill="none" stroke="black"/>
<path d="M359.555,472.696v 12.9506" fill="none" stroke="black"/>
<path d="M374.673,479.171v 6.47529" fill="none" stroke="black"/>
<path d="M389.791,479.171v 6.47529" fill="none" stroke="black"/>
<path d="M404.909,479.171v 6.47529" fill="none" stroke="black"/>
<path d="M420.028,479.171v 6.47529" fill="none" stroke="black"/>
<path d="M435.146,472.696v 12.9506" fill="none" stroke="black"/>
<path d="M450.264,479.171v 6.47529" fill="none" stroke="black"/>
<path d="M465.382,479.171v 6.47529" fill="none" stroke="black"/>
<path d="M480.5,479.171v 6.47529" fill="none" stroke="black"/>
<path d="M495.618,479.171v 6.47529" fill="none" stroke="black"/>
<path d="M510.736,472.696v 12.9506" fill="none" stroke="black"/>
<text xml:space="preserve" x="51.7285" y="503.178" fill="black" font-size="17.8268" font-family="Helvetica">0</text>
<text xml:space="preserve" x="120.033" y="503.178" fill="black" font-size="17.8268" font-family="Helvetica">0.5</text>
<text xml:space="preserve" x="204.276" y="503.178" fill="black" font-size="17.8268" font-family="Helvetica">1</text>
<text xml:space="preserve" x="271.442" y="503.178" fill="black" font-size="17.8268" font-family="Helvetica">1.5</text>
<text xml:space="preserve" x="354.546" y="503.178" fill="black" font-size="17.8268" font-family="Helvetica">2</text>
<text xml:space="preserve" x="421.712" y="503.178" fill="black" font-size="17.8268" font-family="Helvetica">2.5</text>
<text xml:space="preserve" x="505.955" y="503.178" fill="black" font-size="17.8268" font-family="Helvetica">3</text>
<path d="M57.1929,485.647v -431.686" fill="none" stroke="black"/>
<path d="M70.7992,465.968h -13.6063" fill="none" stroke="black"/>
<path d="M63.9961,452.615h -6.80315" fill="none" stroke="black"/>
<path d="M63.9961,439.262h -6.80315" fill="none" stroke="black"/>
<path d="M63.9961,425.909h -6.80315" fill="none" stroke="black"/>
<path d="M63.9961,412.557h -6.80315" fill="none" stroke="black"/>
<path d="M70.7992,399.204h -13.6063" fill="none" stroke="black"/>
<path d="M63.9961,385.851h -6.80315" fill="none" stroke="black"/>
<path d="M63.9961,372.498h -6.80315" fill="none" stroke="black"/>
<path d="M63.9961,359.145h -6.80315" fill="none" stroke="black"/>
<path d="M63.9961,345.793h -6.80315" fill="none" stroke="black"/>
<path d="M70.7992,332.44h -13.6063" fill="none" stroke="black"/>
<path d="M63.9961,319.087h -6.80315" fill="none" stroke="black"/>
<path d="M63.9961,305.734h -6.80315" fill="none" stroke="black"/>
<path d="M63.9961,292.381h -6.80315" fill="none" stroke="black"/>
<path d="M63.9961,279.029h -6.80315" fill="none" stroke="black"/>
<path d="M70.7992,265.676h -13.6063" fill="none" stroke="black"/>
<path d="M63.9961,252.323h -6.80315" fill="none" stroke="black"/>
<path d="M63.9961,238.97h -6.80315" fill="none" stroke="black"/>
<path d="M63.9961,225.618h -6.80315" fill="none" stroke="black"/>
<path d="M63.9961,212.265h -6.80315" fill="none" stroke="black"/>
<path d="M70.7992,198.912h -13.6063" fill="none" stroke="black"/>
<path d="M63.9961,185.559h -6.80315" fill="none" stroke="black"/>
<path d="M63.9961,172.206h -6.80315" fill="none" stroke="black"/>
<path d="M63.9961,158.854h -6.80315" fill="none" stroke="black"/>
<path d="M63.9961,145.501h -6.80315" fill="none" stroke="black"/>
<path d="M70.7992,132.148h -13.6063" fill="none" stroke="black"/>
<path d="M63.9961,118.795h -6.80315" fill="none" stroke="black"/>
<path d="M63.9961,105.442h -6.80315" fill="none" stroke="black"/>
<path d="M63.9961,92.0896h -6.80315" fill="none" stroke="black"/>
<path d="M63.9961,78.7368h -6.80315" fill="none" stroke="black"/>
<path d="M70.7992,65.384h -13.6063" fill="none" stroke="black"/>
<path d="M70.7992,465.968h -13.6063" fill="none" stroke="black"/>
<path d="M63.9961,479.321h -6.80315" fill="none" stroke="black"/>
<path d="M70.7992,65.384h -13.6063" fill="none" stroke="black"/>
<text xml:space="preserve" x="44.8981" y="472.441" fill="black" font-size="17.8268" font-family="Helvetica">0</text>
<text xml:space="preserve" x="25.5451" y="405.275" fill="black" font-size="17.8268" font-family="Helvetica">500</text>
<text xml:space="preserve" x="16.4378" y="339.247" fill="black" font-size="17.8268" font-family="Helvetica">1000</text>
<text xml:space="preserve" x="16.4378" y="272.08" fill="black" font-size="17.8268" font-family="Helvetica">1500</text>
<text xml:space="preserve" x="16.4378" y="204.914" fill="black" font-size="17.8268" font-family="Helvetica">2000</text>
<text xml:space="preserve" x="16.4378" y="138.886" fill="black" font-size="17.8268" font-family="Helvetica">2500</text>
<text xml:space="preserve" x="16.4378" y="71.7199" fill="black" font-size="17.8268" font-family="Helvetica">3000</text>
<text xml:space="preserve" x="83.6041" y="42.1212" fill="black" font-size="12.0512" font-family="Helvetica">3</text>
<text xml:space="preserve" x="65.3895" y="51.2285" fill="black" font-size="17.8268" font-family="Helvetica">10</text>
<text xml:space="preserve" x="56.2822" y="51.2285" fill="black" font-size="17.8268" font-family="Times">&#0215;</text>
<path d="M57.1929,465.968h 108.85v 0.0622578h 13.6063v 0.0797444h 13.6063v -6.6406h 13.6063v -10.7297h 13.6063v -13.5045h 13.6063v -15.6919h 13.6063v -12.8552h 13.6063v -13.6061h 13.6063v -44.861h 13.6063v -12.9511h 13.6063v -12.3148h 13.6063v
 -22.058h 13.6063v -17.4415h 13.6063v -31.2757h 13.6063v -28.7189h 13.6063v 156.317h 4.53543v -16.2366h 4.53543v -23.2621h 4.53543v -29.9753h 4.53543v -77.9099h 4.53543v -157.844h 4.53543v 294.725h 4.53543v 92.0682h 4.53543v 3.03988h 4.53543v
 0.688262h 4.53543v 0.351054h 4.53543v 0.680586h 4.53543v -0.462193h 4.53543v 0.28396h 4.53543v -0.375759h 4.53543v 0.457157h 4.53543v -0.0372328h 22.6772v -0.109305h 4.53543v 0.109305h 4.53543v -0.0709626h 4.53543v 0.0709626h 18.1417v -0.0449544h
 4.53543v 0.0449544h 9.07087" fill="none" stroke="#ff0000" stroke-width="3"/>
<path d="M57.1929,465.968h 108.85v 0.0622578h 13.6063v -0.426531h 13.6063v -8.53637h 13.6063v -11.5651h 13.6063v -14.4262h 13.6063v -18.076h 13.6063v -13.3502h 13.6063v -12.2707h 13.6063v -47.5598h 13.6063v -11.2214h 13.6063v -10.3821h 13.6063v
 -19.9003h 13.6063v -15.2039h 13.6063v -31.126h 13.6063v -28.6512h 13.6063v 156.443h 4.53543v -16.2366h 4.53543v -23.2621h 4.53543v -29.9753h 4.53543v -77.9099h 4.53543v -157.844h 4.53543v 294.725h 4.53543v 92.0682h 4.53543v 3.03988h 4.53543v
 0.688262h 4.53543v 0.351054h 4.53543v 0.680586h 4.53543v -0.462193h 4.53543v 0.28396h 4.53543v -0.406008h 4.53543v 0.487406h 4.53543v -0.0632007h 4.53543v 0.0259679h 18.1417v -0.109305h 4.53543v 0.109305h 4.53543v -0.0709626h 4.53543v 0.0709626h
 18.1417v -0.0449544h 4.53543v 0.0449544h 9.07087" fill="none" stroke="#00ff00" stroke-width="3"/>
<path d="M57.1929,465.968h 108.85v -0.381332h 13.6063v -2.42794h 13.6063v -12.0743h 13.6063v -11.6659h 13.6063v -15.8529h 13.6063v -17.8569h 13.6063v -15.624h 13.6063v -10.4024h 13.6063v -44.7327h 13.6063v -11.0405h 13.6063v -9.39133h 13.6063v
 -18.0336h 13.6063v -15.4733h 13.6063v -31.3006h 13.6063v -26.8244h 13.6063v 156.888h 4.53543v -16.2329h 4.53543v -23.2621h 4.53543v -30.0109h 4.53543v -77.8743h 4.53543v -157.844h 4.53543v 294.725h 4.53543v 92.0682h 4.53543v 3.03988h 4.53543v
 0.688262h 4.53543v 0.351054h 4.53543v 0.680586h 4.53543v -0.462193h 4.53543v 0.28396h 4.53543v -0.406008h 4.53543v 0.487406h 4.53543v -0.0632007h 4.53543v 0.0259679h 18.1417v -0.109305h 4.53543v 0.109305h 4.53543v -0.0709626h 4.53543v 0.0709626h
 18.1417v -0.0449544h 4.53543v 0.0449544h 9.07087" fill="none" stroke="#0000ff" stroke-width="3"/>
<path d="M57.1929,465.968h 108.85v -0.381332h 13.6063v -2.48446h 13.6063v -12.0904h 13.6063v -11.8804h 13.6063v -19.278h 13.6063v -15.0777h 13.6063v -15.9332h 13.6063v -9.10289h 13.6063v -45.087h 13.6063v -10.8398h 13.6063v -9.27448h 13.6063v
 -18.0598h 13.6063v -15.4677h 13.6063v -31.3006h 13.6063v -26.8244h 13.6063v 156.888h 4.53543v -16.2329h 4.53543v -23.2621h 4.53543v -30.0109h 4.53543v -77.8743h 4.53543v -157.844h 4.53543v 294.725h 4.53543v 92.0682h 4.53543v 3.03988h 4.53543v
 0.688262h 4.53543v 0.351054h 4.53543v 0.680586h 4.53543v -0.462193h 4.53543v 0.28396h 4.53543v -0.406008h 4.53543v 0.487406h 4.53543v -0.0632007h 4.53543v 0.0259679h 18.1417v -0.109305h 4.53543v 0.109305h 4.53543v -0.0709626h 4.53543v 0.0709626h
 18.1417v -0.0449544h 4.53543v 0.0449544h 9.07087" fill="none" stroke="#ffff00" stroke-width="3"/></svg>
