<?xml version="1.0" standalone="no"?>
<svg width="567.429" height="384.68" viewBox="0 0 567.429 384.68" xmlns="http://www.w3.org/2000/svg" shape-rendering="crispEdges">
<title>
/u/home/ltracy/Root_work/01-18-19/C12_2261.svg
</title>
<desc>
Creator: ROOT Version 6.10/02
CreationDate: Thu Nov  7 11:03:32 2019</desc>
<defs>
</defs>
<rect x="0.5" y="0" width="566.929" height="384.18" fill="white"/>
<rect x="57.1929" y="38.418" width="453.543" height="307.344" fill="white"/>
<rect x="57.1929" y="38.418" width="453.543" height="307.344" fill="none" stroke="black"/>
<rect x="57.1929" y="38.418" width="453.543" height="307.344" fill="white"/>
<rect x="57.1929" y="38.418" width="453.543" height="307.344" fill="none" stroke="black"/>
<path d="M57.1929,345.762h 102.207v -0.0417371h 3.19397v -0.606211h 3.19397v -0.788632h 3.19397v -0.885227h 3.19397v -2.4871h 3.19397v -1.35934h 3.19397v -1.34214h 3.19397v -2.66882h 3.19397v -4.49856h 3.19397v 0.749524h 3.19397v -3.71647h 3.19397v
 -2.92761h 3.19397v -1.31837h 3.19397v -1.20079h 3.19397v -4.94865h 3.19397v -2.72372h 3.19397v -2.1636h 3.19397v 0.505853h 3.19397v -5.53531h 3.19397v -1.4375h 3.19397v -5.12493h 3.19397v -0.620288h 3.19397v -3.16334h 3.19397v 1.11646h 3.19397v
 -2.14679h 3.19397v -1.57301h 3.19397v -9.31022h 3.19397v 2.11766h 3.19397v -4.58628h 3.19397v 0.235377h 3.19397v 1.19979h 3.19397v -1.08914h 3.19397v -8.71764h 3.19397v 5.35518h 3.19397v -5.40454h 3.19397v 1.97889h 3.19397v 1.104h 3.19397v -4.72949h
 3.19397v 3.16065h 3.19397v -1.81566h 3.19397v -4.51325h 3.19397v 1.93672h 3.19397v 0.134593h 3.19397v 5.14052h 3.19397v -5.62153h 3.19397v 1.17451h 3.19397v -1.69335h 3.19397v 2.22311h 3.19397v -1.9907h 3.19397v 0.856288h 3.19397v 3.56378h 3.19397v
 -6.7127h 3.19397v -5.49633h 3.19397v -11.9941h 3.19397v -8.65045h 3.19397v -32.0719h 3.19397v -57.8257h 3.19397v -99.7602h 3.19397v 209.52h 3.19397v 78.4822h 3.19397v 3.05116h 3.19397v 0.850527h 3.19397v 0.341122h 3.19397v 0.157291h 3.19397v
 0.242674h 3.19397v -0.223425h 3.19397v 0.286481h 3.19397v -0.0385604h 3.19397v -0.342095h 3.19397v 0.380655h 22.3578v -0.0954322h 3.19397v 0.0954322h 6.38793v -0.0619563h 3.19397v 0.0619563h 12.7759v -0.039249h 3.19397v 0.039249h 79.8492"
 fill="none" stroke="black" stroke-width="5"/>
<path d="M57.1929,345.762h 453.543" fill="none" stroke="black"/>
<path d="M57.1929,336.541v 9.22031" fill="none" stroke="black"/>
<path d="M69.9688,341.152v 4.61016" fill="none" stroke="black"/>
<path d="M82.7447,341.152v 4.61016" fill="none" stroke="black"/>
<path d="M95.5205,341.152v 4.61016" fill="none" stroke="black"/>
<path d="M108.296,341.152v 4.61016" fill="none" stroke="black"/>
<path d="M121.072,336.541v 9.22031" fill="none" stroke="black"/>
<path d="M133.848,341.152v 4.61016" fill="none" stroke="black"/>
<path d="M146.624,341.152v 4.61016" fill="none" stroke="black"/>
<path d="M159.4,341.152v 4.61016" fill="none" stroke="black"/>
<path d="M172.176,341.152v 4.61016" fill="none" stroke="black"/>
<path d="M184.952,336.541v 9.22031" fill="none" stroke="black"/>
<path d="M197.727,341.152v 4.61016" fill="none" stroke="black"/>
<path d="M210.503,341.152v 4.61016" fill="none" stroke="black"/>
<path d="M223.279,341.152v 4.61016" fill="none" stroke="black"/>
<path d="M236.055,341.152v 4.61016" fill="none" stroke="black"/>
<path d="M248.831,336.541v 9.22031" fill="none" stroke="black"/>
<path d="M261.607,341.152v 4.61016" fill="none" stroke="black"/>
<path d="M274.383,341.152v 4.61016" fill="none" stroke="black"/>
<path d="M287.159,341.152v 4.61016" fill="none" stroke="black"/>
<path d="M299.934,341.152v 4.61016" fill="none" stroke="black"/>
<path d="M312.71,336.541v 9.22031" fill="none" stroke="black"/>
<path d="M325.486,341.152v 4.61016" fill="none" stroke="black"/>
<path d="M338.262,341.152v 4.61016" fill="none" stroke="black"/>
<path d="M351.038,341.152v 4.61016" fill="none" stroke="black"/>
<path d="M363.814,341.152v 4.61016" fill="none" stroke="black"/>
<path d="M376.59,336.541v 9.22031" fill="none" stroke="black"/>
<path d="M389.365,341.152v 4.61016" fill="none" stroke="black"/>
<path d="M402.141,341.152v 4.61016" fill="none" stroke="black"/>
<path d="M414.917,341.152v 4.61016" fill="none" stroke="black"/>
<path d="M427.693,341.152v 4.61016" fill="none" stroke="black"/>
<path d="M440.469,336.541v 9.22031" fill="none" stroke="black"/>
<path d="M453.245,341.152v 4.61016" fill="none" stroke="black"/>
<path d="M466.021,341.152v 4.61016" fill="none" stroke="black"/>
<path d="M478.797,341.152v 4.61016" fill="none" stroke="black"/>
<path d="M491.572,341.152v 4.61016" fill="none" stroke="black"/>
<path d="M504.348,336.541v 9.22031" fill="none" stroke="black"/>
<path d="M504.348,336.541v 9.22031" fill="none" stroke="black"/>
<text xml:space="preserve" x="51.6698" y="362.25" fill="black" font-size="18.1229" font-family="Helvetica">0</text>
<text xml:space="preserve" x="108.525" y="362.25" fill="black" font-size="18.1229" font-family="Helvetica">0.5</text>
<text xml:space="preserve" x="181.625" y="362.25" fill="black" font-size="18.1229" font-family="Helvetica">1</text>
<text xml:space="preserve" x="236.044" y="362.25" fill="black" font-size="18.1229" font-family="Helvetica">1.5</text>
<text xml:space="preserve" x="307.519" y="362.25" fill="black" font-size="18.1229" font-family="Helvetica">2</text>
<text xml:space="preserve" x="364.374" y="362.25" fill="black" font-size="18.1229" font-family="Helvetica">2.5</text>
<text xml:space="preserve" x="435.037" y="362.25" fill="black" font-size="18.1229" font-family="Helvetica">3</text>
<text xml:space="preserve" x="491.893" y="362.25" fill="black" font-size="18.1229" font-family="Helvetica">3.5</text>
<path d="M57.1929,345.762v -307.344" fill="none" stroke="black"/>
<path d="M70.7992,345.762h -13.6063" fill="none" stroke="black"/>
<path d="M63.9961,334.104h -6.80315" fill="none" stroke="black"/>
<path d="M63.9961,322.446h -6.80315" fill="none" stroke="black"/>
<path d="M63.9961,310.787h -6.80315" fill="none" stroke="black"/>
<path d="M63.9961,299.129h -6.80315" fill="none" stroke="black"/>
<path d="M70.7992,287.471h -13.6063" fill="none" stroke="black"/>
<path d="M63.9961,275.813h -6.80315" fill="none" stroke="black"/>
<path d="M63.9961,264.155h -6.80315" fill="none" stroke="black"/>
<path d="M63.9961,252.497h -6.80315" fill="none" stroke="black"/>
<path d="M63.9961,240.839h -6.80315" fill="none" stroke="black"/>
<path d="M70.7992,229.181h -13.6063" fill="none" stroke="black"/>
<path d="M63.9961,217.523h -6.80315" fill="none" stroke="black"/>
<path d="M63.9961,205.864h -6.80315" fill="none" stroke="black"/>
<path d="M63.9961,194.206h -6.80315" fill="none" stroke="black"/>
<path d="M63.9961,182.548h -6.80315" fill="none" stroke="black"/>
<path d="M70.7992,170.89h -13.6063" fill="none" stroke="black"/>
<path d="M63.9961,159.232h -6.80315" fill="none" stroke="black"/>
<path d="M63.9961,147.574h -6.80315" fill="none" stroke="black"/>
<path d="M63.9961,135.916h -6.80315" fill="none" stroke="black"/>
<path d="M63.9961,124.258h -6.80315" fill="none" stroke="black"/>
<path d="M70.7992,112.6h -13.6063" fill="none" stroke="black"/>
<path d="M63.9961,100.941h -6.80315" fill="none" stroke="black"/>
<path d="M63.9961,89.2833h -6.80315" fill="none" stroke="black"/>
<path d="M63.9961,77.6252h -6.80315" fill="none" stroke="black"/>
<path d="M63.9961,65.9671h -6.80315" fill="none" stroke="black"/>
<path d="M70.7992,54.309h -13.6063" fill="none" stroke="black"/>
<path d="M70.7992,54.309h -13.6063" fill="none" stroke="black"/>
<path d="M63.9961,42.6509h -6.80315" fill="none" stroke="black"/>
<text xml:space="preserve" x="44.3598" y="351.691" fill="black" font-size="18.1229" font-family="Helvetica">0</text>
<text xml:space="preserve" x="24.8666" y="293.211" fill="black" font-size="18.1229" font-family="Helvetica">500</text>
<text xml:space="preserve" x="15.1199" y="235.544" fill="black" font-size="18.1229" font-family="Helvetica">1000</text>
<text xml:space="preserve" x="15.1199" y="177.064" fill="black" font-size="18.1229" font-family="Helvetica">1500</text>
<text xml:space="preserve" x="15.1199" y="118.584" fill="black" font-size="18.1229" font-family="Helvetica">2000</text>
<text xml:space="preserve" x="15.1199" y="60.1042" fill="black" font-size="18.1229" font-family="Helvetica">2500</text>
<text xml:space="preserve" x="85.783" y="26.8032" fill="black" font-size="12.2486" font-family="Helvetica">3</text>
<text xml:space="preserve" x="66.2898" y="35.7377" fill="black" font-size="18.1229" font-family="Helvetica">10</text>
<text xml:space="preserve" x="56.5431" y="35.7377" fill="black" font-size="18.1229" font-family="Times">&#0215;</text>
<path d="M57.1929,345.762h 99.013v -0.118203h 3.19397v -0.15668h 3.19397v -0.470589h 3.19397v -0.56365h 3.19397v -3.34946h 3.19397v -1.01117h 3.19397v -3.29596h 3.19397v -4.06493h 3.19397v -1.89213h 3.19397v -1.74872h 3.19397v -4.6623h 3.19397v
 -5.94791h 3.19397v 2.33302h 3.19397v -7.18906h 3.19397v -7.27026h 3.19397v 2.13543h 3.19397v -8.20487h 3.19397v -2.57668h 3.19397v -1.50509h 3.19397v -7.78957h 3.19397v -8.7771h 3.19397v -3.88292h 3.19397v -2.74284h 3.19397v -0.999785h 3.19397v
 -2.83681h 3.19397v -7.46665h 3.19397v -3.43804h 3.19397v -2.22364h 3.19397v -1.62024h 3.19397v -3.05003h 3.19397v -2.11005h 3.19397v -9.50733h 3.19397v 6.75186h 3.19397v 0.756211h 3.19397v -8.08385h 3.19397v 1.04038h 3.19397v 0.928357h 3.19397v
 -0.704696h 3.19397v -1.56429h 3.19397v 1.09547h 3.19397v -6.51785h 3.19397v -1.13498h 3.19397v 0.601901h 3.19397v 3.62505h 3.19397v 8.3172h 3.19397v -4.62957h 3.19397v 9.85758h 3.19397v -3.93493h 3.19397v 2.49563h 3.19397v 9.71893h 3.19397v 2.35721h
 3.19397v 11.3423h 3.19397v 6.6231h 3.19397v 10.7099h 3.19397v 7.54911h 3.19397v 2.42038h 3.19397v 10.9604h 3.19397v 19.9876h 3.19397v 11.5136h 3.19397v 2.86134h 3.19397v 0.0776965h 3.19397v 0.697267h 3.19397v 0.218276h 3.19397v -0.577622h 3.19397v
 -0.142971h 3.19397v 0.0366929h 3.19397v 0.557901h 3.19397v -0.152133h 3.19397v -0.00549155h 3.19397v -0.124988h 3.19397v 0.038864h 3.19397v -0.0902269h 3.19397v -0.148934h 3.19397v 0.676472h 6.38793v -0.394714h 3.19397v 0.102716h 3.19397v 0.0308957h
 3.19397v 0.128485h 3.19397v 0.132618h 3.19397v -0.424928h 3.19397v 0.341972h 3.19397v -0.0104695h 3.19397v 0.0934255h 89.4311" fill="none" stroke="#ff0000" stroke-width="5"/></svg>
