<?xml version="1.0" encoding="UTF-8" standalone="no"?>
<svg
   xmlns:dc="http://purl.org/dc/elements/1.1/"
   xmlns:cc="http://creativecommons.org/ns#"
   xmlns:rdf="http://www.w3.org/1999/02/22-rdf-syntax-ns#"
   xmlns:svg="http://www.w3.org/2000/svg"
   xmlns="http://www.w3.org/2000/svg"
   xmlns:sodipodi="http://sodipodi.sourceforge.net/DTD/sodipodi-0.dtd"
   xmlns:inkscape="http://www.inkscape.org/namespaces/inkscape"
   width="567.429"
   height="385.492"
   viewBox="0 0 567.429 385.492"
   shape-rendering="crispEdges"
   version="1.1"
   id="svg208"
   sodipodi:docname="omega_sub.svg"
   inkscape:version="0.92.4 (5da689c313, 2019-01-14)"
   inkscape:export-filename="C:\Users\eggne\Documents\01-18-19\Presentation\omega_sub.png"
   inkscape:export-xdpi="96"
   inkscape:export-ydpi="96">
  <metadata
     id="metadata212">
    <rdf:RDF>
      <cc:Work
         rdf:about="">
        <dc:format>image/svg+xml</dc:format>
        <dc:type
           rdf:resource="http://purl.org/dc/dcmitype/StillImage" />
      </cc:Work>
    </rdf:RDF>
  </metadata>
  <sodipodi:namedview
     pagecolor="#ffffff"
     bordercolor="#666666"
     borderopacity="1"
     objecttolerance="10"
     gridtolerance="10"
     guidetolerance="10"
     inkscape:pageopacity="0"
     inkscape:pageshadow="2"
     inkscape:window-width="1920"
     inkscape:window-height="1001"
     id="namedview210"
     showgrid="false"
     inkscape:zoom="2.3897262"
     inkscape:cx="268.52593"
     inkscape:cy="152.85464"
     inkscape:window-x="-9"
     inkscape:window-y="-9"
     inkscape:window-maximized="1"
     inkscape:current-layer="svg208" />
  <title
     id="title2">
/mnt/c/Users/eggne/Documents/01-18-19/Presentation/omega_sub.svg
</title>
  <desc
     id="desc4">
Creator: ROOT Version 6.18/04
CreationDate: Tue Feb 25 08:52:13 2020</desc>
  <defs
     id="defs6" />
  <rect
     x="0.5"
     y="0"
     width="566.929"
     height="384.992"
     fill="white"
     id="rect8" />
  <rect
     x="56.9492"
     y="38.5804"
     width="454.031"
     height="307.831"
     fill="white"
     id="rect10" />
  <rect
     x="56.9492"
     y="38.5804"
     width="454.031"
     height="307.831"
     fill="none"
     stroke="black"
     id="rect12" />
  <rect
     x="56.9492"
     y="38.5804"
     width="454.031"
     height="307.831"
     fill="white"
     id="rect14" />
  <rect
     x="56.9492"
     y="38.5804"
     width="454.031"
     height="307.831"
     fill="none"
     stroke="black"
     id="rect16" />
  <path
     d="M56.9492,346.412h 39.7277v -9.5056e-05h 5.67538v -0.0175932h 5.67538v -0.0145358h 5.67538v -0.0547838h 5.67538v -0.0368985h 5.67538v -0.13064h 5.67538v -0.211233h 5.67538v -0.747523h 5.67538v -1.5285h 5.67538v -2.76413h 5.67538v -3.67598h  5.67538v -4.45051h 5.67538v -7.60709h 5.67538v -9.93535h 5.67538v -10.4037h 5.67538v -12.9467h 5.67538v -15.8947h 5.67538v -9.71433h 5.67538v -18.6426h 5.67538v -17.3013h 5.67538v -14.3717h 5.67538v -13.531h 5.67538v -15.749h 5.67538v -13.8323h  5.67538v -9.77678h 5.67538v -16.4385h 5.67538v 0.86381h 5.67538v -10.2157h 5.67538v -0.800367h 5.67538v -23.935h 5.67538v -9.55984h 5.67538v -1.60029h 5.67538v -15.7579h 5.67538v 8.26662h 5.67538v -6.12225h 5.67538v -6.49537h 5.67538v -10.1702h  5.67538v 3.69111h 5.67538v -4.22263h 5.67538v -17.3372h 5.67538v 6.19157h 5.67538v -2.93842h 5.67538v 13.2057h 5.67538v 10.9062h 5.67538v -1.97879h 5.67538v 12.701h 5.67538v -6.84353h 5.67538v 17.2854h 5.67538v -7.80551h 5.67538v 25.2151h 5.67538v  -0.0754697h 5.67538v 9.67903h 5.67538v 5.38733h 5.67538v 20.5826h 5.67538v 5.37625h 5.67538v -9.09693h 5.67538v 36.7108h 5.67538v -7.0964h 5.67538v 4.40588h 5.67538v 20.59h 5.67538v 5.054h 5.67538v 82.3522h 5.67538v 53.3644h 62.4292"
     fill="none"
     stroke="#000099"
     id="path18" />
  <path
     d="M56.9492,346.412h 454.031"
     fill="none"
     stroke="black"
     id="path20" />
  <path
     d="M56.9492,337.162v 9.24974"
     fill="none"
     stroke="black"
     id="path22" />
  <path
     d="M68.3,341.787v 4.62487"
     fill="none"
     stroke="black"
     id="path24" />
  <path
     d="M79.6508,341.787v 4.62487"
     fill="none"
     stroke="black"
     id="path26" />
  <path
     d="M91.0015,341.787v 4.62487"
     fill="none"
     stroke="black"
     id="path28" />
  <path
     d="M102.352,337.162v 9.24974"
     fill="none"
     stroke="black"
     id="path30" />
  <path
     d="M113.703,341.787v 4.62487"
     fill="none"
     stroke="black"
     id="path32" />
  <path
     d="M125.054,341.787v 4.62487"
     fill="none"
     stroke="black"
     id="path34" />
  <path
     d="M136.405,341.787v 4.62487"
     fill="none"
     stroke="black"
     id="path36" />
  <path
     d="M147.755,337.162v 9.24974"
     fill="none"
     stroke="black"
     id="path38" />
  <path
     d="M159.106,341.787v 4.62487"
     fill="none"
     stroke="black"
     id="path40" />
  <path
     d="M170.457,341.787v 4.62487"
     fill="none"
     stroke="black"
     id="path42" />
  <path
     d="M181.808,341.787v 4.62487"
     fill="none"
     stroke="black"
     id="path44" />
  <path
     d="M193.158,337.162v 9.24974"
     fill="none"
     stroke="black"
     id="path46" />
  <path
     d="M204.509,341.787v 4.62487"
     fill="none"
     stroke="black"
     id="path48" />
  <path
     d="M215.86,341.787v 4.62487"
     fill="none"
     stroke="black"
     id="path50" />
  <path
     d="M227.211,341.787v 4.62487"
     fill="none"
     stroke="black"
     id="path52" />
  <path
     d="M238.562,337.162v 9.24974"
     fill="none"
     stroke="black"
     id="path54" />
  <path
     d="M249.912,341.787v 4.62487"
     fill="none"
     stroke="black"
     id="path56" />
  <path
     d="M261.263,341.787v 4.62487"
     fill="none"
     stroke="black"
     id="path58" />
  <path
     d="M272.614,341.787v 4.62487"
     fill="none"
     stroke="black"
     id="path60" />
  <path
     d="M283.965,337.162v 9.24974"
     fill="none"
     stroke="black"
     id="path62" />
  <path
     d="M295.315,341.787v 4.62487"
     fill="none"
     stroke="black"
     id="path64" />
  <path
     d="M306.666,341.787v 4.62487"
     fill="none"
     stroke="black"
     id="path66" />
  <path
     d="M318.017,341.787v 4.62487"
     fill="none"
     stroke="black"
     id="path68" />
  <path
     d="M329.368,337.162v 9.24974"
     fill="none"
     stroke="black"
     id="path70" />
  <path
     d="M340.718,341.787v 4.62487"
     fill="none"
     stroke="black"
     id="path72" />
  <path
     d="M352.069,341.787v 4.62487"
     fill="none"
     stroke="black"
     id="path74" />
  <path
     d="M363.42,341.787v 4.62487"
     fill="none"
     stroke="black"
     id="path76" />
  <path
     d="M374.771,337.162v 9.24974"
     fill="none"
     stroke="black"
     id="path78" />
  <path
     d="M386.121,341.787v 4.62487"
     fill="none"
     stroke="black"
     id="path80" />
  <path
     d="M397.472,341.787v 4.62487"
     fill="none"
     stroke="black"
     id="path82" />
  <path
     d="M408.823,341.787v 4.62487"
     fill="none"
     stroke="black"
     id="path84" />
  <path
     d="M420.174,337.162v 9.24974"
     fill="none"
     stroke="black"
     id="path86" />
  <path
     d="M431.525,341.787v 4.62487"
     fill="none"
     stroke="black"
     id="path88" />
  <path
     d="M442.875,341.787v 4.62487"
     fill="none"
     stroke="black"
     id="path90" />
  <path
     d="M454.226,341.787v 4.62487"
     fill="none"
     stroke="black"
     id="path92" />
  <path
     d="M465.577,337.162v 9.24974"
     fill="none"
     stroke="black"
     id="path94" />
  <path
     d="M476.928,341.787v 4.62487"
     fill="none"
     stroke="black"
     id="path96" />
  <path
     d="M488.278,341.787v 4.62487"
     fill="none"
     stroke="black"
     id="path98" />
  <path
     d="M499.629,341.787v 4.62487"
     fill="none"
     stroke="black"
     id="path100" />
  <path
     d="M510.98,337.162v 9.24974"
     fill="none"
     stroke="black"
     id="path102" />
  <text
     xml:space="preserve"
     x="53.2943"
     y="359.001"
     fill="black"
     font-size="12.8621"
     font-family="Helvetica"
     id="text104">0</text>
  <text
     xml:space="preserve"
     x="93.093"
     y="359.001"
     fill="black"
     font-size="12.8621"
     font-family="Helvetica"
     id="text106">0.2</text>
  <text
     xml:space="preserve"
     x="138.577"
     y="359.001"
     fill="black"
     font-size="12.8621"
     font-family="Helvetica"
     id="text108">0.4</text>
  <text
     xml:space="preserve"
     x="184.062"
     y="359.001"
     fill="black"
     font-size="12.8621"
     font-family="Helvetica"
     id="text110">0.6</text>
  <text
     xml:space="preserve"
     x="229.546"
     y="359.001"
     fill="black"
     font-size="12.8621"
     font-family="Helvetica"
     id="text112">0.8</text>
  <text
     xml:space="preserve"
     x="281.528"
     y="359.001"
     fill="black"
     font-size="12.8621"
     font-family="Helvetica"
     id="text114">1</text>
  <text
     xml:space="preserve"
     x="319.702"
     y="359.001"
     fill="black"
     font-size="12.8621"
     font-family="Helvetica"
     id="text116">1.2</text>
  <text
     xml:space="preserve"
     x="365.186"
     y="359.001"
     fill="black"
     font-size="12.8621"
     font-family="Helvetica"
     id="text118">1.4</text>
  <text
     xml:space="preserve"
     x="410.671"
     y="359.001"
     fill="black"
     font-size="12.8621"
     font-family="Helvetica"
     id="text120">1.6</text>
  <text
     xml:space="preserve"
     x="456.155"
     y="359.001"
     fill="black"
     font-size="12.8621"
     font-family="Helvetica"
     id="text122">1.8</text>
  <text
     xml:space="preserve"
     x="507.325"
     y="359.001"
     fill="black"
     font-size="12.8621"
     font-family="Helvetica"
     id="text124">2</text>
  <path
     d="M56.9492,346.412v -307.831"
     fill="none"
     stroke="black"
     id="path126" />
  <path
     d="M70.5484,346.412h -13.5991"
     fill="none"
     stroke="black"
     id="path128" />
  <path
     d="M63.7488,335.988h -6.79956"
     fill="none"
     stroke="black"
     id="path130" />
  <path
     d="M63.7488,325.564h -6.79956"
     fill="none"
     stroke="black"
     id="path132" />
  <path
     d="M63.7488,315.14h -6.79956"
     fill="none"
     stroke="black"
     id="path134" />
  <path
     d="M63.7488,304.716h -6.79956"
     fill="none"
     stroke="black"
     id="path136" />
  <path
     d="M70.5484,294.292h -13.5991"
     fill="none"
     stroke="black"
     id="path138" />
  <path
     d="M63.7488,283.868h -6.79956"
     fill="none"
     stroke="black"
     id="path140" />
  <path
     d="M63.7488,273.444h -6.79956"
     fill="none"
     stroke="black"
     id="path142" />
  <path
     d="M63.7488,263.02h -6.79956"
     fill="none"
     stroke="black"
     id="path144" />
  <path
     d="M63.7488,252.596h -6.79956"
     fill="none"
     stroke="black"
     id="path146" />
  <path
     d="M70.5484,242.172h -13.5991"
     fill="none"
     stroke="black"
     id="path148" />
  <path
     d="M63.7488,231.748h -6.79956"
     fill="none"
     stroke="black"
     id="path150" />
  <path
     d="M63.7488,221.324h -6.79956"
     fill="none"
     stroke="black"
     id="path152" />
  <path
     d="M63.7488,210.9h -6.79956"
     fill="none"
     stroke="black"
     id="path154" />
  <path
     d="M63.7488,200.476h -6.79956"
     fill="none"
     stroke="black"
     id="path156" />
  <path
     d="M70.5484,190.052h -13.5991"
     fill="none"
     stroke="black"
     id="path158" />
  <path
     d="M63.7488,179.628h -6.79956"
     fill="none"
     stroke="black"
     id="path160" />
  <path
     d="M63.7488,169.204h -6.79956"
     fill="none"
     stroke="black"
     id="path162" />
  <path
     d="M63.7488,158.78h -6.79956"
     fill="none"
     stroke="black"
     id="path164" />
  <path
     d="M63.7488,148.356h -6.79956"
     fill="none"
     stroke="black"
     id="path166" />
  <path
     d="M70.5484,137.932h -13.5991"
     fill="none"
     stroke="black"
     id="path168" />
  <path
     d="M63.7488,127.508h -6.79956"
     fill="none"
     stroke="black"
     id="path170" />
  <path
     d="M63.7488,117.084h -6.79956"
     fill="none"
     stroke="black"
     id="path172" />
  <path
     d="M63.7488,106.66h -6.79956"
     fill="none"
     stroke="black"
     id="path174" />
  <path
     d="M63.7488,96.2357h -6.79956"
     fill="none"
     stroke="black"
     id="path176" />
  <path
     d="M70.5484,85.8117h -13.5991"
     fill="none"
     stroke="black"
     id="path178" />
  <path
     d="M70.5484,85.8117h -13.5991"
     fill="none"
     stroke="black"
     id="path180" />
  <path
     d="M63.7488,75.3877h -6.79956"
     fill="none"
     stroke="black"
     id="path182" />
  <path
     d="M63.7488,64.9637h -6.79956"
     fill="none"
     stroke="black"
     id="path184" />
  <path
     d="M63.7488,54.5397h -6.79956"
     fill="none"
     stroke="black"
     id="path186" />
  <path
     d="M63.7488,44.1157h -6.79956"
     fill="none"
     stroke="black"
     id="path188" />
  <text
     xml:space="preserve"
     x="47.6087"
     y="350.879"
     fill="black"
     font-size="12.8621"
     font-family="Helvetica"
     id="text190">0</text>
  <text
     xml:space="preserve"
     x="27.3032"
     y="298.897"
     fill="black"
     font-size="12.8621"
     font-family="Helvetica"
     id="text192">1000</text>
  <text
     xml:space="preserve"
     x="27.3032"
     y="246.915"
     fill="black"
     font-size="12.8621"
     font-family="Helvetica"
     id="text194">2000</text>
  <text
     xml:space="preserve"
     x="27.3032"
     y="194.12"
     fill="black"
     font-size="12.8621"
     font-family="Helvetica"
     id="text196">3000</text>
  <text
     xml:space="preserve"
     x="27.3032"
     y="142.138"
     fill="black"
     font-size="12.8621"
     font-family="Helvetica"
     id="text198">4000</text>
  <text
     xml:space="preserve"
     x="27.3032"
     y="90.1564"
     fill="black"
     font-size="12.8621"
     font-family="Helvetica"
     id="text200">5000</text>
  <text
     xml:space="preserve"
     x="76.0364"
     y="30.0521"
     fill="black"
     font-size="8.74142"
     font-family="Helvetica"
     id="text202">3</text>
  <text
     xml:space="preserve"
     x="63.0409"
     y="36.5499"
     fill="black"
     font-size="12.8621"
     font-family="Helvetica"
     id="text204">10</text>
  <text
     xml:space="preserve"
     x="56.5431"
     y="36.5499"
     fill="black"
     font-size="12.8621"
     font-family="Times"
     id="text206">×</text>
  <text
     xml:space="preserve"
     style="font-style:normal;font-weight:normal;font-size:40px;line-height:1.25;font-family:sans-serif;letter-spacing:0px;word-spacing:0px;fill:#000000;fill-opacity:1;stroke:none"
     x="338.09814"
     y="379.11893"
     id="text216"><tspan
       sodipodi:role="line"
       id="tspan214"
       x="338.09814"
       y="379.11893"
       style="font-size:24px">E<tspan
   style="font-size:64.99999762%;baseline-shift:sub"
   id="tspan222">beam</tspan>-E<tspan
   style="font-size:64.99999762%;baseline-shift:sub"
   id="tspan224">e</tspan> [GeV]</tspan></text>
</svg>
