<?xml version="1.0" encoding="UTF-8" standalone="no"?>
<svg
   xmlns:dc="http://purl.org/dc/elements/1.1/"
   xmlns:cc="http://creativecommons.org/ns#"
   xmlns:rdf="http://www.w3.org/1999/02/22-rdf-syntax-ns#"
   xmlns:svg="http://www.w3.org/2000/svg"
   xmlns="http://www.w3.org/2000/svg"
   xmlns:sodipodi="http://sodipodi.sourceforge.net/DTD/sodipodi-0.dtd"
   xmlns:inkscape="http://www.inkscape.org/namespaces/inkscape"
   width="567.429"
   height="385.492"
   viewBox="0 0 567.429 385.492"
   shape-rendering="crispEdges"
   version="1.1"
   id="svg208"
   sodipodi:docname="omega.svg"
   inkscape:version="0.92.4 (5da689c313, 2019-01-14)"
   inkscape:export-filename="C:\Users\eggne\Documents\01-18-19\Presentation\omega.png"
   inkscape:export-xdpi="96"
   inkscape:export-ydpi="96">
  <metadata
     id="metadata212">
    <rdf:RDF>
      <cc:Work
         rdf:about="">
        <dc:format>image/svg+xml</dc:format>
        <dc:type
           rdf:resource="http://purl.org/dc/dcmitype/StillImage" />
      </cc:Work>
    </rdf:RDF>
  </metadata>
  <sodipodi:namedview
     pagecolor="#ffffff"
     bordercolor="#666666"
     borderopacity="1"
     objecttolerance="10"
     gridtolerance="10"
     guidetolerance="10"
     inkscape:pageopacity="0"
     inkscape:pageshadow="2"
     inkscape:window-width="1920"
     inkscape:window-height="1001"
     id="namedview210"
     showgrid="false"
     inkscape:zoom="1.6897916"
     inkscape:cx="302.04775"
     inkscape:cy="185.07159"
     inkscape:window-x="-9"
     inkscape:window-y="-9"
     inkscape:window-maximized="1"
     inkscape:current-layer="svg208" />
  <title
     id="title2">
/mnt/c/Users/eggne/Documents/01-18-19/Presentation/omega.svg
</title>
  <desc
     id="desc4">
Creator: ROOT Version 6.18/04
CreationDate: Tue Feb 25 08:51:52 2020</desc>
  <defs
     id="defs6" />
  <rect
     x="0.5"
     y="0"
     width="566.929"
     height="384.992"
     fill="white"
     id="rect8" />
  <rect
     x="56.9492"
     y="38.5804"
     width="454.031"
     height="307.831"
     fill="white"
     id="rect10" />
  <rect
     x="56.9492"
     y="38.5804"
     width="454.031"
     height="307.831"
     fill="none"
     stroke="black"
     id="rect12" />
  <rect
     x="56.9492"
     y="38.5804"
     width="454.031"
     height="307.831"
     fill="white"
     id="rect14" />
  <rect
     x="56.9492"
     y="38.5804"
     width="454.031"
     height="307.831"
     fill="none"
     stroke="black"
     id="rect16" />
  <path
     d="M56.9492,345.994h 5.60532v -0.925212h 5.60532v -0.873569h 5.60532v -1.58406h 5.60532v -3.21867h 5.60532v -5.09138h 5.60532v -7.95889h 5.60532v -11.6608h 5.60532v -15.3644h 5.60532v -18.7249h 5.60532v -20.1301h 5.60532v -20.6433h 5.60532v  -19.4082h 5.60532v -16.9479h 5.60532v -14.0206h 5.60532v -11.6114h 5.60532v -8.53293h 5.60532v -6.84776h 5.60532v -4.94189h 5.60532v -3.93079h 5.60532v -3.30293h 5.60532v -2.96155h 5.60532v -3.48014h 5.60532v -2.21301h 5.60532v -3.13278h 5.60532v  -2.18963h 5.60532v -2.75389h 5.60532v -2.07602h 5.60532v -1.69332h 5.60532v -1.09155h 5.60532v -1.5759h 5.60532v -1.66288h 5.60532v -0.860523h 5.60532v -1.6868h 5.60532v -1.99991h 5.60532v -2.29237h 5.60532v -3.04526h 5.60532v -2.75389h 5.60532v  -4.25913h 5.60532v -3.54755h 5.60532v -3.12137h 5.60532v -4.62986h 5.60532v -5.14574h 5.60532v -4.36948h 5.60532v -4.644h 5.60532v -4.74239h 5.60532v -3.49645h 5.60532v -4.83915h 5.60532v -3.05396h 5.60532v -3.04526h 5.60532v -1.95208h 5.60532v  -3.25564h 5.60532v -1.20245h 5.60532v -1.34487h 5.60532v -0.89477h 5.60532v -0.532731h 5.60532v -0.964895h 5.60532v -0.524033h 5.60532v 1.2829h 5.60532v -0.034247h 5.60532v 0.548495h 5.60532v 0.97631h 5.60532v 0.158732h 5.60532v 1.38293h 5.60532v  -1.1595h 5.60532v 0.893683h 5.60532v 1.8651h 5.60532v 1.73572h 5.60532v 170.57h 5.60532v 114.952h 67.2638"
     fill="none"
     stroke="#000099"
     id="path18" />
  <path
     d="M56.9492,346.412h 454.031"
     fill="none"
     stroke="black"
     id="path20" />
  <path
     d="M56.9492,337.162v 9.24974"
     fill="none"
     stroke="black"
     id="path22" />
  <path
     d="M68.1599,341.787v 4.62487"
     fill="none"
     stroke="black"
     id="path24" />
  <path
     d="M79.3705,341.787v 4.62487"
     fill="none"
     stroke="black"
     id="path26" />
  <path
     d="M90.5811,341.787v 4.62487"
     fill="none"
     stroke="black"
     id="path28" />
  <path
     d="M101.792,337.162v 9.24974"
     fill="none"
     stroke="black"
     id="path30" />
  <path
     d="M113.002,341.787v 4.62487"
     fill="none"
     stroke="black"
     id="path32" />
  <path
     d="M124.213,341.787v 4.62487"
     fill="none"
     stroke="black"
     id="path34" />
  <path
     d="M135.424,341.787v 4.62487"
     fill="none"
     stroke="black"
     id="path36" />
  <path
     d="M146.634,337.162v 9.24974"
     fill="none"
     stroke="black"
     id="path38" />
  <path
     d="M157.845,341.787v 4.62487"
     fill="none"
     stroke="black"
     id="path40" />
  <path
     d="M169.056,341.787v 4.62487"
     fill="none"
     stroke="black"
     id="path42" />
  <path
     d="M180.266,341.787v 4.62487"
     fill="none"
     stroke="black"
     id="path44" />
  <path
     d="M191.477,337.162v 9.24974"
     fill="none"
     stroke="black"
     id="path46" />
  <path
     d="M202.687,341.787v 4.62487"
     fill="none"
     stroke="black"
     id="path48" />
  <path
     d="M213.898,341.787v 4.62487"
     fill="none"
     stroke="black"
     id="path50" />
  <path
     d="M225.109,341.787v 4.62487"
     fill="none"
     stroke="black"
     id="path52" />
  <path
     d="M236.319,337.162v 9.24974"
     fill="none"
     stroke="black"
     id="path54" />
  <path
     d="M247.53,341.787v 4.62487"
     fill="none"
     stroke="black"
     id="path56" />
  <path
     d="M258.741,341.787v 4.62487"
     fill="none"
     stroke="black"
     id="path58" />
  <path
     d="M269.951,341.787v 4.62487"
     fill="none"
     stroke="black"
     id="path60" />
  <path
     d="M281.162,337.162v 9.24974"
     fill="none"
     stroke="black"
     id="path62" />
  <path
     d="M292.373,341.787v 4.62487"
     fill="none"
     stroke="black"
     id="path64" />
  <path
     d="M303.583,341.787v 4.62487"
     fill="none"
     stroke="black"
     id="path66" />
  <path
     d="M314.794,341.787v 4.62487"
     fill="none"
     stroke="black"
     id="path68" />
  <path
     d="M326.004,337.162v 9.24974"
     fill="none"
     stroke="black"
     id="path70" />
  <path
     d="M337.215,341.787v 4.62487"
     fill="none"
     stroke="black"
     id="path72" />
  <path
     d="M348.426,341.787v 4.62487"
     fill="none"
     stroke="black"
     id="path74" />
  <path
     d="M359.636,341.787v 4.62487"
     fill="none"
     stroke="black"
     id="path76" />
  <path
     d="M370.847,337.162v 9.24974"
     fill="none"
     stroke="black"
     id="path78" />
  <path
     d="M382.058,341.787v 4.62487"
     fill="none"
     stroke="black"
     id="path80" />
  <path
     d="M393.268,341.787v 4.62487"
     fill="none"
     stroke="black"
     id="path82" />
  <path
     d="M404.479,341.787v 4.62487"
     fill="none"
     stroke="black"
     id="path84" />
  <path
     d="M415.69,337.162v 9.24974"
     fill="none"
     stroke="black"
     id="path86" />
  <path
     d="M426.9,341.787v 4.62487"
     fill="none"
     stroke="black"
     id="path88" />
  <path
     d="M438.111,341.787v 4.62487"
     fill="none"
     stroke="black"
     id="path90" />
  <path
     d="M449.321,341.787v 4.62487"
     fill="none"
     stroke="black"
     id="path92" />
  <path
     d="M460.532,337.162v 9.24974"
     fill="none"
     stroke="black"
     id="path94" />
  <path
     d="M471.743,341.787v 4.62487"
     fill="none"
     stroke="black"
     id="path96" />
  <path
     d="M482.953,341.787v 4.62487"
     fill="none"
     stroke="black"
     id="path98" />
  <path
     d="M494.164,341.787v 4.62487"
     fill="none"
     stroke="black"
     id="path100" />
  <path
     d="M505.375,337.162v 9.24974"
     fill="none"
     stroke="black"
     id="path102" />
  <path
     d="M505.375,337.162v 9.24974"
     fill="none"
     stroke="black"
     id="path104" />
  <text
     xml:space="preserve"
     x="53.2943"
     y="359.001"
     fill="black"
     font-size="12.8621"
     font-family="Helvetica"
     id="text106">0</text>
  <text
     xml:space="preserve"
     x="92.2808"
     y="359.001"
     fill="black"
     font-size="12.8621"
     font-family="Helvetica"
     id="text108">0.2</text>
  <text
     xml:space="preserve"
     x="136.953"
     y="359.001"
     fill="black"
     font-size="12.8621"
     font-family="Helvetica"
     id="text110">0.4</text>
  <text
     xml:space="preserve"
     x="182.437"
     y="359.001"
     fill="black"
     font-size="12.8621"
     font-family="Helvetica"
     id="text112">0.6</text>
  <text
     xml:space="preserve"
     x="227.109"
     y="359.001"
     fill="black"
     font-size="12.8621"
     font-family="Helvetica"
     id="text114">0.8</text>
  <text
     xml:space="preserve"
     x="278.279"
     y="359.001"
     fill="black"
     font-size="12.8621"
     font-family="Helvetica"
     id="text116">1</text>
  <text
     xml:space="preserve"
     x="316.453"
     y="359.001"
     fill="black"
     font-size="12.8621"
     font-family="Helvetica"
     id="text118">1.2</text>
  <text
     xml:space="preserve"
     x="361.125"
     y="359.001"
     fill="black"
     font-size="12.8621"
     font-family="Helvetica"
     id="text120">1.4</text>
  <text
     xml:space="preserve"
     x="406.61"
     y="359.001"
     fill="black"
     font-size="12.8621"
     font-family="Helvetica"
     id="text122">1.6</text>
  <text
     xml:space="preserve"
     x="451.282"
     y="359.001"
     fill="black"
     font-size="12.8621"
     font-family="Helvetica"
     id="text124">1.8</text>
  <text
     xml:space="preserve"
     x="501.639"
     y="359.001"
     fill="black"
     font-size="12.8621"
     font-family="Helvetica"
     id="text126">2</text>
  <path
     d="M56.9492,346.412v -307.831"
     fill="none"
     stroke="black"
     id="path128" />
  <path
     d="M70.5484,346.412h -13.5991"
     fill="none"
     stroke="black"
     id="path130" />
  <path
     d="M63.7488,335.54h -6.79956"
     fill="none"
     stroke="black"
     id="path132" />
  <path
     d="M63.7488,324.667h -6.79956"
     fill="none"
     stroke="black"
     id="path134" />
  <path
     d="M63.7488,313.795h -6.79956"
     fill="none"
     stroke="black"
     id="path136" />
  <path
     d="M63.7488,302.923h -6.79956"
     fill="none"
     stroke="black"
     id="path138" />
  <path
     d="M70.5484,292.051h -13.5991"
     fill="none"
     stroke="black"
     id="path140" />
  <path
     d="M63.7488,281.179h -6.79956"
     fill="none"
     stroke="black"
     id="path142" />
  <path
     d="M63.7488,270.307h -6.79956"
     fill="none"
     stroke="black"
     id="path144" />
  <path
     d="M63.7488,259.435h -6.79956"
     fill="none"
     stroke="black"
     id="path146" />
  <path
     d="M63.7488,248.563h -6.79956"
     fill="none"
     stroke="black"
     id="path148" />
  <path
     d="M70.5484,237.691h -13.5991"
     fill="none"
     stroke="black"
     id="path150" />
  <path
     d="M63.7488,226.819h -6.79956"
     fill="none"
     stroke="black"
     id="path152" />
  <path
     d="M63.7488,215.947h -6.79956"
     fill="none"
     stroke="black"
     id="path154" />
  <path
     d="M63.7488,205.075h -6.79956"
     fill="none"
     stroke="black"
     id="path156" />
  <path
     d="M63.7488,194.203h -6.79956"
     fill="none"
     stroke="black"
     id="path158" />
  <path
     d="M70.5484,183.331h -13.5991"
     fill="none"
     stroke="black"
     id="path160" />
  <path
     d="M63.7488,172.459h -6.79956"
     fill="none"
     stroke="black"
     id="path162" />
  <path
     d="M63.7488,161.587h -6.79956"
     fill="none"
     stroke="black"
     id="path164" />
  <path
     d="M63.7488,150.715h -6.79956"
     fill="none"
     stroke="black"
     id="path166" />
  <path
     d="M63.7488,139.843h -6.79956"
     fill="none"
     stroke="black"
     id="path168" />
  <path
     d="M70.5484,128.971h -13.5991"
     fill="none"
     stroke="black"
     id="path170" />
  <path
     d="M63.7488,118.098h -6.79956"
     fill="none"
     stroke="black"
     id="path172" />
  <path
     d="M63.7488,107.226h -6.79956"
     fill="none"
     stroke="black"
     id="path174" />
  <path
     d="M63.7488,96.3543h -6.79956"
     fill="none"
     stroke="black"
     id="path176" />
  <path
     d="M63.7488,85.4823h -6.79956"
     fill="none"
     stroke="black"
     id="path178" />
  <path
     d="M70.5484,74.6102h -13.5991"
     fill="none"
     stroke="black"
     id="path180" />
  <path
     d="M70.5484,74.6102h -13.5991"
     fill="none"
     stroke="black"
     id="path182" />
  <path
     d="M63.7488,63.7382h -6.79956"
     fill="none"
     stroke="black"
     id="path184" />
  <path
     d="M63.7488,52.8661h -6.79956"
     fill="none"
     stroke="black"
     id="path186" />
  <path
     d="M63.7488,41.9941h -6.79956"
     fill="none"
     stroke="black"
     id="path188" />
  <text
     xml:space="preserve"
     x="47.6087"
     y="350.879"
     fill="black"
     font-size="12.8621"
     font-family="Helvetica"
     id="text190">0</text>
  <text
     xml:space="preserve"
     x="33.801"
     y="296.46"
     fill="black"
     font-size="12.8621"
     font-family="Helvetica"
     id="text192">100</text>
  <text
     xml:space="preserve"
     x="33.801"
     y="242.041"
     fill="black"
     font-size="12.8621"
     font-family="Helvetica"
     id="text194">200</text>
  <text
     xml:space="preserve"
     x="33.801"
     y="187.623"
     fill="black"
     font-size="12.8621"
     font-family="Helvetica"
     id="text196">300</text>
  <text
     xml:space="preserve"
     x="33.801"
     y="133.204"
     fill="black"
     font-size="12.8621"
     font-family="Helvetica"
     id="text198">400</text>
  <text
     xml:space="preserve"
     x="33.801"
     y="78.7853"
     fill="black"
     font-size="12.8621"
     font-family="Helvetica"
     id="text200">500</text>
  <text
     xml:space="preserve"
     x="76.0364"
     y="30.0521"
     fill="black"
     font-size="8.74142"
     font-family="Helvetica"
     id="text202">3</text>
  <text
     xml:space="preserve"
     x="63.0409"
     y="36.5499"
     fill="black"
     font-size="12.8621"
     font-family="Helvetica"
     id="text204">10</text>
  <text
     xml:space="preserve"
     x="56.5431"
     y="36.5499"
     fill="black"
     font-size="12.8621"
     font-family="Times"
     id="text206">×</text>
  <text
     xml:space="preserve"
     style="font-style:normal;font-weight:normal;font-size:40px;line-height:1.25;font-family:sans-serif;letter-spacing:0px;word-spacing:0px;fill:#000000;fill-opacity:1;stroke:none"
     x="335.9285"
     y="379.94128"
     id="text216"><tspan
       sodipodi:role="line"
       id="tspan214"
       x="335.9285"
       y="379.94128"
       style="font-size:24px">E<tspan
   style="font-size:64.99999762%;baseline-shift:sub"
   id="tspan222">beam</tspan>-E<tspan
   style="font-size:64.99999762%;baseline-shift:sub"
   id="tspan224">e</tspan> [GeV]</tspan></text>
</svg>
