<?xml version="1.0" encoding="UTF-8" standalone="no"?>
<svg
   xmlns:dc="http://purl.org/dc/elements/1.1/"
   xmlns:cc="http://creativecommons.org/ns#"
   xmlns:rdf="http://www.w3.org/1999/02/22-rdf-syntax-ns#"
   xmlns:svg="http://www.w3.org/2000/svg"
   xmlns="http://www.w3.org/2000/svg"
   xmlns:sodipodi="http://sodipodi.sourceforge.net/DTD/sodipodi-0.dtd"
   xmlns:inkscape="http://www.inkscape.org/namespaces/inkscape"
   width="567.429"
   height="384.68"
   viewBox="0 0 567.429 384.68"
   shape-rendering="crispEdges"
   version="1.1"
   id="svg168"
   sodipodi:docname="p_perp_cal_slice2.svg"
   inkscape:export-filename="C:\Users\eggne\Documents\01-18-19\Presentation\p_perp_cal_slice2.png"
   inkscape:export-xdpi="96"
   inkscape:export-ydpi="96"
   inkscape:version="0.92.4 (5da689c313, 2019-01-14)">
  <metadata
     id="metadata172">
    <rdf:RDF>
      <cc:Work
         rdf:about="">
        <dc:format>image/svg+xml</dc:format>
        <dc:type
           rdf:resource="http://purl.org/dc/dcmitype/StillImage" />
      </cc:Work>
    </rdf:RDF>
  </metadata>
  <sodipodi:namedview
     pagecolor="#ffffff"
     bordercolor="#666666"
     borderopacity="1"
     objecttolerance="10"
     gridtolerance="10"
     guidetolerance="10"
     inkscape:pageopacity="0"
     inkscape:pageshadow="2"
     inkscape:window-width="1920"
     inkscape:window-height="1001"
     id="namedview170"
     showgrid="false"
     inkscape:zoom="1.6897916"
     inkscape:cx="276.06429"
     inkscape:cy="143.95823"
     inkscape:window-x="-32000"
     inkscape:window-y="-32000"
     inkscape:window-maximized="0"
     inkscape:current-layer="svg168" />
  <title
     id="title2">
/mnt/c/Users/eggne/Documents/01-18-19/Presentation/p_perp_cal_slice2.svg
</title>
  <desc
     id="desc4">
Creator: ROOT Version 6.18/04
CreationDate: Tue Feb 25 08:55:26 2020</desc>
  <defs
     id="defs6" />
  <rect
     x="0.5"
     y="0"
     width="566.929"
     height="384.18"
     id="rect8"
     fill="white" />
  <rect
     x="56.9492"
     y="38.499"
     width="454.031"
     height="307.182"
     fill="white"
     id="rect10" />
  <rect
     x="56.9492"
     y="38.499"
     width="454.031"
     height="307.182"
     fill="none"
     stroke="black"
     id="rect12" />
  <rect
     x="56.9492"
     y="38.499"
     width="454.031"
     height="307.182"
     id="rect14"
     fill="white" />
  <rect
     x="56.9492"
     y="38.499"
     width="454.031"
     height="307.182"
     fill="none"
     stroke="black"
     id="rect16" />
  <path
     d="M56.9492,345.681h 108.967v -0.0727626h 13.6209v -6.54863h 13.6209v -20.228h 13.6209v -31.1666h 13.6209v -28.4744h 13.6209v -25.0546h 13.6209v -32.0155h 13.6209v -24.715h 13.6209v -26.3886h 13.6209v -26.3643h 13.6209v -20.9799h 13.6209v  -15.8137h 13.6209v -27.6255h 13.6209v -7.10648h 13.6209v 3.03177h 13.6209v 189.813h 4.54031v -10.4293h 4.54031v -19.2093h 4.54031v -19.9369h 4.54031v -6.52438h 4.54031v -4.53553h 4.54031v 130.924h 4.54031v 26.7524h 4.54031v 1.77056h 4.54031v  0.533592h 4.54031v 0.121271h 4.54031v 0.0242542h 9.08061v 0.0242542h 9.08061v 0.145525h 9.08061v 0.0485084h 9.08061v -0.0485084h 4.54031v 0.0485084h 9.08061v -0.0242542h 4.54031v -0.0242542h 4.54031v 0.0242542h 4.54031v 0.0242542h 27.2418"
     fill="none"
     stroke="#000099"
     id="path18" />
  <path
     d="M56.9492,345.681h 454.031"
     fill="none"
     stroke="black"
     id="path20" />
  <path
     d="M56.9492,336.451v 9.23022"
     fill="none"
     stroke="black"
     id="path22" />
  <path
     d="M72.0836,341.066v 4.61511"
     fill="none"
     stroke="black"
     id="path24" />
  <path
     d="M87.218,341.066v 4.61511"
     fill="none"
     stroke="black"
     id="path26" />
  <path
     d="M102.352,341.066v 4.61511"
     fill="none"
     stroke="black"
     id="path28" />
  <path
     d="M117.487,341.066v 4.61511"
     fill="none"
     stroke="black"
     id="path30" />
  <path
     d="M132.621,336.451v 9.23022"
     fill="none"
     stroke="black"
     id="path32" />
  <path
     d="M147.755,341.066v 4.61511"
     fill="none"
     stroke="black"
     id="path34" />
  <path
     d="M162.89,341.066v 4.61511"
     fill="none"
     stroke="black"
     id="path36" />
  <path
     d="M178.024,341.066v 4.61511"
     fill="none"
     stroke="black"
     id="path38" />
  <path
     d="M193.158,341.066v 4.61511"
     fill="none"
     stroke="black"
     id="path40" />
  <path
     d="M208.293,336.451v 9.23022"
     fill="none"
     stroke="black"
     id="path42" />
  <path
     d="M223.427,341.066v 4.61511"
     fill="none"
     stroke="black"
     id="path44" />
  <path
     d="M238.562,341.066v 4.61511"
     fill="none"
     stroke="black"
     id="path46" />
  <path
     d="M253.696,341.066v 4.61511"
     fill="none"
     stroke="black"
     id="path48" />
  <path
     d="M268.83,341.066v 4.61511"
     fill="none"
     stroke="black"
     id="path50" />
  <path
     d="M283.965,336.451v 9.23022"
     fill="none"
     stroke="black"
     id="path52" />
  <path
     d="M299.099,341.066v 4.61511"
     fill="none"
     stroke="black"
     id="path54" />
  <path
     d="M314.233,341.066v 4.61511"
     fill="none"
     stroke="black"
     id="path56" />
  <path
     d="M329.368,341.066v 4.61511"
     fill="none"
     stroke="black"
     id="path58" />
  <path
     d="M344.502,341.066v 4.61511"
     fill="none"
     stroke="black"
     id="path60" />
  <path
     d="M359.636,336.451v 9.23022"
     fill="none"
     stroke="black"
     id="path62" />
  <path
     d="M374.771,341.066v 4.61511"
     fill="none"
     stroke="black"
     id="path64" />
  <path
     d="M389.905,341.066v 4.61511"
     fill="none"
     stroke="black"
     id="path66" />
  <path
     d="M405.039,341.066v 4.61511"
     fill="none"
     stroke="black"
     id="path68" />
  <path
     d="M420.174,341.066v 4.61511"
     fill="none"
     stroke="black"
     id="path70" />
  <path
     d="M435.308,336.451v 9.23022"
     fill="none"
     stroke="black"
     id="path72" />
  <path
     d="M450.442,341.066v 4.61511"
     fill="none"
     stroke="black"
     id="path74" />
  <path
     d="M465.577,341.066v 4.61511"
     fill="none"
     stroke="black"
     id="path76" />
  <path
     d="M480.711,341.066v 4.61511"
     fill="none"
     stroke="black"
     id="path78" />
  <path
     d="M495.846,341.066v 4.61511"
     fill="none"
     stroke="black"
     id="path80" />
  <path
     d="M510.98,336.451v 9.23022"
     fill="none"
     stroke="black"
     id="path82" />
  <text
     xml:space="preserve"
     x="53.2943"
     y="358.189"
     fill="black"
     font-size="12.836"
     font-family="Helvetica"
     id="text84">0</text>
  <text
     xml:space="preserve"
     x="123.145"
     y="358.189"
     fill="black"
     font-size="12.836"
     font-family="Helvetica"
     id="text86">0.5</text>
  <text
     xml:space="preserve"
     x="205.179"
     y="358.189"
     fill="black"
     font-size="12.836"
     font-family="Helvetica"
     id="text88">1</text>
  <text
     xml:space="preserve"
     x="275.03"
     y="358.189"
     fill="black"
     font-size="12.836"
     font-family="Helvetica"
     id="text90">1.5</text>
  <text
     xml:space="preserve"
     x="356.252"
     y="358.189"
     fill="black"
     font-size="12.836"
     font-family="Helvetica"
     id="text92">2</text>
  <text
     xml:space="preserve"
     x="426.103"
     y="358.189"
     fill="black"
     font-size="12.836"
     font-family="Helvetica"
     id="text94">2.5</text>
  <text
     xml:space="preserve"
     x="507.325"
     y="358.189"
     fill="black"
     font-size="12.836"
     font-family="Helvetica"
     id="text96">3</text>
  <path
     d="M56.9492,345.681v -307.182"
     fill="none"
     stroke="black"
     id="path98" />
  <path
     d="M70.5484,345.681h -13.5991"
     fill="none"
     stroke="black"
     id="path100" />
  <path
     d="M63.7488,333.554h -6.79956"
     fill="none"
     stroke="black"
     id="path102" />
  <path
     d="M63.7488,321.427h -6.79956"
     fill="none"
     stroke="black"
     id="path104" />
  <path
     d="M63.7488,309.299h -6.79956"
     fill="none"
     stroke="black"
     id="path106" />
  <path
     d="M70.5484,297.172h -13.5991"
     fill="none"
     stroke="black"
     id="path108" />
  <path
     d="M63.7488,285.045h -6.79956"
     fill="none"
     stroke="black"
     id="path110" />
  <path
     d="M63.7488,272.918h -6.79956"
     fill="none"
     stroke="black"
     id="path112" />
  <path
     d="M63.7488,260.791h -6.79956"
     fill="none"
     stroke="black"
     id="path114" />
  <path
     d="M70.5484,248.664h -13.5991"
     fill="none"
     stroke="black"
     id="path116" />
  <path
     d="M63.7488,236.537h -6.79956"
     fill="none"
     stroke="black"
     id="path118" />
  <path
     d="M63.7488,224.41h -6.79956"
     fill="none"
     stroke="black"
     id="path120" />
  <path
     d="M63.7488,212.283h -6.79956"
     fill="none"
     stroke="black"
     id="path122" />
  <path
     d="M70.5484,200.156h -13.5991"
     fill="none"
     stroke="black"
     id="path124" />
  <path
     d="M63.7488,188.029h -6.79956"
     fill="none"
     stroke="black"
     id="path126" />
  <path
     d="M63.7488,175.901h -6.79956"
     fill="none"
     stroke="black"
     id="path128" />
  <path
     d="M63.7488,163.774h -6.79956"
     fill="none"
     stroke="black"
     id="path130" />
  <path
     d="M70.5484,151.647h -13.5991"
     fill="none"
     stroke="black"
     id="path132" />
  <path
     d="M63.7488,139.52h -6.79956"
     fill="none"
     stroke="black"
     id="path134" />
  <path
     d="M63.7488,127.393h -6.79956"
     fill="none"
     stroke="black"
     id="path136" />
  <path
     d="M63.7488,115.266h -6.79956"
     fill="none"
     stroke="black"
     id="path138" />
  <path
     d="M70.5484,103.139h -13.5991"
     fill="none"
     stroke="black"
     id="path140" />
  <path
     d="M63.7488,91.0118h -6.79956"
     fill="none"
     stroke="black"
     id="path142" />
  <path
     d="M63.7488,78.8847h -6.79956"
     fill="none"
     stroke="black"
     id="path144" />
  <path
     d="M63.7488,66.7576h -6.79956"
     fill="none"
     stroke="black"
     id="path146" />
  <path
     d="M70.5484,54.6305h -13.5991"
     fill="none"
     stroke="black"
     id="path148" />
  <path
     d="M70.5484,54.6305h -13.5991"
     fill="none"
     stroke="black"
     id="path150" />
  <path
     d="M63.7488,42.5034h -6.79956"
     fill="none"
     stroke="black"
     id="path152" />
  <text
     xml:space="preserve"
     x="47.6087"
     y="350.067"
     fill="black"
     font-size="12.836"
     font-family="Helvetica"
     id="text154">0</text>
  <text
     xml:space="preserve"
     x="27.3032"
     y="301.333"
     fill="black"
     font-size="12.836"
     font-family="Helvetica"
     id="text156">2000</text>
  <text
     xml:space="preserve"
     x="27.3032"
     y="253.412"
     fill="black"
     font-size="12.836"
     font-family="Helvetica"
     id="text158">4000</text>
  <text
     xml:space="preserve"
     x="27.3032"
     y="204.679"
     fill="black"
     font-size="12.836"
     font-family="Helvetica"
     id="text160">6000</text>
  <text
     xml:space="preserve"
     x="27.3032"
     y="155.946"
     fill="black"
     font-size="12.836"
     font-family="Helvetica"
     id="text162">8000</text>
  <text
     xml:space="preserve"
     x="20.8055"
     y="107.213"
     fill="black"
     font-size="12.836"
     font-family="Helvetica"
     id="text164">10000</text>
  <text
     xml:space="preserve"
     x="20.8055"
     y="59.292"
     fill="black"
     font-size="12.836"
     font-family="Helvetica"
     id="text166">12000</text>
  <text
     xml:space="preserve"
     style="font-style:normal;font-weight:normal;font-size:40px;line-height:1.25;font-family:sans-serif;letter-spacing:0px;word-spacing:0px;fill:#000000;fill-opacity:1;stroke:none"
     x="394.72324"
     y="377.57852"
     id="text176"><tspan
       sodipodi:role="line"
       id="tspan174"
       x="394.72324"
       y="377.57852"
       style="font-size:24px">E<tspan
   style="font-size:64.99999762%;baseline-shift:sub"
   id="tspan178">cal</tspan> [GeV]</tspan></text>
</svg>
