<?xml version="1.0" encoding="UTF-8" standalone="no"?>
<svg
   xmlns:dc="http://purl.org/dc/elements/1.1/"
   xmlns:cc="http://creativecommons.org/ns#"
   xmlns:rdf="http://www.w3.org/1999/02/22-rdf-syntax-ns#"
   xmlns:svg="http://www.w3.org/2000/svg"
   xmlns="http://www.w3.org/2000/svg"
   xmlns:sodipodi="http://sodipodi.sourceforge.net/DTD/sodipodi-0.dtd"
   xmlns:inkscape="http://www.inkscape.org/namespaces/inkscape"
   width="567.429"
   height="384.68"
   viewBox="0 0 567.429 384.68"
   shape-rendering="crispEdges"
   version="1.1"
   id="svg190"
   sodipodi:docname="p_perp_cal_slice1.svg"
   inkscape:version="0.92.4 (5da689c313, 2019-01-14)"
   inkscape:export-filename="C:\Users\eggne\Documents\01-18-19\Presentation\p_perp_cal_slice1.png"
   inkscape:export-xdpi="96"
   inkscape:export-ydpi="96">
  <metadata
     id="metadata194">
    <rdf:RDF>
      <cc:Work
         rdf:about="">
        <dc:format>image/svg+xml</dc:format>
        <dc:type
           rdf:resource="http://purl.org/dc/dcmitype/StillImage" />
      </cc:Work>
    </rdf:RDF>
  </metadata>
  <sodipodi:namedview
     pagecolor="#ffffff"
     bordercolor="#666666"
     borderopacity="1"
     objecttolerance="10"
     gridtolerance="10"
     guidetolerance="10"
     inkscape:pageopacity="0"
     inkscape:pageshadow="2"
     inkscape:window-width="1920"
     inkscape:window-height="1001"
     id="namedview192"
     showgrid="false"
     inkscape:zoom="1.6897916"
     inkscape:cx="346.5934"
     inkscape:cy="173.36713"
     inkscape:window-x="-9"
     inkscape:window-y="-9"
     inkscape:window-maximized="1"
     inkscape:current-layer="svg190" />
  <title
     id="title2">
/mnt/c/Users/eggne/Documents/01-18-19/Presentation/p_perp_cal_slice1.svg
</title>
  <desc
     id="desc4">
Creator: ROOT Version 6.18/04
CreationDate: Tue Feb 25 08:55:06 2020</desc>
  <defs
     id="defs6" />
  <rect
     x="0.5"
     y="0"
     width="566.929"
     height="384.18"
     fill="white"
     id="rect8" />
  <rect
     x="56.9492"
     y="38.499"
     width="454.031"
     height="307.182"
     fill="white"
     id="rect10" />
  <rect
     x="56.9492"
     y="38.499"
     width="454.031"
     height="307.182"
     fill="none"
     stroke="black"
     id="rect12" />
  <rect
     x="56.9492"
     y="38.499"
     width="454.031"
     height="307.182"
     fill="white"
     id="rect14" />
  <rect
     x="56.9492"
     y="38.499"
     width="454.031"
     height="307.182"
     fill="none"
     stroke="black"
     id="rect16" />
  <path
     d="M56.9492,345.681h 108.967v -0.0343908h 13.6209v -1.28966h 13.6209v -4.21287h 13.6209v -4.79752h 13.6209v -4.95228h 13.6209v -5.34777h 13.6209v -4.16989h 13.6209v -5.13283h 13.6209v -3.84317h 13.6209v -6.28492h 13.6209v -5.44235h 13.6209v  -9.44888h 13.6209v -5.64009h 13.6209v -7.41982h 13.6209v -15.2179h 13.6209v 54.9049h 4.54031v -3.04359h 4.54031v -12.673h 4.54031v -27.4009h 4.54031v -76.425h 4.54031v -144.682h 4.54031v 224.864h 4.54031v 64.4398h 4.54031v 2.45035h 4.54031v  0.498667h 4.54031v 0.154759h 4.54031v 0.11177h 4.54031v -0.0257931h 4.54031v 0.0515862h 4.54031v 0.0085977h 4.54031v -0.0085977h 4.54031v 0.0085977h 31.7821v -0.0085977h 4.54031v 0.0085977h 31.7821"
     fill="none"
     stroke="#000099"
     id="path18" />
  <path
     d="M56.9492,345.681h 454.031"
     fill="none"
     stroke="black"
     id="path20" />
  <path
     d="M56.9492,336.451v 9.23022"
     fill="none"
     stroke="black"
     id="path22" />
  <path
     d="M72.0836,341.066v 4.61511"
     fill="none"
     stroke="black"
     id="path24" />
  <path
     d="M87.218,341.066v 4.61511"
     fill="none"
     stroke="black"
     id="path26" />
  <path
     d="M102.352,341.066v 4.61511"
     fill="none"
     stroke="black"
     id="path28" />
  <path
     d="M117.487,341.066v 4.61511"
     fill="none"
     stroke="black"
     id="path30" />
  <path
     d="M132.621,336.451v 9.23022"
     fill="none"
     stroke="black"
     id="path32" />
  <path
     d="M147.755,341.066v 4.61511"
     fill="none"
     stroke="black"
     id="path34" />
  <path
     d="M162.89,341.066v 4.61511"
     fill="none"
     stroke="black"
     id="path36" />
  <path
     d="M178.024,341.066v 4.61511"
     fill="none"
     stroke="black"
     id="path38" />
  <path
     d="M193.158,341.066v 4.61511"
     fill="none"
     stroke="black"
     id="path40" />
  <path
     d="M208.293,336.451v 9.23022"
     fill="none"
     stroke="black"
     id="path42" />
  <path
     d="M223.427,341.066v 4.61511"
     fill="none"
     stroke="black"
     id="path44" />
  <path
     d="M238.562,341.066v 4.61511"
     fill="none"
     stroke="black"
     id="path46" />
  <path
     d="M253.696,341.066v 4.61511"
     fill="none"
     stroke="black"
     id="path48" />
  <path
     d="M268.83,341.066v 4.61511"
     fill="none"
     stroke="black"
     id="path50" />
  <path
     d="M283.965,336.451v 9.23022"
     fill="none"
     stroke="black"
     id="path52" />
  <path
     d="M299.099,341.066v 4.61511"
     fill="none"
     stroke="black"
     id="path54" />
  <path
     d="M314.233,341.066v 4.61511"
     fill="none"
     stroke="black"
     id="path56" />
  <path
     d="M329.368,341.066v 4.61511"
     fill="none"
     stroke="black"
     id="path58" />
  <path
     d="M344.502,341.066v 4.61511"
     fill="none"
     stroke="black"
     id="path60" />
  <path
     d="M359.636,336.451v 9.23022"
     fill="none"
     stroke="black"
     id="path62" />
  <path
     d="M374.771,341.066v 4.61511"
     fill="none"
     stroke="black"
     id="path64" />
  <path
     d="M389.905,341.066v 4.61511"
     fill="none"
     stroke="black"
     id="path66" />
  <path
     d="M405.039,341.066v 4.61511"
     fill="none"
     stroke="black"
     id="path68" />
  <path
     d="M420.174,341.066v 4.61511"
     fill="none"
     stroke="black"
     id="path70" />
  <path
     d="M435.308,336.451v 9.23022"
     fill="none"
     stroke="black"
     id="path72" />
  <path
     d="M450.442,341.066v 4.61511"
     fill="none"
     stroke="black"
     id="path74" />
  <path
     d="M465.577,341.066v 4.61511"
     fill="none"
     stroke="black"
     id="path76" />
  <path
     d="M480.711,341.066v 4.61511"
     fill="none"
     stroke="black"
     id="path78" />
  <path
     d="M495.846,341.066v 4.61511"
     fill="none"
     stroke="black"
     id="path80" />
  <path
     d="M510.98,336.451v 9.23022"
     fill="none"
     stroke="black"
     id="path82" />
  <text
     xml:space="preserve"
     x="53.2943"
     y="358.189"
     fill="black"
     font-size="12.836"
     font-family="Helvetica"
     id="text84">0</text>
  <text
     xml:space="preserve"
     x="123.145"
     y="358.189"
     fill="black"
     font-size="12.836"
     font-family="Helvetica"
     id="text86">0.5</text>
  <text
     xml:space="preserve"
     x="205.179"
     y="358.189"
     fill="black"
     font-size="12.836"
     font-family="Helvetica"
     id="text88">1</text>
  <text
     xml:space="preserve"
     x="275.03"
     y="358.189"
     fill="black"
     font-size="12.836"
     font-family="Helvetica"
     id="text90">1.5</text>
  <text
     xml:space="preserve"
     x="356.252"
     y="358.189"
     fill="black"
     font-size="12.836"
     font-family="Helvetica"
     id="text92">2</text>
  <text
     xml:space="preserve"
     x="426.103"
     y="358.189"
     fill="black"
     font-size="12.836"
     font-family="Helvetica"
     id="text94">2.5</text>
  <text
     xml:space="preserve"
     x="507.325"
     y="358.189"
     fill="black"
     font-size="12.836"
     font-family="Helvetica"
     id="text96">3</text>
  <path
     d="M56.9492,345.681v -307.182"
     fill="none"
     stroke="black"
     id="path98" />
  <path
     d="M70.5484,345.681h -13.5991"
     fill="none"
     stroke="black"
     id="path100" />
  <path
     d="M63.7488,337.083h -6.79956"
     fill="none"
     stroke="black"
     id="path102" />
  <path
     d="M63.7488,328.485h -6.79956"
     fill="none"
     stroke="black"
     id="path104" />
  <path
     d="M63.7488,319.888h -6.79956"
     fill="none"
     stroke="black"
     id="path106" />
  <path
     d="M63.7488,311.29h -6.79956"
     fill="none"
     stroke="black"
     id="path108" />
  <path
     d="M70.5484,302.692h -13.5991"
     fill="none"
     stroke="black"
     id="path110" />
  <path
     d="M63.7488,294.095h -6.79956"
     fill="none"
     stroke="black"
     id="path112" />
  <path
     d="M63.7488,285.497h -6.79956"
     fill="none"
     stroke="black"
     id="path114" />
  <path
     d="M63.7488,276.899h -6.79956"
     fill="none"
     stroke="black"
     id="path116" />
  <path
     d="M63.7488,268.301h -6.79956"
     fill="none"
     stroke="black"
     id="path118" />
  <path
     d="M70.5484,259.704h -13.5991"
     fill="none"
     stroke="black"
     id="path120" />
  <path
     d="M63.7488,251.106h -6.79956"
     fill="none"
     stroke="black"
     id="path122" />
  <path
     d="M63.7488,242.508h -6.79956"
     fill="none"
     stroke="black"
     id="path124" />
  <path
     d="M63.7488,233.911h -6.79956"
     fill="none"
     stroke="black"
     id="path126" />
  <path
     d="M63.7488,225.313h -6.79956"
     fill="none"
     stroke="black"
     id="path128" />
  <path
     d="M70.5484,216.715h -13.5991"
     fill="none"
     stroke="black"
     id="path130" />
  <path
     d="M63.7488,208.118h -6.79956"
     fill="none"
     stroke="black"
     id="path132" />
  <path
     d="M63.7488,199.52h -6.79956"
     fill="none"
     stroke="black"
     id="path134" />
  <path
     d="M63.7488,190.922h -6.79956"
     fill="none"
     stroke="black"
     id="path136" />
  <path
     d="M63.7488,182.324h -6.79956"
     fill="none"
     stroke="black"
     id="path138" />
  <path
     d="M70.5484,173.727h -13.5991"
     fill="none"
     stroke="black"
     id="path140" />
  <path
     d="M63.7488,165.129h -6.79956"
     fill="none"
     stroke="black"
     id="path142" />
  <path
     d="M63.7488,156.531h -6.79956"
     fill="none"
     stroke="black"
     id="path144" />
  <path
     d="M63.7488,147.934h -6.79956"
     fill="none"
     stroke="black"
     id="path146" />
  <path
     d="M63.7488,139.336h -6.79956"
     fill="none"
     stroke="black"
     id="path148" />
  <path
     d="M70.5484,130.738h -13.5991"
     fill="none"
     stroke="black"
     id="path150" />
  <path
     d="M63.7488,122.14h -6.79956"
     fill="none"
     stroke="black"
     id="path152" />
  <path
     d="M63.7488,113.543h -6.79956"
     fill="none"
     stroke="black"
     id="path154" />
  <path
     d="M63.7488,104.945h -6.79956"
     fill="none"
     stroke="black"
     id="path156" />
  <path
     d="M63.7488,96.3474h -6.79956"
     fill="none"
     stroke="black"
     id="path158" />
  <path
     d="M70.5484,87.7497h -13.5991"
     fill="none"
     stroke="black"
     id="path160" />
  <path
     d="M63.7488,79.152h -6.79956"
     fill="none"
     stroke="black"
     id="path162" />
  <path
     d="M63.7488,70.5543h -6.79956"
     fill="none"
     stroke="black"
     id="path164" />
  <path
     d="M63.7488,61.9566h -6.79956"
     fill="none"
     stroke="black"
     id="path166" />
  <path
     d="M63.7488,53.3589h -6.79956"
     fill="none"
     stroke="black"
     id="path168" />
  <path
     d="M70.5484,44.7612h -13.5991"
     fill="none"
     stroke="black"
     id="path170" />
  <path
     d="M70.5484,44.7612h -13.5991"
     fill="none"
     stroke="black"
     id="path172" />
  <text
     xml:space="preserve"
     x="47.6087"
     y="350.067"
     fill="black"
     font-size="12.836"
     font-family="Helvetica"
     id="text174">0</text>
  <text
     xml:space="preserve"
     x="27.3032"
     y="307.019"
     fill="black"
     font-size="12.836"
     font-family="Helvetica"
     id="text176">5000</text>
  <text
     xml:space="preserve"
     x="20.8055"
     y="263.971"
     fill="black"
     font-size="12.836"
     font-family="Helvetica"
     id="text178">10000</text>
  <text
     xml:space="preserve"
     x="20.8055"
     y="220.924"
     fill="black"
     font-size="12.836"
     font-family="Helvetica"
     id="text180">15000</text>
  <text
     xml:space="preserve"
     x="20.8055"
     y="177.876"
     fill="black"
     font-size="12.836"
     font-family="Helvetica"
     id="text182">20000</text>
  <text
     xml:space="preserve"
     x="20.8055"
     y="134.828"
     fill="black"
     font-size="12.836"
     font-family="Helvetica"
     id="text184">25000</text>
  <text
     xml:space="preserve"
     x="20.8055"
     y="92.593"
     fill="black"
     font-size="12.836"
     font-family="Helvetica"
     id="text186">30000</text>
  <text
     xml:space="preserve"
     x="20.8055"
     y="49.5454"
     fill="black"
     font-size="12.836"
     font-family="Helvetica"
     id="text188">35000</text>
  <text
     xml:space="preserve"
     style="font-style:normal;font-weight:normal;font-size:40px;line-height:1.25;font-family:sans-serif;letter-spacing:0px;word-spacing:0px;fill:#000000;fill-opacity:1;stroke:none"
     x="382.88745"
     y="378.17032"
     id="text198"><tspan
       sodipodi:role="line"
       id="tspan196"
       x="382.88745"
       y="378.17032"
       style="font-size:24px">E<tspan
   style="font-size:64.99999762%;baseline-shift:sub"
   id="tspan200">cal</tspan> [GeV]</tspan></text>
</svg>
