<?xml version="1.0" encoding="UTF-8" standalone="no"?>
<svg
   xmlns:dc="http://purl.org/dc/elements/1.1/"
   xmlns:cc="http://creativecommons.org/ns#"
   xmlns:rdf="http://www.w3.org/1999/02/22-rdf-syntax-ns#"
   xmlns:svg="http://www.w3.org/2000/svg"
   xmlns="http://www.w3.org/2000/svg"
   xmlns:sodipodi="http://sodipodi.sourceforge.net/DTD/sodipodi-0.dtd"
   xmlns:inkscape="http://www.inkscape.org/namespaces/inkscape"
   width="567.429"
   height="384.68"
   viewBox="0 0 567.429 384.68"
   shape-rendering="crispEdges"
   version="1.1"
   id="svg240"
   sodipodi:docname="p_perp.svg"
   inkscape:version="0.92.4 (5da689c313, 2019-01-14)"
   inkscape:export-filename="C:\Users\eggne\Documents\01-18-19\Presentation\p_perp.png"
   inkscape:export-xdpi="96"
   inkscape:export-ydpi="96">
  <metadata
     id="metadata244">
    <rdf:RDF>
      <cc:Work
         rdf:about="">
        <dc:format>image/svg+xml</dc:format>
        <dc:type
           rdf:resource="http://purl.org/dc/dcmitype/StillImage" />
      </cc:Work>
    </rdf:RDF>
  </metadata>
  <sodipodi:namedview
     pagecolor="#ffffff"
     bordercolor="#666666"
     borderopacity="1"
     objecttolerance="10"
     gridtolerance="10"
     guidetolerance="10"
     inkscape:pageopacity="0"
     inkscape:pageshadow="2"
     inkscape:window-width="1920"
     inkscape:window-height="1001"
     id="namedview242"
     showgrid="false"
     inkscape:zoom="1.6897916"
     inkscape:cx="261.84692"
     inkscape:cy="194.48799"
     inkscape:window-x="-9"
     inkscape:window-y="-9"
     inkscape:window-maximized="1"
     inkscape:current-layer="svg240" />
  <title
     id="title2">
/mnt/c/Users/eggne/Documents/01-18-19/Presentation/p_perp.svg
</title>
  <desc
     id="desc4">
Creator: ROOT Version 6.18/04
CreationDate: Tue Feb 25 08:54:19 2020</desc>
  <defs
     id="defs6" />
  <rect
     x="0.5"
     y="0"
     width="566.929"
     height="384.18"
     id="rect8"
     fill="white" />
  <rect
     x="56.9492"
     y="38.499"
     width="454.031"
     height="307.182"
     fill="white"
     id="rect10" />
  <rect
     x="56.9492"
     y="38.499"
     width="454.031"
     height="307.182"
     fill="none"
     stroke="black"
     id="rect12" />
  <rect
     x="56.9492"
     y="38.499"
     width="454.031"
     height="307.182"
     fill="white"
     id="rect14" />
  <rect
     x="56.9492"
     y="38.499"
     width="454.031"
     height="307.182"
     fill="none"
     stroke="black"
     id="rect16" />
  <path
     d="M56.9492,339.52h 1.13508v -7.41213h 1.13508v -7.26524h 1.13508v -7.29018h 1.13508v -5.19033h 1.13508v -6.5572h 1.13508v -13.5795h 1.13508v -2.48878h 1.13508v -12.7454h 1.13508v -6.64987h 1.13508v -15.8945h 1.13508v -0.558186h 1.13508v  -1.06103h 1.13508v -18.9193h 1.13508v 4.69206h 1.13508v -5.72478h 1.13508v -18.6879h 1.13508v -6.05352h 1.13508v -15.2483h 1.13508v 0.0200414h 1.13508v 2.13154h 1.13508v -11.1991h 1.13508v -5.42282h 1.13508v -6.51268h 1.13508v -16.0896h 1.13508v  -3.62804h 1.13508v -12.2355h 1.13508v -7.32456h 1.13508v -5.78499h 1.13508v -3.10802h 1.13508v -15.2463h 1.13508v 10.1579h 1.13508v -6.8942h 1.13508v -0.978284h 1.13508v -10.0921h 1.13508v -3.24862h 1.13508v -16.6588h 1.13508v 6.01445h 1.13508v  -0.500894h 1.13508v -0.927227h 1.13508v -3.28163h 1.13508v -0.192501h 1.13508v -5.95001h 1.13508v 0.604233h 1.13508v -9.68151h 1.13508v 1.33244h 1.13508v -3.82546h 1.13508v 2.85565h 1.13508v -7.70628h 1.13508v -6.38631h 1.13508v 12.0859h 1.13508v  -2.4129h 1.13508v -6.97622h 1.13508v 5.48105h 1.13508v 7.03797h 1.13508v 8.47768h 1.13508v -14.5154h 1.13508v 6.47905h 1.13508v -6.48395h 1.13508v 0.810393h 1.13508v -2.98174h 1.13508v 12.2425h 1.13508v 2.87635h 1.13508v -6.37745h 1.13508v 4.97262h  1.13508v 5.53385h 1.13508v -4.4105h 1.13508v -7.40029h 1.13508v 21.0497h 1.13508v 0.112877h 1.13508v -1.21172h 1.13508v -3.98532h 1.13508v 9.05057h 1.13508v -0.498633h 1.13508v 3.73606h 1.13508v 2.90631h 1.13508v -3.33653h 1.13508v 16.618h 1.13508v  -15.5667h 1.13508v 13.0947h 1.13508v 9.44176h 1.13508v -6.77769h 1.13508v -11.6748h 1.13508v 8.61846h 1.13508v 9.98512h 1.13508v 1.87586h 1.13508v 4.91613h 1.13508v -8.42349h 1.13508v 2.70451h 1.13508v -3.18178h 1.13508v 6.45632h 1.13508v 1.35782h  1.13508v 2.3424h 1.13508v -1.16144h 1.13508v 5.81208h 1.13508v 1.77591h 1.13508v 1.60327h 1.13508v -10.3687h 1.13508v 3.39611h 1.13508v 14.7233h 1.13508v -15.0412h 1.13508v 5.367h 1.13508v 6.57488h 1.13508v -5.45114h 1.13508v 12.0824h 1.13508v  -4.48023h 1.13508v -8.24938h 1.13508v 10.9475h 1.13508v -3.60069h 1.13508v -4.73775h 1.13508v -2.9726h 1.13508v 24.3698h 1.13508v -3.18356h 1.13508v -10.7889h 1.13508v 2.6713h 1.13508v 1.52065h 1.13508v -2.69699h 1.13508v -0.419786h 1.13508v  -1.14403h 1.13508v 5.34788h 1.13508v 4.98916h 1.13508v -11.1389h 1.13508v 14.0084h 1.13508v -3.12083h 1.13508v 2.52332h 1.13508v 0.848003h 1.13508v 1.07306h 1.13508v -2.35213h 1.13508v 5.2286h 1.13508v -4.03986h 1.13508v -9.70899h 1.13508v  -0.598816h 1.13508v 11.6101h 1.13508v -0.837064h 1.13508v -0.094708h 1.13508v 1.11474h 1.13508v -5.40734h 1.13508v -1.56132h 1.13508v 11.429h 1.13508v 6.16807h 1.13508v -7.75834h 1.13508v 0.619435h 1.13508v 8.54769h 1.13508v -12.4981h 1.13508v  23.2444h 1.13508v -8.61266h 1.13508v 1.13582h 1.13508v 0.300409h 1.13508v -15.1805h 1.13508v 13.7469h 1.13508v -0.191971h 1.13508v 2.07304h 1.13508v -3.74785h 1.13508v -3.38188h 1.13508v 3.17607h 1.13508v -5.0563h 1.13508v 10.538h 1.13508v -12.9892h  1.13508v 13.3367h 1.13508v 19.3636h 1.13508v -25.6559h 1.13508v 11.6121h 1.13508v 2.04747h 1.13508v -5.60872h 1.13508v 4.58573h 1.13508v 13.2258h 1.13508v -5.74298h 1.13508v -0.0818141h 1.13508v 1.86755h 1.13508v -4.67711h 1.13508v 7.17819h 1.13508v  -0.819731h 1.13508v 2.66999h 1.13508v -10.5668h 1.13508v 13.0469h 1.13508v -10.062h 1.13508v 5.65085h 1.13508v -11.2431h 1.13508v 16.3808h 1.13508v 2.11633h 1.13508v -7.52502h 1.13508v -3.00711h 1.13508v 6.64391h 1.13508v 3.90181h 1.13508v 3.12452h  1.13508v 5.16642h 1.13508v -5.16569h 1.13508v 5.5648h 1.13508v -8.44223h 1.13508v 7.78733h 1.13508v -3.96565h 1.13508v 0.251919h 1.13508v 8.00413h 1.13508v 8.75139h 1.13508v -8.93784h 1.13508v -9.25723h 1.13508v 12.9402h 1.13508v -9.73541h 1.13508v  2.89211h 1.13508v -0.0178865h 1.13508v 11.8918h 1.13508v -5.73209h 1.13508v 3.51964h 1.13508v -4.99608h 1.13508v -3.74221h 1.13508v 6.55572h 1.13508v -4.47065h 1.13508v 16.8828h 1.13508v -15.8922h 1.13508v 9.37332h 1.13508v -0.717923h 1.13508v  -0.672506h 1.13508v 13.1891h 1.13508v -11.2241h 1.13508v 3.62442h 1.13508v -4.10925h 1.13508v 8.20747h 1.13508v -2.71258h 1.13508v -0.00604068h 1.13508v 3.84782h 1.13508v 3.93684h 1.13508v -18.0987h 1.13508v 14.6686h 1.13508v 3.47256h 1.13508v  -4.92975h 1.13508v 8.28404h 1.13508v -3.31976h 1.13508v 6.98014h 1.13508v -10.9493h 1.13508v 5.16172h 1.13508v 1.25682h 1.13508v 7.21468h 1.13508v -2.71663h 1.13508v -1.16666h 1.13508v 1.19505h 1.13508v 0.439274h 1.13508v 6.67811h 1.13508v -11.7143h  1.13508v 7.35515h 1.13508v -2.71527h 1.13508v -3.87431h 1.13508v 7.29823h 1.13508v 10.1573h 1.13508v -1.31433h 1.13508v -2.21711h 1.13508v -3.43417h 1.13508v 0.311972h 1.13508v 0.638122h 1.13508v 4.48559h 1.13508v -0.370813h 1.13508v -1.54913h  1.13508v 2.75053h 1.13508v 0.681125h 1.13508v 7.31405h 1.13508v -11.1549h 1.13508v 12.2815h 1.13508v -5.39467h 1.13508v 0.341304h 1.13508v -5.72796h 1.13508v 14.2467h 1.13508v -9.06251h 1.13508v 4.17187h 1.13508v -5.91821h 1.13508v 14.5359h 1.13508v  -9.24536h 1.13508v 13.1329h 1.13508v -2.60868h 1.13508v 1.02581h 1.13508v 0.620848h 1.13508v -7.17562h 1.13508v -2.5708h 1.13508v 0.378832h 1.13508v 4.18562h 1.13508v -1.58364h 1.13508v 3.99414h 1.13508v -1.47777h 1.13508v 0.203623h 1.13508v  2.82401h 1.13508v 1.41986h 1.13508v -6.2711h 1.13508v 5.77847h 1.13508v -9.95319h 1.13508v 11.5219h 1.13508v 2.26895h 1.13508v -4.44005h 1.13508v 10.1929h 1.13508v -11.4388h 1.13508v 10.4075h 1.13508v -3.50143h 1.13508v -1.46979h 1.13508v 1.62222h  1.13508v 3.29412h 1.13508v -0.197712h 1.13508v -3.31969h 1.13508v 2.38951h 1.13508v -0.722674h 1.13508v 3.48182h 1.13508v -4.01081h 1.13508v 8.1922h 1.13508v -3.59521h 1.13508v -1.7295h 1.13508v -0.292196h 1.13508v 6.53573h 1.13508v 1.57453h  1.13508v 1.98491h 1.13508v -7.31881h 1.13508v 4.75347h 1.13508v 1.35097h 1.13508v -0.985167h 1.13508v -3.62875h 1.13508v 3.65338h 1.13508v 0.224642h 1.13508v 4.40464h 1.13508v 3.94647h 1.13508v -7.8203h 1.13508v 4.02965h 1.13508v -6.91337h 1.13508v  11.6362h 1.13508v -6.94846h 1.13508v 4.84261h 1.13508v -2.7243h 1.13508v 2.28643h 1.13508v 0.926385h 1.13508v 0.329523h 1.13508v -1.89726h 1.13508v 0.103027h 1.13508v 2.70214h 1.13508v 2.74069h 1.13508v -2.50807h 1.13508v 4.37349h 1.13508v -5.5037h  1.13508v -1.49132h 1.13508v 3.58179h 1.13508v -1.25959h 1.13508v 3.56303h 1.13508v 2.10246h 1.13508v -5.28237h 1.13508v 6.48566h 1.13508v 2.9038h 1.13508v -6.73954h 1.13508v 4.59402h 1.13508v -5.52002h 1.13508v 4.36739h 1.13508v 1.85926h 1.13508v  1.43916h 1.13508v -2.20747h 1.13508v 3.57708h 1.13508v -1.58294h 1.13508v -5.07346h 1.13508v 4.83361h 1.13508v 2.85213h 1.13508v -6.36807h 1.13508v 5.35644h 1.13508v 0.278166h 1.13508v 4.27841h 1.13508v -4.65921h 1.13508v -3.67085h 1.13508v 8.232h  1.13508v 1.88368h 1.13508v -1.36949h 1.13508v -3.07133h 1.13508v 2.1725h 1.13508v -1.1133h 1.13508v -0.732388h 1.13508v 3.10747h 1.13508v -7.04398h 1.13508v 4.92293h 1.13508v 3.46055h 1.13508v 0.566538h 1.13508v -5.92427h 1.13508v 3.7988h 1.13508v  3.04775h 1.13508v 0.618067h 1.13508v 0.617989h 1.13508v -5.48749h 1.13508v 2.29993h 1.13508v 2.29879h 1.13508v 2.90429h 1.13508v -2.28298h 1.13508v 2.91117h 1.13508v -2.22487h 1.13508v -0.259431h 1.13508v 2.51225h 1.13508v 0.867326h 1.13508v  -3.34779h 1.13508v 1.98135h 1.13508v -1.56508h 1.13508v 3.32487h 1.13508v -2.03678h 1.13508v 3.30332h 1.13508v -0.407784h 1.13508v -2.22517h 1.13508v 3.3019h 1.13508v -4.41002h 1.13508v 6.0637h 1.13508v -4.65915h 1.13508v 5.335h 1.13508v 1.29194h  1.13508v -3.51782h 1.13508v 0.526598h 1.13508"
     fill="none"
     stroke="#000099"
     id="path18" />
  <path
     d="M56.9492,345.681h 454.031"
     fill="none"
     stroke="black"
     id="path20" />
  <path
     d="M56.9492,336.451v 9.23022"
     fill="none"
     stroke="black"
     id="path22" />
  <path
     d="M66.0299,341.066v 4.61511"
     fill="none"
     stroke="black"
     id="path24" />
  <path
     d="M75.1105,341.066v 4.61511"
     fill="none"
     stroke="black"
     id="path26" />
  <path
     d="M84.1911,341.066v 4.61511"
     fill="none"
     stroke="black"
     id="path28" />
  <path
     d="M93.2717,341.066v 4.61511"
     fill="none"
     stroke="black"
     id="path30" />
  <path
     d="M102.352,336.451v 9.23022"
     fill="none"
     stroke="black"
     id="path32" />
  <path
     d="M111.433,341.066v 4.61511"
     fill="none"
     stroke="black"
     id="path34" />
  <path
     d="M120.514,341.066v 4.61511"
     fill="none"
     stroke="black"
     id="path36" />
  <path
     d="M129.594,341.066v 4.61511"
     fill="none"
     stroke="black"
     id="path38" />
  <path
     d="M138.675,341.066v 4.61511"
     fill="none"
     stroke="black"
     id="path40" />
  <path
     d="M147.755,336.451v 9.23022"
     fill="none"
     stroke="black"
     id="path42" />
  <path
     d="M156.836,341.066v 4.61511"
     fill="none"
     stroke="black"
     id="path44" />
  <path
     d="M165.917,341.066v 4.61511"
     fill="none"
     stroke="black"
     id="path46" />
  <path
     d="M174.997,341.066v 4.61511"
     fill="none"
     stroke="black"
     id="path48" />
  <path
     d="M184.078,341.066v 4.61511"
     fill="none"
     stroke="black"
     id="path50" />
  <path
     d="M193.158,336.451v 9.23022"
     fill="none"
     stroke="black"
     id="path52" />
  <path
     d="M202.239,341.066v 4.61511"
     fill="none"
     stroke="black"
     id="path54" />
  <path
     d="M211.32,341.066v 4.61511"
     fill="none"
     stroke="black"
     id="path56" />
  <path
     d="M220.4,341.066v 4.61511"
     fill="none"
     stroke="black"
     id="path58" />
  <path
     d="M229.481,341.066v 4.61511"
     fill="none"
     stroke="black"
     id="path60" />
  <path
     d="M238.562,336.451v 9.23022"
     fill="none"
     stroke="black"
     id="path62" />
  <path
     d="M247.642,341.066v 4.61511"
     fill="none"
     stroke="black"
     id="path64" />
  <path
     d="M256.723,341.066v 4.61511"
     fill="none"
     stroke="black"
     id="path66" />
  <path
     d="M265.803,341.066v 4.61511"
     fill="none"
     stroke="black"
     id="path68" />
  <path
     d="M274.884,341.066v 4.61511"
     fill="none"
     stroke="black"
     id="path70" />
  <path
     d="M283.965,336.451v 9.23022"
     fill="none"
     stroke="black"
     id="path72" />
  <path
     d="M293.045,341.066v 4.61511"
     fill="none"
     stroke="black"
     id="path74" />
  <path
     d="M302.126,341.066v 4.61511"
     fill="none"
     stroke="black"
     id="path76" />
  <path
     d="M311.206,341.066v 4.61511"
     fill="none"
     stroke="black"
     id="path78" />
  <path
     d="M320.287,341.066v 4.61511"
     fill="none"
     stroke="black"
     id="path80" />
  <path
     d="M329.368,336.451v 9.23022"
     fill="none"
     stroke="black"
     id="path82" />
  <path
     d="M338.448,341.066v 4.61511"
     fill="none"
     stroke="black"
     id="path84" />
  <path
     d="M347.529,341.066v 4.61511"
     fill="none"
     stroke="black"
     id="path86" />
  <path
     d="M356.609,341.066v 4.61511"
     fill="none"
     stroke="black"
     id="path88" />
  <path
     d="M365.69,341.066v 4.61511"
     fill="none"
     stroke="black"
     id="path90" />
  <path
     d="M374.771,336.451v 9.23022"
     fill="none"
     stroke="black"
     id="path92" />
  <path
     d="M383.851,341.066v 4.61511"
     fill="none"
     stroke="black"
     id="path94" />
  <path
     d="M392.932,341.066v 4.61511"
     fill="none"
     stroke="black"
     id="path96" />
  <path
     d="M402.013,341.066v 4.61511"
     fill="none"
     stroke="black"
     id="path98" />
  <path
     d="M411.093,341.066v 4.61511"
     fill="none"
     stroke="black"
     id="path100" />
  <path
     d="M420.174,336.451v 9.23022"
     fill="none"
     stroke="black"
     id="path102" />
  <path
     d="M429.254,341.066v 4.61511"
     fill="none"
     stroke="black"
     id="path104" />
  <path
     d="M438.335,341.066v 4.61511"
     fill="none"
     stroke="black"
     id="path106" />
  <path
     d="M447.416,341.066v 4.61511"
     fill="none"
     stroke="black"
     id="path108" />
  <path
     d="M456.496,341.066v 4.61511"
     fill="none"
     stroke="black"
     id="path110" />
  <path
     d="M465.577,336.451v 9.23022"
     fill="none"
     stroke="black"
     id="path112" />
  <path
     d="M474.657,341.066v 4.61511"
     fill="none"
     stroke="black"
     id="path114" />
  <path
     d="M483.738,341.066v 4.61511"
     fill="none"
     stroke="black"
     id="path116" />
  <path
     d="M492.819,341.066v 4.61511"
     fill="none"
     stroke="black"
     id="path118" />
  <path
     d="M501.899,341.066v 4.61511"
     fill="none"
     stroke="black"
     id="path120" />
  <path
     d="M510.98,336.451v 9.23022"
     fill="none"
     stroke="black"
     id="path122" />
  <text
     xml:space="preserve"
     x="53.2943"
     y="358.189"
     fill="black"
     font-size="12.836"
     font-family="Helvetica"
     id="text124">0</text>
  <text
     xml:space="preserve"
     x="94.7174"
     y="358.189"
     fill="black"
     font-size="12.836"
     font-family="Helvetica"
     id="text126">0.1</text>
  <text
     xml:space="preserve"
     x="138.577"
     y="358.189"
     fill="black"
     font-size="12.836"
     font-family="Helvetica"
     id="text128">0.2</text>
  <text
     xml:space="preserve"
     x="184.062"
     y="358.189"
     fill="black"
     font-size="12.836"
     font-family="Helvetica"
     id="text130">0.3</text>
  <text
     xml:space="preserve"
     x="229.546"
     y="358.189"
     fill="black"
     font-size="12.836"
     font-family="Helvetica"
     id="text132">0.4</text>
  <text
     xml:space="preserve"
     x="275.03"
     y="358.189"
     fill="black"
     font-size="12.836"
     font-family="Helvetica"
     id="text134">0.5</text>
  <text
     xml:space="preserve"
     x="319.702"
     y="358.189"
     fill="black"
     font-size="12.836"
     font-family="Helvetica"
     id="text136">0.6</text>
  <text
     xml:space="preserve"
     x="365.186"
     y="358.189"
     fill="black"
     font-size="12.836"
     font-family="Helvetica"
     id="text138">0.7</text>
  <text
     xml:space="preserve"
     x="410.671"
     y="358.189"
     fill="black"
     font-size="12.836"
     font-family="Helvetica"
     id="text140">0.8</text>
  <text
     xml:space="preserve"
     x="456.155"
     y="358.189"
     fill="black"
     font-size="12.836"
     font-family="Helvetica"
     id="text142">0.9</text>
  <text
     xml:space="preserve"
     x="508.137"
     y="358.189"
     fill="black"
     font-size="12.836"
     font-family="Helvetica"
     id="text144">1</text>
  <path
     d="M56.9492,345.681v -307.182"
     fill="none"
     stroke="black"
     id="path146" />
  <path
     d="M70.5484,345.681h -13.5991"
     fill="none"
     stroke="black"
     id="path148" />
  <path
     d="M63.7488,336.261h -6.79956"
     fill="none"
     stroke="black"
     id="path150" />
  <path
     d="M63.7488,326.84h -6.79956"
     fill="none"
     stroke="black"
     id="path152" />
  <path
     d="M63.7488,317.42h -6.79956"
     fill="none"
     stroke="black"
     id="path154" />
  <path
     d="M70.5484,308h -13.5991"
     fill="none"
     stroke="black"
     id="path156" />
  <path
     d="M63.7488,298.58h -6.79956"
     fill="none"
     stroke="black"
     id="path158" />
  <path
     d="M63.7488,289.16h -6.79956"
     fill="none"
     stroke="black"
     id="path160" />
  <path
     d="M63.7488,279.74h -6.79956"
     fill="none"
     stroke="black"
     id="path162" />
  <path
     d="M70.5484,270.319h -13.5991"
     fill="none"
     stroke="black"
     id="path164" />
  <path
     d="M63.7488,260.899h -6.79956"
     fill="none"
     stroke="black"
     id="path166" />
  <path
     d="M63.7488,251.479h -6.79956"
     fill="none"
     stroke="black"
     id="path168" />
  <path
     d="M63.7488,242.059h -6.79956"
     fill="none"
     stroke="black"
     id="path170" />
  <path
     d="M70.5484,232.639h -13.5991"
     fill="none"
     stroke="black"
     id="path172" />
  <path
     d="M63.7488,223.219h -6.79956"
     fill="none"
     stroke="black"
     id="path174" />
  <path
     d="M63.7488,213.798h -6.79956"
     fill="none"
     stroke="black"
     id="path176" />
  <path
     d="M63.7488,204.378h -6.79956"
     fill="none"
     stroke="black"
     id="path178" />
  <path
     d="M70.5484,194.958h -13.5991"
     fill="none"
     stroke="black"
     id="path180" />
  <path
     d="M63.7488,185.538h -6.79956"
     fill="none"
     stroke="black"
     id="path182" />
  <path
     d="M63.7488,176.118h -6.79956"
     fill="none"
     stroke="black"
     id="path184" />
  <path
     d="M63.7488,166.698h -6.79956"
     fill="none"
     stroke="black"
     id="path186" />
  <path
     d="M70.5484,157.277h -13.5991"
     fill="none"
     stroke="black"
     id="path188" />
  <path
     d="M63.7488,147.857h -6.79956"
     fill="none"
     stroke="black"
     id="path190" />
  <path
     d="M63.7488,138.437h -6.79956"
     fill="none"
     stroke="black"
     id="path192" />
  <path
     d="M63.7488,129.017h -6.79956"
     fill="none"
     stroke="black"
     id="path194" />
  <path
     d="M70.5484,119.597h -13.5991"
     fill="none"
     stroke="black"
     id="path196" />
  <path
     d="M63.7488,110.177h -6.79956"
     fill="none"
     stroke="black"
     id="path198" />
  <path
     d="M63.7488,100.756h -6.79956"
     fill="none"
     stroke="black"
     id="path200" />
  <path
     d="M63.7488,91.3363h -6.79956"
     fill="none"
     stroke="black"
     id="path202" />
  <path
     d="M70.5484,81.9161h -13.5991"
     fill="none"
     stroke="black"
     id="path204" />
  <path
     d="M63.7488,72.4959h -6.79956"
     fill="none"
     stroke="black"
     id="path206" />
  <path
     d="M63.7488,63.0758h -6.79956"
     fill="none"
     stroke="black"
     id="path208" />
  <path
     d="M63.7488,53.6556h -6.79956"
     fill="none"
     stroke="black"
     id="path210" />
  <path
     d="M70.5484,44.2354h -13.5991"
     fill="none"
     stroke="black"
     id="path212" />
  <path
     d="M70.5484,44.2354h -13.5991"
     fill="none"
     stroke="black"
     id="path214" />
  <text
     xml:space="preserve"
     x="47.6087"
     y="350.067"
     fill="black"
     font-size="12.836"
     font-family="Helvetica"
     id="text216">0</text>
  <text
     xml:space="preserve"
     x="33.801"
     y="312.704"
     fill="black"
     font-size="12.836"
     font-family="Helvetica"
     id="text218">200</text>
  <text
     xml:space="preserve"
     x="33.801"
     y="274.53"
     fill="black"
     font-size="12.836"
     font-family="Helvetica"
     id="text220">400</text>
  <text
     xml:space="preserve"
     x="33.801"
     y="237.168"
     fill="black"
     font-size="12.836"
     font-family="Helvetica"
     id="text222">600</text>
  <text
     xml:space="preserve"
     x="33.801"
     y="199.806"
     fill="black"
     font-size="12.836"
     font-family="Helvetica"
     id="text224">800</text>
  <text
     xml:space="preserve"
     x="27.3032"
     y="161.632"
     fill="black"
     font-size="12.836"
     font-family="Helvetica"
     id="text226">1000</text>
  <text
     xml:space="preserve"
     x="27.3032"
     y="124.27"
     fill="black"
     font-size="12.836"
     font-family="Helvetica"
     id="text228">1200</text>
  <text
     xml:space="preserve"
     x="27.3032"
     y="86.0953"
     fill="black"
     font-size="12.836"
     font-family="Helvetica"
     id="text230">1400</text>
  <text
     xml:space="preserve"
     x="27.3032"
     y="48.7332"
     fill="black"
     font-size="12.836"
     font-family="Helvetica"
     id="text232">1600</text>
  <text
     xml:space="preserve"
     x="76.0364"
     y="30.0521"
     fill="black"
     font-size="8.72403"
     font-family="Helvetica"
     id="text234">3</text>
  <text
     xml:space="preserve"
     x="63.0409"
     y="36.5499"
     fill="black"
     font-size="12.836"
     font-family="Helvetica"
     id="text236">10</text>
  <text
     xml:space="preserve"
     x="56.5431"
     y="36.5499"
     fill="black"
     font-size="12.836"
     font-family="Times"
     id="text238">×</text>
  <text
     xml:space="preserve"
     style="font-style:normal;font-weight:normal;font-size:40px;line-height:1.25;font-family:sans-serif;letter-spacing:0px;word-spacing:0px;fill:#000000;fill-opacity:1;stroke:none"
     x="379.9285"
     y="379.35388"
     id="text248"><tspan
       sodipodi:role="line"
       id="tspan246"
       x="379.9285"
       y="379.35388"
       style="font-size:24px">p<tspan
   style="font-size:64.99999762%;baseline-shift:sub"
   id="tspan250">⊥</tspan> [GeV/c]</tspan></text>
</svg>
