<?xml version="1.0" encoding="UTF-8" standalone="no"?>
<svg
   xmlns:dc="http://purl.org/dc/elements/1.1/"
   xmlns:cc="http://creativecommons.org/ns#"
   xmlns:rdf="http://www.w3.org/1999/02/22-rdf-syntax-ns#"
   xmlns:svg="http://www.w3.org/2000/svg"
   xmlns="http://www.w3.org/2000/svg"
   xmlns:sodipodi="http://sodipodi.sourceforge.net/DTD/sodipodi-0.dtd"
   xmlns:inkscape="http://www.inkscape.org/namespaces/inkscape"
   width="567.429"
   height="385.492"
   viewBox="0 0 567.429 385.492"
   shape-rendering="crispEdges"
   version="1.1"
   id="svg232"
   sodipodi:docname="Q2.svg"
   inkscape:version="0.92.4 (5da689c313, 2019-01-14)"
   inkscape:export-filename="C:\Users\eggne\Documents\01-18-19\Presentation\Q2.png"
   inkscape:export-xdpi="96"
   inkscape:export-ydpi="96">
  <metadata
     id="metadata236">
    <rdf:RDF>
      <cc:Work
         rdf:about="">
        <dc:format>image/svg+xml</dc:format>
        <dc:type
           rdf:resource="http://purl.org/dc/dcmitype/StillImage" />
      </cc:Work>
    </rdf:RDF>
  </metadata>
  <sodipodi:namedview
     pagecolor="#ffffff"
     bordercolor="#666666"
     borderopacity="1"
     objecttolerance="10"
     gridtolerance="10"
     guidetolerance="10"
     inkscape:pageopacity="0"
     inkscape:pageshadow="2"
     inkscape:window-width="1920"
     inkscape:window-height="1001"
     id="namedview234"
     showgrid="false"
     inkscape:zoom="1.6897916"
     inkscape:cx="293.22318"
     inkscape:cy="211.05505"
     inkscape:window-x="-9"
     inkscape:window-y="-9"
     inkscape:window-maximized="1"
     inkscape:current-layer="svg232" />
  <title
     id="title2">
/mnt/c/Users/eggne/Documents/01-18-19/Q2.svg
</title>
  <desc
     id="desc4">
Creator: ROOT Version 6.18/04
CreationDate: Tue Feb 25 08:49:20 2020</desc>
  <defs
     id="defs6" />
  <rect
     x="0.5"
     y="0"
     width="566.929"
     height="384.992"
     fill="white"
     id="rect8" />
  <rect
     x="56.9492"
     y="38.5804"
     width="454.031"
     height="307.831"
     fill="white"
     id="rect10" />
  <rect
     x="56.9492"
     y="38.5804"
     width="454.031"
     height="307.831"
     fill="none"
     stroke="black"
     id="rect12" />
  <rect
     x="56.9492"
     y="38.5804"
     width="454.031"
     height="307.831"
     fill="white"
     id="rect14" />
  <rect
     x="56.9492"
     y="38.5804"
     width="454.031"
     height="307.831"
     fill="none"
     stroke="black"
     id="rect16" />
  <path
     d="M56.9492,346.412h 81.3189v -0.0454663h 6.77658v -14.2808h 6.77658v -57.8533h 6.77658v -50.0809h 6.77658v -73.1138h 6.77658v -71.3526h 6.77658v -26.4457h 6.77658v 4.85932h 6.77658v 15.6269h 6.77658v 14.9116h 6.77658v 19.1728h 6.77658v  19.8379h 6.77658v 18.7678h 6.77658v 11.8868h 6.77658v 8.84971h 6.77658v 12.7037h 6.77658v 12.8629h 6.77658v 14.2578h 6.77658v 14.5541h 6.77658v 13.1778h 6.77658v 11.2926h 6.77658v 9.74906h 6.77658v 8.66649h 6.77658v 7.58223h 6.77658v 8.30006h  6.77658v 7.51783h 6.77658v 6.90057h 6.77658v 5.99497h 6.77658v 5.29691h 6.77658v 4.98152h 6.77658v 4.50438h 6.77658v 4.01236h 6.77658v 3.33341h 6.77658v 2.94906h 6.77658v 2.76669h 6.77658v 2.22903h 6.77658v 1.96655h 6.77658v 1.77319h 6.77658v  1.51695h 6.77658v 1.37582h 6.77658v 1.15559h 6.77658v 1.09964h 6.77658v 1.01632h 6.77658v 0.845944h 6.77658v 0.776308h 6.77658v 0.626219h 6.77658v 0.602387h 6.77658v 0.487453h 6.77658v 0.456861h 6.77658v 0.395168h 6.77658v 0.32942h 6.77658v  0.385196h 6.77658v 0.380126h 6.77658v 0.380802h 6.77658v 0.0562836h 6.77658"
     fill="none"
     stroke="#000099"
     id="path18" />
  <path
     d="M56.9492,346.412h 454.031"
     fill="none"
     stroke="black"
     id="path20" />
  <path
     d="M56.9492,337.162v 9.24974"
     fill="none"
     stroke="black"
     id="path22" />
  <path
     d="M68.2435,341.787v 4.62487"
     fill="none"
     stroke="black"
     id="path24" />
  <path
     d="M79.5378,341.787v 4.62487"
     fill="none"
     stroke="black"
     id="path26" />
  <path
     d="M90.8321,341.787v 4.62487"
     fill="none"
     stroke="black"
     id="path28" />
  <path
     d="M102.126,337.162v 9.24974"
     fill="none"
     stroke="black"
     id="path30" />
  <path
     d="M113.421,341.787v 4.62487"
     fill="none"
     stroke="black"
     id="path32" />
  <path
     d="M124.715,341.787v 4.62487"
     fill="none"
     stroke="black"
     id="path34" />
  <path
     d="M136.009,341.787v 4.62487"
     fill="none"
     stroke="black"
     id="path36" />
  <path
     d="M147.304,337.162v 9.24974"
     fill="none"
     stroke="black"
     id="path38" />
  <path
     d="M158.598,341.787v 4.62487"
     fill="none"
     stroke="black"
     id="path40" />
  <path
     d="M169.892,341.787v 4.62487"
     fill="none"
     stroke="black"
     id="path42" />
  <path
     d="M181.186,341.787v 4.62487"
     fill="none"
     stroke="black"
     id="path44" />
  <path
     d="M192.481,337.162v 9.24974"
     fill="none"
     stroke="black"
     id="path46" />
  <path
     d="M203.775,341.787v 4.62487"
     fill="none"
     stroke="black"
     id="path48" />
  <path
     d="M215.069,341.787v 4.62487"
     fill="none"
     stroke="black"
     id="path50" />
  <path
     d="M226.364,341.787v 4.62487"
     fill="none"
     stroke="black"
     id="path52" />
  <path
     d="M237.658,337.162v 9.24974"
     fill="none"
     stroke="black"
     id="path54" />
  <path
     d="M248.952,341.787v 4.62487"
     fill="none"
     stroke="black"
     id="path56" />
  <path
     d="M260.247,341.787v 4.62487"
     fill="none"
     stroke="black"
     id="path58" />
  <path
     d="M271.541,341.787v 4.62487"
     fill="none"
     stroke="black"
     id="path60" />
  <path
     d="M282.835,337.162v 9.24974"
     fill="none"
     stroke="black"
     id="path62" />
  <path
     d="M294.129,341.787v 4.62487"
     fill="none"
     stroke="black"
     id="path64" />
  <path
     d="M305.424,341.787v 4.62487"
     fill="none"
     stroke="black"
     id="path66" />
  <path
     d="M316.718,341.787v 4.62487"
     fill="none"
     stroke="black"
     id="path68" />
  <path
     d="M328.012,337.162v 9.24974"
     fill="none"
     stroke="black"
     id="path70" />
  <path
     d="M339.307,341.787v 4.62487"
     fill="none"
     stroke="black"
     id="path72" />
  <path
     d="M350.601,341.787v 4.62487"
     fill="none"
     stroke="black"
     id="path74" />
  <path
     d="M361.895,341.787v 4.62487"
     fill="none"
     stroke="black"
     id="path76" />
  <path
     d="M373.189,337.162v 9.24974"
     fill="none"
     stroke="black"
     id="path78" />
  <path
     d="M384.484,341.787v 4.62487"
     fill="none"
     stroke="black"
     id="path80" />
  <path
     d="M395.778,341.787v 4.62487"
     fill="none"
     stroke="black"
     id="path82" />
  <path
     d="M407.072,341.787v 4.62487"
     fill="none"
     stroke="black"
     id="path84" />
  <path
     d="M418.367,337.162v 9.24974"
     fill="none"
     stroke="black"
     id="path86" />
  <path
     d="M429.661,341.787v 4.62487"
     fill="none"
     stroke="black"
     id="path88" />
  <path
     d="M440.955,341.787v 4.62487"
     fill="none"
     stroke="black"
     id="path90" />
  <path
     d="M452.25,341.787v 4.62487"
     fill="none"
     stroke="black"
     id="path92" />
  <path
     d="M463.544,337.162v 9.24974"
     fill="none"
     stroke="black"
     id="path94" />
  <path
     d="M474.838,341.787v 4.62487"
     fill="none"
     stroke="black"
     id="path96" />
  <path
     d="M486.132,341.787v 4.62487"
     fill="none"
     stroke="black"
     id="path98" />
  <path
     d="M497.427,341.787v 4.62487"
     fill="none"
     stroke="black"
     id="path100" />
  <path
     d="M508.721,337.162v 9.24974"
     fill="none"
     stroke="black"
     id="path102" />
  <path
     d="M508.721,337.162v 9.24974"
     fill="none"
     stroke="black"
     id="path104" />
  <text
     xml:space="preserve"
     x="53.2943"
     y="359.001"
     fill="black"
     font-size="12.8621"
     font-family="Helvetica"
     id="text106">0</text>
  <text
     xml:space="preserve"
     x="93.093"
     y="359.001"
     fill="black"
     font-size="12.8621"
     font-family="Helvetica"
     id="text108">0.2</text>
  <text
     xml:space="preserve"
     x="137.765"
     y="359.001"
     fill="black"
     font-size="12.8621"
     font-family="Helvetica"
     id="text110">0.4</text>
  <text
     xml:space="preserve"
     x="183.249"
     y="359.001"
     fill="black"
     font-size="12.8621"
     font-family="Helvetica"
     id="text112">0.6</text>
  <text
     xml:space="preserve"
     x="227.921"
     y="359.001"
     fill="black"
     font-size="12.8621"
     font-family="Helvetica"
     id="text114">0.8</text>
  <text
     xml:space="preserve"
     x="279.903"
     y="359.001"
     fill="black"
     font-size="12.8621"
     font-family="Helvetica"
     id="text116">1</text>
  <text
     xml:space="preserve"
     x="318.89"
     y="359.001"
     fill="black"
     font-size="12.8621"
     font-family="Helvetica"
     id="text118">1.2</text>
  <text
     xml:space="preserve"
     x="363.562"
     y="359.001"
     fill="black"
     font-size="12.8621"
     font-family="Helvetica"
     id="text120">1.4</text>
  <text
     xml:space="preserve"
     x="409.046"
     y="359.001"
     fill="black"
     font-size="12.8621"
     font-family="Helvetica"
     id="text122">1.6</text>
  <text
     xml:space="preserve"
     x="454.531"
     y="359.001"
     fill="black"
     font-size="12.8621"
     font-family="Helvetica"
     id="text124">1.8</text>
  <text
     xml:space="preserve"
     x="504.888"
     y="359.001"
     fill="black"
     font-size="12.8621"
     font-family="Helvetica"
     id="text126">2</text>
  <path
     d="M56.9492,346.412v -307.831"
     fill="none"
     stroke="black"
     id="path128" />
  <path
     d="M70.5484,346.412h -13.5991"
     fill="none"
     stroke="black"
     id="path130" />
  <path
     d="M63.7488,337.961h -6.79956"
     fill="none"
     stroke="black"
     id="path132" />
  <path
     d="M63.7488,329.51h -6.79956"
     fill="none"
     stroke="black"
     id="path134" />
  <path
     d="M63.7488,321.059h -6.79956"
     fill="none"
     stroke="black"
     id="path136" />
  <path
     d="M70.5484,312.608h -13.5991"
     fill="none"
     stroke="black"
     id="path138" />
  <path
     d="M63.7488,304.157h -6.79956"
     fill="none"
     stroke="black"
     id="path140" />
  <path
     d="M63.7488,295.706h -6.79956"
     fill="none"
     stroke="black"
     id="path142" />
  <path
     d="M63.7488,287.255h -6.79956"
     fill="none"
     stroke="black"
     id="path144" />
  <path
     d="M70.5484,278.804h -13.5991"
     fill="none"
     stroke="black"
     id="path146" />
  <path
     d="M63.7488,270.353h -6.79956"
     fill="none"
     stroke="black"
     id="path148" />
  <path
     d="M63.7488,261.902h -6.79956"
     fill="none"
     stroke="black"
     id="path150" />
  <path
     d="M63.7488,253.451h -6.79956"
     fill="none"
     stroke="black"
     id="path152" />
  <path
     d="M70.5484,245h -13.5991"
     fill="none"
     stroke="black"
     id="path154" />
  <path
     d="M63.7488,236.549h -6.79956"
     fill="none"
     stroke="black"
     id="path156" />
  <path
     d="M63.7488,228.098h -6.79956"
     fill="none"
     stroke="black"
     id="path158" />
  <path
     d="M63.7488,219.647h -6.79956"
     fill="none"
     stroke="black"
     id="path160" />
  <path
     d="M70.5484,211.196h -13.5991"
     fill="none"
     stroke="black"
     id="path162" />
  <path
     d="M63.7488,202.745h -6.79956"
     fill="none"
     stroke="black"
     id="path164" />
  <path
     d="M63.7488,194.294h -6.79956"
     fill="none"
     stroke="black"
     id="path166" />
  <path
     d="M63.7488,185.843h -6.79956"
     fill="none"
     stroke="black"
     id="path168" />
  <path
     d="M70.5484,177.392h -13.5991"
     fill="none"
     stroke="black"
     id="path170" />
  <path
     d="M63.7488,168.941h -6.79956"
     fill="none"
     stroke="black"
     id="path172" />
  <path
     d="M63.7488,160.49h -6.79956"
     fill="none"
     stroke="black"
     id="path174" />
  <path
     d="M63.7488,152.039h -6.79956"
     fill="none"
     stroke="black"
     id="path176" />
  <path
     d="M70.5484,143.588h -13.5991"
     fill="none"
     stroke="black"
     id="path178" />
  <path
     d="M63.7488,135.137h -6.79956"
     fill="none"
     stroke="black"
     id="path180" />
  <path
     d="M63.7488,126.686h -6.79956"
     fill="none"
     stroke="black"
     id="path182" />
  <path
     d="M63.7488,118.235h -6.79956"
     fill="none"
     stroke="black"
     id="path184" />
  <path
     d="M70.5484,109.784h -13.5991"
     fill="none"
     stroke="black"
     id="path186" />
  <path
     d="M63.7488,101.333h -6.79956"
     fill="none"
     stroke="black"
     id="path188" />
  <path
     d="M63.7488,92.8818h -6.79956"
     fill="none"
     stroke="black"
     id="path190" />
  <path
     d="M63.7488,84.4308h -6.79956"
     fill="none"
     stroke="black"
     id="path192" />
  <path
     d="M70.5484,75.9798h -13.5991"
     fill="none"
     stroke="black"
     id="path194" />
  <path
     d="M63.7488,67.5288h -6.79956"
     fill="none"
     stroke="black"
     id="path196" />
  <path
     d="M63.7488,59.0778h -6.79956"
     fill="none"
     stroke="black"
     id="path198" />
  <path
     d="M63.7488,50.6268h -6.79956"
     fill="none"
     stroke="black"
     id="path200" />
  <path
     d="M70.5484,42.1759h -13.5991"
     fill="none"
     stroke="black"
     id="path202" />
  <path
     d="M70.5484,42.1759h -13.5991"
     fill="none"
     stroke="black"
     id="path204" />
  <text
     xml:space="preserve"
     x="47.6087"
     y="350.879"
     fill="black"
     font-size="12.8621"
     font-family="Helvetica"
     id="text206">0</text>
  <text
     xml:space="preserve"
     x="33.801"
     y="316.766"
     fill="black"
     font-size="12.8621"
     font-family="Helvetica"
     id="text208">200</text>
  <text
     xml:space="preserve"
     x="33.801"
     y="283.465"
     fill="black"
     font-size="12.8621"
     font-family="Helvetica"
     id="text210">400</text>
  <text
     xml:space="preserve"
     x="33.801"
     y="249.351"
     fill="black"
     font-size="12.8621"
     font-family="Helvetica"
     id="text212">600</text>
  <text
     xml:space="preserve"
     x="33.801"
     y="216.05"
     fill="black"
     font-size="12.8621"
     font-family="Helvetica"
     id="text214">800</text>
  <text
     xml:space="preserve"
     x="27.3032"
     y="181.937"
     fill="black"
     font-size="12.8621"
     font-family="Helvetica"
     id="text216">1000</text>
  <text
     xml:space="preserve"
     x="27.3032"
     y="147.824"
     fill="black"
     font-size="12.8621"
     font-family="Helvetica"
     id="text218">1200</text>
  <text
     xml:space="preserve"
     x="27.3032"
     y="114.523"
     fill="black"
     font-size="12.8621"
     font-family="Helvetica"
     id="text220">1400</text>
  <text
     xml:space="preserve"
     x="27.3032"
     y="80.4097"
     fill="black"
     font-size="12.8621"
     font-family="Helvetica"
     id="text222">1600</text>
  <text
     xml:space="preserve"
     x="27.3032"
     y="46.2965"
     fill="black"
     font-size="12.8621"
     font-family="Helvetica"
     id="text224">1800</text>
  <text
     xml:space="preserve"
     x="76.0364"
     y="30.0521"
     fill="black"
     font-size="8.74142"
     font-family="Helvetica"
     id="text226">3</text>
  <text
     xml:space="preserve"
     x="63.0409"
     y="36.5499"
     fill="black"
     font-size="12.8621"
     font-family="Helvetica"
     id="text228">10</text>
  <text
     xml:space="preserve"
     x="56.5431"
     y="36.5499"
     fill="black"
     font-size="12.8621"
     font-family="Times"
     id="text230">×</text>
  <text
     xml:space="preserve"
     style="font-style:normal;font-weight:normal;font-size:40px;line-height:1.25;font-family:sans-serif;letter-spacing:0px;word-spacing:0px;fill:#000000;fill-opacity:1;stroke:none"
     x="334.5769"
     y="378.97372"
     id="text8740"
     transform="rotate(0.18338137)"><tspan
       sodipodi:role="line"
       id="tspan8738"
       x="334.5769"
       y="378.97372"
       style="font-size:24px">Q<tspan
   style="font-size:24px;baseline-shift:super"
   id="tspan8746">2</tspan> [GeV<tspan
   style="font-size:24px;baseline-shift:super"
   id="tspan8744">2</tspan>/c<tspan
   style="font-size:24px;baseline-shift:super"
   id="tspan8742">2</tspan>]</tspan></text>
</svg>
