<?xml version="1.0" encoding="UTF-8" standalone="no"?>
<svg
   xmlns:dc="http://purl.org/dc/elements/1.1/"
   xmlns:cc="http://creativecommons.org/ns#"
   xmlns:rdf="http://www.w3.org/1999/02/22-rdf-syntax-ns#"
   xmlns:svg="http://www.w3.org/2000/svg"
   xmlns="http://www.w3.org/2000/svg"
   xmlns:sodipodi="http://sodipodi.sourceforge.net/DTD/sodipodi-0.dtd"
   xmlns:inkscape="http://www.inkscape.org/namespaces/inkscape"
   width="567.429"
   height="385.492"
   viewBox="0 0 567.429 385.492"
   shape-rendering="crispEdges"
   version="1.1"
   id="svg242"
   sodipodi:docname="Q2_sub.svg"
   inkscape:version="0.92.4 (5da689c313, 2019-01-14)"
   inkscape:export-filename="C:\Users\eggne\Documents\01-18-19\Presentation\Q2_sub.png"
   inkscape:export-xdpi="96"
   inkscape:export-ydpi="96">
  <metadata
     id="metadata246">
    <rdf:RDF>
      <cc:Work
         rdf:about="">
        <dc:format>image/svg+xml</dc:format>
        <dc:type
           rdf:resource="http://purl.org/dc/dcmitype/StillImage" />
      </cc:Work>
    </rdf:RDF>
  </metadata>
  <sodipodi:namedview
     pagecolor="#ffffff"
     bordercolor="#666666"
     borderopacity="1"
     objecttolerance="10"
     gridtolerance="10"
     guidetolerance="10"
     inkscape:pageopacity="0"
     inkscape:pageshadow="2"
     inkscape:window-width="1920"
     inkscape:window-height="1001"
     id="namedview244"
     showgrid="false"
     inkscape:zoom="1.6897916"
     inkscape:cx="285.62424"
     inkscape:cy="180.6593"
     inkscape:window-x="-9"
     inkscape:window-y="-9"
     inkscape:window-maximized="1"
     inkscape:current-layer="svg242" />
  <title
     id="title2">
/mnt/c/Users/eggne/Documents/01-18-19/Q2_sub.svg
</title>
  <desc
     id="desc4">
Creator: ROOT Version 6.18/04
CreationDate: Tue Feb 25 08:49:59 2020</desc>
  <defs
     id="defs6" />
  <rect
     x="0.5"
     y="0"
     width="566.929"
     height="384.992"
     fill="white"
     id="rect8" />
  <rect
     x="56.9492"
     y="38.5804"
     width="454.031"
     height="307.831"
     fill="white"
     id="rect10" />
  <rect
     x="56.9492"
     y="38.5804"
     width="454.031"
     height="307.831"
     fill="none"
     stroke="black"
     id="rect12" />
  <rect
     x="56.9492"
     y="38.5804"
     width="454.031"
     height="307.831"
     fill="white"
     id="rect14" />
  <rect
     x="56.9492"
     y="38.5804"
     width="454.031"
     height="307.831"
     fill="none"
     stroke="black"
     id="rect16" />
  <path
     d="M56.9492,346.412h 81.3189v -0.0106224h 6.77658v -4.55232h 6.77658v -23.4484h 6.77658v -36.8615h 6.77658v -56.1928h 6.77658v -52.727h 6.77658v -30.5181h 6.77658v -14.0027h 6.77658v -20.7506h 6.77658v -0.119591h 6.77658v -11.2355h 6.77658v  -5.89112h 6.77658v -26.0952h 6.77658v -10.7671h 6.77658v 19.9502h 6.77658v -2.91012h 6.77658v 8.15058h 6.77658v 25.4011h 6.77658v 14.0915h 6.77658v 1.45466h 6.77658v -5.68119h 6.77658v 14.8912h 6.77658v 1.43586h 6.77658v 10.1575h 6.77658v 25.9711h  6.77658v 3.10593h 6.77658v 16.8582h 6.77658v 8.8295h 6.77658v 12.6479h 6.77658v 14.1673h 6.77658v 13.0684h 6.77658v -4.57248h 6.77658v 23.9915h 6.77658v 3.96538h 6.77658v 12.2559h 6.77658v 5.9622h 6.77658v 12.2149h 6.77658v 6.97837h 6.77658v  -3.27364h 6.77658v 5.83031h 6.77658v 13.1756h 6.77658v 6.40966h 6.77658v 1.1983h 6.77658v 7.02506h 6.77658v 0.431757h 6.77658v 1.01874h 6.77658v 2.62054h 6.77658v 2.68032h 6.77658v 6.33619h 6.77658v 1.35918h 6.77658v 1.21991h 6.77658v 2.34199h  6.77658v -0.485649h 6.77658v 2.54512h 6.77658v 0.353873h 6.77658"
     fill="none"
     stroke="#000099"
     id="path18" />
  <path
     d="M56.9492,346.412h 454.031"
     fill="none"
     stroke="black"
     id="path20" />
  <path
     d="M56.9492,337.162v 9.24974"
     fill="none"
     stroke="black"
     id="path22" />
  <path
     d="M68.2435,341.787v 4.62487"
     fill="none"
     stroke="black"
     id="path24" />
  <path
     d="M79.5378,341.787v 4.62487"
     fill="none"
     stroke="black"
     id="path26" />
  <path
     d="M90.8321,341.787v 4.62487"
     fill="none"
     stroke="black"
     id="path28" />
  <path
     d="M102.126,337.162v 9.24974"
     fill="none"
     stroke="black"
     id="path30" />
  <path
     d="M113.421,341.787v 4.62487"
     fill="none"
     stroke="black"
     id="path32" />
  <path
     d="M124.715,341.787v 4.62487"
     fill="none"
     stroke="black"
     id="path34" />
  <path
     d="M136.009,341.787v 4.62487"
     fill="none"
     stroke="black"
     id="path36" />
  <path
     d="M147.304,337.162v 9.24974"
     fill="none"
     stroke="black"
     id="path38" />
  <path
     d="M158.598,341.787v 4.62487"
     fill="none"
     stroke="black"
     id="path40" />
  <path
     d="M169.892,341.787v 4.62487"
     fill="none"
     stroke="black"
     id="path42" />
  <path
     d="M181.186,341.787v 4.62487"
     fill="none"
     stroke="black"
     id="path44" />
  <path
     d="M192.481,337.162v 9.24974"
     fill="none"
     stroke="black"
     id="path46" />
  <path
     d="M203.775,341.787v 4.62487"
     fill="none"
     stroke="black"
     id="path48" />
  <path
     d="M215.069,341.787v 4.62487"
     fill="none"
     stroke="black"
     id="path50" />
  <path
     d="M226.364,341.787v 4.62487"
     fill="none"
     stroke="black"
     id="path52" />
  <path
     d="M237.658,337.162v 9.24974"
     fill="none"
     stroke="black"
     id="path54" />
  <path
     d="M248.952,341.787v 4.62487"
     fill="none"
     stroke="black"
     id="path56" />
  <path
     d="M260.247,341.787v 4.62487"
     fill="none"
     stroke="black"
     id="path58" />
  <path
     d="M271.541,341.787v 4.62487"
     fill="none"
     stroke="black"
     id="path60" />
  <path
     d="M282.835,337.162v 9.24974"
     fill="none"
     stroke="black"
     id="path62" />
  <path
     d="M294.129,341.787v 4.62487"
     fill="none"
     stroke="black"
     id="path64" />
  <path
     d="M305.424,341.787v 4.62487"
     fill="none"
     stroke="black"
     id="path66" />
  <path
     d="M316.718,341.787v 4.62487"
     fill="none"
     stroke="black"
     id="path68" />
  <path
     d="M328.012,337.162v 9.24974"
     fill="none"
     stroke="black"
     id="path70" />
  <path
     d="M339.307,341.787v 4.62487"
     fill="none"
     stroke="black"
     id="path72" />
  <path
     d="M350.601,341.787v 4.62487"
     fill="none"
     stroke="black"
     id="path74" />
  <path
     d="M361.895,341.787v 4.62487"
     fill="none"
     stroke="black"
     id="path76" />
  <path
     d="M373.189,337.162v 9.24974"
     fill="none"
     stroke="black"
     id="path78" />
  <path
     d="M384.484,341.787v 4.62487"
     fill="none"
     stroke="black"
     id="path80" />
  <path
     d="M395.778,341.787v 4.62487"
     fill="none"
     stroke="black"
     id="path82" />
  <path
     d="M407.072,341.787v 4.62487"
     fill="none"
     stroke="black"
     id="path84" />
  <path
     d="M418.367,337.162v 9.24974"
     fill="none"
     stroke="black"
     id="path86" />
  <path
     d="M429.661,341.787v 4.62487"
     fill="none"
     stroke="black"
     id="path88" />
  <path
     d="M440.955,341.787v 4.62487"
     fill="none"
     stroke="black"
     id="path90" />
  <path
     d="M452.25,341.787v 4.62487"
     fill="none"
     stroke="black"
     id="path92" />
  <path
     d="M463.544,337.162v 9.24974"
     fill="none"
     stroke="black"
     id="path94" />
  <path
     d="M474.838,341.787v 4.62487"
     fill="none"
     stroke="black"
     id="path96" />
  <path
     d="M486.132,341.787v 4.62487"
     fill="none"
     stroke="black"
     id="path98" />
  <path
     d="M497.427,341.787v 4.62487"
     fill="none"
     stroke="black"
     id="path100" />
  <path
     d="M508.721,337.162v 9.24974"
     fill="none"
     stroke="black"
     id="path102" />
  <path
     d="M508.721,337.162v 9.24974"
     fill="none"
     stroke="black"
     id="path104" />
  <text
     xml:space="preserve"
     x="53.2943"
     y="359.001"
     fill="black"
     font-size="12.8621"
     font-family="Helvetica"
     id="text106">0</text>
  <text
     xml:space="preserve"
     x="93.093"
     y="359.001"
     fill="black"
     font-size="12.8621"
     font-family="Helvetica"
     id="text108">0.2</text>
  <text
     xml:space="preserve"
     x="137.765"
     y="359.001"
     fill="black"
     font-size="12.8621"
     font-family="Helvetica"
     id="text110">0.4</text>
  <text
     xml:space="preserve"
     x="183.249"
     y="359.001"
     fill="black"
     font-size="12.8621"
     font-family="Helvetica"
     id="text112">0.6</text>
  <text
     xml:space="preserve"
     x="227.921"
     y="359.001"
     fill="black"
     font-size="12.8621"
     font-family="Helvetica"
     id="text114">0.8</text>
  <text
     xml:space="preserve"
     x="279.903"
     y="359.001"
     fill="black"
     font-size="12.8621"
     font-family="Helvetica"
     id="text116">1</text>
  <text
     xml:space="preserve"
     x="318.89"
     y="359.001"
     fill="black"
     font-size="12.8621"
     font-family="Helvetica"
     id="text118">1.2</text>
  <text
     xml:space="preserve"
     x="363.562"
     y="359.001"
     fill="black"
     font-size="12.8621"
     font-family="Helvetica"
     id="text120">1.4</text>
  <text
     xml:space="preserve"
     x="409.046"
     y="359.001"
     fill="black"
     font-size="12.8621"
     font-family="Helvetica"
     id="text122">1.6</text>
  <text
     xml:space="preserve"
     x="454.531"
     y="359.001"
     fill="black"
     font-size="12.8621"
     font-family="Helvetica"
     id="text124">1.8</text>
  <text
     xml:space="preserve"
     x="504.888"
     y="359.001"
     fill="black"
     font-size="12.8621"
     font-family="Helvetica"
     id="text126">2</text>
  <path
     d="M56.9492,346.412v -307.831"
     fill="none"
     stroke="black"
     id="path128" />
  <path
     d="M70.5484,346.412h -13.5991"
     fill="none"
     stroke="black"
     id="path130" />
  <path
     d="M63.7488,339.253h -6.79956"
     fill="none"
     stroke="black"
     id="path132" />
  <path
     d="M63.7488,332.094h -6.79956"
     fill="none"
     stroke="black"
     id="path134" />
  <path
     d="M63.7488,324.935h -6.79956"
     fill="none"
     stroke="black"
     id="path136" />
  <path
     d="M63.7488,317.776h -6.79956"
     fill="none"
     stroke="black"
     id="path138" />
  <path
     d="M70.5484,310.617h -13.5991"
     fill="none"
     stroke="black"
     id="path140" />
  <path
     d="M63.7488,303.458h -6.79956"
     fill="none"
     stroke="black"
     id="path142" />
  <path
     d="M63.7488,296.299h -6.79956"
     fill="none"
     stroke="black"
     id="path144" />
  <path
     d="M63.7488,289.14h -6.79956"
     fill="none"
     stroke="black"
     id="path146" />
  <path
     d="M63.7488,281.981h -6.79956"
     fill="none"
     stroke="black"
     id="path148" />
  <path
     d="M70.5484,274.822h -13.5991"
     fill="none"
     stroke="black"
     id="path150" />
  <path
     d="M63.7488,267.663h -6.79956"
     fill="none"
     stroke="black"
     id="path152" />
  <path
     d="M63.7488,260.504h -6.79956"
     fill="none"
     stroke="black"
     id="path154" />
  <path
     d="M63.7488,253.345h -6.79956"
     fill="none"
     stroke="black"
     id="path156" />
  <path
     d="M63.7488,246.186h -6.79956"
     fill="none"
     stroke="black"
     id="path158" />
  <path
     d="M70.5484,239.027h -13.5991"
     fill="none"
     stroke="black"
     id="path160" />
  <path
     d="M63.7488,231.868h -6.79956"
     fill="none"
     stroke="black"
     id="path162" />
  <path
     d="M63.7488,224.709h -6.79956"
     fill="none"
     stroke="black"
     id="path164" />
  <path
     d="M63.7488,217.55h -6.79956"
     fill="none"
     stroke="black"
     id="path166" />
  <path
     d="M63.7488,210.391h -6.79956"
     fill="none"
     stroke="black"
     id="path168" />
  <path
     d="M70.5484,203.232h -13.5991"
     fill="none"
     stroke="black"
     id="path170" />
  <path
     d="M63.7488,196.073h -6.79956"
     fill="none"
     stroke="black"
     id="path172" />
  <path
     d="M63.7488,188.914h -6.79956"
     fill="none"
     stroke="black"
     id="path174" />
  <path
     d="M63.7488,181.755h -6.79956"
     fill="none"
     stroke="black"
     id="path176" />
  <path
     d="M63.7488,174.596h -6.79956"
     fill="none"
     stroke="black"
     id="path178" />
  <path
     d="M70.5484,167.437h -13.5991"
     fill="none"
     stroke="black"
     id="path180" />
  <path
     d="M63.7488,160.278h -6.79956"
     fill="none"
     stroke="black"
     id="path182" />
  <path
     d="M63.7488,153.119h -6.79956"
     fill="none"
     stroke="black"
     id="path184" />
  <path
     d="M63.7488,145.96h -6.79956"
     fill="none"
     stroke="black"
     id="path186" />
  <path
     d="M63.7488,138.801h -6.79956"
     fill="none"
     stroke="black"
     id="path188" />
  <path
     d="M70.5484,131.642h -13.5991"
     fill="none"
     stroke="black"
     id="path190" />
  <path
     d="M63.7488,124.483h -6.79956"
     fill="none"
     stroke="black"
     id="path192" />
  <path
     d="M63.7488,117.324h -6.79956"
     fill="none"
     stroke="black"
     id="path194" />
  <path
     d="M63.7488,110.165h -6.79956"
     fill="none"
     stroke="black"
     id="path196" />
  <path
     d="M63.7488,103.006h -6.79956"
     fill="none"
     stroke="black"
     id="path198" />
  <path
     d="M70.5484,95.8465h -13.5991"
     fill="none"
     stroke="black"
     id="path200" />
  <path
     d="M63.7488,88.6875h -6.79956"
     fill="none"
     stroke="black"
     id="path202" />
  <path
     d="M63.7488,81.5285h -6.79956"
     fill="none"
     stroke="black"
     id="path204" />
  <path
     d="M63.7488,74.3695h -6.79956"
     fill="none"
     stroke="black"
     id="path206" />
  <path
     d="M63.7488,67.2105h -6.79956"
     fill="none"
     stroke="black"
     id="path208" />
  <path
     d="M70.5484,60.0515h -13.5991"
     fill="none"
     stroke="black"
     id="path210" />
  <path
     d="M70.5484,60.0515h -13.5991"
     fill="none"
     stroke="black"
     id="path212" />
  <path
     d="M63.7488,52.8925h -6.79956"
     fill="none"
     stroke="black"
     id="path214" />
  <path
     d="M63.7488,45.7335h -6.79956"
     fill="none"
     stroke="black"
     id="path216" />
  <text
     xml:space="preserve"
     x="47.6087"
     y="350.879"
     fill="black"
     font-size="12.8621"
     font-family="Helvetica"
     id="text218">0</text>
  <text
     xml:space="preserve"
     x="27.3032"
     y="315.141"
     fill="black"
     font-size="12.8621"
     font-family="Helvetica"
     id="text220">1000</text>
  <text
     xml:space="preserve"
     x="27.3032"
     y="279.403"
     fill="black"
     font-size="12.8621"
     font-family="Helvetica"
     id="text222">2000</text>
  <text
     xml:space="preserve"
     x="27.3032"
     y="243.666"
     fill="black"
     font-size="12.8621"
     font-family="Helvetica"
     id="text224">3000</text>
  <text
     xml:space="preserve"
     x="27.3032"
     y="207.928"
     fill="black"
     font-size="12.8621"
     font-family="Helvetica"
     id="text226">4000</text>
  <text
     xml:space="preserve"
     x="27.3032"
     y="172.191"
     fill="black"
     font-size="12.8621"
     font-family="Helvetica"
     id="text228">5000</text>
  <text
     xml:space="preserve"
     x="27.3032"
     y="136.453"
     fill="black"
     font-size="12.8621"
     font-family="Helvetica"
     id="text230">6000</text>
  <text
     xml:space="preserve"
     x="27.3032"
     y="100.715"
     fill="black"
     font-size="12.8621"
     font-family="Helvetica"
     id="text232">7000</text>
  <text
     xml:space="preserve"
     x="27.3032"
     y="64.1653"
     fill="black"
     font-size="12.8621"
     font-family="Helvetica"
     id="text234">8000</text>
  <text
     xml:space="preserve"
     x="76.0364"
     y="30.0521"
     fill="black"
     font-size="8.74142"
     font-family="Helvetica"
     id="text236">3</text>
  <text
     xml:space="preserve"
     x="63.0409"
     y="36.5499"
     fill="black"
     font-size="12.8621"
     font-family="Helvetica"
     id="text238">10</text>
  <text
     xml:space="preserve"
     x="56.5431"
     y="36.5499"
     fill="black"
     font-size="12.8621"
     font-family="Times"
     id="text240">×</text>
  <text
     xml:space="preserve"
     style="font-style:normal;font-weight:normal;font-size:40px;line-height:1.25;font-family:sans-serif;letter-spacing:0px;word-spacing:0px;fill:#000000;fill-opacity:1;stroke:none"
     x="334.0788"
     y="379.6842"
     id="text8740"
     transform="rotate(0.18338137)"><tspan
       sodipodi:role="line"
       id="tspan8738"
       x="334.0788"
       y="379.6842"
       style="font-size:24px">Q<tspan
   style="font-size:24px;baseline-shift:super"
   id="tspan8746">2</tspan> [GeV<tspan
   style="font-size:24px;baseline-shift:super"
   id="tspan8744">2</tspan>/c<tspan
   style="font-size:24px;baseline-shift:super"
   id="tspan8742">2</tspan>]</tspan></text>
</svg>
