<?xml version="1.0" encoding="UTF-8" standalone="no"?>
<svg
   xmlns:dc="http://purl.org/dc/elements/1.1/"
   xmlns:cc="http://creativecommons.org/ns#"
   xmlns:rdf="http://www.w3.org/1999/02/22-rdf-syntax-ns#"
   xmlns:svg="http://www.w3.org/2000/svg"
   xmlns="http://www.w3.org/2000/svg"
   xmlns:sodipodi="http://sodipodi.sourceforge.net/DTD/sodipodi-0.dtd"
   xmlns:inkscape="http://www.inkscape.org/namespaces/inkscape"
   width="567.429"
   height="385.492"
   viewBox="0 0 567.429 385.492"
   shape-rendering="crispEdges"
   version="1.1"
   id="svg202"
   sodipodi:docname="Wvar_sub.svg"
   inkscape:version="0.92.4 (5da689c313, 2019-01-14)"
   inkscape:export-filename="C:\Users\eggne\Documents\01-18-19\Presentation\Wvar_sub.png"
   inkscape:export-xdpi="96"
   inkscape:export-ydpi="96">
  <metadata
     id="metadata206">
    <rdf:RDF>
      <cc:Work
         rdf:about="">
        <dc:format>image/svg+xml</dc:format>
        <dc:type
           rdf:resource="http://purl.org/dc/dcmitype/StillImage" />
      </cc:Work>
    </rdf:RDF>
  </metadata>
  <sodipodi:namedview
     pagecolor="#ffffff"
     bordercolor="#666666"
     borderopacity="1"
     objecttolerance="10"
     gridtolerance="10"
     guidetolerance="10"
     inkscape:pageopacity="0"
     inkscape:pageshadow="2"
     inkscape:window-width="1920"
     inkscape:window-height="1001"
     id="namedview204"
     showgrid="false"
     inkscape:zoom="1.6897916"
     inkscape:cx="271.652"
     inkscape:cy="192.67052"
     inkscape:window-x="-9"
     inkscape:window-y="-9"
     inkscape:window-maximized="1"
     inkscape:current-layer="svg202" />
  <title
     id="title2">
/mnt/c/Users/eggne/Documents/01-18-19/Presentation/Wvar_sub.svg
</title>
  <desc
     id="desc4">
Creator: ROOT Version 6.18/04
CreationDate: Tue Feb 25 08:53:40 2020</desc>
  <defs
     id="defs6" />
  <rect
     x="0.5"
     y="0"
     width="566.929"
     height="384.992"
     fill="white"
     id="rect8" />
  <rect
     x="56.9492"
     y="38.5804"
     width="454.031"
     height="307.831"
     fill="white"
     id="rect10" />
  <rect
     x="56.9492"
     y="38.5804"
     width="454.031"
     height="307.831"
     fill="none"
     stroke="black"
     id="rect12" />
  <rect
     x="56.9492"
     y="38.5804"
     width="454.031"
     height="307.831"
     fill="white"
     id="rect14" />
  <rect
     x="56.9492"
     y="38.5804"
     width="454.031"
     height="307.831"
     fill="none"
     stroke="black"
     id="rect16" />
  <path
     d="M56.9492,332.394h 139.964v -0.174545h 3.41376v -0.121064h 3.41376v -0.317023h 3.41376v -0.416921h 3.41376v -0.0717213h 3.41376v -0.251761h 3.41376v -0.193131h 3.41376v -1.44593h 3.41376v -1.30369h 3.41376v 1.45744h 3.41376v -2.70659h  3.41376v 1.4351h 3.41376v 1.77143h 3.41376v -0.309215h 3.41376v -7.03859h 3.41376v 0.499195h 3.41376v -0.303437h 3.41376v -4.39502h 3.41376v 2.88675h 3.41376v -2.35512h 3.41376v -4.3625h 3.41376v -4.93978h 3.41376v 1.03732h 3.41376v -10.0753h  3.41376v 1.80214h 3.41376v -8.06387h 3.41376v -3.13869h 3.41376v -2.53356h 3.41376v -16.1742h 3.41376v -7.98594h 3.41376v -3.53513h 3.41376v -14.3196h 3.41376v -15.8832h 3.41376v -13.3614h 3.41376v -15.2268h 3.41376v -14.3201h 3.41376v -16.3263h  3.41376v -12.0276h 3.41376v -14.5483h 3.41376v -0.156546h 3.41376v -24.8856h 3.41376v 7.62918h 3.41376v -17.4408h 3.41376v -8.47974h 3.41376v 0.498876h 3.41376v -2.85952h 3.41376v -2.77371h 3.41376v -9.43487h 3.41376v 9.79701h 3.41376v -13.4239h  3.41376v 16.0009h 3.41376v -11.6934h 3.41376v -6.62324h 3.41376v 15.5468h 3.41376v -12.2741h 3.41376v 10.3338h 3.41376v -2.14796h 3.41376v -5.28533h 3.41376v -2.32441h 3.41376v 4.10928h 3.41376v -35.9307h 3.41376v 39.8846h 3.41376v 3.15807h 3.41376v  3.25134h 3.41376v 6.74918h 3.41376v -6.86678h 3.41376v 9.00005h 3.41376v 7.09407h 3.41376v 2.55993h 3.41376v 6.87804h 3.41376v 4.08306h 3.41376v 7.26328h 3.41376v 14.2324h 3.41376v -3.77881h 3.41376v 3.64371h 3.41376v 12.2882h 3.41376v 28.1249h  3.41376v 8.85627h 3.41376v 23.5831h 3.41376v 10.3231h 3.41376v 17.9318h 3.41376v 13.2796h 3.41376v 15.3402h 3.41376v 20.5468h 3.41376v 11.0827h 3.41376v 9.45532h 3.41376v 8.06114h 3.41376v 3.18677h 3.41376v -0.0571601h 13.6551"
     fill="none"
     stroke="#000099"
     id="path18" />
  <path
     d="M56.9492,346.412h 454.031"
     fill="none"
     stroke="black"
     id="path20" />
  <path
     d="M56.9492,337.162v 9.24974"
     fill="none"
     stroke="black"
     id="path22" />
  <path
     d="M68.3285,341.787v 4.62487"
     fill="none"
     stroke="black"
     id="path24" />
  <path
     d="M79.7077,341.787v 4.62487"
     fill="none"
     stroke="black"
     id="path26" />
  <path
     d="M91.0869,341.787v 4.62487"
     fill="none"
     stroke="black"
     id="path28" />
  <path
     d="M102.466,337.162v 9.24974"
     fill="none"
     stroke="black"
     id="path30" />
  <path
     d="M113.845,341.787v 4.62487"
     fill="none"
     stroke="black"
     id="path32" />
  <path
     d="M125.225,341.787v 4.62487"
     fill="none"
     stroke="black"
     id="path34" />
  <path
     d="M136.604,341.787v 4.62487"
     fill="none"
     stroke="black"
     id="path36" />
  <path
     d="M147.983,337.162v 9.24974"
     fill="none"
     stroke="black"
     id="path38" />
  <path
     d="M159.362,341.787v 4.62487"
     fill="none"
     stroke="black"
     id="path40" />
  <path
     d="M170.741,341.787v 4.62487"
     fill="none"
     stroke="black"
     id="path42" />
  <path
     d="M182.121,341.787v 4.62487"
     fill="none"
     stroke="black"
     id="path44" />
  <path
     d="M193.5,337.162v 9.24974"
     fill="none"
     stroke="black"
     id="path46" />
  <path
     d="M204.879,341.787v 4.62487"
     fill="none"
     stroke="black"
     id="path48" />
  <path
     d="M216.258,341.787v 4.62487"
     fill="none"
     stroke="black"
     id="path50" />
  <path
     d="M227.637,341.787v 4.62487"
     fill="none"
     stroke="black"
     id="path52" />
  <path
     d="M239.017,337.162v 9.24974"
     fill="none"
     stroke="black"
     id="path54" />
  <path
     d="M250.396,341.787v 4.62487"
     fill="none"
     stroke="black"
     id="path56" />
  <path
     d="M261.775,341.787v 4.62487"
     fill="none"
     stroke="black"
     id="path58" />
  <path
     d="M273.154,341.787v 4.62487"
     fill="none"
     stroke="black"
     id="path60" />
  <path
     d="M284.534,337.162v 9.24974"
     fill="none"
     stroke="black"
     id="path62" />
  <path
     d="M295.913,341.787v 4.62487"
     fill="none"
     stroke="black"
     id="path64" />
  <path
     d="M307.292,341.787v 4.62487"
     fill="none"
     stroke="black"
     id="path66" />
  <path
     d="M318.671,341.787v 4.62487"
     fill="none"
     stroke="black"
     id="path68" />
  <path
     d="M330.05,337.162v 9.24974"
     fill="none"
     stroke="black"
     id="path70" />
  <path
     d="M341.43,341.787v 4.62487"
     fill="none"
     stroke="black"
     id="path72" />
  <path
     d="M352.809,341.787v 4.62487"
     fill="none"
     stroke="black"
     id="path74" />
  <path
     d="M364.188,341.787v 4.62487"
     fill="none"
     stroke="black"
     id="path76" />
  <path
     d="M375.567,337.162v 9.24974"
     fill="none"
     stroke="black"
     id="path78" />
  <path
     d="M386.946,341.787v 4.62487"
     fill="none"
     stroke="black"
     id="path80" />
  <path
     d="M398.326,341.787v 4.62487"
     fill="none"
     stroke="black"
     id="path82" />
  <path
     d="M409.705,341.787v 4.62487"
     fill="none"
     stroke="black"
     id="path84" />
  <path
     d="M421.084,337.162v 9.24974"
     fill="none"
     stroke="black"
     id="path86" />
  <path
     d="M432.463,341.787v 4.62487"
     fill="none"
     stroke="black"
     id="path88" />
  <path
     d="M443.843,341.787v 4.62487"
     fill="none"
     stroke="black"
     id="path90" />
  <path
     d="M455.222,341.787v 4.62487"
     fill="none"
     stroke="black"
     id="path92" />
  <path
     d="M466.601,337.162v 9.24974"
     fill="none"
     stroke="black"
     id="path94" />
  <path
     d="M466.601,337.162v 9.24974"
     fill="none"
     stroke="black"
     id="path96" />
  <path
     d="M477.98,341.787v 4.62487"
     fill="none"
     stroke="black"
     id="path98" />
  <path
     d="M489.359,341.787v 4.62487"
     fill="none"
     stroke="black"
     id="path100" />
  <path
     d="M500.739,341.787v 4.62487"
     fill="none"
     stroke="black"
     id="path102" />
  <text
     xml:space="preserve"
     x="53.2943"
     y="359.001"
     fill="black"
     font-size="12.8621"
     font-family="Helvetica"
     id="text104">0</text>
  <text
     xml:space="preserve"
     x="93.093"
     y="359.001"
     fill="black"
     font-size="12.8621"
     font-family="Helvetica"
     id="text106">0.2</text>
  <text
     xml:space="preserve"
     x="138.577"
     y="359.001"
     fill="black"
     font-size="12.8621"
     font-family="Helvetica"
     id="text108">0.4</text>
  <text
     xml:space="preserve"
     x="184.062"
     y="359.001"
     fill="black"
     font-size="12.8621"
     font-family="Helvetica"
     id="text110">0.6</text>
  <text
     xml:space="preserve"
     x="229.546"
     y="359.001"
     fill="black"
     font-size="12.8621"
     font-family="Helvetica"
     id="text112">0.8</text>
  <text
     xml:space="preserve"
     x="281.528"
     y="359.001"
     fill="black"
     font-size="12.8621"
     font-family="Helvetica"
     id="text114">1</text>
  <text
     xml:space="preserve"
     x="320.514"
     y="359.001"
     fill="black"
     font-size="12.8621"
     font-family="Helvetica"
     id="text116">1.2</text>
  <text
     xml:space="preserve"
     x="365.999"
     y="359.001"
     fill="black"
     font-size="12.8621"
     font-family="Helvetica"
     id="text118">1.4</text>
  <text
     xml:space="preserve"
     x="411.483"
     y="359.001"
     fill="black"
     font-size="12.8621"
     font-family="Helvetica"
     id="text120">1.6</text>
  <text
     xml:space="preserve"
     x="456.967"
     y="359.001"
     fill="black"
     font-size="12.8621"
     font-family="Helvetica"
     id="text122">1.8</text>
  <path
     d="M56.9492,346.412v -307.831"
     fill="none"
     stroke="black"
     id="path124" />
  <path
     d="M70.5484,332.394h -13.5991"
     fill="none"
     stroke="black"
     id="path126" />
  <path
     d="M63.7488,320.871h -6.79956"
     fill="none"
     stroke="black"
     id="path128" />
  <path
     d="M63.7488,309.349h -6.79956"
     fill="none"
     stroke="black"
     id="path130" />
  <path
     d="M63.7488,297.827h -6.79956"
     fill="none"
     stroke="black"
     id="path132" />
  <path
     d="M63.7488,286.304h -6.79956"
     fill="none"
     stroke="black"
     id="path134" />
  <path
     d="M70.5484,274.782h -13.5991"
     fill="none"
     stroke="black"
     id="path136" />
  <path
     d="M63.7488,263.26h -6.79956"
     fill="none"
     stroke="black"
     id="path138" />
  <path
     d="M63.7488,251.737h -6.79956"
     fill="none"
     stroke="black"
     id="path140" />
  <path
     d="M63.7488,240.215h -6.79956"
     fill="none"
     stroke="black"
     id="path142" />
  <path
     d="M63.7488,228.692h -6.79956"
     fill="none"
     stroke="black"
     id="path144" />
  <path
     d="M70.5484,217.17h -13.5991"
     fill="none"
     stroke="black"
     id="path146" />
  <path
     d="M63.7488,205.648h -6.79956"
     fill="none"
     stroke="black"
     id="path148" />
  <path
     d="M63.7488,194.125h -6.79956"
     fill="none"
     stroke="black"
     id="path150" />
  <path
     d="M63.7488,182.603h -6.79956"
     fill="none"
     stroke="black"
     id="path152" />
  <path
     d="M63.7488,171.08h -6.79956"
     fill="none"
     stroke="black"
     id="path154" />
  <path
     d="M70.5484,159.558h -13.5991"
     fill="none"
     stroke="black"
     id="path156" />
  <path
     d="M63.7488,148.036h -6.79956"
     fill="none"
     stroke="black"
     id="path158" />
  <path
     d="M63.7488,136.513h -6.79956"
     fill="none"
     stroke="black"
     id="path160" />
  <path
     d="M63.7488,124.991h -6.79956"
     fill="none"
     stroke="black"
     id="path162" />
  <path
     d="M63.7488,113.469h -6.79956"
     fill="none"
     stroke="black"
     id="path164" />
  <path
     d="M70.5484,101.946h -13.5991"
     fill="none"
     stroke="black"
     id="path166" />
  <path
     d="M63.7488,90.4238h -6.79956"
     fill="none"
     stroke="black"
     id="path168" />
  <path
     d="M63.7488,78.9014h -6.79956"
     fill="none"
     stroke="black"
     id="path170" />
  <path
     d="M63.7488,67.3791h -6.79956"
     fill="none"
     stroke="black"
     id="path172" />
  <path
     d="M63.7488,55.8567h -6.79956"
     fill="none"
     stroke="black"
     id="path174" />
  <path
     d="M70.5484,44.3343h -13.5991"
     fill="none"
     stroke="black"
     id="path176" />
  <path
     d="M70.5484,332.394h -13.5991"
     fill="none"
     stroke="black"
     id="path178" />
  <path
     d="M63.7488,343.916h -6.79956"
     fill="none"
     stroke="black"
     id="path180" />
  <path
     d="M70.5484,44.3343h -13.5991"
     fill="none"
     stroke="black"
     id="path182" />
  <text
     xml:space="preserve"
     x="47.6087"
     y="337.071"
     fill="black"
     font-size="12.8621"
     font-family="Helvetica"
     id="text184">0</text>
  <text
     xml:space="preserve"
     x="27.3032"
     y="279.403"
     fill="black"
     font-size="12.8621"
     font-family="Helvetica"
     id="text186">1000</text>
  <text
     xml:space="preserve"
     x="27.3032"
     y="221.736"
     fill="black"
     font-size="12.8621"
     font-family="Helvetica"
     id="text188">2000</text>
  <text
     xml:space="preserve"
     x="27.3032"
     y="164.068"
     fill="black"
     font-size="12.8621"
     font-family="Helvetica"
     id="text190">3000</text>
  <text
     xml:space="preserve"
     x="27.3032"
     y="106.401"
     fill="black"
     font-size="12.8621"
     font-family="Helvetica"
     id="text192">4000</text>
  <text
     xml:space="preserve"
     x="27.3032"
     y="48.7332"
     fill="black"
     font-size="12.8621"
     font-family="Helvetica"
     id="text194">5000</text>
  <text
     xml:space="preserve"
     x="76.0364"
     y="30.0521"
     fill="black"
     font-size="8.74142"
     font-family="Helvetica"
     id="text196">3</text>
  <text
     xml:space="preserve"
     x="63.0409"
     y="36.5499"
     fill="black"
     font-size="12.8621"
     font-family="Helvetica"
     id="text198">10</text>
  <text
     xml:space="preserve"
     x="56.5431"
     y="36.5499"
     fill="black"
     font-size="12.8621"
     font-family="Times"
     id="text200">×</text>
  <text
     xml:space="preserve"
     style="font-style:normal;font-weight:normal;font-size:40px;line-height:1.25;font-family:sans-serif;letter-spacing:0px;word-spacing:0px;fill:#000000;fill-opacity:1;stroke:none"
     x="357.88867"
     y="386.66641"
     id="text4702"
     transform="rotate(-0.92102798)"><tspan
       sodipodi:role="line"
       id="tspan4700"
       x="357.88867"
       y="386.66641"
       style="font-size:24px">W [GeV/c<tspan
   style="font-size:64.99999762%;baseline-shift:super"
   id="tspan4706">2</tspan>]</tspan></text>
</svg>
