<?xml version="1.0" encoding="UTF-8" standalone="no"?>
<svg
   xmlns:dc="http://purl.org/dc/elements/1.1/"
   xmlns:cc="http://creativecommons.org/ns#"
   xmlns:rdf="http://www.w3.org/1999/02/22-rdf-syntax-ns#"
   xmlns:svg="http://www.w3.org/2000/svg"
   xmlns="http://www.w3.org/2000/svg"
   xmlns:sodipodi="http://sodipodi.sourceforge.net/DTD/sodipodi-0.dtd"
   xmlns:inkscape="http://www.inkscape.org/namespaces/inkscape"
   width="567.429"
   height="385.492"
   viewBox="0 0 567.429 385.492"
   shape-rendering="crispEdges"
   version="1.1"
   id="svg206"
   sodipodi:docname="Wvar.svg"
   inkscape:version="0.92.4 (5da689c313, 2019-01-14)"
   inkscape:export-filename="C:\Users\eggne\Documents\01-18-19\Presentation\Wvar.png"
   inkscape:export-xdpi="96"
   inkscape:export-ydpi="96">
  <metadata
     id="metadata210">
    <rdf:RDF>
      <cc:Work
         rdf:about="">
        <dc:format>image/svg+xml</dc:format>
        <dc:type
           rdf:resource="http://purl.org/dc/dcmitype/StillImage" />
      </cc:Work>
    </rdf:RDF>
  </metadata>
  <sodipodi:namedview
     pagecolor="#ffffff"
     bordercolor="#666666"
     borderopacity="1"
     objecttolerance="10"
     gridtolerance="10"
     guidetolerance="10"
     inkscape:pageopacity="0"
     inkscape:pageshadow="2"
     inkscape:window-width="1920"
     inkscape:window-height="1001"
     id="namedview208"
     showgrid="false"
     inkscape:zoom="1.6897916"
     inkscape:cx="280.23145"
     inkscape:cy="188.25824"
     inkscape:window-x="-32000"
     inkscape:window-y="-32000"
     inkscape:window-maximized="0"
     inkscape:current-layer="svg206" />
  <title
     id="title2">
/mnt/c/Users/eggne/Documents/01-18-19/Presentation/Wvar.svg
</title>
  <desc
     id="desc4">
Creator: ROOT Version 6.18/04
CreationDate: Tue Feb 25 08:53:04 2020</desc>
  <defs
     id="defs6" />
  <rect
     x="0.5"
     y="0"
     width="566.929"
     height="384.992"
     fill="white"
     id="rect8" />
  <rect
     x="56.9492"
     y="38.5804"
     width="454.031"
     height="307.831"
     fill="white"
     id="rect10" />
  <rect
     x="56.9492"
     y="38.5804"
     width="454.031"
     height="307.831"
     fill="none"
     stroke="black"
     id="rect12" />
  <rect
     x="56.9492"
     y="38.5804"
     width="454.031"
     height="307.831"
     fill="white"
     id="rect14" />
  <rect
     x="56.9492"
     y="38.5804"
     width="454.031"
     height="307.831"
     fill="none"
     stroke="black"
     id="rect16" />
  <path
     d="M56.9492,346.412h 10.0896v -0.00170565h 3.36319v 0.00170565h 3.36319v -0.0022742h 3.36319v 0.0011371h 6.72638v -0.000568549h 3.36319v -0.00170565h 3.36319v -0.000568549h 3.36319v 0.000568549h 3.36319v 0.000568549h 3.36319v 0.0011371h  3.36319v -0.00397985h 6.72638v 0.0011371h 3.36319v 0.000568549h 3.36319v -0.000568549h 3.36319v -0.00852824h 3.36319v 0.0034113h 3.36319v 0.0022742h 3.36319v -0.00397985h 3.36319v -0.00511695h 3.36319v -0.0125081h 3.36319v -0.0108024h 3.36319v  -0.0011371h 3.36319v -0.0147823h 3.36319v -0.0267218h 3.36319v -0.0386614h 3.36319v -0.028996h 3.36319v -0.0818711h 3.36319v -0.0494638h 3.36319v -0.100633h 3.36319v -0.128492h 3.36319v -0.102339h 3.36319v -0.177956h 3.36319v -0.201835h 3.36319v  -0.194444h 3.36319v -0.319525h 3.36319v -0.753897h 3.36319v -1.26104h 3.36319v -1.63117h 3.36319v -1.13994h 3.36319v -1.88417h 3.36319v -2.10193h 3.36319v -2.34413h 3.36319v -2.72108h 3.36319v -3.32658h 3.36319v -4.35566h 3.36319v -5.05895h 3.36319v  -5.70767h 3.36319v -7.0665h 3.36319v -7.54295h 3.36319v -8.82104h 3.36319v -10.2527h 3.36319v -10.2873h 3.36319v -11.0026h 3.36319v -11.6337h 3.36319v -10.5648h 3.36319v -10.9184h 3.36319v -9.68751h 3.36319v -8.12571h 3.36319v -6.88684h 3.36319v  -5.69971h 3.36319v -4.88043h 3.36319v -3.25665h 3.36319v -1.72896h 3.36319v -0.699316h 3.36319v 0.0869881h 3.36319v -0.312702h 3.36319v 0.124512h 3.36319v -0.0130766h 3.36319v -0.616308h 3.36319v -1.20476h 3.36319v -1.25479h 3.36319v -2.96783h  3.36319v -2.75405h 3.36319v -3.09348h 3.36319v -3.68761h 3.36319v -3.11679h 3.36319v -3.08268h 3.36319v -3.4636h 3.36319v -1.94501h 3.36319v -2.73927h 3.36319v -2.12012h 3.36319v -1.78297h 3.36319v -1.94558h 3.36319v -1.43729h 3.36319v -1.87166h  3.36319v -2.36858h 3.36319v -2.07464h 3.36319v -3.31237h 3.36319v -2.97408h 3.36319v -4.73261h 3.36319v -3.58414h 3.36319v -4.13279h 3.36319v -4.34883h 3.36319v -4.40683h 3.36319v -4.96003h 3.36319v -4.71953h 3.36319v -4.35225h 3.36319v -5.21644h  3.36319v -4.61548h 3.36319v -4.50973h 3.36319v -4.51769h 3.36319v -4.30051h 3.36319v -3.40163h 3.36319v -3.63531h 3.36319v -3.01445h 3.36319v -2.2958h 3.36319v -2.59202h 3.36319v -3.74106h 3.36319v 0.242202h 3.36319v -1.87223h 3.36319v -1.68973h  3.36319v 2.96612h 3.36319v 9.85922h 3.36319v 9.42882h 3.36319v 10.9218h 3.36319v 16.5198h 3.36319v 18.5842h 3.36319v 21.1489h 3.36319v 28.6509h 3.36319v 34.2807h 3.36319v 37.4282h 3.36319v 46.2919h 3.36319v 37.605h 3.36319v 19.122h 3.36319v  0.365009h 20.1791"
     fill="none"
     stroke="#000099"
     id="path18" />
  <path
     d="M56.9492,346.412h 454.031"
     fill="none"
     stroke="black"
     id="path20" />
  <path
     d="M56.9492,337.162v 9.24974"
     fill="none"
     stroke="black"
     id="path22" />
  <path
     d="M68.1599,341.787v 4.62487"
     fill="none"
     stroke="black"
     id="path24" />
  <path
     d="M79.3705,341.787v 4.62487"
     fill="none"
     stroke="black"
     id="path26" />
  <path
     d="M90.5811,341.787v 4.62487"
     fill="none"
     stroke="black"
     id="path28" />
  <path
     d="M101.792,337.162v 9.24974"
     fill="none"
     stroke="black"
     id="path30" />
  <path
     d="M113.002,341.787v 4.62487"
     fill="none"
     stroke="black"
     id="path32" />
  <path
     d="M124.213,341.787v 4.62487"
     fill="none"
     stroke="black"
     id="path34" />
  <path
     d="M135.424,341.787v 4.62487"
     fill="none"
     stroke="black"
     id="path36" />
  <path
     d="M146.634,337.162v 9.24974"
     fill="none"
     stroke="black"
     id="path38" />
  <path
     d="M157.845,341.787v 4.62487"
     fill="none"
     stroke="black"
     id="path40" />
  <path
     d="M169.056,341.787v 4.62487"
     fill="none"
     stroke="black"
     id="path42" />
  <path
     d="M180.266,341.787v 4.62487"
     fill="none"
     stroke="black"
     id="path44" />
  <path
     d="M191.477,337.162v 9.24974"
     fill="none"
     stroke="black"
     id="path46" />
  <path
     d="M202.687,341.787v 4.62487"
     fill="none"
     stroke="black"
     id="path48" />
  <path
     d="M213.898,341.787v 4.62487"
     fill="none"
     stroke="black"
     id="path50" />
  <path
     d="M225.109,341.787v 4.62487"
     fill="none"
     stroke="black"
     id="path52" />
  <path
     d="M236.319,337.162v 9.24974"
     fill="none"
     stroke="black"
     id="path54" />
  <path
     d="M247.53,341.787v 4.62487"
     fill="none"
     stroke="black"
     id="path56" />
  <path
     d="M258.741,341.787v 4.62487"
     fill="none"
     stroke="black"
     id="path58" />
  <path
     d="M269.951,341.787v 4.62487"
     fill="none"
     stroke="black"
     id="path60" />
  <path
     d="M281.162,337.162v 9.24974"
     fill="none"
     stroke="black"
     id="path62" />
  <path
     d="M292.373,341.787v 4.62487"
     fill="none"
     stroke="black"
     id="path64" />
  <path
     d="M303.583,341.787v 4.62487"
     fill="none"
     stroke="black"
     id="path66" />
  <path
     d="M314.794,341.787v 4.62487"
     fill="none"
     stroke="black"
     id="path68" />
  <path
     d="M326.004,337.162v 9.24974"
     fill="none"
     stroke="black"
     id="path70" />
  <path
     d="M337.215,341.787v 4.62487"
     fill="none"
     stroke="black"
     id="path72" />
  <path
     d="M348.426,341.787v 4.62487"
     fill="none"
     stroke="black"
     id="path74" />
  <path
     d="M359.636,341.787v 4.62487"
     fill="none"
     stroke="black"
     id="path76" />
  <path
     d="M370.847,337.162v 9.24974"
     fill="none"
     stroke="black"
     id="path78" />
  <path
     d="M382.058,341.787v 4.62487"
     fill="none"
     stroke="black"
     id="path80" />
  <path
     d="M393.268,341.787v 4.62487"
     fill="none"
     stroke="black"
     id="path82" />
  <path
     d="M404.479,341.787v 4.62487"
     fill="none"
     stroke="black"
     id="path84" />
  <path
     d="M415.69,337.162v 9.24974"
     fill="none"
     stroke="black"
     id="path86" />
  <path
     d="M426.9,341.787v 4.62487"
     fill="none"
     stroke="black"
     id="path88" />
  <path
     d="M438.111,341.787v 4.62487"
     fill="none"
     stroke="black"
     id="path90" />
  <path
     d="M449.321,341.787v 4.62487"
     fill="none"
     stroke="black"
     id="path92" />
  <path
     d="M460.532,337.162v 9.24974"
     fill="none"
     stroke="black"
     id="path94" />
  <path
     d="M471.743,341.787v 4.62487"
     fill="none"
     stroke="black"
     id="path96" />
  <path
     d="M482.953,341.787v 4.62487"
     fill="none"
     stroke="black"
     id="path98" />
  <path
     d="M494.164,341.787v 4.62487"
     fill="none"
     stroke="black"
     id="path100" />
  <path
     d="M505.375,337.162v 9.24974"
     fill="none"
     stroke="black"
     id="path102" />
  <path
     d="M505.375,337.162v 9.24974"
     fill="none"
     stroke="black"
     id="path104" />
  <text
     xml:space="preserve"
     x="53.2943"
     y="359.001"
     fill="black"
     font-size="12.8621"
     font-family="Helvetica"
     id="text106">0</text>
  <text
     xml:space="preserve"
     x="92.2808"
     y="359.001"
     fill="black"
     font-size="12.8621"
     font-family="Helvetica"
     id="text108">0.2</text>
  <text
     xml:space="preserve"
     x="136.953"
     y="359.001"
     fill="black"
     font-size="12.8621"
     font-family="Helvetica"
     id="text110">0.4</text>
  <text
     xml:space="preserve"
     x="182.437"
     y="359.001"
     fill="black"
     font-size="12.8621"
     font-family="Helvetica"
     id="text112">0.6</text>
  <text
     xml:space="preserve"
     x="227.109"
     y="359.001"
     fill="black"
     font-size="12.8621"
     font-family="Helvetica"
     id="text114">0.8</text>
  <text
     xml:space="preserve"
     x="278.279"
     y="359.001"
     fill="black"
     font-size="12.8621"
     font-family="Helvetica"
     id="text116">1</text>
  <text
     xml:space="preserve"
     x="316.453"
     y="359.001"
     fill="black"
     font-size="12.8621"
     font-family="Helvetica"
     id="text118">1.2</text>
  <text
     xml:space="preserve"
     x="361.125"
     y="359.001"
     fill="black"
     font-size="12.8621"
     font-family="Helvetica"
     id="text120">1.4</text>
  <text
     xml:space="preserve"
     x="406.61"
     y="359.001"
     fill="black"
     font-size="12.8621"
     font-family="Helvetica"
     id="text122">1.6</text>
  <text
     xml:space="preserve"
     x="451.282"
     y="359.001"
     fill="black"
     font-size="12.8621"
     font-family="Helvetica"
     id="text124">1.8</text>
  <text
     xml:space="preserve"
     x="501.639"
     y="359.001"
     fill="black"
     font-size="12.8621"
     font-family="Helvetica"
     id="text126">2</text>
  <path
     d="M56.9492,346.412v -307.831"
     fill="none"
     stroke="black"
     id="path128" />
  <path
     d="M70.5484,346.412h -13.5991"
     fill="none"
     stroke="black"
     id="path130" />
  <path
     d="M63.7488,335.041h -6.79956"
     fill="none"
     stroke="black"
     id="path132" />
  <path
     d="M63.7488,323.67h -6.79956"
     fill="none"
     stroke="black"
     id="path134" />
  <path
     d="M63.7488,312.299h -6.79956"
     fill="none"
     stroke="black"
     id="path136" />
  <path
     d="M63.7488,300.928h -6.79956"
     fill="none"
     stroke="black"
     id="path138" />
  <path
     d="M70.5484,289.557h -13.5991"
     fill="none"
     stroke="black"
     id="path140" />
  <path
     d="M63.7488,278.186h -6.79956"
     fill="none"
     stroke="black"
     id="path142" />
  <path
     d="M63.7488,266.815h -6.79956"
     fill="none"
     stroke="black"
     id="path144" />
  <path
     d="M63.7488,255.444h -6.79956"
     fill="none"
     stroke="black"
     id="path146" />
  <path
     d="M63.7488,244.073h -6.79956"
     fill="none"
     stroke="black"
     id="path148" />
  <path
     d="M70.5484,232.702h -13.5991"
     fill="none"
     stroke="black"
     id="path150" />
  <path
     d="M63.7488,221.331h -6.79956"
     fill="none"
     stroke="black"
     id="path152" />
  <path
     d="M63.7488,209.96h -6.79956"
     fill="none"
     stroke="black"
     id="path154" />
  <path
     d="M63.7488,198.589h -6.79956"
     fill="none"
     stroke="black"
     id="path156" />
  <path
     d="M63.7488,187.218h -6.79956"
     fill="none"
     stroke="black"
     id="path158" />
  <path
     d="M70.5484,175.847h -13.5991"
     fill="none"
     stroke="black"
     id="path160" />
  <path
     d="M63.7488,164.476h -6.79956"
     fill="none"
     stroke="black"
     id="path162" />
  <path
     d="M63.7488,153.105h -6.79956"
     fill="none"
     stroke="black"
     id="path164" />
  <path
     d="M63.7488,141.734h -6.79956"
     fill="none"
     stroke="black"
     id="path166" />
  <path
     d="M63.7488,130.363h -6.79956"
     fill="none"
     stroke="black"
     id="path168" />
  <path
     d="M70.5484,118.992h -13.5991"
     fill="none"
     stroke="black"
     id="path170" />
  <path
     d="M63.7488,107.621h -6.79956"
     fill="none"
     stroke="black"
     id="path172" />
  <path
     d="M63.7488,96.2498h -6.79956"
     fill="none"
     stroke="black"
     id="path174" />
  <path
     d="M63.7488,84.8788h -6.79956"
     fill="none"
     stroke="black"
     id="path176" />
  <path
     d="M63.7488,73.5078h -6.79956"
     fill="none"
     stroke="black"
     id="path178" />
  <path
     d="M70.5484,62.1368h -13.5991"
     fill="none"
     stroke="black"
     id="path180" />
  <path
     d="M70.5484,62.1368h -13.5991"
     fill="none"
     stroke="black"
     id="path182" />
  <path
     d="M63.7488,50.7659h -6.79956"
     fill="none"
     stroke="black"
     id="path184" />
  <path
     d="M63.7488,39.3949h -6.79956"
     fill="none"
     stroke="black"
     id="path186" />
  <text
     xml:space="preserve"
     x="47.6087"
     y="350.879"
     fill="black"
     font-size="12.8621"
     font-family="Helvetica"
     id="text188">0</text>
  <text
     xml:space="preserve"
     x="33.801"
     y="294.023"
     fill="black"
     font-size="12.8621"
     font-family="Helvetica"
     id="text190">100</text>
  <text
     xml:space="preserve"
     x="33.801"
     y="237.168"
     fill="black"
     font-size="12.8621"
     font-family="Helvetica"
     id="text192">200</text>
  <text
     xml:space="preserve"
     x="33.801"
     y="180.313"
     fill="black"
     font-size="12.8621"
     font-family="Helvetica"
     id="text194">300</text>
  <text
     xml:space="preserve"
     x="33.801"
     y="123.457"
     fill="black"
     font-size="12.8621"
     font-family="Helvetica"
     id="text196">400</text>
  <text
     xml:space="preserve"
     x="33.801"
     y="66.602"
     fill="black"
     font-size="12.8621"
     font-family="Helvetica"
     id="text198">500</text>
  <text
     xml:space="preserve"
     x="76.0364"
     y="30.0521"
     fill="black"
     font-size="8.74142"
     font-family="Helvetica"
     id="text200">3</text>
  <text
     xml:space="preserve"
     x="63.0409"
     y="36.5499"
     fill="black"
     font-size="12.8621"
     font-family="Helvetica"
     id="text202">10</text>
  <text
     xml:space="preserve"
     x="56.5431"
     y="36.5499"
     fill="black"
     font-size="12.8621"
     font-family="Times"
     id="text204">×</text>
  <text
     xml:space="preserve"
     style="font-style:normal;font-weight:normal;font-size:40px;line-height:1.25;font-family:sans-serif;letter-spacing:0px;word-spacing:0px;fill:#000000;fill-opacity:1;stroke:none"
     x="364.33554"
     y="384.98157"
     id="text4702"
     transform="rotate(-0.4801088)"><tspan
       sodipodi:role="line"
       id="tspan4700"
       x="364.33554"
       y="384.98157"
       style="font-size:24px">W [GeV/c<tspan
   style="font-size:64.99999762%;baseline-shift:super"
   id="tspan4706">2</tspan>]</tspan></text>
</svg>
